%TF.GenerationSoftware,KiCad,Pcbnew,8.0.0*%
%TF.CreationDate,2024-12-21T07:53:57-08:00*%
%TF.ProjectId,Hampter3.1,48616d70-7465-4723-932e-312e6b696361,rev?*%
%TF.SameCoordinates,Original*%
%TF.FileFunction,Other,Comment*%
%FSLAX46Y46*%
G04 Gerber Fmt 4.6, Leading zero omitted, Abs format (unit mm)*
G04 Created by KiCad (PCBNEW 8.0.0) date 2024-12-21 07:53:57*
%MOMM*%
%LPD*%
G01*
G04 APERTURE LIST*
%ADD10C,0.150000*%
%ADD11C,0.030000*%
G04 APERTURE END LIST*
D10*
X190711346Y-254024835D02*
X189711346Y-254024835D01*
X189711346Y-254024835D02*
X190425631Y-253691502D01*
X190425631Y-253691502D02*
X189711346Y-253358169D01*
X189711346Y-253358169D02*
X190711346Y-253358169D01*
X189711346Y-252977216D02*
X190711346Y-252310550D01*
X189711346Y-252310550D02*
X190711346Y-252977216D01*
X190806584Y-252167693D02*
X190806584Y-251405788D01*
X190663727Y-251215311D02*
X190711346Y-251120073D01*
X190711346Y-251120073D02*
X190711346Y-250929597D01*
X190711346Y-250929597D02*
X190663727Y-250834359D01*
X190663727Y-250834359D02*
X190568488Y-250786740D01*
X190568488Y-250786740D02*
X190520869Y-250786740D01*
X190520869Y-250786740D02*
X190425631Y-250834359D01*
X190425631Y-250834359D02*
X190378012Y-250929597D01*
X190378012Y-250929597D02*
X190378012Y-251072454D01*
X190378012Y-251072454D02*
X190330393Y-251167692D01*
X190330393Y-251167692D02*
X190235155Y-251215311D01*
X190235155Y-251215311D02*
X190187536Y-251215311D01*
X190187536Y-251215311D02*
X190092298Y-251167692D01*
X190092298Y-251167692D02*
X190044679Y-251072454D01*
X190044679Y-251072454D02*
X190044679Y-250929597D01*
X190044679Y-250929597D02*
X190092298Y-250834359D01*
X190044679Y-250501025D02*
X190044679Y-250120073D01*
X189711346Y-250358168D02*
X190568488Y-250358168D01*
X190568488Y-250358168D02*
X190663727Y-250310549D01*
X190663727Y-250310549D02*
X190711346Y-250215311D01*
X190711346Y-250215311D02*
X190711346Y-250120073D01*
X190711346Y-249358168D02*
X190187536Y-249358168D01*
X190187536Y-249358168D02*
X190092298Y-249405787D01*
X190092298Y-249405787D02*
X190044679Y-249501025D01*
X190044679Y-249501025D02*
X190044679Y-249691501D01*
X190044679Y-249691501D02*
X190092298Y-249786739D01*
X190663727Y-249358168D02*
X190711346Y-249453406D01*
X190711346Y-249453406D02*
X190711346Y-249691501D01*
X190711346Y-249691501D02*
X190663727Y-249786739D01*
X190663727Y-249786739D02*
X190568488Y-249834358D01*
X190568488Y-249834358D02*
X190473250Y-249834358D01*
X190473250Y-249834358D02*
X190378012Y-249786739D01*
X190378012Y-249786739D02*
X190330393Y-249691501D01*
X190330393Y-249691501D02*
X190330393Y-249453406D01*
X190330393Y-249453406D02*
X190282774Y-249358168D01*
X190711346Y-248881977D02*
X189711346Y-248881977D01*
X190092298Y-248881977D02*
X190044679Y-248786739D01*
X190044679Y-248786739D02*
X190044679Y-248596263D01*
X190044679Y-248596263D02*
X190092298Y-248501025D01*
X190092298Y-248501025D02*
X190139917Y-248453406D01*
X190139917Y-248453406D02*
X190235155Y-248405787D01*
X190235155Y-248405787D02*
X190520869Y-248405787D01*
X190520869Y-248405787D02*
X190616107Y-248453406D01*
X190616107Y-248453406D02*
X190663727Y-248501025D01*
X190663727Y-248501025D02*
X190711346Y-248596263D01*
X190711346Y-248596263D02*
X190711346Y-248786739D01*
X190711346Y-248786739D02*
X190663727Y-248881977D01*
X286552034Y-253057819D02*
X286552034Y-252057819D01*
X286552034Y-252057819D02*
X286885367Y-252772104D01*
X286885367Y-252772104D02*
X287218700Y-252057819D01*
X287218700Y-252057819D02*
X287218700Y-253057819D01*
X287599653Y-252057819D02*
X288266319Y-253057819D01*
X288266319Y-252057819D02*
X287599653Y-253057819D01*
X288409177Y-253153057D02*
X289171081Y-253153057D01*
X289361558Y-253010200D02*
X289456796Y-253057819D01*
X289456796Y-253057819D02*
X289647272Y-253057819D01*
X289647272Y-253057819D02*
X289742510Y-253010200D01*
X289742510Y-253010200D02*
X289790129Y-252914961D01*
X289790129Y-252914961D02*
X289790129Y-252867342D01*
X289790129Y-252867342D02*
X289742510Y-252772104D01*
X289742510Y-252772104D02*
X289647272Y-252724485D01*
X289647272Y-252724485D02*
X289504415Y-252724485D01*
X289504415Y-252724485D02*
X289409177Y-252676866D01*
X289409177Y-252676866D02*
X289361558Y-252581628D01*
X289361558Y-252581628D02*
X289361558Y-252534009D01*
X289361558Y-252534009D02*
X289409177Y-252438771D01*
X289409177Y-252438771D02*
X289504415Y-252391152D01*
X289504415Y-252391152D02*
X289647272Y-252391152D01*
X289647272Y-252391152D02*
X289742510Y-252438771D01*
X290075844Y-252391152D02*
X290456796Y-252391152D01*
X290218701Y-252057819D02*
X290218701Y-252914961D01*
X290218701Y-252914961D02*
X290266320Y-253010200D01*
X290266320Y-253010200D02*
X290361558Y-253057819D01*
X290361558Y-253057819D02*
X290456796Y-253057819D01*
X291218701Y-253057819D02*
X291218701Y-252534009D01*
X291218701Y-252534009D02*
X291171082Y-252438771D01*
X291171082Y-252438771D02*
X291075844Y-252391152D01*
X291075844Y-252391152D02*
X290885368Y-252391152D01*
X290885368Y-252391152D02*
X290790130Y-252438771D01*
X291218701Y-253010200D02*
X291123463Y-253057819D01*
X291123463Y-253057819D02*
X290885368Y-253057819D01*
X290885368Y-253057819D02*
X290790130Y-253010200D01*
X290790130Y-253010200D02*
X290742511Y-252914961D01*
X290742511Y-252914961D02*
X290742511Y-252819723D01*
X290742511Y-252819723D02*
X290790130Y-252724485D01*
X290790130Y-252724485D02*
X290885368Y-252676866D01*
X290885368Y-252676866D02*
X291123463Y-252676866D01*
X291123463Y-252676866D02*
X291218701Y-252629247D01*
X291694892Y-253057819D02*
X291694892Y-252057819D01*
X291694892Y-252438771D02*
X291790130Y-252391152D01*
X291790130Y-252391152D02*
X291980606Y-252391152D01*
X291980606Y-252391152D02*
X292075844Y-252438771D01*
X292075844Y-252438771D02*
X292123463Y-252486390D01*
X292123463Y-252486390D02*
X292171082Y-252581628D01*
X292171082Y-252581628D02*
X292171082Y-252867342D01*
X292171082Y-252867342D02*
X292123463Y-252962580D01*
X292123463Y-252962580D02*
X292075844Y-253010200D01*
X292075844Y-253010200D02*
X291980606Y-253057819D01*
X291980606Y-253057819D02*
X291790130Y-253057819D01*
X291790130Y-253057819D02*
X291694892Y-253010200D01*
X131718657Y-253081909D02*
X131718657Y-252081909D01*
X131718657Y-252081909D02*
X132051990Y-252796194D01*
X132051990Y-252796194D02*
X132385323Y-252081909D01*
X132385323Y-252081909D02*
X132385323Y-253081909D01*
X132766276Y-252081909D02*
X133432942Y-253081909D01*
X133432942Y-252081909D02*
X132766276Y-253081909D01*
X133575800Y-253177147D02*
X134337704Y-253177147D01*
X134528181Y-253034290D02*
X134623419Y-253081909D01*
X134623419Y-253081909D02*
X134813895Y-253081909D01*
X134813895Y-253081909D02*
X134909133Y-253034290D01*
X134909133Y-253034290D02*
X134956752Y-252939051D01*
X134956752Y-252939051D02*
X134956752Y-252891432D01*
X134956752Y-252891432D02*
X134909133Y-252796194D01*
X134909133Y-252796194D02*
X134813895Y-252748575D01*
X134813895Y-252748575D02*
X134671038Y-252748575D01*
X134671038Y-252748575D02*
X134575800Y-252700956D01*
X134575800Y-252700956D02*
X134528181Y-252605718D01*
X134528181Y-252605718D02*
X134528181Y-252558099D01*
X134528181Y-252558099D02*
X134575800Y-252462861D01*
X134575800Y-252462861D02*
X134671038Y-252415242D01*
X134671038Y-252415242D02*
X134813895Y-252415242D01*
X134813895Y-252415242D02*
X134909133Y-252462861D01*
X135242467Y-252415242D02*
X135623419Y-252415242D01*
X135385324Y-252081909D02*
X135385324Y-252939051D01*
X135385324Y-252939051D02*
X135432943Y-253034290D01*
X135432943Y-253034290D02*
X135528181Y-253081909D01*
X135528181Y-253081909D02*
X135623419Y-253081909D01*
X136385324Y-253081909D02*
X136385324Y-252558099D01*
X136385324Y-252558099D02*
X136337705Y-252462861D01*
X136337705Y-252462861D02*
X136242467Y-252415242D01*
X136242467Y-252415242D02*
X136051991Y-252415242D01*
X136051991Y-252415242D02*
X135956753Y-252462861D01*
X136385324Y-253034290D02*
X136290086Y-253081909D01*
X136290086Y-253081909D02*
X136051991Y-253081909D01*
X136051991Y-253081909D02*
X135956753Y-253034290D01*
X135956753Y-253034290D02*
X135909134Y-252939051D01*
X135909134Y-252939051D02*
X135909134Y-252843813D01*
X135909134Y-252843813D02*
X135956753Y-252748575D01*
X135956753Y-252748575D02*
X136051991Y-252700956D01*
X136051991Y-252700956D02*
X136290086Y-252700956D01*
X136290086Y-252700956D02*
X136385324Y-252653337D01*
X136861515Y-253081909D02*
X136861515Y-252081909D01*
X136861515Y-252462861D02*
X136956753Y-252415242D01*
X136956753Y-252415242D02*
X137147229Y-252415242D01*
X137147229Y-252415242D02*
X137242467Y-252462861D01*
X137242467Y-252462861D02*
X137290086Y-252510480D01*
X137290086Y-252510480D02*
X137337705Y-252605718D01*
X137337705Y-252605718D02*
X137337705Y-252891432D01*
X137337705Y-252891432D02*
X137290086Y-252986670D01*
X137290086Y-252986670D02*
X137242467Y-253034290D01*
X137242467Y-253034290D02*
X137147229Y-253081909D01*
X137147229Y-253081909D02*
X136956753Y-253081909D01*
X136956753Y-253081909D02*
X136861515Y-253034290D01*
X457980073Y-231213819D02*
X457980073Y-230213819D01*
X457980073Y-230213819D02*
X458313406Y-230928104D01*
X458313406Y-230928104D02*
X458646739Y-230213819D01*
X458646739Y-230213819D02*
X458646739Y-231213819D01*
X459027692Y-230213819D02*
X459694358Y-231213819D01*
X459694358Y-230213819D02*
X459027692Y-231213819D01*
X459837216Y-231309057D02*
X460599120Y-231309057D01*
X460789597Y-231166200D02*
X460884835Y-231213819D01*
X460884835Y-231213819D02*
X461075311Y-231213819D01*
X461075311Y-231213819D02*
X461170549Y-231166200D01*
X461170549Y-231166200D02*
X461218168Y-231070961D01*
X461218168Y-231070961D02*
X461218168Y-231023342D01*
X461218168Y-231023342D02*
X461170549Y-230928104D01*
X461170549Y-230928104D02*
X461075311Y-230880485D01*
X461075311Y-230880485D02*
X460932454Y-230880485D01*
X460932454Y-230880485D02*
X460837216Y-230832866D01*
X460837216Y-230832866D02*
X460789597Y-230737628D01*
X460789597Y-230737628D02*
X460789597Y-230690009D01*
X460789597Y-230690009D02*
X460837216Y-230594771D01*
X460837216Y-230594771D02*
X460932454Y-230547152D01*
X460932454Y-230547152D02*
X461075311Y-230547152D01*
X461075311Y-230547152D02*
X461170549Y-230594771D01*
X461503883Y-230547152D02*
X461884835Y-230547152D01*
X461646740Y-230213819D02*
X461646740Y-231070961D01*
X461646740Y-231070961D02*
X461694359Y-231166200D01*
X461694359Y-231166200D02*
X461789597Y-231213819D01*
X461789597Y-231213819D02*
X461884835Y-231213819D01*
X462646740Y-231213819D02*
X462646740Y-230690009D01*
X462646740Y-230690009D02*
X462599121Y-230594771D01*
X462599121Y-230594771D02*
X462503883Y-230547152D01*
X462503883Y-230547152D02*
X462313407Y-230547152D01*
X462313407Y-230547152D02*
X462218169Y-230594771D01*
X462646740Y-231166200D02*
X462551502Y-231213819D01*
X462551502Y-231213819D02*
X462313407Y-231213819D01*
X462313407Y-231213819D02*
X462218169Y-231166200D01*
X462218169Y-231166200D02*
X462170550Y-231070961D01*
X462170550Y-231070961D02*
X462170550Y-230975723D01*
X462170550Y-230975723D02*
X462218169Y-230880485D01*
X462218169Y-230880485D02*
X462313407Y-230832866D01*
X462313407Y-230832866D02*
X462551502Y-230832866D01*
X462551502Y-230832866D02*
X462646740Y-230785247D01*
X463122931Y-231213819D02*
X463122931Y-230213819D01*
X463122931Y-230594771D02*
X463218169Y-230547152D01*
X463218169Y-230547152D02*
X463408645Y-230547152D01*
X463408645Y-230547152D02*
X463503883Y-230594771D01*
X463503883Y-230594771D02*
X463551502Y-230642390D01*
X463551502Y-230642390D02*
X463599121Y-230737628D01*
X463599121Y-230737628D02*
X463599121Y-231023342D01*
X463599121Y-231023342D02*
X463551502Y-231118580D01*
X463551502Y-231118580D02*
X463503883Y-231166200D01*
X463503883Y-231166200D02*
X463408645Y-231213819D01*
X463408645Y-231213819D02*
X463218169Y-231213819D01*
X463218169Y-231213819D02*
X463122931Y-231166200D01*
X190700819Y-215923463D02*
X189700819Y-215923463D01*
X189700819Y-215923463D02*
X190415104Y-215590130D01*
X190415104Y-215590130D02*
X189700819Y-215256797D01*
X189700819Y-215256797D02*
X190700819Y-215256797D01*
X189700819Y-214875844D02*
X190700819Y-214209178D01*
X189700819Y-214209178D02*
X190700819Y-214875844D01*
X190796057Y-214066321D02*
X190796057Y-213304416D01*
X190653200Y-213113939D02*
X190700819Y-213018701D01*
X190700819Y-213018701D02*
X190700819Y-212828225D01*
X190700819Y-212828225D02*
X190653200Y-212732987D01*
X190653200Y-212732987D02*
X190557961Y-212685368D01*
X190557961Y-212685368D02*
X190510342Y-212685368D01*
X190510342Y-212685368D02*
X190415104Y-212732987D01*
X190415104Y-212732987D02*
X190367485Y-212828225D01*
X190367485Y-212828225D02*
X190367485Y-212971082D01*
X190367485Y-212971082D02*
X190319866Y-213066320D01*
X190319866Y-213066320D02*
X190224628Y-213113939D01*
X190224628Y-213113939D02*
X190177009Y-213113939D01*
X190177009Y-213113939D02*
X190081771Y-213066320D01*
X190081771Y-213066320D02*
X190034152Y-212971082D01*
X190034152Y-212971082D02*
X190034152Y-212828225D01*
X190034152Y-212828225D02*
X190081771Y-212732987D01*
X190034152Y-212399653D02*
X190034152Y-212018701D01*
X189700819Y-212256796D02*
X190557961Y-212256796D01*
X190557961Y-212256796D02*
X190653200Y-212209177D01*
X190653200Y-212209177D02*
X190700819Y-212113939D01*
X190700819Y-212113939D02*
X190700819Y-212018701D01*
X190700819Y-211256796D02*
X190177009Y-211256796D01*
X190177009Y-211256796D02*
X190081771Y-211304415D01*
X190081771Y-211304415D02*
X190034152Y-211399653D01*
X190034152Y-211399653D02*
X190034152Y-211590129D01*
X190034152Y-211590129D02*
X190081771Y-211685367D01*
X190653200Y-211256796D02*
X190700819Y-211352034D01*
X190700819Y-211352034D02*
X190700819Y-211590129D01*
X190700819Y-211590129D02*
X190653200Y-211685367D01*
X190653200Y-211685367D02*
X190557961Y-211732986D01*
X190557961Y-211732986D02*
X190462723Y-211732986D01*
X190462723Y-211732986D02*
X190367485Y-211685367D01*
X190367485Y-211685367D02*
X190319866Y-211590129D01*
X190319866Y-211590129D02*
X190319866Y-211352034D01*
X190319866Y-211352034D02*
X190272247Y-211256796D01*
X190700819Y-210780605D02*
X189700819Y-210780605D01*
X190081771Y-210780605D02*
X190034152Y-210685367D01*
X190034152Y-210685367D02*
X190034152Y-210494891D01*
X190034152Y-210494891D02*
X190081771Y-210399653D01*
X190081771Y-210399653D02*
X190129390Y-210352034D01*
X190129390Y-210352034D02*
X190224628Y-210304415D01*
X190224628Y-210304415D02*
X190510342Y-210304415D01*
X190510342Y-210304415D02*
X190605580Y-210352034D01*
X190605580Y-210352034D02*
X190653200Y-210399653D01*
X190653200Y-210399653D02*
X190700819Y-210494891D01*
X190700819Y-210494891D02*
X190700819Y-210685367D01*
X190700819Y-210685367D02*
X190653200Y-210780605D01*
X460397079Y-193112894D02*
X460397079Y-192112894D01*
X460397079Y-192112894D02*
X460730412Y-192827179D01*
X460730412Y-192827179D02*
X461063745Y-192112894D01*
X461063745Y-192112894D02*
X461063745Y-193112894D01*
X461444698Y-192112894D02*
X462111364Y-193112894D01*
X462111364Y-192112894D02*
X461444698Y-193112894D01*
X462254222Y-193208132D02*
X463016126Y-193208132D01*
X463206603Y-193065275D02*
X463301841Y-193112894D01*
X463301841Y-193112894D02*
X463492317Y-193112894D01*
X463492317Y-193112894D02*
X463587555Y-193065275D01*
X463587555Y-193065275D02*
X463635174Y-192970036D01*
X463635174Y-192970036D02*
X463635174Y-192922417D01*
X463635174Y-192922417D02*
X463587555Y-192827179D01*
X463587555Y-192827179D02*
X463492317Y-192779560D01*
X463492317Y-192779560D02*
X463349460Y-192779560D01*
X463349460Y-192779560D02*
X463254222Y-192731941D01*
X463254222Y-192731941D02*
X463206603Y-192636703D01*
X463206603Y-192636703D02*
X463206603Y-192589084D01*
X463206603Y-192589084D02*
X463254222Y-192493846D01*
X463254222Y-192493846D02*
X463349460Y-192446227D01*
X463349460Y-192446227D02*
X463492317Y-192446227D01*
X463492317Y-192446227D02*
X463587555Y-192493846D01*
X463920889Y-192446227D02*
X464301841Y-192446227D01*
X464063746Y-192112894D02*
X464063746Y-192970036D01*
X464063746Y-192970036D02*
X464111365Y-193065275D01*
X464111365Y-193065275D02*
X464206603Y-193112894D01*
X464206603Y-193112894D02*
X464301841Y-193112894D01*
X465063746Y-193112894D02*
X465063746Y-192589084D01*
X465063746Y-192589084D02*
X465016127Y-192493846D01*
X465016127Y-192493846D02*
X464920889Y-192446227D01*
X464920889Y-192446227D02*
X464730413Y-192446227D01*
X464730413Y-192446227D02*
X464635175Y-192493846D01*
X465063746Y-193065275D02*
X464968508Y-193112894D01*
X464968508Y-193112894D02*
X464730413Y-193112894D01*
X464730413Y-193112894D02*
X464635175Y-193065275D01*
X464635175Y-193065275D02*
X464587556Y-192970036D01*
X464587556Y-192970036D02*
X464587556Y-192874798D01*
X464587556Y-192874798D02*
X464635175Y-192779560D01*
X464635175Y-192779560D02*
X464730413Y-192731941D01*
X464730413Y-192731941D02*
X464968508Y-192731941D01*
X464968508Y-192731941D02*
X465063746Y-192684322D01*
X465539937Y-193112894D02*
X465539937Y-192112894D01*
X465539937Y-192493846D02*
X465635175Y-192446227D01*
X465635175Y-192446227D02*
X465825651Y-192446227D01*
X465825651Y-192446227D02*
X465920889Y-192493846D01*
X465920889Y-192493846D02*
X465968508Y-192541465D01*
X465968508Y-192541465D02*
X466016127Y-192636703D01*
X466016127Y-192636703D02*
X466016127Y-192922417D01*
X466016127Y-192922417D02*
X465968508Y-193017655D01*
X465968508Y-193017655D02*
X465920889Y-193065275D01*
X465920889Y-193065275D02*
X465825651Y-193112894D01*
X465825651Y-193112894D02*
X465635175Y-193112894D01*
X465635175Y-193112894D02*
X465539937Y-193065275D01*
X362752034Y-253057819D02*
X362752034Y-252057819D01*
X362752034Y-252057819D02*
X363085367Y-252772104D01*
X363085367Y-252772104D02*
X363418700Y-252057819D01*
X363418700Y-252057819D02*
X363418700Y-253057819D01*
X363799653Y-252057819D02*
X364466319Y-253057819D01*
X364466319Y-252057819D02*
X363799653Y-253057819D01*
X364609177Y-253153057D02*
X365371081Y-253153057D01*
X365561558Y-253010200D02*
X365656796Y-253057819D01*
X365656796Y-253057819D02*
X365847272Y-253057819D01*
X365847272Y-253057819D02*
X365942510Y-253010200D01*
X365942510Y-253010200D02*
X365990129Y-252914961D01*
X365990129Y-252914961D02*
X365990129Y-252867342D01*
X365990129Y-252867342D02*
X365942510Y-252772104D01*
X365942510Y-252772104D02*
X365847272Y-252724485D01*
X365847272Y-252724485D02*
X365704415Y-252724485D01*
X365704415Y-252724485D02*
X365609177Y-252676866D01*
X365609177Y-252676866D02*
X365561558Y-252581628D01*
X365561558Y-252581628D02*
X365561558Y-252534009D01*
X365561558Y-252534009D02*
X365609177Y-252438771D01*
X365609177Y-252438771D02*
X365704415Y-252391152D01*
X365704415Y-252391152D02*
X365847272Y-252391152D01*
X365847272Y-252391152D02*
X365942510Y-252438771D01*
X366275844Y-252391152D02*
X366656796Y-252391152D01*
X366418701Y-252057819D02*
X366418701Y-252914961D01*
X366418701Y-252914961D02*
X366466320Y-253010200D01*
X366466320Y-253010200D02*
X366561558Y-253057819D01*
X366561558Y-253057819D02*
X366656796Y-253057819D01*
X367418701Y-253057819D02*
X367418701Y-252534009D01*
X367418701Y-252534009D02*
X367371082Y-252438771D01*
X367371082Y-252438771D02*
X367275844Y-252391152D01*
X367275844Y-252391152D02*
X367085368Y-252391152D01*
X367085368Y-252391152D02*
X366990130Y-252438771D01*
X367418701Y-253010200D02*
X367323463Y-253057819D01*
X367323463Y-253057819D02*
X367085368Y-253057819D01*
X367085368Y-253057819D02*
X366990130Y-253010200D01*
X366990130Y-253010200D02*
X366942511Y-252914961D01*
X366942511Y-252914961D02*
X366942511Y-252819723D01*
X366942511Y-252819723D02*
X366990130Y-252724485D01*
X366990130Y-252724485D02*
X367085368Y-252676866D01*
X367085368Y-252676866D02*
X367323463Y-252676866D01*
X367323463Y-252676866D02*
X367418701Y-252629247D01*
X367894892Y-253057819D02*
X367894892Y-252057819D01*
X367894892Y-252438771D02*
X367990130Y-252391152D01*
X367990130Y-252391152D02*
X368180606Y-252391152D01*
X368180606Y-252391152D02*
X368275844Y-252438771D01*
X368275844Y-252438771D02*
X368323463Y-252486390D01*
X368323463Y-252486390D02*
X368371082Y-252581628D01*
X368371082Y-252581628D02*
X368371082Y-252867342D01*
X368371082Y-252867342D02*
X368323463Y-252962580D01*
X368323463Y-252962580D02*
X368275844Y-253010200D01*
X368275844Y-253010200D02*
X368180606Y-253057819D01*
X368180606Y-253057819D02*
X367990130Y-253057819D01*
X367990130Y-253057819D02*
X367894892Y-253010200D01*
X215051034Y-250263819D02*
X215051034Y-249263819D01*
X215051034Y-249263819D02*
X215384367Y-249978104D01*
X215384367Y-249978104D02*
X215717700Y-249263819D01*
X215717700Y-249263819D02*
X215717700Y-250263819D01*
X216098653Y-249263819D02*
X216765319Y-250263819D01*
X216765319Y-249263819D02*
X216098653Y-250263819D01*
X216908177Y-250359057D02*
X217670081Y-250359057D01*
X217860558Y-250216200D02*
X217955796Y-250263819D01*
X217955796Y-250263819D02*
X218146272Y-250263819D01*
X218146272Y-250263819D02*
X218241510Y-250216200D01*
X218241510Y-250216200D02*
X218289129Y-250120961D01*
X218289129Y-250120961D02*
X218289129Y-250073342D01*
X218289129Y-250073342D02*
X218241510Y-249978104D01*
X218241510Y-249978104D02*
X218146272Y-249930485D01*
X218146272Y-249930485D02*
X218003415Y-249930485D01*
X218003415Y-249930485D02*
X217908177Y-249882866D01*
X217908177Y-249882866D02*
X217860558Y-249787628D01*
X217860558Y-249787628D02*
X217860558Y-249740009D01*
X217860558Y-249740009D02*
X217908177Y-249644771D01*
X217908177Y-249644771D02*
X218003415Y-249597152D01*
X218003415Y-249597152D02*
X218146272Y-249597152D01*
X218146272Y-249597152D02*
X218241510Y-249644771D01*
X218574844Y-249597152D02*
X218955796Y-249597152D01*
X218717701Y-249263819D02*
X218717701Y-250120961D01*
X218717701Y-250120961D02*
X218765320Y-250216200D01*
X218765320Y-250216200D02*
X218860558Y-250263819D01*
X218860558Y-250263819D02*
X218955796Y-250263819D01*
X219717701Y-250263819D02*
X219717701Y-249740009D01*
X219717701Y-249740009D02*
X219670082Y-249644771D01*
X219670082Y-249644771D02*
X219574844Y-249597152D01*
X219574844Y-249597152D02*
X219384368Y-249597152D01*
X219384368Y-249597152D02*
X219289130Y-249644771D01*
X219717701Y-250216200D02*
X219622463Y-250263819D01*
X219622463Y-250263819D02*
X219384368Y-250263819D01*
X219384368Y-250263819D02*
X219289130Y-250216200D01*
X219289130Y-250216200D02*
X219241511Y-250120961D01*
X219241511Y-250120961D02*
X219241511Y-250025723D01*
X219241511Y-250025723D02*
X219289130Y-249930485D01*
X219289130Y-249930485D02*
X219384368Y-249882866D01*
X219384368Y-249882866D02*
X219622463Y-249882866D01*
X219622463Y-249882866D02*
X219717701Y-249835247D01*
X220193892Y-250263819D02*
X220193892Y-249263819D01*
X220193892Y-249644771D02*
X220289130Y-249597152D01*
X220289130Y-249597152D02*
X220479606Y-249597152D01*
X220479606Y-249597152D02*
X220574844Y-249644771D01*
X220574844Y-249644771D02*
X220622463Y-249692390D01*
X220622463Y-249692390D02*
X220670082Y-249787628D01*
X220670082Y-249787628D02*
X220670082Y-250073342D01*
X220670082Y-250073342D02*
X220622463Y-250168580D01*
X220622463Y-250168580D02*
X220574844Y-250216200D01*
X220574844Y-250216200D02*
X220479606Y-250263819D01*
X220479606Y-250263819D02*
X220289130Y-250263819D01*
X220289130Y-250263819D02*
X220193892Y-250216200D01*
X291290622Y-253061775D02*
X291290622Y-252061775D01*
X291290622Y-252061775D02*
X291623955Y-252776060D01*
X291623955Y-252776060D02*
X291957288Y-252061775D01*
X291957288Y-252061775D02*
X291957288Y-253061775D01*
X292338241Y-252061775D02*
X293004907Y-253061775D01*
X293004907Y-252061775D02*
X292338241Y-253061775D01*
X293147765Y-253157013D02*
X293909669Y-253157013D01*
X294100146Y-253014156D02*
X294195384Y-253061775D01*
X294195384Y-253061775D02*
X294385860Y-253061775D01*
X294385860Y-253061775D02*
X294481098Y-253014156D01*
X294481098Y-253014156D02*
X294528717Y-252918917D01*
X294528717Y-252918917D02*
X294528717Y-252871298D01*
X294528717Y-252871298D02*
X294481098Y-252776060D01*
X294481098Y-252776060D02*
X294385860Y-252728441D01*
X294385860Y-252728441D02*
X294243003Y-252728441D01*
X294243003Y-252728441D02*
X294147765Y-252680822D01*
X294147765Y-252680822D02*
X294100146Y-252585584D01*
X294100146Y-252585584D02*
X294100146Y-252537965D01*
X294100146Y-252537965D02*
X294147765Y-252442727D01*
X294147765Y-252442727D02*
X294243003Y-252395108D01*
X294243003Y-252395108D02*
X294385860Y-252395108D01*
X294385860Y-252395108D02*
X294481098Y-252442727D01*
X294814432Y-252395108D02*
X295195384Y-252395108D01*
X294957289Y-252061775D02*
X294957289Y-252918917D01*
X294957289Y-252918917D02*
X295004908Y-253014156D01*
X295004908Y-253014156D02*
X295100146Y-253061775D01*
X295100146Y-253061775D02*
X295195384Y-253061775D01*
X295957289Y-253061775D02*
X295957289Y-252537965D01*
X295957289Y-252537965D02*
X295909670Y-252442727D01*
X295909670Y-252442727D02*
X295814432Y-252395108D01*
X295814432Y-252395108D02*
X295623956Y-252395108D01*
X295623956Y-252395108D02*
X295528718Y-252442727D01*
X295957289Y-253014156D02*
X295862051Y-253061775D01*
X295862051Y-253061775D02*
X295623956Y-253061775D01*
X295623956Y-253061775D02*
X295528718Y-253014156D01*
X295528718Y-253014156D02*
X295481099Y-252918917D01*
X295481099Y-252918917D02*
X295481099Y-252823679D01*
X295481099Y-252823679D02*
X295528718Y-252728441D01*
X295528718Y-252728441D02*
X295623956Y-252680822D01*
X295623956Y-252680822D02*
X295862051Y-252680822D01*
X295862051Y-252680822D02*
X295957289Y-252633203D01*
X296433480Y-253061775D02*
X296433480Y-252061775D01*
X296433480Y-252442727D02*
X296528718Y-252395108D01*
X296528718Y-252395108D02*
X296719194Y-252395108D01*
X296719194Y-252395108D02*
X296814432Y-252442727D01*
X296814432Y-252442727D02*
X296862051Y-252490346D01*
X296862051Y-252490346D02*
X296909670Y-252585584D01*
X296909670Y-252585584D02*
X296909670Y-252871298D01*
X296909670Y-252871298D02*
X296862051Y-252966536D01*
X296862051Y-252966536D02*
X296814432Y-253014156D01*
X296814432Y-253014156D02*
X296719194Y-253061775D01*
X296719194Y-253061775D02*
X296528718Y-253061775D01*
X296528718Y-253061775D02*
X296433480Y-253014156D01*
D11*
X143235284Y-172030963D02*
X143235284Y-171830963D01*
X143120999Y-172030963D02*
X143206713Y-171916678D01*
X143120999Y-171830963D02*
X143235284Y-171945249D01*
X143035284Y-171926201D02*
X142968618Y-171926201D01*
X142940046Y-172030963D02*
X143035284Y-172030963D01*
X143035284Y-172030963D02*
X143035284Y-171830963D01*
X143035284Y-171830963D02*
X142940046Y-171830963D01*
X142854332Y-171926201D02*
X142787666Y-171926201D01*
X142759094Y-172030963D02*
X142854332Y-172030963D01*
X142854332Y-172030963D02*
X142854332Y-171830963D01*
X142854332Y-171830963D02*
X142759094Y-171830963D01*
X142673380Y-172030963D02*
X142673380Y-171830963D01*
X142673380Y-171830963D02*
X142597190Y-171830963D01*
X142597190Y-171830963D02*
X142578142Y-171840487D01*
X142578142Y-171840487D02*
X142568619Y-171850011D01*
X142568619Y-171850011D02*
X142559095Y-171869059D01*
X142559095Y-171869059D02*
X142559095Y-171897630D01*
X142559095Y-171897630D02*
X142568619Y-171916678D01*
X142568619Y-171916678D02*
X142578142Y-171926201D01*
X142578142Y-171926201D02*
X142597190Y-171935725D01*
X142597190Y-171935725D02*
X142673380Y-171935725D01*
X142473380Y-171954773D02*
X142321000Y-171954773D01*
X142187666Y-171830963D02*
X142149571Y-171830963D01*
X142149571Y-171830963D02*
X142130523Y-171840487D01*
X142130523Y-171840487D02*
X142111476Y-171859535D01*
X142111476Y-171859535D02*
X142101952Y-171897630D01*
X142101952Y-171897630D02*
X142101952Y-171964297D01*
X142101952Y-171964297D02*
X142111476Y-172002392D01*
X142111476Y-172002392D02*
X142130523Y-172021440D01*
X142130523Y-172021440D02*
X142149571Y-172030963D01*
X142149571Y-172030963D02*
X142187666Y-172030963D01*
X142187666Y-172030963D02*
X142206714Y-172021440D01*
X142206714Y-172021440D02*
X142225761Y-172002392D01*
X142225761Y-172002392D02*
X142235285Y-171964297D01*
X142235285Y-171964297D02*
X142235285Y-171897630D01*
X142235285Y-171897630D02*
X142225761Y-171859535D01*
X142225761Y-171859535D02*
X142206714Y-171840487D01*
X142206714Y-171840487D02*
X142187666Y-171830963D01*
X142016237Y-171830963D02*
X142016237Y-171992868D01*
X142016237Y-171992868D02*
X142006714Y-172011916D01*
X142006714Y-172011916D02*
X141997190Y-172021440D01*
X141997190Y-172021440D02*
X141978142Y-172030963D01*
X141978142Y-172030963D02*
X141940047Y-172030963D01*
X141940047Y-172030963D02*
X141920999Y-172021440D01*
X141920999Y-172021440D02*
X141911476Y-172011916D01*
X141911476Y-172011916D02*
X141901952Y-171992868D01*
X141901952Y-171992868D02*
X141901952Y-171830963D01*
X141835285Y-171830963D02*
X141720999Y-171830963D01*
X141778142Y-172030963D02*
X141778142Y-171830963D01*
X141520999Y-171830963D02*
X141387666Y-171830963D01*
X141387666Y-171830963D02*
X141520999Y-172030963D01*
X141520999Y-172030963D02*
X141387666Y-172030963D01*
X141273380Y-171830963D02*
X141235285Y-171830963D01*
X141235285Y-171830963D02*
X141216237Y-171840487D01*
X141216237Y-171840487D02*
X141197190Y-171859535D01*
X141197190Y-171859535D02*
X141187666Y-171897630D01*
X141187666Y-171897630D02*
X141187666Y-171964297D01*
X141187666Y-171964297D02*
X141197190Y-172002392D01*
X141197190Y-172002392D02*
X141216237Y-172021440D01*
X141216237Y-172021440D02*
X141235285Y-172030963D01*
X141235285Y-172030963D02*
X141273380Y-172030963D01*
X141273380Y-172030963D02*
X141292428Y-172021440D01*
X141292428Y-172021440D02*
X141311475Y-172002392D01*
X141311475Y-172002392D02*
X141320999Y-171964297D01*
X141320999Y-171964297D02*
X141320999Y-171897630D01*
X141320999Y-171897630D02*
X141311475Y-171859535D01*
X141311475Y-171859535D02*
X141292428Y-171840487D01*
X141292428Y-171840487D02*
X141273380Y-171830963D01*
X141101951Y-172030963D02*
X141101951Y-171830963D01*
X141101951Y-171830963D02*
X140987666Y-172030963D01*
X140987666Y-172030963D02*
X140987666Y-171830963D01*
X140892427Y-171926201D02*
X140825761Y-171926201D01*
X140797189Y-172030963D02*
X140892427Y-172030963D01*
X140892427Y-172030963D02*
X140892427Y-171830963D01*
X140892427Y-171830963D02*
X140797189Y-171830963D01*
X138235284Y-172030963D02*
X138235284Y-171830963D01*
X138120999Y-172030963D02*
X138206713Y-171916678D01*
X138120999Y-171830963D02*
X138235284Y-171945249D01*
X138035284Y-171926201D02*
X137968618Y-171926201D01*
X137940046Y-172030963D02*
X138035284Y-172030963D01*
X138035284Y-172030963D02*
X138035284Y-171830963D01*
X138035284Y-171830963D02*
X137940046Y-171830963D01*
X137854332Y-171926201D02*
X137787666Y-171926201D01*
X137759094Y-172030963D02*
X137854332Y-172030963D01*
X137854332Y-172030963D02*
X137854332Y-171830963D01*
X137854332Y-171830963D02*
X137759094Y-171830963D01*
X137673380Y-172030963D02*
X137673380Y-171830963D01*
X137673380Y-171830963D02*
X137597190Y-171830963D01*
X137597190Y-171830963D02*
X137578142Y-171840487D01*
X137578142Y-171840487D02*
X137568619Y-171850011D01*
X137568619Y-171850011D02*
X137559095Y-171869059D01*
X137559095Y-171869059D02*
X137559095Y-171897630D01*
X137559095Y-171897630D02*
X137568619Y-171916678D01*
X137568619Y-171916678D02*
X137578142Y-171926201D01*
X137578142Y-171926201D02*
X137597190Y-171935725D01*
X137597190Y-171935725D02*
X137673380Y-171935725D01*
X137473380Y-171954773D02*
X137321000Y-171954773D01*
X137187666Y-171830963D02*
X137149571Y-171830963D01*
X137149571Y-171830963D02*
X137130523Y-171840487D01*
X137130523Y-171840487D02*
X137111476Y-171859535D01*
X137111476Y-171859535D02*
X137101952Y-171897630D01*
X137101952Y-171897630D02*
X137101952Y-171964297D01*
X137101952Y-171964297D02*
X137111476Y-172002392D01*
X137111476Y-172002392D02*
X137130523Y-172021440D01*
X137130523Y-172021440D02*
X137149571Y-172030963D01*
X137149571Y-172030963D02*
X137187666Y-172030963D01*
X137187666Y-172030963D02*
X137206714Y-172021440D01*
X137206714Y-172021440D02*
X137225761Y-172002392D01*
X137225761Y-172002392D02*
X137235285Y-171964297D01*
X137235285Y-171964297D02*
X137235285Y-171897630D01*
X137235285Y-171897630D02*
X137225761Y-171859535D01*
X137225761Y-171859535D02*
X137206714Y-171840487D01*
X137206714Y-171840487D02*
X137187666Y-171830963D01*
X137016237Y-171830963D02*
X137016237Y-171992868D01*
X137016237Y-171992868D02*
X137006714Y-172011916D01*
X137006714Y-172011916D02*
X136997190Y-172021440D01*
X136997190Y-172021440D02*
X136978142Y-172030963D01*
X136978142Y-172030963D02*
X136940047Y-172030963D01*
X136940047Y-172030963D02*
X136920999Y-172021440D01*
X136920999Y-172021440D02*
X136911476Y-172011916D01*
X136911476Y-172011916D02*
X136901952Y-171992868D01*
X136901952Y-171992868D02*
X136901952Y-171830963D01*
X136835285Y-171830963D02*
X136720999Y-171830963D01*
X136778142Y-172030963D02*
X136778142Y-171830963D01*
X136520999Y-171830963D02*
X136387666Y-171830963D01*
X136387666Y-171830963D02*
X136520999Y-172030963D01*
X136520999Y-172030963D02*
X136387666Y-172030963D01*
X136273380Y-171830963D02*
X136235285Y-171830963D01*
X136235285Y-171830963D02*
X136216237Y-171840487D01*
X136216237Y-171840487D02*
X136197190Y-171859535D01*
X136197190Y-171859535D02*
X136187666Y-171897630D01*
X136187666Y-171897630D02*
X136187666Y-171964297D01*
X136187666Y-171964297D02*
X136197190Y-172002392D01*
X136197190Y-172002392D02*
X136216237Y-172021440D01*
X136216237Y-172021440D02*
X136235285Y-172030963D01*
X136235285Y-172030963D02*
X136273380Y-172030963D01*
X136273380Y-172030963D02*
X136292428Y-172021440D01*
X136292428Y-172021440D02*
X136311475Y-172002392D01*
X136311475Y-172002392D02*
X136320999Y-171964297D01*
X136320999Y-171964297D02*
X136320999Y-171897630D01*
X136320999Y-171897630D02*
X136311475Y-171859535D01*
X136311475Y-171859535D02*
X136292428Y-171840487D01*
X136292428Y-171840487D02*
X136273380Y-171830963D01*
X136101951Y-172030963D02*
X136101951Y-171830963D01*
X136101951Y-171830963D02*
X135987666Y-172030963D01*
X135987666Y-172030963D02*
X135987666Y-171830963D01*
X135892427Y-171926201D02*
X135825761Y-171926201D01*
X135797189Y-172030963D02*
X135892427Y-172030963D01*
X135892427Y-172030963D02*
X135892427Y-171830963D01*
X135892427Y-171830963D02*
X135797189Y-171830963D01*
X143101952Y-172430963D02*
X143101952Y-172230963D01*
X143101952Y-172230963D02*
X142987667Y-172430963D01*
X142987667Y-172430963D02*
X142987667Y-172230963D01*
X142863857Y-172430963D02*
X142882905Y-172421440D01*
X142882905Y-172421440D02*
X142892428Y-172411916D01*
X142892428Y-172411916D02*
X142901952Y-172392868D01*
X142901952Y-172392868D02*
X142901952Y-172335725D01*
X142901952Y-172335725D02*
X142892428Y-172316678D01*
X142892428Y-172316678D02*
X142882905Y-172307154D01*
X142882905Y-172307154D02*
X142863857Y-172297630D01*
X142863857Y-172297630D02*
X142835286Y-172297630D01*
X142835286Y-172297630D02*
X142816238Y-172307154D01*
X142816238Y-172307154D02*
X142806714Y-172316678D01*
X142806714Y-172316678D02*
X142797190Y-172335725D01*
X142797190Y-172335725D02*
X142797190Y-172392868D01*
X142797190Y-172392868D02*
X142806714Y-172411916D01*
X142806714Y-172411916D02*
X142816238Y-172421440D01*
X142816238Y-172421440D02*
X142835286Y-172430963D01*
X142835286Y-172430963D02*
X142863857Y-172430963D01*
X142492429Y-172326201D02*
X142559095Y-172326201D01*
X142559095Y-172430963D02*
X142559095Y-172230963D01*
X142559095Y-172230963D02*
X142463857Y-172230963D01*
X142387666Y-172411916D02*
X142378143Y-172421440D01*
X142378143Y-172421440D02*
X142387666Y-172430963D01*
X142387666Y-172430963D02*
X142397190Y-172421440D01*
X142397190Y-172421440D02*
X142387666Y-172411916D01*
X142387666Y-172411916D02*
X142387666Y-172430963D01*
X142178143Y-172411916D02*
X142187667Y-172421440D01*
X142187667Y-172421440D02*
X142216238Y-172430963D01*
X142216238Y-172430963D02*
X142235286Y-172430963D01*
X142235286Y-172430963D02*
X142263857Y-172421440D01*
X142263857Y-172421440D02*
X142282905Y-172402392D01*
X142282905Y-172402392D02*
X142292428Y-172383344D01*
X142292428Y-172383344D02*
X142301952Y-172345249D01*
X142301952Y-172345249D02*
X142301952Y-172316678D01*
X142301952Y-172316678D02*
X142292428Y-172278582D01*
X142292428Y-172278582D02*
X142282905Y-172259535D01*
X142282905Y-172259535D02*
X142263857Y-172240487D01*
X142263857Y-172240487D02*
X142235286Y-172230963D01*
X142235286Y-172230963D02*
X142216238Y-172230963D01*
X142216238Y-172230963D02*
X142187667Y-172240487D01*
X142187667Y-172240487D02*
X142178143Y-172250011D01*
X142006714Y-172297630D02*
X142006714Y-172430963D01*
X142092428Y-172297630D02*
X142092428Y-172402392D01*
X142092428Y-172402392D02*
X142082905Y-172421440D01*
X142082905Y-172421440D02*
X142063857Y-172430963D01*
X142063857Y-172430963D02*
X142035286Y-172430963D01*
X142035286Y-172430963D02*
X142016238Y-172421440D01*
X142016238Y-172421440D02*
X142006714Y-172411916D01*
X141787667Y-172297630D02*
X141711476Y-172297630D01*
X141759095Y-172230963D02*
X141759095Y-172402392D01*
X141759095Y-172402392D02*
X141749572Y-172421440D01*
X141749572Y-172421440D02*
X141730524Y-172430963D01*
X141730524Y-172430963D02*
X141711476Y-172430963D01*
X141644809Y-172430963D02*
X141644809Y-172297630D01*
X141644809Y-172335725D02*
X141635286Y-172316678D01*
X141635286Y-172316678D02*
X141625762Y-172307154D01*
X141625762Y-172307154D02*
X141606714Y-172297630D01*
X141606714Y-172297630D02*
X141587667Y-172297630D01*
X141435285Y-172430963D02*
X141435285Y-172326201D01*
X141435285Y-172326201D02*
X141444809Y-172307154D01*
X141444809Y-172307154D02*
X141463857Y-172297630D01*
X141463857Y-172297630D02*
X141501952Y-172297630D01*
X141501952Y-172297630D02*
X141520999Y-172307154D01*
X141435285Y-172421440D02*
X141454333Y-172430963D01*
X141454333Y-172430963D02*
X141501952Y-172430963D01*
X141501952Y-172430963D02*
X141520999Y-172421440D01*
X141520999Y-172421440D02*
X141530523Y-172402392D01*
X141530523Y-172402392D02*
X141530523Y-172383344D01*
X141530523Y-172383344D02*
X141520999Y-172364297D01*
X141520999Y-172364297D02*
X141501952Y-172354773D01*
X141501952Y-172354773D02*
X141454333Y-172354773D01*
X141454333Y-172354773D02*
X141435285Y-172345249D01*
X141254333Y-172421440D02*
X141273381Y-172430963D01*
X141273381Y-172430963D02*
X141311476Y-172430963D01*
X141311476Y-172430963D02*
X141330524Y-172421440D01*
X141330524Y-172421440D02*
X141340047Y-172411916D01*
X141340047Y-172411916D02*
X141349571Y-172392868D01*
X141349571Y-172392868D02*
X141349571Y-172335725D01*
X141349571Y-172335725D02*
X141340047Y-172316678D01*
X141340047Y-172316678D02*
X141330524Y-172307154D01*
X141330524Y-172307154D02*
X141311476Y-172297630D01*
X141311476Y-172297630D02*
X141273381Y-172297630D01*
X141273381Y-172297630D02*
X141254333Y-172307154D01*
X141168618Y-172430963D02*
X141168618Y-172230963D01*
X141149571Y-172354773D02*
X141092428Y-172430963D01*
X141092428Y-172297630D02*
X141168618Y-172373820D01*
X141016237Y-172421440D02*
X140997190Y-172430963D01*
X140997190Y-172430963D02*
X140959094Y-172430963D01*
X140959094Y-172430963D02*
X140940047Y-172421440D01*
X140940047Y-172421440D02*
X140930523Y-172402392D01*
X140930523Y-172402392D02*
X140930523Y-172392868D01*
X140930523Y-172392868D02*
X140940047Y-172373820D01*
X140940047Y-172373820D02*
X140959094Y-172364297D01*
X140959094Y-172364297D02*
X140987666Y-172364297D01*
X140987666Y-172364297D02*
X141006713Y-172354773D01*
X141006713Y-172354773D02*
X141016237Y-172335725D01*
X141016237Y-172335725D02*
X141016237Y-172326201D01*
X141016237Y-172326201D02*
X141006713Y-172307154D01*
X141006713Y-172307154D02*
X140987666Y-172297630D01*
X140987666Y-172297630D02*
X140959094Y-172297630D01*
X140959094Y-172297630D02*
X140940047Y-172307154D01*
X138101952Y-172430963D02*
X138101952Y-172230963D01*
X138101952Y-172230963D02*
X137987667Y-172430963D01*
X137987667Y-172430963D02*
X137987667Y-172230963D01*
X137863857Y-172430963D02*
X137882905Y-172421440D01*
X137882905Y-172421440D02*
X137892428Y-172411916D01*
X137892428Y-172411916D02*
X137901952Y-172392868D01*
X137901952Y-172392868D02*
X137901952Y-172335725D01*
X137901952Y-172335725D02*
X137892428Y-172316678D01*
X137892428Y-172316678D02*
X137882905Y-172307154D01*
X137882905Y-172307154D02*
X137863857Y-172297630D01*
X137863857Y-172297630D02*
X137835286Y-172297630D01*
X137835286Y-172297630D02*
X137816238Y-172307154D01*
X137816238Y-172307154D02*
X137806714Y-172316678D01*
X137806714Y-172316678D02*
X137797190Y-172335725D01*
X137797190Y-172335725D02*
X137797190Y-172392868D01*
X137797190Y-172392868D02*
X137806714Y-172411916D01*
X137806714Y-172411916D02*
X137816238Y-172421440D01*
X137816238Y-172421440D02*
X137835286Y-172430963D01*
X137835286Y-172430963D02*
X137863857Y-172430963D01*
X137492429Y-172326201D02*
X137559095Y-172326201D01*
X137559095Y-172430963D02*
X137559095Y-172230963D01*
X137559095Y-172230963D02*
X137463857Y-172230963D01*
X137387666Y-172411916D02*
X137378143Y-172421440D01*
X137378143Y-172421440D02*
X137387666Y-172430963D01*
X137387666Y-172430963D02*
X137397190Y-172421440D01*
X137397190Y-172421440D02*
X137387666Y-172411916D01*
X137387666Y-172411916D02*
X137387666Y-172430963D01*
X137178143Y-172411916D02*
X137187667Y-172421440D01*
X137187667Y-172421440D02*
X137216238Y-172430963D01*
X137216238Y-172430963D02*
X137235286Y-172430963D01*
X137235286Y-172430963D02*
X137263857Y-172421440D01*
X137263857Y-172421440D02*
X137282905Y-172402392D01*
X137282905Y-172402392D02*
X137292428Y-172383344D01*
X137292428Y-172383344D02*
X137301952Y-172345249D01*
X137301952Y-172345249D02*
X137301952Y-172316678D01*
X137301952Y-172316678D02*
X137292428Y-172278582D01*
X137292428Y-172278582D02*
X137282905Y-172259535D01*
X137282905Y-172259535D02*
X137263857Y-172240487D01*
X137263857Y-172240487D02*
X137235286Y-172230963D01*
X137235286Y-172230963D02*
X137216238Y-172230963D01*
X137216238Y-172230963D02*
X137187667Y-172240487D01*
X137187667Y-172240487D02*
X137178143Y-172250011D01*
X137006714Y-172297630D02*
X137006714Y-172430963D01*
X137092428Y-172297630D02*
X137092428Y-172402392D01*
X137092428Y-172402392D02*
X137082905Y-172421440D01*
X137082905Y-172421440D02*
X137063857Y-172430963D01*
X137063857Y-172430963D02*
X137035286Y-172430963D01*
X137035286Y-172430963D02*
X137016238Y-172421440D01*
X137016238Y-172421440D02*
X137006714Y-172411916D01*
X136787667Y-172297630D02*
X136711476Y-172297630D01*
X136759095Y-172230963D02*
X136759095Y-172402392D01*
X136759095Y-172402392D02*
X136749572Y-172421440D01*
X136749572Y-172421440D02*
X136730524Y-172430963D01*
X136730524Y-172430963D02*
X136711476Y-172430963D01*
X136644809Y-172430963D02*
X136644809Y-172297630D01*
X136644809Y-172335725D02*
X136635286Y-172316678D01*
X136635286Y-172316678D02*
X136625762Y-172307154D01*
X136625762Y-172307154D02*
X136606714Y-172297630D01*
X136606714Y-172297630D02*
X136587667Y-172297630D01*
X136435285Y-172430963D02*
X136435285Y-172326201D01*
X136435285Y-172326201D02*
X136444809Y-172307154D01*
X136444809Y-172307154D02*
X136463857Y-172297630D01*
X136463857Y-172297630D02*
X136501952Y-172297630D01*
X136501952Y-172297630D02*
X136520999Y-172307154D01*
X136435285Y-172421440D02*
X136454333Y-172430963D01*
X136454333Y-172430963D02*
X136501952Y-172430963D01*
X136501952Y-172430963D02*
X136520999Y-172421440D01*
X136520999Y-172421440D02*
X136530523Y-172402392D01*
X136530523Y-172402392D02*
X136530523Y-172383344D01*
X136530523Y-172383344D02*
X136520999Y-172364297D01*
X136520999Y-172364297D02*
X136501952Y-172354773D01*
X136501952Y-172354773D02*
X136454333Y-172354773D01*
X136454333Y-172354773D02*
X136435285Y-172345249D01*
X136254333Y-172421440D02*
X136273381Y-172430963D01*
X136273381Y-172430963D02*
X136311476Y-172430963D01*
X136311476Y-172430963D02*
X136330524Y-172421440D01*
X136330524Y-172421440D02*
X136340047Y-172411916D01*
X136340047Y-172411916D02*
X136349571Y-172392868D01*
X136349571Y-172392868D02*
X136349571Y-172335725D01*
X136349571Y-172335725D02*
X136340047Y-172316678D01*
X136340047Y-172316678D02*
X136330524Y-172307154D01*
X136330524Y-172307154D02*
X136311476Y-172297630D01*
X136311476Y-172297630D02*
X136273381Y-172297630D01*
X136273381Y-172297630D02*
X136254333Y-172307154D01*
X136168618Y-172430963D02*
X136168618Y-172230963D01*
X136149571Y-172354773D02*
X136092428Y-172430963D01*
X136092428Y-172297630D02*
X136168618Y-172373820D01*
X136016237Y-172421440D02*
X135997190Y-172430963D01*
X135997190Y-172430963D02*
X135959094Y-172430963D01*
X135959094Y-172430963D02*
X135940047Y-172421440D01*
X135940047Y-172421440D02*
X135930523Y-172402392D01*
X135930523Y-172402392D02*
X135930523Y-172392868D01*
X135930523Y-172392868D02*
X135940047Y-172373820D01*
X135940047Y-172373820D02*
X135959094Y-172364297D01*
X135959094Y-172364297D02*
X135987666Y-172364297D01*
X135987666Y-172364297D02*
X136006713Y-172354773D01*
X136006713Y-172354773D02*
X136016237Y-172335725D01*
X136016237Y-172335725D02*
X136016237Y-172326201D01*
X136016237Y-172326201D02*
X136006713Y-172307154D01*
X136006713Y-172307154D02*
X135987666Y-172297630D01*
X135987666Y-172297630D02*
X135959094Y-172297630D01*
X135959094Y-172297630D02*
X135940047Y-172307154D01*
M02*
