%TF.GenerationSoftware,KiCad,Pcbnew,8.0.0*%
%TF.CreationDate,2024-12-21T07:53:57-08:00*%
%TF.ProjectId,Hampter3.1,48616d70-7465-4723-932e-312e6b696361,rev?*%
%TF.SameCoordinates,Original*%
%TF.FileFunction,Soldermask,Bot*%
%TF.FilePolarity,Negative*%
%FSLAX46Y46*%
G04 Gerber Fmt 4.6, Leading zero omitted, Abs format (unit mm)*
G04 Created by KiCad (PCBNEW 8.0.0) date 2024-12-21 07:53:57*
%MOMM*%
%LPD*%
G01*
G04 APERTURE LIST*
G04 Aperture macros list*
%AMRoundRect*
0 Rectangle with rounded corners*
0 $1 Rounding radius*
0 $2 $3 $4 $5 $6 $7 $8 $9 X,Y pos of 4 corners*
0 Add a 4 corners polygon primitive as box body*
4,1,4,$2,$3,$4,$5,$6,$7,$8,$9,$2,$3,0*
0 Add four circle primitives for the rounded corners*
1,1,$1+$1,$2,$3*
1,1,$1+$1,$4,$5*
1,1,$1+$1,$6,$7*
1,1,$1+$1,$8,$9*
0 Add four rect primitives between the rounded corners*
20,1,$1+$1,$2,$3,$4,$5,0*
20,1,$1+$1,$4,$5,$6,$7,0*
20,1,$1+$1,$6,$7,$8,$9,0*
20,1,$1+$1,$8,$9,$2,$3,0*%
%AMRotRect*
0 Rectangle, with rotation*
0 The origin of the aperture is its center*
0 $1 length*
0 $2 width*
0 $3 Rotation angle, in degrees counterclockwise*
0 Add horizontal line*
21,1,$1,$2,0,0,$3*%
G04 Aperture macros list end*
%ADD10C,1.750000*%
%ADD11C,3.987800*%
%ADD12C,2.300000*%
%ADD13C,3.048000*%
%ADD14R,2.000000X2.000000*%
%ADD15C,2.000000*%
%ADD16R,3.200000X2.000000*%
%ADD17RoundRect,0.225000X0.375000X-0.225000X0.375000X0.225000X-0.375000X0.225000X-0.375000X-0.225000X0*%
%ADD18RoundRect,0.225000X-0.225000X-0.375000X0.225000X-0.375000X0.225000X0.375000X-0.225000X0.375000X0*%
%ADD19RoundRect,0.250000X-0.262500X-0.450000X0.262500X-0.450000X0.262500X0.450000X-0.262500X0.450000X0*%
%ADD20RoundRect,0.250000X-0.503814X-0.132583X-0.132583X-0.503814X0.503814X0.132583X0.132583X0.503814X0*%
%ADD21RoundRect,0.250000X0.262500X0.450000X-0.262500X0.450000X-0.262500X-0.450000X0.262500X-0.450000X0*%
%ADD22RoundRect,0.225000X0.225000X0.375000X-0.225000X0.375000X-0.225000X-0.375000X0.225000X-0.375000X0*%
%ADD23RoundRect,0.250000X-0.450000X0.262500X-0.450000X-0.262500X0.450000X-0.262500X0.450000X0.262500X0*%
%ADD24RotRect,1.500000X0.550000X315.000000*%
%ADD25RotRect,1.500000X0.550000X225.000000*%
%ADD26C,0.650000*%
%ADD27R,0.600000X1.450000*%
%ADD28R,0.300000X1.450000*%
%ADD29O,1.000000X1.600000*%
%ADD30O,1.000000X2.100000*%
%ADD31RoundRect,0.225000X-0.375000X0.225000X-0.375000X-0.225000X0.375000X-0.225000X0.375000X0.225000X0*%
%ADD32RoundRect,0.250000X0.132583X-0.503814X0.503814X-0.132583X-0.132583X0.503814X-0.503814X0.132583X0*%
%ADD33R,1.400000X1.200000*%
%ADD34RoundRect,0.175000X-0.325000X0.175000X-0.325000X-0.175000X0.325000X-0.175000X0.325000X0.175000X0*%
%ADD35RoundRect,0.150000X-0.150000X0.200000X-0.150000X-0.200000X0.150000X-0.200000X0.150000X0.200000X0*%
%ADD36RoundRect,0.250001X-0.462499X-0.624999X0.462499X-0.624999X0.462499X0.624999X-0.462499X0.624999X0*%
%ADD37R,1.800000X1.100000*%
%ADD38RoundRect,0.250000X0.450000X-0.262500X0.450000X0.262500X-0.450000X0.262500X-0.450000X-0.262500X0*%
G04 APERTURE END LIST*
D10*
%TO.C,SW0_30*%
X129418603Y-260754607D03*
D11*
X134498603Y-260754607D03*
D10*
X139578603Y-260754607D03*
D12*
X130688603Y-258214607D03*
X137038603Y-255674607D03*
%TD*%
D10*
%TO.C,SW3_3*%
X281813000Y-241681000D03*
D11*
X286893000Y-241681000D03*
D10*
X291973000Y-241681000D03*
D12*
X283083000Y-239141000D03*
X289433000Y-236601000D03*
%TD*%
D10*
%TO.C,SW2_8*%
X367579538Y-222631000D03*
D11*
X372659538Y-222631000D03*
D10*
X377739538Y-222631000D03*
D12*
X368849538Y-220091000D03*
X375199538Y-217551000D03*
%TD*%
D10*
%TO.C,SW1_12*%
X439039000Y-203581000D03*
D11*
X444119000Y-203581000D03*
D10*
X449199000Y-203581000D03*
D12*
X440309000Y-201041000D03*
X446659000Y-198501000D03*
%TD*%
D11*
%TO.C,S5*%
X190383527Y-263145372D03*
D13*
X175143527Y-263145371D03*
X175143527Y-239332871D03*
D11*
X190383527Y-239332870D03*
%TD*%
D10*
%TO.C,SW-1_-7*%
X157993603Y-184554607D03*
D11*
X163073603Y-184554607D03*
D10*
X168153603Y-184554607D03*
D12*
X159263603Y-182014607D03*
X165613603Y-179474607D03*
%TD*%
D10*
%TO.C,SW1_9*%
X381889000Y-203581000D03*
D11*
X386969000Y-203581000D03*
D10*
X392049000Y-203581000D03*
D12*
X383159000Y-201041000D03*
X389509000Y-198501000D03*
%TD*%
D10*
%TO.C,SW-1_-6*%
X138943603Y-184554607D03*
D11*
X144023603Y-184554607D03*
D10*
X149103603Y-184554607D03*
D12*
X140213603Y-182014607D03*
X146563603Y-179474607D03*
%TD*%
D10*
%TO.C,SW-1_3*%
X262763000Y-165481000D03*
D11*
X267843000Y-165481000D03*
D10*
X272923000Y-165481000D03*
D12*
X264033000Y-162941000D03*
X270383000Y-160401000D03*
%TD*%
D10*
%TO.C,SW-1_-5*%
X119893603Y-184554607D03*
D11*
X124973603Y-184554607D03*
D10*
X130053603Y-184554607D03*
D12*
X121163603Y-182014607D03*
X127513603Y-179474607D03*
%TD*%
D10*
%TO.C,SW4_10*%
X467614000Y-260731000D03*
D11*
X472694000Y-260731000D03*
D10*
X477774000Y-260731000D03*
D12*
X468884000Y-258191000D03*
X475234000Y-255651000D03*
%TD*%
D10*
%TO.C,SW0_10*%
X391414000Y-184531000D03*
D11*
X396494000Y-184531000D03*
D10*
X401574000Y-184531000D03*
D12*
X392684000Y-181991000D03*
X399034000Y-179451000D03*
%TD*%
D10*
%TO.C,SW4_6*%
X391414000Y-260731000D03*
D11*
X396494000Y-260731000D03*
D10*
X401574000Y-260731000D03*
D12*
X392684000Y-258191000D03*
X399034000Y-255651000D03*
%TD*%
D10*
%TO.C,SW4_5*%
X360426000Y-260731000D03*
D11*
X365506000Y-260731000D03*
D10*
X370586000Y-260731000D03*
D12*
X361696000Y-258191000D03*
X368046000Y-255651000D03*
%TD*%
D10*
%TO.C,SW-1_4*%
X281813000Y-165481000D03*
D11*
X286893000Y-165481000D03*
D10*
X291973000Y-165481000D03*
D12*
X283083000Y-162941000D03*
X289433000Y-160401000D03*
%TD*%
D10*
%TO.C,SW3_6*%
X338963000Y-241681000D03*
D11*
X344043000Y-241681000D03*
D10*
X349123000Y-241681000D03*
D12*
X340233000Y-239141000D03*
X346583000Y-236601000D03*
%TD*%
D10*
%TO.C,SW0_-7*%
X157993603Y-203604607D03*
D11*
X163073603Y-203604607D03*
D10*
X168153603Y-203604607D03*
D12*
X159263603Y-201064607D03*
X165613603Y-198524607D03*
%TD*%
D10*
%TO.C,SW1_4*%
X286639000Y-203581000D03*
D11*
X291719000Y-203581000D03*
D10*
X296799000Y-203581000D03*
D12*
X287909000Y-201041000D03*
X294259000Y-198501000D03*
%TD*%
D11*
%TO.C,S9*%
X301244000Y-252476000D03*
D13*
X301243999Y-267716000D03*
X277431499Y-267716000D03*
D11*
X277431498Y-252476000D03*
%TD*%
D10*
%TO.C,SW3_4*%
X300863000Y-241681000D03*
D11*
X305943000Y-241681000D03*
D10*
X311023000Y-241681000D03*
D12*
X302133000Y-239141000D03*
X308483000Y-236601000D03*
%TD*%
D10*
%TO.C,SW-1_2*%
X243713000Y-165481000D03*
D11*
X248793000Y-165481000D03*
D10*
X253873000Y-165481000D03*
D12*
X244983000Y-162941000D03*
X251333000Y-160401000D03*
%TD*%
D10*
%TO.C,SW0_12*%
X429514000Y-184531000D03*
D11*
X434594000Y-184531000D03*
D10*
X439674000Y-184531000D03*
D12*
X430784000Y-181991000D03*
X437134000Y-179451000D03*
%TD*%
D10*
%TO.C,SW1_7*%
X343789000Y-203581000D03*
D11*
X348869000Y-203581000D03*
D10*
X353949000Y-203581000D03*
D12*
X345059000Y-201041000D03*
X351409000Y-198501000D03*
%TD*%
D10*
%TO.C,SW0_11*%
X410464000Y-184531000D03*
D11*
X415544000Y-184531000D03*
D10*
X420624000Y-184531000D03*
D12*
X411734000Y-181991000D03*
X418084000Y-179451000D03*
%TD*%
D10*
%TO.C,SW-1_13*%
X467614000Y-165481000D03*
D11*
X472694000Y-165481000D03*
D10*
X477774000Y-165481000D03*
D12*
X468884000Y-162941000D03*
X475234000Y-160401000D03*
%TD*%
D11*
%TO.C,S8*%
X146410623Y-252500090D03*
D13*
X146410622Y-267740090D03*
X122598122Y-267740090D03*
D11*
X122598121Y-252500090D03*
%TD*%
D10*
%TO.C,SW1_1*%
X229489000Y-203581000D03*
D11*
X234569000Y-203581000D03*
D10*
X239649000Y-203581000D03*
D12*
X230759000Y-201041000D03*
X237109000Y-198501000D03*
%TD*%
D10*
%TO.C,SW3_11*%
X448564000Y-241681000D03*
D11*
X453644000Y-241681000D03*
D10*
X458724000Y-241681000D03*
D12*
X449834000Y-239141000D03*
X456184000Y-236601000D03*
%TD*%
D10*
%TO.C,SW0_-5*%
X119893603Y-203604607D03*
D11*
X124973603Y-203604607D03*
D10*
X130053603Y-203604607D03*
D12*
X121163603Y-201064607D03*
X127513603Y-198524607D03*
%TD*%
D10*
%TO.C,SW1_8*%
X362839000Y-203581000D03*
D11*
X367919000Y-203581000D03*
D10*
X372999000Y-203581000D03*
D12*
X364109000Y-201041000D03*
X370459000Y-198501000D03*
%TD*%
D10*
%TO.C,SW-1_1*%
X224663000Y-165481000D03*
D11*
X229743000Y-165481000D03*
D10*
X234823000Y-165481000D03*
D12*
X225933000Y-162941000D03*
X232283000Y-160401000D03*
%TD*%
D10*
%TO.C,SW-1_6*%
X324739000Y-165481000D03*
D11*
X329819000Y-165481000D03*
D10*
X334899000Y-165481000D03*
D12*
X326009000Y-162941000D03*
X332359000Y-160401000D03*
%TD*%
D13*
%TO.C,S3*%
X448859538Y-215646000D03*
D11*
X448859538Y-230886000D03*
D13*
X472672038Y-215646000D03*
D11*
X472672038Y-230886000D03*
%TD*%
D10*
%TO.C,SW0_2*%
X239014000Y-184531000D03*
D11*
X244094000Y-184531000D03*
D10*
X249174000Y-184531000D03*
D12*
X240284000Y-181991000D03*
X246634000Y-179451000D03*
%TD*%
D14*
%TO.C,SW2*%
X117453000Y-163021000D03*
D15*
X117453000Y-168021000D03*
X117453000Y-165521000D03*
D16*
X124953000Y-159921000D03*
X124953000Y-171121000D03*
D15*
X131953000Y-168021000D03*
X131953000Y-163021000D03*
%TD*%
D10*
%TO.C,SW0_-8*%
X182123603Y-218209606D03*
D11*
X182123603Y-213129607D03*
D10*
X182123603Y-208049608D03*
D12*
X179583603Y-216939607D03*
X177043603Y-210589607D03*
%TD*%
D10*
%TO.C,SW-1_5*%
X305689000Y-165481000D03*
D11*
X310769000Y-165481000D03*
D10*
X315849000Y-165481000D03*
D12*
X306959000Y-162941000D03*
X313309000Y-160401000D03*
%TD*%
D10*
%TO.C,SW3_5*%
X319913000Y-241681000D03*
D11*
X324993000Y-241681000D03*
D10*
X330073000Y-241681000D03*
D12*
X321183000Y-239141000D03*
X327533000Y-236601000D03*
%TD*%
D11*
%TO.C,S6*%
X190373000Y-225044000D03*
D13*
X175133000Y-225043999D03*
X175133000Y-201231499D03*
D11*
X190373000Y-201231498D03*
%TD*%
D10*
%TO.C,SW4_9*%
X448564000Y-260731000D03*
D11*
X453644000Y-260731000D03*
D10*
X458724000Y-260731000D03*
D12*
X449834000Y-258191000D03*
X456184000Y-255651000D03*
%TD*%
D10*
%TO.C,SW1_5*%
X305689000Y-203581000D03*
D11*
X310769000Y-203581000D03*
D10*
X315849000Y-203581000D03*
D12*
X306959000Y-201041000D03*
X313309000Y-198501000D03*
%TD*%
D10*
%TO.C,SW4_3*%
X284226000Y-260731000D03*
D11*
X289306000Y-260731000D03*
D10*
X294386000Y-260731000D03*
D12*
X285496000Y-258191000D03*
X291846000Y-255651000D03*
%TD*%
D10*
%TO.C,SW0_21*%
X119893603Y-241704607D03*
D11*
X124973603Y-241704607D03*
D10*
X130053603Y-241704607D03*
D12*
X121163603Y-239164607D03*
X127513603Y-236624607D03*
%TD*%
D10*
%TO.C,SW2_0*%
X208026000Y-222631000D03*
D11*
X213106000Y-222631000D03*
D10*
X218186000Y-222631000D03*
D12*
X209296000Y-220091000D03*
X215646000Y-217551000D03*
%TD*%
D10*
%TO.C,SW-1_12*%
X443865000Y-165481000D03*
D11*
X448945000Y-165481000D03*
D10*
X454025000Y-165481000D03*
D12*
X445135000Y-162941000D03*
X451485000Y-160401000D03*
%TD*%
D10*
%TO.C,SW4_4*%
X327102743Y-260734957D03*
D11*
X332182743Y-260734957D03*
D10*
X337262743Y-260734957D03*
D12*
X328372743Y-258194957D03*
X334722743Y-255654957D03*
%TD*%
D10*
%TO.C,SW3_7*%
X358013000Y-241681000D03*
D11*
X363093000Y-241681000D03*
D10*
X368173000Y-241681000D03*
D12*
X359283000Y-239141000D03*
X365633000Y-236601000D03*
%TD*%
D10*
%TO.C,SW4_1*%
X227032699Y-260723545D03*
D11*
X232112699Y-260723545D03*
D10*
X237192699Y-260723545D03*
D12*
X228302699Y-258183545D03*
X234652699Y-255643545D03*
%TD*%
D10*
%TO.C,SW1_6*%
X324739000Y-203581000D03*
D11*
X329819000Y-203581000D03*
D10*
X334899000Y-203581000D03*
D12*
X326009000Y-201041000D03*
X332359000Y-198501000D03*
%TD*%
D10*
%TO.C,SW2_1*%
X234229538Y-222631000D03*
D11*
X239309538Y-222631000D03*
D10*
X244389538Y-222631000D03*
D12*
X235499538Y-220091000D03*
X241849538Y-217551000D03*
%TD*%
D10*
%TO.C,SW4_0*%
X203218924Y-260726604D03*
D11*
X208298924Y-260726604D03*
D10*
X213378924Y-260726604D03*
D12*
X204488924Y-258186604D03*
X210838924Y-255646604D03*
%TD*%
D10*
%TO.C,SW3_1*%
X243713000Y-241681000D03*
D11*
X248793000Y-241681000D03*
D10*
X253873000Y-241681000D03*
D12*
X244983000Y-239141000D03*
X251333000Y-236601000D03*
%TD*%
D13*
%TO.C,S7*%
X451276544Y-177545075D03*
D11*
X451276544Y-192785075D03*
D13*
X475089044Y-177545075D03*
D11*
X475089044Y-192785075D03*
%TD*%
D10*
%TO.C,SW1_0*%
X205664915Y-203583900D03*
D11*
X210744915Y-203583900D03*
D10*
X215824915Y-203583900D03*
D12*
X206934915Y-201043900D03*
X213284915Y-198503900D03*
%TD*%
D11*
%TO.C,S1*%
X377444000Y-252476000D03*
D13*
X377443999Y-267716000D03*
X353631499Y-267716000D03*
D11*
X353631498Y-252476000D03*
%TD*%
D10*
%TO.C,SW-1_-8*%
X177043603Y-184554607D03*
D11*
X182123603Y-184554607D03*
D10*
X187203603Y-184554607D03*
D12*
X178313603Y-182014607D03*
X184663603Y-179474607D03*
%TD*%
D11*
%TO.C,S4*%
X205930498Y-249936000D03*
D13*
X205930499Y-234696000D03*
X229742999Y-234696000D03*
D11*
X229743000Y-249936000D03*
%TD*%
D10*
%TO.C,SW0_31*%
X157993603Y-260754607D03*
D11*
X163073603Y-260754607D03*
D10*
X168153603Y-260754607D03*
D12*
X159263603Y-258214607D03*
X165613603Y-255674607D03*
%TD*%
D10*
%TO.C,SW1_10*%
X400939000Y-203581000D03*
D11*
X406019000Y-203581000D03*
D10*
X411099000Y-203581000D03*
D12*
X402209000Y-201041000D03*
X408559000Y-198501000D03*
%TD*%
D10*
%TO.C,SW0_4*%
X277114000Y-184531000D03*
D11*
X282194000Y-184531000D03*
D10*
X287274000Y-184531000D03*
D12*
X278384000Y-181991000D03*
X284734000Y-179451000D03*
%TD*%
D10*
%TO.C,SW2_6*%
X329479538Y-222631000D03*
D11*
X334559538Y-222631000D03*
D10*
X339639538Y-222631000D03*
D12*
X330749538Y-220091000D03*
X337099538Y-217551000D03*
%TD*%
D10*
%TO.C,SW-1_10*%
X405765000Y-165481000D03*
D11*
X410845000Y-165481000D03*
D10*
X415925000Y-165481000D03*
D12*
X407035000Y-162941000D03*
X413385000Y-160401000D03*
%TD*%
D10*
%TO.C,SW-1_0*%
X200914000Y-165481000D03*
D11*
X205994000Y-165481000D03*
D10*
X211074000Y-165481000D03*
D12*
X202184000Y-162941000D03*
X208534000Y-160401000D03*
%TD*%
D10*
%TO.C,SW3_10*%
X422315948Y-241676846D03*
D11*
X427395948Y-241676846D03*
D10*
X432475948Y-241676846D03*
D12*
X423585948Y-239136846D03*
X429935948Y-236596846D03*
%TD*%
D10*
%TO.C,SW0_9*%
X372364000Y-184531000D03*
D11*
X377444000Y-184531000D03*
D10*
X382524000Y-184531000D03*
D12*
X373634000Y-181991000D03*
X379984000Y-179451000D03*
%TD*%
D10*
%TO.C,SW0_8*%
X353314000Y-184531000D03*
D11*
X358394000Y-184531000D03*
D10*
X363474000Y-184531000D03*
D12*
X354584000Y-181991000D03*
X360934000Y-179451000D03*
%TD*%
D10*
%TO.C,SW4_2*%
X250843924Y-260726604D03*
D11*
X255923924Y-260726604D03*
D10*
X261003924Y-260726604D03*
D12*
X252113924Y-258186604D03*
X258463924Y-255646604D03*
%TD*%
D10*
%TO.C,SW2_2*%
X253279538Y-222631000D03*
D11*
X258359538Y-222631000D03*
D10*
X263439538Y-222631000D03*
D12*
X254549538Y-220091000D03*
X260899538Y-217551000D03*
%TD*%
D10*
%TO.C,SW0_16*%
X138943603Y-222654607D03*
D11*
X144023603Y-222654607D03*
D10*
X149103603Y-222654607D03*
D12*
X140213603Y-220114607D03*
X146563603Y-217574607D03*
%TD*%
D10*
%TO.C,SW0_3*%
X258064000Y-184531000D03*
D11*
X263144000Y-184531000D03*
D10*
X268224000Y-184531000D03*
D12*
X259334000Y-181991000D03*
X265684000Y-179451000D03*
%TD*%
D10*
%TO.C,SW1_3*%
X267589000Y-203581000D03*
D11*
X272669000Y-203581000D03*
D10*
X277749000Y-203581000D03*
D12*
X268859000Y-201041000D03*
X275209000Y-198501000D03*
%TD*%
D10*
%TO.C,SW0_5*%
X296164000Y-184531000D03*
D11*
X301244000Y-184531000D03*
D10*
X306324000Y-184531000D03*
D12*
X297434000Y-181991000D03*
X303784000Y-179451000D03*
%TD*%
D10*
%TO.C,SW3_8*%
X377063000Y-241681000D03*
D11*
X382143000Y-241681000D03*
D10*
X387223000Y-241681000D03*
D12*
X378333000Y-239141000D03*
X384683000Y-236601000D03*
%TD*%
D10*
%TO.C,SW4_8*%
X429514000Y-260731000D03*
D11*
X434594000Y-260731000D03*
D10*
X439674000Y-260731000D03*
D12*
X430784000Y-258191000D03*
X437134000Y-255651000D03*
%TD*%
D10*
%TO.C,SW-1_11*%
X424815000Y-165481000D03*
D11*
X429895000Y-165481000D03*
D10*
X434975000Y-165481000D03*
D12*
X426085000Y-162941000D03*
X432435000Y-160401000D03*
%TD*%
D10*
%TO.C,SW0_7*%
X334264000Y-184531000D03*
D11*
X339344000Y-184531000D03*
D10*
X344424000Y-184531000D03*
D12*
X335534000Y-181991000D03*
X341884000Y-179451000D03*
%TD*%
D10*
%TO.C,SW2_5*%
X310429538Y-222631000D03*
D11*
X315509538Y-222631000D03*
D10*
X320589538Y-222631000D03*
D12*
X311699538Y-220091000D03*
X318049538Y-217551000D03*
%TD*%
D10*
%TO.C,SW0_13*%
X458089000Y-184531000D03*
D11*
X463169000Y-184531000D03*
D10*
X468249000Y-184531000D03*
D12*
X459359000Y-181991000D03*
X465709000Y-179451000D03*
%TD*%
D10*
%TO.C,SW0_29*%
X182143277Y-256332451D03*
D11*
X182143277Y-251252452D03*
D10*
X182143277Y-246172453D03*
D12*
X179603277Y-255062452D03*
X177063277Y-248712452D03*
%TD*%
D10*
%TO.C,SW0_6*%
X315214000Y-184531000D03*
D11*
X320294000Y-184531000D03*
D10*
X325374000Y-184531000D03*
D12*
X316484000Y-181991000D03*
X322834000Y-179451000D03*
%TD*%
D10*
%TO.C,SW3_12*%
X467614000Y-241681000D03*
D11*
X472694000Y-241681000D03*
D10*
X477774000Y-241681000D03*
D12*
X468884000Y-239141000D03*
X475234000Y-236601000D03*
%TD*%
D10*
%TO.C,SW3_0*%
X212725000Y-241681000D03*
D11*
X217805000Y-241681000D03*
D10*
X222885000Y-241681000D03*
D12*
X213995000Y-239141000D03*
X220345000Y-236601000D03*
%TD*%
D10*
%TO.C,SW-1_8*%
X362839000Y-165481000D03*
D11*
X367919000Y-165481000D03*
D10*
X372999000Y-165481000D03*
D12*
X364109000Y-162941000D03*
X370459000Y-160401000D03*
%TD*%
D10*
%TO.C,SW0_26*%
X138943603Y-241704607D03*
D11*
X144023603Y-241704607D03*
D10*
X149103603Y-241704607D03*
D12*
X140213603Y-239164607D03*
X146563603Y-236624607D03*
%TD*%
D10*
%TO.C,SW0_1*%
X219964000Y-184531000D03*
D11*
X225044000Y-184531000D03*
D10*
X230124000Y-184531000D03*
D12*
X221234000Y-181991000D03*
X227584000Y-179451000D03*
%TD*%
D10*
%TO.C,SW0_0*%
X200914000Y-184531000D03*
D11*
X205994000Y-184531000D03*
D10*
X211074000Y-184531000D03*
D12*
X202184000Y-181991000D03*
X208534000Y-179451000D03*
%TD*%
D10*
%TO.C,SW4_12*%
X322358324Y-260729822D03*
D11*
X327438324Y-260729822D03*
D10*
X332518324Y-260729822D03*
D12*
X323628324Y-258189822D03*
X329978324Y-255649822D03*
%TD*%
D10*
%TO.C,SW-1_7*%
X343789000Y-165481000D03*
D11*
X348869000Y-165481000D03*
D10*
X353949000Y-165481000D03*
D12*
X345059000Y-162941000D03*
X351409000Y-160401000D03*
%TD*%
D10*
%TO.C,SW0_28*%
X157993603Y-241704607D03*
D11*
X163073603Y-241704607D03*
D10*
X168153603Y-241704607D03*
D12*
X159263603Y-239164607D03*
X165613603Y-236624607D03*
%TD*%
D10*
%TO.C,SW2_3*%
X272329538Y-222631000D03*
D11*
X277409538Y-222631000D03*
D10*
X282489538Y-222631000D03*
D12*
X273599538Y-220091000D03*
X279949538Y-217551000D03*
%TD*%
D10*
%TO.C,SW1_13*%
X462849717Y-203579119D03*
D11*
X467929717Y-203579119D03*
D10*
X473009717Y-203579119D03*
D12*
X464119717Y-201039119D03*
X470469717Y-198499119D03*
%TD*%
D10*
%TO.C,SW0_17*%
X157993603Y-222654607D03*
D11*
X163073603Y-222654607D03*
D10*
X168153603Y-222654607D03*
D12*
X159263603Y-220114607D03*
X165613603Y-217574607D03*
%TD*%
D10*
%TO.C,SW2_11*%
X424729538Y-222631000D03*
D11*
X429809538Y-222631000D03*
D10*
X434889538Y-222631000D03*
D12*
X425999538Y-220091000D03*
X432349538Y-217551000D03*
%TD*%
D10*
%TO.C,SW1_2*%
X248539000Y-203581000D03*
D11*
X253619000Y-203581000D03*
D10*
X258699000Y-203581000D03*
D12*
X249809000Y-201041000D03*
X256159000Y-198501000D03*
%TD*%
D10*
%TO.C,SW0_15*%
X119893603Y-222654607D03*
D11*
X124973603Y-222654607D03*
D10*
X130053603Y-222654607D03*
D12*
X121163603Y-220114607D03*
X127513603Y-217574607D03*
%TD*%
D10*
%TO.C,SW2_4*%
X291379538Y-222631000D03*
D11*
X296459538Y-222631000D03*
D10*
X301539538Y-222631000D03*
D12*
X292649538Y-220091000D03*
X298999538Y-217551000D03*
%TD*%
D10*
%TO.C,SW4_7*%
X410464000Y-260731000D03*
D11*
X415544000Y-260731000D03*
D10*
X420624000Y-260731000D03*
D12*
X411734000Y-258191000D03*
X418084000Y-255651000D03*
%TD*%
D11*
%TO.C,S10*%
X305982588Y-252479956D03*
D13*
X305982587Y-267719956D03*
X282170087Y-267719956D03*
D11*
X282170086Y-252479956D03*
%TD*%
D10*
%TO.C,SW-1_9*%
X386715000Y-165481000D03*
D11*
X391795000Y-165481000D03*
D10*
X396875000Y-165481000D03*
D12*
X387985000Y-162941000D03*
X394335000Y-160401000D03*
%TD*%
D10*
%TO.C,SW3_9*%
X396113000Y-241681000D03*
D11*
X401193000Y-241681000D03*
D10*
X406273000Y-241681000D03*
D12*
X397383000Y-239141000D03*
X403733000Y-236601000D03*
%TD*%
D10*
%TO.C,SW3_2*%
X262763000Y-241681000D03*
D11*
X267843000Y-241681000D03*
D10*
X272923000Y-241681000D03*
D12*
X264033000Y-239141000D03*
X270383000Y-236601000D03*
%TD*%
D10*
%TO.C,SW2_10*%
X405679538Y-222631000D03*
D11*
X410759538Y-222631000D03*
D10*
X415839538Y-222631000D03*
D12*
X406949538Y-220091000D03*
X413299538Y-217551000D03*
%TD*%
D10*
%TO.C,SW2_7*%
X348529538Y-222631000D03*
D11*
X353609538Y-222631000D03*
D10*
X358689538Y-222631000D03*
D12*
X349799538Y-220091000D03*
X356149538Y-217551000D03*
%TD*%
D10*
%TO.C,SW2_9*%
X386629538Y-222631000D03*
D11*
X391709538Y-222631000D03*
D10*
X396789538Y-222631000D03*
D12*
X387899538Y-220091000D03*
X394249538Y-217551000D03*
%TD*%
D10*
%TO.C,SW4_11*%
X289002743Y-260734957D03*
D11*
X294082743Y-260734957D03*
D10*
X299162743Y-260734957D03*
D12*
X290272743Y-258194957D03*
X296622743Y-255654957D03*
%TD*%
D10*
%TO.C,SW1_11*%
X419989000Y-203581000D03*
D11*
X425069000Y-203581000D03*
D10*
X430149000Y-203581000D03*
D12*
X421259000Y-201041000D03*
X427609000Y-198501000D03*
%TD*%
D10*
%TO.C,SW0_-6*%
X138943603Y-203604607D03*
D11*
X144023603Y-203604607D03*
D10*
X149103603Y-203604607D03*
D12*
X140213603Y-201064607D03*
X146563603Y-198524607D03*
%TD*%
D10*
%TO.C,SW2_12*%
X455717538Y-222631000D03*
D11*
X460797538Y-222631000D03*
D10*
X465877538Y-222631000D03*
D12*
X456987538Y-220091000D03*
X463337538Y-217551000D03*
%TD*%
D17*
%TO.C,D33*%
X306070000Y-225932000D03*
X306070000Y-222632000D03*
%TD*%
%TO.C,D4*%
X272669000Y-187706000D03*
X272669000Y-184406000D03*
%TD*%
D18*
%TO.C,D103*%
X126112000Y-175006000D03*
X129412000Y-175006000D03*
%TD*%
D17*
%TO.C,D8*%
X348869000Y-187705000D03*
X348869000Y-184405000D03*
%TD*%
%TO.C,D6*%
X310769000Y-187705000D03*
X310769000Y-184405000D03*
%TD*%
%TO.C,D65*%
X463169000Y-264032000D03*
X463169000Y-260732000D03*
%TD*%
%TO.C,D55*%
X217805000Y-264032000D03*
X217805000Y-260732000D03*
%TD*%
%TO.C,D32*%
X286893000Y-225932000D03*
X286893000Y-222632000D03*
%TD*%
%TO.C,D60*%
X375031000Y-264032000D03*
X375031000Y-260732000D03*
%TD*%
%TO.C,D46*%
X315468000Y-245109000D03*
X315468000Y-241809000D03*
%TD*%
%TO.C,D49*%
X372618000Y-245109000D03*
X372618000Y-241809000D03*
%TD*%
%TO.C,D24*%
X415544000Y-206882000D03*
X415544000Y-203582000D03*
%TD*%
D19*
%TO.C,R4*%
X145135600Y-162509200D03*
X146960600Y-162509200D03*
%TD*%
D17*
%TO.C,D58*%
X279781000Y-264032000D03*
X279781000Y-260732000D03*
%TD*%
%TO.C,D61*%
X386969000Y-264032000D03*
X386969000Y-260732000D03*
%TD*%
%TO.C,D101*%
X134493000Y-206881000D03*
X134493000Y-203581000D03*
%TD*%
%TO.C,D21*%
X358394000Y-206882000D03*
X358394000Y-203582000D03*
%TD*%
D20*
%TO.C,R10*%
X172281372Y-177545050D03*
X173571842Y-178835520D03*
%TD*%
D17*
%TO.C,D44*%
X277368000Y-245109000D03*
X277368000Y-241809000D03*
%TD*%
D21*
%TO.C,R2*%
X133856100Y-157988000D03*
X132031100Y-157988000D03*
%TD*%
D17*
%TO.C,D93*%
X339394800Y-175053800D03*
X339394800Y-171753800D03*
%TD*%
%TO.C,D56*%
X241681000Y-264032000D03*
X241681000Y-260732000D03*
%TD*%
%TO.C,D94*%
X358457209Y-168906187D03*
X358457209Y-165606187D03*
%TD*%
%TO.C,D1*%
X215528320Y-188064500D03*
X215528320Y-184764500D03*
%TD*%
D22*
%TO.C,D102*%
X123697000Y-175006000D03*
X120397000Y-175006000D03*
%TD*%
D17*
%TO.C,D112*%
X172593000Y-245109000D03*
X172593000Y-241809000D03*
%TD*%
%TO.C,D51*%
X410718000Y-245109000D03*
X410718000Y-241809000D03*
%TD*%
D23*
%TO.C,C6*%
X164795200Y-161901500D03*
X164795200Y-163726500D03*
%TD*%
D17*
%TO.C,D80*%
X153543000Y-187959000D03*
X153543000Y-184659000D03*
%TD*%
D24*
%TO.C,U3*%
X168401064Y-167580918D03*
X168966750Y-167015233D03*
X169532435Y-166449548D03*
X170098120Y-165883862D03*
X170663806Y-165318177D03*
X171229491Y-164752491D03*
X171795177Y-164186806D03*
X172360862Y-163621120D03*
X172926548Y-163055435D03*
X173492233Y-162489750D03*
X174057918Y-161924064D03*
D25*
X176462082Y-161924064D03*
X177027767Y-162489750D03*
X177593452Y-163055435D03*
X178159138Y-163621120D03*
X178724823Y-164186806D03*
X179290509Y-164752491D03*
X179856194Y-165318177D03*
X180421880Y-165883862D03*
X180987565Y-166449548D03*
X181553250Y-167015233D03*
X182118936Y-167580918D03*
D24*
X182118936Y-169985082D03*
X181553250Y-170550767D03*
X180987565Y-171116452D03*
X180421880Y-171682138D03*
X179856194Y-172247823D03*
X179290509Y-172813509D03*
X178724823Y-173379194D03*
X178159138Y-173944880D03*
X177593452Y-174510565D03*
X177027767Y-175076250D03*
X176462082Y-175641936D03*
D25*
X174057918Y-175641936D03*
X173492233Y-175076250D03*
X172926548Y-174510565D03*
X172360862Y-173944880D03*
X171795177Y-173379194D03*
X171229491Y-172813509D03*
X170663806Y-172247823D03*
X170098120Y-171682138D03*
X169532435Y-171116452D03*
X168966750Y-170550767D03*
X168401064Y-169985082D03*
%TD*%
D26*
%TO.C,J1*%
X138080000Y-157869000D03*
X143860000Y-157869000D03*
D27*
X137720000Y-159314000D03*
X138519999Y-159314000D03*
D28*
X139720000Y-159313999D03*
X140720000Y-159314000D03*
X141220000Y-159314000D03*
X142220000Y-159313999D03*
D27*
X143420001Y-159314000D03*
X144220000Y-159314000D03*
X144220000Y-159314000D03*
X143420001Y-159314000D03*
D28*
X142720000Y-159314000D03*
X141720000Y-159314000D03*
X140220000Y-159314000D03*
X139220000Y-159314000D03*
D27*
X138519999Y-159314000D03*
X137720000Y-159314000D03*
D29*
X136650000Y-154219000D03*
D30*
X136650000Y-158399000D03*
D29*
X145290000Y-154219000D03*
D30*
X145290000Y-158399000D03*
%TD*%
D17*
%TO.C,D40*%
X439293000Y-225932000D03*
X439293000Y-222632000D03*
%TD*%
D31*
%TO.C,D113*%
X191643000Y-243968000D03*
X191643000Y-247268000D03*
%TD*%
D17*
%TO.C,D9*%
X367919000Y-187705000D03*
X367919000Y-184405000D03*
%TD*%
%TO.C,D42*%
X227330000Y-245109000D03*
X227330000Y-241809000D03*
%TD*%
%TO.C,D23*%
X396494000Y-206882000D03*
X396494000Y-203582000D03*
%TD*%
D21*
%TO.C,C10*%
X168757600Y-163525200D03*
X166932600Y-163525200D03*
%TD*%
D17*
%TO.C,D41*%
X451231000Y-225932000D03*
X451231000Y-222632000D03*
%TD*%
%TO.C,D26*%
X453517000Y-206882000D03*
X453517000Y-203582000D03*
%TD*%
%TO.C,D109*%
X172720000Y-231393000D03*
X172720000Y-228093000D03*
%TD*%
%TO.C,D88*%
X258368800Y-175054800D03*
X258368800Y-171754800D03*
%TD*%
%TO.C,D87*%
X239318800Y-175054800D03*
X239318800Y-171754800D03*
%TD*%
%TO.C,D28*%
X453644000Y-187705000D03*
X453644000Y-184405000D03*
%TD*%
%TO.C,D5*%
X291719000Y-187705000D03*
X291719000Y-184405000D03*
%TD*%
%TO.C,D14*%
X225044000Y-206882000D03*
X225044000Y-203582000D03*
%TD*%
%TO.C,D50*%
X391922000Y-245108000D03*
X391922000Y-241808000D03*
%TD*%
%TO.C,D19*%
X320294000Y-206882000D03*
X320294000Y-203582000D03*
%TD*%
%TO.C,D115*%
X153543000Y-263015000D03*
X153543000Y-259715000D03*
%TD*%
%TO.C,D78*%
X134493000Y-187958000D03*
X134493000Y-184658000D03*
%TD*%
%TO.C,D25*%
X434594000Y-206882000D03*
X434594000Y-203582000D03*
%TD*%
%TO.C,D37*%
X382143000Y-225932000D03*
X382143000Y-222632000D03*
%TD*%
%TO.C,D43*%
X258318000Y-245108000D03*
X258318000Y-241808000D03*
%TD*%
D23*
%TO.C,R7*%
X145237200Y-172163100D03*
X145237200Y-173988100D03*
%TD*%
D32*
%TO.C,C4*%
X183809565Y-172298435D03*
X185100035Y-171007965D03*
%TD*%
D17*
%TO.C,D2*%
X234578320Y-188064500D03*
X234578320Y-184764500D03*
%TD*%
%TO.C,D13*%
X444119000Y-187705000D03*
X444119000Y-184405000D03*
%TD*%
%TO.C,D92*%
X320344800Y-175053800D03*
X320344800Y-171753800D03*
%TD*%
%TO.C,D89*%
X277418800Y-175054800D03*
X277418800Y-171754800D03*
%TD*%
%TO.C,D91*%
X463169000Y-168909000D03*
X463169000Y-165609000D03*
%TD*%
%TO.C,D29*%
X222631000Y-225932000D03*
X222631000Y-222632000D03*
%TD*%
%TO.C,D20*%
X339344000Y-206882000D03*
X339344000Y-203582000D03*
%TD*%
D33*
%TO.C,Y2*%
X192469500Y-159877500D03*
X190269500Y-159877500D03*
X190269500Y-158177500D03*
X192469500Y-158177500D03*
%TD*%
D20*
%TO.C,C5*%
X165318365Y-170093565D03*
X166608835Y-171384035D03*
%TD*%
%TO.C,C7*%
X180456765Y-159605265D03*
X181747235Y-160895735D03*
%TD*%
D19*
%TO.C,R1*%
X145135600Y-164541200D03*
X146960600Y-164541200D03*
%TD*%
D17*
%TO.C,D83*%
X191643000Y-187959000D03*
X191643000Y-184659000D03*
%TD*%
%TO.C,D36*%
X363220000Y-225932000D03*
X363220000Y-222632000D03*
%TD*%
%TO.C,D97*%
X420370000Y-168909000D03*
X420370000Y-165609000D03*
%TD*%
%TO.C,D62*%
X406019000Y-264032000D03*
X406019000Y-260732000D03*
%TD*%
%TO.C,D95*%
X377444000Y-168909000D03*
X377444000Y-165609000D03*
%TD*%
D34*
%TO.C,D66*%
X141439200Y-162525200D03*
D35*
X143139200Y-162525200D03*
X143139200Y-164525200D03*
X141239200Y-164525200D03*
%TD*%
D17*
%TO.C,D31*%
X267970000Y-225932000D03*
X267970000Y-222632000D03*
%TD*%
%TO.C,D22*%
X377444000Y-206882000D03*
X377444000Y-203582000D03*
%TD*%
D31*
%TO.C,D106*%
X173990000Y-206884000D03*
X173990000Y-210184000D03*
%TD*%
D17*
%TO.C,D64*%
X444119000Y-264032000D03*
X444119000Y-260732000D03*
%TD*%
%TO.C,D96*%
X401320000Y-168909000D03*
X401320000Y-165609000D03*
%TD*%
%TO.C,D45*%
X296418000Y-245109000D03*
X296418000Y-241809000D03*
%TD*%
%TO.C,D47*%
X334518000Y-245109000D03*
X334518000Y-241809000D03*
%TD*%
%TO.C,D90*%
X296468800Y-175053800D03*
X296468800Y-171753800D03*
%TD*%
%TO.C,D111*%
X153543000Y-245109000D03*
X153543000Y-241809000D03*
%TD*%
D36*
%TO.C,F1*%
X150491800Y-158394400D03*
X153466800Y-158394400D03*
%TD*%
D17*
%TO.C,D99*%
X458470000Y-168909000D03*
X458470000Y-165609000D03*
%TD*%
%TO.C,D53*%
X443992000Y-245109000D03*
X443992000Y-241809000D03*
%TD*%
%TO.C,D16*%
X263144000Y-206881000D03*
X263144000Y-203581000D03*
%TD*%
%TO.C,D86*%
X215569800Y-175054800D03*
X215569800Y-171754800D03*
%TD*%
D37*
%TO.C,SW3*%
X142621000Y-170290000D03*
X136421000Y-170290000D03*
X142621000Y-173990000D03*
X136421000Y-173990000D03*
%TD*%
D17*
%TO.C,D68*%
X318008000Y-264032000D03*
X318008000Y-260732000D03*
%TD*%
%TO.C,D35*%
X344043000Y-225932000D03*
X344043000Y-222632000D03*
%TD*%
D23*
%TO.C,R3*%
X147726400Y-157939100D03*
X147726400Y-159764100D03*
%TD*%
D17*
%TO.C,D110*%
X134493000Y-245108000D03*
X134493000Y-241808000D03*
%TD*%
D23*
%TO.C,C8*%
X194671501Y-158115000D03*
X194671501Y-159940000D03*
%TD*%
D17*
%TO.C,D7*%
X329819000Y-187706000D03*
X329819000Y-184406000D03*
%TD*%
%TO.C,D57*%
X265430000Y-264032000D03*
X265430000Y-260732000D03*
%TD*%
%TO.C,D107*%
X134493000Y-231393000D03*
X134493000Y-228093000D03*
%TD*%
%TO.C,D39*%
X420243000Y-225932000D03*
X420243000Y-222632000D03*
%TD*%
%TO.C,D108*%
X153543000Y-231393000D03*
X153543000Y-228093000D03*
%TD*%
%TO.C,D30*%
X248793000Y-225932000D03*
X248793000Y-222632000D03*
%TD*%
%TO.C,D63*%
X425069000Y-264032000D03*
X425069000Y-260732000D03*
%TD*%
%TO.C,D98*%
X439420000Y-168909000D03*
X439420000Y-165609000D03*
%TD*%
%TO.C,D38*%
X401193000Y-225932000D03*
X401193000Y-222632000D03*
%TD*%
%TO.C,D17*%
X282194000Y-206882000D03*
X282194000Y-203582000D03*
%TD*%
D38*
%TO.C,C9*%
X188044001Y-159940000D03*
X188044001Y-158115000D03*
%TD*%
D17*
%TO.C,D67*%
X303530000Y-264032000D03*
X303530000Y-260732000D03*
%TD*%
%TO.C,D48*%
X353441000Y-245109000D03*
X353441000Y-241809000D03*
%TD*%
%TO.C,D59*%
X341757000Y-264032000D03*
X341757000Y-260732000D03*
%TD*%
%TO.C,D54*%
X463169000Y-245109000D03*
X463169000Y-241809000D03*
%TD*%
%TO.C,D10*%
X386969000Y-187705000D03*
X386969000Y-184405000D03*
%TD*%
%TO.C,D3*%
X254000000Y-187706000D03*
X254000000Y-184406000D03*
%TD*%
%TO.C,D18*%
X301244000Y-206882000D03*
X301244000Y-203582000D03*
%TD*%
%TO.C,D34*%
X324993000Y-225932000D03*
X324993000Y-222632000D03*
%TD*%
%TO.C,D104*%
X153543000Y-206882000D03*
X153543000Y-203582000D03*
%TD*%
%TO.C,D105*%
X171196000Y-206882000D03*
X171196000Y-203582000D03*
%TD*%
%TO.C,D114*%
X144034910Y-263009410D03*
X144034910Y-259709410D03*
%TD*%
%TO.C,D15*%
X244094000Y-206882000D03*
X244094000Y-203582000D03*
%TD*%
%TO.C,D52*%
X417957000Y-245109000D03*
X417957000Y-241809000D03*
%TD*%
%TO.C,D81*%
X172593000Y-187959000D03*
X172593000Y-184659000D03*
%TD*%
%TO.C,D12*%
X425069000Y-187705000D03*
X425069000Y-184405000D03*
%TD*%
%TO.C,D27*%
X458470000Y-206882000D03*
X458470000Y-203582000D03*
%TD*%
%TO.C,D11*%
X406146000Y-187705000D03*
X406146000Y-184405000D03*
%TD*%
M02*
