%TF.GenerationSoftware,KiCad,Pcbnew,8.0.0*%
%TF.CreationDate,2024-12-21T07:53:57-08:00*%
%TF.ProjectId,Hampter3.1,48616d70-7465-4723-932e-312e6b696361,rev?*%
%TF.SameCoordinates,Original*%
%TF.FileFunction,Soldermask,Top*%
%TF.FilePolarity,Negative*%
%FSLAX46Y46*%
G04 Gerber Fmt 4.6, Leading zero omitted, Abs format (unit mm)*
G04 Created by KiCad (PCBNEW 8.0.0) date 2024-12-21 07:53:57*
%MOMM*%
%LPD*%
G01*
G04 APERTURE LIST*
%ADD10C,1.750000*%
%ADD11C,3.987800*%
%ADD12C,3.048000*%
%ADD13R,2.000000X2.000000*%
%ADD14C,2.000000*%
%ADD15R,3.200000X2.000000*%
%ADD16C,0.650000*%
%ADD17O,1.000000X1.600000*%
%ADD18O,1.000000X2.100000*%
G04 APERTURE END LIST*
D10*
%TO.C,SW0_30*%
X129418603Y-260754607D03*
D11*
X134498603Y-260754607D03*
D10*
X139578603Y-260754607D03*
%TD*%
%TO.C,SW3_3*%
X281813000Y-241681000D03*
D11*
X286893000Y-241681000D03*
D10*
X291973000Y-241681000D03*
%TD*%
%TO.C,SW2_8*%
X367579538Y-222631000D03*
D11*
X372659538Y-222631000D03*
D10*
X377739538Y-222631000D03*
%TD*%
%TO.C,SW1_12*%
X439039000Y-203581000D03*
D11*
X444119000Y-203581000D03*
D10*
X449199000Y-203581000D03*
%TD*%
D11*
%TO.C,S5*%
X190383527Y-263145372D03*
D12*
X175143527Y-263145371D03*
X175143527Y-239332871D03*
D11*
X190383527Y-239332870D03*
%TD*%
D10*
%TO.C,SW-1_-7*%
X157993603Y-184554607D03*
D11*
X163073603Y-184554607D03*
D10*
X168153603Y-184554607D03*
%TD*%
%TO.C,SW1_9*%
X381889000Y-203581000D03*
D11*
X386969000Y-203581000D03*
D10*
X392049000Y-203581000D03*
%TD*%
%TO.C,SW-1_-6*%
X138943603Y-184554607D03*
D11*
X144023603Y-184554607D03*
D10*
X149103603Y-184554607D03*
%TD*%
%TO.C,SW-1_3*%
X262763000Y-165481000D03*
D11*
X267843000Y-165481000D03*
D10*
X272923000Y-165481000D03*
%TD*%
%TO.C,SW-1_-5*%
X119893603Y-184554607D03*
D11*
X124973603Y-184554607D03*
D10*
X130053603Y-184554607D03*
%TD*%
%TO.C,SW4_10*%
X467614000Y-260731000D03*
D11*
X472694000Y-260731000D03*
D10*
X477774000Y-260731000D03*
%TD*%
%TO.C,SW0_10*%
X391414000Y-184531000D03*
D11*
X396494000Y-184531000D03*
D10*
X401574000Y-184531000D03*
%TD*%
%TO.C,SW4_6*%
X391414000Y-260731000D03*
D11*
X396494000Y-260731000D03*
D10*
X401574000Y-260731000D03*
%TD*%
%TO.C,SW4_5*%
X360426000Y-260731000D03*
D11*
X365506000Y-260731000D03*
D10*
X370586000Y-260731000D03*
%TD*%
%TO.C,SW-1_4*%
X281813000Y-165481000D03*
D11*
X286893000Y-165481000D03*
D10*
X291973000Y-165481000D03*
%TD*%
%TO.C,SW3_6*%
X338963000Y-241681000D03*
D11*
X344043000Y-241681000D03*
D10*
X349123000Y-241681000D03*
%TD*%
%TO.C,SW0_-7*%
X157993603Y-203604607D03*
D11*
X163073603Y-203604607D03*
D10*
X168153603Y-203604607D03*
%TD*%
%TO.C,SW1_4*%
X286639000Y-203581000D03*
D11*
X291719000Y-203581000D03*
D10*
X296799000Y-203581000D03*
%TD*%
D11*
%TO.C,S9*%
X301244000Y-252476000D03*
D12*
X301243999Y-267716000D03*
X277431499Y-267716000D03*
D11*
X277431498Y-252476000D03*
%TD*%
D10*
%TO.C,SW3_4*%
X300863000Y-241681000D03*
D11*
X305943000Y-241681000D03*
D10*
X311023000Y-241681000D03*
%TD*%
%TO.C,SW-1_2*%
X243713000Y-165481000D03*
D11*
X248793000Y-165481000D03*
D10*
X253873000Y-165481000D03*
%TD*%
%TO.C,SW0_12*%
X429514000Y-184531000D03*
D11*
X434594000Y-184531000D03*
D10*
X439674000Y-184531000D03*
%TD*%
%TO.C,SW1_7*%
X343789000Y-203581000D03*
D11*
X348869000Y-203581000D03*
D10*
X353949000Y-203581000D03*
%TD*%
%TO.C,SW0_11*%
X410464000Y-184531000D03*
D11*
X415544000Y-184531000D03*
D10*
X420624000Y-184531000D03*
%TD*%
%TO.C,SW-1_13*%
X467614000Y-165481000D03*
D11*
X472694000Y-165481000D03*
D10*
X477774000Y-165481000D03*
%TD*%
D11*
%TO.C,S8*%
X146410623Y-252500090D03*
D12*
X146410622Y-267740090D03*
X122598122Y-267740090D03*
D11*
X122598121Y-252500090D03*
%TD*%
D10*
%TO.C,SW1_1*%
X229489000Y-203581000D03*
D11*
X234569000Y-203581000D03*
D10*
X239649000Y-203581000D03*
%TD*%
%TO.C,SW3_11*%
X448564000Y-241681000D03*
D11*
X453644000Y-241681000D03*
D10*
X458724000Y-241681000D03*
%TD*%
%TO.C,SW0_-5*%
X119893603Y-203604607D03*
D11*
X124973603Y-203604607D03*
D10*
X130053603Y-203604607D03*
%TD*%
%TO.C,SW1_8*%
X362839000Y-203581000D03*
D11*
X367919000Y-203581000D03*
D10*
X372999000Y-203581000D03*
%TD*%
%TO.C,SW-1_1*%
X224663000Y-165481000D03*
D11*
X229743000Y-165481000D03*
D10*
X234823000Y-165481000D03*
%TD*%
%TO.C,SW-1_6*%
X324739000Y-165481000D03*
D11*
X329819000Y-165481000D03*
D10*
X334899000Y-165481000D03*
%TD*%
D12*
%TO.C,S3*%
X448859538Y-215646000D03*
D11*
X448859538Y-230886000D03*
D12*
X472672038Y-215646000D03*
D11*
X472672038Y-230886000D03*
%TD*%
D10*
%TO.C,SW0_2*%
X239014000Y-184531000D03*
D11*
X244094000Y-184531000D03*
D10*
X249174000Y-184531000D03*
%TD*%
D13*
%TO.C,SW2*%
X117453000Y-163021000D03*
D14*
X117453000Y-168021000D03*
X117453000Y-165521000D03*
D15*
X124953000Y-159921000D03*
X124953000Y-171121000D03*
D14*
X131953000Y-168021000D03*
X131953000Y-163021000D03*
%TD*%
D10*
%TO.C,SW0_-8*%
X182123603Y-218209606D03*
D11*
X182123603Y-213129607D03*
D10*
X182123603Y-208049608D03*
%TD*%
%TO.C,SW-1_5*%
X305689000Y-165481000D03*
D11*
X310769000Y-165481000D03*
D10*
X315849000Y-165481000D03*
%TD*%
%TO.C,SW3_5*%
X319913000Y-241681000D03*
D11*
X324993000Y-241681000D03*
D10*
X330073000Y-241681000D03*
%TD*%
D11*
%TO.C,S6*%
X190373000Y-225044000D03*
D12*
X175133000Y-225043999D03*
X175133000Y-201231499D03*
D11*
X190373000Y-201231498D03*
%TD*%
D10*
%TO.C,SW4_9*%
X448564000Y-260731000D03*
D11*
X453644000Y-260731000D03*
D10*
X458724000Y-260731000D03*
%TD*%
%TO.C,SW1_5*%
X305689000Y-203581000D03*
D11*
X310769000Y-203581000D03*
D10*
X315849000Y-203581000D03*
%TD*%
%TO.C,SW4_3*%
X284226000Y-260731000D03*
D11*
X289306000Y-260731000D03*
D10*
X294386000Y-260731000D03*
%TD*%
%TO.C,SW0_21*%
X119893603Y-241704607D03*
D11*
X124973603Y-241704607D03*
D10*
X130053603Y-241704607D03*
%TD*%
%TO.C,SW2_0*%
X208026000Y-222631000D03*
D11*
X213106000Y-222631000D03*
D10*
X218186000Y-222631000D03*
%TD*%
%TO.C,SW-1_12*%
X443865000Y-165481000D03*
D11*
X448945000Y-165481000D03*
D10*
X454025000Y-165481000D03*
%TD*%
%TO.C,SW4_4*%
X327102743Y-260734957D03*
D11*
X332182743Y-260734957D03*
D10*
X337262743Y-260734957D03*
%TD*%
%TO.C,SW3_7*%
X358013000Y-241681000D03*
D11*
X363093000Y-241681000D03*
D10*
X368173000Y-241681000D03*
%TD*%
%TO.C,SW4_1*%
X227032699Y-260723545D03*
D11*
X232112699Y-260723545D03*
D10*
X237192699Y-260723545D03*
%TD*%
%TO.C,SW1_6*%
X324739000Y-203581000D03*
D11*
X329819000Y-203581000D03*
D10*
X334899000Y-203581000D03*
%TD*%
%TO.C,SW2_1*%
X234229538Y-222631000D03*
D11*
X239309538Y-222631000D03*
D10*
X244389538Y-222631000D03*
%TD*%
%TO.C,SW4_0*%
X203218924Y-260726604D03*
D11*
X208298924Y-260726604D03*
D10*
X213378924Y-260726604D03*
%TD*%
%TO.C,SW3_1*%
X243713000Y-241681000D03*
D11*
X248793000Y-241681000D03*
D10*
X253873000Y-241681000D03*
%TD*%
D12*
%TO.C,S7*%
X451276544Y-177545075D03*
D11*
X451276544Y-192785075D03*
D12*
X475089044Y-177545075D03*
D11*
X475089044Y-192785075D03*
%TD*%
D10*
%TO.C,SW1_0*%
X205664915Y-203583900D03*
D11*
X210744915Y-203583900D03*
D10*
X215824915Y-203583900D03*
%TD*%
D11*
%TO.C,S1*%
X377444000Y-252476000D03*
D12*
X377443999Y-267716000D03*
X353631499Y-267716000D03*
D11*
X353631498Y-252476000D03*
%TD*%
D10*
%TO.C,SW-1_-8*%
X177043603Y-184554607D03*
D11*
X182123603Y-184554607D03*
D10*
X187203603Y-184554607D03*
%TD*%
D11*
%TO.C,S4*%
X205930498Y-249936000D03*
D12*
X205930499Y-234696000D03*
X229742999Y-234696000D03*
D11*
X229743000Y-249936000D03*
%TD*%
D10*
%TO.C,SW0_31*%
X157993603Y-260754607D03*
D11*
X163073603Y-260754607D03*
D10*
X168153603Y-260754607D03*
%TD*%
%TO.C,SW1_10*%
X400939000Y-203581000D03*
D11*
X406019000Y-203581000D03*
D10*
X411099000Y-203581000D03*
%TD*%
%TO.C,SW0_4*%
X277114000Y-184531000D03*
D11*
X282194000Y-184531000D03*
D10*
X287274000Y-184531000D03*
%TD*%
%TO.C,SW2_6*%
X329479538Y-222631000D03*
D11*
X334559538Y-222631000D03*
D10*
X339639538Y-222631000D03*
%TD*%
%TO.C,SW-1_10*%
X405765000Y-165481000D03*
D11*
X410845000Y-165481000D03*
D10*
X415925000Y-165481000D03*
%TD*%
%TO.C,SW-1_0*%
X200914000Y-165481000D03*
D11*
X205994000Y-165481000D03*
D10*
X211074000Y-165481000D03*
%TD*%
%TO.C,SW3_10*%
X422315948Y-241676846D03*
D11*
X427395948Y-241676846D03*
D10*
X432475948Y-241676846D03*
%TD*%
%TO.C,SW0_9*%
X372364000Y-184531000D03*
D11*
X377444000Y-184531000D03*
D10*
X382524000Y-184531000D03*
%TD*%
%TO.C,SW0_8*%
X353314000Y-184531000D03*
D11*
X358394000Y-184531000D03*
D10*
X363474000Y-184531000D03*
%TD*%
%TO.C,SW4_2*%
X250843924Y-260726604D03*
D11*
X255923924Y-260726604D03*
D10*
X261003924Y-260726604D03*
%TD*%
%TO.C,SW2_2*%
X253279538Y-222631000D03*
D11*
X258359538Y-222631000D03*
D10*
X263439538Y-222631000D03*
%TD*%
%TO.C,SW0_16*%
X138943603Y-222654607D03*
D11*
X144023603Y-222654607D03*
D10*
X149103603Y-222654607D03*
%TD*%
%TO.C,SW0_3*%
X258064000Y-184531000D03*
D11*
X263144000Y-184531000D03*
D10*
X268224000Y-184531000D03*
%TD*%
%TO.C,SW1_3*%
X267589000Y-203581000D03*
D11*
X272669000Y-203581000D03*
D10*
X277749000Y-203581000D03*
%TD*%
%TO.C,SW0_5*%
X296164000Y-184531000D03*
D11*
X301244000Y-184531000D03*
D10*
X306324000Y-184531000D03*
%TD*%
%TO.C,SW3_8*%
X377063000Y-241681000D03*
D11*
X382143000Y-241681000D03*
D10*
X387223000Y-241681000D03*
%TD*%
%TO.C,SW4_8*%
X429514000Y-260731000D03*
D11*
X434594000Y-260731000D03*
D10*
X439674000Y-260731000D03*
%TD*%
%TO.C,SW-1_11*%
X424815000Y-165481000D03*
D11*
X429895000Y-165481000D03*
D10*
X434975000Y-165481000D03*
%TD*%
%TO.C,SW0_7*%
X334264000Y-184531000D03*
D11*
X339344000Y-184531000D03*
D10*
X344424000Y-184531000D03*
%TD*%
%TO.C,SW2_5*%
X310429538Y-222631000D03*
D11*
X315509538Y-222631000D03*
D10*
X320589538Y-222631000D03*
%TD*%
%TO.C,SW0_13*%
X458089000Y-184531000D03*
D11*
X463169000Y-184531000D03*
D10*
X468249000Y-184531000D03*
%TD*%
%TO.C,SW0_29*%
X182143277Y-256332451D03*
D11*
X182143277Y-251252452D03*
D10*
X182143277Y-246172453D03*
%TD*%
%TO.C,SW0_6*%
X315214000Y-184531000D03*
D11*
X320294000Y-184531000D03*
D10*
X325374000Y-184531000D03*
%TD*%
%TO.C,SW3_12*%
X467614000Y-241681000D03*
D11*
X472694000Y-241681000D03*
D10*
X477774000Y-241681000D03*
%TD*%
%TO.C,SW3_0*%
X212725000Y-241681000D03*
D11*
X217805000Y-241681000D03*
D10*
X222885000Y-241681000D03*
%TD*%
%TO.C,SW-1_8*%
X362839000Y-165481000D03*
D11*
X367919000Y-165481000D03*
D10*
X372999000Y-165481000D03*
%TD*%
%TO.C,SW0_26*%
X138943603Y-241704607D03*
D11*
X144023603Y-241704607D03*
D10*
X149103603Y-241704607D03*
%TD*%
%TO.C,SW0_1*%
X219964000Y-184531000D03*
D11*
X225044000Y-184531000D03*
D10*
X230124000Y-184531000D03*
%TD*%
%TO.C,SW0_0*%
X200914000Y-184531000D03*
D11*
X205994000Y-184531000D03*
D10*
X211074000Y-184531000D03*
%TD*%
%TO.C,SW4_12*%
X322358324Y-260729822D03*
D11*
X327438324Y-260729822D03*
D10*
X332518324Y-260729822D03*
%TD*%
%TO.C,SW-1_7*%
X343789000Y-165481000D03*
D11*
X348869000Y-165481000D03*
D10*
X353949000Y-165481000D03*
%TD*%
%TO.C,SW0_28*%
X157993603Y-241704607D03*
D11*
X163073603Y-241704607D03*
D10*
X168153603Y-241704607D03*
%TD*%
%TO.C,SW2_3*%
X272329538Y-222631000D03*
D11*
X277409538Y-222631000D03*
D10*
X282489538Y-222631000D03*
%TD*%
%TO.C,SW1_13*%
X462849717Y-203579119D03*
D11*
X467929717Y-203579119D03*
D10*
X473009717Y-203579119D03*
%TD*%
%TO.C,SW0_17*%
X157993603Y-222654607D03*
D11*
X163073603Y-222654607D03*
D10*
X168153603Y-222654607D03*
%TD*%
%TO.C,SW2_11*%
X424729538Y-222631000D03*
D11*
X429809538Y-222631000D03*
D10*
X434889538Y-222631000D03*
%TD*%
%TO.C,SW1_2*%
X248539000Y-203581000D03*
D11*
X253619000Y-203581000D03*
D10*
X258699000Y-203581000D03*
%TD*%
%TO.C,SW0_15*%
X119893603Y-222654607D03*
D11*
X124973603Y-222654607D03*
D10*
X130053603Y-222654607D03*
%TD*%
%TO.C,SW2_4*%
X291379538Y-222631000D03*
D11*
X296459538Y-222631000D03*
D10*
X301539538Y-222631000D03*
%TD*%
%TO.C,SW4_7*%
X410464000Y-260731000D03*
D11*
X415544000Y-260731000D03*
D10*
X420624000Y-260731000D03*
%TD*%
D11*
%TO.C,S10*%
X305982588Y-252479956D03*
D12*
X305982587Y-267719956D03*
X282170087Y-267719956D03*
D11*
X282170086Y-252479956D03*
%TD*%
D10*
%TO.C,SW-1_9*%
X386715000Y-165481000D03*
D11*
X391795000Y-165481000D03*
D10*
X396875000Y-165481000D03*
%TD*%
%TO.C,SW3_9*%
X396113000Y-241681000D03*
D11*
X401193000Y-241681000D03*
D10*
X406273000Y-241681000D03*
%TD*%
%TO.C,SW3_2*%
X262763000Y-241681000D03*
D11*
X267843000Y-241681000D03*
D10*
X272923000Y-241681000D03*
%TD*%
%TO.C,SW2_10*%
X405679538Y-222631000D03*
D11*
X410759538Y-222631000D03*
D10*
X415839538Y-222631000D03*
%TD*%
%TO.C,SW2_7*%
X348529538Y-222631000D03*
D11*
X353609538Y-222631000D03*
D10*
X358689538Y-222631000D03*
%TD*%
%TO.C,SW2_9*%
X386629538Y-222631000D03*
D11*
X391709538Y-222631000D03*
D10*
X396789538Y-222631000D03*
%TD*%
%TO.C,SW4_11*%
X289002743Y-260734957D03*
D11*
X294082743Y-260734957D03*
D10*
X299162743Y-260734957D03*
%TD*%
%TO.C,SW1_11*%
X419989000Y-203581000D03*
D11*
X425069000Y-203581000D03*
D10*
X430149000Y-203581000D03*
%TD*%
%TO.C,SW0_-6*%
X138943603Y-203604607D03*
D11*
X144023603Y-203604607D03*
D10*
X149103603Y-203604607D03*
%TD*%
%TO.C,SW2_12*%
X455717538Y-222631000D03*
D11*
X460797538Y-222631000D03*
D10*
X465877538Y-222631000D03*
%TD*%
D16*
%TO.C,J1*%
X138080000Y-157869000D03*
X143860000Y-157869000D03*
D17*
X136650000Y-154219000D03*
D18*
X136650000Y-158399000D03*
D17*
X145290000Y-154219000D03*
D18*
X145290000Y-158399000D03*
%TD*%
M02*
