M48
; DRILL file {KiCad 8.0.0} date 2024-12-21T07:53:57-0800
; FORMAT={-:-/ absolute / inch / decimal}
; #@! TF.CreationDate,2024-12-21T07:53:57-08:00
; #@! TF.GenerationSoftware,Kicad,Pcbnew,8.0.0
; #@! TF.FileFunction,Plated,1,2,PTH
FMAT,2
INCH
; #@! TA.AperFunction,Plated,PTH,ViaDrill
T1C0.0118
; #@! TA.AperFunction,Plated,PTH,ViaDrill
T2C0.0157
; #@! TA.AperFunction,Plated,PTH,ComponentDrill
T3C0.0236
; #@! TA.AperFunction,Plated,PTH,ComponentDrill
T4C0.0394
; #@! TA.AperFunction,Plated,PTH,ComponentDrill
T5C0.0591
; #@! TA.AperFunction,Plated,PTH,ComponentDrill
T6C0.0600
%
G90
G05
T1
X4.7702Y-6.73
X4.92Y-6.455
X4.92Y-6.57
X5.048Y-6.63
X5.06Y-6.775
X5.175Y-6.775
X5.396Y-6.51
X5.4071Y-6.175
X5.4968Y-6.2266
X5.55Y-6.115
X5.585Y-6.2086
X5.685Y-6.1715
X5.76Y-6.68
X5.8Y-6.62
X5.87Y-6.64
X5.934Y-6.364
X6.0247Y-6.5847
X6.029Y-6.547
X6.0324Y-6.5084
X6.036Y-6.4713
X6.1107Y-6.3427
X6.18Y-6.52
X6.1875Y-6.2325
X6.37Y-6.34
X6.59Y-6.3045
X6.61Y-7.02
X6.622Y-6.2809
X6.654Y-6.2572
X6.688Y-6.2336
X6.835Y-6.275
X6.87Y-6.96
X6.89Y-6.44
X6.9Y-6.21
X6.915Y-7.005
X7.66Y-7.09
X7.825Y-6.56
X7.908Y-6.8919
X8.065Y-6.305
X8.362Y-6.762
X8.42Y-6.32
X8.575Y-6.515
X8.775Y-6.575
X9.284Y-6.762
X9.37Y-6.32
X9.375Y-6.495
X10.054Y-6.762
X10.1Y-6.325
X10.105Y-6.49
X10.768Y-6.762
X10.865Y-6.335
X10.87Y-6.5
X11.524Y-6.762
X11.67Y-6.55
X11.73Y-6.33
X12.41Y-6.7396
X12.52Y-6.325
X12.545Y-6.515
X13.13Y-6.62
X13.358Y-6.654
X13.695Y-6.32
X18.184Y-6.195
T2
X5.746Y-6.618
X6.026Y-6.338
X6.743Y-6.5807
X6.7891Y-6.5346
X6.936Y-6.5333
X7.0011Y-6.5984
X7.208Y-6.282
X7.3242Y-6.2989
T4
X4.6241Y-6.4181
X4.6241Y-6.5166
X4.6241Y-6.615
X5.195Y-6.4181
X5.195Y-6.615
T6
X4.7702Y-7.1659
X4.7702Y-7.9159
X4.7702Y-8.6659
X4.7702Y-9.4159
X5.0202Y-7.0659
X5.0202Y-7.8159
X5.0202Y-8.5659
X5.0202Y-9.3159
X5.1452Y-10.1659
X5.3952Y-10.0659
X5.5202Y-7.1659
X5.5202Y-7.9159
X5.5202Y-8.6659
X5.5202Y-9.4159
X5.7702Y-7.0659
X5.7702Y-7.8159
X5.7702Y-8.5659
X5.7702Y-9.3159
X6.2702Y-7.1659
X6.2702Y-7.9159
X6.2702Y-8.6659
X6.2702Y-9.4159
X6.2702Y-10.1659
X6.5202Y-7.0659
X6.5202Y-7.8159
X6.5202Y-8.5659
X6.5202Y-9.3159
X6.5202Y-10.0659
X6.9702Y-8.2909
X6.971Y-9.7918
X7.0202Y-7.1659
X7.0702Y-8.5409
X7.071Y-10.0418
X7.2702Y-7.0659
X7.96Y-6.415
X7.96Y-7.165
X8.0507Y-10.1648
X8.147Y-7.9151
X8.21Y-6.315
X8.21Y-7.065
X8.24Y-8.665
X8.3007Y-10.0648
X8.397Y-7.8151
X8.425Y-9.415
X8.49Y-8.565
X8.675Y-9.315
X8.71Y-7.165
X8.895Y-6.415
X8.96Y-7.065
X8.9883Y-10.1647
X9.085Y-7.915
X9.145Y-6.315
X9.2383Y-10.0647
X9.2716Y-8.665
X9.335Y-7.815
X9.46Y-7.165
X9.5216Y-8.565
X9.645Y-6.415
X9.645Y-9.415
X9.71Y-7.065
X9.835Y-7.915
X9.895Y-6.315
X9.895Y-9.315
X9.9257Y-10.1648
X10.0216Y-8.665
X10.085Y-7.815
X10.1757Y-10.0648
X10.21Y-7.165
X10.2716Y-8.565
X10.395Y-6.415
X10.395Y-9.415
X10.46Y-7.065
X10.585Y-7.915
X10.645Y-6.315
X10.645Y-9.315
X10.7716Y-8.665
X10.835Y-7.815
X10.96Y-7.165
X11.0216Y-8.565
X11.145Y-6.415
X11.145Y-9.415
X11.21Y-7.065
X11.24Y-10.165
X11.335Y-7.915
X11.395Y-6.315
X11.395Y-9.315
X11.4281Y-10.1652
X11.49Y-10.065
X11.5216Y-8.665
X11.585Y-7.815
X11.6781Y-10.0652
X11.71Y-7.165
X11.7716Y-8.565
X11.895Y-9.415
X11.96Y-7.065
X12.085Y-6.415
X12.085Y-7.915
X12.145Y-9.315
X12.2716Y-8.665
X12.335Y-6.315
X12.335Y-7.815
X12.46Y-7.165
X12.5216Y-8.565
X12.645Y-9.415
X12.71Y-7.065
X12.7413Y-10.165
X12.835Y-6.415
X12.835Y-7.915
X12.895Y-9.315
X12.9281Y-10.1652
X12.9913Y-10.065
X13.0216Y-8.665
X13.085Y-6.315
X13.085Y-7.815
X13.1781Y-10.0652
X13.21Y-7.165
X13.2716Y-8.565
X13.395Y-9.415
X13.46Y-7.065
X13.585Y-6.415
X13.585Y-7.915
X13.645Y-9.315
X13.7716Y-8.665
X13.835Y-6.315
X13.835Y-7.815
X13.96Y-7.165
X14.0216Y-8.565
X14.145Y-9.415
X14.21Y-7.065
X14.24Y-10.165
X14.335Y-6.415
X14.335Y-7.915
X14.395Y-9.315
X14.49Y-10.065
X14.5216Y-8.665
X14.585Y-6.315
X14.585Y-7.815
X14.71Y-7.165
X14.7716Y-8.565
X14.895Y-9.415
X14.96Y-7.065
X15.085Y-7.915
X15.145Y-9.315
X15.2716Y-8.665
X15.275Y-6.415
X15.335Y-7.815
X15.46Y-7.165
X15.46Y-10.165
X15.5216Y-8.565
X15.525Y-6.315
X15.645Y-9.415
X15.71Y-7.065
X15.71Y-10.065
X15.835Y-7.915
X15.895Y-9.315
X16.0216Y-8.665
X16.025Y-6.415
X16.085Y-7.815
X16.21Y-7.165
X16.21Y-10.165
X16.2716Y-8.565
X16.275Y-6.315
X16.46Y-7.065
X16.46Y-10.065
X16.585Y-7.915
X16.6766Y-9.4148
X16.7716Y-8.665
X16.775Y-6.415
X16.835Y-7.815
X16.9266Y-9.3148
X16.96Y-7.165
X16.96Y-10.165
X17.0216Y-8.565
X17.025Y-6.315
X17.21Y-7.065
X17.21Y-10.065
X17.335Y-7.915
X17.525Y-6.415
X17.585Y-7.815
X17.71Y-9.415
X17.71Y-10.165
X17.775Y-6.315
X17.96Y-9.315
X17.96Y-10.065
X17.9916Y-8.665
X18.085Y-7.165
X18.2416Y-8.565
X18.2724Y-7.9149
X18.335Y-7.065
X18.46Y-6.415
X18.46Y-9.415
X18.46Y-10.165
X18.5224Y-7.8149
X18.71Y-6.315
X18.71Y-9.315
X18.71Y-10.065
T3
G00X5.3799Y-6.0598
M15
G01X5.3799Y-6.0834
M16
G05
G00X5.3799Y-6.2145
M15
G01X5.3799Y-6.2578
M16
G05
G00X5.7201Y-6.0598
M15
G01X5.7201Y-6.0834
M16
G05
G00X5.7201Y-6.2145
M15
G01X5.7201Y-6.2578
M16
G05
T5
G00X4.8938Y-6.2961
M15
G01X4.945Y-6.2961
M16
G05
G00X4.8938Y-6.737
M15
G01X4.945Y-6.737
M16
G05
M30
