M48
; DRILL file {KiCad 8.0.0} date 2024-11-20T19:59:13-0800
; FORMAT={-:-/ absolute / inch / decimal}
; #@! TF.CreationDate,2024-11-20T19:59:13-08:00
; #@! TF.GenerationSoftware,Kicad,Pcbnew,8.0.0
; #@! TF.FileFunction,NonPlated,1,2,NPTH
FMAT,2
INCH
; #@! TA.AperFunction,NonPlated,NPTH,ComponentDrill
T1C0.0256
; #@! TA.AperFunction,NonPlated,NPTH,ComponentDrill
T2C0.0689
; #@! TA.AperFunction,NonPlated,NPTH,ComponentDrill
T3C0.1200
; #@! TA.AperFunction,NonPlated,NPTH,ComponentDrill
T4C0.1570
%
G90
G05
T1
X6.9612Y-5.0274
X7.1888Y-5.0274
T2
X8.0Y-5.3
X8.0936Y-8.3001
X8.1875Y-6.05
X8.281Y-6.8
X8.4Y-5.3
X8.4683Y-7.5501
X8.4936Y-8.3001
X8.5875Y-6.05
X8.681Y-6.8
X8.75Y-5.3
X8.8683Y-7.5501
X9.031Y-8.3001
X9.1245Y-6.05
X9.15Y-5.3
X9.3119Y-6.8001
X9.431Y-8.3001
X9.5Y-5.3
X9.5245Y-6.05
X9.6871Y-7.5501
X9.7119Y-6.8001
X9.8745Y-6.05
X9.9Y-5.3
X9.9687Y-8.3001
X10.0619Y-6.8001
X10.0871Y-7.5501
X10.25Y-5.3
X10.2745Y-6.05
X10.3687Y-8.3001
X10.4371Y-7.5501
X10.4619Y-6.8001
X10.6245Y-6.05
X10.65Y-5.3
X10.8119Y-6.8001
X10.8371Y-7.5501
X11.0Y-5.3
X11.0245Y-6.05
X11.1871Y-7.5501
X11.2119Y-6.8001
X11.281Y-8.3001
X11.3745Y-6.05
X11.4Y-5.3
X11.5619Y-6.8001
X11.5871Y-7.5501
X11.681Y-8.3001
X11.75Y-5.3
X11.7745Y-6.05
X11.9371Y-7.5501
X11.9619Y-6.8001
X12.1245Y-6.05
X12.15Y-5.3
X12.3119Y-6.8001
X12.3371Y-7.5501
X12.5Y-5.3
X12.5245Y-6.05
X12.6871Y-7.5501
X12.7119Y-6.8001
X12.781Y-8.3001
X12.8745Y-6.05
X12.9Y-5.3
X13.0619Y-6.8001
X13.0871Y-7.5501
X13.181Y-8.3001
X13.25Y-5.3
X13.2745Y-6.05
X13.4371Y-7.5501
X13.4619Y-6.8001
X13.6245Y-6.05
X13.65Y-5.3
X13.8119Y-6.8001
X13.8371Y-7.5501
X14.0Y-5.3
X14.0245Y-6.05
X14.1871Y-7.5501
X14.2119Y-6.8001
X14.281Y-8.3001
X14.3745Y-6.05
X14.4Y-5.3
X14.5619Y-6.8001
X14.5871Y-7.5501
X14.681Y-8.3001
X14.75Y-5.3
X14.7745Y-6.05
X14.9371Y-7.5501
X14.9619Y-6.8001
X15.1245Y-6.05
X15.15Y-5.3
X15.3119Y-6.8001
X15.3371Y-7.5501
X15.5Y-5.3
X15.5Y-8.3002
X15.5245Y-6.05
X15.6871Y-7.5501
X15.7119Y-6.8001
X15.8745Y-6.05
X15.9Y-5.3
X15.9Y-8.3002
X16.0619Y-6.8001
X16.0871Y-7.5501
X16.25Y-5.3
X16.25Y-8.3002
X16.2745Y-6.05
X16.4619Y-6.8001
X16.6245Y-6.05
X16.65Y-5.3
X16.65Y-8.3002
X16.7181Y-7.5502
X16.8119Y-6.8001
X17.0Y-5.3
X17.0Y-8.3002
X17.0245Y-6.05
X17.1181Y-7.5502
X17.2119Y-6.8001
X17.3745Y-6.05
X17.4Y-5.3
X17.4Y-8.3002
X17.75Y-7.55
X17.75Y-8.3002
X17.7745Y-6.05
X18.0309Y-6.8001
X18.125Y-5.3
X18.15Y-7.55
X18.15Y-8.3002
X18.3125Y-6.0502
X18.4309Y-6.8001
X18.5Y-7.55
X18.5Y-8.3002
X18.525Y-5.3
X18.7125Y-6.0502
X18.9Y-7.55
X18.9Y-8.3002
T3
X8.1996Y-7.2751
X9.1371Y-7.2751
X11.0123Y-8.5751
X11.9498Y-8.5751
X14.0123Y-8.5751
X14.9498Y-8.5751
X17.7622Y-6.5251
X17.8562Y-5.025
X18.6997Y-6.5251
X18.7937Y-5.025
T4
X8.1996Y-7.8751
X8.2Y-5.3
X8.2936Y-8.3001
X8.3875Y-6.05
X8.481Y-6.8
X8.6683Y-7.5501
X8.95Y-5.3
X9.1371Y-7.8751
X9.231Y-8.3001
X9.3245Y-6.05
X9.5119Y-6.8001
X9.7Y-5.3
X9.8871Y-7.5501
X10.0745Y-6.05
X10.1687Y-8.3001
X10.2619Y-6.8001
X10.45Y-5.3
X10.6371Y-7.5501
X10.8245Y-6.05
X11.0119Y-6.8001
X11.0123Y-7.9751
X11.2Y-5.3
X11.3871Y-7.5501
X11.481Y-8.3001
X11.5745Y-6.05
X11.7619Y-6.8001
X11.9498Y-7.9751
X11.95Y-5.3
X12.1371Y-7.5501
X12.3245Y-6.05
X12.5119Y-6.8001
X12.7Y-5.3
X12.8871Y-7.5501
X12.981Y-8.3001
X13.0745Y-6.05
X13.2619Y-6.8001
X13.45Y-5.3
X13.6371Y-7.5501
X13.8245Y-6.05
X14.0119Y-6.8001
X14.0123Y-7.9751
X14.2Y-5.3
X14.3871Y-7.5501
X14.481Y-8.3001
X14.5745Y-6.05
X14.7619Y-6.8001
X14.9498Y-7.9751
X14.95Y-5.3
X15.1371Y-7.5501
X15.3245Y-6.05
X15.5119Y-6.8001
X15.7Y-5.3
X15.7Y-8.3002
X15.8871Y-7.5501
X16.0745Y-6.05
X16.2619Y-6.8001
X16.45Y-5.3
X16.45Y-8.3002
X16.8245Y-6.05
X16.9181Y-7.5502
X17.0119Y-6.8001
X17.2Y-5.3
X17.2Y-8.3002
X17.5745Y-6.05
X17.7622Y-7.1251
X17.8562Y-5.625
X17.95Y-7.55
X17.95Y-8.3002
X18.2309Y-6.8001
X18.325Y-5.3
X18.5125Y-6.0502
X18.6997Y-7.1251
X18.7Y-7.55
X18.7Y-8.3002
X18.7937Y-5.625
M30
