%TF.GenerationSoftware,KiCad,Pcbnew,8.0.0*%
%TF.CreationDate,2024-11-20T19:59:16-08:00*%
%TF.ProjectId,Hampter1.3,48616d70-7465-4723-912e-332e6b696361,rev?*%
%TF.SameCoordinates,Original*%
%TF.FileFunction,Drillmap*%
%TF.FilePolarity,Positive*%
%FSLAX45Y45*%
G04 Gerber Fmt 4.5, Leading zero omitted, Abs format (unit mm)*
G04 Created by KiCad (PCBNEW 8.0.0) date 2024-11-20 19:59:16*
%MOMM*%
%LPD*%
G01*
G04 APERTURE LIST*
%ADD10C,0.050000*%
%ADD11C,0.200000*%
%ADD12C,0.100000*%
%ADD13C,0.175000*%
%ADD14C,0.304800*%
%ADD15C,0.398780*%
G04 APERTURE END LIST*
D10*
X18503900Y-12217400D02*
X18503900Y-12280900D01*
X18694400Y-12509500D02*
G75*
G02*
X18503900Y-12319000I0J190500D01*
G01*
X17246600Y-12509500D02*
X16256000Y-12509500D01*
X18694400Y-12509500D02*
X48260000Y-12509500D01*
X17437100Y-12217400D02*
G75*
G02*
X17627600Y-12026900I190500J0D01*
G01*
X16065500Y-12700000D02*
G75*
G02*
X16256000Y-12509500I190500J0D01*
G01*
X17437100Y-12280900D02*
X17437100Y-12319000D01*
X17437100Y-12217400D02*
X17437100Y-12280900D01*
X48450500Y-21844000D02*
G75*
G02*
X48260000Y-22034500I-190500J0D01*
G01*
X18503900Y-12280900D02*
X18503900Y-12319000D01*
X16065500Y-12700000D02*
X16065500Y-21844000D01*
X48260000Y-12509500D02*
G75*
G02*
X48450500Y-12700000I0J-190500D01*
G01*
X16256000Y-22034500D02*
G75*
G02*
X16065500Y-21844000I0J190500D01*
G01*
X48450500Y-12700000D02*
X48450500Y-21844000D01*
X17437100Y-12319000D02*
G75*
G02*
X17246600Y-12509500I-190500J0D01*
G01*
X18313400Y-12026900D02*
G75*
G02*
X18503900Y-12217400I0J-190500D01*
G01*
X16256000Y-22034500D02*
X48260000Y-22034500D01*
X17627600Y-12026900D02*
X18313400Y-12026900D01*
D11*
D12*
X17649000Y-12737000D02*
X17714000Y-12802000D01*
X17714000Y-12737000D02*
X17649000Y-12802000D01*
X18227000Y-12737000D02*
X18292000Y-12802000D01*
X18292000Y-12737000D02*
X18227000Y-12802000D01*
D13*
X20407500Y-13462000D02*
G75*
G02*
X20232500Y-13462000I-87500J0D01*
G01*
X20232500Y-13462000D02*
G75*
G02*
X20407500Y-13462000I87500J0D01*
G01*
X20645173Y-21082245D02*
G75*
G02*
X20470173Y-21082245I-87500J0D01*
G01*
X20470173Y-21082245D02*
G75*
G02*
X20645173Y-21082245I87500J0D01*
G01*
X20883767Y-15367000D02*
G75*
G02*
X20708767Y-15367000I-87500J0D01*
G01*
X20708767Y-15367000D02*
G75*
G02*
X20883767Y-15367000I87500J0D01*
G01*
X21121240Y-17272000D02*
G75*
G02*
X20946240Y-17272000I-87500J0D01*
G01*
X20946240Y-17272000D02*
G75*
G02*
X21121240Y-17272000I87500J0D01*
G01*
X21423500Y-13462000D02*
G75*
G02*
X21248500Y-13462000I-87500J0D01*
G01*
X21248500Y-13462000D02*
G75*
G02*
X21423500Y-13462000I87500J0D01*
G01*
X21596999Y-19177345D02*
G75*
G02*
X21421999Y-19177345I-87500J0D01*
G01*
X21421999Y-19177345D02*
G75*
G02*
X21596999Y-19177345I87500J0D01*
G01*
X21661173Y-21082245D02*
G75*
G02*
X21486173Y-21082245I-87500J0D01*
G01*
X21486173Y-21082245D02*
G75*
G02*
X21661173Y-21082245I87500J0D01*
G01*
X21899767Y-15367000D02*
G75*
G02*
X21724767Y-15367000I-87500J0D01*
G01*
X21724767Y-15367000D02*
G75*
G02*
X21899767Y-15367000I87500J0D01*
G01*
X22137240Y-17272000D02*
G75*
G02*
X21962240Y-17272000I-87500J0D01*
G01*
X21962240Y-17272000D02*
G75*
G02*
X22137240Y-17272000I87500J0D01*
G01*
X22312500Y-13462000D02*
G75*
G02*
X22137500Y-13462000I-87500J0D01*
G01*
X22137500Y-13462000D02*
G75*
G02*
X22312500Y-13462000I87500J0D01*
G01*
X22612999Y-19177345D02*
G75*
G02*
X22437999Y-19177345I-87500J0D01*
G01*
X22437999Y-19177345D02*
G75*
G02*
X22612999Y-19177345I87500J0D01*
G01*
X23026331Y-21082245D02*
G75*
G02*
X22851331Y-21082245I-87500J0D01*
G01*
X22851331Y-21082245D02*
G75*
G02*
X23026331Y-21082245I87500J0D01*
G01*
X23263747Y-15367000D02*
G75*
G02*
X23088747Y-15367000I-87500J0D01*
G01*
X23088747Y-15367000D02*
G75*
G02*
X23263747Y-15367000I87500J0D01*
G01*
X23328500Y-13462000D02*
G75*
G02*
X23153500Y-13462000I-87500J0D01*
G01*
X23153500Y-13462000D02*
G75*
G02*
X23328500Y-13462000I87500J0D01*
G01*
X23739809Y-17272259D02*
G75*
G02*
X23564809Y-17272259I-87500J0D01*
G01*
X23564809Y-17272259D02*
G75*
G02*
X23739809Y-17272259I87500J0D01*
G01*
X24042331Y-21082245D02*
G75*
G02*
X23867331Y-21082245I-87500J0D01*
G01*
X23867331Y-21082245D02*
G75*
G02*
X24042331Y-21082245I87500J0D01*
G01*
X24217500Y-13462000D02*
G75*
G02*
X24042500Y-13462000I-87500J0D01*
G01*
X24042500Y-13462000D02*
G75*
G02*
X24217500Y-13462000I87500J0D01*
G01*
X24279747Y-15367000D02*
G75*
G02*
X24104747Y-15367000I-87500J0D01*
G01*
X24104747Y-15367000D02*
G75*
G02*
X24279747Y-15367000I87500J0D01*
G01*
X24692624Y-19177345D02*
G75*
G02*
X24517624Y-19177345I-87500J0D01*
G01*
X24517624Y-19177345D02*
G75*
G02*
X24692624Y-19177345I87500J0D01*
G01*
X24755809Y-17272259D02*
G75*
G02*
X24580809Y-17272259I-87500J0D01*
G01*
X24580809Y-17272259D02*
G75*
G02*
X24755809Y-17272259I87500J0D01*
G01*
X25168747Y-15367000D02*
G75*
G02*
X24993747Y-15367000I-87500J0D01*
G01*
X24993747Y-15367000D02*
G75*
G02*
X25168747Y-15367000I87500J0D01*
G01*
X25233500Y-13462000D02*
G75*
G02*
X25058500Y-13462000I-87500J0D01*
G01*
X25058500Y-13462000D02*
G75*
G02*
X25233500Y-13462000I87500J0D01*
G01*
X25408029Y-21082245D02*
G75*
G02*
X25233029Y-21082245I-87500J0D01*
G01*
X25233029Y-21082245D02*
G75*
G02*
X25408029Y-21082245I87500J0D01*
G01*
X25644809Y-17272259D02*
G75*
G02*
X25469809Y-17272259I-87500J0D01*
G01*
X25469809Y-17272259D02*
G75*
G02*
X25644809Y-17272259I87500J0D01*
G01*
X25708624Y-19177345D02*
G75*
G02*
X25533624Y-19177345I-87500J0D01*
G01*
X25533624Y-19177345D02*
G75*
G02*
X25708624Y-19177345I87500J0D01*
G01*
X26122500Y-13462000D02*
G75*
G02*
X25947500Y-13462000I-87500J0D01*
G01*
X25947500Y-13462000D02*
G75*
G02*
X26122500Y-13462000I87500J0D01*
G01*
X26184747Y-15367000D02*
G75*
G02*
X26009747Y-15367000I-87500J0D01*
G01*
X26009747Y-15367000D02*
G75*
G02*
X26184747Y-15367000I87500J0D01*
G01*
X26424029Y-21082245D02*
G75*
G02*
X26249029Y-21082245I-87500J0D01*
G01*
X26249029Y-21082245D02*
G75*
G02*
X26424029Y-21082245I87500J0D01*
G01*
X26597624Y-19177345D02*
G75*
G02*
X26422624Y-19177345I-87500J0D01*
G01*
X26422624Y-19177345D02*
G75*
G02*
X26597624Y-19177345I87500J0D01*
G01*
X26660809Y-17272259D02*
G75*
G02*
X26485809Y-17272259I-87500J0D01*
G01*
X26485809Y-17272259D02*
G75*
G02*
X26660809Y-17272259I87500J0D01*
G01*
X27073747Y-15367000D02*
G75*
G02*
X26898747Y-15367000I-87500J0D01*
G01*
X26898747Y-15367000D02*
G75*
G02*
X27073747Y-15367000I87500J0D01*
G01*
X27138500Y-13462000D02*
G75*
G02*
X26963500Y-13462000I-87500J0D01*
G01*
X26963500Y-13462000D02*
G75*
G02*
X27138500Y-13462000I87500J0D01*
G01*
X27549809Y-17272259D02*
G75*
G02*
X27374809Y-17272259I-87500J0D01*
G01*
X27374809Y-17272259D02*
G75*
G02*
X27549809Y-17272259I87500J0D01*
G01*
X27613624Y-19177345D02*
G75*
G02*
X27438624Y-19177345I-87500J0D01*
G01*
X27438624Y-19177345D02*
G75*
G02*
X27613624Y-19177345I87500J0D01*
G01*
X28027500Y-13462000D02*
G75*
G02*
X27852500Y-13462000I-87500J0D01*
G01*
X27852500Y-13462000D02*
G75*
G02*
X28027500Y-13462000I87500J0D01*
G01*
X28089747Y-15367000D02*
G75*
G02*
X27914747Y-15367000I-87500J0D01*
G01*
X27914747Y-15367000D02*
G75*
G02*
X28089747Y-15367000I87500J0D01*
G01*
X28502624Y-19177345D02*
G75*
G02*
X28327624Y-19177345I-87500J0D01*
G01*
X28327624Y-19177345D02*
G75*
G02*
X28502624Y-19177345I87500J0D01*
G01*
X28565809Y-17272259D02*
G75*
G02*
X28390809Y-17272259I-87500J0D01*
G01*
X28390809Y-17272259D02*
G75*
G02*
X28565809Y-17272259I87500J0D01*
G01*
X28741331Y-21082245D02*
G75*
G02*
X28566331Y-21082245I-87500J0D01*
G01*
X28566331Y-21082245D02*
G75*
G02*
X28741331Y-21082245I87500J0D01*
G01*
X28978747Y-15367000D02*
G75*
G02*
X28803747Y-15367000I-87500J0D01*
G01*
X28803747Y-15367000D02*
G75*
G02*
X28978747Y-15367000I87500J0D01*
G01*
X29043500Y-13462000D02*
G75*
G02*
X28868500Y-13462000I-87500J0D01*
G01*
X28868500Y-13462000D02*
G75*
G02*
X29043500Y-13462000I87500J0D01*
G01*
X29454809Y-17272259D02*
G75*
G02*
X29279809Y-17272259I-87500J0D01*
G01*
X29279809Y-17272259D02*
G75*
G02*
X29454809Y-17272259I87500J0D01*
G01*
X29518624Y-19177345D02*
G75*
G02*
X29343624Y-19177345I-87500J0D01*
G01*
X29343624Y-19177345D02*
G75*
G02*
X29518624Y-19177345I87500J0D01*
G01*
X29757331Y-21082245D02*
G75*
G02*
X29582331Y-21082245I-87500J0D01*
G01*
X29582331Y-21082245D02*
G75*
G02*
X29757331Y-21082245I87500J0D01*
G01*
X29932500Y-13462000D02*
G75*
G02*
X29757500Y-13462000I-87500J0D01*
G01*
X29757500Y-13462000D02*
G75*
G02*
X29932500Y-13462000I87500J0D01*
G01*
X29994747Y-15367000D02*
G75*
G02*
X29819747Y-15367000I-87500J0D01*
G01*
X29819747Y-15367000D02*
G75*
G02*
X29994747Y-15367000I87500J0D01*
G01*
X30407624Y-19177345D02*
G75*
G02*
X30232624Y-19177345I-87500J0D01*
G01*
X30232624Y-19177345D02*
G75*
G02*
X30407624Y-19177345I87500J0D01*
G01*
X30470809Y-17272259D02*
G75*
G02*
X30295809Y-17272259I-87500J0D01*
G01*
X30295809Y-17272259D02*
G75*
G02*
X30470809Y-17272259I87500J0D01*
G01*
X30883747Y-15367000D02*
G75*
G02*
X30708747Y-15367000I-87500J0D01*
G01*
X30708747Y-15367000D02*
G75*
G02*
X30883747Y-15367000I87500J0D01*
G01*
X30948500Y-13462000D02*
G75*
G02*
X30773500Y-13462000I-87500J0D01*
G01*
X30773500Y-13462000D02*
G75*
G02*
X30948500Y-13462000I87500J0D01*
G01*
X31359809Y-17272259D02*
G75*
G02*
X31184809Y-17272259I-87500J0D01*
G01*
X31184809Y-17272259D02*
G75*
G02*
X31359809Y-17272259I87500J0D01*
G01*
X31423624Y-19177345D02*
G75*
G02*
X31248624Y-19177345I-87500J0D01*
G01*
X31248624Y-19177345D02*
G75*
G02*
X31423624Y-19177345I87500J0D01*
G01*
X31837500Y-13462000D02*
G75*
G02*
X31662500Y-13462000I-87500J0D01*
G01*
X31662500Y-13462000D02*
G75*
G02*
X31837500Y-13462000I87500J0D01*
G01*
X31899747Y-15367000D02*
G75*
G02*
X31724747Y-15367000I-87500J0D01*
G01*
X31724747Y-15367000D02*
G75*
G02*
X31899747Y-15367000I87500J0D01*
G01*
X32312624Y-19177345D02*
G75*
G02*
X32137624Y-19177345I-87500J0D01*
G01*
X32137624Y-19177345D02*
G75*
G02*
X32312624Y-19177345I87500J0D01*
G01*
X32375809Y-17272259D02*
G75*
G02*
X32200809Y-17272259I-87500J0D01*
G01*
X32200809Y-17272259D02*
G75*
G02*
X32375809Y-17272259I87500J0D01*
G01*
X32551331Y-21082245D02*
G75*
G02*
X32376331Y-21082245I-87500J0D01*
G01*
X32376331Y-21082245D02*
G75*
G02*
X32551331Y-21082245I87500J0D01*
G01*
X32788747Y-15367000D02*
G75*
G02*
X32613747Y-15367000I-87500J0D01*
G01*
X32613747Y-15367000D02*
G75*
G02*
X32788747Y-15367000I87500J0D01*
G01*
X32853500Y-13462000D02*
G75*
G02*
X32678500Y-13462000I-87500J0D01*
G01*
X32678500Y-13462000D02*
G75*
G02*
X32853500Y-13462000I87500J0D01*
G01*
X33264809Y-17272259D02*
G75*
G02*
X33089809Y-17272259I-87500J0D01*
G01*
X33089809Y-17272259D02*
G75*
G02*
X33264809Y-17272259I87500J0D01*
G01*
X33328624Y-19177345D02*
G75*
G02*
X33153624Y-19177345I-87500J0D01*
G01*
X33153624Y-19177345D02*
G75*
G02*
X33328624Y-19177345I87500J0D01*
G01*
X33567331Y-21082245D02*
G75*
G02*
X33392331Y-21082245I-87500J0D01*
G01*
X33392331Y-21082245D02*
G75*
G02*
X33567331Y-21082245I87500J0D01*
G01*
X33742500Y-13462000D02*
G75*
G02*
X33567500Y-13462000I-87500J0D01*
G01*
X33567500Y-13462000D02*
G75*
G02*
X33742500Y-13462000I87500J0D01*
G01*
X33804747Y-15367000D02*
G75*
G02*
X33629747Y-15367000I-87500J0D01*
G01*
X33629747Y-15367000D02*
G75*
G02*
X33804747Y-15367000I87500J0D01*
G01*
X34217624Y-19177345D02*
G75*
G02*
X34042624Y-19177345I-87500J0D01*
G01*
X34042624Y-19177345D02*
G75*
G02*
X34217624Y-19177345I87500J0D01*
G01*
X34280809Y-17272259D02*
G75*
G02*
X34105809Y-17272259I-87500J0D01*
G01*
X34105809Y-17272259D02*
G75*
G02*
X34280809Y-17272259I87500J0D01*
G01*
X34693747Y-15367000D02*
G75*
G02*
X34518747Y-15367000I-87500J0D01*
G01*
X34518747Y-15367000D02*
G75*
G02*
X34693747Y-15367000I87500J0D01*
G01*
X34758500Y-13462000D02*
G75*
G02*
X34583500Y-13462000I-87500J0D01*
G01*
X34583500Y-13462000D02*
G75*
G02*
X34758500Y-13462000I87500J0D01*
G01*
X35169809Y-17272259D02*
G75*
G02*
X34994809Y-17272259I-87500J0D01*
G01*
X34994809Y-17272259D02*
G75*
G02*
X35169809Y-17272259I87500J0D01*
G01*
X35233624Y-19177345D02*
G75*
G02*
X35058624Y-19177345I-87500J0D01*
G01*
X35058624Y-19177345D02*
G75*
G02*
X35233624Y-19177345I87500J0D01*
G01*
X35647500Y-13462000D02*
G75*
G02*
X35472500Y-13462000I-87500J0D01*
G01*
X35472500Y-13462000D02*
G75*
G02*
X35647500Y-13462000I87500J0D01*
G01*
X35709747Y-15367000D02*
G75*
G02*
X35534747Y-15367000I-87500J0D01*
G01*
X35534747Y-15367000D02*
G75*
G02*
X35709747Y-15367000I87500J0D01*
G01*
X36122624Y-19177345D02*
G75*
G02*
X35947624Y-19177345I-87500J0D01*
G01*
X35947624Y-19177345D02*
G75*
G02*
X36122624Y-19177345I87500J0D01*
G01*
X36185809Y-17272259D02*
G75*
G02*
X36010809Y-17272259I-87500J0D01*
G01*
X36010809Y-17272259D02*
G75*
G02*
X36185809Y-17272259I87500J0D01*
G01*
X36361331Y-21082245D02*
G75*
G02*
X36186331Y-21082245I-87500J0D01*
G01*
X36186331Y-21082245D02*
G75*
G02*
X36361331Y-21082245I87500J0D01*
G01*
X36598747Y-15367000D02*
G75*
G02*
X36423747Y-15367000I-87500J0D01*
G01*
X36423747Y-15367000D02*
G75*
G02*
X36598747Y-15367000I87500J0D01*
G01*
X36663500Y-13462000D02*
G75*
G02*
X36488500Y-13462000I-87500J0D01*
G01*
X36488500Y-13462000D02*
G75*
G02*
X36663500Y-13462000I87500J0D01*
G01*
X37074809Y-17272259D02*
G75*
G02*
X36899809Y-17272259I-87500J0D01*
G01*
X36899809Y-17272259D02*
G75*
G02*
X37074809Y-17272259I87500J0D01*
G01*
X37138624Y-19177345D02*
G75*
G02*
X36963624Y-19177345I-87500J0D01*
G01*
X36963624Y-19177345D02*
G75*
G02*
X37138624Y-19177345I87500J0D01*
G01*
X37377331Y-21082245D02*
G75*
G02*
X37202331Y-21082245I-87500J0D01*
G01*
X37202331Y-21082245D02*
G75*
G02*
X37377331Y-21082245I87500J0D01*
G01*
X37552500Y-13462000D02*
G75*
G02*
X37377500Y-13462000I-87500J0D01*
G01*
X37377500Y-13462000D02*
G75*
G02*
X37552500Y-13462000I87500J0D01*
G01*
X37614747Y-15367000D02*
G75*
G02*
X37439747Y-15367000I-87500J0D01*
G01*
X37439747Y-15367000D02*
G75*
G02*
X37614747Y-15367000I87500J0D01*
G01*
X38027624Y-19177345D02*
G75*
G02*
X37852624Y-19177345I-87500J0D01*
G01*
X37852624Y-19177345D02*
G75*
G02*
X38027624Y-19177345I87500J0D01*
G01*
X38090809Y-17272259D02*
G75*
G02*
X37915809Y-17272259I-87500J0D01*
G01*
X37915809Y-17272259D02*
G75*
G02*
X38090809Y-17272259I87500J0D01*
G01*
X38503747Y-15367000D02*
G75*
G02*
X38328747Y-15367000I-87500J0D01*
G01*
X38328747Y-15367000D02*
G75*
G02*
X38503747Y-15367000I87500J0D01*
G01*
X38568500Y-13462000D02*
G75*
G02*
X38393500Y-13462000I-87500J0D01*
G01*
X38393500Y-13462000D02*
G75*
G02*
X38568500Y-13462000I87500J0D01*
G01*
X38979809Y-17272259D02*
G75*
G02*
X38804809Y-17272259I-87500J0D01*
G01*
X38804809Y-17272259D02*
G75*
G02*
X38979809Y-17272259I87500J0D01*
G01*
X39043624Y-19177345D02*
G75*
G02*
X38868624Y-19177345I-87500J0D01*
G01*
X38868624Y-19177345D02*
G75*
G02*
X39043624Y-19177345I87500J0D01*
G01*
X39457500Y-13462000D02*
G75*
G02*
X39282500Y-13462000I-87500J0D01*
G01*
X39282500Y-13462000D02*
G75*
G02*
X39457500Y-13462000I87500J0D01*
G01*
X39457500Y-21082590D02*
G75*
G02*
X39282500Y-21082590I-87500J0D01*
G01*
X39282500Y-21082590D02*
G75*
G02*
X39457500Y-21082590I87500J0D01*
G01*
X39519747Y-15367000D02*
G75*
G02*
X39344747Y-15367000I-87500J0D01*
G01*
X39344747Y-15367000D02*
G75*
G02*
X39519747Y-15367000I87500J0D01*
G01*
X39932624Y-19177345D02*
G75*
G02*
X39757624Y-19177345I-87500J0D01*
G01*
X39757624Y-19177345D02*
G75*
G02*
X39932624Y-19177345I87500J0D01*
G01*
X39995809Y-17272259D02*
G75*
G02*
X39820809Y-17272259I-87500J0D01*
G01*
X39820809Y-17272259D02*
G75*
G02*
X39995809Y-17272259I87500J0D01*
G01*
X40408747Y-15367000D02*
G75*
G02*
X40233747Y-15367000I-87500J0D01*
G01*
X40233747Y-15367000D02*
G75*
G02*
X40408747Y-15367000I87500J0D01*
G01*
X40473500Y-13462000D02*
G75*
G02*
X40298500Y-13462000I-87500J0D01*
G01*
X40298500Y-13462000D02*
G75*
G02*
X40473500Y-13462000I87500J0D01*
G01*
X40473500Y-21082590D02*
G75*
G02*
X40298500Y-21082590I-87500J0D01*
G01*
X40298500Y-21082590D02*
G75*
G02*
X40473500Y-21082590I87500J0D01*
G01*
X40884809Y-17272259D02*
G75*
G02*
X40709809Y-17272259I-87500J0D01*
G01*
X40709809Y-17272259D02*
G75*
G02*
X40884809Y-17272259I87500J0D01*
G01*
X40948624Y-19177345D02*
G75*
G02*
X40773624Y-19177345I-87500J0D01*
G01*
X40773624Y-19177345D02*
G75*
G02*
X40948624Y-19177345I87500J0D01*
G01*
X41362500Y-13462000D02*
G75*
G02*
X41187500Y-13462000I-87500J0D01*
G01*
X41187500Y-13462000D02*
G75*
G02*
X41362500Y-13462000I87500J0D01*
G01*
X41362500Y-21082590D02*
G75*
G02*
X41187500Y-21082590I-87500J0D01*
G01*
X41187500Y-21082590D02*
G75*
G02*
X41362500Y-21082590I87500J0D01*
G01*
X41424747Y-15367000D02*
G75*
G02*
X41249747Y-15367000I-87500J0D01*
G01*
X41249747Y-15367000D02*
G75*
G02*
X41424747Y-15367000I87500J0D01*
G01*
X41900809Y-17272259D02*
G75*
G02*
X41725809Y-17272259I-87500J0D01*
G01*
X41725809Y-17272259D02*
G75*
G02*
X41900809Y-17272259I87500J0D01*
G01*
X42313747Y-15367000D02*
G75*
G02*
X42138747Y-15367000I-87500J0D01*
G01*
X42138747Y-15367000D02*
G75*
G02*
X42313747Y-15367000I87500J0D01*
G01*
X42378500Y-13462000D02*
G75*
G02*
X42203500Y-13462000I-87500J0D01*
G01*
X42203500Y-13462000D02*
G75*
G02*
X42378500Y-13462000I87500J0D01*
G01*
X42378500Y-21082590D02*
G75*
G02*
X42203500Y-21082590I-87500J0D01*
G01*
X42203500Y-21082590D02*
G75*
G02*
X42378500Y-21082590I87500J0D01*
G01*
X42551506Y-19177517D02*
G75*
G02*
X42376506Y-19177517I-87500J0D01*
G01*
X42376506Y-19177517D02*
G75*
G02*
X42551506Y-19177517I87500J0D01*
G01*
X42789809Y-17272259D02*
G75*
G02*
X42614809Y-17272259I-87500J0D01*
G01*
X42614809Y-17272259D02*
G75*
G02*
X42789809Y-17272259I87500J0D01*
G01*
X43267500Y-13462000D02*
G75*
G02*
X43092500Y-13462000I-87500J0D01*
G01*
X43092500Y-13462000D02*
G75*
G02*
X43267500Y-13462000I87500J0D01*
G01*
X43267500Y-21082590D02*
G75*
G02*
X43092500Y-21082590I-87500J0D01*
G01*
X43092500Y-21082590D02*
G75*
G02*
X43267500Y-21082590I87500J0D01*
G01*
X43329747Y-15367000D02*
G75*
G02*
X43154747Y-15367000I-87500J0D01*
G01*
X43154747Y-15367000D02*
G75*
G02*
X43329747Y-15367000I87500J0D01*
G01*
X43567506Y-19177517D02*
G75*
G02*
X43392506Y-19177517I-87500J0D01*
G01*
X43392506Y-19177517D02*
G75*
G02*
X43567506Y-19177517I87500J0D01*
G01*
X43805809Y-17272259D02*
G75*
G02*
X43630809Y-17272259I-87500J0D01*
G01*
X43630809Y-17272259D02*
G75*
G02*
X43805809Y-17272259I87500J0D01*
G01*
X44218747Y-15367000D02*
G75*
G02*
X44043747Y-15367000I-87500J0D01*
G01*
X44043747Y-15367000D02*
G75*
G02*
X44218747Y-15367000I87500J0D01*
G01*
X44283500Y-13462000D02*
G75*
G02*
X44108500Y-13462000I-87500J0D01*
G01*
X44108500Y-13462000D02*
G75*
G02*
X44283500Y-13462000I87500J0D01*
G01*
X44283500Y-21082590D02*
G75*
G02*
X44108500Y-21082590I-87500J0D01*
G01*
X44108500Y-21082590D02*
G75*
G02*
X44283500Y-21082590I87500J0D01*
G01*
X45172500Y-19177000D02*
G75*
G02*
X44997500Y-19177000I-87500J0D01*
G01*
X44997500Y-19177000D02*
G75*
G02*
X45172500Y-19177000I87500J0D01*
G01*
X45172500Y-21082590D02*
G75*
G02*
X44997500Y-21082590I-87500J0D01*
G01*
X44997500Y-21082590D02*
G75*
G02*
X45172500Y-21082590I87500J0D01*
G01*
X45234747Y-15367000D02*
G75*
G02*
X45059747Y-15367000I-87500J0D01*
G01*
X45059747Y-15367000D02*
G75*
G02*
X45234747Y-15367000I87500J0D01*
G01*
X45886069Y-17272259D02*
G75*
G02*
X45711069Y-17272259I-87500J0D01*
G01*
X45711069Y-17272259D02*
G75*
G02*
X45886069Y-17272259I87500J0D01*
G01*
X46125000Y-13462000D02*
G75*
G02*
X45950000Y-13462000I-87500J0D01*
G01*
X45950000Y-13462000D02*
G75*
G02*
X46125000Y-13462000I87500J0D01*
G01*
X46188500Y-19177000D02*
G75*
G02*
X46013500Y-19177000I-87500J0D01*
G01*
X46013500Y-19177000D02*
G75*
G02*
X46188500Y-19177000I87500J0D01*
G01*
X46188500Y-21082590D02*
G75*
G02*
X46013500Y-21082590I-87500J0D01*
G01*
X46013500Y-21082590D02*
G75*
G02*
X46188500Y-21082590I87500J0D01*
G01*
X46601315Y-15367607D02*
G75*
G02*
X46426315Y-15367607I-87500J0D01*
G01*
X46426315Y-15367607D02*
G75*
G02*
X46601315Y-15367607I87500J0D01*
G01*
X46902069Y-17272259D02*
G75*
G02*
X46727069Y-17272259I-87500J0D01*
G01*
X46727069Y-17272259D02*
G75*
G02*
X46902069Y-17272259I87500J0D01*
G01*
X47077500Y-19177000D02*
G75*
G02*
X46902500Y-19177000I-87500J0D01*
G01*
X46902500Y-19177000D02*
G75*
G02*
X47077500Y-19177000I87500J0D01*
G01*
X47077500Y-21082590D02*
G75*
G02*
X46902500Y-21082590I-87500J0D01*
G01*
X46902500Y-21082590D02*
G75*
G02*
X47077500Y-21082590I87500J0D01*
G01*
X47141000Y-13462000D02*
G75*
G02*
X46966000Y-13462000I-87500J0D01*
G01*
X46966000Y-13462000D02*
G75*
G02*
X47141000Y-13462000I87500J0D01*
G01*
X47617315Y-15367607D02*
G75*
G02*
X47442315Y-15367607I-87500J0D01*
G01*
X47442315Y-15367607D02*
G75*
G02*
X47617315Y-15367607I87500J0D01*
G01*
X48093500Y-19177000D02*
G75*
G02*
X47918500Y-19177000I-87500J0D01*
G01*
X47918500Y-19177000D02*
G75*
G02*
X48093500Y-19177000I87500J0D01*
G01*
X48093500Y-21082590D02*
G75*
G02*
X47918500Y-21082590I-87500J0D01*
G01*
X47918500Y-21082590D02*
G75*
G02*
X48093500Y-21082590I87500J0D01*
G01*
D14*
X20826874Y-18326445D02*
X20826874Y-18631245D01*
X20674474Y-18478845D02*
X20979274Y-18478845D01*
X23208124Y-18326445D02*
X23208124Y-18631245D01*
X23055724Y-18478845D02*
X23360524Y-18478845D01*
X27971206Y-21628345D02*
X27971206Y-21933145D01*
X27818806Y-21780745D02*
X28123606Y-21780745D01*
X30352456Y-21628345D02*
X30352456Y-21933145D01*
X30200056Y-21780745D02*
X30504856Y-21780745D01*
X35591206Y-21628345D02*
X35591206Y-21933145D01*
X35438806Y-21780745D02*
X35743606Y-21780745D01*
X37972456Y-21628345D02*
X37972456Y-21933145D01*
X37820056Y-21780745D02*
X38124856Y-21780745D01*
X45115944Y-16421359D02*
X45115944Y-16726159D01*
X44963544Y-16573759D02*
X45268344Y-16573759D01*
X45354875Y-12611100D02*
X45354875Y-12915900D01*
X45202475Y-12763500D02*
X45507275Y-12763500D01*
X47497194Y-16421359D02*
X47497194Y-16726159D01*
X47344794Y-16573759D02*
X47649594Y-16573759D01*
X47736125Y-12611100D02*
X47736125Y-12915900D01*
X47583725Y-12763500D02*
X47888525Y-12763500D01*
D15*
X20967866Y-20143836D02*
X20967866Y-19861854D01*
X20685883Y-19861854D01*
X20685883Y-20143836D01*
X20967866Y-20143836D01*
X20968991Y-13602991D02*
X20968991Y-13321009D01*
X20687009Y-13321009D01*
X20687009Y-13602991D01*
X20968991Y-13602991D01*
X21206664Y-21223236D02*
X21206664Y-20941254D01*
X20924682Y-20941254D01*
X20924682Y-21223236D01*
X21206664Y-21223236D01*
X21445259Y-15507991D02*
X21445259Y-15226009D01*
X21163276Y-15226009D01*
X21163276Y-15507991D01*
X21445259Y-15507991D01*
X21682731Y-17412991D02*
X21682731Y-17131009D01*
X21400749Y-17131009D01*
X21400749Y-17412991D01*
X21682731Y-17412991D01*
X22158491Y-19318336D02*
X22158491Y-19036354D01*
X21876508Y-19036354D01*
X21876508Y-19318336D01*
X22158491Y-19318336D01*
X22873991Y-13602991D02*
X22873991Y-13321009D01*
X22592009Y-13321009D01*
X22592009Y-13602991D01*
X22873991Y-13602991D01*
X23349116Y-20143836D02*
X23349116Y-19861854D01*
X23067133Y-19861854D01*
X23067133Y-20143836D01*
X23349116Y-20143836D01*
X23587822Y-21223236D02*
X23587822Y-20941254D01*
X23305840Y-20941254D01*
X23305840Y-21223236D01*
X23587822Y-21223236D01*
X23825238Y-15507991D02*
X23825238Y-15226009D01*
X23543256Y-15226009D01*
X23543256Y-15507991D01*
X23825238Y-15507991D01*
X24301300Y-17413250D02*
X24301300Y-17131267D01*
X24019317Y-17131267D01*
X24019317Y-17413250D01*
X24301300Y-17413250D01*
X24778991Y-13602991D02*
X24778991Y-13321009D01*
X24497009Y-13321009D01*
X24497009Y-13602991D01*
X24778991Y-13602991D01*
X25254116Y-19318336D02*
X25254116Y-19036354D01*
X24972133Y-19036354D01*
X24972133Y-19318336D01*
X25254116Y-19318336D01*
X25730238Y-15507991D02*
X25730238Y-15226009D01*
X25448256Y-15226009D01*
X25448256Y-15507991D01*
X25730238Y-15507991D01*
X25969520Y-21223236D02*
X25969520Y-20941254D01*
X25687538Y-20941254D01*
X25687538Y-21223236D01*
X25969520Y-21223236D01*
X26206300Y-17413250D02*
X26206300Y-17131267D01*
X25924317Y-17131267D01*
X25924317Y-17413250D01*
X26206300Y-17413250D01*
X26683991Y-13602991D02*
X26683991Y-13321009D01*
X26402009Y-13321009D01*
X26402009Y-13602991D01*
X26683991Y-13602991D01*
X27159116Y-19318336D02*
X27159116Y-19036354D01*
X26877133Y-19036354D01*
X26877133Y-19318336D01*
X27159116Y-19318336D01*
X27635238Y-15507991D02*
X27635238Y-15226009D01*
X27353256Y-15226009D01*
X27353256Y-15507991D01*
X27635238Y-15507991D01*
X28111300Y-17413250D02*
X28111300Y-17131267D01*
X27829317Y-17131267D01*
X27829317Y-17413250D01*
X28111300Y-17413250D01*
X28112197Y-20397736D02*
X28112197Y-20115754D01*
X27830215Y-20115754D01*
X27830215Y-20397736D01*
X28112197Y-20397736D01*
X28588991Y-13602991D02*
X28588991Y-13321009D01*
X28307009Y-13321009D01*
X28307009Y-13602991D01*
X28588991Y-13602991D01*
X29064116Y-19318336D02*
X29064116Y-19036354D01*
X28782133Y-19036354D01*
X28782133Y-19318336D01*
X29064116Y-19318336D01*
X29302822Y-21223236D02*
X29302822Y-20941254D01*
X29020840Y-20941254D01*
X29020840Y-21223236D01*
X29302822Y-21223236D01*
X29540238Y-15507991D02*
X29540238Y-15226009D01*
X29258256Y-15226009D01*
X29258256Y-15507991D01*
X29540238Y-15507991D01*
X30016300Y-17413250D02*
X30016300Y-17131267D01*
X29734317Y-17131267D01*
X29734317Y-17413250D01*
X30016300Y-17413250D01*
X30493448Y-20397736D02*
X30493448Y-20115754D01*
X30211465Y-20115754D01*
X30211465Y-20397736D01*
X30493448Y-20397736D01*
X30493991Y-13602991D02*
X30493991Y-13321009D01*
X30212009Y-13321009D01*
X30212009Y-13602991D01*
X30493991Y-13602991D01*
X30969116Y-19318336D02*
X30969116Y-19036354D01*
X30687133Y-19036354D01*
X30687133Y-19318336D01*
X30969116Y-19318336D01*
X31445238Y-15507991D02*
X31445238Y-15226009D01*
X31163256Y-15226009D01*
X31163256Y-15507991D01*
X31445238Y-15507991D01*
X31921300Y-17413250D02*
X31921300Y-17131267D01*
X31639317Y-17131267D01*
X31639317Y-17413250D01*
X31921300Y-17413250D01*
X32398991Y-13602991D02*
X32398991Y-13321009D01*
X32117009Y-13321009D01*
X32117009Y-13602991D01*
X32398991Y-13602991D01*
X32874116Y-19318336D02*
X32874116Y-19036354D01*
X32592133Y-19036354D01*
X32592133Y-19318336D01*
X32874116Y-19318336D01*
X33112822Y-21223236D02*
X33112822Y-20941254D01*
X32830840Y-20941254D01*
X32830840Y-21223236D01*
X33112822Y-21223236D01*
X33350238Y-15507991D02*
X33350238Y-15226009D01*
X33068256Y-15226009D01*
X33068256Y-15507991D01*
X33350238Y-15507991D01*
X33826300Y-17413250D02*
X33826300Y-17131267D01*
X33544317Y-17131267D01*
X33544317Y-17413250D01*
X33826300Y-17413250D01*
X34303991Y-13602991D02*
X34303991Y-13321009D01*
X34022009Y-13321009D01*
X34022009Y-13602991D01*
X34303991Y-13602991D01*
X34779116Y-19318336D02*
X34779116Y-19036354D01*
X34497133Y-19036354D01*
X34497133Y-19318336D01*
X34779116Y-19318336D01*
X35255239Y-15507991D02*
X35255239Y-15226009D01*
X34973256Y-15226009D01*
X34973256Y-15507991D01*
X35255239Y-15507991D01*
X35731300Y-17413250D02*
X35731300Y-17131267D01*
X35449317Y-17131267D01*
X35449317Y-17413250D01*
X35731300Y-17413250D01*
X35732197Y-20397736D02*
X35732197Y-20115754D01*
X35450215Y-20115754D01*
X35450215Y-20397736D01*
X35732197Y-20397736D01*
X36208991Y-13602991D02*
X36208991Y-13321009D01*
X35927009Y-13321009D01*
X35927009Y-13602991D01*
X36208991Y-13602991D01*
X36684116Y-19318336D02*
X36684116Y-19036354D01*
X36402133Y-19036354D01*
X36402133Y-19318336D01*
X36684116Y-19318336D01*
X36922823Y-21223236D02*
X36922823Y-20941254D01*
X36640840Y-20941254D01*
X36640840Y-21223236D01*
X36922823Y-21223236D01*
X37160239Y-15507991D02*
X37160239Y-15226009D01*
X36878256Y-15226009D01*
X36878256Y-15507991D01*
X37160239Y-15507991D01*
X37636300Y-17413250D02*
X37636300Y-17131267D01*
X37354317Y-17131267D01*
X37354317Y-17413250D01*
X37636300Y-17413250D01*
X38113448Y-20397736D02*
X38113448Y-20115754D01*
X37831465Y-20115754D01*
X37831465Y-20397736D01*
X38113448Y-20397736D01*
X38113991Y-13602991D02*
X38113991Y-13321009D01*
X37832009Y-13321009D01*
X37832009Y-13602991D01*
X38113991Y-13602991D01*
X38589116Y-19318336D02*
X38589116Y-19036354D01*
X38307133Y-19036354D01*
X38307133Y-19318336D01*
X38589116Y-19318336D01*
X39065239Y-15507991D02*
X39065239Y-15226009D01*
X38783256Y-15226009D01*
X38783256Y-15507991D01*
X39065239Y-15507991D01*
X39541300Y-17413250D02*
X39541300Y-17131267D01*
X39259317Y-17131267D01*
X39259317Y-17413250D01*
X39541300Y-17413250D01*
X40018991Y-13602991D02*
X40018991Y-13321009D01*
X39737009Y-13321009D01*
X39737009Y-13602991D01*
X40018991Y-13602991D01*
X40018991Y-21223581D02*
X40018991Y-20941598D01*
X39737009Y-20941598D01*
X39737009Y-21223581D01*
X40018991Y-21223581D01*
X40494116Y-19318336D02*
X40494116Y-19036354D01*
X40212133Y-19036354D01*
X40212133Y-19318336D01*
X40494116Y-19318336D01*
X40970239Y-15507991D02*
X40970239Y-15226009D01*
X40688256Y-15226009D01*
X40688256Y-15507991D01*
X40970239Y-15507991D01*
X41446300Y-17413250D02*
X41446300Y-17131267D01*
X41164317Y-17131267D01*
X41164317Y-17413250D01*
X41446300Y-17413250D01*
X41923991Y-13602991D02*
X41923991Y-13321009D01*
X41642009Y-13321009D01*
X41642009Y-13602991D01*
X41923991Y-13602991D01*
X41923991Y-21223581D02*
X41923991Y-20941598D01*
X41642009Y-20941598D01*
X41642009Y-21223581D01*
X41923991Y-21223581D01*
X42875239Y-15507991D02*
X42875239Y-15226009D01*
X42593256Y-15226009D01*
X42593256Y-15507991D01*
X42875239Y-15507991D01*
X43112997Y-19318509D02*
X43112997Y-19036526D01*
X42831014Y-19036526D01*
X42831014Y-19318509D01*
X43112997Y-19318509D01*
X43351300Y-17413250D02*
X43351300Y-17131267D01*
X43069317Y-17131267D01*
X43069317Y-17413250D01*
X43351300Y-17413250D01*
X43828991Y-13602991D02*
X43828991Y-13321009D01*
X43547009Y-13321009D01*
X43547009Y-13602991D01*
X43828991Y-13602991D01*
X43828991Y-21223581D02*
X43828991Y-20941598D01*
X43547009Y-20941598D01*
X43547009Y-21223581D01*
X43828991Y-21223581D01*
X44780238Y-15507991D02*
X44780238Y-15226009D01*
X44498256Y-15226009D01*
X44498256Y-15507991D01*
X44780238Y-15507991D01*
X45256935Y-18238750D02*
X45256935Y-17956767D01*
X44974952Y-17956767D01*
X44974952Y-18238750D01*
X45256935Y-18238750D01*
X45495866Y-14428491D02*
X45495866Y-14146509D01*
X45213884Y-14146509D01*
X45213884Y-14428491D01*
X45495866Y-14428491D01*
X45733991Y-19317991D02*
X45733991Y-19036009D01*
X45452009Y-19036009D01*
X45452009Y-19317991D01*
X45733991Y-19317991D01*
X45733991Y-21223581D02*
X45733991Y-20941598D01*
X45452009Y-20941598D01*
X45452009Y-21223581D01*
X45733991Y-21223581D01*
X46447560Y-17413250D02*
X46447560Y-17131267D01*
X46165577Y-17131267D01*
X46165577Y-17413250D01*
X46447560Y-17413250D01*
X46686491Y-13602991D02*
X46686491Y-13321009D01*
X46404509Y-13321009D01*
X46404509Y-13602991D01*
X46686491Y-13602991D01*
X47162806Y-15508598D02*
X47162806Y-15226616D01*
X46880823Y-15226616D01*
X46880823Y-15508598D01*
X47162806Y-15508598D01*
X47638185Y-18238750D02*
X47638185Y-17956767D01*
X47356202Y-17956767D01*
X47356202Y-18238750D01*
X47638185Y-18238750D01*
X47638991Y-19317991D02*
X47638991Y-19036009D01*
X47357009Y-19036009D01*
X47357009Y-19317991D01*
X47638991Y-19317991D01*
X47638991Y-21223581D02*
X47638991Y-20941598D01*
X47357009Y-20941598D01*
X47357009Y-21223581D01*
X47638991Y-21223581D01*
X47877116Y-14428491D02*
X47877116Y-14146509D01*
X47595134Y-14146509D01*
X47595134Y-14428491D01*
X47877116Y-14428491D01*
D11*
X16323777Y-22348484D02*
X16323777Y-22148484D01*
X16323777Y-22148484D02*
X16371396Y-22148484D01*
X16371396Y-22148484D02*
X16399967Y-22158008D01*
X16399967Y-22158008D02*
X16419015Y-22177055D01*
X16419015Y-22177055D02*
X16428539Y-22196103D01*
X16428539Y-22196103D02*
X16438062Y-22234198D01*
X16438062Y-22234198D02*
X16438062Y-22262770D01*
X16438062Y-22262770D02*
X16428539Y-22300865D01*
X16428539Y-22300865D02*
X16419015Y-22319913D01*
X16419015Y-22319913D02*
X16399967Y-22338960D01*
X16399967Y-22338960D02*
X16371396Y-22348484D01*
X16371396Y-22348484D02*
X16323777Y-22348484D01*
X16523777Y-22348484D02*
X16523777Y-22215151D01*
X16523777Y-22253246D02*
X16533300Y-22234198D01*
X16533300Y-22234198D02*
X16542824Y-22224674D01*
X16542824Y-22224674D02*
X16561872Y-22215151D01*
X16561872Y-22215151D02*
X16580920Y-22215151D01*
X16647586Y-22348484D02*
X16647586Y-22215151D01*
X16647586Y-22148484D02*
X16638062Y-22158008D01*
X16638062Y-22158008D02*
X16647586Y-22167532D01*
X16647586Y-22167532D02*
X16657110Y-22158008D01*
X16657110Y-22158008D02*
X16647586Y-22148484D01*
X16647586Y-22148484D02*
X16647586Y-22167532D01*
X16771396Y-22348484D02*
X16752348Y-22338960D01*
X16752348Y-22338960D02*
X16742824Y-22319913D01*
X16742824Y-22319913D02*
X16742824Y-22148484D01*
X16876158Y-22348484D02*
X16857110Y-22338960D01*
X16857110Y-22338960D02*
X16847586Y-22319913D01*
X16847586Y-22319913D02*
X16847586Y-22148484D01*
X17104729Y-22348484D02*
X17104729Y-22148484D01*
X17104729Y-22148484D02*
X17171396Y-22291341D01*
X17171396Y-22291341D02*
X17238062Y-22148484D01*
X17238062Y-22148484D02*
X17238062Y-22348484D01*
X17419015Y-22348484D02*
X17419015Y-22243722D01*
X17419015Y-22243722D02*
X17409491Y-22224674D01*
X17409491Y-22224674D02*
X17390443Y-22215151D01*
X17390443Y-22215151D02*
X17352348Y-22215151D01*
X17352348Y-22215151D02*
X17333301Y-22224674D01*
X17419015Y-22338960D02*
X17399967Y-22348484D01*
X17399967Y-22348484D02*
X17352348Y-22348484D01*
X17352348Y-22348484D02*
X17333301Y-22338960D01*
X17333301Y-22338960D02*
X17323777Y-22319913D01*
X17323777Y-22319913D02*
X17323777Y-22300865D01*
X17323777Y-22300865D02*
X17333301Y-22281817D01*
X17333301Y-22281817D02*
X17352348Y-22272294D01*
X17352348Y-22272294D02*
X17399967Y-22272294D01*
X17399967Y-22272294D02*
X17419015Y-22262770D01*
X17514253Y-22215151D02*
X17514253Y-22415151D01*
X17514253Y-22224674D02*
X17533301Y-22215151D01*
X17533301Y-22215151D02*
X17571396Y-22215151D01*
X17571396Y-22215151D02*
X17590443Y-22224674D01*
X17590443Y-22224674D02*
X17599967Y-22234198D01*
X17599967Y-22234198D02*
X17609491Y-22253246D01*
X17609491Y-22253246D02*
X17609491Y-22310389D01*
X17609491Y-22310389D02*
X17599967Y-22329436D01*
X17599967Y-22329436D02*
X17590443Y-22338960D01*
X17590443Y-22338960D02*
X17571396Y-22348484D01*
X17571396Y-22348484D02*
X17533301Y-22348484D01*
X17533301Y-22348484D02*
X17514253Y-22338960D01*
X17695205Y-22329436D02*
X17704729Y-22338960D01*
X17704729Y-22338960D02*
X17695205Y-22348484D01*
X17695205Y-22348484D02*
X17685682Y-22338960D01*
X17685682Y-22338960D02*
X17695205Y-22329436D01*
X17695205Y-22329436D02*
X17695205Y-22348484D01*
X17695205Y-22224674D02*
X17704729Y-22234198D01*
X17704729Y-22234198D02*
X17695205Y-22243722D01*
X17695205Y-22243722D02*
X17685682Y-22234198D01*
X17685682Y-22234198D02*
X17695205Y-22224674D01*
X17695205Y-22224674D02*
X17695205Y-22243722D01*
D12*
X15998000Y-22644500D02*
X16063000Y-22709500D01*
X16063000Y-22644500D02*
X15998000Y-22709500D01*
D11*
X16361872Y-22568484D02*
X16380920Y-22568484D01*
X16380920Y-22568484D02*
X16399967Y-22578008D01*
X16399967Y-22578008D02*
X16409491Y-22587532D01*
X16409491Y-22587532D02*
X16419015Y-22606579D01*
X16419015Y-22606579D02*
X16428539Y-22644674D01*
X16428539Y-22644674D02*
X16428539Y-22692293D01*
X16428539Y-22692293D02*
X16419015Y-22730389D01*
X16419015Y-22730389D02*
X16409491Y-22749436D01*
X16409491Y-22749436D02*
X16399967Y-22758960D01*
X16399967Y-22758960D02*
X16380920Y-22768484D01*
X16380920Y-22768484D02*
X16361872Y-22768484D01*
X16361872Y-22768484D02*
X16342824Y-22758960D01*
X16342824Y-22758960D02*
X16333300Y-22749436D01*
X16333300Y-22749436D02*
X16323777Y-22730389D01*
X16323777Y-22730389D02*
X16314253Y-22692293D01*
X16314253Y-22692293D02*
X16314253Y-22644674D01*
X16314253Y-22644674D02*
X16323777Y-22606579D01*
X16323777Y-22606579D02*
X16333300Y-22587532D01*
X16333300Y-22587532D02*
X16342824Y-22578008D01*
X16342824Y-22578008D02*
X16361872Y-22568484D01*
X16514253Y-22749436D02*
X16523777Y-22758960D01*
X16523777Y-22758960D02*
X16514253Y-22768484D01*
X16514253Y-22768484D02*
X16504729Y-22758960D01*
X16504729Y-22758960D02*
X16514253Y-22749436D01*
X16514253Y-22749436D02*
X16514253Y-22768484D01*
X16695205Y-22568484D02*
X16657110Y-22568484D01*
X16657110Y-22568484D02*
X16638062Y-22578008D01*
X16638062Y-22578008D02*
X16628539Y-22587532D01*
X16628539Y-22587532D02*
X16609491Y-22616103D01*
X16609491Y-22616103D02*
X16599967Y-22654198D01*
X16599967Y-22654198D02*
X16599967Y-22730389D01*
X16599967Y-22730389D02*
X16609491Y-22749436D01*
X16609491Y-22749436D02*
X16619015Y-22758960D01*
X16619015Y-22758960D02*
X16638062Y-22768484D01*
X16638062Y-22768484D02*
X16676158Y-22768484D01*
X16676158Y-22768484D02*
X16695205Y-22758960D01*
X16695205Y-22758960D02*
X16704729Y-22749436D01*
X16704729Y-22749436D02*
X16714253Y-22730389D01*
X16714253Y-22730389D02*
X16714253Y-22682770D01*
X16714253Y-22682770D02*
X16704729Y-22663722D01*
X16704729Y-22663722D02*
X16695205Y-22654198D01*
X16695205Y-22654198D02*
X16676158Y-22644674D01*
X16676158Y-22644674D02*
X16638062Y-22644674D01*
X16638062Y-22644674D02*
X16619015Y-22654198D01*
X16619015Y-22654198D02*
X16609491Y-22663722D01*
X16609491Y-22663722D02*
X16599967Y-22682770D01*
X16895205Y-22568484D02*
X16799967Y-22568484D01*
X16799967Y-22568484D02*
X16790443Y-22663722D01*
X16790443Y-22663722D02*
X16799967Y-22654198D01*
X16799967Y-22654198D02*
X16819015Y-22644674D01*
X16819015Y-22644674D02*
X16866634Y-22644674D01*
X16866634Y-22644674D02*
X16885682Y-22654198D01*
X16885682Y-22654198D02*
X16895205Y-22663722D01*
X16895205Y-22663722D02*
X16904729Y-22682770D01*
X16904729Y-22682770D02*
X16904729Y-22730389D01*
X16904729Y-22730389D02*
X16895205Y-22749436D01*
X16895205Y-22749436D02*
X16885682Y-22758960D01*
X16885682Y-22758960D02*
X16866634Y-22768484D01*
X16866634Y-22768484D02*
X16819015Y-22768484D01*
X16819015Y-22768484D02*
X16799967Y-22758960D01*
X16799967Y-22758960D02*
X16790443Y-22749436D01*
X17028539Y-22568484D02*
X17047586Y-22568484D01*
X17047586Y-22568484D02*
X17066634Y-22578008D01*
X17066634Y-22578008D02*
X17076158Y-22587532D01*
X17076158Y-22587532D02*
X17085682Y-22606579D01*
X17085682Y-22606579D02*
X17095205Y-22644674D01*
X17095205Y-22644674D02*
X17095205Y-22692293D01*
X17095205Y-22692293D02*
X17085682Y-22730389D01*
X17085682Y-22730389D02*
X17076158Y-22749436D01*
X17076158Y-22749436D02*
X17066634Y-22758960D01*
X17066634Y-22758960D02*
X17047586Y-22768484D01*
X17047586Y-22768484D02*
X17028539Y-22768484D01*
X17028539Y-22768484D02*
X17009491Y-22758960D01*
X17009491Y-22758960D02*
X16999967Y-22749436D01*
X16999967Y-22749436D02*
X16990443Y-22730389D01*
X16990443Y-22730389D02*
X16980920Y-22692293D01*
X16980920Y-22692293D02*
X16980920Y-22644674D01*
X16980920Y-22644674D02*
X16990443Y-22606579D01*
X16990443Y-22606579D02*
X16999967Y-22587532D01*
X16999967Y-22587532D02*
X17009491Y-22578008D01*
X17009491Y-22578008D02*
X17028539Y-22568484D01*
X17180920Y-22768484D02*
X17180920Y-22635151D01*
X17180920Y-22654198D02*
X17190443Y-22644674D01*
X17190443Y-22644674D02*
X17209491Y-22635151D01*
X17209491Y-22635151D02*
X17238063Y-22635151D01*
X17238063Y-22635151D02*
X17257110Y-22644674D01*
X17257110Y-22644674D02*
X17266634Y-22663722D01*
X17266634Y-22663722D02*
X17266634Y-22768484D01*
X17266634Y-22663722D02*
X17276158Y-22644674D01*
X17276158Y-22644674D02*
X17295205Y-22635151D01*
X17295205Y-22635151D02*
X17323777Y-22635151D01*
X17323777Y-22635151D02*
X17342824Y-22644674D01*
X17342824Y-22644674D02*
X17352348Y-22663722D01*
X17352348Y-22663722D02*
X17352348Y-22768484D01*
X17447586Y-22768484D02*
X17447586Y-22635151D01*
X17447586Y-22654198D02*
X17457110Y-22644674D01*
X17457110Y-22644674D02*
X17476158Y-22635151D01*
X17476158Y-22635151D02*
X17504729Y-22635151D01*
X17504729Y-22635151D02*
X17523777Y-22644674D01*
X17523777Y-22644674D02*
X17533301Y-22663722D01*
X17533301Y-22663722D02*
X17533301Y-22768484D01*
X17533301Y-22663722D02*
X17542824Y-22644674D01*
X17542824Y-22644674D02*
X17561872Y-22635151D01*
X17561872Y-22635151D02*
X17590443Y-22635151D01*
X17590443Y-22635151D02*
X17609491Y-22644674D01*
X17609491Y-22644674D02*
X17619015Y-22663722D01*
X17619015Y-22663722D02*
X17619015Y-22768484D01*
X18009491Y-22558960D02*
X17838063Y-22816103D01*
X18266634Y-22568484D02*
X18285682Y-22568484D01*
X18285682Y-22568484D02*
X18304729Y-22578008D01*
X18304729Y-22578008D02*
X18314253Y-22587532D01*
X18314253Y-22587532D02*
X18323777Y-22606579D01*
X18323777Y-22606579D02*
X18333301Y-22644674D01*
X18333301Y-22644674D02*
X18333301Y-22692293D01*
X18333301Y-22692293D02*
X18323777Y-22730389D01*
X18323777Y-22730389D02*
X18314253Y-22749436D01*
X18314253Y-22749436D02*
X18304729Y-22758960D01*
X18304729Y-22758960D02*
X18285682Y-22768484D01*
X18285682Y-22768484D02*
X18266634Y-22768484D01*
X18266634Y-22768484D02*
X18247586Y-22758960D01*
X18247586Y-22758960D02*
X18238063Y-22749436D01*
X18238063Y-22749436D02*
X18228539Y-22730389D01*
X18228539Y-22730389D02*
X18219015Y-22692293D01*
X18219015Y-22692293D02*
X18219015Y-22644674D01*
X18219015Y-22644674D02*
X18228539Y-22606579D01*
X18228539Y-22606579D02*
X18238063Y-22587532D01*
X18238063Y-22587532D02*
X18247586Y-22578008D01*
X18247586Y-22578008D02*
X18266634Y-22568484D01*
X18419015Y-22749436D02*
X18428539Y-22758960D01*
X18428539Y-22758960D02*
X18419015Y-22768484D01*
X18419015Y-22768484D02*
X18409491Y-22758960D01*
X18409491Y-22758960D02*
X18419015Y-22749436D01*
X18419015Y-22749436D02*
X18419015Y-22768484D01*
X18552348Y-22568484D02*
X18571396Y-22568484D01*
X18571396Y-22568484D02*
X18590444Y-22578008D01*
X18590444Y-22578008D02*
X18599967Y-22587532D01*
X18599967Y-22587532D02*
X18609491Y-22606579D01*
X18609491Y-22606579D02*
X18619015Y-22644674D01*
X18619015Y-22644674D02*
X18619015Y-22692293D01*
X18619015Y-22692293D02*
X18609491Y-22730389D01*
X18609491Y-22730389D02*
X18599967Y-22749436D01*
X18599967Y-22749436D02*
X18590444Y-22758960D01*
X18590444Y-22758960D02*
X18571396Y-22768484D01*
X18571396Y-22768484D02*
X18552348Y-22768484D01*
X18552348Y-22768484D02*
X18533301Y-22758960D01*
X18533301Y-22758960D02*
X18523777Y-22749436D01*
X18523777Y-22749436D02*
X18514253Y-22730389D01*
X18514253Y-22730389D02*
X18504729Y-22692293D01*
X18504729Y-22692293D02*
X18504729Y-22644674D01*
X18504729Y-22644674D02*
X18514253Y-22606579D01*
X18514253Y-22606579D02*
X18523777Y-22587532D01*
X18523777Y-22587532D02*
X18533301Y-22578008D01*
X18533301Y-22578008D02*
X18552348Y-22568484D01*
X18695206Y-22587532D02*
X18704729Y-22578008D01*
X18704729Y-22578008D02*
X18723777Y-22568484D01*
X18723777Y-22568484D02*
X18771396Y-22568484D01*
X18771396Y-22568484D02*
X18790444Y-22578008D01*
X18790444Y-22578008D02*
X18799967Y-22587532D01*
X18799967Y-22587532D02*
X18809491Y-22606579D01*
X18809491Y-22606579D02*
X18809491Y-22625627D01*
X18809491Y-22625627D02*
X18799967Y-22654198D01*
X18799967Y-22654198D02*
X18685682Y-22768484D01*
X18685682Y-22768484D02*
X18809491Y-22768484D01*
X18990444Y-22568484D02*
X18895206Y-22568484D01*
X18895206Y-22568484D02*
X18885682Y-22663722D01*
X18885682Y-22663722D02*
X18895206Y-22654198D01*
X18895206Y-22654198D02*
X18914253Y-22644674D01*
X18914253Y-22644674D02*
X18961872Y-22644674D01*
X18961872Y-22644674D02*
X18980920Y-22654198D01*
X18980920Y-22654198D02*
X18990444Y-22663722D01*
X18990444Y-22663722D02*
X18999967Y-22682770D01*
X18999967Y-22682770D02*
X18999967Y-22730389D01*
X18999967Y-22730389D02*
X18990444Y-22749436D01*
X18990444Y-22749436D02*
X18980920Y-22758960D01*
X18980920Y-22758960D02*
X18961872Y-22768484D01*
X18961872Y-22768484D02*
X18914253Y-22768484D01*
X18914253Y-22768484D02*
X18895206Y-22758960D01*
X18895206Y-22758960D02*
X18885682Y-22749436D01*
X19171396Y-22568484D02*
X19133301Y-22568484D01*
X19133301Y-22568484D02*
X19114253Y-22578008D01*
X19114253Y-22578008D02*
X19104729Y-22587532D01*
X19104729Y-22587532D02*
X19085682Y-22616103D01*
X19085682Y-22616103D02*
X19076158Y-22654198D01*
X19076158Y-22654198D02*
X19076158Y-22730389D01*
X19076158Y-22730389D02*
X19085682Y-22749436D01*
X19085682Y-22749436D02*
X19095206Y-22758960D01*
X19095206Y-22758960D02*
X19114253Y-22768484D01*
X19114253Y-22768484D02*
X19152348Y-22768484D01*
X19152348Y-22768484D02*
X19171396Y-22758960D01*
X19171396Y-22758960D02*
X19180920Y-22749436D01*
X19180920Y-22749436D02*
X19190444Y-22730389D01*
X19190444Y-22730389D02*
X19190444Y-22682770D01*
X19190444Y-22682770D02*
X19180920Y-22663722D01*
X19180920Y-22663722D02*
X19171396Y-22654198D01*
X19171396Y-22654198D02*
X19152348Y-22644674D01*
X19152348Y-22644674D02*
X19114253Y-22644674D01*
X19114253Y-22644674D02*
X19095206Y-22654198D01*
X19095206Y-22654198D02*
X19085682Y-22663722D01*
X19085682Y-22663722D02*
X19076158Y-22682770D01*
X19266634Y-22568484D02*
X19266634Y-22606579D01*
X19342825Y-22568484D02*
X19342825Y-22606579D01*
X19638063Y-22844674D02*
X19628539Y-22835151D01*
X19628539Y-22835151D02*
X19609491Y-22806579D01*
X19609491Y-22806579D02*
X19599968Y-22787532D01*
X19599968Y-22787532D02*
X19590444Y-22758960D01*
X19590444Y-22758960D02*
X19580920Y-22711341D01*
X19580920Y-22711341D02*
X19580920Y-22673246D01*
X19580920Y-22673246D02*
X19590444Y-22625627D01*
X19590444Y-22625627D02*
X19599968Y-22597055D01*
X19599968Y-22597055D02*
X19609491Y-22578008D01*
X19609491Y-22578008D02*
X19628539Y-22549436D01*
X19628539Y-22549436D02*
X19638063Y-22539912D01*
X19704729Y-22587532D02*
X19714253Y-22578008D01*
X19714253Y-22578008D02*
X19733301Y-22568484D01*
X19733301Y-22568484D02*
X19780920Y-22568484D01*
X19780920Y-22568484D02*
X19799968Y-22578008D01*
X19799968Y-22578008D02*
X19809491Y-22587532D01*
X19809491Y-22587532D02*
X19819015Y-22606579D01*
X19819015Y-22606579D02*
X19819015Y-22625627D01*
X19819015Y-22625627D02*
X19809491Y-22654198D01*
X19809491Y-22654198D02*
X19695206Y-22768484D01*
X19695206Y-22768484D02*
X19819015Y-22768484D01*
X20057110Y-22768484D02*
X20057110Y-22568484D01*
X20142825Y-22768484D02*
X20142825Y-22663722D01*
X20142825Y-22663722D02*
X20133301Y-22644674D01*
X20133301Y-22644674D02*
X20114253Y-22635151D01*
X20114253Y-22635151D02*
X20085682Y-22635151D01*
X20085682Y-22635151D02*
X20066634Y-22644674D01*
X20066634Y-22644674D02*
X20057110Y-22654198D01*
X20266634Y-22768484D02*
X20247587Y-22758960D01*
X20247587Y-22758960D02*
X20238063Y-22749436D01*
X20238063Y-22749436D02*
X20228539Y-22730389D01*
X20228539Y-22730389D02*
X20228539Y-22673246D01*
X20228539Y-22673246D02*
X20238063Y-22654198D01*
X20238063Y-22654198D02*
X20247587Y-22644674D01*
X20247587Y-22644674D02*
X20266634Y-22635151D01*
X20266634Y-22635151D02*
X20295206Y-22635151D01*
X20295206Y-22635151D02*
X20314253Y-22644674D01*
X20314253Y-22644674D02*
X20323777Y-22654198D01*
X20323777Y-22654198D02*
X20333301Y-22673246D01*
X20333301Y-22673246D02*
X20333301Y-22730389D01*
X20333301Y-22730389D02*
X20323777Y-22749436D01*
X20323777Y-22749436D02*
X20314253Y-22758960D01*
X20314253Y-22758960D02*
X20295206Y-22768484D01*
X20295206Y-22768484D02*
X20266634Y-22768484D01*
X20447587Y-22768484D02*
X20428539Y-22758960D01*
X20428539Y-22758960D02*
X20419015Y-22739912D01*
X20419015Y-22739912D02*
X20419015Y-22568484D01*
X20599968Y-22758960D02*
X20580920Y-22768484D01*
X20580920Y-22768484D02*
X20542825Y-22768484D01*
X20542825Y-22768484D02*
X20523777Y-22758960D01*
X20523777Y-22758960D02*
X20514253Y-22739912D01*
X20514253Y-22739912D02*
X20514253Y-22663722D01*
X20514253Y-22663722D02*
X20523777Y-22644674D01*
X20523777Y-22644674D02*
X20542825Y-22635151D01*
X20542825Y-22635151D02*
X20580920Y-22635151D01*
X20580920Y-22635151D02*
X20599968Y-22644674D01*
X20599968Y-22644674D02*
X20609491Y-22663722D01*
X20609491Y-22663722D02*
X20609491Y-22682770D01*
X20609491Y-22682770D02*
X20514253Y-22701817D01*
X20685682Y-22758960D02*
X20704730Y-22768484D01*
X20704730Y-22768484D02*
X20742825Y-22768484D01*
X20742825Y-22768484D02*
X20761872Y-22758960D01*
X20761872Y-22758960D02*
X20771396Y-22739912D01*
X20771396Y-22739912D02*
X20771396Y-22730389D01*
X20771396Y-22730389D02*
X20761872Y-22711341D01*
X20761872Y-22711341D02*
X20742825Y-22701817D01*
X20742825Y-22701817D02*
X20714253Y-22701817D01*
X20714253Y-22701817D02*
X20695206Y-22692293D01*
X20695206Y-22692293D02*
X20685682Y-22673246D01*
X20685682Y-22673246D02*
X20685682Y-22663722D01*
X20685682Y-22663722D02*
X20695206Y-22644674D01*
X20695206Y-22644674D02*
X20714253Y-22635151D01*
X20714253Y-22635151D02*
X20742825Y-22635151D01*
X20742825Y-22635151D02*
X20761872Y-22644674D01*
X20838063Y-22844674D02*
X20847587Y-22835151D01*
X20847587Y-22835151D02*
X20866634Y-22806579D01*
X20866634Y-22806579D02*
X20876158Y-22787532D01*
X20876158Y-22787532D02*
X20885682Y-22758960D01*
X20885682Y-22758960D02*
X20895206Y-22711341D01*
X20895206Y-22711341D02*
X20895206Y-22673246D01*
X20895206Y-22673246D02*
X20885682Y-22625627D01*
X20885682Y-22625627D02*
X20876158Y-22597055D01*
X20876158Y-22597055D02*
X20866634Y-22578008D01*
X20866634Y-22578008D02*
X20847587Y-22549436D01*
X20847587Y-22549436D02*
X20838063Y-22539912D01*
X21199968Y-22844674D02*
X21190444Y-22835151D01*
X21190444Y-22835151D02*
X21171396Y-22806579D01*
X21171396Y-22806579D02*
X21161872Y-22787532D01*
X21161872Y-22787532D02*
X21152349Y-22758960D01*
X21152349Y-22758960D02*
X21142825Y-22711341D01*
X21142825Y-22711341D02*
X21142825Y-22673246D01*
X21142825Y-22673246D02*
X21152349Y-22625627D01*
X21152349Y-22625627D02*
X21161872Y-22597055D01*
X21161872Y-22597055D02*
X21171396Y-22578008D01*
X21171396Y-22578008D02*
X21190444Y-22549436D01*
X21190444Y-22549436D02*
X21199968Y-22539912D01*
X21276158Y-22635151D02*
X21276158Y-22768484D01*
X21276158Y-22654198D02*
X21285682Y-22644674D01*
X21285682Y-22644674D02*
X21304730Y-22635151D01*
X21304730Y-22635151D02*
X21333301Y-22635151D01*
X21333301Y-22635151D02*
X21352349Y-22644674D01*
X21352349Y-22644674D02*
X21361872Y-22663722D01*
X21361872Y-22663722D02*
X21361872Y-22768484D01*
X21485682Y-22768484D02*
X21466634Y-22758960D01*
X21466634Y-22758960D02*
X21457111Y-22749436D01*
X21457111Y-22749436D02*
X21447587Y-22730389D01*
X21447587Y-22730389D02*
X21447587Y-22673246D01*
X21447587Y-22673246D02*
X21457111Y-22654198D01*
X21457111Y-22654198D02*
X21466634Y-22644674D01*
X21466634Y-22644674D02*
X21485682Y-22635151D01*
X21485682Y-22635151D02*
X21514253Y-22635151D01*
X21514253Y-22635151D02*
X21533301Y-22644674D01*
X21533301Y-22644674D02*
X21542825Y-22654198D01*
X21542825Y-22654198D02*
X21552349Y-22673246D01*
X21552349Y-22673246D02*
X21552349Y-22730389D01*
X21552349Y-22730389D02*
X21542825Y-22749436D01*
X21542825Y-22749436D02*
X21533301Y-22758960D01*
X21533301Y-22758960D02*
X21514253Y-22768484D01*
X21514253Y-22768484D02*
X21485682Y-22768484D01*
X21609492Y-22635151D02*
X21685682Y-22635151D01*
X21638063Y-22568484D02*
X21638063Y-22739912D01*
X21638063Y-22739912D02*
X21647587Y-22758960D01*
X21647587Y-22758960D02*
X21666634Y-22768484D01*
X21666634Y-22768484D02*
X21685682Y-22768484D01*
X21904730Y-22635151D02*
X21904730Y-22835151D01*
X21904730Y-22644674D02*
X21923777Y-22635151D01*
X21923777Y-22635151D02*
X21961873Y-22635151D01*
X21961873Y-22635151D02*
X21980920Y-22644674D01*
X21980920Y-22644674D02*
X21990444Y-22654198D01*
X21990444Y-22654198D02*
X21999968Y-22673246D01*
X21999968Y-22673246D02*
X21999968Y-22730389D01*
X21999968Y-22730389D02*
X21990444Y-22749436D01*
X21990444Y-22749436D02*
X21980920Y-22758960D01*
X21980920Y-22758960D02*
X21961873Y-22768484D01*
X21961873Y-22768484D02*
X21923777Y-22768484D01*
X21923777Y-22768484D02*
X21904730Y-22758960D01*
X22114253Y-22768484D02*
X22095206Y-22758960D01*
X22095206Y-22758960D02*
X22085682Y-22739912D01*
X22085682Y-22739912D02*
X22085682Y-22568484D01*
X22276158Y-22768484D02*
X22276158Y-22663722D01*
X22276158Y-22663722D02*
X22266634Y-22644674D01*
X22266634Y-22644674D02*
X22247587Y-22635151D01*
X22247587Y-22635151D02*
X22209492Y-22635151D01*
X22209492Y-22635151D02*
X22190444Y-22644674D01*
X22276158Y-22758960D02*
X22257111Y-22768484D01*
X22257111Y-22768484D02*
X22209492Y-22768484D01*
X22209492Y-22768484D02*
X22190444Y-22758960D01*
X22190444Y-22758960D02*
X22180920Y-22739912D01*
X22180920Y-22739912D02*
X22180920Y-22720865D01*
X22180920Y-22720865D02*
X22190444Y-22701817D01*
X22190444Y-22701817D02*
X22209492Y-22692293D01*
X22209492Y-22692293D02*
X22257111Y-22692293D01*
X22257111Y-22692293D02*
X22276158Y-22682770D01*
X22342825Y-22635151D02*
X22419015Y-22635151D01*
X22371396Y-22568484D02*
X22371396Y-22739912D01*
X22371396Y-22739912D02*
X22380920Y-22758960D01*
X22380920Y-22758960D02*
X22399968Y-22768484D01*
X22399968Y-22768484D02*
X22419015Y-22768484D01*
X22561872Y-22758960D02*
X22542825Y-22768484D01*
X22542825Y-22768484D02*
X22504730Y-22768484D01*
X22504730Y-22768484D02*
X22485682Y-22758960D01*
X22485682Y-22758960D02*
X22476158Y-22739912D01*
X22476158Y-22739912D02*
X22476158Y-22663722D01*
X22476158Y-22663722D02*
X22485682Y-22644674D01*
X22485682Y-22644674D02*
X22504730Y-22635151D01*
X22504730Y-22635151D02*
X22542825Y-22635151D01*
X22542825Y-22635151D02*
X22561872Y-22644674D01*
X22561872Y-22644674D02*
X22571396Y-22663722D01*
X22571396Y-22663722D02*
X22571396Y-22682770D01*
X22571396Y-22682770D02*
X22476158Y-22701817D01*
X22742825Y-22768484D02*
X22742825Y-22568484D01*
X22742825Y-22758960D02*
X22723777Y-22768484D01*
X22723777Y-22768484D02*
X22685682Y-22768484D01*
X22685682Y-22768484D02*
X22666634Y-22758960D01*
X22666634Y-22758960D02*
X22657111Y-22749436D01*
X22657111Y-22749436D02*
X22647587Y-22730389D01*
X22647587Y-22730389D02*
X22647587Y-22673246D01*
X22647587Y-22673246D02*
X22657111Y-22654198D01*
X22657111Y-22654198D02*
X22666634Y-22644674D01*
X22666634Y-22644674D02*
X22685682Y-22635151D01*
X22685682Y-22635151D02*
X22723777Y-22635151D01*
X22723777Y-22635151D02*
X22742825Y-22644674D01*
X22819015Y-22844674D02*
X22828539Y-22835151D01*
X22828539Y-22835151D02*
X22847587Y-22806579D01*
X22847587Y-22806579D02*
X22857111Y-22787532D01*
X22857111Y-22787532D02*
X22866634Y-22758960D01*
X22866634Y-22758960D02*
X22876158Y-22711341D01*
X22876158Y-22711341D02*
X22876158Y-22673246D01*
X22876158Y-22673246D02*
X22866634Y-22625627D01*
X22866634Y-22625627D02*
X22857111Y-22597055D01*
X22857111Y-22597055D02*
X22847587Y-22578008D01*
X22847587Y-22578008D02*
X22828539Y-22549436D01*
X22828539Y-22549436D02*
X22819015Y-22539912D01*
D13*
X16063000Y-22941000D02*
G75*
G02*
X15888000Y-22941000I-87500J0D01*
G01*
X15888000Y-22941000D02*
G75*
G02*
X16063000Y-22941000I87500J0D01*
G01*
D11*
X16428539Y-23032484D02*
X16314253Y-23032484D01*
X16371396Y-23032484D02*
X16371396Y-22832484D01*
X16371396Y-22832484D02*
X16352348Y-22861055D01*
X16352348Y-22861055D02*
X16333300Y-22880103D01*
X16333300Y-22880103D02*
X16314253Y-22889627D01*
X16514253Y-23013436D02*
X16523777Y-23022960D01*
X16523777Y-23022960D02*
X16514253Y-23032484D01*
X16514253Y-23032484D02*
X16504729Y-23022960D01*
X16504729Y-23022960D02*
X16514253Y-23013436D01*
X16514253Y-23013436D02*
X16514253Y-23032484D01*
X16590443Y-22832484D02*
X16723777Y-22832484D01*
X16723777Y-22832484D02*
X16638062Y-23032484D01*
X16895205Y-22832484D02*
X16799967Y-22832484D01*
X16799967Y-22832484D02*
X16790443Y-22927722D01*
X16790443Y-22927722D02*
X16799967Y-22918198D01*
X16799967Y-22918198D02*
X16819015Y-22908674D01*
X16819015Y-22908674D02*
X16866634Y-22908674D01*
X16866634Y-22908674D02*
X16885682Y-22918198D01*
X16885682Y-22918198D02*
X16895205Y-22927722D01*
X16895205Y-22927722D02*
X16904729Y-22946770D01*
X16904729Y-22946770D02*
X16904729Y-22994389D01*
X16904729Y-22994389D02*
X16895205Y-23013436D01*
X16895205Y-23013436D02*
X16885682Y-23022960D01*
X16885682Y-23022960D02*
X16866634Y-23032484D01*
X16866634Y-23032484D02*
X16819015Y-23032484D01*
X16819015Y-23032484D02*
X16799967Y-23022960D01*
X16799967Y-23022960D02*
X16790443Y-23013436D01*
X17028539Y-22832484D02*
X17047586Y-22832484D01*
X17047586Y-22832484D02*
X17066634Y-22842008D01*
X17066634Y-22842008D02*
X17076158Y-22851532D01*
X17076158Y-22851532D02*
X17085682Y-22870579D01*
X17085682Y-22870579D02*
X17095205Y-22908674D01*
X17095205Y-22908674D02*
X17095205Y-22956293D01*
X17095205Y-22956293D02*
X17085682Y-22994389D01*
X17085682Y-22994389D02*
X17076158Y-23013436D01*
X17076158Y-23013436D02*
X17066634Y-23022960D01*
X17066634Y-23022960D02*
X17047586Y-23032484D01*
X17047586Y-23032484D02*
X17028539Y-23032484D01*
X17028539Y-23032484D02*
X17009491Y-23022960D01*
X17009491Y-23022960D02*
X16999967Y-23013436D01*
X16999967Y-23013436D02*
X16990443Y-22994389D01*
X16990443Y-22994389D02*
X16980920Y-22956293D01*
X16980920Y-22956293D02*
X16980920Y-22908674D01*
X16980920Y-22908674D02*
X16990443Y-22870579D01*
X16990443Y-22870579D02*
X16999967Y-22851532D01*
X16999967Y-22851532D02*
X17009491Y-22842008D01*
X17009491Y-22842008D02*
X17028539Y-22832484D01*
X17180920Y-23032484D02*
X17180920Y-22899151D01*
X17180920Y-22918198D02*
X17190443Y-22908674D01*
X17190443Y-22908674D02*
X17209491Y-22899151D01*
X17209491Y-22899151D02*
X17238063Y-22899151D01*
X17238063Y-22899151D02*
X17257110Y-22908674D01*
X17257110Y-22908674D02*
X17266634Y-22927722D01*
X17266634Y-22927722D02*
X17266634Y-23032484D01*
X17266634Y-22927722D02*
X17276158Y-22908674D01*
X17276158Y-22908674D02*
X17295205Y-22899151D01*
X17295205Y-22899151D02*
X17323777Y-22899151D01*
X17323777Y-22899151D02*
X17342824Y-22908674D01*
X17342824Y-22908674D02*
X17352348Y-22927722D01*
X17352348Y-22927722D02*
X17352348Y-23032484D01*
X17447586Y-23032484D02*
X17447586Y-22899151D01*
X17447586Y-22918198D02*
X17457110Y-22908674D01*
X17457110Y-22908674D02*
X17476158Y-22899151D01*
X17476158Y-22899151D02*
X17504729Y-22899151D01*
X17504729Y-22899151D02*
X17523777Y-22908674D01*
X17523777Y-22908674D02*
X17533301Y-22927722D01*
X17533301Y-22927722D02*
X17533301Y-23032484D01*
X17533301Y-22927722D02*
X17542824Y-22908674D01*
X17542824Y-22908674D02*
X17561872Y-22899151D01*
X17561872Y-22899151D02*
X17590443Y-22899151D01*
X17590443Y-22899151D02*
X17609491Y-22908674D01*
X17609491Y-22908674D02*
X17619015Y-22927722D01*
X17619015Y-22927722D02*
X17619015Y-23032484D01*
X18009491Y-22822960D02*
X17838063Y-23080103D01*
X18266634Y-22832484D02*
X18285682Y-22832484D01*
X18285682Y-22832484D02*
X18304729Y-22842008D01*
X18304729Y-22842008D02*
X18314253Y-22851532D01*
X18314253Y-22851532D02*
X18323777Y-22870579D01*
X18323777Y-22870579D02*
X18333301Y-22908674D01*
X18333301Y-22908674D02*
X18333301Y-22956293D01*
X18333301Y-22956293D02*
X18323777Y-22994389D01*
X18323777Y-22994389D02*
X18314253Y-23013436D01*
X18314253Y-23013436D02*
X18304729Y-23022960D01*
X18304729Y-23022960D02*
X18285682Y-23032484D01*
X18285682Y-23032484D02*
X18266634Y-23032484D01*
X18266634Y-23032484D02*
X18247586Y-23022960D01*
X18247586Y-23022960D02*
X18238063Y-23013436D01*
X18238063Y-23013436D02*
X18228539Y-22994389D01*
X18228539Y-22994389D02*
X18219015Y-22956293D01*
X18219015Y-22956293D02*
X18219015Y-22908674D01*
X18219015Y-22908674D02*
X18228539Y-22870579D01*
X18228539Y-22870579D02*
X18238063Y-22851532D01*
X18238063Y-22851532D02*
X18247586Y-22842008D01*
X18247586Y-22842008D02*
X18266634Y-22832484D01*
X18419015Y-23013436D02*
X18428539Y-23022960D01*
X18428539Y-23022960D02*
X18419015Y-23032484D01*
X18419015Y-23032484D02*
X18409491Y-23022960D01*
X18409491Y-23022960D02*
X18419015Y-23013436D01*
X18419015Y-23013436D02*
X18419015Y-23032484D01*
X18552348Y-22832484D02*
X18571396Y-22832484D01*
X18571396Y-22832484D02*
X18590444Y-22842008D01*
X18590444Y-22842008D02*
X18599967Y-22851532D01*
X18599967Y-22851532D02*
X18609491Y-22870579D01*
X18609491Y-22870579D02*
X18619015Y-22908674D01*
X18619015Y-22908674D02*
X18619015Y-22956293D01*
X18619015Y-22956293D02*
X18609491Y-22994389D01*
X18609491Y-22994389D02*
X18599967Y-23013436D01*
X18599967Y-23013436D02*
X18590444Y-23022960D01*
X18590444Y-23022960D02*
X18571396Y-23032484D01*
X18571396Y-23032484D02*
X18552348Y-23032484D01*
X18552348Y-23032484D02*
X18533301Y-23022960D01*
X18533301Y-23022960D02*
X18523777Y-23013436D01*
X18523777Y-23013436D02*
X18514253Y-22994389D01*
X18514253Y-22994389D02*
X18504729Y-22956293D01*
X18504729Y-22956293D02*
X18504729Y-22908674D01*
X18504729Y-22908674D02*
X18514253Y-22870579D01*
X18514253Y-22870579D02*
X18523777Y-22851532D01*
X18523777Y-22851532D02*
X18533301Y-22842008D01*
X18533301Y-22842008D02*
X18552348Y-22832484D01*
X18790444Y-22832484D02*
X18752348Y-22832484D01*
X18752348Y-22832484D02*
X18733301Y-22842008D01*
X18733301Y-22842008D02*
X18723777Y-22851532D01*
X18723777Y-22851532D02*
X18704729Y-22880103D01*
X18704729Y-22880103D02*
X18695206Y-22918198D01*
X18695206Y-22918198D02*
X18695206Y-22994389D01*
X18695206Y-22994389D02*
X18704729Y-23013436D01*
X18704729Y-23013436D02*
X18714253Y-23022960D01*
X18714253Y-23022960D02*
X18733301Y-23032484D01*
X18733301Y-23032484D02*
X18771396Y-23032484D01*
X18771396Y-23032484D02*
X18790444Y-23022960D01*
X18790444Y-23022960D02*
X18799967Y-23013436D01*
X18799967Y-23013436D02*
X18809491Y-22994389D01*
X18809491Y-22994389D02*
X18809491Y-22946770D01*
X18809491Y-22946770D02*
X18799967Y-22927722D01*
X18799967Y-22927722D02*
X18790444Y-22918198D01*
X18790444Y-22918198D02*
X18771396Y-22908674D01*
X18771396Y-22908674D02*
X18733301Y-22908674D01*
X18733301Y-22908674D02*
X18714253Y-22918198D01*
X18714253Y-22918198D02*
X18704729Y-22927722D01*
X18704729Y-22927722D02*
X18695206Y-22946770D01*
X18923777Y-22918198D02*
X18904729Y-22908674D01*
X18904729Y-22908674D02*
X18895206Y-22899151D01*
X18895206Y-22899151D02*
X18885682Y-22880103D01*
X18885682Y-22880103D02*
X18885682Y-22870579D01*
X18885682Y-22870579D02*
X18895206Y-22851532D01*
X18895206Y-22851532D02*
X18904729Y-22842008D01*
X18904729Y-22842008D02*
X18923777Y-22832484D01*
X18923777Y-22832484D02*
X18961872Y-22832484D01*
X18961872Y-22832484D02*
X18980920Y-22842008D01*
X18980920Y-22842008D02*
X18990444Y-22851532D01*
X18990444Y-22851532D02*
X18999967Y-22870579D01*
X18999967Y-22870579D02*
X18999967Y-22880103D01*
X18999967Y-22880103D02*
X18990444Y-22899151D01*
X18990444Y-22899151D02*
X18980920Y-22908674D01*
X18980920Y-22908674D02*
X18961872Y-22918198D01*
X18961872Y-22918198D02*
X18923777Y-22918198D01*
X18923777Y-22918198D02*
X18904729Y-22927722D01*
X18904729Y-22927722D02*
X18895206Y-22937246D01*
X18895206Y-22937246D02*
X18885682Y-22956293D01*
X18885682Y-22956293D02*
X18885682Y-22994389D01*
X18885682Y-22994389D02*
X18895206Y-23013436D01*
X18895206Y-23013436D02*
X18904729Y-23022960D01*
X18904729Y-23022960D02*
X18923777Y-23032484D01*
X18923777Y-23032484D02*
X18961872Y-23032484D01*
X18961872Y-23032484D02*
X18980920Y-23022960D01*
X18980920Y-23022960D02*
X18990444Y-23013436D01*
X18990444Y-23013436D02*
X18999967Y-22994389D01*
X18999967Y-22994389D02*
X18999967Y-22956293D01*
X18999967Y-22956293D02*
X18990444Y-22937246D01*
X18990444Y-22937246D02*
X18980920Y-22927722D01*
X18980920Y-22927722D02*
X18961872Y-22918198D01*
X19095206Y-23032484D02*
X19133301Y-23032484D01*
X19133301Y-23032484D02*
X19152348Y-23022960D01*
X19152348Y-23022960D02*
X19161872Y-23013436D01*
X19161872Y-23013436D02*
X19180920Y-22984865D01*
X19180920Y-22984865D02*
X19190444Y-22946770D01*
X19190444Y-22946770D02*
X19190444Y-22870579D01*
X19190444Y-22870579D02*
X19180920Y-22851532D01*
X19180920Y-22851532D02*
X19171396Y-22842008D01*
X19171396Y-22842008D02*
X19152348Y-22832484D01*
X19152348Y-22832484D02*
X19114253Y-22832484D01*
X19114253Y-22832484D02*
X19095206Y-22842008D01*
X19095206Y-22842008D02*
X19085682Y-22851532D01*
X19085682Y-22851532D02*
X19076158Y-22870579D01*
X19076158Y-22870579D02*
X19076158Y-22918198D01*
X19076158Y-22918198D02*
X19085682Y-22937246D01*
X19085682Y-22937246D02*
X19095206Y-22946770D01*
X19095206Y-22946770D02*
X19114253Y-22956293D01*
X19114253Y-22956293D02*
X19152348Y-22956293D01*
X19152348Y-22956293D02*
X19171396Y-22946770D01*
X19171396Y-22946770D02*
X19180920Y-22937246D01*
X19180920Y-22937246D02*
X19190444Y-22918198D01*
X19266634Y-22832484D02*
X19266634Y-22870579D01*
X19342825Y-22832484D02*
X19342825Y-22870579D01*
X19638063Y-23108674D02*
X19628539Y-23099151D01*
X19628539Y-23099151D02*
X19609491Y-23070579D01*
X19609491Y-23070579D02*
X19599968Y-23051532D01*
X19599968Y-23051532D02*
X19590444Y-23022960D01*
X19590444Y-23022960D02*
X19580920Y-22975341D01*
X19580920Y-22975341D02*
X19580920Y-22937246D01*
X19580920Y-22937246D02*
X19590444Y-22889627D01*
X19590444Y-22889627D02*
X19599968Y-22861055D01*
X19599968Y-22861055D02*
X19609491Y-22842008D01*
X19609491Y-22842008D02*
X19628539Y-22813436D01*
X19628539Y-22813436D02*
X19638063Y-22803912D01*
X19819015Y-23032484D02*
X19704729Y-23032484D01*
X19761872Y-23032484D02*
X19761872Y-22832484D01*
X19761872Y-22832484D02*
X19742825Y-22861055D01*
X19742825Y-22861055D02*
X19723777Y-22880103D01*
X19723777Y-22880103D02*
X19704729Y-22889627D01*
X19885682Y-22832484D02*
X20009491Y-22832484D01*
X20009491Y-22832484D02*
X19942825Y-22908674D01*
X19942825Y-22908674D02*
X19971396Y-22908674D01*
X19971396Y-22908674D02*
X19990444Y-22918198D01*
X19990444Y-22918198D02*
X19999968Y-22927722D01*
X19999968Y-22927722D02*
X20009491Y-22946770D01*
X20009491Y-22946770D02*
X20009491Y-22994389D01*
X20009491Y-22994389D02*
X19999968Y-23013436D01*
X19999968Y-23013436D02*
X19990444Y-23022960D01*
X19990444Y-23022960D02*
X19971396Y-23032484D01*
X19971396Y-23032484D02*
X19914253Y-23032484D01*
X19914253Y-23032484D02*
X19895206Y-23022960D01*
X19895206Y-23022960D02*
X19885682Y-23013436D01*
X20133301Y-22832484D02*
X20152349Y-22832484D01*
X20152349Y-22832484D02*
X20171396Y-22842008D01*
X20171396Y-22842008D02*
X20180920Y-22851532D01*
X20180920Y-22851532D02*
X20190444Y-22870579D01*
X20190444Y-22870579D02*
X20199968Y-22908674D01*
X20199968Y-22908674D02*
X20199968Y-22956293D01*
X20199968Y-22956293D02*
X20190444Y-22994389D01*
X20190444Y-22994389D02*
X20180920Y-23013436D01*
X20180920Y-23013436D02*
X20171396Y-23022960D01*
X20171396Y-23022960D02*
X20152349Y-23032484D01*
X20152349Y-23032484D02*
X20133301Y-23032484D01*
X20133301Y-23032484D02*
X20114253Y-23022960D01*
X20114253Y-23022960D02*
X20104729Y-23013436D01*
X20104729Y-23013436D02*
X20095206Y-22994389D01*
X20095206Y-22994389D02*
X20085682Y-22956293D01*
X20085682Y-22956293D02*
X20085682Y-22908674D01*
X20085682Y-22908674D02*
X20095206Y-22870579D01*
X20095206Y-22870579D02*
X20104729Y-22851532D01*
X20104729Y-22851532D02*
X20114253Y-22842008D01*
X20114253Y-22842008D02*
X20133301Y-22832484D01*
X20438063Y-23032484D02*
X20438063Y-22832484D01*
X20523777Y-23032484D02*
X20523777Y-22927722D01*
X20523777Y-22927722D02*
X20514253Y-22908674D01*
X20514253Y-22908674D02*
X20495206Y-22899151D01*
X20495206Y-22899151D02*
X20466634Y-22899151D01*
X20466634Y-22899151D02*
X20447587Y-22908674D01*
X20447587Y-22908674D02*
X20438063Y-22918198D01*
X20647587Y-23032484D02*
X20628539Y-23022960D01*
X20628539Y-23022960D02*
X20619015Y-23013436D01*
X20619015Y-23013436D02*
X20609491Y-22994389D01*
X20609491Y-22994389D02*
X20609491Y-22937246D01*
X20609491Y-22937246D02*
X20619015Y-22918198D01*
X20619015Y-22918198D02*
X20628539Y-22908674D01*
X20628539Y-22908674D02*
X20647587Y-22899151D01*
X20647587Y-22899151D02*
X20676158Y-22899151D01*
X20676158Y-22899151D02*
X20695206Y-22908674D01*
X20695206Y-22908674D02*
X20704730Y-22918198D01*
X20704730Y-22918198D02*
X20714253Y-22937246D01*
X20714253Y-22937246D02*
X20714253Y-22994389D01*
X20714253Y-22994389D02*
X20704730Y-23013436D01*
X20704730Y-23013436D02*
X20695206Y-23022960D01*
X20695206Y-23022960D02*
X20676158Y-23032484D01*
X20676158Y-23032484D02*
X20647587Y-23032484D01*
X20828539Y-23032484D02*
X20809491Y-23022960D01*
X20809491Y-23022960D02*
X20799968Y-23003912D01*
X20799968Y-23003912D02*
X20799968Y-22832484D01*
X20980920Y-23022960D02*
X20961872Y-23032484D01*
X20961872Y-23032484D02*
X20923777Y-23032484D01*
X20923777Y-23032484D02*
X20904730Y-23022960D01*
X20904730Y-23022960D02*
X20895206Y-23003912D01*
X20895206Y-23003912D02*
X20895206Y-22927722D01*
X20895206Y-22927722D02*
X20904730Y-22908674D01*
X20904730Y-22908674D02*
X20923777Y-22899151D01*
X20923777Y-22899151D02*
X20961872Y-22899151D01*
X20961872Y-22899151D02*
X20980920Y-22908674D01*
X20980920Y-22908674D02*
X20990444Y-22927722D01*
X20990444Y-22927722D02*
X20990444Y-22946770D01*
X20990444Y-22946770D02*
X20895206Y-22965817D01*
X21066634Y-23022960D02*
X21085682Y-23032484D01*
X21085682Y-23032484D02*
X21123777Y-23032484D01*
X21123777Y-23032484D02*
X21142825Y-23022960D01*
X21142825Y-23022960D02*
X21152349Y-23003912D01*
X21152349Y-23003912D02*
X21152349Y-22994389D01*
X21152349Y-22994389D02*
X21142825Y-22975341D01*
X21142825Y-22975341D02*
X21123777Y-22965817D01*
X21123777Y-22965817D02*
X21095206Y-22965817D01*
X21095206Y-22965817D02*
X21076158Y-22956293D01*
X21076158Y-22956293D02*
X21066634Y-22937246D01*
X21066634Y-22937246D02*
X21066634Y-22927722D01*
X21066634Y-22927722D02*
X21076158Y-22908674D01*
X21076158Y-22908674D02*
X21095206Y-22899151D01*
X21095206Y-22899151D02*
X21123777Y-22899151D01*
X21123777Y-22899151D02*
X21142825Y-22908674D01*
X21219015Y-23108674D02*
X21228539Y-23099151D01*
X21228539Y-23099151D02*
X21247587Y-23070579D01*
X21247587Y-23070579D02*
X21257111Y-23051532D01*
X21257111Y-23051532D02*
X21266634Y-23022960D01*
X21266634Y-23022960D02*
X21276158Y-22975341D01*
X21276158Y-22975341D02*
X21276158Y-22937246D01*
X21276158Y-22937246D02*
X21266634Y-22889627D01*
X21266634Y-22889627D02*
X21257111Y-22861055D01*
X21257111Y-22861055D02*
X21247587Y-22842008D01*
X21247587Y-22842008D02*
X21228539Y-22813436D01*
X21228539Y-22813436D02*
X21219015Y-22803912D01*
X21580920Y-23108674D02*
X21571396Y-23099151D01*
X21571396Y-23099151D02*
X21552349Y-23070579D01*
X21552349Y-23070579D02*
X21542825Y-23051532D01*
X21542825Y-23051532D02*
X21533301Y-23022960D01*
X21533301Y-23022960D02*
X21523777Y-22975341D01*
X21523777Y-22975341D02*
X21523777Y-22937246D01*
X21523777Y-22937246D02*
X21533301Y-22889627D01*
X21533301Y-22889627D02*
X21542825Y-22861055D01*
X21542825Y-22861055D02*
X21552349Y-22842008D01*
X21552349Y-22842008D02*
X21571396Y-22813436D01*
X21571396Y-22813436D02*
X21580920Y-22803912D01*
X21657111Y-22899151D02*
X21657111Y-23032484D01*
X21657111Y-22918198D02*
X21666634Y-22908674D01*
X21666634Y-22908674D02*
X21685682Y-22899151D01*
X21685682Y-22899151D02*
X21714253Y-22899151D01*
X21714253Y-22899151D02*
X21733301Y-22908674D01*
X21733301Y-22908674D02*
X21742825Y-22927722D01*
X21742825Y-22927722D02*
X21742825Y-23032484D01*
X21866634Y-23032484D02*
X21847587Y-23022960D01*
X21847587Y-23022960D02*
X21838063Y-23013436D01*
X21838063Y-23013436D02*
X21828539Y-22994389D01*
X21828539Y-22994389D02*
X21828539Y-22937246D01*
X21828539Y-22937246D02*
X21838063Y-22918198D01*
X21838063Y-22918198D02*
X21847587Y-22908674D01*
X21847587Y-22908674D02*
X21866634Y-22899151D01*
X21866634Y-22899151D02*
X21895206Y-22899151D01*
X21895206Y-22899151D02*
X21914253Y-22908674D01*
X21914253Y-22908674D02*
X21923777Y-22918198D01*
X21923777Y-22918198D02*
X21933301Y-22937246D01*
X21933301Y-22937246D02*
X21933301Y-22994389D01*
X21933301Y-22994389D02*
X21923777Y-23013436D01*
X21923777Y-23013436D02*
X21914253Y-23022960D01*
X21914253Y-23022960D02*
X21895206Y-23032484D01*
X21895206Y-23032484D02*
X21866634Y-23032484D01*
X21990444Y-22899151D02*
X22066634Y-22899151D01*
X22019015Y-22832484D02*
X22019015Y-23003912D01*
X22019015Y-23003912D02*
X22028539Y-23022960D01*
X22028539Y-23022960D02*
X22047587Y-23032484D01*
X22047587Y-23032484D02*
X22066634Y-23032484D01*
X22285682Y-22899151D02*
X22285682Y-23099151D01*
X22285682Y-22908674D02*
X22304730Y-22899151D01*
X22304730Y-22899151D02*
X22342825Y-22899151D01*
X22342825Y-22899151D02*
X22361873Y-22908674D01*
X22361873Y-22908674D02*
X22371396Y-22918198D01*
X22371396Y-22918198D02*
X22380920Y-22937246D01*
X22380920Y-22937246D02*
X22380920Y-22994389D01*
X22380920Y-22994389D02*
X22371396Y-23013436D01*
X22371396Y-23013436D02*
X22361873Y-23022960D01*
X22361873Y-23022960D02*
X22342825Y-23032484D01*
X22342825Y-23032484D02*
X22304730Y-23032484D01*
X22304730Y-23032484D02*
X22285682Y-23022960D01*
X22495206Y-23032484D02*
X22476158Y-23022960D01*
X22476158Y-23022960D02*
X22466634Y-23003912D01*
X22466634Y-23003912D02*
X22466634Y-22832484D01*
X22657111Y-23032484D02*
X22657111Y-22927722D01*
X22657111Y-22927722D02*
X22647587Y-22908674D01*
X22647587Y-22908674D02*
X22628539Y-22899151D01*
X22628539Y-22899151D02*
X22590444Y-22899151D01*
X22590444Y-22899151D02*
X22571396Y-22908674D01*
X22657111Y-23022960D02*
X22638063Y-23032484D01*
X22638063Y-23032484D02*
X22590444Y-23032484D01*
X22590444Y-23032484D02*
X22571396Y-23022960D01*
X22571396Y-23022960D02*
X22561872Y-23003912D01*
X22561872Y-23003912D02*
X22561872Y-22984865D01*
X22561872Y-22984865D02*
X22571396Y-22965817D01*
X22571396Y-22965817D02*
X22590444Y-22956293D01*
X22590444Y-22956293D02*
X22638063Y-22956293D01*
X22638063Y-22956293D02*
X22657111Y-22946770D01*
X22723777Y-22899151D02*
X22799968Y-22899151D01*
X22752349Y-22832484D02*
X22752349Y-23003912D01*
X22752349Y-23003912D02*
X22761872Y-23022960D01*
X22761872Y-23022960D02*
X22780920Y-23032484D01*
X22780920Y-23032484D02*
X22799968Y-23032484D01*
X22942825Y-23022960D02*
X22923777Y-23032484D01*
X22923777Y-23032484D02*
X22885682Y-23032484D01*
X22885682Y-23032484D02*
X22866634Y-23022960D01*
X22866634Y-23022960D02*
X22857111Y-23003912D01*
X22857111Y-23003912D02*
X22857111Y-22927722D01*
X22857111Y-22927722D02*
X22866634Y-22908674D01*
X22866634Y-22908674D02*
X22885682Y-22899151D01*
X22885682Y-22899151D02*
X22923777Y-22899151D01*
X22923777Y-22899151D02*
X22942825Y-22908674D01*
X22942825Y-22908674D02*
X22952349Y-22927722D01*
X22952349Y-22927722D02*
X22952349Y-22946770D01*
X22952349Y-22946770D02*
X22857111Y-22965817D01*
X23123777Y-23032484D02*
X23123777Y-22832484D01*
X23123777Y-23022960D02*
X23104730Y-23032484D01*
X23104730Y-23032484D02*
X23066634Y-23032484D01*
X23066634Y-23032484D02*
X23047587Y-23022960D01*
X23047587Y-23022960D02*
X23038063Y-23013436D01*
X23038063Y-23013436D02*
X23028539Y-22994389D01*
X23028539Y-22994389D02*
X23028539Y-22937246D01*
X23028539Y-22937246D02*
X23038063Y-22918198D01*
X23038063Y-22918198D02*
X23047587Y-22908674D01*
X23047587Y-22908674D02*
X23066634Y-22899151D01*
X23066634Y-22899151D02*
X23104730Y-22899151D01*
X23104730Y-22899151D02*
X23123777Y-22908674D01*
X23199968Y-23108674D02*
X23209492Y-23099151D01*
X23209492Y-23099151D02*
X23228539Y-23070579D01*
X23228539Y-23070579D02*
X23238063Y-23051532D01*
X23238063Y-23051532D02*
X23247587Y-23022960D01*
X23247587Y-23022960D02*
X23257111Y-22975341D01*
X23257111Y-22975341D02*
X23257111Y-22937246D01*
X23257111Y-22937246D02*
X23247587Y-22889627D01*
X23247587Y-22889627D02*
X23238063Y-22861055D01*
X23238063Y-22861055D02*
X23228539Y-22842008D01*
X23228539Y-22842008D02*
X23209492Y-22813436D01*
X23209492Y-22813436D02*
X23199968Y-22803912D01*
X15963000Y-23136000D02*
X15963000Y-23336000D01*
X15863000Y-23236000D02*
X16063000Y-23236000D01*
X16304729Y-23127484D02*
X16428539Y-23127484D01*
X16428539Y-23127484D02*
X16361872Y-23203674D01*
X16361872Y-23203674D02*
X16390443Y-23203674D01*
X16390443Y-23203674D02*
X16409491Y-23213198D01*
X16409491Y-23213198D02*
X16419015Y-23222722D01*
X16419015Y-23222722D02*
X16428539Y-23241770D01*
X16428539Y-23241770D02*
X16428539Y-23289389D01*
X16428539Y-23289389D02*
X16419015Y-23308436D01*
X16419015Y-23308436D02*
X16409491Y-23317960D01*
X16409491Y-23317960D02*
X16390443Y-23327484D01*
X16390443Y-23327484D02*
X16333300Y-23327484D01*
X16333300Y-23327484D02*
X16314253Y-23317960D01*
X16314253Y-23317960D02*
X16304729Y-23308436D01*
X16514253Y-23308436D02*
X16523777Y-23317960D01*
X16523777Y-23317960D02*
X16514253Y-23327484D01*
X16514253Y-23327484D02*
X16504729Y-23317960D01*
X16504729Y-23317960D02*
X16514253Y-23308436D01*
X16514253Y-23308436D02*
X16514253Y-23327484D01*
X16647586Y-23127484D02*
X16666634Y-23127484D01*
X16666634Y-23127484D02*
X16685681Y-23137008D01*
X16685681Y-23137008D02*
X16695205Y-23146532D01*
X16695205Y-23146532D02*
X16704729Y-23165579D01*
X16704729Y-23165579D02*
X16714253Y-23203674D01*
X16714253Y-23203674D02*
X16714253Y-23251293D01*
X16714253Y-23251293D02*
X16704729Y-23289389D01*
X16704729Y-23289389D02*
X16695205Y-23308436D01*
X16695205Y-23308436D02*
X16685681Y-23317960D01*
X16685681Y-23317960D02*
X16666634Y-23327484D01*
X16666634Y-23327484D02*
X16647586Y-23327484D01*
X16647586Y-23327484D02*
X16628539Y-23317960D01*
X16628539Y-23317960D02*
X16619015Y-23308436D01*
X16619015Y-23308436D02*
X16609491Y-23289389D01*
X16609491Y-23289389D02*
X16599967Y-23251293D01*
X16599967Y-23251293D02*
X16599967Y-23203674D01*
X16599967Y-23203674D02*
X16609491Y-23165579D01*
X16609491Y-23165579D02*
X16619015Y-23146532D01*
X16619015Y-23146532D02*
X16628539Y-23137008D01*
X16628539Y-23137008D02*
X16647586Y-23127484D01*
X16885682Y-23194151D02*
X16885682Y-23327484D01*
X16838062Y-23117960D02*
X16790443Y-23260817D01*
X16790443Y-23260817D02*
X16914253Y-23260817D01*
X17019015Y-23213198D02*
X16999967Y-23203674D01*
X16999967Y-23203674D02*
X16990443Y-23194151D01*
X16990443Y-23194151D02*
X16980920Y-23175103D01*
X16980920Y-23175103D02*
X16980920Y-23165579D01*
X16980920Y-23165579D02*
X16990443Y-23146532D01*
X16990443Y-23146532D02*
X16999967Y-23137008D01*
X16999967Y-23137008D02*
X17019015Y-23127484D01*
X17019015Y-23127484D02*
X17057110Y-23127484D01*
X17057110Y-23127484D02*
X17076158Y-23137008D01*
X17076158Y-23137008D02*
X17085682Y-23146532D01*
X17085682Y-23146532D02*
X17095205Y-23165579D01*
X17095205Y-23165579D02*
X17095205Y-23175103D01*
X17095205Y-23175103D02*
X17085682Y-23194151D01*
X17085682Y-23194151D02*
X17076158Y-23203674D01*
X17076158Y-23203674D02*
X17057110Y-23213198D01*
X17057110Y-23213198D02*
X17019015Y-23213198D01*
X17019015Y-23213198D02*
X16999967Y-23222722D01*
X16999967Y-23222722D02*
X16990443Y-23232246D01*
X16990443Y-23232246D02*
X16980920Y-23251293D01*
X16980920Y-23251293D02*
X16980920Y-23289389D01*
X16980920Y-23289389D02*
X16990443Y-23308436D01*
X16990443Y-23308436D02*
X16999967Y-23317960D01*
X16999967Y-23317960D02*
X17019015Y-23327484D01*
X17019015Y-23327484D02*
X17057110Y-23327484D01*
X17057110Y-23327484D02*
X17076158Y-23317960D01*
X17076158Y-23317960D02*
X17085682Y-23308436D01*
X17085682Y-23308436D02*
X17095205Y-23289389D01*
X17095205Y-23289389D02*
X17095205Y-23251293D01*
X17095205Y-23251293D02*
X17085682Y-23232246D01*
X17085682Y-23232246D02*
X17076158Y-23222722D01*
X17076158Y-23222722D02*
X17057110Y-23213198D01*
X17180920Y-23327484D02*
X17180920Y-23194151D01*
X17180920Y-23213198D02*
X17190443Y-23203674D01*
X17190443Y-23203674D02*
X17209491Y-23194151D01*
X17209491Y-23194151D02*
X17238063Y-23194151D01*
X17238063Y-23194151D02*
X17257110Y-23203674D01*
X17257110Y-23203674D02*
X17266634Y-23222722D01*
X17266634Y-23222722D02*
X17266634Y-23327484D01*
X17266634Y-23222722D02*
X17276158Y-23203674D01*
X17276158Y-23203674D02*
X17295205Y-23194151D01*
X17295205Y-23194151D02*
X17323777Y-23194151D01*
X17323777Y-23194151D02*
X17342824Y-23203674D01*
X17342824Y-23203674D02*
X17352348Y-23222722D01*
X17352348Y-23222722D02*
X17352348Y-23327484D01*
X17447586Y-23327484D02*
X17447586Y-23194151D01*
X17447586Y-23213198D02*
X17457110Y-23203674D01*
X17457110Y-23203674D02*
X17476158Y-23194151D01*
X17476158Y-23194151D02*
X17504729Y-23194151D01*
X17504729Y-23194151D02*
X17523777Y-23203674D01*
X17523777Y-23203674D02*
X17533301Y-23222722D01*
X17533301Y-23222722D02*
X17533301Y-23327484D01*
X17533301Y-23222722D02*
X17542824Y-23203674D01*
X17542824Y-23203674D02*
X17561872Y-23194151D01*
X17561872Y-23194151D02*
X17590443Y-23194151D01*
X17590443Y-23194151D02*
X17609491Y-23203674D01*
X17609491Y-23203674D02*
X17619015Y-23222722D01*
X17619015Y-23222722D02*
X17619015Y-23327484D01*
X18009491Y-23117960D02*
X17838063Y-23375103D01*
X18266634Y-23127484D02*
X18285682Y-23127484D01*
X18285682Y-23127484D02*
X18304729Y-23137008D01*
X18304729Y-23137008D02*
X18314253Y-23146532D01*
X18314253Y-23146532D02*
X18323777Y-23165579D01*
X18323777Y-23165579D02*
X18333301Y-23203674D01*
X18333301Y-23203674D02*
X18333301Y-23251293D01*
X18333301Y-23251293D02*
X18323777Y-23289389D01*
X18323777Y-23289389D02*
X18314253Y-23308436D01*
X18314253Y-23308436D02*
X18304729Y-23317960D01*
X18304729Y-23317960D02*
X18285682Y-23327484D01*
X18285682Y-23327484D02*
X18266634Y-23327484D01*
X18266634Y-23327484D02*
X18247586Y-23317960D01*
X18247586Y-23317960D02*
X18238063Y-23308436D01*
X18238063Y-23308436D02*
X18228539Y-23289389D01*
X18228539Y-23289389D02*
X18219015Y-23251293D01*
X18219015Y-23251293D02*
X18219015Y-23203674D01*
X18219015Y-23203674D02*
X18228539Y-23165579D01*
X18228539Y-23165579D02*
X18238063Y-23146532D01*
X18238063Y-23146532D02*
X18247586Y-23137008D01*
X18247586Y-23137008D02*
X18266634Y-23127484D01*
X18419015Y-23308436D02*
X18428539Y-23317960D01*
X18428539Y-23317960D02*
X18419015Y-23327484D01*
X18419015Y-23327484D02*
X18409491Y-23317960D01*
X18409491Y-23317960D02*
X18419015Y-23308436D01*
X18419015Y-23308436D02*
X18419015Y-23327484D01*
X18619015Y-23327484D02*
X18504729Y-23327484D01*
X18561872Y-23327484D02*
X18561872Y-23127484D01*
X18561872Y-23127484D02*
X18542825Y-23156055D01*
X18542825Y-23156055D02*
X18523777Y-23175103D01*
X18523777Y-23175103D02*
X18504729Y-23184627D01*
X18695206Y-23146532D02*
X18704729Y-23137008D01*
X18704729Y-23137008D02*
X18723777Y-23127484D01*
X18723777Y-23127484D02*
X18771396Y-23127484D01*
X18771396Y-23127484D02*
X18790444Y-23137008D01*
X18790444Y-23137008D02*
X18799967Y-23146532D01*
X18799967Y-23146532D02*
X18809491Y-23165579D01*
X18809491Y-23165579D02*
X18809491Y-23184627D01*
X18809491Y-23184627D02*
X18799967Y-23213198D01*
X18799967Y-23213198D02*
X18685682Y-23327484D01*
X18685682Y-23327484D02*
X18809491Y-23327484D01*
X18933301Y-23127484D02*
X18952348Y-23127484D01*
X18952348Y-23127484D02*
X18971396Y-23137008D01*
X18971396Y-23137008D02*
X18980920Y-23146532D01*
X18980920Y-23146532D02*
X18990444Y-23165579D01*
X18990444Y-23165579D02*
X18999967Y-23203674D01*
X18999967Y-23203674D02*
X18999967Y-23251293D01*
X18999967Y-23251293D02*
X18990444Y-23289389D01*
X18990444Y-23289389D02*
X18980920Y-23308436D01*
X18980920Y-23308436D02*
X18971396Y-23317960D01*
X18971396Y-23317960D02*
X18952348Y-23327484D01*
X18952348Y-23327484D02*
X18933301Y-23327484D01*
X18933301Y-23327484D02*
X18914253Y-23317960D01*
X18914253Y-23317960D02*
X18904729Y-23308436D01*
X18904729Y-23308436D02*
X18895206Y-23289389D01*
X18895206Y-23289389D02*
X18885682Y-23251293D01*
X18885682Y-23251293D02*
X18885682Y-23203674D01*
X18885682Y-23203674D02*
X18895206Y-23165579D01*
X18895206Y-23165579D02*
X18904729Y-23146532D01*
X18904729Y-23146532D02*
X18914253Y-23137008D01*
X18914253Y-23137008D02*
X18933301Y-23127484D01*
X19123777Y-23127484D02*
X19142825Y-23127484D01*
X19142825Y-23127484D02*
X19161872Y-23137008D01*
X19161872Y-23137008D02*
X19171396Y-23146532D01*
X19171396Y-23146532D02*
X19180920Y-23165579D01*
X19180920Y-23165579D02*
X19190444Y-23203674D01*
X19190444Y-23203674D02*
X19190444Y-23251293D01*
X19190444Y-23251293D02*
X19180920Y-23289389D01*
X19180920Y-23289389D02*
X19171396Y-23308436D01*
X19171396Y-23308436D02*
X19161872Y-23317960D01*
X19161872Y-23317960D02*
X19142825Y-23327484D01*
X19142825Y-23327484D02*
X19123777Y-23327484D01*
X19123777Y-23327484D02*
X19104729Y-23317960D01*
X19104729Y-23317960D02*
X19095206Y-23308436D01*
X19095206Y-23308436D02*
X19085682Y-23289389D01*
X19085682Y-23289389D02*
X19076158Y-23251293D01*
X19076158Y-23251293D02*
X19076158Y-23203674D01*
X19076158Y-23203674D02*
X19085682Y-23165579D01*
X19085682Y-23165579D02*
X19095206Y-23146532D01*
X19095206Y-23146532D02*
X19104729Y-23137008D01*
X19104729Y-23137008D02*
X19123777Y-23127484D01*
X19266634Y-23127484D02*
X19266634Y-23165579D01*
X19342825Y-23127484D02*
X19342825Y-23165579D01*
X19638063Y-23403674D02*
X19628539Y-23394151D01*
X19628539Y-23394151D02*
X19609491Y-23365579D01*
X19609491Y-23365579D02*
X19599968Y-23346532D01*
X19599968Y-23346532D02*
X19590444Y-23317960D01*
X19590444Y-23317960D02*
X19580920Y-23270341D01*
X19580920Y-23270341D02*
X19580920Y-23232246D01*
X19580920Y-23232246D02*
X19590444Y-23184627D01*
X19590444Y-23184627D02*
X19599968Y-23156055D01*
X19599968Y-23156055D02*
X19609491Y-23137008D01*
X19609491Y-23137008D02*
X19628539Y-23108436D01*
X19628539Y-23108436D02*
X19638063Y-23098912D01*
X19819015Y-23327484D02*
X19704729Y-23327484D01*
X19761872Y-23327484D02*
X19761872Y-23127484D01*
X19761872Y-23127484D02*
X19742825Y-23156055D01*
X19742825Y-23156055D02*
X19723777Y-23175103D01*
X19723777Y-23175103D02*
X19704729Y-23184627D01*
X19942825Y-23127484D02*
X19961872Y-23127484D01*
X19961872Y-23127484D02*
X19980920Y-23137008D01*
X19980920Y-23137008D02*
X19990444Y-23146532D01*
X19990444Y-23146532D02*
X19999968Y-23165579D01*
X19999968Y-23165579D02*
X20009491Y-23203674D01*
X20009491Y-23203674D02*
X20009491Y-23251293D01*
X20009491Y-23251293D02*
X19999968Y-23289389D01*
X19999968Y-23289389D02*
X19990444Y-23308436D01*
X19990444Y-23308436D02*
X19980920Y-23317960D01*
X19980920Y-23317960D02*
X19961872Y-23327484D01*
X19961872Y-23327484D02*
X19942825Y-23327484D01*
X19942825Y-23327484D02*
X19923777Y-23317960D01*
X19923777Y-23317960D02*
X19914253Y-23308436D01*
X19914253Y-23308436D02*
X19904729Y-23289389D01*
X19904729Y-23289389D02*
X19895206Y-23251293D01*
X19895206Y-23251293D02*
X19895206Y-23203674D01*
X19895206Y-23203674D02*
X19904729Y-23165579D01*
X19904729Y-23165579D02*
X19914253Y-23146532D01*
X19914253Y-23146532D02*
X19923777Y-23137008D01*
X19923777Y-23137008D02*
X19942825Y-23127484D01*
X20247587Y-23327484D02*
X20247587Y-23127484D01*
X20333301Y-23327484D02*
X20333301Y-23222722D01*
X20333301Y-23222722D02*
X20323777Y-23203674D01*
X20323777Y-23203674D02*
X20304730Y-23194151D01*
X20304730Y-23194151D02*
X20276158Y-23194151D01*
X20276158Y-23194151D02*
X20257110Y-23203674D01*
X20257110Y-23203674D02*
X20247587Y-23213198D01*
X20457110Y-23327484D02*
X20438063Y-23317960D01*
X20438063Y-23317960D02*
X20428539Y-23308436D01*
X20428539Y-23308436D02*
X20419015Y-23289389D01*
X20419015Y-23289389D02*
X20419015Y-23232246D01*
X20419015Y-23232246D02*
X20428539Y-23213198D01*
X20428539Y-23213198D02*
X20438063Y-23203674D01*
X20438063Y-23203674D02*
X20457110Y-23194151D01*
X20457110Y-23194151D02*
X20485682Y-23194151D01*
X20485682Y-23194151D02*
X20504730Y-23203674D01*
X20504730Y-23203674D02*
X20514253Y-23213198D01*
X20514253Y-23213198D02*
X20523777Y-23232246D01*
X20523777Y-23232246D02*
X20523777Y-23289389D01*
X20523777Y-23289389D02*
X20514253Y-23308436D01*
X20514253Y-23308436D02*
X20504730Y-23317960D01*
X20504730Y-23317960D02*
X20485682Y-23327484D01*
X20485682Y-23327484D02*
X20457110Y-23327484D01*
X20638063Y-23327484D02*
X20619015Y-23317960D01*
X20619015Y-23317960D02*
X20609491Y-23298912D01*
X20609491Y-23298912D02*
X20609491Y-23127484D01*
X20790444Y-23317960D02*
X20771396Y-23327484D01*
X20771396Y-23327484D02*
X20733301Y-23327484D01*
X20733301Y-23327484D02*
X20714253Y-23317960D01*
X20714253Y-23317960D02*
X20704730Y-23298912D01*
X20704730Y-23298912D02*
X20704730Y-23222722D01*
X20704730Y-23222722D02*
X20714253Y-23203674D01*
X20714253Y-23203674D02*
X20733301Y-23194151D01*
X20733301Y-23194151D02*
X20771396Y-23194151D01*
X20771396Y-23194151D02*
X20790444Y-23203674D01*
X20790444Y-23203674D02*
X20799968Y-23222722D01*
X20799968Y-23222722D02*
X20799968Y-23241770D01*
X20799968Y-23241770D02*
X20704730Y-23260817D01*
X20876158Y-23317960D02*
X20895206Y-23327484D01*
X20895206Y-23327484D02*
X20933301Y-23327484D01*
X20933301Y-23327484D02*
X20952349Y-23317960D01*
X20952349Y-23317960D02*
X20961872Y-23298912D01*
X20961872Y-23298912D02*
X20961872Y-23289389D01*
X20961872Y-23289389D02*
X20952349Y-23270341D01*
X20952349Y-23270341D02*
X20933301Y-23260817D01*
X20933301Y-23260817D02*
X20904730Y-23260817D01*
X20904730Y-23260817D02*
X20885682Y-23251293D01*
X20885682Y-23251293D02*
X20876158Y-23232246D01*
X20876158Y-23232246D02*
X20876158Y-23222722D01*
X20876158Y-23222722D02*
X20885682Y-23203674D01*
X20885682Y-23203674D02*
X20904730Y-23194151D01*
X20904730Y-23194151D02*
X20933301Y-23194151D01*
X20933301Y-23194151D02*
X20952349Y-23203674D01*
X21028539Y-23403674D02*
X21038063Y-23394151D01*
X21038063Y-23394151D02*
X21057111Y-23365579D01*
X21057111Y-23365579D02*
X21066634Y-23346532D01*
X21066634Y-23346532D02*
X21076158Y-23317960D01*
X21076158Y-23317960D02*
X21085682Y-23270341D01*
X21085682Y-23270341D02*
X21085682Y-23232246D01*
X21085682Y-23232246D02*
X21076158Y-23184627D01*
X21076158Y-23184627D02*
X21066634Y-23156055D01*
X21066634Y-23156055D02*
X21057111Y-23137008D01*
X21057111Y-23137008D02*
X21038063Y-23108436D01*
X21038063Y-23108436D02*
X21028539Y-23098912D01*
X21390444Y-23403674D02*
X21380920Y-23394151D01*
X21380920Y-23394151D02*
X21361872Y-23365579D01*
X21361872Y-23365579D02*
X21352349Y-23346532D01*
X21352349Y-23346532D02*
X21342825Y-23317960D01*
X21342825Y-23317960D02*
X21333301Y-23270341D01*
X21333301Y-23270341D02*
X21333301Y-23232246D01*
X21333301Y-23232246D02*
X21342825Y-23184627D01*
X21342825Y-23184627D02*
X21352349Y-23156055D01*
X21352349Y-23156055D02*
X21361872Y-23137008D01*
X21361872Y-23137008D02*
X21380920Y-23108436D01*
X21380920Y-23108436D02*
X21390444Y-23098912D01*
X21466634Y-23194151D02*
X21466634Y-23327484D01*
X21466634Y-23213198D02*
X21476158Y-23203674D01*
X21476158Y-23203674D02*
X21495206Y-23194151D01*
X21495206Y-23194151D02*
X21523777Y-23194151D01*
X21523777Y-23194151D02*
X21542825Y-23203674D01*
X21542825Y-23203674D02*
X21552349Y-23222722D01*
X21552349Y-23222722D02*
X21552349Y-23327484D01*
X21676158Y-23327484D02*
X21657111Y-23317960D01*
X21657111Y-23317960D02*
X21647587Y-23308436D01*
X21647587Y-23308436D02*
X21638063Y-23289389D01*
X21638063Y-23289389D02*
X21638063Y-23232246D01*
X21638063Y-23232246D02*
X21647587Y-23213198D01*
X21647587Y-23213198D02*
X21657111Y-23203674D01*
X21657111Y-23203674D02*
X21676158Y-23194151D01*
X21676158Y-23194151D02*
X21704730Y-23194151D01*
X21704730Y-23194151D02*
X21723777Y-23203674D01*
X21723777Y-23203674D02*
X21733301Y-23213198D01*
X21733301Y-23213198D02*
X21742825Y-23232246D01*
X21742825Y-23232246D02*
X21742825Y-23289389D01*
X21742825Y-23289389D02*
X21733301Y-23308436D01*
X21733301Y-23308436D02*
X21723777Y-23317960D01*
X21723777Y-23317960D02*
X21704730Y-23327484D01*
X21704730Y-23327484D02*
X21676158Y-23327484D01*
X21799968Y-23194151D02*
X21876158Y-23194151D01*
X21828539Y-23127484D02*
X21828539Y-23298912D01*
X21828539Y-23298912D02*
X21838063Y-23317960D01*
X21838063Y-23317960D02*
X21857111Y-23327484D01*
X21857111Y-23327484D02*
X21876158Y-23327484D01*
X22095206Y-23194151D02*
X22095206Y-23394151D01*
X22095206Y-23203674D02*
X22114253Y-23194151D01*
X22114253Y-23194151D02*
X22152349Y-23194151D01*
X22152349Y-23194151D02*
X22171396Y-23203674D01*
X22171396Y-23203674D02*
X22180920Y-23213198D01*
X22180920Y-23213198D02*
X22190444Y-23232246D01*
X22190444Y-23232246D02*
X22190444Y-23289389D01*
X22190444Y-23289389D02*
X22180920Y-23308436D01*
X22180920Y-23308436D02*
X22171396Y-23317960D01*
X22171396Y-23317960D02*
X22152349Y-23327484D01*
X22152349Y-23327484D02*
X22114253Y-23327484D01*
X22114253Y-23327484D02*
X22095206Y-23317960D01*
X22304730Y-23327484D02*
X22285682Y-23317960D01*
X22285682Y-23317960D02*
X22276158Y-23298912D01*
X22276158Y-23298912D02*
X22276158Y-23127484D01*
X22466634Y-23327484D02*
X22466634Y-23222722D01*
X22466634Y-23222722D02*
X22457111Y-23203674D01*
X22457111Y-23203674D02*
X22438063Y-23194151D01*
X22438063Y-23194151D02*
X22399968Y-23194151D01*
X22399968Y-23194151D02*
X22380920Y-23203674D01*
X22466634Y-23317960D02*
X22447587Y-23327484D01*
X22447587Y-23327484D02*
X22399968Y-23327484D01*
X22399968Y-23327484D02*
X22380920Y-23317960D01*
X22380920Y-23317960D02*
X22371396Y-23298912D01*
X22371396Y-23298912D02*
X22371396Y-23279865D01*
X22371396Y-23279865D02*
X22380920Y-23260817D01*
X22380920Y-23260817D02*
X22399968Y-23251293D01*
X22399968Y-23251293D02*
X22447587Y-23251293D01*
X22447587Y-23251293D02*
X22466634Y-23241770D01*
X22533301Y-23194151D02*
X22609491Y-23194151D01*
X22561872Y-23127484D02*
X22561872Y-23298912D01*
X22561872Y-23298912D02*
X22571396Y-23317960D01*
X22571396Y-23317960D02*
X22590444Y-23327484D01*
X22590444Y-23327484D02*
X22609491Y-23327484D01*
X22752349Y-23317960D02*
X22733301Y-23327484D01*
X22733301Y-23327484D02*
X22695206Y-23327484D01*
X22695206Y-23327484D02*
X22676158Y-23317960D01*
X22676158Y-23317960D02*
X22666634Y-23298912D01*
X22666634Y-23298912D02*
X22666634Y-23222722D01*
X22666634Y-23222722D02*
X22676158Y-23203674D01*
X22676158Y-23203674D02*
X22695206Y-23194151D01*
X22695206Y-23194151D02*
X22733301Y-23194151D01*
X22733301Y-23194151D02*
X22752349Y-23203674D01*
X22752349Y-23203674D02*
X22761872Y-23222722D01*
X22761872Y-23222722D02*
X22761872Y-23241770D01*
X22761872Y-23241770D02*
X22666634Y-23260817D01*
X22933301Y-23327484D02*
X22933301Y-23127484D01*
X22933301Y-23317960D02*
X22914253Y-23327484D01*
X22914253Y-23327484D02*
X22876158Y-23327484D01*
X22876158Y-23327484D02*
X22857111Y-23317960D01*
X22857111Y-23317960D02*
X22847587Y-23308436D01*
X22847587Y-23308436D02*
X22838063Y-23289389D01*
X22838063Y-23289389D02*
X22838063Y-23232246D01*
X22838063Y-23232246D02*
X22847587Y-23213198D01*
X22847587Y-23213198D02*
X22857111Y-23203674D01*
X22857111Y-23203674D02*
X22876158Y-23194151D01*
X22876158Y-23194151D02*
X22914253Y-23194151D01*
X22914253Y-23194151D02*
X22933301Y-23203674D01*
X23009492Y-23403674D02*
X23019015Y-23394151D01*
X23019015Y-23394151D02*
X23038063Y-23365579D01*
X23038063Y-23365579D02*
X23047587Y-23346532D01*
X23047587Y-23346532D02*
X23057111Y-23317960D01*
X23057111Y-23317960D02*
X23066634Y-23270341D01*
X23066634Y-23270341D02*
X23066634Y-23232246D01*
X23066634Y-23232246D02*
X23057111Y-23184627D01*
X23057111Y-23184627D02*
X23047587Y-23156055D01*
X23047587Y-23156055D02*
X23038063Y-23137008D01*
X23038063Y-23137008D02*
X23019015Y-23108436D01*
X23019015Y-23108436D02*
X23009492Y-23098912D01*
X16033711Y-23626712D02*
X16033711Y-23485289D01*
X15892288Y-23485289D01*
X15892288Y-23626712D01*
X16033711Y-23626712D01*
X16304729Y-23447484D02*
X16428539Y-23447484D01*
X16428539Y-23447484D02*
X16361872Y-23523674D01*
X16361872Y-23523674D02*
X16390443Y-23523674D01*
X16390443Y-23523674D02*
X16409491Y-23533198D01*
X16409491Y-23533198D02*
X16419015Y-23542722D01*
X16419015Y-23542722D02*
X16428539Y-23561770D01*
X16428539Y-23561770D02*
X16428539Y-23609389D01*
X16428539Y-23609389D02*
X16419015Y-23628436D01*
X16419015Y-23628436D02*
X16409491Y-23637960D01*
X16409491Y-23637960D02*
X16390443Y-23647484D01*
X16390443Y-23647484D02*
X16333300Y-23647484D01*
X16333300Y-23647484D02*
X16314253Y-23637960D01*
X16314253Y-23637960D02*
X16304729Y-23628436D01*
X16514253Y-23628436D02*
X16523777Y-23637960D01*
X16523777Y-23637960D02*
X16514253Y-23647484D01*
X16514253Y-23647484D02*
X16504729Y-23637960D01*
X16504729Y-23637960D02*
X16514253Y-23628436D01*
X16514253Y-23628436D02*
X16514253Y-23647484D01*
X16619015Y-23647484D02*
X16657110Y-23647484D01*
X16657110Y-23647484D02*
X16676158Y-23637960D01*
X16676158Y-23637960D02*
X16685681Y-23628436D01*
X16685681Y-23628436D02*
X16704729Y-23599865D01*
X16704729Y-23599865D02*
X16714253Y-23561770D01*
X16714253Y-23561770D02*
X16714253Y-23485579D01*
X16714253Y-23485579D02*
X16704729Y-23466532D01*
X16704729Y-23466532D02*
X16695205Y-23457008D01*
X16695205Y-23457008D02*
X16676158Y-23447484D01*
X16676158Y-23447484D02*
X16638062Y-23447484D01*
X16638062Y-23447484D02*
X16619015Y-23457008D01*
X16619015Y-23457008D02*
X16609491Y-23466532D01*
X16609491Y-23466532D02*
X16599967Y-23485579D01*
X16599967Y-23485579D02*
X16599967Y-23533198D01*
X16599967Y-23533198D02*
X16609491Y-23552246D01*
X16609491Y-23552246D02*
X16619015Y-23561770D01*
X16619015Y-23561770D02*
X16638062Y-23571293D01*
X16638062Y-23571293D02*
X16676158Y-23571293D01*
X16676158Y-23571293D02*
X16695205Y-23561770D01*
X16695205Y-23561770D02*
X16704729Y-23552246D01*
X16704729Y-23552246D02*
X16714253Y-23533198D01*
X16828539Y-23533198D02*
X16809491Y-23523674D01*
X16809491Y-23523674D02*
X16799967Y-23514151D01*
X16799967Y-23514151D02*
X16790443Y-23495103D01*
X16790443Y-23495103D02*
X16790443Y-23485579D01*
X16790443Y-23485579D02*
X16799967Y-23466532D01*
X16799967Y-23466532D02*
X16809491Y-23457008D01*
X16809491Y-23457008D02*
X16828539Y-23447484D01*
X16828539Y-23447484D02*
X16866634Y-23447484D01*
X16866634Y-23447484D02*
X16885682Y-23457008D01*
X16885682Y-23457008D02*
X16895205Y-23466532D01*
X16895205Y-23466532D02*
X16904729Y-23485579D01*
X16904729Y-23485579D02*
X16904729Y-23495103D01*
X16904729Y-23495103D02*
X16895205Y-23514151D01*
X16895205Y-23514151D02*
X16885682Y-23523674D01*
X16885682Y-23523674D02*
X16866634Y-23533198D01*
X16866634Y-23533198D02*
X16828539Y-23533198D01*
X16828539Y-23533198D02*
X16809491Y-23542722D01*
X16809491Y-23542722D02*
X16799967Y-23552246D01*
X16799967Y-23552246D02*
X16790443Y-23571293D01*
X16790443Y-23571293D02*
X16790443Y-23609389D01*
X16790443Y-23609389D02*
X16799967Y-23628436D01*
X16799967Y-23628436D02*
X16809491Y-23637960D01*
X16809491Y-23637960D02*
X16828539Y-23647484D01*
X16828539Y-23647484D02*
X16866634Y-23647484D01*
X16866634Y-23647484D02*
X16885682Y-23637960D01*
X16885682Y-23637960D02*
X16895205Y-23628436D01*
X16895205Y-23628436D02*
X16904729Y-23609389D01*
X16904729Y-23609389D02*
X16904729Y-23571293D01*
X16904729Y-23571293D02*
X16895205Y-23552246D01*
X16895205Y-23552246D02*
X16885682Y-23542722D01*
X16885682Y-23542722D02*
X16866634Y-23533198D01*
X17019015Y-23533198D02*
X16999967Y-23523674D01*
X16999967Y-23523674D02*
X16990443Y-23514151D01*
X16990443Y-23514151D02*
X16980920Y-23495103D01*
X16980920Y-23495103D02*
X16980920Y-23485579D01*
X16980920Y-23485579D02*
X16990443Y-23466532D01*
X16990443Y-23466532D02*
X16999967Y-23457008D01*
X16999967Y-23457008D02*
X17019015Y-23447484D01*
X17019015Y-23447484D02*
X17057110Y-23447484D01*
X17057110Y-23447484D02*
X17076158Y-23457008D01*
X17076158Y-23457008D02*
X17085682Y-23466532D01*
X17085682Y-23466532D02*
X17095205Y-23485579D01*
X17095205Y-23485579D02*
X17095205Y-23495103D01*
X17095205Y-23495103D02*
X17085682Y-23514151D01*
X17085682Y-23514151D02*
X17076158Y-23523674D01*
X17076158Y-23523674D02*
X17057110Y-23533198D01*
X17057110Y-23533198D02*
X17019015Y-23533198D01*
X17019015Y-23533198D02*
X16999967Y-23542722D01*
X16999967Y-23542722D02*
X16990443Y-23552246D01*
X16990443Y-23552246D02*
X16980920Y-23571293D01*
X16980920Y-23571293D02*
X16980920Y-23609389D01*
X16980920Y-23609389D02*
X16990443Y-23628436D01*
X16990443Y-23628436D02*
X16999967Y-23637960D01*
X16999967Y-23637960D02*
X17019015Y-23647484D01*
X17019015Y-23647484D02*
X17057110Y-23647484D01*
X17057110Y-23647484D02*
X17076158Y-23637960D01*
X17076158Y-23637960D02*
X17085682Y-23628436D01*
X17085682Y-23628436D02*
X17095205Y-23609389D01*
X17095205Y-23609389D02*
X17095205Y-23571293D01*
X17095205Y-23571293D02*
X17085682Y-23552246D01*
X17085682Y-23552246D02*
X17076158Y-23542722D01*
X17076158Y-23542722D02*
X17057110Y-23533198D01*
X17180920Y-23647484D02*
X17180920Y-23514151D01*
X17180920Y-23533198D02*
X17190443Y-23523674D01*
X17190443Y-23523674D02*
X17209491Y-23514151D01*
X17209491Y-23514151D02*
X17238063Y-23514151D01*
X17238063Y-23514151D02*
X17257110Y-23523674D01*
X17257110Y-23523674D02*
X17266634Y-23542722D01*
X17266634Y-23542722D02*
X17266634Y-23647484D01*
X17266634Y-23542722D02*
X17276158Y-23523674D01*
X17276158Y-23523674D02*
X17295205Y-23514151D01*
X17295205Y-23514151D02*
X17323777Y-23514151D01*
X17323777Y-23514151D02*
X17342824Y-23523674D01*
X17342824Y-23523674D02*
X17352348Y-23542722D01*
X17352348Y-23542722D02*
X17352348Y-23647484D01*
X17447586Y-23647484D02*
X17447586Y-23514151D01*
X17447586Y-23533198D02*
X17457110Y-23523674D01*
X17457110Y-23523674D02*
X17476158Y-23514151D01*
X17476158Y-23514151D02*
X17504729Y-23514151D01*
X17504729Y-23514151D02*
X17523777Y-23523674D01*
X17523777Y-23523674D02*
X17533301Y-23542722D01*
X17533301Y-23542722D02*
X17533301Y-23647484D01*
X17533301Y-23542722D02*
X17542824Y-23523674D01*
X17542824Y-23523674D02*
X17561872Y-23514151D01*
X17561872Y-23514151D02*
X17590443Y-23514151D01*
X17590443Y-23514151D02*
X17609491Y-23523674D01*
X17609491Y-23523674D02*
X17619015Y-23542722D01*
X17619015Y-23542722D02*
X17619015Y-23647484D01*
X18009491Y-23437960D02*
X17838063Y-23695103D01*
X18266634Y-23447484D02*
X18285682Y-23447484D01*
X18285682Y-23447484D02*
X18304729Y-23457008D01*
X18304729Y-23457008D02*
X18314253Y-23466532D01*
X18314253Y-23466532D02*
X18323777Y-23485579D01*
X18323777Y-23485579D02*
X18333301Y-23523674D01*
X18333301Y-23523674D02*
X18333301Y-23571293D01*
X18333301Y-23571293D02*
X18323777Y-23609389D01*
X18323777Y-23609389D02*
X18314253Y-23628436D01*
X18314253Y-23628436D02*
X18304729Y-23637960D01*
X18304729Y-23637960D02*
X18285682Y-23647484D01*
X18285682Y-23647484D02*
X18266634Y-23647484D01*
X18266634Y-23647484D02*
X18247586Y-23637960D01*
X18247586Y-23637960D02*
X18238063Y-23628436D01*
X18238063Y-23628436D02*
X18228539Y-23609389D01*
X18228539Y-23609389D02*
X18219015Y-23571293D01*
X18219015Y-23571293D02*
X18219015Y-23523674D01*
X18219015Y-23523674D02*
X18228539Y-23485579D01*
X18228539Y-23485579D02*
X18238063Y-23466532D01*
X18238063Y-23466532D02*
X18247586Y-23457008D01*
X18247586Y-23457008D02*
X18266634Y-23447484D01*
X18419015Y-23628436D02*
X18428539Y-23637960D01*
X18428539Y-23637960D02*
X18419015Y-23647484D01*
X18419015Y-23647484D02*
X18409491Y-23637960D01*
X18409491Y-23637960D02*
X18419015Y-23628436D01*
X18419015Y-23628436D02*
X18419015Y-23647484D01*
X18619015Y-23647484D02*
X18504729Y-23647484D01*
X18561872Y-23647484D02*
X18561872Y-23447484D01*
X18561872Y-23447484D02*
X18542825Y-23476055D01*
X18542825Y-23476055D02*
X18523777Y-23495103D01*
X18523777Y-23495103D02*
X18504729Y-23504627D01*
X18799967Y-23447484D02*
X18704729Y-23447484D01*
X18704729Y-23447484D02*
X18695206Y-23542722D01*
X18695206Y-23542722D02*
X18704729Y-23533198D01*
X18704729Y-23533198D02*
X18723777Y-23523674D01*
X18723777Y-23523674D02*
X18771396Y-23523674D01*
X18771396Y-23523674D02*
X18790444Y-23533198D01*
X18790444Y-23533198D02*
X18799967Y-23542722D01*
X18799967Y-23542722D02*
X18809491Y-23561770D01*
X18809491Y-23561770D02*
X18809491Y-23609389D01*
X18809491Y-23609389D02*
X18799967Y-23628436D01*
X18799967Y-23628436D02*
X18790444Y-23637960D01*
X18790444Y-23637960D02*
X18771396Y-23647484D01*
X18771396Y-23647484D02*
X18723777Y-23647484D01*
X18723777Y-23647484D02*
X18704729Y-23637960D01*
X18704729Y-23637960D02*
X18695206Y-23628436D01*
X18876158Y-23447484D02*
X19009491Y-23447484D01*
X19009491Y-23447484D02*
X18923777Y-23647484D01*
X19123777Y-23447484D02*
X19142825Y-23447484D01*
X19142825Y-23447484D02*
X19161872Y-23457008D01*
X19161872Y-23457008D02*
X19171396Y-23466532D01*
X19171396Y-23466532D02*
X19180920Y-23485579D01*
X19180920Y-23485579D02*
X19190444Y-23523674D01*
X19190444Y-23523674D02*
X19190444Y-23571293D01*
X19190444Y-23571293D02*
X19180920Y-23609389D01*
X19180920Y-23609389D02*
X19171396Y-23628436D01*
X19171396Y-23628436D02*
X19161872Y-23637960D01*
X19161872Y-23637960D02*
X19142825Y-23647484D01*
X19142825Y-23647484D02*
X19123777Y-23647484D01*
X19123777Y-23647484D02*
X19104729Y-23637960D01*
X19104729Y-23637960D02*
X19095206Y-23628436D01*
X19095206Y-23628436D02*
X19085682Y-23609389D01*
X19085682Y-23609389D02*
X19076158Y-23571293D01*
X19076158Y-23571293D02*
X19076158Y-23523674D01*
X19076158Y-23523674D02*
X19085682Y-23485579D01*
X19085682Y-23485579D02*
X19095206Y-23466532D01*
X19095206Y-23466532D02*
X19104729Y-23457008D01*
X19104729Y-23457008D02*
X19123777Y-23447484D01*
X19266634Y-23447484D02*
X19266634Y-23485579D01*
X19342825Y-23447484D02*
X19342825Y-23485579D01*
X19638063Y-23723674D02*
X19628539Y-23714151D01*
X19628539Y-23714151D02*
X19609491Y-23685579D01*
X19609491Y-23685579D02*
X19599968Y-23666532D01*
X19599968Y-23666532D02*
X19590444Y-23637960D01*
X19590444Y-23637960D02*
X19580920Y-23590341D01*
X19580920Y-23590341D02*
X19580920Y-23552246D01*
X19580920Y-23552246D02*
X19590444Y-23504627D01*
X19590444Y-23504627D02*
X19599968Y-23476055D01*
X19599968Y-23476055D02*
X19609491Y-23457008D01*
X19609491Y-23457008D02*
X19628539Y-23428436D01*
X19628539Y-23428436D02*
X19638063Y-23418912D01*
X19695206Y-23447484D02*
X19828539Y-23447484D01*
X19828539Y-23447484D02*
X19742825Y-23647484D01*
X19999968Y-23447484D02*
X19904729Y-23447484D01*
X19904729Y-23447484D02*
X19895206Y-23542722D01*
X19895206Y-23542722D02*
X19904729Y-23533198D01*
X19904729Y-23533198D02*
X19923777Y-23523674D01*
X19923777Y-23523674D02*
X19971396Y-23523674D01*
X19971396Y-23523674D02*
X19990444Y-23533198D01*
X19990444Y-23533198D02*
X19999968Y-23542722D01*
X19999968Y-23542722D02*
X20009491Y-23561770D01*
X20009491Y-23561770D02*
X20009491Y-23609389D01*
X20009491Y-23609389D02*
X19999968Y-23628436D01*
X19999968Y-23628436D02*
X19990444Y-23637960D01*
X19990444Y-23637960D02*
X19971396Y-23647484D01*
X19971396Y-23647484D02*
X19923777Y-23647484D01*
X19923777Y-23647484D02*
X19904729Y-23637960D01*
X19904729Y-23637960D02*
X19895206Y-23628436D01*
X20247587Y-23647484D02*
X20247587Y-23447484D01*
X20333301Y-23647484D02*
X20333301Y-23542722D01*
X20333301Y-23542722D02*
X20323777Y-23523674D01*
X20323777Y-23523674D02*
X20304730Y-23514151D01*
X20304730Y-23514151D02*
X20276158Y-23514151D01*
X20276158Y-23514151D02*
X20257110Y-23523674D01*
X20257110Y-23523674D02*
X20247587Y-23533198D01*
X20457110Y-23647484D02*
X20438063Y-23637960D01*
X20438063Y-23637960D02*
X20428539Y-23628436D01*
X20428539Y-23628436D02*
X20419015Y-23609389D01*
X20419015Y-23609389D02*
X20419015Y-23552246D01*
X20419015Y-23552246D02*
X20428539Y-23533198D01*
X20428539Y-23533198D02*
X20438063Y-23523674D01*
X20438063Y-23523674D02*
X20457110Y-23514151D01*
X20457110Y-23514151D02*
X20485682Y-23514151D01*
X20485682Y-23514151D02*
X20504730Y-23523674D01*
X20504730Y-23523674D02*
X20514253Y-23533198D01*
X20514253Y-23533198D02*
X20523777Y-23552246D01*
X20523777Y-23552246D02*
X20523777Y-23609389D01*
X20523777Y-23609389D02*
X20514253Y-23628436D01*
X20514253Y-23628436D02*
X20504730Y-23637960D01*
X20504730Y-23637960D02*
X20485682Y-23647484D01*
X20485682Y-23647484D02*
X20457110Y-23647484D01*
X20638063Y-23647484D02*
X20619015Y-23637960D01*
X20619015Y-23637960D02*
X20609491Y-23618912D01*
X20609491Y-23618912D02*
X20609491Y-23447484D01*
X20790444Y-23637960D02*
X20771396Y-23647484D01*
X20771396Y-23647484D02*
X20733301Y-23647484D01*
X20733301Y-23647484D02*
X20714253Y-23637960D01*
X20714253Y-23637960D02*
X20704730Y-23618912D01*
X20704730Y-23618912D02*
X20704730Y-23542722D01*
X20704730Y-23542722D02*
X20714253Y-23523674D01*
X20714253Y-23523674D02*
X20733301Y-23514151D01*
X20733301Y-23514151D02*
X20771396Y-23514151D01*
X20771396Y-23514151D02*
X20790444Y-23523674D01*
X20790444Y-23523674D02*
X20799968Y-23542722D01*
X20799968Y-23542722D02*
X20799968Y-23561770D01*
X20799968Y-23561770D02*
X20704730Y-23580817D01*
X20876158Y-23637960D02*
X20895206Y-23647484D01*
X20895206Y-23647484D02*
X20933301Y-23647484D01*
X20933301Y-23647484D02*
X20952349Y-23637960D01*
X20952349Y-23637960D02*
X20961872Y-23618912D01*
X20961872Y-23618912D02*
X20961872Y-23609389D01*
X20961872Y-23609389D02*
X20952349Y-23590341D01*
X20952349Y-23590341D02*
X20933301Y-23580817D01*
X20933301Y-23580817D02*
X20904730Y-23580817D01*
X20904730Y-23580817D02*
X20885682Y-23571293D01*
X20885682Y-23571293D02*
X20876158Y-23552246D01*
X20876158Y-23552246D02*
X20876158Y-23542722D01*
X20876158Y-23542722D02*
X20885682Y-23523674D01*
X20885682Y-23523674D02*
X20904730Y-23514151D01*
X20904730Y-23514151D02*
X20933301Y-23514151D01*
X20933301Y-23514151D02*
X20952349Y-23523674D01*
X21028539Y-23723674D02*
X21038063Y-23714151D01*
X21038063Y-23714151D02*
X21057111Y-23685579D01*
X21057111Y-23685579D02*
X21066634Y-23666532D01*
X21066634Y-23666532D02*
X21076158Y-23637960D01*
X21076158Y-23637960D02*
X21085682Y-23590341D01*
X21085682Y-23590341D02*
X21085682Y-23552246D01*
X21085682Y-23552246D02*
X21076158Y-23504627D01*
X21076158Y-23504627D02*
X21066634Y-23476055D01*
X21066634Y-23476055D02*
X21057111Y-23457008D01*
X21057111Y-23457008D02*
X21038063Y-23428436D01*
X21038063Y-23428436D02*
X21028539Y-23418912D01*
X21390444Y-23723674D02*
X21380920Y-23714151D01*
X21380920Y-23714151D02*
X21361872Y-23685579D01*
X21361872Y-23685579D02*
X21352349Y-23666532D01*
X21352349Y-23666532D02*
X21342825Y-23637960D01*
X21342825Y-23637960D02*
X21333301Y-23590341D01*
X21333301Y-23590341D02*
X21333301Y-23552246D01*
X21333301Y-23552246D02*
X21342825Y-23504627D01*
X21342825Y-23504627D02*
X21352349Y-23476055D01*
X21352349Y-23476055D02*
X21361872Y-23457008D01*
X21361872Y-23457008D02*
X21380920Y-23428436D01*
X21380920Y-23428436D02*
X21390444Y-23418912D01*
X21466634Y-23514151D02*
X21466634Y-23647484D01*
X21466634Y-23533198D02*
X21476158Y-23523674D01*
X21476158Y-23523674D02*
X21495206Y-23514151D01*
X21495206Y-23514151D02*
X21523777Y-23514151D01*
X21523777Y-23514151D02*
X21542825Y-23523674D01*
X21542825Y-23523674D02*
X21552349Y-23542722D01*
X21552349Y-23542722D02*
X21552349Y-23647484D01*
X21676158Y-23647484D02*
X21657111Y-23637960D01*
X21657111Y-23637960D02*
X21647587Y-23628436D01*
X21647587Y-23628436D02*
X21638063Y-23609389D01*
X21638063Y-23609389D02*
X21638063Y-23552246D01*
X21638063Y-23552246D02*
X21647587Y-23533198D01*
X21647587Y-23533198D02*
X21657111Y-23523674D01*
X21657111Y-23523674D02*
X21676158Y-23514151D01*
X21676158Y-23514151D02*
X21704730Y-23514151D01*
X21704730Y-23514151D02*
X21723777Y-23523674D01*
X21723777Y-23523674D02*
X21733301Y-23533198D01*
X21733301Y-23533198D02*
X21742825Y-23552246D01*
X21742825Y-23552246D02*
X21742825Y-23609389D01*
X21742825Y-23609389D02*
X21733301Y-23628436D01*
X21733301Y-23628436D02*
X21723777Y-23637960D01*
X21723777Y-23637960D02*
X21704730Y-23647484D01*
X21704730Y-23647484D02*
X21676158Y-23647484D01*
X21799968Y-23514151D02*
X21876158Y-23514151D01*
X21828539Y-23447484D02*
X21828539Y-23618912D01*
X21828539Y-23618912D02*
X21838063Y-23637960D01*
X21838063Y-23637960D02*
X21857111Y-23647484D01*
X21857111Y-23647484D02*
X21876158Y-23647484D01*
X22095206Y-23514151D02*
X22095206Y-23714151D01*
X22095206Y-23523674D02*
X22114253Y-23514151D01*
X22114253Y-23514151D02*
X22152349Y-23514151D01*
X22152349Y-23514151D02*
X22171396Y-23523674D01*
X22171396Y-23523674D02*
X22180920Y-23533198D01*
X22180920Y-23533198D02*
X22190444Y-23552246D01*
X22190444Y-23552246D02*
X22190444Y-23609389D01*
X22190444Y-23609389D02*
X22180920Y-23628436D01*
X22180920Y-23628436D02*
X22171396Y-23637960D01*
X22171396Y-23637960D02*
X22152349Y-23647484D01*
X22152349Y-23647484D02*
X22114253Y-23647484D01*
X22114253Y-23647484D02*
X22095206Y-23637960D01*
X22304730Y-23647484D02*
X22285682Y-23637960D01*
X22285682Y-23637960D02*
X22276158Y-23618912D01*
X22276158Y-23618912D02*
X22276158Y-23447484D01*
X22466634Y-23647484D02*
X22466634Y-23542722D01*
X22466634Y-23542722D02*
X22457111Y-23523674D01*
X22457111Y-23523674D02*
X22438063Y-23514151D01*
X22438063Y-23514151D02*
X22399968Y-23514151D01*
X22399968Y-23514151D02*
X22380920Y-23523674D01*
X22466634Y-23637960D02*
X22447587Y-23647484D01*
X22447587Y-23647484D02*
X22399968Y-23647484D01*
X22399968Y-23647484D02*
X22380920Y-23637960D01*
X22380920Y-23637960D02*
X22371396Y-23618912D01*
X22371396Y-23618912D02*
X22371396Y-23599865D01*
X22371396Y-23599865D02*
X22380920Y-23580817D01*
X22380920Y-23580817D02*
X22399968Y-23571293D01*
X22399968Y-23571293D02*
X22447587Y-23571293D01*
X22447587Y-23571293D02*
X22466634Y-23561770D01*
X22533301Y-23514151D02*
X22609491Y-23514151D01*
X22561872Y-23447484D02*
X22561872Y-23618912D01*
X22561872Y-23618912D02*
X22571396Y-23637960D01*
X22571396Y-23637960D02*
X22590444Y-23647484D01*
X22590444Y-23647484D02*
X22609491Y-23647484D01*
X22752349Y-23637960D02*
X22733301Y-23647484D01*
X22733301Y-23647484D02*
X22695206Y-23647484D01*
X22695206Y-23647484D02*
X22676158Y-23637960D01*
X22676158Y-23637960D02*
X22666634Y-23618912D01*
X22666634Y-23618912D02*
X22666634Y-23542722D01*
X22666634Y-23542722D02*
X22676158Y-23523674D01*
X22676158Y-23523674D02*
X22695206Y-23514151D01*
X22695206Y-23514151D02*
X22733301Y-23514151D01*
X22733301Y-23514151D02*
X22752349Y-23523674D01*
X22752349Y-23523674D02*
X22761872Y-23542722D01*
X22761872Y-23542722D02*
X22761872Y-23561770D01*
X22761872Y-23561770D02*
X22666634Y-23580817D01*
X22933301Y-23647484D02*
X22933301Y-23447484D01*
X22933301Y-23637960D02*
X22914253Y-23647484D01*
X22914253Y-23647484D02*
X22876158Y-23647484D01*
X22876158Y-23647484D02*
X22857111Y-23637960D01*
X22857111Y-23637960D02*
X22847587Y-23628436D01*
X22847587Y-23628436D02*
X22838063Y-23609389D01*
X22838063Y-23609389D02*
X22838063Y-23552246D01*
X22838063Y-23552246D02*
X22847587Y-23533198D01*
X22847587Y-23533198D02*
X22857111Y-23523674D01*
X22857111Y-23523674D02*
X22876158Y-23514151D01*
X22876158Y-23514151D02*
X22914253Y-23514151D01*
X22914253Y-23514151D02*
X22933301Y-23523674D01*
X23009492Y-23723674D02*
X23019015Y-23714151D01*
X23019015Y-23714151D02*
X23038063Y-23685579D01*
X23038063Y-23685579D02*
X23047587Y-23666532D01*
X23047587Y-23666532D02*
X23057111Y-23637960D01*
X23057111Y-23637960D02*
X23066634Y-23590341D01*
X23066634Y-23590341D02*
X23066634Y-23552246D01*
X23066634Y-23552246D02*
X23057111Y-23504627D01*
X23057111Y-23504627D02*
X23047587Y-23476055D01*
X23047587Y-23476055D02*
X23038063Y-23457008D01*
X23038063Y-23457008D02*
X23019015Y-23428436D01*
X23019015Y-23428436D02*
X23009492Y-23418912D01*
M02*
