M48
; DRILL file {KiCad 8.0.0} date 2024-12-17T17:36:34-0800
; FORMAT={-:-/ absolute / inch / decimal}
; #@! TF.CreationDate,2024-12-17T17:36:34-08:00
; #@! TF.GenerationSoftware,Kicad,Pcbnew,8.0.0
; #@! TF.FileFunction,NonPlated,1,2,NPTH
FMAT,2
INCH
; #@! TA.AperFunction,NonPlated,NPTH,ComponentDrill
T1C0.0256
; #@! TA.AperFunction,NonPlated,NPTH,ComponentDrill
T2C0.0689
; #@! TA.AperFunction,NonPlated,NPTH,ComponentDrill
T3C0.1200
; #@! TA.AperFunction,NonPlated,NPTH,ComponentDrill
T4C0.1570
%
G90
G05
T1
X5.4362Y-6.2153
X5.6638Y-6.2153
T2
X4.7202Y-7.2659
X4.7202Y-8.0159
X4.7202Y-8.7659
X4.7202Y-9.5159
X5.0952Y-10.2659
X5.1202Y-7.2659
X5.1202Y-8.0159
X5.1202Y-8.7659
X5.1202Y-9.5159
X5.4702Y-7.2659
X5.4702Y-8.0159
X5.4702Y-8.7659
X5.4702Y-9.5159
X5.4952Y-10.2659
X5.8702Y-7.2659
X5.8702Y-8.0159
X5.8702Y-8.7659
X5.8702Y-9.5159
X6.2202Y-7.2659
X6.2202Y-8.0159
X6.2202Y-8.7659
X6.2202Y-9.5159
X6.2202Y-10.2659
X6.6202Y-7.2659
X6.6202Y-8.0159
X6.6202Y-8.7659
X6.6202Y-9.5159
X6.6202Y-10.2659
X6.9702Y-7.2659
X7.1702Y-8.1909
X7.1702Y-8.5909
X7.171Y-9.6918
X7.171Y-10.0918
X7.3702Y-7.2659
X7.91Y-6.515
X7.91Y-7.265
X8.0007Y-10.2648
X8.097Y-8.0151
X8.19Y-8.765
X8.31Y-6.515
X8.31Y-7.265
X8.375Y-9.515
X8.4007Y-10.2648
X8.497Y-8.0151
X8.59Y-8.765
X8.66Y-7.265
X8.775Y-9.515
X8.845Y-6.515
X8.9383Y-10.2647
X9.035Y-8.015
X9.06Y-7.265
X9.2216Y-8.765
X9.245Y-6.515
X9.3383Y-10.2647
X9.41Y-7.265
X9.435Y-8.015
X9.595Y-6.515
X9.595Y-9.515
X9.6216Y-8.765
X9.785Y-8.015
X9.81Y-7.265
X9.8757Y-10.2648
X9.9716Y-8.765
X9.995Y-6.515
X9.995Y-9.515
X10.16Y-7.265
X10.185Y-8.015
X10.2757Y-10.2648
X10.345Y-6.515
X10.345Y-9.515
X10.3716Y-8.765
X10.535Y-8.015
X10.56Y-7.265
X10.7216Y-8.765
X10.745Y-6.515
X10.745Y-9.515
X10.91Y-7.265
X10.935Y-8.015
X11.095Y-6.515
X11.095Y-9.515
X11.1216Y-8.765
X11.19Y-10.265
X11.285Y-8.015
X11.31Y-7.265
X11.3781Y-10.2652
X11.4716Y-8.765
X11.495Y-6.515
X11.495Y-9.515
X11.59Y-10.265
X11.66Y-7.265
X11.685Y-8.015
X11.7781Y-10.2652
X11.845Y-9.515
X11.8716Y-8.765
X12.035Y-6.515
X12.035Y-8.015
X12.06Y-7.265
X12.2216Y-8.765
X12.245Y-9.515
X12.41Y-7.265
X12.435Y-6.515
X12.435Y-8.015
X12.595Y-9.515
X12.6216Y-8.765
X12.6913Y-10.265
X12.785Y-6.515
X12.785Y-8.015
X12.81Y-7.265
X12.8781Y-10.2652
X12.9716Y-8.765
X12.995Y-9.515
X13.0913Y-10.265
X13.16Y-7.265
X13.185Y-6.515
X13.185Y-8.015
X13.2781Y-10.2652
X13.345Y-9.515
X13.3716Y-8.765
X13.535Y-6.515
X13.535Y-8.015
X13.56Y-7.265
X13.7216Y-8.765
X13.745Y-9.515
X13.91Y-7.265
X13.935Y-6.515
X13.935Y-8.015
X14.095Y-9.515
X14.1216Y-8.765
X14.19Y-10.265
X14.285Y-6.515
X14.285Y-8.015
X14.31Y-7.265
X14.4716Y-8.765
X14.495Y-9.515
X14.59Y-10.265
X14.66Y-7.265
X14.685Y-6.515
X14.685Y-8.015
X14.845Y-9.515
X14.8716Y-8.765
X15.035Y-8.015
X15.06Y-7.265
X15.2216Y-8.765
X15.225Y-6.515
X15.245Y-9.515
X15.41Y-7.265
X15.41Y-10.265
X15.435Y-8.015
X15.595Y-9.515
X15.6216Y-8.765
X15.625Y-6.515
X15.785Y-8.015
X15.81Y-7.265
X15.81Y-10.265
X15.9716Y-8.765
X15.975Y-6.515
X15.995Y-9.515
X16.16Y-7.265
X16.16Y-10.265
X16.185Y-8.015
X16.3716Y-8.765
X16.375Y-6.515
X16.535Y-8.015
X16.56Y-7.265
X16.56Y-10.265
X16.6266Y-9.5148
X16.7216Y-8.765
X16.725Y-6.515
X16.91Y-7.265
X16.91Y-10.265
X16.935Y-8.015
X17.0266Y-9.5148
X17.1216Y-8.765
X17.125Y-6.515
X17.285Y-8.015
X17.31Y-7.265
X17.31Y-10.265
X17.475Y-6.515
X17.66Y-9.515
X17.66Y-10.265
X17.685Y-8.015
X17.875Y-6.515
X17.9416Y-8.765
X18.035Y-7.265
X18.06Y-9.515
X18.06Y-10.265
X18.2224Y-8.0149
X18.3416Y-8.765
X18.41Y-6.515
X18.41Y-9.515
X18.41Y-10.265
X18.435Y-7.265
X18.6224Y-8.0149
X18.81Y-6.515
X18.81Y-9.515
X18.81Y-10.265
T3
X4.8267Y-10.5409
X5.7642Y-10.5409
X6.895Y-7.9225
X6.895Y-8.86
X6.8954Y-9.4226
X6.8954Y-10.3601
X8.1075Y-9.24
X9.045Y-9.24
X10.9225Y-10.54
X11.1091Y-10.5402
X11.86Y-10.54
X12.0466Y-10.5402
X13.9225Y-10.54
X14.86Y-10.54
X17.6716Y-8.49
X17.7668Y-6.99
X18.6091Y-8.49
X18.7043Y-6.99
T4
X4.8267Y-9.9409
X4.9202Y-7.2659
X4.9202Y-8.0159
X4.9202Y-8.7659
X4.9202Y-9.5159
X5.2952Y-10.2659
X5.6702Y-7.2659
X5.6702Y-8.0159
X5.6702Y-8.7659
X5.6702Y-9.5159
X5.7642Y-9.9409
X6.4202Y-7.2659
X6.4202Y-8.0159
X6.4202Y-8.7659
X6.4202Y-9.5159
X6.4202Y-10.2659
X7.1702Y-7.2659
X7.1702Y-8.3909
X7.171Y-9.8918
X7.495Y-7.9225
X7.495Y-8.86
X7.4954Y-9.4226
X7.4954Y-10.3601
X8.1075Y-9.84
X8.11Y-6.515
X8.11Y-7.265
X8.2007Y-10.2648
X8.297Y-8.0151
X8.39Y-8.765
X8.575Y-9.515
X8.86Y-7.265
X9.045Y-6.515
X9.045Y-9.84
X9.1383Y-10.2647
X9.235Y-8.015
X9.4216Y-8.765
X9.61Y-7.265
X9.795Y-6.515
X9.795Y-9.515
X9.985Y-8.015
X10.0757Y-10.2648
X10.1716Y-8.765
X10.36Y-7.265
X10.545Y-6.515
X10.545Y-9.515
X10.735Y-8.015
X10.9216Y-8.765
X10.9225Y-9.94
X11.1091Y-9.9402
X11.11Y-7.265
X11.295Y-6.515
X11.295Y-9.515
X11.39Y-10.265
X11.485Y-8.015
X11.5781Y-10.2652
X11.6716Y-8.765
X11.86Y-7.265
X11.86Y-9.94
X12.045Y-9.515
X12.0466Y-9.9402
X12.235Y-6.515
X12.235Y-8.015
X12.4216Y-8.765
X12.61Y-7.265
X12.795Y-9.515
X12.8913Y-10.265
X12.985Y-6.515
X12.985Y-8.015
X13.0781Y-10.2652
X13.1716Y-8.765
X13.36Y-7.265
X13.545Y-9.515
X13.735Y-6.515
X13.735Y-8.015
X13.9216Y-8.765
X13.9225Y-9.94
X14.11Y-7.265
X14.295Y-9.515
X14.39Y-10.265
X14.485Y-6.515
X14.485Y-8.015
X14.6716Y-8.765
X14.86Y-7.265
X14.86Y-9.94
X15.045Y-9.515
X15.235Y-8.015
X15.4216Y-8.765
X15.425Y-6.515
X15.61Y-7.265
X15.61Y-10.265
X15.795Y-9.515
X15.985Y-8.015
X16.1716Y-8.765
X16.175Y-6.515
X16.36Y-7.265
X16.36Y-10.265
X16.735Y-8.015
X16.8266Y-9.5148
X16.9216Y-8.765
X16.925Y-6.515
X17.11Y-7.265
X17.11Y-10.265
X17.485Y-8.015
X17.6716Y-9.09
X17.675Y-6.515
X17.7668Y-7.59
X17.86Y-9.515
X17.86Y-10.265
X18.1416Y-8.765
X18.235Y-7.265
X18.4224Y-8.0149
X18.6091Y-9.09
X18.61Y-6.515
X18.61Y-9.515
X18.61Y-10.265
X18.7043Y-7.59
M30
