G04 #@! TF.GenerationSoftware,KiCad,Pcbnew,8.0.0*
G04 #@! TF.CreationDate,2024-12-17T17:36:13-08:00*
G04 #@! TF.ProjectId,Hampter3.1,48616d70-7465-4723-932e-312e6b696361,rev?*
G04 #@! TF.SameCoordinates,Original*
G04 #@! TF.FileFunction,Legend,Top*
G04 #@! TF.FilePolarity,Positive*
%FSLAX46Y46*%
G04 Gerber Fmt 4.6, Leading zero omitted, Abs format (unit mm)*
G04 Created by KiCad (PCBNEW 8.0.0) date 2024-12-17 17:36:13*
%MOMM*%
%LPD*%
G01*
G04 APERTURE LIST*
%ADD10C,0.100000*%
%ADD11C,0.150000*%
%ADD12C,0.300000*%
%ADD13C,0.400000*%
%ADD14C,0.200000*%
%ADD15C,0.500000*%
%ADD16C,0.120000*%
%ADD17C,0.000000*%
G04 APERTURE END LIST*
D10*
D11*
X474004400Y-375989000D02*
X582004400Y-375989000D01*
X582004400Y-407989000D01*
X474004400Y-407989000D01*
X474004400Y-375989000D01*
D10*
D11*
X10000000Y-10000000D02*
X584004400Y-10000000D01*
X584004400Y-409989000D01*
X10000000Y-409989000D01*
X10000000Y-10000000D01*
D10*
D11*
X12000000Y-12000000D02*
X582004400Y-12000000D01*
X582004400Y-407989000D01*
X12000000Y-407989000D01*
X12000000Y-12000000D01*
D10*
D11*
X60000000Y-12000000D02*
X60000000Y-10000000D01*
D10*
D11*
X110000000Y-12000000D02*
X110000000Y-10000000D01*
D10*
D11*
X160000000Y-12000000D02*
X160000000Y-10000000D01*
D10*
D11*
X210000000Y-12000000D02*
X210000000Y-10000000D01*
D10*
D11*
X260000000Y-12000000D02*
X260000000Y-10000000D01*
D10*
D11*
X310000000Y-12000000D02*
X310000000Y-10000000D01*
D10*
D11*
X360000000Y-12000000D02*
X360000000Y-10000000D01*
D10*
D11*
X410000000Y-12000000D02*
X410000000Y-10000000D01*
D10*
D11*
X460000000Y-12000000D02*
X460000000Y-10000000D01*
D10*
D11*
X510000000Y-12000000D02*
X510000000Y-10000000D01*
D10*
D11*
X560000000Y-12000000D02*
X560000000Y-10000000D01*
D10*
D11*
X36089160Y-11593604D02*
X35346303Y-11593604D01*
X35717731Y-11593604D02*
X35717731Y-10293604D01*
X35717731Y-10293604D02*
X35593922Y-10479319D01*
X35593922Y-10479319D02*
X35470112Y-10603128D01*
X35470112Y-10603128D02*
X35346303Y-10665033D01*
D10*
D11*
X85346303Y-10417414D02*
X85408207Y-10355509D01*
X85408207Y-10355509D02*
X85532017Y-10293604D01*
X85532017Y-10293604D02*
X85841541Y-10293604D01*
X85841541Y-10293604D02*
X85965350Y-10355509D01*
X85965350Y-10355509D02*
X86027255Y-10417414D01*
X86027255Y-10417414D02*
X86089160Y-10541223D01*
X86089160Y-10541223D02*
X86089160Y-10665033D01*
X86089160Y-10665033D02*
X86027255Y-10850747D01*
X86027255Y-10850747D02*
X85284398Y-11593604D01*
X85284398Y-11593604D02*
X86089160Y-11593604D01*
D10*
D11*
X135284398Y-10293604D02*
X136089160Y-10293604D01*
X136089160Y-10293604D02*
X135655826Y-10788842D01*
X135655826Y-10788842D02*
X135841541Y-10788842D01*
X135841541Y-10788842D02*
X135965350Y-10850747D01*
X135965350Y-10850747D02*
X136027255Y-10912652D01*
X136027255Y-10912652D02*
X136089160Y-11036461D01*
X136089160Y-11036461D02*
X136089160Y-11345985D01*
X136089160Y-11345985D02*
X136027255Y-11469795D01*
X136027255Y-11469795D02*
X135965350Y-11531700D01*
X135965350Y-11531700D02*
X135841541Y-11593604D01*
X135841541Y-11593604D02*
X135470112Y-11593604D01*
X135470112Y-11593604D02*
X135346303Y-11531700D01*
X135346303Y-11531700D02*
X135284398Y-11469795D01*
D10*
D11*
X185965350Y-10726938D02*
X185965350Y-11593604D01*
X185655826Y-10231700D02*
X185346303Y-11160271D01*
X185346303Y-11160271D02*
X186151064Y-11160271D01*
D10*
D11*
X236027255Y-10293604D02*
X235408207Y-10293604D01*
X235408207Y-10293604D02*
X235346303Y-10912652D01*
X235346303Y-10912652D02*
X235408207Y-10850747D01*
X235408207Y-10850747D02*
X235532017Y-10788842D01*
X235532017Y-10788842D02*
X235841541Y-10788842D01*
X235841541Y-10788842D02*
X235965350Y-10850747D01*
X235965350Y-10850747D02*
X236027255Y-10912652D01*
X236027255Y-10912652D02*
X236089160Y-11036461D01*
X236089160Y-11036461D02*
X236089160Y-11345985D01*
X236089160Y-11345985D02*
X236027255Y-11469795D01*
X236027255Y-11469795D02*
X235965350Y-11531700D01*
X235965350Y-11531700D02*
X235841541Y-11593604D01*
X235841541Y-11593604D02*
X235532017Y-11593604D01*
X235532017Y-11593604D02*
X235408207Y-11531700D01*
X235408207Y-11531700D02*
X235346303Y-11469795D01*
D10*
D11*
X285965350Y-10293604D02*
X285717731Y-10293604D01*
X285717731Y-10293604D02*
X285593922Y-10355509D01*
X285593922Y-10355509D02*
X285532017Y-10417414D01*
X285532017Y-10417414D02*
X285408207Y-10603128D01*
X285408207Y-10603128D02*
X285346303Y-10850747D01*
X285346303Y-10850747D02*
X285346303Y-11345985D01*
X285346303Y-11345985D02*
X285408207Y-11469795D01*
X285408207Y-11469795D02*
X285470112Y-11531700D01*
X285470112Y-11531700D02*
X285593922Y-11593604D01*
X285593922Y-11593604D02*
X285841541Y-11593604D01*
X285841541Y-11593604D02*
X285965350Y-11531700D01*
X285965350Y-11531700D02*
X286027255Y-11469795D01*
X286027255Y-11469795D02*
X286089160Y-11345985D01*
X286089160Y-11345985D02*
X286089160Y-11036461D01*
X286089160Y-11036461D02*
X286027255Y-10912652D01*
X286027255Y-10912652D02*
X285965350Y-10850747D01*
X285965350Y-10850747D02*
X285841541Y-10788842D01*
X285841541Y-10788842D02*
X285593922Y-10788842D01*
X285593922Y-10788842D02*
X285470112Y-10850747D01*
X285470112Y-10850747D02*
X285408207Y-10912652D01*
X285408207Y-10912652D02*
X285346303Y-11036461D01*
D10*
D11*
X335284398Y-10293604D02*
X336151064Y-10293604D01*
X336151064Y-10293604D02*
X335593922Y-11593604D01*
D10*
D11*
X385593922Y-10850747D02*
X385470112Y-10788842D01*
X385470112Y-10788842D02*
X385408207Y-10726938D01*
X385408207Y-10726938D02*
X385346303Y-10603128D01*
X385346303Y-10603128D02*
X385346303Y-10541223D01*
X385346303Y-10541223D02*
X385408207Y-10417414D01*
X385408207Y-10417414D02*
X385470112Y-10355509D01*
X385470112Y-10355509D02*
X385593922Y-10293604D01*
X385593922Y-10293604D02*
X385841541Y-10293604D01*
X385841541Y-10293604D02*
X385965350Y-10355509D01*
X385965350Y-10355509D02*
X386027255Y-10417414D01*
X386027255Y-10417414D02*
X386089160Y-10541223D01*
X386089160Y-10541223D02*
X386089160Y-10603128D01*
X386089160Y-10603128D02*
X386027255Y-10726938D01*
X386027255Y-10726938D02*
X385965350Y-10788842D01*
X385965350Y-10788842D02*
X385841541Y-10850747D01*
X385841541Y-10850747D02*
X385593922Y-10850747D01*
X385593922Y-10850747D02*
X385470112Y-10912652D01*
X385470112Y-10912652D02*
X385408207Y-10974557D01*
X385408207Y-10974557D02*
X385346303Y-11098366D01*
X385346303Y-11098366D02*
X385346303Y-11345985D01*
X385346303Y-11345985D02*
X385408207Y-11469795D01*
X385408207Y-11469795D02*
X385470112Y-11531700D01*
X385470112Y-11531700D02*
X385593922Y-11593604D01*
X385593922Y-11593604D02*
X385841541Y-11593604D01*
X385841541Y-11593604D02*
X385965350Y-11531700D01*
X385965350Y-11531700D02*
X386027255Y-11469795D01*
X386027255Y-11469795D02*
X386089160Y-11345985D01*
X386089160Y-11345985D02*
X386089160Y-11098366D01*
X386089160Y-11098366D02*
X386027255Y-10974557D01*
X386027255Y-10974557D02*
X385965350Y-10912652D01*
X385965350Y-10912652D02*
X385841541Y-10850747D01*
D10*
D11*
X435470112Y-11593604D02*
X435717731Y-11593604D01*
X435717731Y-11593604D02*
X435841541Y-11531700D01*
X435841541Y-11531700D02*
X435903445Y-11469795D01*
X435903445Y-11469795D02*
X436027255Y-11284080D01*
X436027255Y-11284080D02*
X436089160Y-11036461D01*
X436089160Y-11036461D02*
X436089160Y-10541223D01*
X436089160Y-10541223D02*
X436027255Y-10417414D01*
X436027255Y-10417414D02*
X435965350Y-10355509D01*
X435965350Y-10355509D02*
X435841541Y-10293604D01*
X435841541Y-10293604D02*
X435593922Y-10293604D01*
X435593922Y-10293604D02*
X435470112Y-10355509D01*
X435470112Y-10355509D02*
X435408207Y-10417414D01*
X435408207Y-10417414D02*
X435346303Y-10541223D01*
X435346303Y-10541223D02*
X435346303Y-10850747D01*
X435346303Y-10850747D02*
X435408207Y-10974557D01*
X435408207Y-10974557D02*
X435470112Y-11036461D01*
X435470112Y-11036461D02*
X435593922Y-11098366D01*
X435593922Y-11098366D02*
X435841541Y-11098366D01*
X435841541Y-11098366D02*
X435965350Y-11036461D01*
X435965350Y-11036461D02*
X436027255Y-10974557D01*
X436027255Y-10974557D02*
X436089160Y-10850747D01*
D10*
D11*
X486089160Y-11593604D02*
X485346303Y-11593604D01*
X485717731Y-11593604D02*
X485717731Y-10293604D01*
X485717731Y-10293604D02*
X485593922Y-10479319D01*
X485593922Y-10479319D02*
X485470112Y-10603128D01*
X485470112Y-10603128D02*
X485346303Y-10665033D01*
X486893921Y-10293604D02*
X487017731Y-10293604D01*
X487017731Y-10293604D02*
X487141540Y-10355509D01*
X487141540Y-10355509D02*
X487203445Y-10417414D01*
X487203445Y-10417414D02*
X487265350Y-10541223D01*
X487265350Y-10541223D02*
X487327255Y-10788842D01*
X487327255Y-10788842D02*
X487327255Y-11098366D01*
X487327255Y-11098366D02*
X487265350Y-11345985D01*
X487265350Y-11345985D02*
X487203445Y-11469795D01*
X487203445Y-11469795D02*
X487141540Y-11531700D01*
X487141540Y-11531700D02*
X487017731Y-11593604D01*
X487017731Y-11593604D02*
X486893921Y-11593604D01*
X486893921Y-11593604D02*
X486770112Y-11531700D01*
X486770112Y-11531700D02*
X486708207Y-11469795D01*
X486708207Y-11469795D02*
X486646302Y-11345985D01*
X486646302Y-11345985D02*
X486584398Y-11098366D01*
X486584398Y-11098366D02*
X486584398Y-10788842D01*
X486584398Y-10788842D02*
X486646302Y-10541223D01*
X486646302Y-10541223D02*
X486708207Y-10417414D01*
X486708207Y-10417414D02*
X486770112Y-10355509D01*
X486770112Y-10355509D02*
X486893921Y-10293604D01*
D10*
D11*
X536089160Y-11593604D02*
X535346303Y-11593604D01*
X535717731Y-11593604D02*
X535717731Y-10293604D01*
X535717731Y-10293604D02*
X535593922Y-10479319D01*
X535593922Y-10479319D02*
X535470112Y-10603128D01*
X535470112Y-10603128D02*
X535346303Y-10665033D01*
X537327255Y-11593604D02*
X536584398Y-11593604D01*
X536955826Y-11593604D02*
X536955826Y-10293604D01*
X536955826Y-10293604D02*
X536832017Y-10479319D01*
X536832017Y-10479319D02*
X536708207Y-10603128D01*
X536708207Y-10603128D02*
X536584398Y-10665033D01*
D10*
D11*
X60000000Y-407989000D02*
X60000000Y-409989000D01*
D10*
D11*
X110000000Y-407989000D02*
X110000000Y-409989000D01*
D10*
D11*
X160000000Y-407989000D02*
X160000000Y-409989000D01*
D10*
D11*
X210000000Y-407989000D02*
X210000000Y-409989000D01*
D10*
D11*
X260000000Y-407989000D02*
X260000000Y-409989000D01*
D10*
D11*
X310000000Y-407989000D02*
X310000000Y-409989000D01*
D10*
D11*
X360000000Y-407989000D02*
X360000000Y-409989000D01*
D10*
D11*
X410000000Y-407989000D02*
X410000000Y-409989000D01*
D10*
D11*
X460000000Y-407989000D02*
X460000000Y-409989000D01*
D10*
D11*
X510000000Y-407989000D02*
X510000000Y-409989000D01*
D10*
D11*
X560000000Y-407989000D02*
X560000000Y-409989000D01*
D10*
D11*
X36089160Y-409582604D02*
X35346303Y-409582604D01*
X35717731Y-409582604D02*
X35717731Y-408282604D01*
X35717731Y-408282604D02*
X35593922Y-408468319D01*
X35593922Y-408468319D02*
X35470112Y-408592128D01*
X35470112Y-408592128D02*
X35346303Y-408654033D01*
D10*
D11*
X85346303Y-408406414D02*
X85408207Y-408344509D01*
X85408207Y-408344509D02*
X85532017Y-408282604D01*
X85532017Y-408282604D02*
X85841541Y-408282604D01*
X85841541Y-408282604D02*
X85965350Y-408344509D01*
X85965350Y-408344509D02*
X86027255Y-408406414D01*
X86027255Y-408406414D02*
X86089160Y-408530223D01*
X86089160Y-408530223D02*
X86089160Y-408654033D01*
X86089160Y-408654033D02*
X86027255Y-408839747D01*
X86027255Y-408839747D02*
X85284398Y-409582604D01*
X85284398Y-409582604D02*
X86089160Y-409582604D01*
D10*
D11*
X135284398Y-408282604D02*
X136089160Y-408282604D01*
X136089160Y-408282604D02*
X135655826Y-408777842D01*
X135655826Y-408777842D02*
X135841541Y-408777842D01*
X135841541Y-408777842D02*
X135965350Y-408839747D01*
X135965350Y-408839747D02*
X136027255Y-408901652D01*
X136027255Y-408901652D02*
X136089160Y-409025461D01*
X136089160Y-409025461D02*
X136089160Y-409334985D01*
X136089160Y-409334985D02*
X136027255Y-409458795D01*
X136027255Y-409458795D02*
X135965350Y-409520700D01*
X135965350Y-409520700D02*
X135841541Y-409582604D01*
X135841541Y-409582604D02*
X135470112Y-409582604D01*
X135470112Y-409582604D02*
X135346303Y-409520700D01*
X135346303Y-409520700D02*
X135284398Y-409458795D01*
D10*
D11*
X185965350Y-408715938D02*
X185965350Y-409582604D01*
X185655826Y-408220700D02*
X185346303Y-409149271D01*
X185346303Y-409149271D02*
X186151064Y-409149271D01*
D10*
D11*
X236027255Y-408282604D02*
X235408207Y-408282604D01*
X235408207Y-408282604D02*
X235346303Y-408901652D01*
X235346303Y-408901652D02*
X235408207Y-408839747D01*
X235408207Y-408839747D02*
X235532017Y-408777842D01*
X235532017Y-408777842D02*
X235841541Y-408777842D01*
X235841541Y-408777842D02*
X235965350Y-408839747D01*
X235965350Y-408839747D02*
X236027255Y-408901652D01*
X236027255Y-408901652D02*
X236089160Y-409025461D01*
X236089160Y-409025461D02*
X236089160Y-409334985D01*
X236089160Y-409334985D02*
X236027255Y-409458795D01*
X236027255Y-409458795D02*
X235965350Y-409520700D01*
X235965350Y-409520700D02*
X235841541Y-409582604D01*
X235841541Y-409582604D02*
X235532017Y-409582604D01*
X235532017Y-409582604D02*
X235408207Y-409520700D01*
X235408207Y-409520700D02*
X235346303Y-409458795D01*
D10*
D11*
X285965350Y-408282604D02*
X285717731Y-408282604D01*
X285717731Y-408282604D02*
X285593922Y-408344509D01*
X285593922Y-408344509D02*
X285532017Y-408406414D01*
X285532017Y-408406414D02*
X285408207Y-408592128D01*
X285408207Y-408592128D02*
X285346303Y-408839747D01*
X285346303Y-408839747D02*
X285346303Y-409334985D01*
X285346303Y-409334985D02*
X285408207Y-409458795D01*
X285408207Y-409458795D02*
X285470112Y-409520700D01*
X285470112Y-409520700D02*
X285593922Y-409582604D01*
X285593922Y-409582604D02*
X285841541Y-409582604D01*
X285841541Y-409582604D02*
X285965350Y-409520700D01*
X285965350Y-409520700D02*
X286027255Y-409458795D01*
X286027255Y-409458795D02*
X286089160Y-409334985D01*
X286089160Y-409334985D02*
X286089160Y-409025461D01*
X286089160Y-409025461D02*
X286027255Y-408901652D01*
X286027255Y-408901652D02*
X285965350Y-408839747D01*
X285965350Y-408839747D02*
X285841541Y-408777842D01*
X285841541Y-408777842D02*
X285593922Y-408777842D01*
X285593922Y-408777842D02*
X285470112Y-408839747D01*
X285470112Y-408839747D02*
X285408207Y-408901652D01*
X285408207Y-408901652D02*
X285346303Y-409025461D01*
D10*
D11*
X335284398Y-408282604D02*
X336151064Y-408282604D01*
X336151064Y-408282604D02*
X335593922Y-409582604D01*
D10*
D11*
X385593922Y-408839747D02*
X385470112Y-408777842D01*
X385470112Y-408777842D02*
X385408207Y-408715938D01*
X385408207Y-408715938D02*
X385346303Y-408592128D01*
X385346303Y-408592128D02*
X385346303Y-408530223D01*
X385346303Y-408530223D02*
X385408207Y-408406414D01*
X385408207Y-408406414D02*
X385470112Y-408344509D01*
X385470112Y-408344509D02*
X385593922Y-408282604D01*
X385593922Y-408282604D02*
X385841541Y-408282604D01*
X385841541Y-408282604D02*
X385965350Y-408344509D01*
X385965350Y-408344509D02*
X386027255Y-408406414D01*
X386027255Y-408406414D02*
X386089160Y-408530223D01*
X386089160Y-408530223D02*
X386089160Y-408592128D01*
X386089160Y-408592128D02*
X386027255Y-408715938D01*
X386027255Y-408715938D02*
X385965350Y-408777842D01*
X385965350Y-408777842D02*
X385841541Y-408839747D01*
X385841541Y-408839747D02*
X385593922Y-408839747D01*
X385593922Y-408839747D02*
X385470112Y-408901652D01*
X385470112Y-408901652D02*
X385408207Y-408963557D01*
X385408207Y-408963557D02*
X385346303Y-409087366D01*
X385346303Y-409087366D02*
X385346303Y-409334985D01*
X385346303Y-409334985D02*
X385408207Y-409458795D01*
X385408207Y-409458795D02*
X385470112Y-409520700D01*
X385470112Y-409520700D02*
X385593922Y-409582604D01*
X385593922Y-409582604D02*
X385841541Y-409582604D01*
X385841541Y-409582604D02*
X385965350Y-409520700D01*
X385965350Y-409520700D02*
X386027255Y-409458795D01*
X386027255Y-409458795D02*
X386089160Y-409334985D01*
X386089160Y-409334985D02*
X386089160Y-409087366D01*
X386089160Y-409087366D02*
X386027255Y-408963557D01*
X386027255Y-408963557D02*
X385965350Y-408901652D01*
X385965350Y-408901652D02*
X385841541Y-408839747D01*
D10*
D11*
X435470112Y-409582604D02*
X435717731Y-409582604D01*
X435717731Y-409582604D02*
X435841541Y-409520700D01*
X435841541Y-409520700D02*
X435903445Y-409458795D01*
X435903445Y-409458795D02*
X436027255Y-409273080D01*
X436027255Y-409273080D02*
X436089160Y-409025461D01*
X436089160Y-409025461D02*
X436089160Y-408530223D01*
X436089160Y-408530223D02*
X436027255Y-408406414D01*
X436027255Y-408406414D02*
X435965350Y-408344509D01*
X435965350Y-408344509D02*
X435841541Y-408282604D01*
X435841541Y-408282604D02*
X435593922Y-408282604D01*
X435593922Y-408282604D02*
X435470112Y-408344509D01*
X435470112Y-408344509D02*
X435408207Y-408406414D01*
X435408207Y-408406414D02*
X435346303Y-408530223D01*
X435346303Y-408530223D02*
X435346303Y-408839747D01*
X435346303Y-408839747D02*
X435408207Y-408963557D01*
X435408207Y-408963557D02*
X435470112Y-409025461D01*
X435470112Y-409025461D02*
X435593922Y-409087366D01*
X435593922Y-409087366D02*
X435841541Y-409087366D01*
X435841541Y-409087366D02*
X435965350Y-409025461D01*
X435965350Y-409025461D02*
X436027255Y-408963557D01*
X436027255Y-408963557D02*
X436089160Y-408839747D01*
D10*
D11*
X486089160Y-409582604D02*
X485346303Y-409582604D01*
X485717731Y-409582604D02*
X485717731Y-408282604D01*
X485717731Y-408282604D02*
X485593922Y-408468319D01*
X485593922Y-408468319D02*
X485470112Y-408592128D01*
X485470112Y-408592128D02*
X485346303Y-408654033D01*
X486893921Y-408282604D02*
X487017731Y-408282604D01*
X487017731Y-408282604D02*
X487141540Y-408344509D01*
X487141540Y-408344509D02*
X487203445Y-408406414D01*
X487203445Y-408406414D02*
X487265350Y-408530223D01*
X487265350Y-408530223D02*
X487327255Y-408777842D01*
X487327255Y-408777842D02*
X487327255Y-409087366D01*
X487327255Y-409087366D02*
X487265350Y-409334985D01*
X487265350Y-409334985D02*
X487203445Y-409458795D01*
X487203445Y-409458795D02*
X487141540Y-409520700D01*
X487141540Y-409520700D02*
X487017731Y-409582604D01*
X487017731Y-409582604D02*
X486893921Y-409582604D01*
X486893921Y-409582604D02*
X486770112Y-409520700D01*
X486770112Y-409520700D02*
X486708207Y-409458795D01*
X486708207Y-409458795D02*
X486646302Y-409334985D01*
X486646302Y-409334985D02*
X486584398Y-409087366D01*
X486584398Y-409087366D02*
X486584398Y-408777842D01*
X486584398Y-408777842D02*
X486646302Y-408530223D01*
X486646302Y-408530223D02*
X486708207Y-408406414D01*
X486708207Y-408406414D02*
X486770112Y-408344509D01*
X486770112Y-408344509D02*
X486893921Y-408282604D01*
D10*
D11*
X536089160Y-409582604D02*
X535346303Y-409582604D01*
X535717731Y-409582604D02*
X535717731Y-408282604D01*
X535717731Y-408282604D02*
X535593922Y-408468319D01*
X535593922Y-408468319D02*
X535470112Y-408592128D01*
X535470112Y-408592128D02*
X535346303Y-408654033D01*
X537327255Y-409582604D02*
X536584398Y-409582604D01*
X536955826Y-409582604D02*
X536955826Y-408282604D01*
X536955826Y-408282604D02*
X536832017Y-408468319D01*
X536832017Y-408468319D02*
X536708207Y-408592128D01*
X536708207Y-408592128D02*
X536584398Y-408654033D01*
D10*
D11*
X10000000Y-60000000D02*
X12000000Y-60000000D01*
D10*
D11*
X10000000Y-110000000D02*
X12000000Y-110000000D01*
D10*
D11*
X10000000Y-160000000D02*
X12000000Y-160000000D01*
D10*
D11*
X10000000Y-210000000D02*
X12000000Y-210000000D01*
D10*
D11*
X10000000Y-260000000D02*
X12000000Y-260000000D01*
D10*
D11*
X10000000Y-310000000D02*
X12000000Y-310000000D01*
D10*
D11*
X10000000Y-360000000D02*
X12000000Y-360000000D01*
D10*
D11*
X10690476Y-35222176D02*
X11309523Y-35222176D01*
X10566666Y-35593604D02*
X10999999Y-34293604D01*
X10999999Y-34293604D02*
X11433333Y-35593604D01*
D10*
D11*
X11092857Y-84912652D02*
X11278571Y-84974557D01*
X11278571Y-84974557D02*
X11340476Y-85036461D01*
X11340476Y-85036461D02*
X11402380Y-85160271D01*
X11402380Y-85160271D02*
X11402380Y-85345985D01*
X11402380Y-85345985D02*
X11340476Y-85469795D01*
X11340476Y-85469795D02*
X11278571Y-85531700D01*
X11278571Y-85531700D02*
X11154761Y-85593604D01*
X11154761Y-85593604D02*
X10659523Y-85593604D01*
X10659523Y-85593604D02*
X10659523Y-84293604D01*
X10659523Y-84293604D02*
X11092857Y-84293604D01*
X11092857Y-84293604D02*
X11216666Y-84355509D01*
X11216666Y-84355509D02*
X11278571Y-84417414D01*
X11278571Y-84417414D02*
X11340476Y-84541223D01*
X11340476Y-84541223D02*
X11340476Y-84665033D01*
X11340476Y-84665033D02*
X11278571Y-84788842D01*
X11278571Y-84788842D02*
X11216666Y-84850747D01*
X11216666Y-84850747D02*
X11092857Y-84912652D01*
X11092857Y-84912652D02*
X10659523Y-84912652D01*
D10*
D11*
X11402380Y-135469795D02*
X11340476Y-135531700D01*
X11340476Y-135531700D02*
X11154761Y-135593604D01*
X11154761Y-135593604D02*
X11030952Y-135593604D01*
X11030952Y-135593604D02*
X10845238Y-135531700D01*
X10845238Y-135531700D02*
X10721428Y-135407890D01*
X10721428Y-135407890D02*
X10659523Y-135284080D01*
X10659523Y-135284080D02*
X10597619Y-135036461D01*
X10597619Y-135036461D02*
X10597619Y-134850747D01*
X10597619Y-134850747D02*
X10659523Y-134603128D01*
X10659523Y-134603128D02*
X10721428Y-134479319D01*
X10721428Y-134479319D02*
X10845238Y-134355509D01*
X10845238Y-134355509D02*
X11030952Y-134293604D01*
X11030952Y-134293604D02*
X11154761Y-134293604D01*
X11154761Y-134293604D02*
X11340476Y-134355509D01*
X11340476Y-134355509D02*
X11402380Y-134417414D01*
D10*
D11*
X10659523Y-185593604D02*
X10659523Y-184293604D01*
X10659523Y-184293604D02*
X10969047Y-184293604D01*
X10969047Y-184293604D02*
X11154761Y-184355509D01*
X11154761Y-184355509D02*
X11278571Y-184479319D01*
X11278571Y-184479319D02*
X11340476Y-184603128D01*
X11340476Y-184603128D02*
X11402380Y-184850747D01*
X11402380Y-184850747D02*
X11402380Y-185036461D01*
X11402380Y-185036461D02*
X11340476Y-185284080D01*
X11340476Y-185284080D02*
X11278571Y-185407890D01*
X11278571Y-185407890D02*
X11154761Y-185531700D01*
X11154761Y-185531700D02*
X10969047Y-185593604D01*
X10969047Y-185593604D02*
X10659523Y-185593604D01*
D10*
D11*
X10721428Y-234912652D02*
X11154762Y-234912652D01*
X11340476Y-235593604D02*
X10721428Y-235593604D01*
X10721428Y-235593604D02*
X10721428Y-234293604D01*
X10721428Y-234293604D02*
X11340476Y-234293604D01*
D10*
D11*
X11185714Y-284912652D02*
X10752380Y-284912652D01*
X10752380Y-285593604D02*
X10752380Y-284293604D01*
X10752380Y-284293604D02*
X11371428Y-284293604D01*
D10*
D11*
X11340476Y-334355509D02*
X11216666Y-334293604D01*
X11216666Y-334293604D02*
X11030952Y-334293604D01*
X11030952Y-334293604D02*
X10845238Y-334355509D01*
X10845238Y-334355509D02*
X10721428Y-334479319D01*
X10721428Y-334479319D02*
X10659523Y-334603128D01*
X10659523Y-334603128D02*
X10597619Y-334850747D01*
X10597619Y-334850747D02*
X10597619Y-335036461D01*
X10597619Y-335036461D02*
X10659523Y-335284080D01*
X10659523Y-335284080D02*
X10721428Y-335407890D01*
X10721428Y-335407890D02*
X10845238Y-335531700D01*
X10845238Y-335531700D02*
X11030952Y-335593604D01*
X11030952Y-335593604D02*
X11154761Y-335593604D01*
X11154761Y-335593604D02*
X11340476Y-335531700D01*
X11340476Y-335531700D02*
X11402380Y-335469795D01*
X11402380Y-335469795D02*
X11402380Y-335036461D01*
X11402380Y-335036461D02*
X11154761Y-335036461D01*
D10*
D11*
X10628571Y-385593604D02*
X10628571Y-384293604D01*
X10628571Y-384912652D02*
X11371428Y-384912652D01*
X11371428Y-385593604D02*
X11371428Y-384293604D01*
D10*
D11*
X584004400Y-60000000D02*
X582004400Y-60000000D01*
D10*
D11*
X584004400Y-110000000D02*
X582004400Y-110000000D01*
D10*
D11*
X584004400Y-160000000D02*
X582004400Y-160000000D01*
D10*
D11*
X584004400Y-210000000D02*
X582004400Y-210000000D01*
D10*
D11*
X584004400Y-260000000D02*
X582004400Y-260000000D01*
D10*
D11*
X584004400Y-310000000D02*
X582004400Y-310000000D01*
D10*
D11*
X584004400Y-360000000D02*
X582004400Y-360000000D01*
D10*
D11*
X582694876Y-35222176D02*
X583313923Y-35222176D01*
X582571066Y-35593604D02*
X583004399Y-34293604D01*
X583004399Y-34293604D02*
X583437733Y-35593604D01*
D10*
D11*
X583097257Y-84912652D02*
X583282971Y-84974557D01*
X583282971Y-84974557D02*
X583344876Y-85036461D01*
X583344876Y-85036461D02*
X583406780Y-85160271D01*
X583406780Y-85160271D02*
X583406780Y-85345985D01*
X583406780Y-85345985D02*
X583344876Y-85469795D01*
X583344876Y-85469795D02*
X583282971Y-85531700D01*
X583282971Y-85531700D02*
X583159161Y-85593604D01*
X583159161Y-85593604D02*
X582663923Y-85593604D01*
X582663923Y-85593604D02*
X582663923Y-84293604D01*
X582663923Y-84293604D02*
X583097257Y-84293604D01*
X583097257Y-84293604D02*
X583221066Y-84355509D01*
X583221066Y-84355509D02*
X583282971Y-84417414D01*
X583282971Y-84417414D02*
X583344876Y-84541223D01*
X583344876Y-84541223D02*
X583344876Y-84665033D01*
X583344876Y-84665033D02*
X583282971Y-84788842D01*
X583282971Y-84788842D02*
X583221066Y-84850747D01*
X583221066Y-84850747D02*
X583097257Y-84912652D01*
X583097257Y-84912652D02*
X582663923Y-84912652D01*
D10*
D11*
X583406780Y-135469795D02*
X583344876Y-135531700D01*
X583344876Y-135531700D02*
X583159161Y-135593604D01*
X583159161Y-135593604D02*
X583035352Y-135593604D01*
X583035352Y-135593604D02*
X582849638Y-135531700D01*
X582849638Y-135531700D02*
X582725828Y-135407890D01*
X582725828Y-135407890D02*
X582663923Y-135284080D01*
X582663923Y-135284080D02*
X582602019Y-135036461D01*
X582602019Y-135036461D02*
X582602019Y-134850747D01*
X582602019Y-134850747D02*
X582663923Y-134603128D01*
X582663923Y-134603128D02*
X582725828Y-134479319D01*
X582725828Y-134479319D02*
X582849638Y-134355509D01*
X582849638Y-134355509D02*
X583035352Y-134293604D01*
X583035352Y-134293604D02*
X583159161Y-134293604D01*
X583159161Y-134293604D02*
X583344876Y-134355509D01*
X583344876Y-134355509D02*
X583406780Y-134417414D01*
D10*
D11*
X582663923Y-185593604D02*
X582663923Y-184293604D01*
X582663923Y-184293604D02*
X582973447Y-184293604D01*
X582973447Y-184293604D02*
X583159161Y-184355509D01*
X583159161Y-184355509D02*
X583282971Y-184479319D01*
X583282971Y-184479319D02*
X583344876Y-184603128D01*
X583344876Y-184603128D02*
X583406780Y-184850747D01*
X583406780Y-184850747D02*
X583406780Y-185036461D01*
X583406780Y-185036461D02*
X583344876Y-185284080D01*
X583344876Y-185284080D02*
X583282971Y-185407890D01*
X583282971Y-185407890D02*
X583159161Y-185531700D01*
X583159161Y-185531700D02*
X582973447Y-185593604D01*
X582973447Y-185593604D02*
X582663923Y-185593604D01*
D10*
D11*
X582725828Y-234912652D02*
X583159162Y-234912652D01*
X583344876Y-235593604D02*
X582725828Y-235593604D01*
X582725828Y-235593604D02*
X582725828Y-234293604D01*
X582725828Y-234293604D02*
X583344876Y-234293604D01*
D10*
D11*
X583190114Y-284912652D02*
X582756780Y-284912652D01*
X582756780Y-285593604D02*
X582756780Y-284293604D01*
X582756780Y-284293604D02*
X583375828Y-284293604D01*
D10*
D11*
X583344876Y-334355509D02*
X583221066Y-334293604D01*
X583221066Y-334293604D02*
X583035352Y-334293604D01*
X583035352Y-334293604D02*
X582849638Y-334355509D01*
X582849638Y-334355509D02*
X582725828Y-334479319D01*
X582725828Y-334479319D02*
X582663923Y-334603128D01*
X582663923Y-334603128D02*
X582602019Y-334850747D01*
X582602019Y-334850747D02*
X582602019Y-335036461D01*
X582602019Y-335036461D02*
X582663923Y-335284080D01*
X582663923Y-335284080D02*
X582725828Y-335407890D01*
X582725828Y-335407890D02*
X582849638Y-335531700D01*
X582849638Y-335531700D02*
X583035352Y-335593604D01*
X583035352Y-335593604D02*
X583159161Y-335593604D01*
X583159161Y-335593604D02*
X583344876Y-335531700D01*
X583344876Y-335531700D02*
X583406780Y-335469795D01*
X583406780Y-335469795D02*
X583406780Y-335036461D01*
X583406780Y-335036461D02*
X583159161Y-335036461D01*
D10*
D11*
X582632971Y-385593604D02*
X582632971Y-384293604D01*
X582632971Y-384912652D02*
X583375828Y-384912652D01*
X583375828Y-385593604D02*
X583375828Y-384293604D01*
D10*
D11*
X497460226Y-403775128D02*
X497460226Y-402275128D01*
X497460226Y-402275128D02*
X497817369Y-402275128D01*
X497817369Y-402275128D02*
X498031655Y-402346557D01*
X498031655Y-402346557D02*
X498174512Y-402489414D01*
X498174512Y-402489414D02*
X498245941Y-402632271D01*
X498245941Y-402632271D02*
X498317369Y-402917985D01*
X498317369Y-402917985D02*
X498317369Y-403132271D01*
X498317369Y-403132271D02*
X498245941Y-403417985D01*
X498245941Y-403417985D02*
X498174512Y-403560842D01*
X498174512Y-403560842D02*
X498031655Y-403703700D01*
X498031655Y-403703700D02*
X497817369Y-403775128D01*
X497817369Y-403775128D02*
X497460226Y-403775128D01*
X499603084Y-403775128D02*
X499603084Y-402989414D01*
X499603084Y-402989414D02*
X499531655Y-402846557D01*
X499531655Y-402846557D02*
X499388798Y-402775128D01*
X499388798Y-402775128D02*
X499103084Y-402775128D01*
X499103084Y-402775128D02*
X498960226Y-402846557D01*
X499603084Y-403703700D02*
X499460226Y-403775128D01*
X499460226Y-403775128D02*
X499103084Y-403775128D01*
X499103084Y-403775128D02*
X498960226Y-403703700D01*
X498960226Y-403703700D02*
X498888798Y-403560842D01*
X498888798Y-403560842D02*
X498888798Y-403417985D01*
X498888798Y-403417985D02*
X498960226Y-403275128D01*
X498960226Y-403275128D02*
X499103084Y-403203700D01*
X499103084Y-403203700D02*
X499460226Y-403203700D01*
X499460226Y-403203700D02*
X499603084Y-403132271D01*
X500103084Y-402775128D02*
X500674512Y-402775128D01*
X500317369Y-402275128D02*
X500317369Y-403560842D01*
X500317369Y-403560842D02*
X500388798Y-403703700D01*
X500388798Y-403703700D02*
X500531655Y-403775128D01*
X500531655Y-403775128D02*
X500674512Y-403775128D01*
X501745941Y-403703700D02*
X501603084Y-403775128D01*
X501603084Y-403775128D02*
X501317370Y-403775128D01*
X501317370Y-403775128D02*
X501174512Y-403703700D01*
X501174512Y-403703700D02*
X501103084Y-403560842D01*
X501103084Y-403560842D02*
X501103084Y-402989414D01*
X501103084Y-402989414D02*
X501174512Y-402846557D01*
X501174512Y-402846557D02*
X501317370Y-402775128D01*
X501317370Y-402775128D02*
X501603084Y-402775128D01*
X501603084Y-402775128D02*
X501745941Y-402846557D01*
X501745941Y-402846557D02*
X501817370Y-402989414D01*
X501817370Y-402989414D02*
X501817370Y-403132271D01*
X501817370Y-403132271D02*
X501103084Y-403275128D01*
X502460226Y-403632271D02*
X502531655Y-403703700D01*
X502531655Y-403703700D02*
X502460226Y-403775128D01*
X502460226Y-403775128D02*
X502388798Y-403703700D01*
X502388798Y-403703700D02*
X502460226Y-403632271D01*
X502460226Y-403632271D02*
X502460226Y-403775128D01*
X502460226Y-402846557D02*
X502531655Y-402917985D01*
X502531655Y-402917985D02*
X502460226Y-402989414D01*
X502460226Y-402989414D02*
X502388798Y-402917985D01*
X502388798Y-402917985D02*
X502460226Y-402846557D01*
X502460226Y-402846557D02*
X502460226Y-402989414D01*
D10*
D11*
X474004400Y-404489000D02*
X582004400Y-404489000D01*
D10*
D11*
X475460226Y-406575128D02*
X475460226Y-405075128D01*
X476317369Y-406575128D02*
X475674512Y-405717985D01*
X476317369Y-405075128D02*
X475460226Y-405932271D01*
X476960226Y-406575128D02*
X476960226Y-405575128D01*
X476960226Y-405075128D02*
X476888798Y-405146557D01*
X476888798Y-405146557D02*
X476960226Y-405217985D01*
X476960226Y-405217985D02*
X477031655Y-405146557D01*
X477031655Y-405146557D02*
X476960226Y-405075128D01*
X476960226Y-405075128D02*
X476960226Y-405217985D01*
X478531655Y-406432271D02*
X478460227Y-406503700D01*
X478460227Y-406503700D02*
X478245941Y-406575128D01*
X478245941Y-406575128D02*
X478103084Y-406575128D01*
X478103084Y-406575128D02*
X477888798Y-406503700D01*
X477888798Y-406503700D02*
X477745941Y-406360842D01*
X477745941Y-406360842D02*
X477674512Y-406217985D01*
X477674512Y-406217985D02*
X477603084Y-405932271D01*
X477603084Y-405932271D02*
X477603084Y-405717985D01*
X477603084Y-405717985D02*
X477674512Y-405432271D01*
X477674512Y-405432271D02*
X477745941Y-405289414D01*
X477745941Y-405289414D02*
X477888798Y-405146557D01*
X477888798Y-405146557D02*
X478103084Y-405075128D01*
X478103084Y-405075128D02*
X478245941Y-405075128D01*
X478245941Y-405075128D02*
X478460227Y-405146557D01*
X478460227Y-405146557D02*
X478531655Y-405217985D01*
X479817370Y-406575128D02*
X479817370Y-405789414D01*
X479817370Y-405789414D02*
X479745941Y-405646557D01*
X479745941Y-405646557D02*
X479603084Y-405575128D01*
X479603084Y-405575128D02*
X479317370Y-405575128D01*
X479317370Y-405575128D02*
X479174512Y-405646557D01*
X479817370Y-406503700D02*
X479674512Y-406575128D01*
X479674512Y-406575128D02*
X479317370Y-406575128D01*
X479317370Y-406575128D02*
X479174512Y-406503700D01*
X479174512Y-406503700D02*
X479103084Y-406360842D01*
X479103084Y-406360842D02*
X479103084Y-406217985D01*
X479103084Y-406217985D02*
X479174512Y-406075128D01*
X479174512Y-406075128D02*
X479317370Y-406003700D01*
X479317370Y-406003700D02*
X479674512Y-406003700D01*
X479674512Y-406003700D02*
X479817370Y-405932271D01*
X481174513Y-406575128D02*
X481174513Y-405075128D01*
X481174513Y-406503700D02*
X481031655Y-406575128D01*
X481031655Y-406575128D02*
X480745941Y-406575128D01*
X480745941Y-406575128D02*
X480603084Y-406503700D01*
X480603084Y-406503700D02*
X480531655Y-406432271D01*
X480531655Y-406432271D02*
X480460227Y-406289414D01*
X480460227Y-406289414D02*
X480460227Y-405860842D01*
X480460227Y-405860842D02*
X480531655Y-405717985D01*
X480531655Y-405717985D02*
X480603084Y-405646557D01*
X480603084Y-405646557D02*
X480745941Y-405575128D01*
X480745941Y-405575128D02*
X481031655Y-405575128D01*
X481031655Y-405575128D02*
X481174513Y-405646557D01*
X483031655Y-405789414D02*
X483531655Y-405789414D01*
X483745941Y-406575128D02*
X483031655Y-406575128D01*
X483031655Y-406575128D02*
X483031655Y-405075128D01*
X483031655Y-405075128D02*
X483745941Y-405075128D01*
X484388798Y-406432271D02*
X484460227Y-406503700D01*
X484460227Y-406503700D02*
X484388798Y-406575128D01*
X484388798Y-406575128D02*
X484317370Y-406503700D01*
X484317370Y-406503700D02*
X484388798Y-406432271D01*
X484388798Y-406432271D02*
X484388798Y-406575128D01*
X485103084Y-406575128D02*
X485103084Y-405075128D01*
X485103084Y-405075128D02*
X485460227Y-405075128D01*
X485460227Y-405075128D02*
X485674513Y-405146557D01*
X485674513Y-405146557D02*
X485817370Y-405289414D01*
X485817370Y-405289414D02*
X485888799Y-405432271D01*
X485888799Y-405432271D02*
X485960227Y-405717985D01*
X485960227Y-405717985D02*
X485960227Y-405932271D01*
X485960227Y-405932271D02*
X485888799Y-406217985D01*
X485888799Y-406217985D02*
X485817370Y-406360842D01*
X485817370Y-406360842D02*
X485674513Y-406503700D01*
X485674513Y-406503700D02*
X485460227Y-406575128D01*
X485460227Y-406575128D02*
X485103084Y-406575128D01*
X486603084Y-406432271D02*
X486674513Y-406503700D01*
X486674513Y-406503700D02*
X486603084Y-406575128D01*
X486603084Y-406575128D02*
X486531656Y-406503700D01*
X486531656Y-406503700D02*
X486603084Y-406432271D01*
X486603084Y-406432271D02*
X486603084Y-406575128D01*
X487245942Y-406146557D02*
X487960228Y-406146557D01*
X487103085Y-406575128D02*
X487603085Y-405075128D01*
X487603085Y-405075128D02*
X488103085Y-406575128D01*
X488603084Y-406432271D02*
X488674513Y-406503700D01*
X488674513Y-406503700D02*
X488603084Y-406575128D01*
X488603084Y-406575128D02*
X488531656Y-406503700D01*
X488531656Y-406503700D02*
X488603084Y-406432271D01*
X488603084Y-406432271D02*
X488603084Y-406575128D01*
X490674513Y-405717985D02*
X490531656Y-405646557D01*
X490531656Y-405646557D02*
X490460227Y-405575128D01*
X490460227Y-405575128D02*
X490388799Y-405432271D01*
X490388799Y-405432271D02*
X490388799Y-405360842D01*
X490388799Y-405360842D02*
X490460227Y-405217985D01*
X490460227Y-405217985D02*
X490531656Y-405146557D01*
X490531656Y-405146557D02*
X490674513Y-405075128D01*
X490674513Y-405075128D02*
X490960227Y-405075128D01*
X490960227Y-405075128D02*
X491103085Y-405146557D01*
X491103085Y-405146557D02*
X491174513Y-405217985D01*
X491174513Y-405217985D02*
X491245942Y-405360842D01*
X491245942Y-405360842D02*
X491245942Y-405432271D01*
X491245942Y-405432271D02*
X491174513Y-405575128D01*
X491174513Y-405575128D02*
X491103085Y-405646557D01*
X491103085Y-405646557D02*
X490960227Y-405717985D01*
X490960227Y-405717985D02*
X490674513Y-405717985D01*
X490674513Y-405717985D02*
X490531656Y-405789414D01*
X490531656Y-405789414D02*
X490460227Y-405860842D01*
X490460227Y-405860842D02*
X490388799Y-406003700D01*
X490388799Y-406003700D02*
X490388799Y-406289414D01*
X490388799Y-406289414D02*
X490460227Y-406432271D01*
X490460227Y-406432271D02*
X490531656Y-406503700D01*
X490531656Y-406503700D02*
X490674513Y-406575128D01*
X490674513Y-406575128D02*
X490960227Y-406575128D01*
X490960227Y-406575128D02*
X491103085Y-406503700D01*
X491103085Y-406503700D02*
X491174513Y-406432271D01*
X491174513Y-406432271D02*
X491245942Y-406289414D01*
X491245942Y-406289414D02*
X491245942Y-406003700D01*
X491245942Y-406003700D02*
X491174513Y-405860842D01*
X491174513Y-405860842D02*
X491103085Y-405789414D01*
X491103085Y-405789414D02*
X490960227Y-405717985D01*
X491888798Y-406432271D02*
X491960227Y-406503700D01*
X491960227Y-406503700D02*
X491888798Y-406575128D01*
X491888798Y-406575128D02*
X491817370Y-406503700D01*
X491817370Y-406503700D02*
X491888798Y-406432271D01*
X491888798Y-406432271D02*
X491888798Y-406575128D01*
X492888799Y-405075128D02*
X493031656Y-405075128D01*
X493031656Y-405075128D02*
X493174513Y-405146557D01*
X493174513Y-405146557D02*
X493245942Y-405217985D01*
X493245942Y-405217985D02*
X493317370Y-405360842D01*
X493317370Y-405360842D02*
X493388799Y-405646557D01*
X493388799Y-405646557D02*
X493388799Y-406003700D01*
X493388799Y-406003700D02*
X493317370Y-406289414D01*
X493317370Y-406289414D02*
X493245942Y-406432271D01*
X493245942Y-406432271D02*
X493174513Y-406503700D01*
X493174513Y-406503700D02*
X493031656Y-406575128D01*
X493031656Y-406575128D02*
X492888799Y-406575128D01*
X492888799Y-406575128D02*
X492745942Y-406503700D01*
X492745942Y-406503700D02*
X492674513Y-406432271D01*
X492674513Y-406432271D02*
X492603084Y-406289414D01*
X492603084Y-406289414D02*
X492531656Y-406003700D01*
X492531656Y-406003700D02*
X492531656Y-405646557D01*
X492531656Y-405646557D02*
X492603084Y-405360842D01*
X492603084Y-405360842D02*
X492674513Y-405217985D01*
X492674513Y-405217985D02*
X492745942Y-405146557D01*
X492745942Y-405146557D02*
X492888799Y-405075128D01*
X494031655Y-406432271D02*
X494103084Y-406503700D01*
X494103084Y-406503700D02*
X494031655Y-406575128D01*
X494031655Y-406575128D02*
X493960227Y-406503700D01*
X493960227Y-406503700D02*
X494031655Y-406432271D01*
X494031655Y-406432271D02*
X494031655Y-406575128D01*
X495031656Y-405075128D02*
X495174513Y-405075128D01*
X495174513Y-405075128D02*
X495317370Y-405146557D01*
X495317370Y-405146557D02*
X495388799Y-405217985D01*
X495388799Y-405217985D02*
X495460227Y-405360842D01*
X495460227Y-405360842D02*
X495531656Y-405646557D01*
X495531656Y-405646557D02*
X495531656Y-406003700D01*
X495531656Y-406003700D02*
X495460227Y-406289414D01*
X495460227Y-406289414D02*
X495388799Y-406432271D01*
X495388799Y-406432271D02*
X495317370Y-406503700D01*
X495317370Y-406503700D02*
X495174513Y-406575128D01*
X495174513Y-406575128D02*
X495031656Y-406575128D01*
X495031656Y-406575128D02*
X494888799Y-406503700D01*
X494888799Y-406503700D02*
X494817370Y-406432271D01*
X494817370Y-406432271D02*
X494745941Y-406289414D01*
X494745941Y-406289414D02*
X494674513Y-406003700D01*
X494674513Y-406003700D02*
X494674513Y-405646557D01*
X494674513Y-405646557D02*
X494745941Y-405360842D01*
X494745941Y-405360842D02*
X494817370Y-405217985D01*
X494817370Y-405217985D02*
X494888799Y-405146557D01*
X494888799Y-405146557D02*
X495031656Y-405075128D01*
D10*
D11*
X474004400Y-401489000D02*
X582004400Y-401489000D01*
D10*
D12*
X561416053Y-403767328D02*
X560916053Y-403053042D01*
X560558910Y-403767328D02*
X560558910Y-402267328D01*
X560558910Y-402267328D02*
X561130339Y-402267328D01*
X561130339Y-402267328D02*
X561273196Y-402338757D01*
X561273196Y-402338757D02*
X561344625Y-402410185D01*
X561344625Y-402410185D02*
X561416053Y-402553042D01*
X561416053Y-402553042D02*
X561416053Y-402767328D01*
X561416053Y-402767328D02*
X561344625Y-402910185D01*
X561344625Y-402910185D02*
X561273196Y-402981614D01*
X561273196Y-402981614D02*
X561130339Y-403053042D01*
X561130339Y-403053042D02*
X560558910Y-403053042D01*
X562630339Y-403695900D02*
X562487482Y-403767328D01*
X562487482Y-403767328D02*
X562201768Y-403767328D01*
X562201768Y-403767328D02*
X562058910Y-403695900D01*
X562058910Y-403695900D02*
X561987482Y-403553042D01*
X561987482Y-403553042D02*
X561987482Y-402981614D01*
X561987482Y-402981614D02*
X562058910Y-402838757D01*
X562058910Y-402838757D02*
X562201768Y-402767328D01*
X562201768Y-402767328D02*
X562487482Y-402767328D01*
X562487482Y-402767328D02*
X562630339Y-402838757D01*
X562630339Y-402838757D02*
X562701768Y-402981614D01*
X562701768Y-402981614D02*
X562701768Y-403124471D01*
X562701768Y-403124471D02*
X561987482Y-403267328D01*
X563201767Y-402767328D02*
X563558910Y-403767328D01*
X563558910Y-403767328D02*
X563916053Y-402767328D01*
X564487481Y-403624471D02*
X564558910Y-403695900D01*
X564558910Y-403695900D02*
X564487481Y-403767328D01*
X564487481Y-403767328D02*
X564416053Y-403695900D01*
X564416053Y-403695900D02*
X564487481Y-403624471D01*
X564487481Y-403624471D02*
X564487481Y-403767328D01*
X564487481Y-402838757D02*
X564558910Y-402910185D01*
X564558910Y-402910185D02*
X564487481Y-402981614D01*
X564487481Y-402981614D02*
X564416053Y-402910185D01*
X564416053Y-402910185D02*
X564487481Y-402838757D01*
X564487481Y-402838757D02*
X564487481Y-402981614D01*
D10*
D11*
X475388798Y-403703700D02*
X475603084Y-403775128D01*
X475603084Y-403775128D02*
X475960226Y-403775128D01*
X475960226Y-403775128D02*
X476103084Y-403703700D01*
X476103084Y-403703700D02*
X476174512Y-403632271D01*
X476174512Y-403632271D02*
X476245941Y-403489414D01*
X476245941Y-403489414D02*
X476245941Y-403346557D01*
X476245941Y-403346557D02*
X476174512Y-403203700D01*
X476174512Y-403203700D02*
X476103084Y-403132271D01*
X476103084Y-403132271D02*
X475960226Y-403060842D01*
X475960226Y-403060842D02*
X475674512Y-402989414D01*
X475674512Y-402989414D02*
X475531655Y-402917985D01*
X475531655Y-402917985D02*
X475460226Y-402846557D01*
X475460226Y-402846557D02*
X475388798Y-402703700D01*
X475388798Y-402703700D02*
X475388798Y-402560842D01*
X475388798Y-402560842D02*
X475460226Y-402417985D01*
X475460226Y-402417985D02*
X475531655Y-402346557D01*
X475531655Y-402346557D02*
X475674512Y-402275128D01*
X475674512Y-402275128D02*
X476031655Y-402275128D01*
X476031655Y-402275128D02*
X476245941Y-402346557D01*
X476888797Y-403775128D02*
X476888797Y-402775128D01*
X476888797Y-402275128D02*
X476817369Y-402346557D01*
X476817369Y-402346557D02*
X476888797Y-402417985D01*
X476888797Y-402417985D02*
X476960226Y-402346557D01*
X476960226Y-402346557D02*
X476888797Y-402275128D01*
X476888797Y-402275128D02*
X476888797Y-402417985D01*
X477460226Y-402775128D02*
X478245941Y-402775128D01*
X478245941Y-402775128D02*
X477460226Y-403775128D01*
X477460226Y-403775128D02*
X478245941Y-403775128D01*
X479388798Y-403703700D02*
X479245941Y-403775128D01*
X479245941Y-403775128D02*
X478960227Y-403775128D01*
X478960227Y-403775128D02*
X478817369Y-403703700D01*
X478817369Y-403703700D02*
X478745941Y-403560842D01*
X478745941Y-403560842D02*
X478745941Y-402989414D01*
X478745941Y-402989414D02*
X478817369Y-402846557D01*
X478817369Y-402846557D02*
X478960227Y-402775128D01*
X478960227Y-402775128D02*
X479245941Y-402775128D01*
X479245941Y-402775128D02*
X479388798Y-402846557D01*
X479388798Y-402846557D02*
X479460227Y-402989414D01*
X479460227Y-402989414D02*
X479460227Y-403132271D01*
X479460227Y-403132271D02*
X478745941Y-403275128D01*
X480103083Y-403632271D02*
X480174512Y-403703700D01*
X480174512Y-403703700D02*
X480103083Y-403775128D01*
X480103083Y-403775128D02*
X480031655Y-403703700D01*
X480031655Y-403703700D02*
X480103083Y-403632271D01*
X480103083Y-403632271D02*
X480103083Y-403775128D01*
X480103083Y-402846557D02*
X480174512Y-402917985D01*
X480174512Y-402917985D02*
X480103083Y-402989414D01*
X480103083Y-402989414D02*
X480031655Y-402917985D01*
X480031655Y-402917985D02*
X480103083Y-402846557D01*
X480103083Y-402846557D02*
X480103083Y-402989414D01*
X481888798Y-403346557D02*
X482603084Y-403346557D01*
X481745941Y-403775128D02*
X482245941Y-402275128D01*
X482245941Y-402275128D02*
X482745941Y-403775128D01*
X483174512Y-402417985D02*
X483245940Y-402346557D01*
X483245940Y-402346557D02*
X483388798Y-402275128D01*
X483388798Y-402275128D02*
X483745940Y-402275128D01*
X483745940Y-402275128D02*
X483888798Y-402346557D01*
X483888798Y-402346557D02*
X483960226Y-402417985D01*
X483960226Y-402417985D02*
X484031655Y-402560842D01*
X484031655Y-402560842D02*
X484031655Y-402703700D01*
X484031655Y-402703700D02*
X483960226Y-402917985D01*
X483960226Y-402917985D02*
X483103083Y-403775128D01*
X483103083Y-403775128D02*
X484031655Y-403775128D01*
D10*
D11*
X560460226Y-406575128D02*
X560460226Y-405075128D01*
X561817370Y-406575128D02*
X561817370Y-405075128D01*
X561817370Y-406503700D02*
X561674512Y-406575128D01*
X561674512Y-406575128D02*
X561388798Y-406575128D01*
X561388798Y-406575128D02*
X561245941Y-406503700D01*
X561245941Y-406503700D02*
X561174512Y-406432271D01*
X561174512Y-406432271D02*
X561103084Y-406289414D01*
X561103084Y-406289414D02*
X561103084Y-405860842D01*
X561103084Y-405860842D02*
X561174512Y-405717985D01*
X561174512Y-405717985D02*
X561245941Y-405646557D01*
X561245941Y-405646557D02*
X561388798Y-405575128D01*
X561388798Y-405575128D02*
X561674512Y-405575128D01*
X561674512Y-405575128D02*
X561817370Y-405646557D01*
X562531655Y-406432271D02*
X562603084Y-406503700D01*
X562603084Y-406503700D02*
X562531655Y-406575128D01*
X562531655Y-406575128D02*
X562460227Y-406503700D01*
X562460227Y-406503700D02*
X562531655Y-406432271D01*
X562531655Y-406432271D02*
X562531655Y-406575128D01*
X562531655Y-405646557D02*
X562603084Y-405717985D01*
X562603084Y-405717985D02*
X562531655Y-405789414D01*
X562531655Y-405789414D02*
X562460227Y-405717985D01*
X562460227Y-405717985D02*
X562531655Y-405646557D01*
X562531655Y-405646557D02*
X562531655Y-405789414D01*
X565174513Y-406575128D02*
X564317370Y-406575128D01*
X564745941Y-406575128D02*
X564745941Y-405075128D01*
X564745941Y-405075128D02*
X564603084Y-405289414D01*
X564603084Y-405289414D02*
X564460227Y-405432271D01*
X564460227Y-405432271D02*
X564317370Y-405503700D01*
X566888798Y-405003700D02*
X565603084Y-406932271D01*
X568174513Y-406575128D02*
X567317370Y-406575128D01*
X567745941Y-406575128D02*
X567745941Y-405075128D01*
X567745941Y-405075128D02*
X567603084Y-405289414D01*
X567603084Y-405289414D02*
X567460227Y-405432271D01*
X567460227Y-405432271D02*
X567317370Y-405503700D01*
D10*
D11*
X474004400Y-397489000D02*
X582004400Y-397489000D01*
D10*
D13*
X475696128Y-398193438D02*
X476838985Y-398193438D01*
X476017557Y-400193438D02*
X476267557Y-398193438D01*
X477255652Y-400193438D02*
X477422319Y-398860104D01*
X477505652Y-398193438D02*
X477398509Y-398288676D01*
X477398509Y-398288676D02*
X477481843Y-398383914D01*
X477481843Y-398383914D02*
X477588986Y-398288676D01*
X477588986Y-398288676D02*
X477505652Y-398193438D01*
X477505652Y-398193438D02*
X477481843Y-398383914D01*
X478088986Y-398860104D02*
X478850890Y-398860104D01*
X478458033Y-398193438D02*
X478243748Y-399907723D01*
X478243748Y-399907723D02*
X478315176Y-400098200D01*
X478315176Y-400098200D02*
X478493748Y-400193438D01*
X478493748Y-400193438D02*
X478684224Y-400193438D01*
X479636605Y-400193438D02*
X479458033Y-400098200D01*
X479458033Y-400098200D02*
X479386605Y-399907723D01*
X479386605Y-399907723D02*
X479600890Y-398193438D01*
X481172319Y-400098200D02*
X480969938Y-400193438D01*
X480969938Y-400193438D02*
X480588985Y-400193438D01*
X480588985Y-400193438D02*
X480410414Y-400098200D01*
X480410414Y-400098200D02*
X480338985Y-399907723D01*
X480338985Y-399907723D02*
X480434224Y-399145819D01*
X480434224Y-399145819D02*
X480553271Y-398955342D01*
X480553271Y-398955342D02*
X480755652Y-398860104D01*
X480755652Y-398860104D02*
X481136604Y-398860104D01*
X481136604Y-398860104D02*
X481315176Y-398955342D01*
X481315176Y-398955342D02*
X481386604Y-399145819D01*
X481386604Y-399145819D02*
X481362795Y-399336295D01*
X481362795Y-399336295D02*
X480386604Y-399526771D01*
X482136605Y-400002961D02*
X482219938Y-400098200D01*
X482219938Y-400098200D02*
X482112795Y-400193438D01*
X482112795Y-400193438D02*
X482029462Y-400098200D01*
X482029462Y-400098200D02*
X482136605Y-400002961D01*
X482136605Y-400002961D02*
X482112795Y-400193438D01*
X482267557Y-398955342D02*
X482350890Y-399050580D01*
X482350890Y-399050580D02*
X482243748Y-399145819D01*
X482243748Y-399145819D02*
X482160414Y-399050580D01*
X482160414Y-399050580D02*
X482267557Y-398955342D01*
X482267557Y-398955342D02*
X482243748Y-399145819D01*
D10*
D11*
X475960226Y-395589414D02*
X475460226Y-395589414D01*
X475460226Y-396375128D02*
X475460226Y-394875128D01*
X475460226Y-394875128D02*
X476174512Y-394875128D01*
X476745940Y-396375128D02*
X476745940Y-395375128D01*
X476745940Y-394875128D02*
X476674512Y-394946557D01*
X476674512Y-394946557D02*
X476745940Y-395017985D01*
X476745940Y-395017985D02*
X476817369Y-394946557D01*
X476817369Y-394946557D02*
X476745940Y-394875128D01*
X476745940Y-394875128D02*
X476745940Y-395017985D01*
X477674512Y-396375128D02*
X477531655Y-396303700D01*
X477531655Y-396303700D02*
X477460226Y-396160842D01*
X477460226Y-396160842D02*
X477460226Y-394875128D01*
X478817369Y-396303700D02*
X478674512Y-396375128D01*
X478674512Y-396375128D02*
X478388798Y-396375128D01*
X478388798Y-396375128D02*
X478245940Y-396303700D01*
X478245940Y-396303700D02*
X478174512Y-396160842D01*
X478174512Y-396160842D02*
X478174512Y-395589414D01*
X478174512Y-395589414D02*
X478245940Y-395446557D01*
X478245940Y-395446557D02*
X478388798Y-395375128D01*
X478388798Y-395375128D02*
X478674512Y-395375128D01*
X478674512Y-395375128D02*
X478817369Y-395446557D01*
X478817369Y-395446557D02*
X478888798Y-395589414D01*
X478888798Y-395589414D02*
X478888798Y-395732271D01*
X478888798Y-395732271D02*
X478174512Y-395875128D01*
X479531654Y-396232271D02*
X479603083Y-396303700D01*
X479603083Y-396303700D02*
X479531654Y-396375128D01*
X479531654Y-396375128D02*
X479460226Y-396303700D01*
X479460226Y-396303700D02*
X479531654Y-396232271D01*
X479531654Y-396232271D02*
X479531654Y-396375128D01*
X479531654Y-395446557D02*
X479603083Y-395517985D01*
X479603083Y-395517985D02*
X479531654Y-395589414D01*
X479531654Y-395589414D02*
X479460226Y-395517985D01*
X479460226Y-395517985D02*
X479531654Y-395446557D01*
X479531654Y-395446557D02*
X479531654Y-395589414D01*
X481388797Y-396375128D02*
X481388797Y-394875128D01*
X481388797Y-395589414D02*
X482245940Y-395589414D01*
X482245940Y-396375128D02*
X482245940Y-394875128D01*
X483603084Y-396375128D02*
X483603084Y-395589414D01*
X483603084Y-395589414D02*
X483531655Y-395446557D01*
X483531655Y-395446557D02*
X483388798Y-395375128D01*
X483388798Y-395375128D02*
X483103084Y-395375128D01*
X483103084Y-395375128D02*
X482960226Y-395446557D01*
X483603084Y-396303700D02*
X483460226Y-396375128D01*
X483460226Y-396375128D02*
X483103084Y-396375128D01*
X483103084Y-396375128D02*
X482960226Y-396303700D01*
X482960226Y-396303700D02*
X482888798Y-396160842D01*
X482888798Y-396160842D02*
X482888798Y-396017985D01*
X482888798Y-396017985D02*
X482960226Y-395875128D01*
X482960226Y-395875128D02*
X483103084Y-395803700D01*
X483103084Y-395803700D02*
X483460226Y-395803700D01*
X483460226Y-395803700D02*
X483603084Y-395732271D01*
X484317369Y-396375128D02*
X484317369Y-395375128D01*
X484317369Y-395517985D02*
X484388798Y-395446557D01*
X484388798Y-395446557D02*
X484531655Y-395375128D01*
X484531655Y-395375128D02*
X484745941Y-395375128D01*
X484745941Y-395375128D02*
X484888798Y-395446557D01*
X484888798Y-395446557D02*
X484960227Y-395589414D01*
X484960227Y-395589414D02*
X484960227Y-396375128D01*
X484960227Y-395589414D02*
X485031655Y-395446557D01*
X485031655Y-395446557D02*
X485174512Y-395375128D01*
X485174512Y-395375128D02*
X485388798Y-395375128D01*
X485388798Y-395375128D02*
X485531655Y-395446557D01*
X485531655Y-395446557D02*
X485603084Y-395589414D01*
X485603084Y-395589414D02*
X485603084Y-396375128D01*
X486317369Y-395375128D02*
X486317369Y-396875128D01*
X486317369Y-395446557D02*
X486460227Y-395375128D01*
X486460227Y-395375128D02*
X486745941Y-395375128D01*
X486745941Y-395375128D02*
X486888798Y-395446557D01*
X486888798Y-395446557D02*
X486960227Y-395517985D01*
X486960227Y-395517985D02*
X487031655Y-395660842D01*
X487031655Y-395660842D02*
X487031655Y-396089414D01*
X487031655Y-396089414D02*
X486960227Y-396232271D01*
X486960227Y-396232271D02*
X486888798Y-396303700D01*
X486888798Y-396303700D02*
X486745941Y-396375128D01*
X486745941Y-396375128D02*
X486460227Y-396375128D01*
X486460227Y-396375128D02*
X486317369Y-396303700D01*
X487460227Y-395375128D02*
X488031655Y-395375128D01*
X487674512Y-394875128D02*
X487674512Y-396160842D01*
X487674512Y-396160842D02*
X487745941Y-396303700D01*
X487745941Y-396303700D02*
X487888798Y-396375128D01*
X487888798Y-396375128D02*
X488031655Y-396375128D01*
X489103084Y-396303700D02*
X488960227Y-396375128D01*
X488960227Y-396375128D02*
X488674513Y-396375128D01*
X488674513Y-396375128D02*
X488531655Y-396303700D01*
X488531655Y-396303700D02*
X488460227Y-396160842D01*
X488460227Y-396160842D02*
X488460227Y-395589414D01*
X488460227Y-395589414D02*
X488531655Y-395446557D01*
X488531655Y-395446557D02*
X488674513Y-395375128D01*
X488674513Y-395375128D02*
X488960227Y-395375128D01*
X488960227Y-395375128D02*
X489103084Y-395446557D01*
X489103084Y-395446557D02*
X489174513Y-395589414D01*
X489174513Y-395589414D02*
X489174513Y-395732271D01*
X489174513Y-395732271D02*
X488460227Y-395875128D01*
X489817369Y-396375128D02*
X489817369Y-395375128D01*
X489817369Y-395660842D02*
X489888798Y-395517985D01*
X489888798Y-395517985D02*
X489960227Y-395446557D01*
X489960227Y-395446557D02*
X490103084Y-395375128D01*
X490103084Y-395375128D02*
X490245941Y-395375128D01*
X490603083Y-394875128D02*
X491531655Y-394875128D01*
X491531655Y-394875128D02*
X491031655Y-395446557D01*
X491031655Y-395446557D02*
X491245940Y-395446557D01*
X491245940Y-395446557D02*
X491388798Y-395517985D01*
X491388798Y-395517985D02*
X491460226Y-395589414D01*
X491460226Y-395589414D02*
X491531655Y-395732271D01*
X491531655Y-395732271D02*
X491531655Y-396089414D01*
X491531655Y-396089414D02*
X491460226Y-396232271D01*
X491460226Y-396232271D02*
X491388798Y-396303700D01*
X491388798Y-396303700D02*
X491245940Y-396375128D01*
X491245940Y-396375128D02*
X490817369Y-396375128D01*
X490817369Y-396375128D02*
X490674512Y-396303700D01*
X490674512Y-396303700D02*
X490603083Y-396232271D01*
X492174511Y-396232271D02*
X492245940Y-396303700D01*
X492245940Y-396303700D02*
X492174511Y-396375128D01*
X492174511Y-396375128D02*
X492103083Y-396303700D01*
X492103083Y-396303700D02*
X492174511Y-396232271D01*
X492174511Y-396232271D02*
X492174511Y-396375128D01*
X493674512Y-396375128D02*
X492817369Y-396375128D01*
X493245940Y-396375128D02*
X493245940Y-394875128D01*
X493245940Y-394875128D02*
X493103083Y-395089414D01*
X493103083Y-395089414D02*
X492960226Y-395232271D01*
X492960226Y-395232271D02*
X492817369Y-395303700D01*
X494317368Y-396232271D02*
X494388797Y-396303700D01*
X494388797Y-396303700D02*
X494317368Y-396375128D01*
X494317368Y-396375128D02*
X494245940Y-396303700D01*
X494245940Y-396303700D02*
X494317368Y-396232271D01*
X494317368Y-396232271D02*
X494317368Y-396375128D01*
X495031654Y-396375128D02*
X495031654Y-394875128D01*
X495174512Y-395803700D02*
X495603083Y-396375128D01*
X495603083Y-395375128D02*
X495031654Y-395946557D01*
X496245940Y-396375128D02*
X496245940Y-395375128D01*
X496245940Y-394875128D02*
X496174512Y-394946557D01*
X496174512Y-394946557D02*
X496245940Y-395017985D01*
X496245940Y-395017985D02*
X496317369Y-394946557D01*
X496317369Y-394946557D02*
X496245940Y-394875128D01*
X496245940Y-394875128D02*
X496245940Y-395017985D01*
X497603084Y-396303700D02*
X497460226Y-396375128D01*
X497460226Y-396375128D02*
X497174512Y-396375128D01*
X497174512Y-396375128D02*
X497031655Y-396303700D01*
X497031655Y-396303700D02*
X496960226Y-396232271D01*
X496960226Y-396232271D02*
X496888798Y-396089414D01*
X496888798Y-396089414D02*
X496888798Y-395660842D01*
X496888798Y-395660842D02*
X496960226Y-395517985D01*
X496960226Y-395517985D02*
X497031655Y-395446557D01*
X497031655Y-395446557D02*
X497174512Y-395375128D01*
X497174512Y-395375128D02*
X497460226Y-395375128D01*
X497460226Y-395375128D02*
X497603084Y-395446557D01*
X498888798Y-396375128D02*
X498888798Y-395589414D01*
X498888798Y-395589414D02*
X498817369Y-395446557D01*
X498817369Y-395446557D02*
X498674512Y-395375128D01*
X498674512Y-395375128D02*
X498388798Y-395375128D01*
X498388798Y-395375128D02*
X498245940Y-395446557D01*
X498888798Y-396303700D02*
X498745940Y-396375128D01*
X498745940Y-396375128D02*
X498388798Y-396375128D01*
X498388798Y-396375128D02*
X498245940Y-396303700D01*
X498245940Y-396303700D02*
X498174512Y-396160842D01*
X498174512Y-396160842D02*
X498174512Y-396017985D01*
X498174512Y-396017985D02*
X498245940Y-395875128D01*
X498245940Y-395875128D02*
X498388798Y-395803700D01*
X498388798Y-395803700D02*
X498745940Y-395803700D01*
X498745940Y-395803700D02*
X498888798Y-395732271D01*
X500245941Y-396375128D02*
X500245941Y-394875128D01*
X500245941Y-396303700D02*
X500103083Y-396375128D01*
X500103083Y-396375128D02*
X499817369Y-396375128D01*
X499817369Y-396375128D02*
X499674512Y-396303700D01*
X499674512Y-396303700D02*
X499603083Y-396232271D01*
X499603083Y-396232271D02*
X499531655Y-396089414D01*
X499531655Y-396089414D02*
X499531655Y-395660842D01*
X499531655Y-395660842D02*
X499603083Y-395517985D01*
X499603083Y-395517985D02*
X499674512Y-395446557D01*
X499674512Y-395446557D02*
X499817369Y-395375128D01*
X499817369Y-395375128D02*
X500103083Y-395375128D01*
X500103083Y-395375128D02*
X500245941Y-395446557D01*
X500603084Y-396517985D02*
X501745941Y-396517985D01*
X502103083Y-395375128D02*
X502103083Y-396875128D01*
X502103083Y-395446557D02*
X502245941Y-395375128D01*
X502245941Y-395375128D02*
X502531655Y-395375128D01*
X502531655Y-395375128D02*
X502674512Y-395446557D01*
X502674512Y-395446557D02*
X502745941Y-395517985D01*
X502745941Y-395517985D02*
X502817369Y-395660842D01*
X502817369Y-395660842D02*
X502817369Y-396089414D01*
X502817369Y-396089414D02*
X502745941Y-396232271D01*
X502745941Y-396232271D02*
X502674512Y-396303700D01*
X502674512Y-396303700D02*
X502531655Y-396375128D01*
X502531655Y-396375128D02*
X502245941Y-396375128D01*
X502245941Y-396375128D02*
X502103083Y-396303700D01*
X504103084Y-396303700D02*
X503960226Y-396375128D01*
X503960226Y-396375128D02*
X503674512Y-396375128D01*
X503674512Y-396375128D02*
X503531655Y-396303700D01*
X503531655Y-396303700D02*
X503460226Y-396232271D01*
X503460226Y-396232271D02*
X503388798Y-396089414D01*
X503388798Y-396089414D02*
X503388798Y-395660842D01*
X503388798Y-395660842D02*
X503460226Y-395517985D01*
X503460226Y-395517985D02*
X503531655Y-395446557D01*
X503531655Y-395446557D02*
X503674512Y-395375128D01*
X503674512Y-395375128D02*
X503960226Y-395375128D01*
X503960226Y-395375128D02*
X504103084Y-395446557D01*
X504745940Y-396375128D02*
X504745940Y-394875128D01*
X504745940Y-395446557D02*
X504888798Y-395375128D01*
X504888798Y-395375128D02*
X505174512Y-395375128D01*
X505174512Y-395375128D02*
X505317369Y-395446557D01*
X505317369Y-395446557D02*
X505388798Y-395517985D01*
X505388798Y-395517985D02*
X505460226Y-395660842D01*
X505460226Y-395660842D02*
X505460226Y-396089414D01*
X505460226Y-396089414D02*
X505388798Y-396232271D01*
X505388798Y-396232271D02*
X505317369Y-396303700D01*
X505317369Y-396303700D02*
X505174512Y-396375128D01*
X505174512Y-396375128D02*
X504888798Y-396375128D01*
X504888798Y-396375128D02*
X504745940Y-396303700D01*
D10*
D11*
X474004400Y-391489000D02*
X582004400Y-391489000D01*
D10*
D11*
X475388798Y-393603700D02*
X475603084Y-393675128D01*
X475603084Y-393675128D02*
X475960226Y-393675128D01*
X475960226Y-393675128D02*
X476103084Y-393603700D01*
X476103084Y-393603700D02*
X476174512Y-393532271D01*
X476174512Y-393532271D02*
X476245941Y-393389414D01*
X476245941Y-393389414D02*
X476245941Y-393246557D01*
X476245941Y-393246557D02*
X476174512Y-393103700D01*
X476174512Y-393103700D02*
X476103084Y-393032271D01*
X476103084Y-393032271D02*
X475960226Y-392960842D01*
X475960226Y-392960842D02*
X475674512Y-392889414D01*
X475674512Y-392889414D02*
X475531655Y-392817985D01*
X475531655Y-392817985D02*
X475460226Y-392746557D01*
X475460226Y-392746557D02*
X475388798Y-392603700D01*
X475388798Y-392603700D02*
X475388798Y-392460842D01*
X475388798Y-392460842D02*
X475460226Y-392317985D01*
X475460226Y-392317985D02*
X475531655Y-392246557D01*
X475531655Y-392246557D02*
X475674512Y-392175128D01*
X475674512Y-392175128D02*
X476031655Y-392175128D01*
X476031655Y-392175128D02*
X476245941Y-392246557D01*
X476888797Y-393675128D02*
X476888797Y-392175128D01*
X477531655Y-393675128D02*
X477531655Y-392889414D01*
X477531655Y-392889414D02*
X477460226Y-392746557D01*
X477460226Y-392746557D02*
X477317369Y-392675128D01*
X477317369Y-392675128D02*
X477103083Y-392675128D01*
X477103083Y-392675128D02*
X476960226Y-392746557D01*
X476960226Y-392746557D02*
X476888797Y-392817985D01*
X478817369Y-393603700D02*
X478674512Y-393675128D01*
X478674512Y-393675128D02*
X478388798Y-393675128D01*
X478388798Y-393675128D02*
X478245940Y-393603700D01*
X478245940Y-393603700D02*
X478174512Y-393460842D01*
X478174512Y-393460842D02*
X478174512Y-392889414D01*
X478174512Y-392889414D02*
X478245940Y-392746557D01*
X478245940Y-392746557D02*
X478388798Y-392675128D01*
X478388798Y-392675128D02*
X478674512Y-392675128D01*
X478674512Y-392675128D02*
X478817369Y-392746557D01*
X478817369Y-392746557D02*
X478888798Y-392889414D01*
X478888798Y-392889414D02*
X478888798Y-393032271D01*
X478888798Y-393032271D02*
X478174512Y-393175128D01*
X480103083Y-393603700D02*
X479960226Y-393675128D01*
X479960226Y-393675128D02*
X479674512Y-393675128D01*
X479674512Y-393675128D02*
X479531654Y-393603700D01*
X479531654Y-393603700D02*
X479460226Y-393460842D01*
X479460226Y-393460842D02*
X479460226Y-392889414D01*
X479460226Y-392889414D02*
X479531654Y-392746557D01*
X479531654Y-392746557D02*
X479674512Y-392675128D01*
X479674512Y-392675128D02*
X479960226Y-392675128D01*
X479960226Y-392675128D02*
X480103083Y-392746557D01*
X480103083Y-392746557D02*
X480174512Y-392889414D01*
X480174512Y-392889414D02*
X480174512Y-393032271D01*
X480174512Y-393032271D02*
X479460226Y-393175128D01*
X480603083Y-392675128D02*
X481174511Y-392675128D01*
X480817368Y-392175128D02*
X480817368Y-393460842D01*
X480817368Y-393460842D02*
X480888797Y-393603700D01*
X480888797Y-393603700D02*
X481031654Y-393675128D01*
X481031654Y-393675128D02*
X481174511Y-393675128D01*
X481674511Y-393532271D02*
X481745940Y-393603700D01*
X481745940Y-393603700D02*
X481674511Y-393675128D01*
X481674511Y-393675128D02*
X481603083Y-393603700D01*
X481603083Y-393603700D02*
X481674511Y-393532271D01*
X481674511Y-393532271D02*
X481674511Y-393675128D01*
X481674511Y-392746557D02*
X481745940Y-392817985D01*
X481745940Y-392817985D02*
X481674511Y-392889414D01*
X481674511Y-392889414D02*
X481603083Y-392817985D01*
X481603083Y-392817985D02*
X481674511Y-392746557D01*
X481674511Y-392746557D02*
X481674511Y-392889414D01*
D10*
D12*
D10*
D11*
D10*
D11*
D10*
D11*
D10*
D11*
D10*
D11*
X494004400Y-401489000D02*
X494004400Y-404489000D01*
D10*
D11*
X558004400Y-401489000D02*
X558004400Y-407989000D01*
D14*
X356715768Y-236780838D02*
X356715768Y-234780838D01*
X356715768Y-234780838D02*
X357382435Y-236209409D01*
X357382435Y-236209409D02*
X358049101Y-234780838D01*
X358049101Y-234780838D02*
X358049101Y-236780838D01*
X342491768Y-196680838D02*
X342491768Y-198299885D01*
X342491768Y-198299885D02*
X342587006Y-198490361D01*
X342587006Y-198490361D02*
X342682244Y-198585600D01*
X342682244Y-198585600D02*
X342872720Y-198680838D01*
X342872720Y-198680838D02*
X343253673Y-198680838D01*
X343253673Y-198680838D02*
X343444149Y-198585600D01*
X343444149Y-198585600D02*
X343539387Y-198490361D01*
X343539387Y-198490361D02*
X343634625Y-198299885D01*
X343634625Y-198299885D02*
X343634625Y-196680838D01*
X467459625Y-255830838D02*
X466792958Y-254878457D01*
X466316768Y-255830838D02*
X466316768Y-253830838D01*
X466316768Y-253830838D02*
X467078673Y-253830838D01*
X467078673Y-253830838D02*
X467269149Y-253926076D01*
X467269149Y-253926076D02*
X467364387Y-254021314D01*
X467364387Y-254021314D02*
X467459625Y-254211790D01*
X467459625Y-254211790D02*
X467459625Y-254497504D01*
X467459625Y-254497504D02*
X467364387Y-254687980D01*
X467364387Y-254687980D02*
X467269149Y-254783219D01*
X467269149Y-254783219D02*
X467078673Y-254878457D01*
X467078673Y-254878457D02*
X466316768Y-254878457D01*
X468316768Y-255830838D02*
X468316768Y-254497504D01*
X468316768Y-253830838D02*
X468221530Y-253926076D01*
X468221530Y-253926076D02*
X468316768Y-254021314D01*
X468316768Y-254021314D02*
X468412006Y-253926076D01*
X468412006Y-253926076D02*
X468316768Y-253830838D01*
X468316768Y-253830838D02*
X468316768Y-254021314D01*
X470126292Y-254497504D02*
X470126292Y-256116552D01*
X470126292Y-256116552D02*
X470031054Y-256307028D01*
X470031054Y-256307028D02*
X469935816Y-256402266D01*
X469935816Y-256402266D02*
X469745339Y-256497504D01*
X469745339Y-256497504D02*
X469459625Y-256497504D01*
X469459625Y-256497504D02*
X469269149Y-256402266D01*
X470126292Y-255735600D02*
X469935816Y-255830838D01*
X469935816Y-255830838D02*
X469554863Y-255830838D01*
X469554863Y-255830838D02*
X469364387Y-255735600D01*
X469364387Y-255735600D02*
X469269149Y-255640361D01*
X469269149Y-255640361D02*
X469173911Y-255449885D01*
X469173911Y-255449885D02*
X469173911Y-254878457D01*
X469173911Y-254878457D02*
X469269149Y-254687980D01*
X469269149Y-254687980D02*
X469364387Y-254592742D01*
X469364387Y-254592742D02*
X469554863Y-254497504D01*
X469554863Y-254497504D02*
X469935816Y-254497504D01*
X469935816Y-254497504D02*
X470126292Y-254592742D01*
X471078673Y-255830838D02*
X471078673Y-253830838D01*
X471935816Y-255830838D02*
X471935816Y-254783219D01*
X471935816Y-254783219D02*
X471840578Y-254592742D01*
X471840578Y-254592742D02*
X471650102Y-254497504D01*
X471650102Y-254497504D02*
X471364387Y-254497504D01*
X471364387Y-254497504D02*
X471173911Y-254592742D01*
X471173911Y-254592742D02*
X471078673Y-254687980D01*
X472602483Y-254497504D02*
X473364387Y-254497504D01*
X472888197Y-253830838D02*
X472888197Y-255545123D01*
X472888197Y-255545123D02*
X472983435Y-255735600D01*
X472983435Y-255735600D02*
X473173911Y-255830838D01*
X473173911Y-255830838D02*
X473364387Y-255830838D01*
X375861006Y-236685600D02*
X375861006Y-236780838D01*
X375861006Y-236780838D02*
X375765768Y-236971314D01*
X375765768Y-236971314D02*
X375670530Y-237066552D01*
X378241959Y-235447504D02*
X376718149Y-236018933D01*
X376718149Y-236018933D02*
X378241959Y-236590361D01*
X304106054Y-196680838D02*
X305248911Y-196680838D01*
X304677482Y-198680838D02*
X304677482Y-196680838D01*
D15*
X137298327Y-168018095D02*
X137298327Y-163018095D01*
X137298327Y-163018095D02*
X138822137Y-163018095D01*
X138822137Y-163018095D02*
X139203089Y-163256190D01*
X139203089Y-163256190D02*
X139393566Y-163494285D01*
X139393566Y-163494285D02*
X139584042Y-163970476D01*
X139584042Y-163970476D02*
X139584042Y-164684761D01*
X139584042Y-164684761D02*
X139393566Y-165160952D01*
X139393566Y-165160952D02*
X139203089Y-165399047D01*
X139203089Y-165399047D02*
X138822137Y-165637142D01*
X138822137Y-165637142D02*
X137298327Y-165637142D01*
X141107851Y-167780000D02*
X141488804Y-168018095D01*
X141488804Y-168018095D02*
X142250708Y-168018095D01*
X142250708Y-168018095D02*
X142631661Y-167780000D01*
X142631661Y-167780000D02*
X142822137Y-167303809D01*
X142822137Y-167303809D02*
X142822137Y-167065714D01*
X142822137Y-167065714D02*
X142631661Y-166589523D01*
X142631661Y-166589523D02*
X142250708Y-166351428D01*
X142250708Y-166351428D02*
X141679280Y-166351428D01*
X141679280Y-166351428D02*
X141298327Y-166113333D01*
X141298327Y-166113333D02*
X141107851Y-165637142D01*
X141107851Y-165637142D02*
X141107851Y-165399047D01*
X141107851Y-165399047D02*
X141298327Y-164922857D01*
X141298327Y-164922857D02*
X141679280Y-164684761D01*
X141679280Y-164684761D02*
X142250708Y-164684761D01*
X142250708Y-164684761D02*
X142631661Y-164922857D01*
X144536422Y-164684761D02*
X144536422Y-169684761D01*
X144536422Y-164922857D02*
X144917375Y-164684761D01*
X144917375Y-164684761D02*
X145679280Y-164684761D01*
X145679280Y-164684761D02*
X146060232Y-164922857D01*
X146060232Y-164922857D02*
X146250708Y-165160952D01*
X146250708Y-165160952D02*
X146441184Y-165637142D01*
X146441184Y-165637142D02*
X146441184Y-167065714D01*
X146441184Y-167065714D02*
X146250708Y-167541904D01*
X146250708Y-167541904D02*
X146060232Y-167780000D01*
X146060232Y-167780000D02*
X145679280Y-168018095D01*
X145679280Y-168018095D02*
X144917375Y-168018095D01*
X144917375Y-168018095D02*
X144536422Y-167780000D01*
X147964994Y-167780000D02*
X148345947Y-168018095D01*
X148345947Y-168018095D02*
X149107851Y-168018095D01*
X149107851Y-168018095D02*
X149488804Y-167780000D01*
X149488804Y-167780000D02*
X149679280Y-167303809D01*
X149679280Y-167303809D02*
X149679280Y-167065714D01*
X149679280Y-167065714D02*
X149488804Y-166589523D01*
X149488804Y-166589523D02*
X149107851Y-166351428D01*
X149107851Y-166351428D02*
X148536423Y-166351428D01*
X148536423Y-166351428D02*
X148155470Y-166113333D01*
X148155470Y-166113333D02*
X147964994Y-165637142D01*
X147964994Y-165637142D02*
X147964994Y-165399047D01*
X147964994Y-165399047D02*
X148155470Y-164922857D01*
X148155470Y-164922857D02*
X148536423Y-164684761D01*
X148536423Y-164684761D02*
X149107851Y-164684761D01*
X149107851Y-164684761D02*
X149488804Y-164922857D01*
X151393565Y-164684761D02*
X151393565Y-169684761D01*
X151393565Y-164922857D02*
X151774518Y-164684761D01*
X151774518Y-164684761D02*
X152536423Y-164684761D01*
X152536423Y-164684761D02*
X152917375Y-164922857D01*
X152917375Y-164922857D02*
X153107851Y-165160952D01*
X153107851Y-165160952D02*
X153298327Y-165637142D01*
X153298327Y-165637142D02*
X153298327Y-167065714D01*
X153298327Y-167065714D02*
X153107851Y-167541904D01*
X153107851Y-167541904D02*
X152917375Y-167780000D01*
X152917375Y-167780000D02*
X152536423Y-168018095D01*
X152536423Y-168018095D02*
X151774518Y-168018095D01*
X151774518Y-168018095D02*
X151393565Y-167780000D01*
X154822137Y-167780000D02*
X155203090Y-168018095D01*
X155203090Y-168018095D02*
X155964994Y-168018095D01*
X155964994Y-168018095D02*
X156345947Y-167780000D01*
X156345947Y-167780000D02*
X156536423Y-167303809D01*
X156536423Y-167303809D02*
X156536423Y-167065714D01*
X156536423Y-167065714D02*
X156345947Y-166589523D01*
X156345947Y-166589523D02*
X155964994Y-166351428D01*
X155964994Y-166351428D02*
X155393566Y-166351428D01*
X155393566Y-166351428D02*
X155012613Y-166113333D01*
X155012613Y-166113333D02*
X154822137Y-165637142D01*
X154822137Y-165637142D02*
X154822137Y-165399047D01*
X154822137Y-165399047D02*
X155012613Y-164922857D01*
X155012613Y-164922857D02*
X155393566Y-164684761D01*
X155393566Y-164684761D02*
X155964994Y-164684761D01*
X155964994Y-164684761D02*
X156345947Y-164922857D01*
X158250708Y-164684761D02*
X158250708Y-169684761D01*
X158250708Y-164922857D02*
X158631661Y-164684761D01*
X158631661Y-164684761D02*
X159393566Y-164684761D01*
X159393566Y-164684761D02*
X159774518Y-164922857D01*
X159774518Y-164922857D02*
X159964994Y-165160952D01*
X159964994Y-165160952D02*
X160155470Y-165637142D01*
X160155470Y-165637142D02*
X160155470Y-167065714D01*
X160155470Y-167065714D02*
X159964994Y-167541904D01*
X159964994Y-167541904D02*
X159774518Y-167780000D01*
X159774518Y-167780000D02*
X159393566Y-168018095D01*
X159393566Y-168018095D02*
X158631661Y-168018095D01*
X158631661Y-168018095D02*
X158250708Y-167780000D01*
X161679280Y-167780000D02*
X162060233Y-168018095D01*
X162060233Y-168018095D02*
X162822137Y-168018095D01*
X162822137Y-168018095D02*
X163203090Y-167780000D01*
X163203090Y-167780000D02*
X163393566Y-167303809D01*
X163393566Y-167303809D02*
X163393566Y-167065714D01*
X163393566Y-167065714D02*
X163203090Y-166589523D01*
X163203090Y-166589523D02*
X162822137Y-166351428D01*
X162822137Y-166351428D02*
X162250709Y-166351428D01*
X162250709Y-166351428D02*
X161869756Y-166113333D01*
X161869756Y-166113333D02*
X161679280Y-165637142D01*
X161679280Y-165637142D02*
X161679280Y-165399047D01*
X161679280Y-165399047D02*
X161869756Y-164922857D01*
X161869756Y-164922857D02*
X162250709Y-164684761D01*
X162250709Y-164684761D02*
X162822137Y-164684761D01*
X162822137Y-164684761D02*
X163203090Y-164922857D01*
X165107851Y-164684761D02*
X165107851Y-169684761D01*
X165107851Y-164922857D02*
X165488804Y-164684761D01*
X165488804Y-164684761D02*
X166250709Y-164684761D01*
X166250709Y-164684761D02*
X166631661Y-164922857D01*
X166631661Y-164922857D02*
X166822137Y-165160952D01*
X166822137Y-165160952D02*
X167012613Y-165637142D01*
X167012613Y-165637142D02*
X167012613Y-167065714D01*
X167012613Y-167065714D02*
X166822137Y-167541904D01*
X166822137Y-167541904D02*
X166631661Y-167780000D01*
X166631661Y-167780000D02*
X166250709Y-168018095D01*
X166250709Y-168018095D02*
X165488804Y-168018095D01*
X165488804Y-168018095D02*
X165107851Y-167780000D01*
X168536423Y-167780000D02*
X168917376Y-168018095D01*
X168917376Y-168018095D02*
X169679280Y-168018095D01*
X169679280Y-168018095D02*
X170060233Y-167780000D01*
X170060233Y-167780000D02*
X170250709Y-167303809D01*
X170250709Y-167303809D02*
X170250709Y-167065714D01*
X170250709Y-167065714D02*
X170060233Y-166589523D01*
X170060233Y-166589523D02*
X169679280Y-166351428D01*
X169679280Y-166351428D02*
X169107852Y-166351428D01*
X169107852Y-166351428D02*
X168726899Y-166113333D01*
X168726899Y-166113333D02*
X168536423Y-165637142D01*
X168536423Y-165637142D02*
X168536423Y-165399047D01*
X168536423Y-165399047D02*
X168726899Y-164922857D01*
X168726899Y-164922857D02*
X169107852Y-164684761D01*
X169107852Y-164684761D02*
X169679280Y-164684761D01*
X169679280Y-164684761D02*
X170060233Y-164922857D01*
X171964994Y-164684761D02*
X171964994Y-169684761D01*
X171964994Y-164922857D02*
X172345947Y-164684761D01*
X172345947Y-164684761D02*
X173107852Y-164684761D01*
X173107852Y-164684761D02*
X173488804Y-164922857D01*
X173488804Y-164922857D02*
X173679280Y-165160952D01*
X173679280Y-165160952D02*
X173869756Y-165637142D01*
X173869756Y-165637142D02*
X173869756Y-167065714D01*
X173869756Y-167065714D02*
X173679280Y-167541904D01*
X173679280Y-167541904D02*
X173488804Y-167780000D01*
X173488804Y-167780000D02*
X173107852Y-168018095D01*
X173107852Y-168018095D02*
X172345947Y-168018095D01*
X172345947Y-168018095D02*
X171964994Y-167780000D01*
D14*
X219714387Y-179630838D02*
X218571530Y-179630838D01*
X219142958Y-179630838D02*
X219142958Y-177630838D01*
X219142958Y-177630838D02*
X218952482Y-177916552D01*
X218952482Y-177916552D02*
X218762006Y-178107028D01*
X218762006Y-178107028D02*
X218571530Y-178202266D01*
X220571530Y-179440361D02*
X220666768Y-179535600D01*
X220666768Y-179535600D02*
X220571530Y-179630838D01*
X220571530Y-179630838D02*
X220476292Y-179535600D01*
X220476292Y-179535600D02*
X220571530Y-179440361D01*
X220571530Y-179440361D02*
X220571530Y-179630838D01*
X220571530Y-178868933D02*
X220476292Y-177726076D01*
X220476292Y-177726076D02*
X220571530Y-177630838D01*
X220571530Y-177630838D02*
X220666768Y-177726076D01*
X220666768Y-177726076D02*
X220571530Y-178868933D01*
X220571530Y-178868933D02*
X220571530Y-177630838D01*
X447266768Y-234780838D02*
X447266768Y-236399885D01*
X447266768Y-236399885D02*
X447362006Y-236590361D01*
X447362006Y-236590361D02*
X447457244Y-236685600D01*
X447457244Y-236685600D02*
X447647720Y-236780838D01*
X447647720Y-236780838D02*
X448028673Y-236780838D01*
X448028673Y-236780838D02*
X448219149Y-236685600D01*
X448219149Y-236685600D02*
X448314387Y-236590361D01*
X448314387Y-236590361D02*
X448409625Y-236399885D01*
X448409625Y-236399885D02*
X448409625Y-234780838D01*
X449362006Y-235447504D02*
X449362006Y-237447504D01*
X449362006Y-235542742D02*
X449552482Y-235447504D01*
X449552482Y-235447504D02*
X449933435Y-235447504D01*
X449933435Y-235447504D02*
X450123911Y-235542742D01*
X450123911Y-235542742D02*
X450219149Y-235637980D01*
X450219149Y-235637980D02*
X450314387Y-235828457D01*
X450314387Y-235828457D02*
X450314387Y-236399885D01*
X450314387Y-236399885D02*
X450219149Y-236590361D01*
X450219149Y-236590361D02*
X450123911Y-236685600D01*
X450123911Y-236685600D02*
X449933435Y-236780838D01*
X449933435Y-236780838D02*
X449552482Y-236780838D01*
X449552482Y-236780838D02*
X449362006Y-236685600D01*
X139069339Y-177535600D02*
X137355054Y-180107028D01*
X249432530Y-255259409D02*
X250384911Y-255259409D01*
X249242054Y-255830838D02*
X249908720Y-253830838D01*
X249908720Y-253830838D02*
X250575387Y-255830838D01*
X251527768Y-255830838D02*
X251337292Y-255735600D01*
X251337292Y-255735600D02*
X251242054Y-255545123D01*
X251242054Y-255545123D02*
X251242054Y-253830838D01*
X252003959Y-254497504D02*
X252765863Y-254497504D01*
X252289673Y-253830838D02*
X252289673Y-255545123D01*
X252289673Y-255545123D02*
X252384911Y-255735600D01*
X252384911Y-255735600D02*
X252575387Y-255830838D01*
X252575387Y-255830838D02*
X252765863Y-255830838D01*
X138593149Y-215730838D02*
X137640768Y-215730838D01*
X137640768Y-215730838D02*
X137545530Y-216683219D01*
X137545530Y-216683219D02*
X137640768Y-216587980D01*
X137640768Y-216587980D02*
X137831244Y-216492742D01*
X137831244Y-216492742D02*
X138307435Y-216492742D01*
X138307435Y-216492742D02*
X138497911Y-216587980D01*
X138497911Y-216587980D02*
X138593149Y-216683219D01*
X138593149Y-216683219D02*
X138688387Y-216873695D01*
X138688387Y-216873695D02*
X138688387Y-217349885D01*
X138688387Y-217349885D02*
X138593149Y-217540361D01*
X138593149Y-217540361D02*
X138497911Y-217635600D01*
X138497911Y-217635600D02*
X138307435Y-217730838D01*
X138307435Y-217730838D02*
X137831244Y-217730838D01*
X137831244Y-217730838D02*
X137640768Y-217635600D01*
X137640768Y-217635600D02*
X137545530Y-217540361D01*
X366240768Y-217730838D02*
X366240768Y-215730838D01*
X367383625Y-217730838D02*
X366526482Y-216587980D01*
X367383625Y-215730838D02*
X366240768Y-216873695D01*
X362208435Y-159533219D02*
X361541768Y-159533219D01*
X361541768Y-160580838D02*
X361541768Y-158580838D01*
X361541768Y-158580838D02*
X362494149Y-158580838D01*
X363541768Y-159437980D02*
X363351292Y-159342742D01*
X363351292Y-159342742D02*
X363256054Y-159247504D01*
X363256054Y-159247504D02*
X363160816Y-159057028D01*
X363160816Y-159057028D02*
X363160816Y-158961790D01*
X363160816Y-158961790D02*
X363256054Y-158771314D01*
X363256054Y-158771314D02*
X363351292Y-158676076D01*
X363351292Y-158676076D02*
X363541768Y-158580838D01*
X363541768Y-158580838D02*
X363922721Y-158580838D01*
X363922721Y-158580838D02*
X364113197Y-158676076D01*
X364113197Y-158676076D02*
X364208435Y-158771314D01*
X364208435Y-158771314D02*
X364303673Y-158961790D01*
X364303673Y-158961790D02*
X364303673Y-159057028D01*
X364303673Y-159057028D02*
X364208435Y-159247504D01*
X364208435Y-159247504D02*
X364113197Y-159342742D01*
X364113197Y-159342742D02*
X363922721Y-159437980D01*
X363922721Y-159437980D02*
X363541768Y-159437980D01*
X363541768Y-159437980D02*
X363351292Y-159533219D01*
X363351292Y-159533219D02*
X363256054Y-159628457D01*
X363256054Y-159628457D02*
X363160816Y-159818933D01*
X363160816Y-159818933D02*
X363160816Y-160199885D01*
X363160816Y-160199885D02*
X363256054Y-160390361D01*
X363256054Y-160390361D02*
X363351292Y-160485600D01*
X363351292Y-160485600D02*
X363541768Y-160580838D01*
X363541768Y-160580838D02*
X363922721Y-160580838D01*
X363922721Y-160580838D02*
X364113197Y-160485600D01*
X364113197Y-160485600D02*
X364208435Y-160390361D01*
X364208435Y-160390361D02*
X364303673Y-160199885D01*
X364303673Y-160199885D02*
X364303673Y-159818933D01*
X364303673Y-159818933D02*
X364208435Y-159628457D01*
X364208435Y-159628457D02*
X364113197Y-159533219D01*
X364113197Y-159533219D02*
X363922721Y-159437980D01*
X424184435Y-159533219D02*
X423517768Y-159533219D01*
X423517768Y-160580838D02*
X423517768Y-158580838D01*
X423517768Y-158580838D02*
X424470149Y-158580838D01*
X426279673Y-160580838D02*
X425136816Y-160580838D01*
X425708244Y-160580838D02*
X425708244Y-158580838D01*
X425708244Y-158580838D02*
X425517768Y-158866552D01*
X425517768Y-158866552D02*
X425327292Y-159057028D01*
X425327292Y-159057028D02*
X425136816Y-159152266D01*
X428184435Y-160580838D02*
X427041578Y-160580838D01*
X427613006Y-160580838D02*
X427613006Y-158580838D01*
X427613006Y-158580838D02*
X427422530Y-158866552D01*
X427422530Y-158866552D02*
X427232054Y-159057028D01*
X427232054Y-159057028D02*
X427041578Y-159152266D01*
X281182435Y-159533219D02*
X280515768Y-159533219D01*
X280515768Y-160580838D02*
X280515768Y-158580838D01*
X280515768Y-158580838D02*
X281468149Y-158580838D01*
X283087197Y-159247504D02*
X283087197Y-160580838D01*
X282611006Y-158485600D02*
X282134816Y-159914171D01*
X282134816Y-159914171D02*
X283372911Y-159914171D01*
X319282435Y-235733219D02*
X319568149Y-235828457D01*
X319568149Y-235828457D02*
X319663387Y-235923695D01*
X319663387Y-235923695D02*
X319758625Y-236114171D01*
X319758625Y-236114171D02*
X319758625Y-236399885D01*
X319758625Y-236399885D02*
X319663387Y-236590361D01*
X319663387Y-236590361D02*
X319568149Y-236685600D01*
X319568149Y-236685600D02*
X319377673Y-236780838D01*
X319377673Y-236780838D02*
X318615768Y-236780838D01*
X318615768Y-236780838D02*
X318615768Y-234780838D01*
X318615768Y-234780838D02*
X319282435Y-234780838D01*
X319282435Y-234780838D02*
X319472911Y-234876076D01*
X319472911Y-234876076D02*
X319568149Y-234971314D01*
X319568149Y-234971314D02*
X319663387Y-235161790D01*
X319663387Y-235161790D02*
X319663387Y-235352266D01*
X319663387Y-235352266D02*
X319568149Y-235542742D01*
X319568149Y-235542742D02*
X319472911Y-235637980D01*
X319472911Y-235637980D02*
X319282435Y-235733219D01*
X319282435Y-235733219D02*
X318615768Y-235733219D01*
X266291768Y-197633219D02*
X266958435Y-197633219D01*
X267244149Y-198680838D02*
X266291768Y-198680838D01*
X266291768Y-198680838D02*
X266291768Y-196680838D01*
X266291768Y-196680838D02*
X267244149Y-196680838D01*
X390497720Y-177630838D02*
X390688197Y-177630838D01*
X390688197Y-177630838D02*
X390878673Y-177726076D01*
X390878673Y-177726076D02*
X390973911Y-177821314D01*
X390973911Y-177821314D02*
X391069149Y-178011790D01*
X391069149Y-178011790D02*
X391164387Y-178392742D01*
X391164387Y-178392742D02*
X391164387Y-178868933D01*
X391164387Y-178868933D02*
X391069149Y-179249885D01*
X391069149Y-179249885D02*
X390973911Y-179440361D01*
X390973911Y-179440361D02*
X390878673Y-179535600D01*
X390878673Y-179535600D02*
X390688197Y-179630838D01*
X390688197Y-179630838D02*
X390497720Y-179630838D01*
X390497720Y-179630838D02*
X390307244Y-179535600D01*
X390307244Y-179535600D02*
X390212006Y-179440361D01*
X390212006Y-179440361D02*
X390116768Y-179249885D01*
X390116768Y-179249885D02*
X390021530Y-178868933D01*
X390021530Y-178868933D02*
X390021530Y-178392742D01*
X390021530Y-178392742D02*
X390116768Y-178011790D01*
X390116768Y-178011790D02*
X390212006Y-177821314D01*
X390212006Y-177821314D02*
X390307244Y-177726076D01*
X390307244Y-177726076D02*
X390497720Y-177630838D01*
X391831054Y-180392742D02*
X391926292Y-180297504D01*
X391926292Y-180297504D02*
X392116768Y-180011790D01*
X392116768Y-180011790D02*
X392212006Y-179821314D01*
X392212006Y-179821314D02*
X392307244Y-179535600D01*
X392307244Y-179535600D02*
X392402482Y-179059409D01*
X392402482Y-179059409D02*
X392402482Y-178678457D01*
X392402482Y-178678457D02*
X392307244Y-178202266D01*
X392307244Y-178202266D02*
X392212006Y-177916552D01*
X392212006Y-177916552D02*
X392116768Y-177726076D01*
X392116768Y-177726076D02*
X391926292Y-177440361D01*
X391926292Y-177440361D02*
X391831054Y-177345123D01*
X447266768Y-255830838D02*
X447266768Y-253830838D01*
X447266768Y-253830838D02*
X447742958Y-253830838D01*
X447742958Y-253830838D02*
X448028673Y-253926076D01*
X448028673Y-253926076D02*
X448219149Y-254116552D01*
X448219149Y-254116552D02*
X448314387Y-254307028D01*
X448314387Y-254307028D02*
X448409625Y-254687980D01*
X448409625Y-254687980D02*
X448409625Y-254973695D01*
X448409625Y-254973695D02*
X448314387Y-255354647D01*
X448314387Y-255354647D02*
X448219149Y-255545123D01*
X448219149Y-255545123D02*
X448028673Y-255735600D01*
X448028673Y-255735600D02*
X447742958Y-255830838D01*
X447742958Y-255830838D02*
X447266768Y-255830838D01*
X449552482Y-255830838D02*
X449362006Y-255735600D01*
X449362006Y-255735600D02*
X449266768Y-255640361D01*
X449266768Y-255640361D02*
X449171530Y-255449885D01*
X449171530Y-255449885D02*
X449171530Y-254878457D01*
X449171530Y-254878457D02*
X449266768Y-254687980D01*
X449266768Y-254687980D02*
X449362006Y-254592742D01*
X449362006Y-254592742D02*
X449552482Y-254497504D01*
X449552482Y-254497504D02*
X449838197Y-254497504D01*
X449838197Y-254497504D02*
X450028673Y-254592742D01*
X450028673Y-254592742D02*
X450123911Y-254687980D01*
X450123911Y-254687980D02*
X450219149Y-254878457D01*
X450219149Y-254878457D02*
X450219149Y-255449885D01*
X450219149Y-255449885D02*
X450123911Y-255640361D01*
X450123911Y-255640361D02*
X450028673Y-255735600D01*
X450028673Y-255735600D02*
X449838197Y-255830838D01*
X449838197Y-255830838D02*
X449552482Y-255830838D01*
X450885816Y-254497504D02*
X451266768Y-255830838D01*
X451266768Y-255830838D02*
X451647721Y-254878457D01*
X451647721Y-254878457D02*
X452028673Y-255830838D01*
X452028673Y-255830838D02*
X452409625Y-254497504D01*
X453171530Y-254497504D02*
X453171530Y-255830838D01*
X453171530Y-254687980D02*
X453266768Y-254592742D01*
X453266768Y-254592742D02*
X453457244Y-254497504D01*
X453457244Y-254497504D02*
X453742959Y-254497504D01*
X453742959Y-254497504D02*
X453933435Y-254592742D01*
X453933435Y-254592742D02*
X454028673Y-254783219D01*
X454028673Y-254783219D02*
X454028673Y-255830838D01*
X256576292Y-177630838D02*
X257814387Y-177630838D01*
X257814387Y-177630838D02*
X257147720Y-178392742D01*
X257147720Y-178392742D02*
X257433435Y-178392742D01*
X257433435Y-178392742D02*
X257623911Y-178487980D01*
X257623911Y-178487980D02*
X257719149Y-178583219D01*
X257719149Y-178583219D02*
X257814387Y-178773695D01*
X257814387Y-178773695D02*
X257814387Y-179249885D01*
X257814387Y-179249885D02*
X257719149Y-179440361D01*
X257719149Y-179440361D02*
X257623911Y-179535600D01*
X257623911Y-179535600D02*
X257433435Y-179630838D01*
X257433435Y-179630838D02*
X256862006Y-179630838D01*
X256862006Y-179630838D02*
X256671530Y-179535600D01*
X256671530Y-179535600D02*
X256576292Y-179440361D01*
X258576292Y-178297504D02*
X260004863Y-178297504D01*
X259147720Y-177440361D02*
X258576292Y-180011790D01*
X259814387Y-179154647D02*
X258385816Y-179154647D01*
X259242959Y-180011790D02*
X259814387Y-177440361D01*
X324108435Y-159533219D02*
X323441768Y-159533219D01*
X323441768Y-160580838D02*
X323441768Y-158580838D01*
X323441768Y-158580838D02*
X324394149Y-158580838D01*
X326013197Y-158580838D02*
X325632244Y-158580838D01*
X325632244Y-158580838D02*
X325441768Y-158676076D01*
X325441768Y-158676076D02*
X325346530Y-158771314D01*
X325346530Y-158771314D02*
X325156054Y-159057028D01*
X325156054Y-159057028D02*
X325060816Y-159437980D01*
X325060816Y-159437980D02*
X325060816Y-160199885D01*
X325060816Y-160199885D02*
X325156054Y-160390361D01*
X325156054Y-160390361D02*
X325251292Y-160485600D01*
X325251292Y-160485600D02*
X325441768Y-160580838D01*
X325441768Y-160580838D02*
X325822721Y-160580838D01*
X325822721Y-160580838D02*
X326013197Y-160485600D01*
X326013197Y-160485600D02*
X326108435Y-160390361D01*
X326108435Y-160390361D02*
X326203673Y-160199885D01*
X326203673Y-160199885D02*
X326203673Y-159723695D01*
X326203673Y-159723695D02*
X326108435Y-159533219D01*
X326108435Y-159533219D02*
X326013197Y-159437980D01*
X326013197Y-159437980D02*
X325822721Y-159342742D01*
X325822721Y-159342742D02*
X325441768Y-159342742D01*
X325441768Y-159342742D02*
X325251292Y-159437980D01*
X325251292Y-159437980D02*
X325156054Y-159533219D01*
X325156054Y-159533219D02*
X325060816Y-159723695D01*
X371162006Y-179630838D02*
X371542958Y-179630838D01*
X371542958Y-179630838D02*
X371733435Y-179535600D01*
X371733435Y-179535600D02*
X371828673Y-179440361D01*
X371828673Y-179440361D02*
X372019149Y-179154647D01*
X372019149Y-179154647D02*
X372114387Y-178773695D01*
X372114387Y-178773695D02*
X372114387Y-178011790D01*
X372114387Y-178011790D02*
X372019149Y-177821314D01*
X372019149Y-177821314D02*
X371923911Y-177726076D01*
X371923911Y-177726076D02*
X371733435Y-177630838D01*
X371733435Y-177630838D02*
X371352482Y-177630838D01*
X371352482Y-177630838D02*
X371162006Y-177726076D01*
X371162006Y-177726076D02*
X371066768Y-177821314D01*
X371066768Y-177821314D02*
X370971530Y-178011790D01*
X370971530Y-178011790D02*
X370971530Y-178487980D01*
X370971530Y-178487980D02*
X371066768Y-178678457D01*
X371066768Y-178678457D02*
X371162006Y-178773695D01*
X371162006Y-178773695D02*
X371352482Y-178868933D01*
X371352482Y-178868933D02*
X371733435Y-178868933D01*
X371733435Y-178868933D02*
X371923911Y-178773695D01*
X371923911Y-178773695D02*
X372019149Y-178678457D01*
X372019149Y-178678457D02*
X372114387Y-178487980D01*
X373542959Y-180392742D02*
X373447720Y-180297504D01*
X373447720Y-180297504D02*
X373257244Y-180011790D01*
X373257244Y-180011790D02*
X373162006Y-179821314D01*
X373162006Y-179821314D02*
X373066768Y-179535600D01*
X373066768Y-179535600D02*
X372971530Y-179059409D01*
X372971530Y-179059409D02*
X372971530Y-178678457D01*
X372971530Y-178678457D02*
X373066768Y-178202266D01*
X373066768Y-178202266D02*
X373162006Y-177916552D01*
X373162006Y-177916552D02*
X373257244Y-177726076D01*
X373257244Y-177726076D02*
X373447720Y-177440361D01*
X373447720Y-177440361D02*
X373542959Y-177345123D01*
X423486006Y-215730838D02*
X423295530Y-216111790D01*
X424247911Y-215730838D02*
X424247911Y-216111790D01*
X425009816Y-215730838D02*
X425009816Y-216111790D01*
X243082435Y-159533219D02*
X242415768Y-159533219D01*
X242415768Y-160580838D02*
X242415768Y-158580838D01*
X242415768Y-158580838D02*
X243368149Y-158580838D01*
X244034816Y-158771314D02*
X244130054Y-158676076D01*
X244130054Y-158676076D02*
X244320530Y-158580838D01*
X244320530Y-158580838D02*
X244796721Y-158580838D01*
X244796721Y-158580838D02*
X244987197Y-158676076D01*
X244987197Y-158676076D02*
X245082435Y-158771314D01*
X245082435Y-158771314D02*
X245177673Y-158961790D01*
X245177673Y-158961790D02*
X245177673Y-159152266D01*
X245177673Y-159152266D02*
X245082435Y-159437980D01*
X245082435Y-159437980D02*
X243939578Y-160580838D01*
X243939578Y-160580838D02*
X245177673Y-160580838D01*
X332776292Y-177630838D02*
X334109625Y-177630838D01*
X334109625Y-177630838D02*
X333252482Y-179630838D01*
X336490578Y-179630838D02*
X336395340Y-179630838D01*
X336395340Y-179630838D02*
X336204863Y-179535600D01*
X336204863Y-179535600D02*
X335919149Y-179249885D01*
X335919149Y-179249885D02*
X335442959Y-178678457D01*
X335442959Y-178678457D02*
X335252482Y-178392742D01*
X335252482Y-178392742D02*
X335157244Y-178107028D01*
X335157244Y-178107028D02*
X335157244Y-177916552D01*
X335157244Y-177916552D02*
X335252482Y-177726076D01*
X335252482Y-177726076D02*
X335442959Y-177630838D01*
X335442959Y-177630838D02*
X335538197Y-177630838D01*
X335538197Y-177630838D02*
X335728673Y-177726076D01*
X335728673Y-177726076D02*
X335823911Y-177916552D01*
X335823911Y-177916552D02*
X335823911Y-178011790D01*
X335823911Y-178011790D02*
X335728673Y-178202266D01*
X335728673Y-178202266D02*
X335633435Y-178297504D01*
X335633435Y-178297504D02*
X335062006Y-178678457D01*
X335062006Y-178678457D02*
X334966768Y-178773695D01*
X334966768Y-178773695D02*
X334871530Y-178964171D01*
X334871530Y-178964171D02*
X334871530Y-179249885D01*
X334871530Y-179249885D02*
X334966768Y-179440361D01*
X334966768Y-179440361D02*
X335062006Y-179535600D01*
X335062006Y-179535600D02*
X335252482Y-179630838D01*
X335252482Y-179630838D02*
X335538197Y-179630838D01*
X335538197Y-179630838D02*
X335728673Y-179535600D01*
X335728673Y-179535600D02*
X335823911Y-179440361D01*
X335823911Y-179440361D02*
X336109625Y-179059409D01*
X336109625Y-179059409D02*
X336204863Y-178773695D01*
X336204863Y-178773695D02*
X336204863Y-178583219D01*
D12*
X363418715Y-263873685D02*
X363490143Y-263802257D01*
X363490143Y-263802257D02*
X363633001Y-263730828D01*
X363633001Y-263730828D02*
X363990143Y-263730828D01*
X363990143Y-263730828D02*
X364133001Y-263802257D01*
X364133001Y-263802257D02*
X364204429Y-263873685D01*
X364204429Y-263873685D02*
X364275858Y-264016542D01*
X364275858Y-264016542D02*
X364275858Y-264159400D01*
X364275858Y-264159400D02*
X364204429Y-264373685D01*
X364204429Y-264373685D02*
X363347286Y-265230828D01*
X363347286Y-265230828D02*
X364275858Y-265230828D01*
X364918714Y-265087971D02*
X364990143Y-265159400D01*
X364990143Y-265159400D02*
X364918714Y-265230828D01*
X364918714Y-265230828D02*
X364847286Y-265159400D01*
X364847286Y-265159400D02*
X364918714Y-265087971D01*
X364918714Y-265087971D02*
X364918714Y-265230828D01*
X365561572Y-263873685D02*
X365633000Y-263802257D01*
X365633000Y-263802257D02*
X365775858Y-263730828D01*
X365775858Y-263730828D02*
X366133000Y-263730828D01*
X366133000Y-263730828D02*
X366275858Y-263802257D01*
X366275858Y-263802257D02*
X366347286Y-263873685D01*
X366347286Y-263873685D02*
X366418715Y-264016542D01*
X366418715Y-264016542D02*
X366418715Y-264159400D01*
X366418715Y-264159400D02*
X366347286Y-264373685D01*
X366347286Y-264373685D02*
X365490143Y-265230828D01*
X365490143Y-265230828D02*
X366418715Y-265230828D01*
X367775857Y-263730828D02*
X367061571Y-263730828D01*
X367061571Y-263730828D02*
X366990143Y-264445114D01*
X366990143Y-264445114D02*
X367061571Y-264373685D01*
X367061571Y-264373685D02*
X367204429Y-264302257D01*
X367204429Y-264302257D02*
X367561571Y-264302257D01*
X367561571Y-264302257D02*
X367704429Y-264373685D01*
X367704429Y-264373685D02*
X367775857Y-264445114D01*
X367775857Y-264445114D02*
X367847286Y-264587971D01*
X367847286Y-264587971D02*
X367847286Y-264945114D01*
X367847286Y-264945114D02*
X367775857Y-265087971D01*
X367775857Y-265087971D02*
X367704429Y-265159400D01*
X367704429Y-265159400D02*
X367561571Y-265230828D01*
X367561571Y-265230828D02*
X367204429Y-265230828D01*
X367204429Y-265230828D02*
X367061571Y-265159400D01*
X367061571Y-265159400D02*
X366990143Y-265087971D01*
D14*
X437551292Y-199347504D02*
X438027482Y-199347504D01*
X438027482Y-199347504D02*
X438027482Y-196490361D01*
X438027482Y-196490361D02*
X437551292Y-196490361D01*
X438884625Y-199442742D02*
X438979863Y-199442742D01*
X438979863Y-199442742D02*
X439170339Y-199347504D01*
X439170339Y-199347504D02*
X439265577Y-199157028D01*
X439265577Y-199157028D02*
X439265577Y-198204647D01*
X439265577Y-198204647D02*
X439360815Y-198014171D01*
X439360815Y-198014171D02*
X439551291Y-197918933D01*
X439551291Y-197918933D02*
X439360815Y-197823695D01*
X439360815Y-197823695D02*
X439265577Y-197633219D01*
X439265577Y-197633219D02*
X439265577Y-196680838D01*
X439265577Y-196680838D02*
X439170339Y-196490361D01*
X439170339Y-196490361D02*
X438979863Y-196395123D01*
X438979863Y-196395123D02*
X438884625Y-196395123D01*
X428216768Y-178583219D02*
X429740578Y-178583219D01*
X429740578Y-179154647D02*
X428216768Y-179154647D01*
X430692958Y-178868933D02*
X432216768Y-178868933D01*
X431454863Y-179630838D02*
X431454863Y-178107028D01*
X224032435Y-159533219D02*
X223365768Y-159533219D01*
X223365768Y-160580838D02*
X223365768Y-158580838D01*
X223365768Y-158580838D02*
X224318149Y-158580838D01*
X226127673Y-160580838D02*
X224984816Y-160580838D01*
X225556244Y-160580838D02*
X225556244Y-158580838D01*
X225556244Y-158580838D02*
X225365768Y-158866552D01*
X225365768Y-158866552D02*
X225175292Y-159057028D01*
X225175292Y-159057028D02*
X224984816Y-159152266D01*
D12*
X285059715Y-263873685D02*
X285131143Y-263802257D01*
X285131143Y-263802257D02*
X285274001Y-263730828D01*
X285274001Y-263730828D02*
X285631143Y-263730828D01*
X285631143Y-263730828D02*
X285774001Y-263802257D01*
X285774001Y-263802257D02*
X285845429Y-263873685D01*
X285845429Y-263873685D02*
X285916858Y-264016542D01*
X285916858Y-264016542D02*
X285916858Y-264159400D01*
X285916858Y-264159400D02*
X285845429Y-264373685D01*
X285845429Y-264373685D02*
X284988286Y-265230828D01*
X284988286Y-265230828D02*
X285916858Y-265230828D01*
X286559714Y-265087971D02*
X286631143Y-265159400D01*
X286631143Y-265159400D02*
X286559714Y-265230828D01*
X286559714Y-265230828D02*
X286488286Y-265159400D01*
X286488286Y-265159400D02*
X286559714Y-265087971D01*
X286559714Y-265087971D02*
X286559714Y-265230828D01*
X287202572Y-263873685D02*
X287274000Y-263802257D01*
X287274000Y-263802257D02*
X287416858Y-263730828D01*
X287416858Y-263730828D02*
X287774000Y-263730828D01*
X287774000Y-263730828D02*
X287916858Y-263802257D01*
X287916858Y-263802257D02*
X287988286Y-263873685D01*
X287988286Y-263873685D02*
X288059715Y-264016542D01*
X288059715Y-264016542D02*
X288059715Y-264159400D01*
X288059715Y-264159400D02*
X287988286Y-264373685D01*
X287988286Y-264373685D02*
X287131143Y-265230828D01*
X287131143Y-265230828D02*
X288059715Y-265230828D01*
X289416857Y-263730828D02*
X288702571Y-263730828D01*
X288702571Y-263730828D02*
X288631143Y-264445114D01*
X288631143Y-264445114D02*
X288702571Y-264373685D01*
X288702571Y-264373685D02*
X288845429Y-264302257D01*
X288845429Y-264302257D02*
X289202571Y-264302257D01*
X289202571Y-264302257D02*
X289345429Y-264373685D01*
X289345429Y-264373685D02*
X289416857Y-264445114D01*
X289416857Y-264445114D02*
X289488286Y-264587971D01*
X289488286Y-264587971D02*
X289488286Y-264945114D01*
X289488286Y-264945114D02*
X289416857Y-265087971D01*
X289416857Y-265087971D02*
X289345429Y-265159400D01*
X289345429Y-265159400D02*
X289202571Y-265230828D01*
X289202571Y-265230828D02*
X288845429Y-265230828D01*
X288845429Y-265230828D02*
X288702571Y-265159400D01*
X288702571Y-265159400D02*
X288631143Y-265087971D01*
D14*
X276673911Y-178297504D02*
X276673911Y-179630838D01*
X276197720Y-177535600D02*
X275721530Y-178964171D01*
X275721530Y-178964171D02*
X276959625Y-178964171D01*
X277626292Y-179535600D02*
X277912006Y-179630838D01*
X277912006Y-179630838D02*
X278388197Y-179630838D01*
X278388197Y-179630838D02*
X278578673Y-179535600D01*
X278578673Y-179535600D02*
X278673911Y-179440361D01*
X278673911Y-179440361D02*
X278769149Y-179249885D01*
X278769149Y-179249885D02*
X278769149Y-179059409D01*
X278769149Y-179059409D02*
X278673911Y-178868933D01*
X278673911Y-178868933D02*
X278578673Y-178773695D01*
X278578673Y-178773695D02*
X278388197Y-178678457D01*
X278388197Y-178678457D02*
X278007244Y-178583219D01*
X278007244Y-178583219D02*
X277816768Y-178487980D01*
X277816768Y-178487980D02*
X277721530Y-178392742D01*
X277721530Y-178392742D02*
X277626292Y-178202266D01*
X277626292Y-178202266D02*
X277626292Y-178011790D01*
X277626292Y-178011790D02*
X277721530Y-177821314D01*
X277721530Y-177821314D02*
X277816768Y-177726076D01*
X277816768Y-177726076D02*
X278007244Y-177630838D01*
X278007244Y-177630838D02*
X278483435Y-177630838D01*
X278483435Y-177630838D02*
X278769149Y-177726076D01*
X278197720Y-177345123D02*
X278197720Y-179916552D01*
X409833435Y-254783219D02*
X409166768Y-254783219D01*
X409166768Y-255830838D02*
X409166768Y-253830838D01*
X409166768Y-253830838D02*
X410119149Y-253830838D01*
X410881054Y-254497504D02*
X410881054Y-255830838D01*
X410881054Y-254687980D02*
X410976292Y-254592742D01*
X410976292Y-254592742D02*
X411166768Y-254497504D01*
X411166768Y-254497504D02*
X411452483Y-254497504D01*
X411452483Y-254497504D02*
X411642959Y-254592742D01*
X411642959Y-254592742D02*
X411738197Y-254783219D01*
X411738197Y-254783219D02*
X411738197Y-255830838D01*
X412595340Y-254021314D02*
X412690578Y-253926076D01*
X412690578Y-253926076D02*
X412881054Y-253830838D01*
X412881054Y-253830838D02*
X413357245Y-253830838D01*
X413357245Y-253830838D02*
X413547721Y-253926076D01*
X413547721Y-253926076D02*
X413642959Y-254021314D01*
X413642959Y-254021314D02*
X413738197Y-254211790D01*
X413738197Y-254211790D02*
X413738197Y-254402266D01*
X413738197Y-254402266D02*
X413642959Y-254687980D01*
X413642959Y-254687980D02*
X412500102Y-255830838D01*
X412500102Y-255830838D02*
X413738197Y-255830838D01*
X156665368Y-255640361D02*
X156760606Y-255735600D01*
X156760606Y-255735600D02*
X156665368Y-255830838D01*
X156665368Y-255830838D02*
X156570130Y-255735600D01*
X156570130Y-255735600D02*
X156665368Y-255640361D01*
X156665368Y-255640361D02*
X156665368Y-255830838D01*
X175740768Y-178868933D02*
X177264578Y-178868933D01*
X232795530Y-217159409D02*
X233747911Y-217159409D01*
X232605054Y-217730838D02*
X233271720Y-215730838D01*
X233271720Y-215730838D02*
X233938387Y-217730838D01*
D12*
X293949715Y-263873685D02*
X294021143Y-263802257D01*
X294021143Y-263802257D02*
X294164001Y-263730828D01*
X294164001Y-263730828D02*
X294521143Y-263730828D01*
X294521143Y-263730828D02*
X294664001Y-263802257D01*
X294664001Y-263802257D02*
X294735429Y-263873685D01*
X294735429Y-263873685D02*
X294806858Y-264016542D01*
X294806858Y-264016542D02*
X294806858Y-264159400D01*
X294806858Y-264159400D02*
X294735429Y-264373685D01*
X294735429Y-264373685D02*
X293878286Y-265230828D01*
X293878286Y-265230828D02*
X294806858Y-265230828D01*
X295449714Y-265087971D02*
X295521143Y-265159400D01*
X295521143Y-265159400D02*
X295449714Y-265230828D01*
X295449714Y-265230828D02*
X295378286Y-265159400D01*
X295378286Y-265159400D02*
X295449714Y-265087971D01*
X295449714Y-265087971D02*
X295449714Y-265230828D01*
X296021143Y-263730828D02*
X297021143Y-263730828D01*
X297021143Y-263730828D02*
X296378286Y-265230828D01*
X298306857Y-263730828D02*
X297592571Y-263730828D01*
X297592571Y-263730828D02*
X297521143Y-264445114D01*
X297521143Y-264445114D02*
X297592571Y-264373685D01*
X297592571Y-264373685D02*
X297735429Y-264302257D01*
X297735429Y-264302257D02*
X298092571Y-264302257D01*
X298092571Y-264302257D02*
X298235429Y-264373685D01*
X298235429Y-264373685D02*
X298306857Y-264445114D01*
X298306857Y-264445114D02*
X298378286Y-264587971D01*
X298378286Y-264587971D02*
X298378286Y-264945114D01*
X298378286Y-264945114D02*
X298306857Y-265087971D01*
X298306857Y-265087971D02*
X298235429Y-265159400D01*
X298235429Y-265159400D02*
X298092571Y-265230828D01*
X298092571Y-265230828D02*
X297735429Y-265230828D01*
X297735429Y-265230828D02*
X297592571Y-265159400D01*
X297592571Y-265159400D02*
X297521143Y-265087971D01*
D14*
X314773911Y-177630838D02*
X314392958Y-177630838D01*
X314392958Y-177630838D02*
X314202482Y-177726076D01*
X314202482Y-177726076D02*
X314107244Y-177821314D01*
X314107244Y-177821314D02*
X313916768Y-178107028D01*
X313916768Y-178107028D02*
X313821530Y-178487980D01*
X313821530Y-178487980D02*
X313821530Y-179249885D01*
X313821530Y-179249885D02*
X313916768Y-179440361D01*
X313916768Y-179440361D02*
X314012006Y-179535600D01*
X314012006Y-179535600D02*
X314202482Y-179630838D01*
X314202482Y-179630838D02*
X314583435Y-179630838D01*
X314583435Y-179630838D02*
X314773911Y-179535600D01*
X314773911Y-179535600D02*
X314869149Y-179440361D01*
X314869149Y-179440361D02*
X314964387Y-179249885D01*
X314964387Y-179249885D02*
X314964387Y-178773695D01*
X314964387Y-178773695D02*
X314869149Y-178583219D01*
X314869149Y-178583219D02*
X314773911Y-178487980D01*
X314773911Y-178487980D02*
X314583435Y-178392742D01*
X314583435Y-178392742D02*
X314202482Y-178392742D01*
X314202482Y-178392742D02*
X314012006Y-178487980D01*
X314012006Y-178487980D02*
X313916768Y-178583219D01*
X313916768Y-178583219D02*
X313821530Y-178773695D01*
X315535816Y-177821314D02*
X315916768Y-177535600D01*
X315916768Y-177535600D02*
X316297720Y-177821314D01*
X460951101Y-196490361D02*
X462665387Y-199061790D01*
X463427291Y-199347504D02*
X463427291Y-196490361D01*
X343158435Y-159533219D02*
X342491768Y-159533219D01*
X342491768Y-160580838D02*
X342491768Y-158580838D01*
X342491768Y-158580838D02*
X343444149Y-158580838D01*
X344015578Y-158580838D02*
X345348911Y-158580838D01*
X345348911Y-158580838D02*
X344491768Y-160580838D01*
X175867768Y-207443933D02*
X177391578Y-207443933D01*
X176629673Y-208205838D02*
X176629673Y-206682028D01*
X394815768Y-236590361D02*
X394911006Y-236685600D01*
X394911006Y-236685600D02*
X394815768Y-236780838D01*
X394815768Y-236780838D02*
X394720530Y-236685600D01*
X394720530Y-236685600D02*
X394815768Y-236590361D01*
X394815768Y-236590361D02*
X394815768Y-236780838D01*
X395768149Y-235447504D02*
X397291959Y-236018933D01*
X397291959Y-236018933D02*
X395768149Y-236590361D01*
X443234435Y-159533219D02*
X442567768Y-159533219D01*
X442567768Y-160580838D02*
X442567768Y-158580838D01*
X442567768Y-158580838D02*
X443520149Y-158580838D01*
X445329673Y-160580838D02*
X444186816Y-160580838D01*
X444758244Y-160580838D02*
X444758244Y-158580838D01*
X444758244Y-158580838D02*
X444567768Y-158866552D01*
X444567768Y-158866552D02*
X444377292Y-159057028D01*
X444377292Y-159057028D02*
X444186816Y-159152266D01*
X446091578Y-158771314D02*
X446186816Y-158676076D01*
X446186816Y-158676076D02*
X446377292Y-158580838D01*
X446377292Y-158580838D02*
X446853483Y-158580838D01*
X446853483Y-158580838D02*
X447043959Y-158676076D01*
X447043959Y-158676076D02*
X447139197Y-158771314D01*
X447139197Y-158771314D02*
X447234435Y-158961790D01*
X447234435Y-158961790D02*
X447234435Y-159152266D01*
X447234435Y-159152266D02*
X447139197Y-159437980D01*
X447139197Y-159437980D02*
X445996340Y-160580838D01*
X445996340Y-160580838D02*
X447234435Y-160580838D01*
X305058435Y-159533219D02*
X304391768Y-159533219D01*
X304391768Y-160580838D02*
X304391768Y-158580838D01*
X304391768Y-158580838D02*
X305344149Y-158580838D01*
X307058435Y-158580838D02*
X306106054Y-158580838D01*
X306106054Y-158580838D02*
X306010816Y-159533219D01*
X306010816Y-159533219D02*
X306106054Y-159437980D01*
X306106054Y-159437980D02*
X306296530Y-159342742D01*
X306296530Y-159342742D02*
X306772721Y-159342742D01*
X306772721Y-159342742D02*
X306963197Y-159437980D01*
X306963197Y-159437980D02*
X307058435Y-159533219D01*
X307058435Y-159533219D02*
X307153673Y-159723695D01*
X307153673Y-159723695D02*
X307153673Y-160199885D01*
X307153673Y-160199885D02*
X307058435Y-160390361D01*
X307058435Y-160390361D02*
X306963197Y-160485600D01*
X306963197Y-160485600D02*
X306772721Y-160580838D01*
X306772721Y-160580838D02*
X306296530Y-160580838D01*
X306296530Y-160580838D02*
X306106054Y-160485600D01*
X306106054Y-160485600D02*
X306010816Y-160390361D01*
X156500292Y-234780838D02*
X157738387Y-234780838D01*
X157738387Y-234780838D02*
X157071720Y-235542742D01*
X157071720Y-235542742D02*
X157357435Y-235542742D01*
X157357435Y-235542742D02*
X157547911Y-235637980D01*
X157547911Y-235637980D02*
X157643149Y-235733219D01*
X157643149Y-235733219D02*
X157738387Y-235923695D01*
X157738387Y-235923695D02*
X157738387Y-236399885D01*
X157738387Y-236399885D02*
X157643149Y-236590361D01*
X157643149Y-236590361D02*
X157547911Y-236685600D01*
X157547911Y-236685600D02*
X157357435Y-236780838D01*
X157357435Y-236780838D02*
X156786006Y-236780838D01*
X156786006Y-236780838D02*
X156595530Y-236685600D01*
X156595530Y-236685600D02*
X156500292Y-236590361D01*
X229525101Y-198871314D02*
X229334625Y-198776076D01*
X229334625Y-198776076D02*
X229144149Y-198585600D01*
X229144149Y-198585600D02*
X228858435Y-198299885D01*
X228858435Y-198299885D02*
X228667958Y-198204647D01*
X228667958Y-198204647D02*
X228477482Y-198204647D01*
X228572720Y-198680838D02*
X228382244Y-198585600D01*
X228382244Y-198585600D02*
X228191768Y-198395123D01*
X228191768Y-198395123D02*
X228096530Y-198014171D01*
X228096530Y-198014171D02*
X228096530Y-197347504D01*
X228096530Y-197347504D02*
X228191768Y-196966552D01*
X228191768Y-196966552D02*
X228382244Y-196776076D01*
X228382244Y-196776076D02*
X228572720Y-196680838D01*
X228572720Y-196680838D02*
X228953673Y-196680838D01*
X228953673Y-196680838D02*
X229144149Y-196776076D01*
X229144149Y-196776076D02*
X229334625Y-196966552D01*
X229334625Y-196966552D02*
X229429863Y-197347504D01*
X229429863Y-197347504D02*
X229429863Y-198014171D01*
X229429863Y-198014171D02*
X229334625Y-198395123D01*
X229334625Y-198395123D02*
X229144149Y-198585600D01*
X229144149Y-198585600D02*
X228953673Y-198680838D01*
X228953673Y-198680838D02*
X228572720Y-198680838D01*
X211332530Y-236685600D02*
X211618244Y-236780838D01*
X211618244Y-236780838D02*
X212094435Y-236780838D01*
X212094435Y-236780838D02*
X212284911Y-236685600D01*
X212284911Y-236685600D02*
X212380149Y-236590361D01*
X212380149Y-236590361D02*
X212475387Y-236399885D01*
X212475387Y-236399885D02*
X212475387Y-236209409D01*
X212475387Y-236209409D02*
X212380149Y-236018933D01*
X212380149Y-236018933D02*
X212284911Y-235923695D01*
X212284911Y-235923695D02*
X212094435Y-235828457D01*
X212094435Y-235828457D02*
X211713482Y-235733219D01*
X211713482Y-235733219D02*
X211523006Y-235637980D01*
X211523006Y-235637980D02*
X211427768Y-235542742D01*
X211427768Y-235542742D02*
X211332530Y-235352266D01*
X211332530Y-235352266D02*
X211332530Y-235161790D01*
X211332530Y-235161790D02*
X211427768Y-234971314D01*
X211427768Y-234971314D02*
X211523006Y-234876076D01*
X211523006Y-234876076D02*
X211713482Y-234780838D01*
X211713482Y-234780838D02*
X212189673Y-234780838D01*
X212189673Y-234780838D02*
X212475387Y-234876076D01*
X213332530Y-236780838D02*
X213332530Y-234780838D01*
X214189673Y-236780838D02*
X214189673Y-235733219D01*
X214189673Y-235733219D02*
X214094435Y-235542742D01*
X214094435Y-235542742D02*
X213903959Y-235447504D01*
X213903959Y-235447504D02*
X213618244Y-235447504D01*
X213618244Y-235447504D02*
X213427768Y-235542742D01*
X213427768Y-235542742D02*
X213332530Y-235637980D01*
X215142054Y-236780838D02*
X215142054Y-235447504D01*
X215142054Y-234780838D02*
X215046816Y-234876076D01*
X215046816Y-234876076D02*
X215142054Y-234971314D01*
X215142054Y-234971314D02*
X215237292Y-234876076D01*
X215237292Y-234876076D02*
X215142054Y-234780838D01*
X215142054Y-234780838D02*
X215142054Y-234971314D01*
X215808721Y-235447504D02*
X216570625Y-235447504D01*
X216094435Y-236780838D02*
X216094435Y-235066552D01*
X216094435Y-235066552D02*
X216189673Y-234876076D01*
X216189673Y-234876076D02*
X216380149Y-234780838D01*
X216380149Y-234780838D02*
X216570625Y-234780838D01*
X216951578Y-235447504D02*
X217713482Y-235447504D01*
X217237292Y-234780838D02*
X217237292Y-236495123D01*
X217237292Y-236495123D02*
X217332530Y-236685600D01*
X217332530Y-236685600D02*
X217523006Y-236780838D01*
X217523006Y-236780838D02*
X217713482Y-236780838D01*
X310138387Y-215826076D02*
X309947911Y-215730838D01*
X309947911Y-215730838D02*
X309662197Y-215730838D01*
X309662197Y-215730838D02*
X309376482Y-215826076D01*
X309376482Y-215826076D02*
X309186006Y-216016552D01*
X309186006Y-216016552D02*
X309090768Y-216207028D01*
X309090768Y-216207028D02*
X308995530Y-216587980D01*
X308995530Y-216587980D02*
X308995530Y-216873695D01*
X308995530Y-216873695D02*
X309090768Y-217254647D01*
X309090768Y-217254647D02*
X309186006Y-217445123D01*
X309186006Y-217445123D02*
X309376482Y-217635600D01*
X309376482Y-217635600D02*
X309662197Y-217730838D01*
X309662197Y-217730838D02*
X309852673Y-217730838D01*
X309852673Y-217730838D02*
X310138387Y-217635600D01*
X310138387Y-217635600D02*
X310233625Y-217540361D01*
X310233625Y-217540361D02*
X310233625Y-216873695D01*
X310233625Y-216873695D02*
X309852673Y-216873695D01*
X347762197Y-215730838D02*
X347762197Y-217159409D01*
X347762197Y-217159409D02*
X347666958Y-217445123D01*
X347666958Y-217445123D02*
X347476482Y-217635600D01*
X347476482Y-217635600D02*
X347190768Y-217730838D01*
X347190768Y-217730838D02*
X347000292Y-217730838D01*
X204030054Y-196680838D02*
X205172911Y-196680838D01*
X204601482Y-198680838D02*
X204601482Y-196680838D01*
X206696721Y-198680838D02*
X206696721Y-197633219D01*
X206696721Y-197633219D02*
X206601483Y-197442742D01*
X206601483Y-197442742D02*
X206411007Y-197347504D01*
X206411007Y-197347504D02*
X206030054Y-197347504D01*
X206030054Y-197347504D02*
X205839578Y-197442742D01*
X206696721Y-198585600D02*
X206506245Y-198680838D01*
X206506245Y-198680838D02*
X206030054Y-198680838D01*
X206030054Y-198680838D02*
X205839578Y-198585600D01*
X205839578Y-198585600D02*
X205744340Y-198395123D01*
X205744340Y-198395123D02*
X205744340Y-198204647D01*
X205744340Y-198204647D02*
X205839578Y-198014171D01*
X205839578Y-198014171D02*
X206030054Y-197918933D01*
X206030054Y-197918933D02*
X206506245Y-197918933D01*
X206506245Y-197918933D02*
X206696721Y-197823695D01*
X207649102Y-198680838D02*
X207649102Y-196680838D01*
X207649102Y-197442742D02*
X207839578Y-197347504D01*
X207839578Y-197347504D02*
X208220531Y-197347504D01*
X208220531Y-197347504D02*
X208411007Y-197442742D01*
X208411007Y-197442742D02*
X208506245Y-197537980D01*
X208506245Y-197537980D02*
X208601483Y-197728457D01*
X208601483Y-197728457D02*
X208601483Y-198299885D01*
X208601483Y-198299885D02*
X208506245Y-198490361D01*
X208506245Y-198490361D02*
X208411007Y-198585600D01*
X208411007Y-198585600D02*
X208220531Y-198680838D01*
X208220531Y-198680838D02*
X207839578Y-198680838D01*
X207839578Y-198680838D02*
X207649102Y-198585600D01*
X295819149Y-177630838D02*
X294866768Y-177630838D01*
X294866768Y-177630838D02*
X294771530Y-178583219D01*
X294771530Y-178583219D02*
X294866768Y-178487980D01*
X294866768Y-178487980D02*
X295057244Y-178392742D01*
X295057244Y-178392742D02*
X295533435Y-178392742D01*
X295533435Y-178392742D02*
X295723911Y-178487980D01*
X295723911Y-178487980D02*
X295819149Y-178583219D01*
X295819149Y-178583219D02*
X295914387Y-178773695D01*
X295914387Y-178773695D02*
X295914387Y-179249885D01*
X295914387Y-179249885D02*
X295819149Y-179440361D01*
X295819149Y-179440361D02*
X295723911Y-179535600D01*
X295723911Y-179535600D02*
X295533435Y-179630838D01*
X295533435Y-179630838D02*
X295057244Y-179630838D01*
X295057244Y-179630838D02*
X294866768Y-179535600D01*
X294866768Y-179535600D02*
X294771530Y-179440361D01*
X296676292Y-179630838D02*
X298200101Y-177630838D01*
X296962006Y-177630838D02*
X297152482Y-177726076D01*
X297152482Y-177726076D02*
X297247720Y-177916552D01*
X297247720Y-177916552D02*
X297152482Y-178107028D01*
X297152482Y-178107028D02*
X296962006Y-178202266D01*
X296962006Y-178202266D02*
X296771530Y-178107028D01*
X296771530Y-178107028D02*
X296676292Y-177916552D01*
X296676292Y-177916552D02*
X296771530Y-177726076D01*
X296771530Y-177726076D02*
X296962006Y-177630838D01*
X298104863Y-179535600D02*
X298200101Y-179345123D01*
X298200101Y-179345123D02*
X298104863Y-179154647D01*
X298104863Y-179154647D02*
X297914387Y-179059409D01*
X297914387Y-179059409D02*
X297723911Y-179154647D01*
X297723911Y-179154647D02*
X297628673Y-179345123D01*
X297628673Y-179345123D02*
X297723911Y-179535600D01*
X297723911Y-179535600D02*
X297914387Y-179630838D01*
X297914387Y-179630838D02*
X298104863Y-179535600D01*
D12*
X324143858Y-265357828D02*
X323286715Y-265357828D01*
X323715286Y-265357828D02*
X323715286Y-263857828D01*
X323715286Y-263857828D02*
X323572429Y-264072114D01*
X323572429Y-264072114D02*
X323429572Y-264214971D01*
X323429572Y-264214971D02*
X323286715Y-264286400D01*
X324786714Y-265214971D02*
X324858143Y-265286400D01*
X324858143Y-265286400D02*
X324786714Y-265357828D01*
X324786714Y-265357828D02*
X324715286Y-265286400D01*
X324715286Y-265286400D02*
X324786714Y-265214971D01*
X324786714Y-265214971D02*
X324786714Y-265357828D01*
X325358143Y-263857828D02*
X326358143Y-263857828D01*
X326358143Y-263857828D02*
X325715286Y-265357828D01*
X327643857Y-263857828D02*
X326929571Y-263857828D01*
X326929571Y-263857828D02*
X326858143Y-264572114D01*
X326858143Y-264572114D02*
X326929571Y-264500685D01*
X326929571Y-264500685D02*
X327072429Y-264429257D01*
X327072429Y-264429257D02*
X327429571Y-264429257D01*
X327429571Y-264429257D02*
X327572429Y-264500685D01*
X327572429Y-264500685D02*
X327643857Y-264572114D01*
X327643857Y-264572114D02*
X327715286Y-264714971D01*
X327715286Y-264714971D02*
X327715286Y-265072114D01*
X327715286Y-265072114D02*
X327643857Y-265214971D01*
X327643857Y-265214971D02*
X327572429Y-265286400D01*
X327572429Y-265286400D02*
X327429571Y-265357828D01*
X327429571Y-265357828D02*
X327072429Y-265357828D01*
X327072429Y-265357828D02*
X326929571Y-265286400D01*
X326929571Y-265286400D02*
X326858143Y-265214971D01*
D14*
X454378768Y-216683219D02*
X455045435Y-216683219D01*
X455331149Y-217730838D02*
X454378768Y-217730838D01*
X454378768Y-217730838D02*
X454378768Y-215730838D01*
X454378768Y-215730838D02*
X455331149Y-215730838D01*
X456188292Y-216397504D02*
X456188292Y-217730838D01*
X456188292Y-216587980D02*
X456283530Y-216492742D01*
X456283530Y-216492742D02*
X456474006Y-216397504D01*
X456474006Y-216397504D02*
X456759721Y-216397504D01*
X456759721Y-216397504D02*
X456950197Y-216492742D01*
X456950197Y-216492742D02*
X457045435Y-216683219D01*
X457045435Y-216683219D02*
X457045435Y-217730838D01*
X457712102Y-216397504D02*
X458474006Y-216397504D01*
X457997816Y-215730838D02*
X457997816Y-217445123D01*
X457997816Y-217445123D02*
X458093054Y-217635600D01*
X458093054Y-217635600D02*
X458283530Y-217730838D01*
X458283530Y-217730838D02*
X458474006Y-217730838D01*
X459902578Y-217635600D02*
X459712102Y-217730838D01*
X459712102Y-217730838D02*
X459331149Y-217730838D01*
X459331149Y-217730838D02*
X459140673Y-217635600D01*
X459140673Y-217635600D02*
X459045435Y-217445123D01*
X459045435Y-217445123D02*
X459045435Y-216683219D01*
X459045435Y-216683219D02*
X459140673Y-216492742D01*
X459140673Y-216492742D02*
X459331149Y-216397504D01*
X459331149Y-216397504D02*
X459712102Y-216397504D01*
X459712102Y-216397504D02*
X459902578Y-216492742D01*
X459902578Y-216492742D02*
X459997816Y-216683219D01*
X459997816Y-216683219D02*
X459997816Y-216873695D01*
X459997816Y-216873695D02*
X459045435Y-217064171D01*
X460854959Y-217730838D02*
X460854959Y-216397504D01*
X460854959Y-216778457D02*
X460950197Y-216587980D01*
X460950197Y-216587980D02*
X461045435Y-216492742D01*
X461045435Y-216492742D02*
X461235911Y-216397504D01*
X461235911Y-216397504D02*
X461426388Y-216397504D01*
X328140768Y-217730838D02*
X328140768Y-215730838D01*
X328140768Y-216683219D02*
X329283625Y-216683219D01*
X329283625Y-217730838D02*
X329283625Y-215730838D01*
X199616768Y-159533219D02*
X200283435Y-159533219D01*
X200569149Y-160580838D02*
X199616768Y-160580838D01*
X199616768Y-160580838D02*
X199616768Y-158580838D01*
X199616768Y-158580838D02*
X200569149Y-158580838D01*
X201331054Y-160485600D02*
X201521530Y-160580838D01*
X201521530Y-160580838D02*
X201902482Y-160580838D01*
X201902482Y-160580838D02*
X202092959Y-160485600D01*
X202092959Y-160485600D02*
X202188197Y-160295123D01*
X202188197Y-160295123D02*
X202188197Y-160199885D01*
X202188197Y-160199885D02*
X202092959Y-160009409D01*
X202092959Y-160009409D02*
X201902482Y-159914171D01*
X201902482Y-159914171D02*
X201616768Y-159914171D01*
X201616768Y-159914171D02*
X201426292Y-159818933D01*
X201426292Y-159818933D02*
X201331054Y-159628457D01*
X201331054Y-159628457D02*
X201331054Y-159533219D01*
X201331054Y-159533219D02*
X201426292Y-159342742D01*
X201426292Y-159342742D02*
X201616768Y-159247504D01*
X201616768Y-159247504D02*
X201902482Y-159247504D01*
X201902482Y-159247504D02*
X202092959Y-159342742D01*
X203902483Y-160485600D02*
X203712007Y-160580838D01*
X203712007Y-160580838D02*
X203331054Y-160580838D01*
X203331054Y-160580838D02*
X203140578Y-160485600D01*
X203140578Y-160485600D02*
X203045340Y-160390361D01*
X203045340Y-160390361D02*
X202950102Y-160199885D01*
X202950102Y-160199885D02*
X202950102Y-159628457D01*
X202950102Y-159628457D02*
X203045340Y-159437980D01*
X203045340Y-159437980D02*
X203140578Y-159342742D01*
X203140578Y-159342742D02*
X203331054Y-159247504D01*
X203331054Y-159247504D02*
X203712007Y-159247504D01*
X203712007Y-159247504D02*
X203902483Y-159342742D01*
D12*
X332906858Y-265357828D02*
X332049715Y-265357828D01*
X332478286Y-265357828D02*
X332478286Y-263857828D01*
X332478286Y-263857828D02*
X332335429Y-264072114D01*
X332335429Y-264072114D02*
X332192572Y-264214971D01*
X332192572Y-264214971D02*
X332049715Y-264286400D01*
X333549714Y-265214971D02*
X333621143Y-265286400D01*
X333621143Y-265286400D02*
X333549714Y-265357828D01*
X333549714Y-265357828D02*
X333478286Y-265286400D01*
X333478286Y-265286400D02*
X333549714Y-265214971D01*
X333549714Y-265214971D02*
X333549714Y-265357828D01*
X334192572Y-264000685D02*
X334264000Y-263929257D01*
X334264000Y-263929257D02*
X334406858Y-263857828D01*
X334406858Y-263857828D02*
X334764000Y-263857828D01*
X334764000Y-263857828D02*
X334906858Y-263929257D01*
X334906858Y-263929257D02*
X334978286Y-264000685D01*
X334978286Y-264000685D02*
X335049715Y-264143542D01*
X335049715Y-264143542D02*
X335049715Y-264286400D01*
X335049715Y-264286400D02*
X334978286Y-264500685D01*
X334978286Y-264500685D02*
X334121143Y-265357828D01*
X334121143Y-265357828D02*
X335049715Y-265357828D01*
X336406857Y-263857828D02*
X335692571Y-263857828D01*
X335692571Y-263857828D02*
X335621143Y-264572114D01*
X335621143Y-264572114D02*
X335692571Y-264500685D01*
X335692571Y-264500685D02*
X335835429Y-264429257D01*
X335835429Y-264429257D02*
X336192571Y-264429257D01*
X336192571Y-264429257D02*
X336335429Y-264500685D01*
X336335429Y-264500685D02*
X336406857Y-264572114D01*
X336406857Y-264572114D02*
X336478286Y-264714971D01*
X336478286Y-264714971D02*
X336478286Y-265072114D01*
X336478286Y-265072114D02*
X336406857Y-265214971D01*
X336406857Y-265214971D02*
X336335429Y-265286400D01*
X336335429Y-265286400D02*
X336192571Y-265357828D01*
X336192571Y-265357828D02*
X335835429Y-265357828D01*
X335835429Y-265357828D02*
X335692571Y-265286400D01*
X335692571Y-265286400D02*
X335621143Y-265214971D01*
D14*
X137926482Y-197537980D02*
X137736006Y-197442742D01*
X137736006Y-197442742D02*
X137640768Y-197347504D01*
X137640768Y-197347504D02*
X137545530Y-197157028D01*
X137545530Y-197157028D02*
X137545530Y-197061790D01*
X137545530Y-197061790D02*
X137640768Y-196871314D01*
X137640768Y-196871314D02*
X137736006Y-196776076D01*
X137736006Y-196776076D02*
X137926482Y-196680838D01*
X137926482Y-196680838D02*
X138307435Y-196680838D01*
X138307435Y-196680838D02*
X138497911Y-196776076D01*
X138497911Y-196776076D02*
X138593149Y-196871314D01*
X138593149Y-196871314D02*
X138688387Y-197061790D01*
X138688387Y-197061790D02*
X138688387Y-197157028D01*
X138688387Y-197157028D02*
X138593149Y-197347504D01*
X138593149Y-197347504D02*
X138497911Y-197442742D01*
X138497911Y-197442742D02*
X138307435Y-197537980D01*
X138307435Y-197537980D02*
X137926482Y-197537980D01*
X137926482Y-197537980D02*
X137736006Y-197633219D01*
X137736006Y-197633219D02*
X137640768Y-197728457D01*
X137640768Y-197728457D02*
X137545530Y-197918933D01*
X137545530Y-197918933D02*
X137545530Y-198299885D01*
X137545530Y-198299885D02*
X137640768Y-198490361D01*
X137640768Y-198490361D02*
X137736006Y-198585600D01*
X137736006Y-198585600D02*
X137926482Y-198680838D01*
X137926482Y-198680838D02*
X138307435Y-198680838D01*
X138307435Y-198680838D02*
X138497911Y-198585600D01*
X138497911Y-198585600D02*
X138593149Y-198490361D01*
X138593149Y-198490361D02*
X138688387Y-198299885D01*
X138688387Y-198299885D02*
X138688387Y-197918933D01*
X138688387Y-197918933D02*
X138593149Y-197728457D01*
X138593149Y-197728457D02*
X138497911Y-197633219D01*
X138497911Y-197633219D02*
X138307435Y-197537980D01*
X380972720Y-196680838D02*
X381353673Y-196680838D01*
X381353673Y-196680838D02*
X381544149Y-196776076D01*
X381544149Y-196776076D02*
X381734625Y-196966552D01*
X381734625Y-196966552D02*
X381829863Y-197347504D01*
X381829863Y-197347504D02*
X381829863Y-198014171D01*
X381829863Y-198014171D02*
X381734625Y-198395123D01*
X381734625Y-198395123D02*
X381544149Y-198585600D01*
X381544149Y-198585600D02*
X381353673Y-198680838D01*
X381353673Y-198680838D02*
X380972720Y-198680838D01*
X380972720Y-198680838D02*
X380782244Y-198585600D01*
X380782244Y-198585600D02*
X380591768Y-198395123D01*
X380591768Y-198395123D02*
X380496530Y-198014171D01*
X380496530Y-198014171D02*
X380496530Y-197347504D01*
X380496530Y-197347504D02*
X380591768Y-196966552D01*
X380591768Y-196966552D02*
X380782244Y-196776076D01*
X380782244Y-196776076D02*
X380972720Y-196680838D01*
X175664568Y-243099219D02*
X176331235Y-243099219D01*
X176616949Y-244146838D02*
X175664568Y-244146838D01*
X175664568Y-244146838D02*
X175664568Y-242146838D01*
X175664568Y-242146838D02*
X176616949Y-242146838D01*
X177474092Y-242813504D02*
X177474092Y-244146838D01*
X177474092Y-243003980D02*
X177569330Y-242908742D01*
X177569330Y-242908742D02*
X177759806Y-242813504D01*
X177759806Y-242813504D02*
X178045521Y-242813504D01*
X178045521Y-242813504D02*
X178235997Y-242908742D01*
X178235997Y-242908742D02*
X178331235Y-243099219D01*
X178331235Y-243099219D02*
X178331235Y-244146838D01*
X178997902Y-242813504D02*
X179759806Y-242813504D01*
X179283616Y-242146838D02*
X179283616Y-243861123D01*
X179283616Y-243861123D02*
X179378854Y-244051600D01*
X179378854Y-244051600D02*
X179569330Y-244146838D01*
X179569330Y-244146838D02*
X179759806Y-244146838D01*
X181188378Y-244051600D02*
X180997902Y-244146838D01*
X180997902Y-244146838D02*
X180616949Y-244146838D01*
X180616949Y-244146838D02*
X180426473Y-244051600D01*
X180426473Y-244051600D02*
X180331235Y-243861123D01*
X180331235Y-243861123D02*
X180331235Y-243099219D01*
X180331235Y-243099219D02*
X180426473Y-242908742D01*
X180426473Y-242908742D02*
X180616949Y-242813504D01*
X180616949Y-242813504D02*
X180997902Y-242813504D01*
X180997902Y-242813504D02*
X181188378Y-242908742D01*
X181188378Y-242908742D02*
X181283616Y-243099219D01*
X181283616Y-243099219D02*
X181283616Y-243289695D01*
X181283616Y-243289695D02*
X180331235Y-243480171D01*
X182140759Y-244146838D02*
X182140759Y-242813504D01*
X182140759Y-243194457D02*
X182235997Y-243003980D01*
X182235997Y-243003980D02*
X182331235Y-242908742D01*
X182331235Y-242908742D02*
X182521711Y-242813504D01*
X182521711Y-242813504D02*
X182712188Y-242813504D01*
X286484625Y-198680838D02*
X285817958Y-197728457D01*
X285341768Y-198680838D02*
X285341768Y-196680838D01*
X285341768Y-196680838D02*
X286103673Y-196680838D01*
X286103673Y-196680838D02*
X286294149Y-196776076D01*
X286294149Y-196776076D02*
X286389387Y-196871314D01*
X286389387Y-196871314D02*
X286484625Y-197061790D01*
X286484625Y-197061790D02*
X286484625Y-197347504D01*
X286484625Y-197347504D02*
X286389387Y-197537980D01*
X286389387Y-197537980D02*
X286294149Y-197633219D01*
X286294149Y-197633219D02*
X286103673Y-197728457D01*
X286103673Y-197728457D02*
X285341768Y-197728457D01*
X299280054Y-234780838D02*
X299946720Y-236780838D01*
X299946720Y-236780838D02*
X300613387Y-234780838D01*
X137545530Y-234971314D02*
X137640768Y-234876076D01*
X137640768Y-234876076D02*
X137831244Y-234780838D01*
X137831244Y-234780838D02*
X138307435Y-234780838D01*
X138307435Y-234780838D02*
X138497911Y-234876076D01*
X138497911Y-234876076D02*
X138593149Y-234971314D01*
X138593149Y-234971314D02*
X138688387Y-235161790D01*
X138688387Y-235161790D02*
X138688387Y-235352266D01*
X138688387Y-235352266D02*
X138593149Y-235637980D01*
X138593149Y-235637980D02*
X137450292Y-236780838D01*
X137450292Y-236780838D02*
X138688387Y-236780838D01*
X225588292Y-253830838D02*
X226064482Y-255830838D01*
X226064482Y-255830838D02*
X226445435Y-254402266D01*
X226445435Y-254402266D02*
X226826387Y-255830838D01*
X226826387Y-255830838D02*
X227302578Y-253830838D01*
X228064482Y-255830838D02*
X228064482Y-254497504D01*
X228064482Y-253830838D02*
X227969244Y-253926076D01*
X227969244Y-253926076D02*
X228064482Y-254021314D01*
X228064482Y-254021314D02*
X228159720Y-253926076D01*
X228159720Y-253926076D02*
X228064482Y-253830838D01*
X228064482Y-253830838D02*
X228064482Y-254021314D01*
X229016863Y-254497504D02*
X229016863Y-255830838D01*
X229016863Y-254687980D02*
X229112101Y-254592742D01*
X229112101Y-254592742D02*
X229302577Y-254497504D01*
X229302577Y-254497504D02*
X229588292Y-254497504D01*
X229588292Y-254497504D02*
X229778768Y-254592742D01*
X229778768Y-254592742D02*
X229874006Y-254783219D01*
X229874006Y-254783219D02*
X229874006Y-255830838D01*
X118590768Y-179630838D02*
X118590768Y-177630838D01*
X118590768Y-177630838D02*
X119733625Y-179630838D01*
X119733625Y-179630838D02*
X119733625Y-177630838D01*
X121543149Y-178297504D02*
X121543149Y-179630838D01*
X120686006Y-178297504D02*
X120686006Y-179345123D01*
X120686006Y-179345123D02*
X120781244Y-179535600D01*
X120781244Y-179535600D02*
X120971720Y-179630838D01*
X120971720Y-179630838D02*
X121257435Y-179630838D01*
X121257435Y-179630838D02*
X121447911Y-179535600D01*
X121447911Y-179535600D02*
X121543149Y-179440361D01*
X122495530Y-179630838D02*
X122495530Y-178297504D01*
X122495530Y-178487980D02*
X122590768Y-178392742D01*
X122590768Y-178392742D02*
X122781244Y-178297504D01*
X122781244Y-178297504D02*
X123066959Y-178297504D01*
X123066959Y-178297504D02*
X123257435Y-178392742D01*
X123257435Y-178392742D02*
X123352673Y-178583219D01*
X123352673Y-178583219D02*
X123352673Y-179630838D01*
X123352673Y-178583219D02*
X123447911Y-178392742D01*
X123447911Y-178392742D02*
X123638387Y-178297504D01*
X123638387Y-178297504D02*
X123924101Y-178297504D01*
X123924101Y-178297504D02*
X124114578Y-178392742D01*
X124114578Y-178392742D02*
X124209816Y-178583219D01*
X124209816Y-178583219D02*
X124209816Y-179630838D01*
X386084435Y-159533219D02*
X385417768Y-159533219D01*
X385417768Y-160580838D02*
X385417768Y-158580838D01*
X385417768Y-158580838D02*
X386370149Y-158580838D01*
X387227292Y-160580838D02*
X387608244Y-160580838D01*
X387608244Y-160580838D02*
X387798721Y-160485600D01*
X387798721Y-160485600D02*
X387893959Y-160390361D01*
X387893959Y-160390361D02*
X388084435Y-160104647D01*
X388084435Y-160104647D02*
X388179673Y-159723695D01*
X388179673Y-159723695D02*
X388179673Y-158961790D01*
X388179673Y-158961790D02*
X388084435Y-158771314D01*
X388084435Y-158771314D02*
X387989197Y-158676076D01*
X387989197Y-158676076D02*
X387798721Y-158580838D01*
X387798721Y-158580838D02*
X387417768Y-158580838D01*
X387417768Y-158580838D02*
X387227292Y-158676076D01*
X387227292Y-158676076D02*
X387132054Y-158771314D01*
X387132054Y-158771314D02*
X387036816Y-158961790D01*
X387036816Y-158961790D02*
X387036816Y-159437980D01*
X387036816Y-159437980D02*
X387132054Y-159628457D01*
X387132054Y-159628457D02*
X387227292Y-159723695D01*
X387227292Y-159723695D02*
X387417768Y-159818933D01*
X387417768Y-159818933D02*
X387798721Y-159818933D01*
X387798721Y-159818933D02*
X387989197Y-159723695D01*
X387989197Y-159723695D02*
X388084435Y-159628457D01*
X388084435Y-159628457D02*
X388179673Y-159437980D01*
X119447911Y-216397504D02*
X119447911Y-217730838D01*
X118971720Y-215635600D02*
X118495530Y-217064171D01*
X118495530Y-217064171D02*
X119733625Y-217064171D01*
X419263197Y-199347504D02*
X418787006Y-199347504D01*
X418787006Y-199347504D02*
X418787006Y-196490361D01*
X418787006Y-196490361D02*
X419263197Y-196490361D01*
X420596530Y-199442742D02*
X420501291Y-199442742D01*
X420501291Y-199442742D02*
X420310815Y-199347504D01*
X420310815Y-199347504D02*
X420215577Y-199157028D01*
X420215577Y-199157028D02*
X420215577Y-198204647D01*
X420215577Y-198204647D02*
X420120339Y-198014171D01*
X420120339Y-198014171D02*
X419929863Y-197918933D01*
X419929863Y-197918933D02*
X420120339Y-197823695D01*
X420120339Y-197823695D02*
X420215577Y-197633219D01*
X420215577Y-197633219D02*
X420215577Y-196680838D01*
X420215577Y-196680838D02*
X420310815Y-196490361D01*
X420310815Y-196490361D02*
X420501291Y-196395123D01*
X420501291Y-196395123D02*
X420596530Y-196395123D01*
X405134435Y-159533219D02*
X404467768Y-159533219D01*
X404467768Y-160580838D02*
X404467768Y-158580838D01*
X404467768Y-158580838D02*
X405420149Y-158580838D01*
X407229673Y-160580838D02*
X406086816Y-160580838D01*
X406658244Y-160580838D02*
X406658244Y-158580838D01*
X406658244Y-158580838D02*
X406467768Y-158866552D01*
X406467768Y-158866552D02*
X406277292Y-159057028D01*
X406277292Y-159057028D02*
X406086816Y-159152266D01*
X408467768Y-158580838D02*
X408658245Y-158580838D01*
X408658245Y-158580838D02*
X408848721Y-158676076D01*
X408848721Y-158676076D02*
X408943959Y-158771314D01*
X408943959Y-158771314D02*
X409039197Y-158961790D01*
X409039197Y-158961790D02*
X409134435Y-159342742D01*
X409134435Y-159342742D02*
X409134435Y-159818933D01*
X409134435Y-159818933D02*
X409039197Y-160199885D01*
X409039197Y-160199885D02*
X408943959Y-160390361D01*
X408943959Y-160390361D02*
X408848721Y-160485600D01*
X408848721Y-160485600D02*
X408658245Y-160580838D01*
X408658245Y-160580838D02*
X408467768Y-160580838D01*
X408467768Y-160580838D02*
X408277292Y-160485600D01*
X408277292Y-160485600D02*
X408182054Y-160390361D01*
X408182054Y-160390361D02*
X408086816Y-160199885D01*
X408086816Y-160199885D02*
X407991578Y-159818933D01*
X407991578Y-159818933D02*
X407991578Y-159342742D01*
X407991578Y-159342742D02*
X408086816Y-158961790D01*
X408086816Y-158961790D02*
X408182054Y-158771314D01*
X408182054Y-158771314D02*
X408277292Y-158676076D01*
X408277292Y-158676076D02*
X408467768Y-158580838D01*
X270990768Y-217730838D02*
X270990768Y-215730838D01*
X270990768Y-215730838D02*
X271466958Y-215730838D01*
X271466958Y-215730838D02*
X271752673Y-215826076D01*
X271752673Y-215826076D02*
X271943149Y-216016552D01*
X271943149Y-216016552D02*
X272038387Y-216207028D01*
X272038387Y-216207028D02*
X272133625Y-216587980D01*
X272133625Y-216587980D02*
X272133625Y-216873695D01*
X272133625Y-216873695D02*
X272038387Y-217254647D01*
X272038387Y-217254647D02*
X271943149Y-217445123D01*
X271943149Y-217445123D02*
X271752673Y-217635600D01*
X271752673Y-217635600D02*
X271466958Y-217730838D01*
X271466958Y-217730838D02*
X270990768Y-217730838D01*
X156976482Y-177630838D02*
X156976482Y-178107028D01*
X156500292Y-177916552D02*
X156976482Y-178107028D01*
X156976482Y-178107028D02*
X157452673Y-177916552D01*
X156690768Y-178487980D02*
X156976482Y-178107028D01*
X156976482Y-178107028D02*
X157262197Y-178487980D01*
X261275292Y-234780838D02*
X262608625Y-236780838D01*
X262608625Y-234780838D02*
X261275292Y-236780838D01*
X281658625Y-236590361D02*
X281563387Y-236685600D01*
X281563387Y-236685600D02*
X281277673Y-236780838D01*
X281277673Y-236780838D02*
X281087197Y-236780838D01*
X281087197Y-236780838D02*
X280801482Y-236685600D01*
X280801482Y-236685600D02*
X280611006Y-236495123D01*
X280611006Y-236495123D02*
X280515768Y-236304647D01*
X280515768Y-236304647D02*
X280420530Y-235923695D01*
X280420530Y-235923695D02*
X280420530Y-235637980D01*
X280420530Y-235637980D02*
X280515768Y-235257028D01*
X280515768Y-235257028D02*
X280611006Y-235066552D01*
X280611006Y-235066552D02*
X280801482Y-234876076D01*
X280801482Y-234876076D02*
X281087197Y-234780838D01*
X281087197Y-234780838D02*
X281277673Y-234780838D01*
X281277673Y-234780838D02*
X281563387Y-234876076D01*
X281563387Y-234876076D02*
X281658625Y-234971314D01*
X128547520Y-253830838D02*
X128737997Y-253830838D01*
X128737997Y-253830838D02*
X128928473Y-253926076D01*
X128928473Y-253926076D02*
X129023711Y-254021314D01*
X129023711Y-254021314D02*
X129118949Y-254211790D01*
X129118949Y-254211790D02*
X129214187Y-254592742D01*
X129214187Y-254592742D02*
X129214187Y-255068933D01*
X129214187Y-255068933D02*
X129118949Y-255449885D01*
X129118949Y-255449885D02*
X129023711Y-255640361D01*
X129023711Y-255640361D02*
X128928473Y-255735600D01*
X128928473Y-255735600D02*
X128737997Y-255830838D01*
X128737997Y-255830838D02*
X128547520Y-255830838D01*
X128547520Y-255830838D02*
X128357044Y-255735600D01*
X128357044Y-255735600D02*
X128261806Y-255640361D01*
X128261806Y-255640361D02*
X128166568Y-255449885D01*
X128166568Y-255449885D02*
X128071330Y-255068933D01*
X128071330Y-255068933D02*
X128071330Y-254592742D01*
X128071330Y-254592742D02*
X128166568Y-254211790D01*
X128166568Y-254211790D02*
X128261806Y-254021314D01*
X128261806Y-254021314D02*
X128357044Y-253926076D01*
X128357044Y-253926076D02*
X128547520Y-253830838D01*
X237621530Y-177821314D02*
X237716768Y-177726076D01*
X237716768Y-177726076D02*
X237907244Y-177630838D01*
X237907244Y-177630838D02*
X238383435Y-177630838D01*
X238383435Y-177630838D02*
X238573911Y-177726076D01*
X238573911Y-177726076D02*
X238669149Y-177821314D01*
X238669149Y-177821314D02*
X238764387Y-178011790D01*
X238764387Y-178011790D02*
X238764387Y-178202266D01*
X238764387Y-178202266D02*
X238669149Y-178487980D01*
X238669149Y-178487980D02*
X237526292Y-179630838D01*
X237526292Y-179630838D02*
X238764387Y-179630838D01*
X240859625Y-178678457D02*
X240764387Y-178583219D01*
X240764387Y-178583219D02*
X240573911Y-178487980D01*
X240573911Y-178487980D02*
X240383435Y-178487980D01*
X240383435Y-178487980D02*
X240192959Y-178583219D01*
X240192959Y-178583219D02*
X240097720Y-178678457D01*
X240097720Y-178678457D02*
X240002482Y-178868933D01*
X240002482Y-178868933D02*
X240002482Y-179059409D01*
X240002482Y-179059409D02*
X240097720Y-179249885D01*
X240097720Y-179249885D02*
X240192959Y-179345123D01*
X240192959Y-179345123D02*
X240383435Y-179440361D01*
X240383435Y-179440361D02*
X240573911Y-179440361D01*
X240573911Y-179440361D02*
X240764387Y-179345123D01*
X240764387Y-179345123D02*
X240859625Y-179249885D01*
X240859625Y-178487980D02*
X240859625Y-179249885D01*
X240859625Y-179249885D02*
X240954863Y-179345123D01*
X240954863Y-179345123D02*
X241050101Y-179345123D01*
X241050101Y-179345123D02*
X241240578Y-179249885D01*
X241240578Y-179249885D02*
X241335816Y-179059409D01*
X241335816Y-179059409D02*
X241335816Y-178583219D01*
X241335816Y-178583219D02*
X241145340Y-178297504D01*
X241145340Y-178297504D02*
X240859625Y-178107028D01*
X240859625Y-178107028D02*
X240478673Y-178011790D01*
X240478673Y-178011790D02*
X240097720Y-178107028D01*
X240097720Y-178107028D02*
X239812006Y-178297504D01*
X239812006Y-178297504D02*
X239621530Y-178583219D01*
X239621530Y-178583219D02*
X239526292Y-178964171D01*
X239526292Y-178964171D02*
X239621530Y-179345123D01*
X239621530Y-179345123D02*
X239812006Y-179630838D01*
X239812006Y-179630838D02*
X240097720Y-179821314D01*
X240097720Y-179821314D02*
X240478673Y-179916552D01*
X240478673Y-179916552D02*
X240859625Y-179821314D01*
X240859625Y-179821314D02*
X241145340Y-179630838D01*
X262132435Y-159533219D02*
X261465768Y-159533219D01*
X261465768Y-160580838D02*
X261465768Y-158580838D01*
X261465768Y-158580838D02*
X262418149Y-158580838D01*
X262989578Y-158580838D02*
X264227673Y-158580838D01*
X264227673Y-158580838D02*
X263561006Y-159342742D01*
X263561006Y-159342742D02*
X263846721Y-159342742D01*
X263846721Y-159342742D02*
X264037197Y-159437980D01*
X264037197Y-159437980D02*
X264132435Y-159533219D01*
X264132435Y-159533219D02*
X264227673Y-159723695D01*
X264227673Y-159723695D02*
X264227673Y-160199885D01*
X264227673Y-160199885D02*
X264132435Y-160390361D01*
X264132435Y-160390361D02*
X264037197Y-160485600D01*
X264037197Y-160485600D02*
X263846721Y-160580838D01*
X263846721Y-160580838D02*
X263275292Y-160580838D01*
X263275292Y-160580838D02*
X263084816Y-160485600D01*
X263084816Y-160485600D02*
X262989578Y-160390361D01*
X337665768Y-236780838D02*
X337665768Y-234780838D01*
X337665768Y-234780838D02*
X338808625Y-236780838D01*
X338808625Y-236780838D02*
X338808625Y-234780838D01*
X352302482Y-178487980D02*
X352112006Y-178392742D01*
X352112006Y-178392742D02*
X352016768Y-178297504D01*
X352016768Y-178297504D02*
X351921530Y-178107028D01*
X351921530Y-178107028D02*
X351921530Y-178011790D01*
X351921530Y-178011790D02*
X352016768Y-177821314D01*
X352016768Y-177821314D02*
X352112006Y-177726076D01*
X352112006Y-177726076D02*
X352302482Y-177630838D01*
X352302482Y-177630838D02*
X352683435Y-177630838D01*
X352683435Y-177630838D02*
X352873911Y-177726076D01*
X352873911Y-177726076D02*
X352969149Y-177821314D01*
X352969149Y-177821314D02*
X353064387Y-178011790D01*
X353064387Y-178011790D02*
X353064387Y-178107028D01*
X353064387Y-178107028D02*
X352969149Y-178297504D01*
X352969149Y-178297504D02*
X352873911Y-178392742D01*
X352873911Y-178392742D02*
X352683435Y-178487980D01*
X352683435Y-178487980D02*
X352302482Y-178487980D01*
X352302482Y-178487980D02*
X352112006Y-178583219D01*
X352112006Y-178583219D02*
X352016768Y-178678457D01*
X352016768Y-178678457D02*
X351921530Y-178868933D01*
X351921530Y-178868933D02*
X351921530Y-179249885D01*
X351921530Y-179249885D02*
X352016768Y-179440361D01*
X352016768Y-179440361D02*
X352112006Y-179535600D01*
X352112006Y-179535600D02*
X352302482Y-179630838D01*
X352302482Y-179630838D02*
X352683435Y-179630838D01*
X352683435Y-179630838D02*
X352873911Y-179535600D01*
X352873911Y-179535600D02*
X352969149Y-179440361D01*
X352969149Y-179440361D02*
X353064387Y-179249885D01*
X353064387Y-179249885D02*
X353064387Y-178868933D01*
X353064387Y-178868933D02*
X352969149Y-178678457D01*
X352969149Y-178678457D02*
X352873911Y-178583219D01*
X352873911Y-178583219D02*
X352683435Y-178487980D01*
X354207244Y-177630838D02*
X354207244Y-178107028D01*
X353731054Y-177916552D02*
X354207244Y-178107028D01*
X354207244Y-178107028D02*
X354683435Y-177916552D01*
X353921530Y-178487980D02*
X354207244Y-178107028D01*
X354207244Y-178107028D02*
X354492959Y-178487980D01*
X199331054Y-178868933D02*
X199426292Y-178773695D01*
X199426292Y-178773695D02*
X199616768Y-178678457D01*
X199616768Y-178678457D02*
X199997720Y-178868933D01*
X199997720Y-178868933D02*
X200188197Y-178773695D01*
X200188197Y-178773695D02*
X200283435Y-178678457D01*
X323822720Y-197728457D02*
X323822720Y-198680838D01*
X323156054Y-196680838D02*
X323822720Y-197728457D01*
X323822720Y-197728457D02*
X324489387Y-196680838D01*
X404436006Y-217635600D02*
X404436006Y-217730838D01*
X404436006Y-217730838D02*
X404340768Y-217921314D01*
X404340768Y-217921314D02*
X404245530Y-218016552D01*
X404340768Y-216492742D02*
X404436006Y-216587980D01*
X404436006Y-216587980D02*
X404340768Y-216683219D01*
X404340768Y-216683219D02*
X404245530Y-216587980D01*
X404245530Y-216587980D02*
X404340768Y-216492742D01*
X404340768Y-216492742D02*
X404340768Y-216683219D01*
X405293149Y-217540361D02*
X405388387Y-217635600D01*
X405388387Y-217635600D02*
X405293149Y-217730838D01*
X405293149Y-217730838D02*
X405197911Y-217635600D01*
X405197911Y-217635600D02*
X405293149Y-217540361D01*
X405293149Y-217540361D02*
X405293149Y-217730838D01*
X405293149Y-216492742D02*
X405388387Y-216587980D01*
X405388387Y-216587980D02*
X405293149Y-216683219D01*
X405293149Y-216683219D02*
X405197911Y-216587980D01*
X405197911Y-216587980D02*
X405293149Y-216492742D01*
X405293149Y-216492742D02*
X405293149Y-216683219D01*
X156786006Y-198680838D02*
X157166958Y-198680838D01*
X157166958Y-198680838D02*
X157357435Y-198585600D01*
X157357435Y-198585600D02*
X157452673Y-198490361D01*
X157452673Y-198490361D02*
X157643149Y-198204647D01*
X157643149Y-198204647D02*
X157738387Y-197823695D01*
X157738387Y-197823695D02*
X157738387Y-197061790D01*
X157738387Y-197061790D02*
X157643149Y-196871314D01*
X157643149Y-196871314D02*
X157547911Y-196776076D01*
X157547911Y-196776076D02*
X157357435Y-196680838D01*
X157357435Y-196680838D02*
X156976482Y-196680838D01*
X156976482Y-196680838D02*
X156786006Y-196776076D01*
X156786006Y-196776076D02*
X156690768Y-196871314D01*
X156690768Y-196871314D02*
X156595530Y-197061790D01*
X156595530Y-197061790D02*
X156595530Y-197537980D01*
X156595530Y-197537980D02*
X156690768Y-197728457D01*
X156690768Y-197728457D02*
X156786006Y-197823695D01*
X156786006Y-197823695D02*
X156976482Y-197918933D01*
X156976482Y-197918933D02*
X157357435Y-197918933D01*
X157357435Y-197918933D02*
X157547911Y-197823695D01*
X157547911Y-197823695D02*
X157643149Y-197728457D01*
X157643149Y-197728457D02*
X157738387Y-197537980D01*
X390783435Y-254783219D02*
X390116768Y-254783219D01*
X390116768Y-255830838D02*
X390116768Y-253830838D01*
X390116768Y-253830838D02*
X391069149Y-253830838D01*
X391831054Y-254497504D02*
X391831054Y-255830838D01*
X391831054Y-254687980D02*
X391926292Y-254592742D01*
X391926292Y-254592742D02*
X392116768Y-254497504D01*
X392116768Y-254497504D02*
X392402483Y-254497504D01*
X392402483Y-254497504D02*
X392592959Y-254592742D01*
X392592959Y-254592742D02*
X392688197Y-254783219D01*
X392688197Y-254783219D02*
X392688197Y-255830838D01*
X394688197Y-255830838D02*
X393545340Y-255830838D01*
X394116768Y-255830838D02*
X394116768Y-253830838D01*
X394116768Y-253830838D02*
X393926292Y-254116552D01*
X393926292Y-254116552D02*
X393735816Y-254307028D01*
X393735816Y-254307028D02*
X393545340Y-254402266D01*
X429169149Y-255830838D02*
X428216768Y-255830838D01*
X428216768Y-255830838D02*
X428216768Y-253830838D01*
X430597721Y-255735600D02*
X430407245Y-255830838D01*
X430407245Y-255830838D02*
X430026292Y-255830838D01*
X430026292Y-255830838D02*
X429835816Y-255735600D01*
X429835816Y-255735600D02*
X429740578Y-255545123D01*
X429740578Y-255545123D02*
X429740578Y-254783219D01*
X429740578Y-254783219D02*
X429835816Y-254592742D01*
X429835816Y-254592742D02*
X430026292Y-254497504D01*
X430026292Y-254497504D02*
X430407245Y-254497504D01*
X430407245Y-254497504D02*
X430597721Y-254592742D01*
X430597721Y-254592742D02*
X430692959Y-254783219D01*
X430692959Y-254783219D02*
X430692959Y-254973695D01*
X430692959Y-254973695D02*
X429740578Y-255164171D01*
X431264388Y-254497504D02*
X432026292Y-254497504D01*
X431550102Y-255830838D02*
X431550102Y-254116552D01*
X431550102Y-254116552D02*
X431645340Y-253926076D01*
X431645340Y-253926076D02*
X431835816Y-253830838D01*
X431835816Y-253830838D02*
X432026292Y-253830838D01*
X432407245Y-254497504D02*
X433169149Y-254497504D01*
X432692959Y-253830838D02*
X432692959Y-255545123D01*
X432692959Y-255545123D02*
X432788197Y-255735600D01*
X432788197Y-255735600D02*
X432978673Y-255830838D01*
X432978673Y-255830838D02*
X433169149Y-255830838D01*
X420882530Y-236685600D02*
X421168244Y-236780838D01*
X421168244Y-236780838D02*
X421644435Y-236780838D01*
X421644435Y-236780838D02*
X421834911Y-236685600D01*
X421834911Y-236685600D02*
X421930149Y-236590361D01*
X421930149Y-236590361D02*
X422025387Y-236399885D01*
X422025387Y-236399885D02*
X422025387Y-236209409D01*
X422025387Y-236209409D02*
X421930149Y-236018933D01*
X421930149Y-236018933D02*
X421834911Y-235923695D01*
X421834911Y-235923695D02*
X421644435Y-235828457D01*
X421644435Y-235828457D02*
X421263482Y-235733219D01*
X421263482Y-235733219D02*
X421073006Y-235637980D01*
X421073006Y-235637980D02*
X420977768Y-235542742D01*
X420977768Y-235542742D02*
X420882530Y-235352266D01*
X420882530Y-235352266D02*
X420882530Y-235161790D01*
X420882530Y-235161790D02*
X420977768Y-234971314D01*
X420977768Y-234971314D02*
X421073006Y-234876076D01*
X421073006Y-234876076D02*
X421263482Y-234780838D01*
X421263482Y-234780838D02*
X421739673Y-234780838D01*
X421739673Y-234780838D02*
X422025387Y-234876076D01*
X422882530Y-236780838D02*
X422882530Y-234780838D01*
X423739673Y-236780838D02*
X423739673Y-235733219D01*
X423739673Y-235733219D02*
X423644435Y-235542742D01*
X423644435Y-235542742D02*
X423453959Y-235447504D01*
X423453959Y-235447504D02*
X423168244Y-235447504D01*
X423168244Y-235447504D02*
X422977768Y-235542742D01*
X422977768Y-235542742D02*
X422882530Y-235637980D01*
X424692054Y-236780838D02*
X424692054Y-235447504D01*
X424692054Y-234780838D02*
X424596816Y-234876076D01*
X424596816Y-234876076D02*
X424692054Y-234971314D01*
X424692054Y-234971314D02*
X424787292Y-234876076D01*
X424787292Y-234876076D02*
X424692054Y-234780838D01*
X424692054Y-234780838D02*
X424692054Y-234971314D01*
X425358721Y-235447504D02*
X426120625Y-235447504D01*
X425644435Y-236780838D02*
X425644435Y-235066552D01*
X425644435Y-235066552D02*
X425739673Y-234876076D01*
X425739673Y-234876076D02*
X425930149Y-234780838D01*
X425930149Y-234780838D02*
X426120625Y-234780838D01*
X426501578Y-235447504D02*
X427263482Y-235447504D01*
X426787292Y-234780838D02*
X426787292Y-236495123D01*
X426787292Y-236495123D02*
X426882530Y-236685600D01*
X426882530Y-236685600D02*
X427073006Y-236780838D01*
X427073006Y-236780838D02*
X427263482Y-236780838D01*
X247051292Y-196680838D02*
X247527482Y-198680838D01*
X247527482Y-198680838D02*
X247908435Y-197252266D01*
X247908435Y-197252266D02*
X248289387Y-198680838D01*
X248289387Y-198680838D02*
X248765578Y-196680838D01*
X386243149Y-217730838D02*
X385290768Y-217730838D01*
X385290768Y-217730838D02*
X385290768Y-215730838D01*
X399641768Y-198680838D02*
X399641768Y-196680838D01*
X399641768Y-196680838D02*
X400403673Y-196680838D01*
X400403673Y-196680838D02*
X400594149Y-196776076D01*
X400594149Y-196776076D02*
X400689387Y-196871314D01*
X400689387Y-196871314D02*
X400784625Y-197061790D01*
X400784625Y-197061790D02*
X400784625Y-197347504D01*
X400784625Y-197347504D02*
X400689387Y-197537980D01*
X400689387Y-197537980D02*
X400594149Y-197633219D01*
X400594149Y-197633219D02*
X400403673Y-197728457D01*
X400403673Y-197728457D02*
X399641768Y-197728457D01*
X467745339Y-234685600D02*
X466031054Y-237257028D01*
X468697720Y-236590361D02*
X468792958Y-236685600D01*
X468792958Y-236685600D02*
X468697720Y-236780838D01*
X468697720Y-236780838D02*
X468602482Y-236685600D01*
X468602482Y-236685600D02*
X468697720Y-236590361D01*
X468697720Y-236590361D02*
X468697720Y-236780838D01*
X468316768Y-234876076D02*
X468507244Y-234780838D01*
X468507244Y-234780838D02*
X468983435Y-234780838D01*
X468983435Y-234780838D02*
X469173911Y-234876076D01*
X469173911Y-234876076D02*
X469269149Y-235066552D01*
X469269149Y-235066552D02*
X469269149Y-235257028D01*
X469269149Y-235257028D02*
X469173911Y-235447504D01*
X469173911Y-235447504D02*
X469078673Y-235542742D01*
X469078673Y-235542742D02*
X468888196Y-235637980D01*
X468888196Y-235637980D02*
X468792958Y-235733219D01*
X468792958Y-235733219D02*
X468697720Y-235923695D01*
X468697720Y-235923695D02*
X468697720Y-236018933D01*
X118400292Y-196680838D02*
X119733625Y-196680838D01*
X119733625Y-196680838D02*
X118876482Y-198680838D01*
X251845530Y-217635600D02*
X252131244Y-217730838D01*
X252131244Y-217730838D02*
X252607435Y-217730838D01*
X252607435Y-217730838D02*
X252797911Y-217635600D01*
X252797911Y-217635600D02*
X252893149Y-217540361D01*
X252893149Y-217540361D02*
X252988387Y-217349885D01*
X252988387Y-217349885D02*
X252988387Y-217159409D01*
X252988387Y-217159409D02*
X252893149Y-216968933D01*
X252893149Y-216968933D02*
X252797911Y-216873695D01*
X252797911Y-216873695D02*
X252607435Y-216778457D01*
X252607435Y-216778457D02*
X252226482Y-216683219D01*
X252226482Y-216683219D02*
X252036006Y-216587980D01*
X252036006Y-216587980D02*
X251940768Y-216492742D01*
X251940768Y-216492742D02*
X251845530Y-216302266D01*
X251845530Y-216302266D02*
X251845530Y-216111790D01*
X251845530Y-216111790D02*
X251940768Y-215921314D01*
X251940768Y-215921314D02*
X252036006Y-215826076D01*
X252036006Y-215826076D02*
X252226482Y-215730838D01*
X252226482Y-215730838D02*
X252702673Y-215730838D01*
X252702673Y-215730838D02*
X252988387Y-215826076D01*
X242225292Y-234780838D02*
X243558625Y-234780838D01*
X243558625Y-234780838D02*
X242225292Y-236780838D01*
X242225292Y-236780838D02*
X243558625Y-236780838D01*
X466316768Y-160580838D02*
X466316768Y-158580838D01*
X466316768Y-158580838D02*
X466792958Y-158580838D01*
X466792958Y-158580838D02*
X467078673Y-158676076D01*
X467078673Y-158676076D02*
X467269149Y-158866552D01*
X467269149Y-158866552D02*
X467364387Y-159057028D01*
X467364387Y-159057028D02*
X467459625Y-159437980D01*
X467459625Y-159437980D02*
X467459625Y-159723695D01*
X467459625Y-159723695D02*
X467364387Y-160104647D01*
X467364387Y-160104647D02*
X467269149Y-160295123D01*
X467269149Y-160295123D02*
X467078673Y-160485600D01*
X467078673Y-160485600D02*
X466792958Y-160580838D01*
X466792958Y-160580838D02*
X466316768Y-160580838D01*
X469078673Y-160485600D02*
X468888197Y-160580838D01*
X468888197Y-160580838D02*
X468507244Y-160580838D01*
X468507244Y-160580838D02*
X468316768Y-160485600D01*
X468316768Y-160485600D02*
X468221530Y-160295123D01*
X468221530Y-160295123D02*
X468221530Y-159533219D01*
X468221530Y-159533219D02*
X468316768Y-159342742D01*
X468316768Y-159342742D02*
X468507244Y-159247504D01*
X468507244Y-159247504D02*
X468888197Y-159247504D01*
X468888197Y-159247504D02*
X469078673Y-159342742D01*
X469078673Y-159342742D02*
X469173911Y-159533219D01*
X469173911Y-159533219D02*
X469173911Y-159723695D01*
X469173911Y-159723695D02*
X468221530Y-159914171D01*
X470316768Y-160580838D02*
X470126292Y-160485600D01*
X470126292Y-160485600D02*
X470031054Y-160295123D01*
X470031054Y-160295123D02*
X470031054Y-158580838D01*
X203045625Y-255640361D02*
X202950387Y-255735600D01*
X202950387Y-255735600D02*
X202664673Y-255830838D01*
X202664673Y-255830838D02*
X202474197Y-255830838D01*
X202474197Y-255830838D02*
X202188482Y-255735600D01*
X202188482Y-255735600D02*
X201998006Y-255545123D01*
X201998006Y-255545123D02*
X201902768Y-255354647D01*
X201902768Y-255354647D02*
X201807530Y-254973695D01*
X201807530Y-254973695D02*
X201807530Y-254687980D01*
X201807530Y-254687980D02*
X201902768Y-254307028D01*
X201902768Y-254307028D02*
X201998006Y-254116552D01*
X201998006Y-254116552D02*
X202188482Y-253926076D01*
X202188482Y-253926076D02*
X202474197Y-253830838D01*
X202474197Y-253830838D02*
X202664673Y-253830838D01*
X202664673Y-253830838D02*
X202950387Y-253926076D01*
X202950387Y-253926076D02*
X203045625Y-254021314D01*
X203617054Y-254497504D02*
X204378958Y-254497504D01*
X203902768Y-253830838D02*
X203902768Y-255545123D01*
X203902768Y-255545123D02*
X203998006Y-255735600D01*
X203998006Y-255735600D02*
X204188482Y-255830838D01*
X204188482Y-255830838D02*
X204378958Y-255830838D01*
X205045625Y-255830838D02*
X205045625Y-254497504D01*
X205045625Y-254878457D02*
X205140863Y-254687980D01*
X205140863Y-254687980D02*
X205236101Y-254592742D01*
X205236101Y-254592742D02*
X205426577Y-254497504D01*
X205426577Y-254497504D02*
X205617054Y-254497504D01*
X361541768Y-198680838D02*
X361541768Y-196680838D01*
X157547911Y-215730838D02*
X157166958Y-215730838D01*
X157166958Y-215730838D02*
X156976482Y-215826076D01*
X156976482Y-215826076D02*
X156881244Y-215921314D01*
X156881244Y-215921314D02*
X156690768Y-216207028D01*
X156690768Y-216207028D02*
X156595530Y-216587980D01*
X156595530Y-216587980D02*
X156595530Y-217349885D01*
X156595530Y-217349885D02*
X156690768Y-217540361D01*
X156690768Y-217540361D02*
X156786006Y-217635600D01*
X156786006Y-217635600D02*
X156976482Y-217730838D01*
X156976482Y-217730838D02*
X157357435Y-217730838D01*
X157357435Y-217730838D02*
X157547911Y-217635600D01*
X157547911Y-217635600D02*
X157643149Y-217540361D01*
X157643149Y-217540361D02*
X157738387Y-217349885D01*
X157738387Y-217349885D02*
X157738387Y-216873695D01*
X157738387Y-216873695D02*
X157643149Y-216683219D01*
X157643149Y-216683219D02*
X157547911Y-216587980D01*
X157547911Y-216587980D02*
X157357435Y-216492742D01*
X157357435Y-216492742D02*
X156976482Y-216492742D01*
X156976482Y-216492742D02*
X156786006Y-216587980D01*
X156786006Y-216587980D02*
X156690768Y-216683219D01*
X156690768Y-216683219D02*
X156595530Y-216873695D01*
X290707435Y-216683219D02*
X290040768Y-216683219D01*
X290040768Y-217730838D02*
X290040768Y-215730838D01*
X290040768Y-215730838D02*
X290993149Y-215730838D01*
X119638387Y-236780838D02*
X118495530Y-236780838D01*
X119066958Y-236780838D02*
X119066958Y-234780838D01*
X119066958Y-234780838D02*
X118876482Y-235066552D01*
X118876482Y-235066552D02*
X118686006Y-235257028D01*
X118686006Y-235257028D02*
X118495530Y-235352266D01*
X457458435Y-178583219D02*
X457744149Y-178678457D01*
X457744149Y-178678457D02*
X457839387Y-178773695D01*
X457839387Y-178773695D02*
X457934625Y-178964171D01*
X457934625Y-178964171D02*
X457934625Y-179249885D01*
X457934625Y-179249885D02*
X457839387Y-179440361D01*
X457839387Y-179440361D02*
X457744149Y-179535600D01*
X457744149Y-179535600D02*
X457553673Y-179630838D01*
X457553673Y-179630838D02*
X456791768Y-179630838D01*
X456791768Y-179630838D02*
X456791768Y-177630838D01*
X456791768Y-177630838D02*
X457458435Y-177630838D01*
X457458435Y-177630838D02*
X457648911Y-177726076D01*
X457648911Y-177726076D02*
X457744149Y-177821314D01*
X457744149Y-177821314D02*
X457839387Y-178011790D01*
X457839387Y-178011790D02*
X457839387Y-178202266D01*
X457839387Y-178202266D02*
X457744149Y-178392742D01*
X457744149Y-178392742D02*
X457648911Y-178487980D01*
X457648911Y-178487980D02*
X457458435Y-178583219D01*
X457458435Y-178583219D02*
X456791768Y-178583219D01*
X459648911Y-179630838D02*
X459648911Y-178583219D01*
X459648911Y-178583219D02*
X459553673Y-178392742D01*
X459553673Y-178392742D02*
X459363197Y-178297504D01*
X459363197Y-178297504D02*
X458982244Y-178297504D01*
X458982244Y-178297504D02*
X458791768Y-178392742D01*
X459648911Y-179535600D02*
X459458435Y-179630838D01*
X459458435Y-179630838D02*
X458982244Y-179630838D01*
X458982244Y-179630838D02*
X458791768Y-179535600D01*
X458791768Y-179535600D02*
X458696530Y-179345123D01*
X458696530Y-179345123D02*
X458696530Y-179154647D01*
X458696530Y-179154647D02*
X458791768Y-178964171D01*
X458791768Y-178964171D02*
X458982244Y-178868933D01*
X458982244Y-178868933D02*
X459458435Y-178868933D01*
X459458435Y-178868933D02*
X459648911Y-178773695D01*
X461458435Y-179535600D02*
X461267959Y-179630838D01*
X461267959Y-179630838D02*
X460887006Y-179630838D01*
X460887006Y-179630838D02*
X460696530Y-179535600D01*
X460696530Y-179535600D02*
X460601292Y-179440361D01*
X460601292Y-179440361D02*
X460506054Y-179249885D01*
X460506054Y-179249885D02*
X460506054Y-178678457D01*
X460506054Y-178678457D02*
X460601292Y-178487980D01*
X460601292Y-178487980D02*
X460696530Y-178392742D01*
X460696530Y-178392742D02*
X460887006Y-178297504D01*
X460887006Y-178297504D02*
X461267959Y-178297504D01*
X461267959Y-178297504D02*
X461458435Y-178392742D01*
X462315578Y-179630838D02*
X462315578Y-177630838D01*
X462506054Y-178868933D02*
X463077483Y-179630838D01*
X463077483Y-178297504D02*
X462315578Y-179059409D01*
X207871625Y-217540361D02*
X207776387Y-217635600D01*
X207776387Y-217635600D02*
X207490673Y-217730838D01*
X207490673Y-217730838D02*
X207300197Y-217730838D01*
X207300197Y-217730838D02*
X207014482Y-217635600D01*
X207014482Y-217635600D02*
X206824006Y-217445123D01*
X206824006Y-217445123D02*
X206728768Y-217254647D01*
X206728768Y-217254647D02*
X206633530Y-216873695D01*
X206633530Y-216873695D02*
X206633530Y-216587980D01*
X206633530Y-216587980D02*
X206728768Y-216207028D01*
X206728768Y-216207028D02*
X206824006Y-216016552D01*
X206824006Y-216016552D02*
X207014482Y-215826076D01*
X207014482Y-215826076D02*
X207300197Y-215730838D01*
X207300197Y-215730838D02*
X207490673Y-215730838D01*
X207490673Y-215730838D02*
X207776387Y-215826076D01*
X207776387Y-215826076D02*
X207871625Y-215921314D01*
X209585911Y-217730838D02*
X209585911Y-216683219D01*
X209585911Y-216683219D02*
X209490673Y-216492742D01*
X209490673Y-216492742D02*
X209300197Y-216397504D01*
X209300197Y-216397504D02*
X208919244Y-216397504D01*
X208919244Y-216397504D02*
X208728768Y-216492742D01*
X209585911Y-217635600D02*
X209395435Y-217730838D01*
X209395435Y-217730838D02*
X208919244Y-217730838D01*
X208919244Y-217730838D02*
X208728768Y-217635600D01*
X208728768Y-217635600D02*
X208633530Y-217445123D01*
X208633530Y-217445123D02*
X208633530Y-217254647D01*
X208633530Y-217254647D02*
X208728768Y-217064171D01*
X208728768Y-217064171D02*
X208919244Y-216968933D01*
X208919244Y-216968933D02*
X209395435Y-216968933D01*
X209395435Y-216968933D02*
X209585911Y-216873695D01*
X210538292Y-216397504D02*
X210538292Y-218397504D01*
X210538292Y-216492742D02*
X210728768Y-216397504D01*
X210728768Y-216397504D02*
X211109721Y-216397504D01*
X211109721Y-216397504D02*
X211300197Y-216492742D01*
X211300197Y-216492742D02*
X211395435Y-216587980D01*
X211395435Y-216587980D02*
X211490673Y-216778457D01*
X211490673Y-216778457D02*
X211490673Y-217349885D01*
X211490673Y-217349885D02*
X211395435Y-217540361D01*
X211395435Y-217540361D02*
X211300197Y-217635600D01*
X211300197Y-217635600D02*
X211109721Y-217730838D01*
X211109721Y-217730838D02*
X210728768Y-217730838D01*
X210728768Y-217730838D02*
X210538292Y-217635600D01*
X212252578Y-217635600D02*
X212443054Y-217730838D01*
X212443054Y-217730838D02*
X212824006Y-217730838D01*
X212824006Y-217730838D02*
X213014483Y-217635600D01*
X213014483Y-217635600D02*
X213109721Y-217445123D01*
X213109721Y-217445123D02*
X213109721Y-217349885D01*
X213109721Y-217349885D02*
X213014483Y-217159409D01*
X213014483Y-217159409D02*
X212824006Y-217064171D01*
X212824006Y-217064171D02*
X212538292Y-217064171D01*
X212538292Y-217064171D02*
X212347816Y-216968933D01*
X212347816Y-216968933D02*
X212252578Y-216778457D01*
X212252578Y-216778457D02*
X212252578Y-216683219D01*
X212252578Y-216683219D02*
X212347816Y-216492742D01*
X212347816Y-216492742D02*
X212538292Y-216397504D01*
X212538292Y-216397504D02*
X212824006Y-216397504D01*
X212824006Y-216397504D02*
X213014483Y-216492742D01*
X409166768Y-178868933D02*
X410690578Y-178868933D01*
X411166768Y-179821314D02*
X412690577Y-179821314D01*
D11*
X118919667Y-158728200D02*
X119062524Y-158775819D01*
X119062524Y-158775819D02*
X119300619Y-158775819D01*
X119300619Y-158775819D02*
X119395857Y-158728200D01*
X119395857Y-158728200D02*
X119443476Y-158680580D01*
X119443476Y-158680580D02*
X119491095Y-158585342D01*
X119491095Y-158585342D02*
X119491095Y-158490104D01*
X119491095Y-158490104D02*
X119443476Y-158394866D01*
X119443476Y-158394866D02*
X119395857Y-158347247D01*
X119395857Y-158347247D02*
X119300619Y-158299628D01*
X119300619Y-158299628D02*
X119110143Y-158252009D01*
X119110143Y-158252009D02*
X119014905Y-158204390D01*
X119014905Y-158204390D02*
X118967286Y-158156771D01*
X118967286Y-158156771D02*
X118919667Y-158061533D01*
X118919667Y-158061533D02*
X118919667Y-157966295D01*
X118919667Y-157966295D02*
X118967286Y-157871057D01*
X118967286Y-157871057D02*
X119014905Y-157823438D01*
X119014905Y-157823438D02*
X119110143Y-157775819D01*
X119110143Y-157775819D02*
X119348238Y-157775819D01*
X119348238Y-157775819D02*
X119491095Y-157823438D01*
X119824429Y-157775819D02*
X120062524Y-158775819D01*
X120062524Y-158775819D02*
X120253000Y-158061533D01*
X120253000Y-158061533D02*
X120443476Y-158775819D01*
X120443476Y-158775819D02*
X120681572Y-157775819D01*
X121014905Y-157871057D02*
X121062524Y-157823438D01*
X121062524Y-157823438D02*
X121157762Y-157775819D01*
X121157762Y-157775819D02*
X121395857Y-157775819D01*
X121395857Y-157775819D02*
X121491095Y-157823438D01*
X121491095Y-157823438D02*
X121538714Y-157871057D01*
X121538714Y-157871057D02*
X121586333Y-157966295D01*
X121586333Y-157966295D02*
X121586333Y-158061533D01*
X121586333Y-158061533D02*
X121538714Y-158204390D01*
X121538714Y-158204390D02*
X120967286Y-158775819D01*
X120967286Y-158775819D02*
X121586333Y-158775819D01*
D12*
X185368572Y-164857757D02*
X185225715Y-164786328D01*
X185225715Y-164786328D02*
X185011429Y-164786328D01*
X185011429Y-164786328D02*
X184797143Y-164857757D01*
X184797143Y-164857757D02*
X184654286Y-165000614D01*
X184654286Y-165000614D02*
X184582857Y-165143471D01*
X184582857Y-165143471D02*
X184511429Y-165429185D01*
X184511429Y-165429185D02*
X184511429Y-165643471D01*
X184511429Y-165643471D02*
X184582857Y-165929185D01*
X184582857Y-165929185D02*
X184654286Y-166072042D01*
X184654286Y-166072042D02*
X184797143Y-166214900D01*
X184797143Y-166214900D02*
X185011429Y-166286328D01*
X185011429Y-166286328D02*
X185154286Y-166286328D01*
X185154286Y-166286328D02*
X185368572Y-166214900D01*
X185368572Y-166214900D02*
X185440000Y-166143471D01*
X185440000Y-166143471D02*
X185440000Y-165643471D01*
X185440000Y-165643471D02*
X185154286Y-165643471D01*
X186297143Y-164786328D02*
X186297143Y-165143471D01*
X185940000Y-165000614D02*
X186297143Y-165143471D01*
X186297143Y-165143471D02*
X186654286Y-165000614D01*
X186082857Y-165429185D02*
X186297143Y-165143471D01*
X186297143Y-165143471D02*
X186511429Y-165429185D01*
X187440000Y-164786328D02*
X187440000Y-165143471D01*
X187082857Y-165000614D02*
X187440000Y-165143471D01*
X187440000Y-165143471D02*
X187797143Y-165000614D01*
X187225714Y-165429185D02*
X187440000Y-165143471D01*
X187440000Y-165143471D02*
X187654286Y-165429185D01*
X188582857Y-164786328D02*
X188582857Y-165143471D01*
X188225714Y-165000614D02*
X188582857Y-165143471D01*
X188582857Y-165143471D02*
X188940000Y-165000614D01*
X188368571Y-165429185D02*
X188582857Y-165143471D01*
X188582857Y-165143471D02*
X188797143Y-165429185D01*
D16*
X117153000Y-161421000D02*
X117753000Y-161421000D01*
X117453000Y-161721000D02*
X117153000Y-161421000D01*
X117753000Y-161421000D02*
X117453000Y-161721000D01*
X118853000Y-159621000D02*
X118853000Y-171421000D01*
X122953000Y-159621000D02*
X118853000Y-159621000D01*
X122953000Y-171421000D02*
X118853000Y-171421000D01*
X124453000Y-165521000D02*
X125453000Y-165521000D01*
X124953000Y-165021000D02*
X124953000Y-166021000D01*
X126953000Y-159621000D02*
X131053000Y-159621000D01*
X131053000Y-159621000D02*
X131053000Y-162021000D01*
X131053000Y-164221000D02*
X131053000Y-166821000D01*
X131053000Y-169021000D02*
X131053000Y-171421000D01*
X131053000Y-171421000D02*
X126953000Y-171421000D01*
X127953000Y-165521000D02*
G75*
G02*
X121953000Y-165521000I-3000000J0D01*
G01*
X121953000Y-165521000D02*
G75*
G02*
X127953000Y-165521000I3000000J0D01*
G01*
D17*
G36*
X185974113Y-156933369D02*
G01*
X186200544Y-156955660D01*
X186309234Y-156990210D01*
X186310953Y-156992543D01*
X186410957Y-157039384D01*
X186625316Y-157087869D01*
X186851101Y-157120471D01*
X187121222Y-157160991D01*
X187318189Y-157209122D01*
X187389823Y-157246092D01*
X187493010Y-157306451D01*
X187689760Y-157363429D01*
X187723288Y-157370122D01*
X187914589Y-157425680D01*
X188011005Y-157492191D01*
X188013778Y-157503605D01*
X188078381Y-157578343D01*
X188109186Y-157582593D01*
X188227062Y-157617998D01*
X188445380Y-157709821D01*
X188718649Y-157836476D01*
X189001380Y-157976376D01*
X189248081Y-158107933D01*
X189373593Y-158182607D01*
X189550795Y-158319727D01*
X189714025Y-158472006D01*
X189862985Y-158602957D01*
X189969740Y-158658156D01*
X189970392Y-158658163D01*
X190070580Y-158715558D01*
X190240676Y-158862895D01*
X190444766Y-159062902D01*
X190646940Y-159278305D01*
X190811286Y-159471833D01*
X190901892Y-159606211D01*
X190909544Y-159632914D01*
X190961350Y-159727171D01*
X190989738Y-159733733D01*
X191076509Y-159800254D01*
X191212206Y-159971753D01*
X191369927Y-160206131D01*
X191522771Y-160461289D01*
X191643836Y-160695129D01*
X191702576Y-160849259D01*
X191764208Y-161004736D01*
X191822037Y-161057511D01*
X191884684Y-161128755D01*
X191942618Y-161300648D01*
X191943746Y-161305720D01*
X192001095Y-161479331D01*
X192063835Y-161553876D01*
X192065216Y-161553928D01*
X192121682Y-161626480D01*
X192178211Y-161806543D01*
X192190150Y-161864189D01*
X192253031Y-162099706D01*
X192331930Y-162273999D01*
X192344146Y-162290586D01*
X192383761Y-162417264D01*
X192413572Y-162666784D01*
X192433673Y-163005014D01*
X192444156Y-163397826D01*
X192445115Y-163811089D01*
X192436643Y-164210673D01*
X192418832Y-164562450D01*
X192391775Y-164832290D01*
X192355566Y-164986062D01*
X192336742Y-165008163D01*
X192256831Y-165107737D01*
X192233322Y-165241372D01*
X192194778Y-165412193D01*
X192094583Y-165675582D01*
X191955897Y-165982021D01*
X191801878Y-166281993D01*
X191655684Y-166525978D01*
X191592258Y-166612108D01*
X191537939Y-166710262D01*
X191584575Y-166798129D01*
X191755160Y-166917484D01*
X191763048Y-166922368D01*
X191990530Y-167036419D01*
X192191554Y-167095126D01*
X192222404Y-167097251D01*
X192362721Y-167126449D01*
X192398795Y-167171017D01*
X192468054Y-167259598D01*
X192631307Y-167302608D01*
X192821768Y-167293605D01*
X192972422Y-167226356D01*
X193154446Y-167118691D01*
X193376373Y-167046523D01*
X193556629Y-166990756D01*
X193639274Y-166926290D01*
X193639837Y-166921436D01*
X193712577Y-166873490D01*
X193891329Y-166849633D01*
X193928108Y-166849042D01*
X194230673Y-166914686D01*
X194484193Y-167088333D01*
X194621301Y-167219377D01*
X194699791Y-167339470D01*
X194734121Y-167498053D01*
X194738752Y-167744570D01*
X194733700Y-167941499D01*
X194727866Y-168258971D01*
X194742506Y-168457125D01*
X194790729Y-168581949D01*
X194885642Y-168679436D01*
X194960259Y-168736410D01*
X195139313Y-168855758D01*
X195263857Y-168915766D01*
X195275731Y-168917446D01*
X195429516Y-168989395D01*
X195595346Y-169173768D01*
X195741706Y-169423353D01*
X195837079Y-169690937D01*
X195852788Y-169781914D01*
X195841939Y-170129940D01*
X195711797Y-170368372D01*
X195453696Y-170510674D01*
X195369666Y-170532477D01*
X195182557Y-170594062D01*
X195083786Y-170661271D01*
X194979459Y-170707091D01*
X194770591Y-170734345D01*
X194659025Y-170737641D01*
X194431173Y-170747878D01*
X194344161Y-170784101D01*
X194362902Y-170841062D01*
X194420958Y-170980105D01*
X194476207Y-171216139D01*
X194497595Y-171352373D01*
X194489257Y-171756297D01*
X194362807Y-172062672D01*
X194141839Y-172259400D01*
X193849943Y-172334381D01*
X193510711Y-172275516D01*
X193147735Y-172070706D01*
X193127587Y-172054996D01*
X192928474Y-171911076D01*
X192775289Y-171824517D01*
X192734591Y-171813211D01*
X192656913Y-171746276D01*
X192647003Y-171689107D01*
X192609305Y-171582631D01*
X192489168Y-171594077D01*
X192276030Y-171726353D01*
X192145693Y-171827092D01*
X191868971Y-172009193D01*
X191572046Y-172101505D01*
X191366342Y-172126765D01*
X191104338Y-172143030D01*
X190957686Y-172124050D01*
X190877163Y-172051778D01*
X190820733Y-171926728D01*
X190774290Y-171700100D01*
X190762100Y-171392201D01*
X190780331Y-171060678D01*
X190825154Y-170763178D01*
X190892737Y-170557346D01*
X190913844Y-170525619D01*
X190950382Y-170445880D01*
X190919400Y-170343650D01*
X190803724Y-170190991D01*
X190586180Y-169959966D01*
X190532900Y-169905903D01*
X190222962Y-169611806D01*
X190007212Y-169451822D01*
X189883891Y-169425252D01*
X189851241Y-169531393D01*
X189870139Y-169641387D01*
X189912237Y-169872345D01*
X189925024Y-170030571D01*
X189958436Y-170209911D01*
X189995178Y-170278780D01*
X190039365Y-170400706D01*
X190086436Y-170635923D01*
X190125049Y-170923798D01*
X190163108Y-171203159D01*
X190206558Y-171403442D01*
X190246138Y-171482221D01*
X190246951Y-171482267D01*
X190304011Y-171553996D01*
X190358816Y-171728708D01*
X190363030Y-171748885D01*
X190456760Y-171984779D01*
X190619731Y-172225519D01*
X190656211Y-172265986D01*
X190890054Y-172563346D01*
X191114422Y-172936981D01*
X191290265Y-173315895D01*
X191365778Y-173556065D01*
X191368165Y-173905616D01*
X191216782Y-174202960D01*
X190918548Y-174435398D01*
X190874691Y-174457615D01*
X190601536Y-174558093D01*
X190314835Y-174614797D01*
X190065495Y-174622847D01*
X189904427Y-174577360D01*
X189881138Y-174552884D01*
X189776193Y-174489901D01*
X189578359Y-174431643D01*
X189545311Y-174425031D01*
X189354010Y-174369472D01*
X189257594Y-174302962D01*
X189254821Y-174291547D01*
X189188857Y-174219144D01*
X189145138Y-174212560D01*
X189008018Y-174151295D01*
X188845443Y-174007523D01*
X188716001Y-173841278D01*
X188675668Y-173731495D01*
X188633186Y-173639116D01*
X188611746Y-173633407D01*
X188537738Y-173565162D01*
X188430632Y-173394570D01*
X188318979Y-173172843D01*
X188231328Y-172951191D01*
X188231212Y-172950834D01*
X188180598Y-172875109D01*
X188065908Y-172830846D01*
X187851781Y-172810403D01*
X187561326Y-172806045D01*
X187264043Y-172797150D01*
X187043861Y-172773611D01*
X186941123Y-172740152D01*
X186938208Y-172733095D01*
X186861844Y-172694303D01*
X186657649Y-172652465D01*
X186362969Y-172614413D01*
X186214267Y-172600630D01*
X185876472Y-172565044D01*
X185597857Y-172521280D01*
X185422814Y-172476875D01*
X185392310Y-172461095D01*
X185246490Y-172412689D01*
X185030572Y-172406870D01*
X185024911Y-172407403D01*
X184858610Y-172438946D01*
X184759890Y-172522022D01*
X184689130Y-172701845D01*
X184655074Y-172829440D01*
X184573930Y-173090673D01*
X184483885Y-173297510D01*
X184446550Y-173355365D01*
X184317555Y-173540401D01*
X184252513Y-173654794D01*
X184108181Y-173835134D01*
X184001075Y-173914862D01*
X183852721Y-174004503D01*
X183794234Y-174048999D01*
X183477099Y-174265517D01*
X183040407Y-174385742D01*
X182752708Y-174408450D01*
X182457217Y-174407491D01*
X182264185Y-174375116D01*
X182110921Y-174290245D01*
X181937291Y-174134278D01*
X181764781Y-173939481D01*
X181658925Y-173766752D01*
X181643094Y-173704796D01*
X181601040Y-173553227D01*
X181560358Y-173509303D01*
X181498110Y-173389308D01*
X181480368Y-173181016D01*
X181507763Y-172955678D01*
X181554319Y-172825607D01*
X181647104Y-172636851D01*
X181681668Y-172557837D01*
X181812553Y-172293779D01*
X181961051Y-172074864D01*
X182066998Y-171972366D01*
X182133432Y-171849858D01*
X182183999Y-171590788D01*
X182207921Y-171321653D01*
X182232609Y-171034893D01*
X182266725Y-170826546D01*
X182303249Y-170738273D01*
X182306335Y-170737641D01*
X182348813Y-170663202D01*
X182385685Y-170472877D01*
X182400419Y-170323909D01*
X182410236Y-170054836D01*
X182383682Y-169934671D01*
X182309174Y-169948719D01*
X182193702Y-170061583D01*
X182092337Y-170277502D01*
X182054206Y-170614273D01*
X182054160Y-170620052D01*
X181996050Y-170983459D01*
X181844180Y-171270462D01*
X181624649Y-171459374D01*
X181363554Y-171528506D01*
X181086992Y-171456168D01*
X181063941Y-171443000D01*
X180867925Y-171334950D01*
X180732997Y-171272225D01*
X180625092Y-171172939D01*
X180497637Y-170977545D01*
X180447028Y-170877906D01*
X180347852Y-170666700D01*
X180282172Y-170529576D01*
X180269744Y-170505201D01*
X180195243Y-170524648D01*
X180025441Y-170603616D01*
X179936417Y-170649989D01*
X179680692Y-170758681D01*
X179440064Y-170817151D01*
X179389759Y-170820378D01*
X179224085Y-170846210D01*
X179161010Y-170903114D01*
X179088278Y-170957800D01*
X178909436Y-170985135D01*
X178871433Y-170985850D01*
X178680032Y-170965069D01*
X178584358Y-170913972D01*
X178581856Y-170903114D01*
X178515827Y-170827569D01*
X178470575Y-170820378D01*
X178335621Y-170763666D01*
X178209267Y-170654600D01*
X178096601Y-170418370D01*
X178072917Y-170093582D01*
X178128810Y-169724721D01*
X178254877Y-169356275D01*
X178441713Y-169032731D01*
X178586050Y-168872282D01*
X178675874Y-168780864D01*
X178677635Y-168713811D01*
X178569903Y-168637911D01*
X178371079Y-168539149D01*
X178083254Y-168379359D01*
X177842488Y-168207687D01*
X177680307Y-168050700D01*
X177628236Y-167934961D01*
X177634290Y-167918302D01*
X177616714Y-167823073D01*
X177590372Y-167801342D01*
X177515794Y-167667005D01*
X177521502Y-167512934D01*
X177919967Y-167512934D01*
X177989046Y-167693501D01*
X178168080Y-167906538D01*
X178414770Y-168119716D01*
X178686816Y-168300705D01*
X178941916Y-168417176D01*
X179130911Y-168438430D01*
X179237625Y-168485103D01*
X179273147Y-168543781D01*
X179245640Y-168679652D01*
X179106468Y-168898158D01*
X178951616Y-169085793D01*
X178707997Y-169397687D01*
X178593978Y-169643828D01*
X178581856Y-169740675D01*
X178549501Y-169928691D01*
X178478436Y-170027489D01*
X178417592Y-170081825D01*
X178478436Y-170124015D01*
X178563342Y-170237066D01*
X178581856Y-170342736D01*
X178592531Y-170429676D01*
X178647933Y-170475514D01*
X178783132Y-170487001D01*
X179033196Y-170470890D01*
X179178960Y-170457700D01*
X179503816Y-170413298D01*
X179784418Y-170349941D01*
X179960666Y-170281239D01*
X179962042Y-170280347D01*
X180131141Y-170188614D01*
X180232723Y-170158488D01*
X180364197Y-170212470D01*
X180519228Y-170335465D01*
X180631178Y-170469047D01*
X180650260Y-170524565D01*
X180713227Y-170658960D01*
X180868622Y-170832749D01*
X181066192Y-171001530D01*
X181255680Y-171120899D01*
X181359617Y-171151322D01*
X181555867Y-171101632D01*
X181670439Y-170940718D01*
X181712592Y-170650818D01*
X181710587Y-170477924D01*
X181709755Y-170204479D01*
X181753925Y-170022509D01*
X181869975Y-169859012D01*
X181980868Y-169743824D01*
X182204117Y-169536906D01*
X182423324Y-169358363D01*
X182491317Y-169310443D01*
X182703871Y-169205599D01*
X182888609Y-169168328D01*
X183012878Y-169191818D01*
X183044023Y-169269257D01*
X182949390Y-169393836D01*
X182937885Y-169403588D01*
X182881615Y-169518985D01*
X182834495Y-169770380D01*
X182795021Y-170168315D01*
X182768293Y-170592482D01*
X182742634Y-171041697D01*
X182716871Y-171357572D01*
X182684424Y-171572113D01*
X182638716Y-171717325D01*
X182573169Y-171825214D01*
X182497279Y-171911129D01*
X182182559Y-172311605D01*
X182007080Y-172661257D01*
X181929214Y-172783182D01*
X181881653Y-172806045D01*
X181835722Y-172879428D01*
X181810334Y-173062566D01*
X181808567Y-173134232D01*
X181879043Y-173448748D01*
X182063700Y-173733995D01*
X182322376Y-173947046D01*
X182614911Y-174044971D01*
X182662560Y-174047088D01*
X182926255Y-174001258D01*
X183229770Y-173880722D01*
X183533108Y-173710911D01*
X183796273Y-173517253D01*
X183979266Y-173325178D01*
X184042443Y-173169773D01*
X184084618Y-173054684D01*
X184104495Y-173040464D01*
X184188618Y-172950588D01*
X184286344Y-172782830D01*
X184367236Y-172600426D01*
X184400855Y-172466613D01*
X184393493Y-172440049D01*
X184284050Y-172405482D01*
X184106507Y-172392365D01*
X183949100Y-172368815D01*
X183918339Y-172309628D01*
X184028556Y-172253278D01*
X184228315Y-172227121D01*
X184249283Y-172226892D01*
X184453635Y-172204600D01*
X184575649Y-172150314D01*
X184580228Y-172144156D01*
X184689004Y-172095458D01*
X184901324Y-172068769D01*
X185156693Y-172064381D01*
X185394614Y-172082586D01*
X185554592Y-172123677D01*
X185577198Y-172139343D01*
X185685452Y-172172726D01*
X185925310Y-172208380D01*
X186263024Y-172242355D01*
X186664841Y-172270702D01*
X186731368Y-172274374D01*
X187140610Y-172300215D01*
X187491503Y-172330088D01*
X187750140Y-172360549D01*
X187882612Y-172388157D01*
X187889674Y-172391962D01*
X188009235Y-172429315D01*
X188243317Y-172469200D01*
X188541344Y-172503008D01*
X188542655Y-172503125D01*
X188832294Y-172533504D01*
X189050025Y-172565026D01*
X189150033Y-172591020D01*
X189150777Y-172591687D01*
X189161717Y-172682916D01*
X189053711Y-172764689D01*
X188871798Y-172805413D01*
X188845176Y-172806045D01*
X188610769Y-172806045D01*
X188765866Y-173110258D01*
X188929638Y-173378148D01*
X189124758Y-173621818D01*
X189315351Y-173802361D01*
X189465541Y-173880873D01*
X189477140Y-173881615D01*
X189576966Y-173928140D01*
X189585765Y-173958285D01*
X189659511Y-174041584D01*
X189849170Y-174096730D01*
X190107377Y-174122419D01*
X190386765Y-174117343D01*
X190639968Y-174080197D01*
X190819620Y-174009675D01*
X190840977Y-173992896D01*
X190950457Y-173826000D01*
X190991681Y-173626942D01*
X190954700Y-173467291D01*
X190918923Y-173432363D01*
X190855940Y-173327418D01*
X190797682Y-173129584D01*
X190791070Y-173096536D01*
X190737943Y-172905307D01*
X190677373Y-172808847D01*
X190667236Y-172806045D01*
X190585615Y-172738965D01*
X190547845Y-172661257D01*
X190468736Y-172493972D01*
X190344310Y-172283585D01*
X190334299Y-172268260D01*
X190190044Y-172023773D01*
X190016530Y-171694531D01*
X189848058Y-171348556D01*
X189718931Y-171053872D01*
X189708489Y-171027218D01*
X189665126Y-170814263D01*
X189662003Y-170642426D01*
X189646444Y-170460891D01*
X189594963Y-170371013D01*
X189541265Y-170266516D01*
X189488192Y-170048829D01*
X189454955Y-169826416D01*
X189406895Y-169546013D01*
X189340005Y-169328480D01*
X189285659Y-169239652D01*
X189174579Y-169087126D01*
X189216006Y-168969095D01*
X189396990Y-168917716D01*
X189415410Y-168917446D01*
X189603957Y-168939473D01*
X189703130Y-168989277D01*
X189804702Y-169040995D01*
X190013858Y-169092537D01*
X190153837Y-169115007D01*
X190452625Y-169182306D01*
X190600064Y-169287008D01*
X190612065Y-169312069D01*
X190833635Y-169728794D01*
X191164447Y-170124028D01*
X191330483Y-170319008D01*
X191374688Y-170444544D01*
X191346076Y-170499676D01*
X191287455Y-170645300D01*
X191297174Y-170706355D01*
X191287880Y-170806307D01*
X191249340Y-170820378D01*
X191190214Y-170892669D01*
X191159298Y-171073087D01*
X191155232Y-171306951D01*
X191176658Y-171539580D01*
X191222218Y-171716292D01*
X191273185Y-171779964D01*
X191476746Y-171790153D01*
X191753104Y-171721894D01*
X192043211Y-171596734D01*
X192288021Y-171436218D01*
X192336257Y-171392061D01*
X192578516Y-171149802D01*
X192955353Y-171481507D01*
X193173897Y-171658503D01*
X193355905Y-171778845D01*
X193444645Y-171813211D01*
X193547054Y-171861863D01*
X193557101Y-171895948D01*
X193623400Y-171961985D01*
X193775775Y-171974850D01*
X193944442Y-171936949D01*
X194036970Y-171879400D01*
X194093556Y-171744768D01*
X194126147Y-171517366D01*
X194133768Y-171257165D01*
X194115446Y-171024136D01*
X194070203Y-170878248D01*
X194053518Y-170861746D01*
X193988385Y-170747165D01*
X193970782Y-170617624D01*
X194045426Y-170447618D01*
X194258114Y-170343059D01*
X194591982Y-170311219D01*
X194674039Y-170314343D01*
X194945942Y-170276729D01*
X195200588Y-170155362D01*
X195388451Y-169982926D01*
X195460032Y-169795665D01*
X195394144Y-169603278D01*
X195219668Y-169365488D01*
X194971386Y-169119510D01*
X194684080Y-168902562D01*
X194553135Y-168825287D01*
X194405625Y-168740008D01*
X194315734Y-168650518D01*
X194265546Y-168514058D01*
X194237145Y-168287870D01*
X194218990Y-168027819D01*
X194177622Y-167386827D01*
X193846677Y-167401595D01*
X193577559Y-167451048D01*
X193264121Y-167560305D01*
X193110986Y-167633039D01*
X192706240Y-167849715D01*
X192242257Y-167631633D01*
X191949374Y-167492871D01*
X191681350Y-167364052D01*
X191544044Y-167296769D01*
X191279998Y-167195664D01*
X191108600Y-167196119D01*
X191061227Y-167242039D01*
X190976619Y-167338347D01*
X190804840Y-167487956D01*
X190591697Y-167655715D01*
X190382999Y-167806473D01*
X190224555Y-167905081D01*
X190171678Y-167924612D01*
X190085903Y-167979082D01*
X190082182Y-168000774D01*
X190010988Y-168070300D01*
X189840886Y-168129934D01*
X189654161Y-168202244D01*
X189556899Y-168294179D01*
X189452787Y-168388234D01*
X189260660Y-168461089D01*
X189254838Y-168462393D01*
X188987032Y-168543697D01*
X188773515Y-168635158D01*
X188553892Y-168720886D01*
X188381954Y-168751464D01*
X188200405Y-168791318D01*
X188125869Y-168838450D01*
X188004985Y-168887727D01*
X187768475Y-168935871D01*
X187465949Y-168972952D01*
X187444760Y-168974778D01*
X187147511Y-169008347D01*
X186920607Y-169050151D01*
X186809384Y-169091638D01*
X186806549Y-169095142D01*
X186707100Y-169131978D01*
X186491646Y-169157495D01*
X186245881Y-169165654D01*
X185875577Y-169189078D01*
X185622366Y-169255379D01*
X185568191Y-169287127D01*
X185413036Y-169346680D01*
X185160673Y-169388311D01*
X184861079Y-169410451D01*
X184564234Y-169411532D01*
X184320113Y-169389984D01*
X184178697Y-169344240D01*
X184166547Y-169331127D01*
X184048689Y-169259155D01*
X183971054Y-169248391D01*
X183831284Y-169192135D01*
X183641169Y-169049459D01*
X183546026Y-168958814D01*
X183354927Y-168788136D01*
X183188963Y-168684109D01*
X183132662Y-168669237D01*
X182967029Y-168629742D01*
X182921368Y-168600888D01*
X182799093Y-168535989D01*
X182583183Y-168452623D01*
X182480880Y-168418786D01*
X182180904Y-168274733D01*
X181837593Y-168029631D01*
X181653518Y-167868426D01*
X181421894Y-167660148D01*
X181238381Y-167510931D01*
X181725830Y-167510931D01*
X181789316Y-167590639D01*
X181812517Y-167593667D01*
X181926058Y-167648226D01*
X182078925Y-167779705D01*
X182081410Y-167782268D01*
X182431566Y-168047997D01*
X182842944Y-168211910D01*
X183058862Y-168245215D01*
X183200162Y-168309570D01*
X183406086Y-168470191D01*
X183636346Y-168695381D01*
X183650378Y-168710606D01*
X184067168Y-169165654D01*
X184696010Y-169164606D01*
X185061815Y-169153244D01*
X185338313Y-169109147D01*
X185600942Y-169015125D01*
X185821270Y-168908164D01*
X186324544Y-168703969D01*
X186849077Y-168614098D01*
X186855472Y-168613627D01*
X187163740Y-168580709D01*
X187425018Y-168534433D01*
X187563316Y-168492390D01*
X187730277Y-168434426D01*
X187811525Y-168429235D01*
X187941124Y-168416598D01*
X188167535Y-168356716D01*
X188447987Y-168265295D01*
X188739708Y-168158038D01*
X188999927Y-168050650D01*
X189185873Y-167958837D01*
X189254821Y-167899283D01*
X189178080Y-167887133D01*
X188971838Y-167876917D01*
X188672065Y-167870061D01*
X188470258Y-167868190D01*
X188117653Y-167857864D01*
X187822801Y-167833216D01*
X187628354Y-167798577D01*
X187580844Y-167777862D01*
X187433407Y-167705950D01*
X187206865Y-167641484D01*
X187165733Y-167633231D01*
X186966850Y-167578862D01*
X186860853Y-167516358D01*
X186855472Y-167501724D01*
X186789279Y-167434538D01*
X186744191Y-167428195D01*
X186737434Y-167425357D01*
X187805306Y-167425357D01*
X187806938Y-167428195D01*
X187909684Y-167469646D01*
X188130423Y-167499330D01*
X188421764Y-167510927D01*
X188427459Y-167510931D01*
X188719652Y-167499724D01*
X188942109Y-167470315D01*
X189047441Y-167429022D01*
X189047980Y-167428195D01*
X189164855Y-167358316D01*
X189257156Y-167345459D01*
X189531088Y-167281749D01*
X189857951Y-167110849D01*
X190198669Y-166863104D01*
X190514164Y-166568859D01*
X190765362Y-166258459D01*
X190856084Y-166103797D01*
X190926504Y-165890853D01*
X190972620Y-165614382D01*
X190991668Y-165326920D01*
X190980880Y-165081002D01*
X190937489Y-164929163D01*
X190918918Y-164910536D01*
X190810842Y-164922061D01*
X190713925Y-165078326D01*
X190640247Y-165358601D01*
X190633398Y-165400509D01*
X190582194Y-165615224D01*
X190516950Y-165745503D01*
X190497814Y-165759032D01*
X190417371Y-165854400D01*
X190413127Y-165886897D01*
X190352123Y-166009958D01*
X190192289Y-166198117D01*
X189968392Y-166418836D01*
X189715199Y-166639575D01*
X189467475Y-166827796D01*
X189293720Y-166934580D01*
X188991670Y-167057583D01*
X188668404Y-167144018D01*
X188613615Y-167153034D01*
X188399143Y-167198129D01*
X188274641Y-167253213D01*
X188261987Y-167273969D01*
X188189937Y-167323802D01*
X188015886Y-167345432D01*
X188008895Y-167345459D01*
X187843498Y-167367866D01*
X187805306Y-167425357D01*
X186737434Y-167425357D01*
X186609178Y-167371486D01*
X186483159Y-167262723D01*
X187186417Y-167262723D01*
X187257367Y-167324390D01*
X187398140Y-167345459D01*
X187538906Y-167319195D01*
X187558729Y-167262723D01*
X187442033Y-167193219D01*
X187347006Y-167179987D01*
X187215237Y-167215575D01*
X187186417Y-167262723D01*
X186483159Y-167262723D01*
X186332399Y-167138275D01*
X186222128Y-167097251D01*
X186118552Y-167035937D01*
X186107484Y-166993830D01*
X186055086Y-166872267D01*
X185926968Y-166687030D01*
X185859276Y-166603959D01*
X185709805Y-166398125D01*
X185623153Y-166218867D01*
X185614430Y-166169594D01*
X185588561Y-166033228D01*
X185527584Y-166030113D01*
X185456444Y-166139311D01*
X185400086Y-166339883D01*
X185398243Y-166351063D01*
X185337431Y-166585474D01*
X185252848Y-166752852D01*
X185231792Y-166774875D01*
X185133653Y-166892306D01*
X185118013Y-166941909D01*
X185051177Y-167069615D01*
X184871228Y-167248748D01*
X184609001Y-167449131D01*
X184578862Y-167469563D01*
X184460868Y-167536755D01*
X184321109Y-167583090D01*
X184127961Y-167612308D01*
X183849801Y-167628153D01*
X183455005Y-167634367D01*
X183180578Y-167635036D01*
X182683197Y-167630567D01*
X182333736Y-167616153D01*
X182114859Y-167590281D01*
X182009228Y-167551440D01*
X181994693Y-167531615D01*
X181910887Y-167446907D01*
X181793809Y-167433967D01*
X181726608Y-167499191D01*
X181725830Y-167510931D01*
X181238381Y-167510931D01*
X181231520Y-167505352D01*
X181117616Y-167432312D01*
X181107386Y-167430006D01*
X181017060Y-167374300D01*
X180841161Y-167226254D01*
X180609688Y-167011953D01*
X180470754Y-166876484D01*
X180204637Y-166618897D01*
X180025045Y-166466058D01*
X179906171Y-166401210D01*
X179822209Y-166407600D01*
X179785828Y-166431795D01*
X179689408Y-166616878D01*
X179670578Y-166901131D01*
X179670149Y-167130779D01*
X179652903Y-167281202D01*
X179642190Y-167305538D01*
X179547267Y-167302740D01*
X179359651Y-167245328D01*
X179279495Y-167213675D01*
X178958993Y-167127235D01*
X178625553Y-167113741D01*
X178318198Y-167164606D01*
X178075947Y-167271238D01*
X177937823Y-167425049D01*
X177919967Y-167512934D01*
X177521502Y-167512934D01*
X177524076Y-167443453D01*
X177610745Y-167182023D01*
X177651075Y-167104389D01*
X177798461Y-166925340D01*
X178013383Y-166816527D01*
X178325068Y-166769989D01*
X178762746Y-166777766D01*
X178832898Y-166782530D01*
X179326482Y-166818233D01*
X179326482Y-166556884D01*
X179380850Y-166317651D01*
X179516240Y-166121459D01*
X179691084Y-166024323D01*
X179723666Y-166021680D01*
X179744323Y-165957031D01*
X179685812Y-165784387D01*
X179614141Y-165637817D01*
X179487040Y-165339291D01*
X179373166Y-164971661D01*
X179316200Y-164715095D01*
X179306504Y-164630645D01*
X179990219Y-164630645D01*
X180011145Y-164812974D01*
X180060133Y-164897960D01*
X180111341Y-165000144D01*
X180158682Y-165208008D01*
X180175228Y-165326757D01*
X180217934Y-165566267D01*
X180276175Y-165730255D01*
X180303746Y-165763850D01*
X180386493Y-165877548D01*
X180442954Y-166031735D01*
X180529216Y-166230455D01*
X180678094Y-166457459D01*
X180852061Y-166666383D01*
X181013594Y-166810863D01*
X181104438Y-166849042D01*
X181225754Y-166904017D01*
X181244982Y-166937115D01*
X181337928Y-167001441D01*
X181536049Y-167057628D01*
X181624189Y-167072113D01*
X181838057Y-167114785D01*
X181961779Y-167166544D01*
X181974039Y-167185638D01*
X182056425Y-167245183D01*
X182303433Y-167290324D01*
X182714838Y-167321029D01*
X183028925Y-167332218D01*
X183296702Y-167328709D01*
X183483563Y-167306455D01*
X183546026Y-167274214D01*
X183471146Y-167228480D01*
X183277201Y-167183233D01*
X183070293Y-167155415D01*
X182775287Y-167103165D01*
X182467653Y-167012813D01*
X182189750Y-166901624D01*
X181983935Y-166786860D01*
X181892567Y-166685785D01*
X181891303Y-166674924D01*
X181826175Y-166605414D01*
X181791821Y-166600834D01*
X181665557Y-166542699D01*
X181489605Y-166400309D01*
X181312617Y-166221679D01*
X181252331Y-166143930D01*
X183401635Y-166143930D01*
X183459957Y-166262980D01*
X183628344Y-166434037D01*
X183672434Y-166473683D01*
X183940399Y-166681329D01*
X184142492Y-166758298D01*
X184304295Y-166711816D01*
X184356840Y-166667023D01*
X184425148Y-166520517D01*
X184455978Y-166299913D01*
X184456124Y-166284368D01*
X184444974Y-166095855D01*
X184382902Y-166030666D01*
X184226968Y-166046842D01*
X184215399Y-166049141D01*
X184016436Y-166055999D01*
X183926192Y-165970944D01*
X183818850Y-165880142D01*
X183649826Y-165884734D01*
X183485639Y-165975497D01*
X183432675Y-166039383D01*
X183401635Y-166143930D01*
X181252331Y-166143930D01*
X181183241Y-166054827D01*
X181146677Y-165964082D01*
X181100660Y-165864768D01*
X181071322Y-165856208D01*
X180995654Y-165788075D01*
X180933463Y-165691874D01*
X188793042Y-165691874D01*
X188827656Y-165759723D01*
X188938597Y-165949777D01*
X188977296Y-166042365D01*
X189084603Y-166167418D01*
X189255451Y-166161759D01*
X189456083Y-166028521D01*
X189489364Y-165994858D01*
X189598008Y-165847541D01*
X189617097Y-165750298D01*
X189614101Y-165746650D01*
X189621394Y-165695230D01*
X189654712Y-165690736D01*
X189727235Y-165620024D01*
X189751238Y-165483895D01*
X189716718Y-165326094D01*
X189582546Y-165277770D01*
X189549280Y-165277055D01*
X189373179Y-165308861D01*
X189294109Y-165363157D01*
X189181884Y-165414094D01*
X189094066Y-165402657D01*
X188920511Y-165413881D01*
X188805958Y-165529334D01*
X188793042Y-165691874D01*
X180933463Y-165691874D01*
X180882618Y-165613225D01*
X180803358Y-165463211D01*
X180685269Y-165111583D01*
X182470456Y-165111583D01*
X182537469Y-165184985D01*
X182594560Y-165194319D01*
X182704663Y-165149644D01*
X182718664Y-165111583D01*
X182651652Y-165038181D01*
X182594560Y-165028847D01*
X182484457Y-165073522D01*
X182470456Y-165111583D01*
X180685269Y-165111583D01*
X180672071Y-165072285D01*
X180606738Y-164607606D01*
X180607368Y-164125848D01*
X180627899Y-163989538D01*
X181030051Y-163989538D01*
X181095194Y-164327822D01*
X181125507Y-164393062D01*
X181344497Y-164680137D01*
X181621722Y-164815529D01*
X181945606Y-164797576D01*
X182304576Y-164624621D01*
X182377860Y-164572556D01*
X182683580Y-164276840D01*
X182833980Y-163967509D01*
X182824953Y-163655124D01*
X182779748Y-163539596D01*
X182664782Y-163347895D01*
X182520579Y-163232195D01*
X182284161Y-163144780D01*
X182242931Y-163132881D01*
X181877339Y-163100289D01*
X181548615Y-163197445D01*
X181281400Y-163396563D01*
X181100332Y-163669857D01*
X181030051Y-163989538D01*
X180627899Y-163989538D01*
X180673968Y-163683685D01*
X180803070Y-163343704D01*
X180913518Y-163129629D01*
X180951856Y-163003130D01*
X180916965Y-162984573D01*
X180817392Y-163082548D01*
X180676446Y-163188793D01*
X180598762Y-163208651D01*
X180495390Y-163261069D01*
X180484788Y-163299021D01*
X180437436Y-163422352D01*
X180323135Y-163594877D01*
X180319316Y-163599756D01*
X180199439Y-163824691D01*
X180153843Y-164042288D01*
X180127161Y-164229163D01*
X180071107Y-164325589D01*
X180010740Y-164440395D01*
X179990219Y-164630645D01*
X179306504Y-164630645D01*
X179284524Y-164439198D01*
X179264570Y-164067366D01*
X179255590Y-163632422D01*
X179255699Y-163591667D01*
X179662195Y-163591667D01*
X179665670Y-163916854D01*
X179680593Y-164156713D01*
X179708226Y-164276738D01*
X179719361Y-164284221D01*
X179781256Y-164210603D01*
X179839387Y-164024625D01*
X179858928Y-163918674D01*
X179918384Y-163672092D01*
X180002096Y-163489955D01*
X180033794Y-163453494D01*
X180135508Y-163335365D01*
X180153843Y-163282202D01*
X180210866Y-163152628D01*
X180340445Y-163001186D01*
X180480350Y-162894018D01*
X180534413Y-162877707D01*
X180664193Y-162820208D01*
X180727629Y-162760070D01*
X180868834Y-162670728D01*
X181094853Y-162598325D01*
X181151007Y-162587399D01*
X181369342Y-162534899D01*
X181508019Y-162472658D01*
X181523439Y-162456827D01*
X181627389Y-162414703D01*
X181837914Y-162390034D01*
X182097190Y-162383019D01*
X182347392Y-162393857D01*
X182530695Y-162422747D01*
X182587844Y-162453158D01*
X182691254Y-162510943D01*
X182893289Y-162565506D01*
X182958106Y-162577132D01*
X183209667Y-162640639D01*
X183464169Y-162740591D01*
X183672523Y-162853255D01*
X183785644Y-162954897D01*
X183793711Y-162981127D01*
X183859665Y-163039352D01*
X183894166Y-163043179D01*
X184015618Y-163100881D01*
X184193671Y-163244405D01*
X184383491Y-163429373D01*
X184540250Y-163611409D01*
X184619114Y-163746138D01*
X184621596Y-163763227D01*
X184669035Y-163862134D01*
X184698977Y-163870540D01*
X184774569Y-163940497D01*
X184863163Y-164113399D01*
X184881070Y-164160117D01*
X184964062Y-164348088D01*
X185036532Y-164445791D01*
X185048148Y-164449694D01*
X185102792Y-164521908D01*
X185156820Y-164699646D01*
X185164840Y-164739270D01*
X185219009Y-164930172D01*
X185282189Y-165026159D01*
X185292693Y-165028847D01*
X185344331Y-165100780D01*
X185366216Y-165274083D01*
X185366221Y-165277055D01*
X185381749Y-165476030D01*
X185420450Y-165529954D01*
X185470498Y-165455504D01*
X185473954Y-165442527D01*
X187062312Y-165442527D01*
X187068872Y-165518767D01*
X187098798Y-165525264D01*
X187183050Y-165465204D01*
X187186417Y-165442527D01*
X187158188Y-165361942D01*
X187149931Y-165359791D01*
X187079294Y-165417767D01*
X187062312Y-165442527D01*
X185473954Y-165442527D01*
X185520069Y-165269359D01*
X185555414Y-165010215D01*
X185592925Y-164737124D01*
X185639481Y-164557072D01*
X186306040Y-164557072D01*
X186311178Y-164863014D01*
X186400635Y-165104612D01*
X186422490Y-165132267D01*
X186611583Y-165238765D01*
X186886403Y-165273733D01*
X187182145Y-165234353D01*
X187345535Y-165172415D01*
X187543287Y-165010367D01*
X187720896Y-164767931D01*
X187829349Y-164517835D01*
X187842259Y-164435357D01*
X187795678Y-164286365D01*
X187672600Y-164090487D01*
X187634111Y-164042361D01*
X187366692Y-163838869D01*
X187053544Y-163773760D01*
X186741217Y-163848488D01*
X186525347Y-164007690D01*
X186379377Y-164250670D01*
X186306040Y-164557072D01*
X185639481Y-164557072D01*
X185644060Y-164539363D01*
X185691010Y-164465535D01*
X185776455Y-164379664D01*
X185779902Y-164356712D01*
X185830021Y-164232919D01*
X185958404Y-164033208D01*
X186132093Y-163804181D01*
X186318127Y-163592437D01*
X186326739Y-163583571D01*
X186486316Y-163459095D01*
X186743200Y-163298521D01*
X187044320Y-163134800D01*
X187071364Y-163121242D01*
X187351674Y-162987705D01*
X187576823Y-162904550D01*
X187803303Y-162860263D01*
X188087604Y-162843330D01*
X188441470Y-162841972D01*
X188877192Y-162855718D01*
X189188822Y-162890063D01*
X189356911Y-162942766D01*
X189364206Y-162948227D01*
X189473504Y-163006613D01*
X189519313Y-162952960D01*
X189602508Y-162914266D01*
X189770892Y-162978293D01*
X189999690Y-163124111D01*
X190264129Y-163330791D01*
X190539435Y-163577402D01*
X190800835Y-163843016D01*
X191023555Y-164106702D01*
X191182822Y-164347530D01*
X191192988Y-164366957D01*
X191277694Y-164604964D01*
X191348514Y-164930640D01*
X191384424Y-165215003D01*
X191416026Y-165494614D01*
X191457152Y-165694944D01*
X191499008Y-165773437D01*
X191499814Y-165773472D01*
X191563401Y-165706298D01*
X191571433Y-165649368D01*
X191623375Y-165539385D01*
X191667959Y-165525264D01*
X191723588Y-165492053D01*
X191710044Y-165470824D01*
X191706030Y-165370584D01*
X191739846Y-165314879D01*
X191790419Y-165184270D01*
X191839964Y-164942540D01*
X191875446Y-164663396D01*
X191911363Y-164378025D01*
X191955597Y-164164147D01*
X191997327Y-164069833D01*
X192038873Y-163966224D01*
X192061567Y-163758802D01*
X192065441Y-163508146D01*
X192050531Y-163274834D01*
X192016869Y-163119444D01*
X191996778Y-163091756D01*
X191949145Y-162991621D01*
X191900189Y-162778755D01*
X191870436Y-162577559D01*
X191814838Y-162252153D01*
X191734209Y-161942835D01*
X191685730Y-161809923D01*
X191483965Y-161357657D01*
X191333848Y-161048236D01*
X191229016Y-160869531D01*
X191163108Y-160809414D01*
X191160917Y-160809303D01*
X191093823Y-160738884D01*
X191036901Y-160585968D01*
X190934623Y-160367770D01*
X190779723Y-160176238D01*
X190641507Y-160027181D01*
X190578920Y-159918285D01*
X190578599Y-159913674D01*
X190520674Y-159822733D01*
X190366861Y-159652572D01*
X190147104Y-159431429D01*
X189891348Y-159187544D01*
X189629536Y-158949154D01*
X189391611Y-158744500D01*
X189207519Y-158601820D01*
X189147022Y-158563613D01*
X188510078Y-158228170D01*
X188002824Y-157977490D01*
X187615583Y-157807130D01*
X187338678Y-157712645D01*
X187256112Y-157695015D01*
X187039786Y-157645299D01*
X186904089Y-157586059D01*
X186890124Y-157571725D01*
X186784317Y-157521343D01*
X186589825Y-157498662D01*
X186581697Y-157498589D01*
X186365322Y-157479160D01*
X186219465Y-157434867D01*
X186096576Y-157413600D01*
X185849346Y-157408357D01*
X185517867Y-157416641D01*
X185142229Y-157435955D01*
X184762526Y-157463802D01*
X184418848Y-157497684D01*
X184151287Y-157535106D01*
X184001075Y-157573032D01*
X183824469Y-157637939D01*
X183563291Y-157715660D01*
X183421922Y-157752645D01*
X183122309Y-157851049D01*
X182847688Y-157979900D01*
X182760032Y-158035300D01*
X182553736Y-158171211D01*
X182380682Y-158263290D01*
X182367036Y-158268660D01*
X182245006Y-158353184D01*
X182222247Y-158407357D01*
X182156015Y-158484725D01*
X182107926Y-158492690D01*
X181992758Y-158552803D01*
X181800381Y-158714479D01*
X181556525Y-158949720D01*
X181286916Y-159230533D01*
X181017282Y-159528920D01*
X180773352Y-159816886D01*
X180580853Y-160066435D01*
X180465513Y-160249572D01*
X180446006Y-160301112D01*
X180371369Y-160490865D01*
X180272892Y-160592954D01*
X180166121Y-160699467D01*
X180153843Y-160755881D01*
X180117445Y-160908562D01*
X180030249Y-161110106D01*
X179941301Y-161332278D01*
X179906145Y-161516697D01*
X179862170Y-161702836D01*
X179811009Y-161780932D01*
X179772325Y-161893482D01*
X179737509Y-162127735D01*
X179707825Y-162449185D01*
X179684536Y-162823327D01*
X179668905Y-163215656D01*
X179662195Y-163591667D01*
X179255699Y-163591667D01*
X179256837Y-163167188D01*
X179267563Y-162704488D01*
X179287020Y-162277145D01*
X179314461Y-161917981D01*
X179349137Y-161659819D01*
X179388589Y-161537416D01*
X179473758Y-161396805D01*
X179488534Y-161347088D01*
X179547824Y-161097913D01*
X179660000Y-160786043D01*
X179805402Y-160452224D01*
X179964366Y-160137203D01*
X180117231Y-159881726D01*
X180244334Y-159726540D01*
X180282293Y-159702146D01*
X180389433Y-159601166D01*
X180402052Y-159548232D01*
X180458857Y-159445644D01*
X180609280Y-159263013D01*
X180823327Y-159030305D01*
X181071007Y-158777488D01*
X181322327Y-158534527D01*
X181547297Y-158331390D01*
X181715925Y-158198042D01*
X181789713Y-158161746D01*
X181884545Y-158111507D01*
X181891303Y-158083524D01*
X181956070Y-157990011D01*
X182087729Y-157897368D01*
X182525315Y-157663811D01*
X182854382Y-157505755D01*
X183105719Y-157409400D01*
X183269169Y-157367907D01*
X183454967Y-157315465D01*
X183544560Y-157255623D01*
X183546026Y-157248394D01*
X183620856Y-157204044D01*
X183814685Y-157158585D01*
X184021759Y-157129444D01*
X184309009Y-157087812D01*
X184543908Y-157035126D01*
X184641157Y-156999387D01*
X184785445Y-156963131D01*
X185035607Y-156938218D01*
X185346921Y-156924831D01*
X185674664Y-156923154D01*
X185974113Y-156933369D01*
G37*
M02*
