G04 #@! TF.GenerationSoftware,KiCad,Pcbnew,8.0.0*
G04 #@! TF.CreationDate,2024-12-17T17:36:14-08:00*
G04 #@! TF.ProjectId,Hampter3.1,48616d70-7465-4723-932e-312e6b696361,rev?*
G04 #@! TF.SameCoordinates,Original*
G04 #@! TF.FileFunction,Soldermask,Bot*
G04 #@! TF.FilePolarity,Negative*
%FSLAX46Y46*%
G04 Gerber Fmt 4.6, Leading zero omitted, Abs format (unit mm)*
G04 Created by KiCad (PCBNEW 8.0.0) date 2024-12-17 17:36:14*
%MOMM*%
%LPD*%
G01*
G04 APERTURE LIST*
G04 Aperture macros list*
%AMRoundRect*
0 Rectangle with rounded corners*
0 $1 Rounding radius*
0 $2 $3 $4 $5 $6 $7 $8 $9 X,Y pos of 4 corners*
0 Add a 4 corners polygon primitive as box body*
4,1,4,$2,$3,$4,$5,$6,$7,$8,$9,$2,$3,0*
0 Add four circle primitives for the rounded corners*
1,1,$1+$1,$2,$3*
1,1,$1+$1,$4,$5*
1,1,$1+$1,$6,$7*
1,1,$1+$1,$8,$9*
0 Add four rect primitives between the rounded corners*
20,1,$1+$1,$2,$3,$4,$5,0*
20,1,$1+$1,$4,$5,$6,$7,0*
20,1,$1+$1,$6,$7,$8,$9,0*
20,1,$1+$1,$8,$9,$2,$3,0*%
%AMRotRect*
0 Rectangle, with rotation*
0 The origin of the aperture is its center*
0 $1 length*
0 $2 width*
0 $3 Rotation angle, in degrees counterclockwise*
0 Add horizontal line*
21,1,$1,$2,0,0,$3*%
G04 Aperture macros list end*
%ADD10C,0.100000*%
%ADD11C,0.150000*%
%ADD12C,0.300000*%
%ADD13C,0.400000*%
%ADD14C,1.750000*%
%ADD15C,3.987800*%
%ADD16C,2.300000*%
%ADD17C,3.048000*%
%ADD18R,2.000000X2.000000*%
%ADD19C,2.000000*%
%ADD20R,3.200000X2.000000*%
%ADD21RoundRect,0.225000X0.375000X-0.225000X0.375000X0.225000X-0.375000X0.225000X-0.375000X-0.225000X0*%
%ADD22RoundRect,0.225000X-0.225000X-0.375000X0.225000X-0.375000X0.225000X0.375000X-0.225000X0.375000X0*%
%ADD23RoundRect,0.250000X-0.262500X-0.450000X0.262500X-0.450000X0.262500X0.450000X-0.262500X0.450000X0*%
%ADD24RoundRect,0.250000X-0.503814X-0.132583X-0.132583X-0.503814X0.503814X0.132583X0.132583X0.503814X0*%
%ADD25RoundRect,0.250000X0.262500X0.450000X-0.262500X0.450000X-0.262500X-0.450000X0.262500X-0.450000X0*%
%ADD26RoundRect,0.225000X0.225000X0.375000X-0.225000X0.375000X-0.225000X-0.375000X0.225000X-0.375000X0*%
%ADD27RoundRect,0.250000X-0.450000X0.262500X-0.450000X-0.262500X0.450000X-0.262500X0.450000X0.262500X0*%
%ADD28RotRect,1.500000X0.550000X315.000000*%
%ADD29RotRect,1.500000X0.550000X225.000000*%
%ADD30C,0.650000*%
%ADD31R,0.600000X1.450000*%
%ADD32R,0.300000X1.450000*%
%ADD33O,1.000000X1.600000*%
%ADD34O,1.000000X2.100000*%
%ADD35RoundRect,0.225000X-0.375000X0.225000X-0.375000X-0.225000X0.375000X-0.225000X0.375000X0.225000X0*%
%ADD36RoundRect,0.250000X0.132583X-0.503814X0.503814X-0.132583X-0.132583X0.503814X-0.503814X0.132583X0*%
%ADD37R,1.400000X1.200000*%
%ADD38RoundRect,0.175000X-0.325000X0.175000X-0.325000X-0.175000X0.325000X-0.175000X0.325000X0.175000X0*%
%ADD39RoundRect,0.150000X-0.150000X0.200000X-0.150000X-0.200000X0.150000X-0.200000X0.150000X0.200000X0*%
%ADD40RoundRect,0.250001X-0.462499X-0.624999X0.462499X-0.624999X0.462499X0.624999X-0.462499X0.624999X0*%
%ADD41R,1.800000X1.100000*%
%ADD42RoundRect,0.250000X0.450000X-0.262500X0.450000X0.262500X-0.450000X0.262500X-0.450000X-0.262500X0*%
G04 APERTURE END LIST*
D10*
D11*
X474004400Y-375989000D02*
X582004400Y-375989000D01*
X582004400Y-407989000D01*
X474004400Y-407989000D01*
X474004400Y-375989000D01*
D10*
D11*
X10000000Y-10000000D02*
X584004400Y-10000000D01*
X584004400Y-409989000D01*
X10000000Y-409989000D01*
X10000000Y-10000000D01*
D10*
D11*
X12000000Y-12000000D02*
X582004400Y-12000000D01*
X582004400Y-407989000D01*
X12000000Y-407989000D01*
X12000000Y-12000000D01*
D10*
D11*
X60000000Y-12000000D02*
X60000000Y-10000000D01*
D10*
D11*
X110000000Y-12000000D02*
X110000000Y-10000000D01*
D10*
D11*
X160000000Y-12000000D02*
X160000000Y-10000000D01*
D10*
D11*
X210000000Y-12000000D02*
X210000000Y-10000000D01*
D10*
D11*
X260000000Y-12000000D02*
X260000000Y-10000000D01*
D10*
D11*
X310000000Y-12000000D02*
X310000000Y-10000000D01*
D10*
D11*
X360000000Y-12000000D02*
X360000000Y-10000000D01*
D10*
D11*
X410000000Y-12000000D02*
X410000000Y-10000000D01*
D10*
D11*
X460000000Y-12000000D02*
X460000000Y-10000000D01*
D10*
D11*
X510000000Y-12000000D02*
X510000000Y-10000000D01*
D10*
D11*
X560000000Y-12000000D02*
X560000000Y-10000000D01*
D10*
D11*
X36089160Y-11593604D02*
X35346303Y-11593604D01*
X35717731Y-11593604D02*
X35717731Y-10293604D01*
X35717731Y-10293604D02*
X35593922Y-10479319D01*
X35593922Y-10479319D02*
X35470112Y-10603128D01*
X35470112Y-10603128D02*
X35346303Y-10665033D01*
D10*
D11*
X85346303Y-10417414D02*
X85408207Y-10355509D01*
X85408207Y-10355509D02*
X85532017Y-10293604D01*
X85532017Y-10293604D02*
X85841541Y-10293604D01*
X85841541Y-10293604D02*
X85965350Y-10355509D01*
X85965350Y-10355509D02*
X86027255Y-10417414D01*
X86027255Y-10417414D02*
X86089160Y-10541223D01*
X86089160Y-10541223D02*
X86089160Y-10665033D01*
X86089160Y-10665033D02*
X86027255Y-10850747D01*
X86027255Y-10850747D02*
X85284398Y-11593604D01*
X85284398Y-11593604D02*
X86089160Y-11593604D01*
D10*
D11*
X135284398Y-10293604D02*
X136089160Y-10293604D01*
X136089160Y-10293604D02*
X135655826Y-10788842D01*
X135655826Y-10788842D02*
X135841541Y-10788842D01*
X135841541Y-10788842D02*
X135965350Y-10850747D01*
X135965350Y-10850747D02*
X136027255Y-10912652D01*
X136027255Y-10912652D02*
X136089160Y-11036461D01*
X136089160Y-11036461D02*
X136089160Y-11345985D01*
X136089160Y-11345985D02*
X136027255Y-11469795D01*
X136027255Y-11469795D02*
X135965350Y-11531700D01*
X135965350Y-11531700D02*
X135841541Y-11593604D01*
X135841541Y-11593604D02*
X135470112Y-11593604D01*
X135470112Y-11593604D02*
X135346303Y-11531700D01*
X135346303Y-11531700D02*
X135284398Y-11469795D01*
D10*
D11*
X185965350Y-10726938D02*
X185965350Y-11593604D01*
X185655826Y-10231700D02*
X185346303Y-11160271D01*
X185346303Y-11160271D02*
X186151064Y-11160271D01*
D10*
D11*
X236027255Y-10293604D02*
X235408207Y-10293604D01*
X235408207Y-10293604D02*
X235346303Y-10912652D01*
X235346303Y-10912652D02*
X235408207Y-10850747D01*
X235408207Y-10850747D02*
X235532017Y-10788842D01*
X235532017Y-10788842D02*
X235841541Y-10788842D01*
X235841541Y-10788842D02*
X235965350Y-10850747D01*
X235965350Y-10850747D02*
X236027255Y-10912652D01*
X236027255Y-10912652D02*
X236089160Y-11036461D01*
X236089160Y-11036461D02*
X236089160Y-11345985D01*
X236089160Y-11345985D02*
X236027255Y-11469795D01*
X236027255Y-11469795D02*
X235965350Y-11531700D01*
X235965350Y-11531700D02*
X235841541Y-11593604D01*
X235841541Y-11593604D02*
X235532017Y-11593604D01*
X235532017Y-11593604D02*
X235408207Y-11531700D01*
X235408207Y-11531700D02*
X235346303Y-11469795D01*
D10*
D11*
X285965350Y-10293604D02*
X285717731Y-10293604D01*
X285717731Y-10293604D02*
X285593922Y-10355509D01*
X285593922Y-10355509D02*
X285532017Y-10417414D01*
X285532017Y-10417414D02*
X285408207Y-10603128D01*
X285408207Y-10603128D02*
X285346303Y-10850747D01*
X285346303Y-10850747D02*
X285346303Y-11345985D01*
X285346303Y-11345985D02*
X285408207Y-11469795D01*
X285408207Y-11469795D02*
X285470112Y-11531700D01*
X285470112Y-11531700D02*
X285593922Y-11593604D01*
X285593922Y-11593604D02*
X285841541Y-11593604D01*
X285841541Y-11593604D02*
X285965350Y-11531700D01*
X285965350Y-11531700D02*
X286027255Y-11469795D01*
X286027255Y-11469795D02*
X286089160Y-11345985D01*
X286089160Y-11345985D02*
X286089160Y-11036461D01*
X286089160Y-11036461D02*
X286027255Y-10912652D01*
X286027255Y-10912652D02*
X285965350Y-10850747D01*
X285965350Y-10850747D02*
X285841541Y-10788842D01*
X285841541Y-10788842D02*
X285593922Y-10788842D01*
X285593922Y-10788842D02*
X285470112Y-10850747D01*
X285470112Y-10850747D02*
X285408207Y-10912652D01*
X285408207Y-10912652D02*
X285346303Y-11036461D01*
D10*
D11*
X335284398Y-10293604D02*
X336151064Y-10293604D01*
X336151064Y-10293604D02*
X335593922Y-11593604D01*
D10*
D11*
X385593922Y-10850747D02*
X385470112Y-10788842D01*
X385470112Y-10788842D02*
X385408207Y-10726938D01*
X385408207Y-10726938D02*
X385346303Y-10603128D01*
X385346303Y-10603128D02*
X385346303Y-10541223D01*
X385346303Y-10541223D02*
X385408207Y-10417414D01*
X385408207Y-10417414D02*
X385470112Y-10355509D01*
X385470112Y-10355509D02*
X385593922Y-10293604D01*
X385593922Y-10293604D02*
X385841541Y-10293604D01*
X385841541Y-10293604D02*
X385965350Y-10355509D01*
X385965350Y-10355509D02*
X386027255Y-10417414D01*
X386027255Y-10417414D02*
X386089160Y-10541223D01*
X386089160Y-10541223D02*
X386089160Y-10603128D01*
X386089160Y-10603128D02*
X386027255Y-10726938D01*
X386027255Y-10726938D02*
X385965350Y-10788842D01*
X385965350Y-10788842D02*
X385841541Y-10850747D01*
X385841541Y-10850747D02*
X385593922Y-10850747D01*
X385593922Y-10850747D02*
X385470112Y-10912652D01*
X385470112Y-10912652D02*
X385408207Y-10974557D01*
X385408207Y-10974557D02*
X385346303Y-11098366D01*
X385346303Y-11098366D02*
X385346303Y-11345985D01*
X385346303Y-11345985D02*
X385408207Y-11469795D01*
X385408207Y-11469795D02*
X385470112Y-11531700D01*
X385470112Y-11531700D02*
X385593922Y-11593604D01*
X385593922Y-11593604D02*
X385841541Y-11593604D01*
X385841541Y-11593604D02*
X385965350Y-11531700D01*
X385965350Y-11531700D02*
X386027255Y-11469795D01*
X386027255Y-11469795D02*
X386089160Y-11345985D01*
X386089160Y-11345985D02*
X386089160Y-11098366D01*
X386089160Y-11098366D02*
X386027255Y-10974557D01*
X386027255Y-10974557D02*
X385965350Y-10912652D01*
X385965350Y-10912652D02*
X385841541Y-10850747D01*
D10*
D11*
X435470112Y-11593604D02*
X435717731Y-11593604D01*
X435717731Y-11593604D02*
X435841541Y-11531700D01*
X435841541Y-11531700D02*
X435903445Y-11469795D01*
X435903445Y-11469795D02*
X436027255Y-11284080D01*
X436027255Y-11284080D02*
X436089160Y-11036461D01*
X436089160Y-11036461D02*
X436089160Y-10541223D01*
X436089160Y-10541223D02*
X436027255Y-10417414D01*
X436027255Y-10417414D02*
X435965350Y-10355509D01*
X435965350Y-10355509D02*
X435841541Y-10293604D01*
X435841541Y-10293604D02*
X435593922Y-10293604D01*
X435593922Y-10293604D02*
X435470112Y-10355509D01*
X435470112Y-10355509D02*
X435408207Y-10417414D01*
X435408207Y-10417414D02*
X435346303Y-10541223D01*
X435346303Y-10541223D02*
X435346303Y-10850747D01*
X435346303Y-10850747D02*
X435408207Y-10974557D01*
X435408207Y-10974557D02*
X435470112Y-11036461D01*
X435470112Y-11036461D02*
X435593922Y-11098366D01*
X435593922Y-11098366D02*
X435841541Y-11098366D01*
X435841541Y-11098366D02*
X435965350Y-11036461D01*
X435965350Y-11036461D02*
X436027255Y-10974557D01*
X436027255Y-10974557D02*
X436089160Y-10850747D01*
D10*
D11*
X486089160Y-11593604D02*
X485346303Y-11593604D01*
X485717731Y-11593604D02*
X485717731Y-10293604D01*
X485717731Y-10293604D02*
X485593922Y-10479319D01*
X485593922Y-10479319D02*
X485470112Y-10603128D01*
X485470112Y-10603128D02*
X485346303Y-10665033D01*
X486893921Y-10293604D02*
X487017731Y-10293604D01*
X487017731Y-10293604D02*
X487141540Y-10355509D01*
X487141540Y-10355509D02*
X487203445Y-10417414D01*
X487203445Y-10417414D02*
X487265350Y-10541223D01*
X487265350Y-10541223D02*
X487327255Y-10788842D01*
X487327255Y-10788842D02*
X487327255Y-11098366D01*
X487327255Y-11098366D02*
X487265350Y-11345985D01*
X487265350Y-11345985D02*
X487203445Y-11469795D01*
X487203445Y-11469795D02*
X487141540Y-11531700D01*
X487141540Y-11531700D02*
X487017731Y-11593604D01*
X487017731Y-11593604D02*
X486893921Y-11593604D01*
X486893921Y-11593604D02*
X486770112Y-11531700D01*
X486770112Y-11531700D02*
X486708207Y-11469795D01*
X486708207Y-11469795D02*
X486646302Y-11345985D01*
X486646302Y-11345985D02*
X486584398Y-11098366D01*
X486584398Y-11098366D02*
X486584398Y-10788842D01*
X486584398Y-10788842D02*
X486646302Y-10541223D01*
X486646302Y-10541223D02*
X486708207Y-10417414D01*
X486708207Y-10417414D02*
X486770112Y-10355509D01*
X486770112Y-10355509D02*
X486893921Y-10293604D01*
D10*
D11*
X536089160Y-11593604D02*
X535346303Y-11593604D01*
X535717731Y-11593604D02*
X535717731Y-10293604D01*
X535717731Y-10293604D02*
X535593922Y-10479319D01*
X535593922Y-10479319D02*
X535470112Y-10603128D01*
X535470112Y-10603128D02*
X535346303Y-10665033D01*
X537327255Y-11593604D02*
X536584398Y-11593604D01*
X536955826Y-11593604D02*
X536955826Y-10293604D01*
X536955826Y-10293604D02*
X536832017Y-10479319D01*
X536832017Y-10479319D02*
X536708207Y-10603128D01*
X536708207Y-10603128D02*
X536584398Y-10665033D01*
D10*
D11*
X60000000Y-407989000D02*
X60000000Y-409989000D01*
D10*
D11*
X110000000Y-407989000D02*
X110000000Y-409989000D01*
D10*
D11*
X160000000Y-407989000D02*
X160000000Y-409989000D01*
D10*
D11*
X210000000Y-407989000D02*
X210000000Y-409989000D01*
D10*
D11*
X260000000Y-407989000D02*
X260000000Y-409989000D01*
D10*
D11*
X310000000Y-407989000D02*
X310000000Y-409989000D01*
D10*
D11*
X360000000Y-407989000D02*
X360000000Y-409989000D01*
D10*
D11*
X410000000Y-407989000D02*
X410000000Y-409989000D01*
D10*
D11*
X460000000Y-407989000D02*
X460000000Y-409989000D01*
D10*
D11*
X510000000Y-407989000D02*
X510000000Y-409989000D01*
D10*
D11*
X560000000Y-407989000D02*
X560000000Y-409989000D01*
D10*
D11*
X36089160Y-409582604D02*
X35346303Y-409582604D01*
X35717731Y-409582604D02*
X35717731Y-408282604D01*
X35717731Y-408282604D02*
X35593922Y-408468319D01*
X35593922Y-408468319D02*
X35470112Y-408592128D01*
X35470112Y-408592128D02*
X35346303Y-408654033D01*
D10*
D11*
X85346303Y-408406414D02*
X85408207Y-408344509D01*
X85408207Y-408344509D02*
X85532017Y-408282604D01*
X85532017Y-408282604D02*
X85841541Y-408282604D01*
X85841541Y-408282604D02*
X85965350Y-408344509D01*
X85965350Y-408344509D02*
X86027255Y-408406414D01*
X86027255Y-408406414D02*
X86089160Y-408530223D01*
X86089160Y-408530223D02*
X86089160Y-408654033D01*
X86089160Y-408654033D02*
X86027255Y-408839747D01*
X86027255Y-408839747D02*
X85284398Y-409582604D01*
X85284398Y-409582604D02*
X86089160Y-409582604D01*
D10*
D11*
X135284398Y-408282604D02*
X136089160Y-408282604D01*
X136089160Y-408282604D02*
X135655826Y-408777842D01*
X135655826Y-408777842D02*
X135841541Y-408777842D01*
X135841541Y-408777842D02*
X135965350Y-408839747D01*
X135965350Y-408839747D02*
X136027255Y-408901652D01*
X136027255Y-408901652D02*
X136089160Y-409025461D01*
X136089160Y-409025461D02*
X136089160Y-409334985D01*
X136089160Y-409334985D02*
X136027255Y-409458795D01*
X136027255Y-409458795D02*
X135965350Y-409520700D01*
X135965350Y-409520700D02*
X135841541Y-409582604D01*
X135841541Y-409582604D02*
X135470112Y-409582604D01*
X135470112Y-409582604D02*
X135346303Y-409520700D01*
X135346303Y-409520700D02*
X135284398Y-409458795D01*
D10*
D11*
X185965350Y-408715938D02*
X185965350Y-409582604D01*
X185655826Y-408220700D02*
X185346303Y-409149271D01*
X185346303Y-409149271D02*
X186151064Y-409149271D01*
D10*
D11*
X236027255Y-408282604D02*
X235408207Y-408282604D01*
X235408207Y-408282604D02*
X235346303Y-408901652D01*
X235346303Y-408901652D02*
X235408207Y-408839747D01*
X235408207Y-408839747D02*
X235532017Y-408777842D01*
X235532017Y-408777842D02*
X235841541Y-408777842D01*
X235841541Y-408777842D02*
X235965350Y-408839747D01*
X235965350Y-408839747D02*
X236027255Y-408901652D01*
X236027255Y-408901652D02*
X236089160Y-409025461D01*
X236089160Y-409025461D02*
X236089160Y-409334985D01*
X236089160Y-409334985D02*
X236027255Y-409458795D01*
X236027255Y-409458795D02*
X235965350Y-409520700D01*
X235965350Y-409520700D02*
X235841541Y-409582604D01*
X235841541Y-409582604D02*
X235532017Y-409582604D01*
X235532017Y-409582604D02*
X235408207Y-409520700D01*
X235408207Y-409520700D02*
X235346303Y-409458795D01*
D10*
D11*
X285965350Y-408282604D02*
X285717731Y-408282604D01*
X285717731Y-408282604D02*
X285593922Y-408344509D01*
X285593922Y-408344509D02*
X285532017Y-408406414D01*
X285532017Y-408406414D02*
X285408207Y-408592128D01*
X285408207Y-408592128D02*
X285346303Y-408839747D01*
X285346303Y-408839747D02*
X285346303Y-409334985D01*
X285346303Y-409334985D02*
X285408207Y-409458795D01*
X285408207Y-409458795D02*
X285470112Y-409520700D01*
X285470112Y-409520700D02*
X285593922Y-409582604D01*
X285593922Y-409582604D02*
X285841541Y-409582604D01*
X285841541Y-409582604D02*
X285965350Y-409520700D01*
X285965350Y-409520700D02*
X286027255Y-409458795D01*
X286027255Y-409458795D02*
X286089160Y-409334985D01*
X286089160Y-409334985D02*
X286089160Y-409025461D01*
X286089160Y-409025461D02*
X286027255Y-408901652D01*
X286027255Y-408901652D02*
X285965350Y-408839747D01*
X285965350Y-408839747D02*
X285841541Y-408777842D01*
X285841541Y-408777842D02*
X285593922Y-408777842D01*
X285593922Y-408777842D02*
X285470112Y-408839747D01*
X285470112Y-408839747D02*
X285408207Y-408901652D01*
X285408207Y-408901652D02*
X285346303Y-409025461D01*
D10*
D11*
X335284398Y-408282604D02*
X336151064Y-408282604D01*
X336151064Y-408282604D02*
X335593922Y-409582604D01*
D10*
D11*
X385593922Y-408839747D02*
X385470112Y-408777842D01*
X385470112Y-408777842D02*
X385408207Y-408715938D01*
X385408207Y-408715938D02*
X385346303Y-408592128D01*
X385346303Y-408592128D02*
X385346303Y-408530223D01*
X385346303Y-408530223D02*
X385408207Y-408406414D01*
X385408207Y-408406414D02*
X385470112Y-408344509D01*
X385470112Y-408344509D02*
X385593922Y-408282604D01*
X385593922Y-408282604D02*
X385841541Y-408282604D01*
X385841541Y-408282604D02*
X385965350Y-408344509D01*
X385965350Y-408344509D02*
X386027255Y-408406414D01*
X386027255Y-408406414D02*
X386089160Y-408530223D01*
X386089160Y-408530223D02*
X386089160Y-408592128D01*
X386089160Y-408592128D02*
X386027255Y-408715938D01*
X386027255Y-408715938D02*
X385965350Y-408777842D01*
X385965350Y-408777842D02*
X385841541Y-408839747D01*
X385841541Y-408839747D02*
X385593922Y-408839747D01*
X385593922Y-408839747D02*
X385470112Y-408901652D01*
X385470112Y-408901652D02*
X385408207Y-408963557D01*
X385408207Y-408963557D02*
X385346303Y-409087366D01*
X385346303Y-409087366D02*
X385346303Y-409334985D01*
X385346303Y-409334985D02*
X385408207Y-409458795D01*
X385408207Y-409458795D02*
X385470112Y-409520700D01*
X385470112Y-409520700D02*
X385593922Y-409582604D01*
X385593922Y-409582604D02*
X385841541Y-409582604D01*
X385841541Y-409582604D02*
X385965350Y-409520700D01*
X385965350Y-409520700D02*
X386027255Y-409458795D01*
X386027255Y-409458795D02*
X386089160Y-409334985D01*
X386089160Y-409334985D02*
X386089160Y-409087366D01*
X386089160Y-409087366D02*
X386027255Y-408963557D01*
X386027255Y-408963557D02*
X385965350Y-408901652D01*
X385965350Y-408901652D02*
X385841541Y-408839747D01*
D10*
D11*
X435470112Y-409582604D02*
X435717731Y-409582604D01*
X435717731Y-409582604D02*
X435841541Y-409520700D01*
X435841541Y-409520700D02*
X435903445Y-409458795D01*
X435903445Y-409458795D02*
X436027255Y-409273080D01*
X436027255Y-409273080D02*
X436089160Y-409025461D01*
X436089160Y-409025461D02*
X436089160Y-408530223D01*
X436089160Y-408530223D02*
X436027255Y-408406414D01*
X436027255Y-408406414D02*
X435965350Y-408344509D01*
X435965350Y-408344509D02*
X435841541Y-408282604D01*
X435841541Y-408282604D02*
X435593922Y-408282604D01*
X435593922Y-408282604D02*
X435470112Y-408344509D01*
X435470112Y-408344509D02*
X435408207Y-408406414D01*
X435408207Y-408406414D02*
X435346303Y-408530223D01*
X435346303Y-408530223D02*
X435346303Y-408839747D01*
X435346303Y-408839747D02*
X435408207Y-408963557D01*
X435408207Y-408963557D02*
X435470112Y-409025461D01*
X435470112Y-409025461D02*
X435593922Y-409087366D01*
X435593922Y-409087366D02*
X435841541Y-409087366D01*
X435841541Y-409087366D02*
X435965350Y-409025461D01*
X435965350Y-409025461D02*
X436027255Y-408963557D01*
X436027255Y-408963557D02*
X436089160Y-408839747D01*
D10*
D11*
X486089160Y-409582604D02*
X485346303Y-409582604D01*
X485717731Y-409582604D02*
X485717731Y-408282604D01*
X485717731Y-408282604D02*
X485593922Y-408468319D01*
X485593922Y-408468319D02*
X485470112Y-408592128D01*
X485470112Y-408592128D02*
X485346303Y-408654033D01*
X486893921Y-408282604D02*
X487017731Y-408282604D01*
X487017731Y-408282604D02*
X487141540Y-408344509D01*
X487141540Y-408344509D02*
X487203445Y-408406414D01*
X487203445Y-408406414D02*
X487265350Y-408530223D01*
X487265350Y-408530223D02*
X487327255Y-408777842D01*
X487327255Y-408777842D02*
X487327255Y-409087366D01*
X487327255Y-409087366D02*
X487265350Y-409334985D01*
X487265350Y-409334985D02*
X487203445Y-409458795D01*
X487203445Y-409458795D02*
X487141540Y-409520700D01*
X487141540Y-409520700D02*
X487017731Y-409582604D01*
X487017731Y-409582604D02*
X486893921Y-409582604D01*
X486893921Y-409582604D02*
X486770112Y-409520700D01*
X486770112Y-409520700D02*
X486708207Y-409458795D01*
X486708207Y-409458795D02*
X486646302Y-409334985D01*
X486646302Y-409334985D02*
X486584398Y-409087366D01*
X486584398Y-409087366D02*
X486584398Y-408777842D01*
X486584398Y-408777842D02*
X486646302Y-408530223D01*
X486646302Y-408530223D02*
X486708207Y-408406414D01*
X486708207Y-408406414D02*
X486770112Y-408344509D01*
X486770112Y-408344509D02*
X486893921Y-408282604D01*
D10*
D11*
X536089160Y-409582604D02*
X535346303Y-409582604D01*
X535717731Y-409582604D02*
X535717731Y-408282604D01*
X535717731Y-408282604D02*
X535593922Y-408468319D01*
X535593922Y-408468319D02*
X535470112Y-408592128D01*
X535470112Y-408592128D02*
X535346303Y-408654033D01*
X537327255Y-409582604D02*
X536584398Y-409582604D01*
X536955826Y-409582604D02*
X536955826Y-408282604D01*
X536955826Y-408282604D02*
X536832017Y-408468319D01*
X536832017Y-408468319D02*
X536708207Y-408592128D01*
X536708207Y-408592128D02*
X536584398Y-408654033D01*
D10*
D11*
X10000000Y-60000000D02*
X12000000Y-60000000D01*
D10*
D11*
X10000000Y-110000000D02*
X12000000Y-110000000D01*
D10*
D11*
X10000000Y-160000000D02*
X12000000Y-160000000D01*
D10*
D11*
X10000000Y-210000000D02*
X12000000Y-210000000D01*
D10*
D11*
X10000000Y-260000000D02*
X12000000Y-260000000D01*
D10*
D11*
X10000000Y-310000000D02*
X12000000Y-310000000D01*
D10*
D11*
X10000000Y-360000000D02*
X12000000Y-360000000D01*
D10*
D11*
X10690476Y-35222176D02*
X11309523Y-35222176D01*
X10566666Y-35593604D02*
X10999999Y-34293604D01*
X10999999Y-34293604D02*
X11433333Y-35593604D01*
D10*
D11*
X11092857Y-84912652D02*
X11278571Y-84974557D01*
X11278571Y-84974557D02*
X11340476Y-85036461D01*
X11340476Y-85036461D02*
X11402380Y-85160271D01*
X11402380Y-85160271D02*
X11402380Y-85345985D01*
X11402380Y-85345985D02*
X11340476Y-85469795D01*
X11340476Y-85469795D02*
X11278571Y-85531700D01*
X11278571Y-85531700D02*
X11154761Y-85593604D01*
X11154761Y-85593604D02*
X10659523Y-85593604D01*
X10659523Y-85593604D02*
X10659523Y-84293604D01*
X10659523Y-84293604D02*
X11092857Y-84293604D01*
X11092857Y-84293604D02*
X11216666Y-84355509D01*
X11216666Y-84355509D02*
X11278571Y-84417414D01*
X11278571Y-84417414D02*
X11340476Y-84541223D01*
X11340476Y-84541223D02*
X11340476Y-84665033D01*
X11340476Y-84665033D02*
X11278571Y-84788842D01*
X11278571Y-84788842D02*
X11216666Y-84850747D01*
X11216666Y-84850747D02*
X11092857Y-84912652D01*
X11092857Y-84912652D02*
X10659523Y-84912652D01*
D10*
D11*
X11402380Y-135469795D02*
X11340476Y-135531700D01*
X11340476Y-135531700D02*
X11154761Y-135593604D01*
X11154761Y-135593604D02*
X11030952Y-135593604D01*
X11030952Y-135593604D02*
X10845238Y-135531700D01*
X10845238Y-135531700D02*
X10721428Y-135407890D01*
X10721428Y-135407890D02*
X10659523Y-135284080D01*
X10659523Y-135284080D02*
X10597619Y-135036461D01*
X10597619Y-135036461D02*
X10597619Y-134850747D01*
X10597619Y-134850747D02*
X10659523Y-134603128D01*
X10659523Y-134603128D02*
X10721428Y-134479319D01*
X10721428Y-134479319D02*
X10845238Y-134355509D01*
X10845238Y-134355509D02*
X11030952Y-134293604D01*
X11030952Y-134293604D02*
X11154761Y-134293604D01*
X11154761Y-134293604D02*
X11340476Y-134355509D01*
X11340476Y-134355509D02*
X11402380Y-134417414D01*
D10*
D11*
X10659523Y-185593604D02*
X10659523Y-184293604D01*
X10659523Y-184293604D02*
X10969047Y-184293604D01*
X10969047Y-184293604D02*
X11154761Y-184355509D01*
X11154761Y-184355509D02*
X11278571Y-184479319D01*
X11278571Y-184479319D02*
X11340476Y-184603128D01*
X11340476Y-184603128D02*
X11402380Y-184850747D01*
X11402380Y-184850747D02*
X11402380Y-185036461D01*
X11402380Y-185036461D02*
X11340476Y-185284080D01*
X11340476Y-185284080D02*
X11278571Y-185407890D01*
X11278571Y-185407890D02*
X11154761Y-185531700D01*
X11154761Y-185531700D02*
X10969047Y-185593604D01*
X10969047Y-185593604D02*
X10659523Y-185593604D01*
D10*
D11*
X10721428Y-234912652D02*
X11154762Y-234912652D01*
X11340476Y-235593604D02*
X10721428Y-235593604D01*
X10721428Y-235593604D02*
X10721428Y-234293604D01*
X10721428Y-234293604D02*
X11340476Y-234293604D01*
D10*
D11*
X11185714Y-284912652D02*
X10752380Y-284912652D01*
X10752380Y-285593604D02*
X10752380Y-284293604D01*
X10752380Y-284293604D02*
X11371428Y-284293604D01*
D10*
D11*
X11340476Y-334355509D02*
X11216666Y-334293604D01*
X11216666Y-334293604D02*
X11030952Y-334293604D01*
X11030952Y-334293604D02*
X10845238Y-334355509D01*
X10845238Y-334355509D02*
X10721428Y-334479319D01*
X10721428Y-334479319D02*
X10659523Y-334603128D01*
X10659523Y-334603128D02*
X10597619Y-334850747D01*
X10597619Y-334850747D02*
X10597619Y-335036461D01*
X10597619Y-335036461D02*
X10659523Y-335284080D01*
X10659523Y-335284080D02*
X10721428Y-335407890D01*
X10721428Y-335407890D02*
X10845238Y-335531700D01*
X10845238Y-335531700D02*
X11030952Y-335593604D01*
X11030952Y-335593604D02*
X11154761Y-335593604D01*
X11154761Y-335593604D02*
X11340476Y-335531700D01*
X11340476Y-335531700D02*
X11402380Y-335469795D01*
X11402380Y-335469795D02*
X11402380Y-335036461D01*
X11402380Y-335036461D02*
X11154761Y-335036461D01*
D10*
D11*
X10628571Y-385593604D02*
X10628571Y-384293604D01*
X10628571Y-384912652D02*
X11371428Y-384912652D01*
X11371428Y-385593604D02*
X11371428Y-384293604D01*
D10*
D11*
X584004400Y-60000000D02*
X582004400Y-60000000D01*
D10*
D11*
X584004400Y-110000000D02*
X582004400Y-110000000D01*
D10*
D11*
X584004400Y-160000000D02*
X582004400Y-160000000D01*
D10*
D11*
X584004400Y-210000000D02*
X582004400Y-210000000D01*
D10*
D11*
X584004400Y-260000000D02*
X582004400Y-260000000D01*
D10*
D11*
X584004400Y-310000000D02*
X582004400Y-310000000D01*
D10*
D11*
X584004400Y-360000000D02*
X582004400Y-360000000D01*
D10*
D11*
X582694876Y-35222176D02*
X583313923Y-35222176D01*
X582571066Y-35593604D02*
X583004399Y-34293604D01*
X583004399Y-34293604D02*
X583437733Y-35593604D01*
D10*
D11*
X583097257Y-84912652D02*
X583282971Y-84974557D01*
X583282971Y-84974557D02*
X583344876Y-85036461D01*
X583344876Y-85036461D02*
X583406780Y-85160271D01*
X583406780Y-85160271D02*
X583406780Y-85345985D01*
X583406780Y-85345985D02*
X583344876Y-85469795D01*
X583344876Y-85469795D02*
X583282971Y-85531700D01*
X583282971Y-85531700D02*
X583159161Y-85593604D01*
X583159161Y-85593604D02*
X582663923Y-85593604D01*
X582663923Y-85593604D02*
X582663923Y-84293604D01*
X582663923Y-84293604D02*
X583097257Y-84293604D01*
X583097257Y-84293604D02*
X583221066Y-84355509D01*
X583221066Y-84355509D02*
X583282971Y-84417414D01*
X583282971Y-84417414D02*
X583344876Y-84541223D01*
X583344876Y-84541223D02*
X583344876Y-84665033D01*
X583344876Y-84665033D02*
X583282971Y-84788842D01*
X583282971Y-84788842D02*
X583221066Y-84850747D01*
X583221066Y-84850747D02*
X583097257Y-84912652D01*
X583097257Y-84912652D02*
X582663923Y-84912652D01*
D10*
D11*
X583406780Y-135469795D02*
X583344876Y-135531700D01*
X583344876Y-135531700D02*
X583159161Y-135593604D01*
X583159161Y-135593604D02*
X583035352Y-135593604D01*
X583035352Y-135593604D02*
X582849638Y-135531700D01*
X582849638Y-135531700D02*
X582725828Y-135407890D01*
X582725828Y-135407890D02*
X582663923Y-135284080D01*
X582663923Y-135284080D02*
X582602019Y-135036461D01*
X582602019Y-135036461D02*
X582602019Y-134850747D01*
X582602019Y-134850747D02*
X582663923Y-134603128D01*
X582663923Y-134603128D02*
X582725828Y-134479319D01*
X582725828Y-134479319D02*
X582849638Y-134355509D01*
X582849638Y-134355509D02*
X583035352Y-134293604D01*
X583035352Y-134293604D02*
X583159161Y-134293604D01*
X583159161Y-134293604D02*
X583344876Y-134355509D01*
X583344876Y-134355509D02*
X583406780Y-134417414D01*
D10*
D11*
X582663923Y-185593604D02*
X582663923Y-184293604D01*
X582663923Y-184293604D02*
X582973447Y-184293604D01*
X582973447Y-184293604D02*
X583159161Y-184355509D01*
X583159161Y-184355509D02*
X583282971Y-184479319D01*
X583282971Y-184479319D02*
X583344876Y-184603128D01*
X583344876Y-184603128D02*
X583406780Y-184850747D01*
X583406780Y-184850747D02*
X583406780Y-185036461D01*
X583406780Y-185036461D02*
X583344876Y-185284080D01*
X583344876Y-185284080D02*
X583282971Y-185407890D01*
X583282971Y-185407890D02*
X583159161Y-185531700D01*
X583159161Y-185531700D02*
X582973447Y-185593604D01*
X582973447Y-185593604D02*
X582663923Y-185593604D01*
D10*
D11*
X582725828Y-234912652D02*
X583159162Y-234912652D01*
X583344876Y-235593604D02*
X582725828Y-235593604D01*
X582725828Y-235593604D02*
X582725828Y-234293604D01*
X582725828Y-234293604D02*
X583344876Y-234293604D01*
D10*
D11*
X583190114Y-284912652D02*
X582756780Y-284912652D01*
X582756780Y-285593604D02*
X582756780Y-284293604D01*
X582756780Y-284293604D02*
X583375828Y-284293604D01*
D10*
D11*
X583344876Y-334355509D02*
X583221066Y-334293604D01*
X583221066Y-334293604D02*
X583035352Y-334293604D01*
X583035352Y-334293604D02*
X582849638Y-334355509D01*
X582849638Y-334355509D02*
X582725828Y-334479319D01*
X582725828Y-334479319D02*
X582663923Y-334603128D01*
X582663923Y-334603128D02*
X582602019Y-334850747D01*
X582602019Y-334850747D02*
X582602019Y-335036461D01*
X582602019Y-335036461D02*
X582663923Y-335284080D01*
X582663923Y-335284080D02*
X582725828Y-335407890D01*
X582725828Y-335407890D02*
X582849638Y-335531700D01*
X582849638Y-335531700D02*
X583035352Y-335593604D01*
X583035352Y-335593604D02*
X583159161Y-335593604D01*
X583159161Y-335593604D02*
X583344876Y-335531700D01*
X583344876Y-335531700D02*
X583406780Y-335469795D01*
X583406780Y-335469795D02*
X583406780Y-335036461D01*
X583406780Y-335036461D02*
X583159161Y-335036461D01*
D10*
D11*
X582632971Y-385593604D02*
X582632971Y-384293604D01*
X582632971Y-384912652D02*
X583375828Y-384912652D01*
X583375828Y-385593604D02*
X583375828Y-384293604D01*
D10*
D11*
X497460226Y-403775128D02*
X497460226Y-402275128D01*
X497460226Y-402275128D02*
X497817369Y-402275128D01*
X497817369Y-402275128D02*
X498031655Y-402346557D01*
X498031655Y-402346557D02*
X498174512Y-402489414D01*
X498174512Y-402489414D02*
X498245941Y-402632271D01*
X498245941Y-402632271D02*
X498317369Y-402917985D01*
X498317369Y-402917985D02*
X498317369Y-403132271D01*
X498317369Y-403132271D02*
X498245941Y-403417985D01*
X498245941Y-403417985D02*
X498174512Y-403560842D01*
X498174512Y-403560842D02*
X498031655Y-403703700D01*
X498031655Y-403703700D02*
X497817369Y-403775128D01*
X497817369Y-403775128D02*
X497460226Y-403775128D01*
X499603084Y-403775128D02*
X499603084Y-402989414D01*
X499603084Y-402989414D02*
X499531655Y-402846557D01*
X499531655Y-402846557D02*
X499388798Y-402775128D01*
X499388798Y-402775128D02*
X499103084Y-402775128D01*
X499103084Y-402775128D02*
X498960226Y-402846557D01*
X499603084Y-403703700D02*
X499460226Y-403775128D01*
X499460226Y-403775128D02*
X499103084Y-403775128D01*
X499103084Y-403775128D02*
X498960226Y-403703700D01*
X498960226Y-403703700D02*
X498888798Y-403560842D01*
X498888798Y-403560842D02*
X498888798Y-403417985D01*
X498888798Y-403417985D02*
X498960226Y-403275128D01*
X498960226Y-403275128D02*
X499103084Y-403203700D01*
X499103084Y-403203700D02*
X499460226Y-403203700D01*
X499460226Y-403203700D02*
X499603084Y-403132271D01*
X500103084Y-402775128D02*
X500674512Y-402775128D01*
X500317369Y-402275128D02*
X500317369Y-403560842D01*
X500317369Y-403560842D02*
X500388798Y-403703700D01*
X500388798Y-403703700D02*
X500531655Y-403775128D01*
X500531655Y-403775128D02*
X500674512Y-403775128D01*
X501745941Y-403703700D02*
X501603084Y-403775128D01*
X501603084Y-403775128D02*
X501317370Y-403775128D01*
X501317370Y-403775128D02*
X501174512Y-403703700D01*
X501174512Y-403703700D02*
X501103084Y-403560842D01*
X501103084Y-403560842D02*
X501103084Y-402989414D01*
X501103084Y-402989414D02*
X501174512Y-402846557D01*
X501174512Y-402846557D02*
X501317370Y-402775128D01*
X501317370Y-402775128D02*
X501603084Y-402775128D01*
X501603084Y-402775128D02*
X501745941Y-402846557D01*
X501745941Y-402846557D02*
X501817370Y-402989414D01*
X501817370Y-402989414D02*
X501817370Y-403132271D01*
X501817370Y-403132271D02*
X501103084Y-403275128D01*
X502460226Y-403632271D02*
X502531655Y-403703700D01*
X502531655Y-403703700D02*
X502460226Y-403775128D01*
X502460226Y-403775128D02*
X502388798Y-403703700D01*
X502388798Y-403703700D02*
X502460226Y-403632271D01*
X502460226Y-403632271D02*
X502460226Y-403775128D01*
X502460226Y-402846557D02*
X502531655Y-402917985D01*
X502531655Y-402917985D02*
X502460226Y-402989414D01*
X502460226Y-402989414D02*
X502388798Y-402917985D01*
X502388798Y-402917985D02*
X502460226Y-402846557D01*
X502460226Y-402846557D02*
X502460226Y-402989414D01*
D10*
D11*
X474004400Y-404489000D02*
X582004400Y-404489000D01*
D10*
D11*
X475460226Y-406575128D02*
X475460226Y-405075128D01*
X476317369Y-406575128D02*
X475674512Y-405717985D01*
X476317369Y-405075128D02*
X475460226Y-405932271D01*
X476960226Y-406575128D02*
X476960226Y-405575128D01*
X476960226Y-405075128D02*
X476888798Y-405146557D01*
X476888798Y-405146557D02*
X476960226Y-405217985D01*
X476960226Y-405217985D02*
X477031655Y-405146557D01*
X477031655Y-405146557D02*
X476960226Y-405075128D01*
X476960226Y-405075128D02*
X476960226Y-405217985D01*
X478531655Y-406432271D02*
X478460227Y-406503700D01*
X478460227Y-406503700D02*
X478245941Y-406575128D01*
X478245941Y-406575128D02*
X478103084Y-406575128D01*
X478103084Y-406575128D02*
X477888798Y-406503700D01*
X477888798Y-406503700D02*
X477745941Y-406360842D01*
X477745941Y-406360842D02*
X477674512Y-406217985D01*
X477674512Y-406217985D02*
X477603084Y-405932271D01*
X477603084Y-405932271D02*
X477603084Y-405717985D01*
X477603084Y-405717985D02*
X477674512Y-405432271D01*
X477674512Y-405432271D02*
X477745941Y-405289414D01*
X477745941Y-405289414D02*
X477888798Y-405146557D01*
X477888798Y-405146557D02*
X478103084Y-405075128D01*
X478103084Y-405075128D02*
X478245941Y-405075128D01*
X478245941Y-405075128D02*
X478460227Y-405146557D01*
X478460227Y-405146557D02*
X478531655Y-405217985D01*
X479817370Y-406575128D02*
X479817370Y-405789414D01*
X479817370Y-405789414D02*
X479745941Y-405646557D01*
X479745941Y-405646557D02*
X479603084Y-405575128D01*
X479603084Y-405575128D02*
X479317370Y-405575128D01*
X479317370Y-405575128D02*
X479174512Y-405646557D01*
X479817370Y-406503700D02*
X479674512Y-406575128D01*
X479674512Y-406575128D02*
X479317370Y-406575128D01*
X479317370Y-406575128D02*
X479174512Y-406503700D01*
X479174512Y-406503700D02*
X479103084Y-406360842D01*
X479103084Y-406360842D02*
X479103084Y-406217985D01*
X479103084Y-406217985D02*
X479174512Y-406075128D01*
X479174512Y-406075128D02*
X479317370Y-406003700D01*
X479317370Y-406003700D02*
X479674512Y-406003700D01*
X479674512Y-406003700D02*
X479817370Y-405932271D01*
X481174513Y-406575128D02*
X481174513Y-405075128D01*
X481174513Y-406503700D02*
X481031655Y-406575128D01*
X481031655Y-406575128D02*
X480745941Y-406575128D01*
X480745941Y-406575128D02*
X480603084Y-406503700D01*
X480603084Y-406503700D02*
X480531655Y-406432271D01*
X480531655Y-406432271D02*
X480460227Y-406289414D01*
X480460227Y-406289414D02*
X480460227Y-405860842D01*
X480460227Y-405860842D02*
X480531655Y-405717985D01*
X480531655Y-405717985D02*
X480603084Y-405646557D01*
X480603084Y-405646557D02*
X480745941Y-405575128D01*
X480745941Y-405575128D02*
X481031655Y-405575128D01*
X481031655Y-405575128D02*
X481174513Y-405646557D01*
X483031655Y-405789414D02*
X483531655Y-405789414D01*
X483745941Y-406575128D02*
X483031655Y-406575128D01*
X483031655Y-406575128D02*
X483031655Y-405075128D01*
X483031655Y-405075128D02*
X483745941Y-405075128D01*
X484388798Y-406432271D02*
X484460227Y-406503700D01*
X484460227Y-406503700D02*
X484388798Y-406575128D01*
X484388798Y-406575128D02*
X484317370Y-406503700D01*
X484317370Y-406503700D02*
X484388798Y-406432271D01*
X484388798Y-406432271D02*
X484388798Y-406575128D01*
X485103084Y-406575128D02*
X485103084Y-405075128D01*
X485103084Y-405075128D02*
X485460227Y-405075128D01*
X485460227Y-405075128D02*
X485674513Y-405146557D01*
X485674513Y-405146557D02*
X485817370Y-405289414D01*
X485817370Y-405289414D02*
X485888799Y-405432271D01*
X485888799Y-405432271D02*
X485960227Y-405717985D01*
X485960227Y-405717985D02*
X485960227Y-405932271D01*
X485960227Y-405932271D02*
X485888799Y-406217985D01*
X485888799Y-406217985D02*
X485817370Y-406360842D01*
X485817370Y-406360842D02*
X485674513Y-406503700D01*
X485674513Y-406503700D02*
X485460227Y-406575128D01*
X485460227Y-406575128D02*
X485103084Y-406575128D01*
X486603084Y-406432271D02*
X486674513Y-406503700D01*
X486674513Y-406503700D02*
X486603084Y-406575128D01*
X486603084Y-406575128D02*
X486531656Y-406503700D01*
X486531656Y-406503700D02*
X486603084Y-406432271D01*
X486603084Y-406432271D02*
X486603084Y-406575128D01*
X487245942Y-406146557D02*
X487960228Y-406146557D01*
X487103085Y-406575128D02*
X487603085Y-405075128D01*
X487603085Y-405075128D02*
X488103085Y-406575128D01*
X488603084Y-406432271D02*
X488674513Y-406503700D01*
X488674513Y-406503700D02*
X488603084Y-406575128D01*
X488603084Y-406575128D02*
X488531656Y-406503700D01*
X488531656Y-406503700D02*
X488603084Y-406432271D01*
X488603084Y-406432271D02*
X488603084Y-406575128D01*
X490674513Y-405717985D02*
X490531656Y-405646557D01*
X490531656Y-405646557D02*
X490460227Y-405575128D01*
X490460227Y-405575128D02*
X490388799Y-405432271D01*
X490388799Y-405432271D02*
X490388799Y-405360842D01*
X490388799Y-405360842D02*
X490460227Y-405217985D01*
X490460227Y-405217985D02*
X490531656Y-405146557D01*
X490531656Y-405146557D02*
X490674513Y-405075128D01*
X490674513Y-405075128D02*
X490960227Y-405075128D01*
X490960227Y-405075128D02*
X491103085Y-405146557D01*
X491103085Y-405146557D02*
X491174513Y-405217985D01*
X491174513Y-405217985D02*
X491245942Y-405360842D01*
X491245942Y-405360842D02*
X491245942Y-405432271D01*
X491245942Y-405432271D02*
X491174513Y-405575128D01*
X491174513Y-405575128D02*
X491103085Y-405646557D01*
X491103085Y-405646557D02*
X490960227Y-405717985D01*
X490960227Y-405717985D02*
X490674513Y-405717985D01*
X490674513Y-405717985D02*
X490531656Y-405789414D01*
X490531656Y-405789414D02*
X490460227Y-405860842D01*
X490460227Y-405860842D02*
X490388799Y-406003700D01*
X490388799Y-406003700D02*
X490388799Y-406289414D01*
X490388799Y-406289414D02*
X490460227Y-406432271D01*
X490460227Y-406432271D02*
X490531656Y-406503700D01*
X490531656Y-406503700D02*
X490674513Y-406575128D01*
X490674513Y-406575128D02*
X490960227Y-406575128D01*
X490960227Y-406575128D02*
X491103085Y-406503700D01*
X491103085Y-406503700D02*
X491174513Y-406432271D01*
X491174513Y-406432271D02*
X491245942Y-406289414D01*
X491245942Y-406289414D02*
X491245942Y-406003700D01*
X491245942Y-406003700D02*
X491174513Y-405860842D01*
X491174513Y-405860842D02*
X491103085Y-405789414D01*
X491103085Y-405789414D02*
X490960227Y-405717985D01*
X491888798Y-406432271D02*
X491960227Y-406503700D01*
X491960227Y-406503700D02*
X491888798Y-406575128D01*
X491888798Y-406575128D02*
X491817370Y-406503700D01*
X491817370Y-406503700D02*
X491888798Y-406432271D01*
X491888798Y-406432271D02*
X491888798Y-406575128D01*
X492888799Y-405075128D02*
X493031656Y-405075128D01*
X493031656Y-405075128D02*
X493174513Y-405146557D01*
X493174513Y-405146557D02*
X493245942Y-405217985D01*
X493245942Y-405217985D02*
X493317370Y-405360842D01*
X493317370Y-405360842D02*
X493388799Y-405646557D01*
X493388799Y-405646557D02*
X493388799Y-406003700D01*
X493388799Y-406003700D02*
X493317370Y-406289414D01*
X493317370Y-406289414D02*
X493245942Y-406432271D01*
X493245942Y-406432271D02*
X493174513Y-406503700D01*
X493174513Y-406503700D02*
X493031656Y-406575128D01*
X493031656Y-406575128D02*
X492888799Y-406575128D01*
X492888799Y-406575128D02*
X492745942Y-406503700D01*
X492745942Y-406503700D02*
X492674513Y-406432271D01*
X492674513Y-406432271D02*
X492603084Y-406289414D01*
X492603084Y-406289414D02*
X492531656Y-406003700D01*
X492531656Y-406003700D02*
X492531656Y-405646557D01*
X492531656Y-405646557D02*
X492603084Y-405360842D01*
X492603084Y-405360842D02*
X492674513Y-405217985D01*
X492674513Y-405217985D02*
X492745942Y-405146557D01*
X492745942Y-405146557D02*
X492888799Y-405075128D01*
X494031655Y-406432271D02*
X494103084Y-406503700D01*
X494103084Y-406503700D02*
X494031655Y-406575128D01*
X494031655Y-406575128D02*
X493960227Y-406503700D01*
X493960227Y-406503700D02*
X494031655Y-406432271D01*
X494031655Y-406432271D02*
X494031655Y-406575128D01*
X495031656Y-405075128D02*
X495174513Y-405075128D01*
X495174513Y-405075128D02*
X495317370Y-405146557D01*
X495317370Y-405146557D02*
X495388799Y-405217985D01*
X495388799Y-405217985D02*
X495460227Y-405360842D01*
X495460227Y-405360842D02*
X495531656Y-405646557D01*
X495531656Y-405646557D02*
X495531656Y-406003700D01*
X495531656Y-406003700D02*
X495460227Y-406289414D01*
X495460227Y-406289414D02*
X495388799Y-406432271D01*
X495388799Y-406432271D02*
X495317370Y-406503700D01*
X495317370Y-406503700D02*
X495174513Y-406575128D01*
X495174513Y-406575128D02*
X495031656Y-406575128D01*
X495031656Y-406575128D02*
X494888799Y-406503700D01*
X494888799Y-406503700D02*
X494817370Y-406432271D01*
X494817370Y-406432271D02*
X494745941Y-406289414D01*
X494745941Y-406289414D02*
X494674513Y-406003700D01*
X494674513Y-406003700D02*
X494674513Y-405646557D01*
X494674513Y-405646557D02*
X494745941Y-405360842D01*
X494745941Y-405360842D02*
X494817370Y-405217985D01*
X494817370Y-405217985D02*
X494888799Y-405146557D01*
X494888799Y-405146557D02*
X495031656Y-405075128D01*
D10*
D11*
X474004400Y-401489000D02*
X582004400Y-401489000D01*
D10*
D12*
X561416053Y-403767328D02*
X560916053Y-403053042D01*
X560558910Y-403767328D02*
X560558910Y-402267328D01*
X560558910Y-402267328D02*
X561130339Y-402267328D01*
X561130339Y-402267328D02*
X561273196Y-402338757D01*
X561273196Y-402338757D02*
X561344625Y-402410185D01*
X561344625Y-402410185D02*
X561416053Y-402553042D01*
X561416053Y-402553042D02*
X561416053Y-402767328D01*
X561416053Y-402767328D02*
X561344625Y-402910185D01*
X561344625Y-402910185D02*
X561273196Y-402981614D01*
X561273196Y-402981614D02*
X561130339Y-403053042D01*
X561130339Y-403053042D02*
X560558910Y-403053042D01*
X562630339Y-403695900D02*
X562487482Y-403767328D01*
X562487482Y-403767328D02*
X562201768Y-403767328D01*
X562201768Y-403767328D02*
X562058910Y-403695900D01*
X562058910Y-403695900D02*
X561987482Y-403553042D01*
X561987482Y-403553042D02*
X561987482Y-402981614D01*
X561987482Y-402981614D02*
X562058910Y-402838757D01*
X562058910Y-402838757D02*
X562201768Y-402767328D01*
X562201768Y-402767328D02*
X562487482Y-402767328D01*
X562487482Y-402767328D02*
X562630339Y-402838757D01*
X562630339Y-402838757D02*
X562701768Y-402981614D01*
X562701768Y-402981614D02*
X562701768Y-403124471D01*
X562701768Y-403124471D02*
X561987482Y-403267328D01*
X563201767Y-402767328D02*
X563558910Y-403767328D01*
X563558910Y-403767328D02*
X563916053Y-402767328D01*
X564487481Y-403624471D02*
X564558910Y-403695900D01*
X564558910Y-403695900D02*
X564487481Y-403767328D01*
X564487481Y-403767328D02*
X564416053Y-403695900D01*
X564416053Y-403695900D02*
X564487481Y-403624471D01*
X564487481Y-403624471D02*
X564487481Y-403767328D01*
X564487481Y-402838757D02*
X564558910Y-402910185D01*
X564558910Y-402910185D02*
X564487481Y-402981614D01*
X564487481Y-402981614D02*
X564416053Y-402910185D01*
X564416053Y-402910185D02*
X564487481Y-402838757D01*
X564487481Y-402838757D02*
X564487481Y-402981614D01*
D10*
D11*
X475388798Y-403703700D02*
X475603084Y-403775128D01*
X475603084Y-403775128D02*
X475960226Y-403775128D01*
X475960226Y-403775128D02*
X476103084Y-403703700D01*
X476103084Y-403703700D02*
X476174512Y-403632271D01*
X476174512Y-403632271D02*
X476245941Y-403489414D01*
X476245941Y-403489414D02*
X476245941Y-403346557D01*
X476245941Y-403346557D02*
X476174512Y-403203700D01*
X476174512Y-403203700D02*
X476103084Y-403132271D01*
X476103084Y-403132271D02*
X475960226Y-403060842D01*
X475960226Y-403060842D02*
X475674512Y-402989414D01*
X475674512Y-402989414D02*
X475531655Y-402917985D01*
X475531655Y-402917985D02*
X475460226Y-402846557D01*
X475460226Y-402846557D02*
X475388798Y-402703700D01*
X475388798Y-402703700D02*
X475388798Y-402560842D01*
X475388798Y-402560842D02*
X475460226Y-402417985D01*
X475460226Y-402417985D02*
X475531655Y-402346557D01*
X475531655Y-402346557D02*
X475674512Y-402275128D01*
X475674512Y-402275128D02*
X476031655Y-402275128D01*
X476031655Y-402275128D02*
X476245941Y-402346557D01*
X476888797Y-403775128D02*
X476888797Y-402775128D01*
X476888797Y-402275128D02*
X476817369Y-402346557D01*
X476817369Y-402346557D02*
X476888797Y-402417985D01*
X476888797Y-402417985D02*
X476960226Y-402346557D01*
X476960226Y-402346557D02*
X476888797Y-402275128D01*
X476888797Y-402275128D02*
X476888797Y-402417985D01*
X477460226Y-402775128D02*
X478245941Y-402775128D01*
X478245941Y-402775128D02*
X477460226Y-403775128D01*
X477460226Y-403775128D02*
X478245941Y-403775128D01*
X479388798Y-403703700D02*
X479245941Y-403775128D01*
X479245941Y-403775128D02*
X478960227Y-403775128D01*
X478960227Y-403775128D02*
X478817369Y-403703700D01*
X478817369Y-403703700D02*
X478745941Y-403560842D01*
X478745941Y-403560842D02*
X478745941Y-402989414D01*
X478745941Y-402989414D02*
X478817369Y-402846557D01*
X478817369Y-402846557D02*
X478960227Y-402775128D01*
X478960227Y-402775128D02*
X479245941Y-402775128D01*
X479245941Y-402775128D02*
X479388798Y-402846557D01*
X479388798Y-402846557D02*
X479460227Y-402989414D01*
X479460227Y-402989414D02*
X479460227Y-403132271D01*
X479460227Y-403132271D02*
X478745941Y-403275128D01*
X480103083Y-403632271D02*
X480174512Y-403703700D01*
X480174512Y-403703700D02*
X480103083Y-403775128D01*
X480103083Y-403775128D02*
X480031655Y-403703700D01*
X480031655Y-403703700D02*
X480103083Y-403632271D01*
X480103083Y-403632271D02*
X480103083Y-403775128D01*
X480103083Y-402846557D02*
X480174512Y-402917985D01*
X480174512Y-402917985D02*
X480103083Y-402989414D01*
X480103083Y-402989414D02*
X480031655Y-402917985D01*
X480031655Y-402917985D02*
X480103083Y-402846557D01*
X480103083Y-402846557D02*
X480103083Y-402989414D01*
X481888798Y-403346557D02*
X482603084Y-403346557D01*
X481745941Y-403775128D02*
X482245941Y-402275128D01*
X482245941Y-402275128D02*
X482745941Y-403775128D01*
X483174512Y-402417985D02*
X483245940Y-402346557D01*
X483245940Y-402346557D02*
X483388798Y-402275128D01*
X483388798Y-402275128D02*
X483745940Y-402275128D01*
X483745940Y-402275128D02*
X483888798Y-402346557D01*
X483888798Y-402346557D02*
X483960226Y-402417985D01*
X483960226Y-402417985D02*
X484031655Y-402560842D01*
X484031655Y-402560842D02*
X484031655Y-402703700D01*
X484031655Y-402703700D02*
X483960226Y-402917985D01*
X483960226Y-402917985D02*
X483103083Y-403775128D01*
X483103083Y-403775128D02*
X484031655Y-403775128D01*
D10*
D11*
X560460226Y-406575128D02*
X560460226Y-405075128D01*
X561817370Y-406575128D02*
X561817370Y-405075128D01*
X561817370Y-406503700D02*
X561674512Y-406575128D01*
X561674512Y-406575128D02*
X561388798Y-406575128D01*
X561388798Y-406575128D02*
X561245941Y-406503700D01*
X561245941Y-406503700D02*
X561174512Y-406432271D01*
X561174512Y-406432271D02*
X561103084Y-406289414D01*
X561103084Y-406289414D02*
X561103084Y-405860842D01*
X561103084Y-405860842D02*
X561174512Y-405717985D01*
X561174512Y-405717985D02*
X561245941Y-405646557D01*
X561245941Y-405646557D02*
X561388798Y-405575128D01*
X561388798Y-405575128D02*
X561674512Y-405575128D01*
X561674512Y-405575128D02*
X561817370Y-405646557D01*
X562531655Y-406432271D02*
X562603084Y-406503700D01*
X562603084Y-406503700D02*
X562531655Y-406575128D01*
X562531655Y-406575128D02*
X562460227Y-406503700D01*
X562460227Y-406503700D02*
X562531655Y-406432271D01*
X562531655Y-406432271D02*
X562531655Y-406575128D01*
X562531655Y-405646557D02*
X562603084Y-405717985D01*
X562603084Y-405717985D02*
X562531655Y-405789414D01*
X562531655Y-405789414D02*
X562460227Y-405717985D01*
X562460227Y-405717985D02*
X562531655Y-405646557D01*
X562531655Y-405646557D02*
X562531655Y-405789414D01*
X565174513Y-406575128D02*
X564317370Y-406575128D01*
X564745941Y-406575128D02*
X564745941Y-405075128D01*
X564745941Y-405075128D02*
X564603084Y-405289414D01*
X564603084Y-405289414D02*
X564460227Y-405432271D01*
X564460227Y-405432271D02*
X564317370Y-405503700D01*
X566888798Y-405003700D02*
X565603084Y-406932271D01*
X568174513Y-406575128D02*
X567317370Y-406575128D01*
X567745941Y-406575128D02*
X567745941Y-405075128D01*
X567745941Y-405075128D02*
X567603084Y-405289414D01*
X567603084Y-405289414D02*
X567460227Y-405432271D01*
X567460227Y-405432271D02*
X567317370Y-405503700D01*
D10*
D11*
X474004400Y-397489000D02*
X582004400Y-397489000D01*
D10*
D13*
X475696128Y-398193438D02*
X476838985Y-398193438D01*
X476017557Y-400193438D02*
X476267557Y-398193438D01*
X477255652Y-400193438D02*
X477422319Y-398860104D01*
X477505652Y-398193438D02*
X477398509Y-398288676D01*
X477398509Y-398288676D02*
X477481843Y-398383914D01*
X477481843Y-398383914D02*
X477588986Y-398288676D01*
X477588986Y-398288676D02*
X477505652Y-398193438D01*
X477505652Y-398193438D02*
X477481843Y-398383914D01*
X478088986Y-398860104D02*
X478850890Y-398860104D01*
X478458033Y-398193438D02*
X478243748Y-399907723D01*
X478243748Y-399907723D02*
X478315176Y-400098200D01*
X478315176Y-400098200D02*
X478493748Y-400193438D01*
X478493748Y-400193438D02*
X478684224Y-400193438D01*
X479636605Y-400193438D02*
X479458033Y-400098200D01*
X479458033Y-400098200D02*
X479386605Y-399907723D01*
X479386605Y-399907723D02*
X479600890Y-398193438D01*
X481172319Y-400098200D02*
X480969938Y-400193438D01*
X480969938Y-400193438D02*
X480588985Y-400193438D01*
X480588985Y-400193438D02*
X480410414Y-400098200D01*
X480410414Y-400098200D02*
X480338985Y-399907723D01*
X480338985Y-399907723D02*
X480434224Y-399145819D01*
X480434224Y-399145819D02*
X480553271Y-398955342D01*
X480553271Y-398955342D02*
X480755652Y-398860104D01*
X480755652Y-398860104D02*
X481136604Y-398860104D01*
X481136604Y-398860104D02*
X481315176Y-398955342D01*
X481315176Y-398955342D02*
X481386604Y-399145819D01*
X481386604Y-399145819D02*
X481362795Y-399336295D01*
X481362795Y-399336295D02*
X480386604Y-399526771D01*
X482136605Y-400002961D02*
X482219938Y-400098200D01*
X482219938Y-400098200D02*
X482112795Y-400193438D01*
X482112795Y-400193438D02*
X482029462Y-400098200D01*
X482029462Y-400098200D02*
X482136605Y-400002961D01*
X482136605Y-400002961D02*
X482112795Y-400193438D01*
X482267557Y-398955342D02*
X482350890Y-399050580D01*
X482350890Y-399050580D02*
X482243748Y-399145819D01*
X482243748Y-399145819D02*
X482160414Y-399050580D01*
X482160414Y-399050580D02*
X482267557Y-398955342D01*
X482267557Y-398955342D02*
X482243748Y-399145819D01*
D10*
D11*
X475960226Y-395589414D02*
X475460226Y-395589414D01*
X475460226Y-396375128D02*
X475460226Y-394875128D01*
X475460226Y-394875128D02*
X476174512Y-394875128D01*
X476745940Y-396375128D02*
X476745940Y-395375128D01*
X476745940Y-394875128D02*
X476674512Y-394946557D01*
X476674512Y-394946557D02*
X476745940Y-395017985D01*
X476745940Y-395017985D02*
X476817369Y-394946557D01*
X476817369Y-394946557D02*
X476745940Y-394875128D01*
X476745940Y-394875128D02*
X476745940Y-395017985D01*
X477674512Y-396375128D02*
X477531655Y-396303700D01*
X477531655Y-396303700D02*
X477460226Y-396160842D01*
X477460226Y-396160842D02*
X477460226Y-394875128D01*
X478817369Y-396303700D02*
X478674512Y-396375128D01*
X478674512Y-396375128D02*
X478388798Y-396375128D01*
X478388798Y-396375128D02*
X478245940Y-396303700D01*
X478245940Y-396303700D02*
X478174512Y-396160842D01*
X478174512Y-396160842D02*
X478174512Y-395589414D01*
X478174512Y-395589414D02*
X478245940Y-395446557D01*
X478245940Y-395446557D02*
X478388798Y-395375128D01*
X478388798Y-395375128D02*
X478674512Y-395375128D01*
X478674512Y-395375128D02*
X478817369Y-395446557D01*
X478817369Y-395446557D02*
X478888798Y-395589414D01*
X478888798Y-395589414D02*
X478888798Y-395732271D01*
X478888798Y-395732271D02*
X478174512Y-395875128D01*
X479531654Y-396232271D02*
X479603083Y-396303700D01*
X479603083Y-396303700D02*
X479531654Y-396375128D01*
X479531654Y-396375128D02*
X479460226Y-396303700D01*
X479460226Y-396303700D02*
X479531654Y-396232271D01*
X479531654Y-396232271D02*
X479531654Y-396375128D01*
X479531654Y-395446557D02*
X479603083Y-395517985D01*
X479603083Y-395517985D02*
X479531654Y-395589414D01*
X479531654Y-395589414D02*
X479460226Y-395517985D01*
X479460226Y-395517985D02*
X479531654Y-395446557D01*
X479531654Y-395446557D02*
X479531654Y-395589414D01*
X481388797Y-396375128D02*
X481388797Y-394875128D01*
X481388797Y-395589414D02*
X482245940Y-395589414D01*
X482245940Y-396375128D02*
X482245940Y-394875128D01*
X483603084Y-396375128D02*
X483603084Y-395589414D01*
X483603084Y-395589414D02*
X483531655Y-395446557D01*
X483531655Y-395446557D02*
X483388798Y-395375128D01*
X483388798Y-395375128D02*
X483103084Y-395375128D01*
X483103084Y-395375128D02*
X482960226Y-395446557D01*
X483603084Y-396303700D02*
X483460226Y-396375128D01*
X483460226Y-396375128D02*
X483103084Y-396375128D01*
X483103084Y-396375128D02*
X482960226Y-396303700D01*
X482960226Y-396303700D02*
X482888798Y-396160842D01*
X482888798Y-396160842D02*
X482888798Y-396017985D01*
X482888798Y-396017985D02*
X482960226Y-395875128D01*
X482960226Y-395875128D02*
X483103084Y-395803700D01*
X483103084Y-395803700D02*
X483460226Y-395803700D01*
X483460226Y-395803700D02*
X483603084Y-395732271D01*
X484317369Y-396375128D02*
X484317369Y-395375128D01*
X484317369Y-395517985D02*
X484388798Y-395446557D01*
X484388798Y-395446557D02*
X484531655Y-395375128D01*
X484531655Y-395375128D02*
X484745941Y-395375128D01*
X484745941Y-395375128D02*
X484888798Y-395446557D01*
X484888798Y-395446557D02*
X484960227Y-395589414D01*
X484960227Y-395589414D02*
X484960227Y-396375128D01*
X484960227Y-395589414D02*
X485031655Y-395446557D01*
X485031655Y-395446557D02*
X485174512Y-395375128D01*
X485174512Y-395375128D02*
X485388798Y-395375128D01*
X485388798Y-395375128D02*
X485531655Y-395446557D01*
X485531655Y-395446557D02*
X485603084Y-395589414D01*
X485603084Y-395589414D02*
X485603084Y-396375128D01*
X486317369Y-395375128D02*
X486317369Y-396875128D01*
X486317369Y-395446557D02*
X486460227Y-395375128D01*
X486460227Y-395375128D02*
X486745941Y-395375128D01*
X486745941Y-395375128D02*
X486888798Y-395446557D01*
X486888798Y-395446557D02*
X486960227Y-395517985D01*
X486960227Y-395517985D02*
X487031655Y-395660842D01*
X487031655Y-395660842D02*
X487031655Y-396089414D01*
X487031655Y-396089414D02*
X486960227Y-396232271D01*
X486960227Y-396232271D02*
X486888798Y-396303700D01*
X486888798Y-396303700D02*
X486745941Y-396375128D01*
X486745941Y-396375128D02*
X486460227Y-396375128D01*
X486460227Y-396375128D02*
X486317369Y-396303700D01*
X487460227Y-395375128D02*
X488031655Y-395375128D01*
X487674512Y-394875128D02*
X487674512Y-396160842D01*
X487674512Y-396160842D02*
X487745941Y-396303700D01*
X487745941Y-396303700D02*
X487888798Y-396375128D01*
X487888798Y-396375128D02*
X488031655Y-396375128D01*
X489103084Y-396303700D02*
X488960227Y-396375128D01*
X488960227Y-396375128D02*
X488674513Y-396375128D01*
X488674513Y-396375128D02*
X488531655Y-396303700D01*
X488531655Y-396303700D02*
X488460227Y-396160842D01*
X488460227Y-396160842D02*
X488460227Y-395589414D01*
X488460227Y-395589414D02*
X488531655Y-395446557D01*
X488531655Y-395446557D02*
X488674513Y-395375128D01*
X488674513Y-395375128D02*
X488960227Y-395375128D01*
X488960227Y-395375128D02*
X489103084Y-395446557D01*
X489103084Y-395446557D02*
X489174513Y-395589414D01*
X489174513Y-395589414D02*
X489174513Y-395732271D01*
X489174513Y-395732271D02*
X488460227Y-395875128D01*
X489817369Y-396375128D02*
X489817369Y-395375128D01*
X489817369Y-395660842D02*
X489888798Y-395517985D01*
X489888798Y-395517985D02*
X489960227Y-395446557D01*
X489960227Y-395446557D02*
X490103084Y-395375128D01*
X490103084Y-395375128D02*
X490245941Y-395375128D01*
X490603083Y-394875128D02*
X491531655Y-394875128D01*
X491531655Y-394875128D02*
X491031655Y-395446557D01*
X491031655Y-395446557D02*
X491245940Y-395446557D01*
X491245940Y-395446557D02*
X491388798Y-395517985D01*
X491388798Y-395517985D02*
X491460226Y-395589414D01*
X491460226Y-395589414D02*
X491531655Y-395732271D01*
X491531655Y-395732271D02*
X491531655Y-396089414D01*
X491531655Y-396089414D02*
X491460226Y-396232271D01*
X491460226Y-396232271D02*
X491388798Y-396303700D01*
X491388798Y-396303700D02*
X491245940Y-396375128D01*
X491245940Y-396375128D02*
X490817369Y-396375128D01*
X490817369Y-396375128D02*
X490674512Y-396303700D01*
X490674512Y-396303700D02*
X490603083Y-396232271D01*
X492174511Y-396232271D02*
X492245940Y-396303700D01*
X492245940Y-396303700D02*
X492174511Y-396375128D01*
X492174511Y-396375128D02*
X492103083Y-396303700D01*
X492103083Y-396303700D02*
X492174511Y-396232271D01*
X492174511Y-396232271D02*
X492174511Y-396375128D01*
X493674512Y-396375128D02*
X492817369Y-396375128D01*
X493245940Y-396375128D02*
X493245940Y-394875128D01*
X493245940Y-394875128D02*
X493103083Y-395089414D01*
X493103083Y-395089414D02*
X492960226Y-395232271D01*
X492960226Y-395232271D02*
X492817369Y-395303700D01*
X494317368Y-396232271D02*
X494388797Y-396303700D01*
X494388797Y-396303700D02*
X494317368Y-396375128D01*
X494317368Y-396375128D02*
X494245940Y-396303700D01*
X494245940Y-396303700D02*
X494317368Y-396232271D01*
X494317368Y-396232271D02*
X494317368Y-396375128D01*
X495031654Y-396375128D02*
X495031654Y-394875128D01*
X495174512Y-395803700D02*
X495603083Y-396375128D01*
X495603083Y-395375128D02*
X495031654Y-395946557D01*
X496245940Y-396375128D02*
X496245940Y-395375128D01*
X496245940Y-394875128D02*
X496174512Y-394946557D01*
X496174512Y-394946557D02*
X496245940Y-395017985D01*
X496245940Y-395017985D02*
X496317369Y-394946557D01*
X496317369Y-394946557D02*
X496245940Y-394875128D01*
X496245940Y-394875128D02*
X496245940Y-395017985D01*
X497603084Y-396303700D02*
X497460226Y-396375128D01*
X497460226Y-396375128D02*
X497174512Y-396375128D01*
X497174512Y-396375128D02*
X497031655Y-396303700D01*
X497031655Y-396303700D02*
X496960226Y-396232271D01*
X496960226Y-396232271D02*
X496888798Y-396089414D01*
X496888798Y-396089414D02*
X496888798Y-395660842D01*
X496888798Y-395660842D02*
X496960226Y-395517985D01*
X496960226Y-395517985D02*
X497031655Y-395446557D01*
X497031655Y-395446557D02*
X497174512Y-395375128D01*
X497174512Y-395375128D02*
X497460226Y-395375128D01*
X497460226Y-395375128D02*
X497603084Y-395446557D01*
X498888798Y-396375128D02*
X498888798Y-395589414D01*
X498888798Y-395589414D02*
X498817369Y-395446557D01*
X498817369Y-395446557D02*
X498674512Y-395375128D01*
X498674512Y-395375128D02*
X498388798Y-395375128D01*
X498388798Y-395375128D02*
X498245940Y-395446557D01*
X498888798Y-396303700D02*
X498745940Y-396375128D01*
X498745940Y-396375128D02*
X498388798Y-396375128D01*
X498388798Y-396375128D02*
X498245940Y-396303700D01*
X498245940Y-396303700D02*
X498174512Y-396160842D01*
X498174512Y-396160842D02*
X498174512Y-396017985D01*
X498174512Y-396017985D02*
X498245940Y-395875128D01*
X498245940Y-395875128D02*
X498388798Y-395803700D01*
X498388798Y-395803700D02*
X498745940Y-395803700D01*
X498745940Y-395803700D02*
X498888798Y-395732271D01*
X500245941Y-396375128D02*
X500245941Y-394875128D01*
X500245941Y-396303700D02*
X500103083Y-396375128D01*
X500103083Y-396375128D02*
X499817369Y-396375128D01*
X499817369Y-396375128D02*
X499674512Y-396303700D01*
X499674512Y-396303700D02*
X499603083Y-396232271D01*
X499603083Y-396232271D02*
X499531655Y-396089414D01*
X499531655Y-396089414D02*
X499531655Y-395660842D01*
X499531655Y-395660842D02*
X499603083Y-395517985D01*
X499603083Y-395517985D02*
X499674512Y-395446557D01*
X499674512Y-395446557D02*
X499817369Y-395375128D01*
X499817369Y-395375128D02*
X500103083Y-395375128D01*
X500103083Y-395375128D02*
X500245941Y-395446557D01*
X500603084Y-396517985D02*
X501745941Y-396517985D01*
X502103083Y-395375128D02*
X502103083Y-396875128D01*
X502103083Y-395446557D02*
X502245941Y-395375128D01*
X502245941Y-395375128D02*
X502531655Y-395375128D01*
X502531655Y-395375128D02*
X502674512Y-395446557D01*
X502674512Y-395446557D02*
X502745941Y-395517985D01*
X502745941Y-395517985D02*
X502817369Y-395660842D01*
X502817369Y-395660842D02*
X502817369Y-396089414D01*
X502817369Y-396089414D02*
X502745941Y-396232271D01*
X502745941Y-396232271D02*
X502674512Y-396303700D01*
X502674512Y-396303700D02*
X502531655Y-396375128D01*
X502531655Y-396375128D02*
X502245941Y-396375128D01*
X502245941Y-396375128D02*
X502103083Y-396303700D01*
X504103084Y-396303700D02*
X503960226Y-396375128D01*
X503960226Y-396375128D02*
X503674512Y-396375128D01*
X503674512Y-396375128D02*
X503531655Y-396303700D01*
X503531655Y-396303700D02*
X503460226Y-396232271D01*
X503460226Y-396232271D02*
X503388798Y-396089414D01*
X503388798Y-396089414D02*
X503388798Y-395660842D01*
X503388798Y-395660842D02*
X503460226Y-395517985D01*
X503460226Y-395517985D02*
X503531655Y-395446557D01*
X503531655Y-395446557D02*
X503674512Y-395375128D01*
X503674512Y-395375128D02*
X503960226Y-395375128D01*
X503960226Y-395375128D02*
X504103084Y-395446557D01*
X504745940Y-396375128D02*
X504745940Y-394875128D01*
X504745940Y-395446557D02*
X504888798Y-395375128D01*
X504888798Y-395375128D02*
X505174512Y-395375128D01*
X505174512Y-395375128D02*
X505317369Y-395446557D01*
X505317369Y-395446557D02*
X505388798Y-395517985D01*
X505388798Y-395517985D02*
X505460226Y-395660842D01*
X505460226Y-395660842D02*
X505460226Y-396089414D01*
X505460226Y-396089414D02*
X505388798Y-396232271D01*
X505388798Y-396232271D02*
X505317369Y-396303700D01*
X505317369Y-396303700D02*
X505174512Y-396375128D01*
X505174512Y-396375128D02*
X504888798Y-396375128D01*
X504888798Y-396375128D02*
X504745940Y-396303700D01*
D10*
D11*
X474004400Y-391489000D02*
X582004400Y-391489000D01*
D10*
D11*
X475388798Y-393603700D02*
X475603084Y-393675128D01*
X475603084Y-393675128D02*
X475960226Y-393675128D01*
X475960226Y-393675128D02*
X476103084Y-393603700D01*
X476103084Y-393603700D02*
X476174512Y-393532271D01*
X476174512Y-393532271D02*
X476245941Y-393389414D01*
X476245941Y-393389414D02*
X476245941Y-393246557D01*
X476245941Y-393246557D02*
X476174512Y-393103700D01*
X476174512Y-393103700D02*
X476103084Y-393032271D01*
X476103084Y-393032271D02*
X475960226Y-392960842D01*
X475960226Y-392960842D02*
X475674512Y-392889414D01*
X475674512Y-392889414D02*
X475531655Y-392817985D01*
X475531655Y-392817985D02*
X475460226Y-392746557D01*
X475460226Y-392746557D02*
X475388798Y-392603700D01*
X475388798Y-392603700D02*
X475388798Y-392460842D01*
X475388798Y-392460842D02*
X475460226Y-392317985D01*
X475460226Y-392317985D02*
X475531655Y-392246557D01*
X475531655Y-392246557D02*
X475674512Y-392175128D01*
X475674512Y-392175128D02*
X476031655Y-392175128D01*
X476031655Y-392175128D02*
X476245941Y-392246557D01*
X476888797Y-393675128D02*
X476888797Y-392175128D01*
X477531655Y-393675128D02*
X477531655Y-392889414D01*
X477531655Y-392889414D02*
X477460226Y-392746557D01*
X477460226Y-392746557D02*
X477317369Y-392675128D01*
X477317369Y-392675128D02*
X477103083Y-392675128D01*
X477103083Y-392675128D02*
X476960226Y-392746557D01*
X476960226Y-392746557D02*
X476888797Y-392817985D01*
X478817369Y-393603700D02*
X478674512Y-393675128D01*
X478674512Y-393675128D02*
X478388798Y-393675128D01*
X478388798Y-393675128D02*
X478245940Y-393603700D01*
X478245940Y-393603700D02*
X478174512Y-393460842D01*
X478174512Y-393460842D02*
X478174512Y-392889414D01*
X478174512Y-392889414D02*
X478245940Y-392746557D01*
X478245940Y-392746557D02*
X478388798Y-392675128D01*
X478388798Y-392675128D02*
X478674512Y-392675128D01*
X478674512Y-392675128D02*
X478817369Y-392746557D01*
X478817369Y-392746557D02*
X478888798Y-392889414D01*
X478888798Y-392889414D02*
X478888798Y-393032271D01*
X478888798Y-393032271D02*
X478174512Y-393175128D01*
X480103083Y-393603700D02*
X479960226Y-393675128D01*
X479960226Y-393675128D02*
X479674512Y-393675128D01*
X479674512Y-393675128D02*
X479531654Y-393603700D01*
X479531654Y-393603700D02*
X479460226Y-393460842D01*
X479460226Y-393460842D02*
X479460226Y-392889414D01*
X479460226Y-392889414D02*
X479531654Y-392746557D01*
X479531654Y-392746557D02*
X479674512Y-392675128D01*
X479674512Y-392675128D02*
X479960226Y-392675128D01*
X479960226Y-392675128D02*
X480103083Y-392746557D01*
X480103083Y-392746557D02*
X480174512Y-392889414D01*
X480174512Y-392889414D02*
X480174512Y-393032271D01*
X480174512Y-393032271D02*
X479460226Y-393175128D01*
X480603083Y-392675128D02*
X481174511Y-392675128D01*
X480817368Y-392175128D02*
X480817368Y-393460842D01*
X480817368Y-393460842D02*
X480888797Y-393603700D01*
X480888797Y-393603700D02*
X481031654Y-393675128D01*
X481031654Y-393675128D02*
X481174511Y-393675128D01*
X481674511Y-393532271D02*
X481745940Y-393603700D01*
X481745940Y-393603700D02*
X481674511Y-393675128D01*
X481674511Y-393675128D02*
X481603083Y-393603700D01*
X481603083Y-393603700D02*
X481674511Y-393532271D01*
X481674511Y-393532271D02*
X481674511Y-393675128D01*
X481674511Y-392746557D02*
X481745940Y-392817985D01*
X481745940Y-392817985D02*
X481674511Y-392889414D01*
X481674511Y-392889414D02*
X481603083Y-392817985D01*
X481603083Y-392817985D02*
X481674511Y-392746557D01*
X481674511Y-392746557D02*
X481674511Y-392889414D01*
D10*
D12*
D10*
D11*
D10*
D11*
D10*
D11*
D10*
D11*
D10*
D11*
X494004400Y-401489000D02*
X494004400Y-404489000D01*
D10*
D11*
X558004400Y-401489000D02*
X558004400Y-407989000D01*
D14*
X129418603Y-260754607D03*
D15*
X134498603Y-260754607D03*
D14*
X139578603Y-260754607D03*
D16*
X130688603Y-258214607D03*
X137038603Y-255674607D03*
D14*
X281813000Y-241681000D03*
D15*
X286893000Y-241681000D03*
D14*
X291973000Y-241681000D03*
D16*
X283083000Y-239141000D03*
X289433000Y-236601000D03*
D14*
X367579538Y-222631000D03*
D15*
X372659538Y-222631000D03*
D14*
X377739538Y-222631000D03*
D16*
X368849538Y-220091000D03*
X375199538Y-217551000D03*
D14*
X439039000Y-203581000D03*
D15*
X444119000Y-203581000D03*
D14*
X449199000Y-203581000D03*
D16*
X440309000Y-201041000D03*
X446659000Y-198501000D03*
D15*
X190383527Y-263145372D03*
D17*
X175143527Y-263145371D03*
X175143527Y-239332871D03*
D15*
X190383527Y-239332870D03*
D14*
X157993603Y-184554607D03*
D15*
X163073603Y-184554607D03*
D14*
X168153603Y-184554607D03*
D16*
X159263603Y-182014607D03*
X165613603Y-179474607D03*
D14*
X381889000Y-203581000D03*
D15*
X386969000Y-203581000D03*
D14*
X392049000Y-203581000D03*
D16*
X383159000Y-201041000D03*
X389509000Y-198501000D03*
D14*
X138943603Y-184554607D03*
D15*
X144023603Y-184554607D03*
D14*
X149103603Y-184554607D03*
D16*
X140213603Y-182014607D03*
X146563603Y-179474607D03*
D14*
X262763000Y-165481000D03*
D15*
X267843000Y-165481000D03*
D14*
X272923000Y-165481000D03*
D16*
X264033000Y-162941000D03*
X270383000Y-160401000D03*
D14*
X119893603Y-184554607D03*
D15*
X124973603Y-184554607D03*
D14*
X130053603Y-184554607D03*
D16*
X121163603Y-182014607D03*
X127513603Y-179474607D03*
D14*
X467614000Y-260731000D03*
D15*
X472694000Y-260731000D03*
D14*
X477774000Y-260731000D03*
D16*
X468884000Y-258191000D03*
X475234000Y-255651000D03*
D14*
X391414000Y-184531000D03*
D15*
X396494000Y-184531000D03*
D14*
X401574000Y-184531000D03*
D16*
X392684000Y-181991000D03*
X399034000Y-179451000D03*
D14*
X391414000Y-260731000D03*
D15*
X396494000Y-260731000D03*
D14*
X401574000Y-260731000D03*
D16*
X392684000Y-258191000D03*
X399034000Y-255651000D03*
D14*
X360426000Y-260731000D03*
D15*
X365506000Y-260731000D03*
D14*
X370586000Y-260731000D03*
D16*
X361696000Y-258191000D03*
X368046000Y-255651000D03*
D14*
X281813000Y-165481000D03*
D15*
X286893000Y-165481000D03*
D14*
X291973000Y-165481000D03*
D16*
X283083000Y-162941000D03*
X289433000Y-160401000D03*
D14*
X338963000Y-241681000D03*
D15*
X344043000Y-241681000D03*
D14*
X349123000Y-241681000D03*
D16*
X340233000Y-239141000D03*
X346583000Y-236601000D03*
D14*
X157993603Y-203604607D03*
D15*
X163073603Y-203604607D03*
D14*
X168153603Y-203604607D03*
D16*
X159263603Y-201064607D03*
X165613603Y-198524607D03*
D14*
X286639000Y-203581000D03*
D15*
X291719000Y-203581000D03*
D14*
X296799000Y-203581000D03*
D16*
X287909000Y-201041000D03*
X294259000Y-198501000D03*
D15*
X301244000Y-252476000D03*
D17*
X301243999Y-267716000D03*
X277431499Y-267716000D03*
D15*
X277431498Y-252476000D03*
D14*
X300863000Y-241681000D03*
D15*
X305943000Y-241681000D03*
D14*
X311023000Y-241681000D03*
D16*
X302133000Y-239141000D03*
X308483000Y-236601000D03*
D14*
X243713000Y-165481000D03*
D15*
X248793000Y-165481000D03*
D14*
X253873000Y-165481000D03*
D16*
X244983000Y-162941000D03*
X251333000Y-160401000D03*
D14*
X429514000Y-184531000D03*
D15*
X434594000Y-184531000D03*
D14*
X439674000Y-184531000D03*
D16*
X430784000Y-181991000D03*
X437134000Y-179451000D03*
D14*
X343789000Y-203581000D03*
D15*
X348869000Y-203581000D03*
D14*
X353949000Y-203581000D03*
D16*
X345059000Y-201041000D03*
X351409000Y-198501000D03*
D14*
X410464000Y-184531000D03*
D15*
X415544000Y-184531000D03*
D14*
X420624000Y-184531000D03*
D16*
X411734000Y-181991000D03*
X418084000Y-179451000D03*
D14*
X467614000Y-165481000D03*
D15*
X472694000Y-165481000D03*
D14*
X477774000Y-165481000D03*
D16*
X468884000Y-162941000D03*
X475234000Y-160401000D03*
D15*
X146410623Y-252500090D03*
D17*
X146410622Y-267740090D03*
X122598122Y-267740090D03*
D15*
X122598121Y-252500090D03*
D14*
X229489000Y-203581000D03*
D15*
X234569000Y-203581000D03*
D14*
X239649000Y-203581000D03*
D16*
X230759000Y-201041000D03*
X237109000Y-198501000D03*
D14*
X448564000Y-241681000D03*
D15*
X453644000Y-241681000D03*
D14*
X458724000Y-241681000D03*
D16*
X449834000Y-239141000D03*
X456184000Y-236601000D03*
D14*
X119893603Y-203604607D03*
D15*
X124973603Y-203604607D03*
D14*
X130053603Y-203604607D03*
D16*
X121163603Y-201064607D03*
X127513603Y-198524607D03*
D14*
X362839000Y-203581000D03*
D15*
X367919000Y-203581000D03*
D14*
X372999000Y-203581000D03*
D16*
X364109000Y-201041000D03*
X370459000Y-198501000D03*
D14*
X224663000Y-165481000D03*
D15*
X229743000Y-165481000D03*
D14*
X234823000Y-165481000D03*
D16*
X225933000Y-162941000D03*
X232283000Y-160401000D03*
D14*
X324739000Y-165481000D03*
D15*
X329819000Y-165481000D03*
D14*
X334899000Y-165481000D03*
D16*
X326009000Y-162941000D03*
X332359000Y-160401000D03*
D17*
X448859538Y-215646000D03*
D15*
X448859538Y-230886000D03*
D17*
X472672038Y-215646000D03*
D15*
X472672038Y-230886000D03*
D14*
X239014000Y-184531000D03*
D15*
X244094000Y-184531000D03*
D14*
X249174000Y-184531000D03*
D16*
X240284000Y-181991000D03*
X246634000Y-179451000D03*
D18*
X117453000Y-163021000D03*
D19*
X117453000Y-168021000D03*
X117453000Y-165521000D03*
D20*
X124953000Y-159921000D03*
X124953000Y-171121000D03*
D19*
X131953000Y-168021000D03*
X131953000Y-163021000D03*
D14*
X182123603Y-218209606D03*
D15*
X182123603Y-213129607D03*
D14*
X182123603Y-208049608D03*
D16*
X179583603Y-216939607D03*
X177043603Y-210589607D03*
D14*
X305689000Y-165481000D03*
D15*
X310769000Y-165481000D03*
D14*
X315849000Y-165481000D03*
D16*
X306959000Y-162941000D03*
X313309000Y-160401000D03*
D14*
X319913000Y-241681000D03*
D15*
X324993000Y-241681000D03*
D14*
X330073000Y-241681000D03*
D16*
X321183000Y-239141000D03*
X327533000Y-236601000D03*
D15*
X190373000Y-225044000D03*
D17*
X175133000Y-225043999D03*
X175133000Y-201231499D03*
D15*
X190373000Y-201231498D03*
D14*
X448564000Y-260731000D03*
D15*
X453644000Y-260731000D03*
D14*
X458724000Y-260731000D03*
D16*
X449834000Y-258191000D03*
X456184000Y-255651000D03*
D14*
X305689000Y-203581000D03*
D15*
X310769000Y-203581000D03*
D14*
X315849000Y-203581000D03*
D16*
X306959000Y-201041000D03*
X313309000Y-198501000D03*
D14*
X284226000Y-260731000D03*
D15*
X289306000Y-260731000D03*
D14*
X294386000Y-260731000D03*
D16*
X285496000Y-258191000D03*
X291846000Y-255651000D03*
D14*
X119893603Y-241704607D03*
D15*
X124973603Y-241704607D03*
D14*
X130053603Y-241704607D03*
D16*
X121163603Y-239164607D03*
X127513603Y-236624607D03*
D14*
X208026000Y-222631000D03*
D15*
X213106000Y-222631000D03*
D14*
X218186000Y-222631000D03*
D16*
X209296000Y-220091000D03*
X215646000Y-217551000D03*
D14*
X443865000Y-165481000D03*
D15*
X448945000Y-165481000D03*
D14*
X454025000Y-165481000D03*
D16*
X445135000Y-162941000D03*
X451485000Y-160401000D03*
D14*
X327102743Y-260734957D03*
D15*
X332182743Y-260734957D03*
D14*
X337262743Y-260734957D03*
D16*
X328372743Y-258194957D03*
X334722743Y-255654957D03*
D14*
X358013000Y-241681000D03*
D15*
X363093000Y-241681000D03*
D14*
X368173000Y-241681000D03*
D16*
X359283000Y-239141000D03*
X365633000Y-236601000D03*
D14*
X227032699Y-260723545D03*
D15*
X232112699Y-260723545D03*
D14*
X237192699Y-260723545D03*
D16*
X228302699Y-258183545D03*
X234652699Y-255643545D03*
D14*
X324739000Y-203581000D03*
D15*
X329819000Y-203581000D03*
D14*
X334899000Y-203581000D03*
D16*
X326009000Y-201041000D03*
X332359000Y-198501000D03*
D14*
X234229538Y-222631000D03*
D15*
X239309538Y-222631000D03*
D14*
X244389538Y-222631000D03*
D16*
X235499538Y-220091000D03*
X241849538Y-217551000D03*
D14*
X203218924Y-260726604D03*
D15*
X208298924Y-260726604D03*
D14*
X213378924Y-260726604D03*
D16*
X204488924Y-258186604D03*
X210838924Y-255646604D03*
D14*
X243713000Y-241681000D03*
D15*
X248793000Y-241681000D03*
D14*
X253873000Y-241681000D03*
D16*
X244983000Y-239141000D03*
X251333000Y-236601000D03*
D17*
X451276544Y-177545075D03*
D15*
X451276544Y-192785075D03*
D17*
X475089044Y-177545075D03*
D15*
X475089044Y-192785075D03*
D14*
X205664915Y-203583900D03*
D15*
X210744915Y-203583900D03*
D14*
X215824915Y-203583900D03*
D16*
X206934915Y-201043900D03*
X213284915Y-198503900D03*
D15*
X377444000Y-252476000D03*
D17*
X377443999Y-267716000D03*
X353631499Y-267716000D03*
D15*
X353631498Y-252476000D03*
D14*
X177043603Y-184554607D03*
D15*
X182123603Y-184554607D03*
D14*
X187203603Y-184554607D03*
D16*
X178313603Y-182014607D03*
X184663603Y-179474607D03*
D15*
X205930498Y-249936000D03*
D17*
X205930499Y-234696000D03*
X229742999Y-234696000D03*
D15*
X229743000Y-249936000D03*
D14*
X157993603Y-260754607D03*
D15*
X163073603Y-260754607D03*
D14*
X168153603Y-260754607D03*
D16*
X159263603Y-258214607D03*
X165613603Y-255674607D03*
D14*
X400939000Y-203581000D03*
D15*
X406019000Y-203581000D03*
D14*
X411099000Y-203581000D03*
D16*
X402209000Y-201041000D03*
X408559000Y-198501000D03*
D14*
X277114000Y-184531000D03*
D15*
X282194000Y-184531000D03*
D14*
X287274000Y-184531000D03*
D16*
X278384000Y-181991000D03*
X284734000Y-179451000D03*
D14*
X329479538Y-222631000D03*
D15*
X334559538Y-222631000D03*
D14*
X339639538Y-222631000D03*
D16*
X330749538Y-220091000D03*
X337099538Y-217551000D03*
D14*
X405765000Y-165481000D03*
D15*
X410845000Y-165481000D03*
D14*
X415925000Y-165481000D03*
D16*
X407035000Y-162941000D03*
X413385000Y-160401000D03*
D14*
X200914000Y-165481000D03*
D15*
X205994000Y-165481000D03*
D14*
X211074000Y-165481000D03*
D16*
X202184000Y-162941000D03*
X208534000Y-160401000D03*
D14*
X422315948Y-241676846D03*
D15*
X427395948Y-241676846D03*
D14*
X432475948Y-241676846D03*
D16*
X423585948Y-239136846D03*
X429935948Y-236596846D03*
D14*
X372364000Y-184531000D03*
D15*
X377444000Y-184531000D03*
D14*
X382524000Y-184531000D03*
D16*
X373634000Y-181991000D03*
X379984000Y-179451000D03*
D14*
X353314000Y-184531000D03*
D15*
X358394000Y-184531000D03*
D14*
X363474000Y-184531000D03*
D16*
X354584000Y-181991000D03*
X360934000Y-179451000D03*
D14*
X250843924Y-260726604D03*
D15*
X255923924Y-260726604D03*
D14*
X261003924Y-260726604D03*
D16*
X252113924Y-258186604D03*
X258463924Y-255646604D03*
D14*
X253279538Y-222631000D03*
D15*
X258359538Y-222631000D03*
D14*
X263439538Y-222631000D03*
D16*
X254549538Y-220091000D03*
X260899538Y-217551000D03*
D14*
X138943603Y-222654607D03*
D15*
X144023603Y-222654607D03*
D14*
X149103603Y-222654607D03*
D16*
X140213603Y-220114607D03*
X146563603Y-217574607D03*
D14*
X258064000Y-184531000D03*
D15*
X263144000Y-184531000D03*
D14*
X268224000Y-184531000D03*
D16*
X259334000Y-181991000D03*
X265684000Y-179451000D03*
D14*
X267589000Y-203581000D03*
D15*
X272669000Y-203581000D03*
D14*
X277749000Y-203581000D03*
D16*
X268859000Y-201041000D03*
X275209000Y-198501000D03*
D14*
X296164000Y-184531000D03*
D15*
X301244000Y-184531000D03*
D14*
X306324000Y-184531000D03*
D16*
X297434000Y-181991000D03*
X303784000Y-179451000D03*
D14*
X377063000Y-241681000D03*
D15*
X382143000Y-241681000D03*
D14*
X387223000Y-241681000D03*
D16*
X378333000Y-239141000D03*
X384683000Y-236601000D03*
D14*
X429514000Y-260731000D03*
D15*
X434594000Y-260731000D03*
D14*
X439674000Y-260731000D03*
D16*
X430784000Y-258191000D03*
X437134000Y-255651000D03*
D14*
X424815000Y-165481000D03*
D15*
X429895000Y-165481000D03*
D14*
X434975000Y-165481000D03*
D16*
X426085000Y-162941000D03*
X432435000Y-160401000D03*
D14*
X334264000Y-184531000D03*
D15*
X339344000Y-184531000D03*
D14*
X344424000Y-184531000D03*
D16*
X335534000Y-181991000D03*
X341884000Y-179451000D03*
D14*
X310429538Y-222631000D03*
D15*
X315509538Y-222631000D03*
D14*
X320589538Y-222631000D03*
D16*
X311699538Y-220091000D03*
X318049538Y-217551000D03*
D14*
X458089000Y-184531000D03*
D15*
X463169000Y-184531000D03*
D14*
X468249000Y-184531000D03*
D16*
X459359000Y-181991000D03*
X465709000Y-179451000D03*
D14*
X182143277Y-256332451D03*
D15*
X182143277Y-251252452D03*
D14*
X182143277Y-246172453D03*
D16*
X179603277Y-255062452D03*
X177063277Y-248712452D03*
D14*
X315214000Y-184531000D03*
D15*
X320294000Y-184531000D03*
D14*
X325374000Y-184531000D03*
D16*
X316484000Y-181991000D03*
X322834000Y-179451000D03*
D14*
X467614000Y-241681000D03*
D15*
X472694000Y-241681000D03*
D14*
X477774000Y-241681000D03*
D16*
X468884000Y-239141000D03*
X475234000Y-236601000D03*
D14*
X212725000Y-241681000D03*
D15*
X217805000Y-241681000D03*
D14*
X222885000Y-241681000D03*
D16*
X213995000Y-239141000D03*
X220345000Y-236601000D03*
D14*
X362839000Y-165481000D03*
D15*
X367919000Y-165481000D03*
D14*
X372999000Y-165481000D03*
D16*
X364109000Y-162941000D03*
X370459000Y-160401000D03*
D14*
X138943603Y-241704607D03*
D15*
X144023603Y-241704607D03*
D14*
X149103603Y-241704607D03*
D16*
X140213603Y-239164607D03*
X146563603Y-236624607D03*
D14*
X219964000Y-184531000D03*
D15*
X225044000Y-184531000D03*
D14*
X230124000Y-184531000D03*
D16*
X221234000Y-181991000D03*
X227584000Y-179451000D03*
D14*
X200914000Y-184531000D03*
D15*
X205994000Y-184531000D03*
D14*
X211074000Y-184531000D03*
D16*
X202184000Y-181991000D03*
X208534000Y-179451000D03*
D14*
X322358324Y-260729822D03*
D15*
X327438324Y-260729822D03*
D14*
X332518324Y-260729822D03*
D16*
X323628324Y-258189822D03*
X329978324Y-255649822D03*
D14*
X343789000Y-165481000D03*
D15*
X348869000Y-165481000D03*
D14*
X353949000Y-165481000D03*
D16*
X345059000Y-162941000D03*
X351409000Y-160401000D03*
D14*
X157993603Y-241704607D03*
D15*
X163073603Y-241704607D03*
D14*
X168153603Y-241704607D03*
D16*
X159263603Y-239164607D03*
X165613603Y-236624607D03*
D14*
X272329538Y-222631000D03*
D15*
X277409538Y-222631000D03*
D14*
X282489538Y-222631000D03*
D16*
X273599538Y-220091000D03*
X279949538Y-217551000D03*
D14*
X462849717Y-203579119D03*
D15*
X467929717Y-203579119D03*
D14*
X473009717Y-203579119D03*
D16*
X464119717Y-201039119D03*
X470469717Y-198499119D03*
D14*
X157993603Y-222654607D03*
D15*
X163073603Y-222654607D03*
D14*
X168153603Y-222654607D03*
D16*
X159263603Y-220114607D03*
X165613603Y-217574607D03*
D14*
X424729538Y-222631000D03*
D15*
X429809538Y-222631000D03*
D14*
X434889538Y-222631000D03*
D16*
X425999538Y-220091000D03*
X432349538Y-217551000D03*
D14*
X248539000Y-203581000D03*
D15*
X253619000Y-203581000D03*
D14*
X258699000Y-203581000D03*
D16*
X249809000Y-201041000D03*
X256159000Y-198501000D03*
D14*
X119893603Y-222654607D03*
D15*
X124973603Y-222654607D03*
D14*
X130053603Y-222654607D03*
D16*
X121163603Y-220114607D03*
X127513603Y-217574607D03*
D14*
X291379538Y-222631000D03*
D15*
X296459538Y-222631000D03*
D14*
X301539538Y-222631000D03*
D16*
X292649538Y-220091000D03*
X298999538Y-217551000D03*
D14*
X410464000Y-260731000D03*
D15*
X415544000Y-260731000D03*
D14*
X420624000Y-260731000D03*
D16*
X411734000Y-258191000D03*
X418084000Y-255651000D03*
D15*
X305982588Y-252479956D03*
D17*
X305982587Y-267719956D03*
X282170087Y-267719956D03*
D15*
X282170086Y-252479956D03*
D14*
X386715000Y-165481000D03*
D15*
X391795000Y-165481000D03*
D14*
X396875000Y-165481000D03*
D16*
X387985000Y-162941000D03*
X394335000Y-160401000D03*
D14*
X396113000Y-241681000D03*
D15*
X401193000Y-241681000D03*
D14*
X406273000Y-241681000D03*
D16*
X397383000Y-239141000D03*
X403733000Y-236601000D03*
D14*
X262763000Y-241681000D03*
D15*
X267843000Y-241681000D03*
D14*
X272923000Y-241681000D03*
D16*
X264033000Y-239141000D03*
X270383000Y-236601000D03*
D14*
X405679538Y-222631000D03*
D15*
X410759538Y-222631000D03*
D14*
X415839538Y-222631000D03*
D16*
X406949538Y-220091000D03*
X413299538Y-217551000D03*
D14*
X348529538Y-222631000D03*
D15*
X353609538Y-222631000D03*
D14*
X358689538Y-222631000D03*
D16*
X349799538Y-220091000D03*
X356149538Y-217551000D03*
D14*
X386629538Y-222631000D03*
D15*
X391709538Y-222631000D03*
D14*
X396789538Y-222631000D03*
D16*
X387899538Y-220091000D03*
X394249538Y-217551000D03*
D14*
X289002743Y-260734957D03*
D15*
X294082743Y-260734957D03*
D14*
X299162743Y-260734957D03*
D16*
X290272743Y-258194957D03*
X296622743Y-255654957D03*
D14*
X419989000Y-203581000D03*
D15*
X425069000Y-203581000D03*
D14*
X430149000Y-203581000D03*
D16*
X421259000Y-201041000D03*
X427609000Y-198501000D03*
D14*
X138943603Y-203604607D03*
D15*
X144023603Y-203604607D03*
D14*
X149103603Y-203604607D03*
D16*
X140213603Y-201064607D03*
X146563603Y-198524607D03*
D14*
X455717538Y-222631000D03*
D15*
X460797538Y-222631000D03*
D14*
X465877538Y-222631000D03*
D16*
X456987538Y-220091000D03*
X463337538Y-217551000D03*
D21*
X306070000Y-225932000D03*
X306070000Y-222632000D03*
X272669000Y-187706000D03*
X272669000Y-184406000D03*
D22*
X126112000Y-175006000D03*
X129412000Y-175006000D03*
D21*
X348869000Y-187705000D03*
X348869000Y-184405000D03*
X310769000Y-187705000D03*
X310769000Y-184405000D03*
X463169000Y-264032000D03*
X463169000Y-260732000D03*
X217805000Y-264032000D03*
X217805000Y-260732000D03*
X286893000Y-225932000D03*
X286893000Y-222632000D03*
X375031000Y-264032000D03*
X375031000Y-260732000D03*
X315468000Y-245109000D03*
X315468000Y-241809000D03*
X372618000Y-245109000D03*
X372618000Y-241809000D03*
X415544000Y-206882000D03*
X415544000Y-203582000D03*
D23*
X145135600Y-162509200D03*
X146960600Y-162509200D03*
D21*
X279781000Y-264032000D03*
X279781000Y-260732000D03*
X386969000Y-264032000D03*
X386969000Y-260732000D03*
X134493000Y-206881000D03*
X134493000Y-203581000D03*
X358394000Y-206882000D03*
X358394000Y-203582000D03*
D24*
X172281372Y-177545050D03*
X173571842Y-178835520D03*
D21*
X277368000Y-245109000D03*
X277368000Y-241809000D03*
D25*
X133856100Y-157988000D03*
X132031100Y-157988000D03*
D21*
X339394800Y-175053800D03*
X339394800Y-171753800D03*
X241681000Y-264032000D03*
X241681000Y-260732000D03*
X358457209Y-168906187D03*
X358457209Y-165606187D03*
X215528320Y-188064500D03*
X215528320Y-184764500D03*
D26*
X123697000Y-175006000D03*
X120397000Y-175006000D03*
D21*
X172593000Y-245109000D03*
X172593000Y-241809000D03*
X410718000Y-245109000D03*
X410718000Y-241809000D03*
D27*
X164795200Y-161901500D03*
X164795200Y-163726500D03*
D21*
X153543000Y-187959000D03*
X153543000Y-184659000D03*
D28*
X168401064Y-167580918D03*
X168966750Y-167015233D03*
X169532435Y-166449548D03*
X170098120Y-165883862D03*
X170663806Y-165318177D03*
X171229491Y-164752491D03*
X171795177Y-164186806D03*
X172360862Y-163621120D03*
X172926548Y-163055435D03*
X173492233Y-162489750D03*
X174057918Y-161924064D03*
D29*
X176462082Y-161924064D03*
X177027767Y-162489750D03*
X177593452Y-163055435D03*
X178159138Y-163621120D03*
X178724823Y-164186806D03*
X179290509Y-164752491D03*
X179856194Y-165318177D03*
X180421880Y-165883862D03*
X180987565Y-166449548D03*
X181553250Y-167015233D03*
X182118936Y-167580918D03*
D28*
X182118936Y-169985082D03*
X181553250Y-170550767D03*
X180987565Y-171116452D03*
X180421880Y-171682138D03*
X179856194Y-172247823D03*
X179290509Y-172813509D03*
X178724823Y-173379194D03*
X178159138Y-173944880D03*
X177593452Y-174510565D03*
X177027767Y-175076250D03*
X176462082Y-175641936D03*
D29*
X174057918Y-175641936D03*
X173492233Y-175076250D03*
X172926548Y-174510565D03*
X172360862Y-173944880D03*
X171795177Y-173379194D03*
X171229491Y-172813509D03*
X170663806Y-172247823D03*
X170098120Y-171682138D03*
X169532435Y-171116452D03*
X168966750Y-170550767D03*
X168401064Y-169985082D03*
D30*
X138080000Y-157869000D03*
X143860000Y-157869000D03*
D31*
X137720000Y-159314000D03*
X138519999Y-159314000D03*
D32*
X139720000Y-159313999D03*
X140720000Y-159314000D03*
X141220000Y-159314000D03*
X142220000Y-159313999D03*
D31*
X143420001Y-159314000D03*
X144220000Y-159314000D03*
X144220000Y-159314000D03*
X143420001Y-159314000D03*
D32*
X142720000Y-159314000D03*
X141720000Y-159314000D03*
X140220000Y-159314000D03*
X139220000Y-159314000D03*
D31*
X138519999Y-159314000D03*
X137720000Y-159314000D03*
D33*
X136650000Y-154219000D03*
D34*
X136650000Y-158399000D03*
D33*
X145290000Y-154219000D03*
D34*
X145290000Y-158399000D03*
D21*
X439293000Y-225932000D03*
X439293000Y-222632000D03*
D35*
X191643000Y-243968000D03*
X191643000Y-247268000D03*
D21*
X367919000Y-187705000D03*
X367919000Y-184405000D03*
X227330000Y-245109000D03*
X227330000Y-241809000D03*
X396494000Y-206882000D03*
X396494000Y-203582000D03*
D25*
X168757600Y-163525200D03*
X166932600Y-163525200D03*
D21*
X451231000Y-225932000D03*
X451231000Y-222632000D03*
X453517000Y-206882000D03*
X453517000Y-203582000D03*
X172720000Y-231393000D03*
X172720000Y-228093000D03*
X258368800Y-175054800D03*
X258368800Y-171754800D03*
X239318800Y-175054800D03*
X239318800Y-171754800D03*
X453644000Y-187705000D03*
X453644000Y-184405000D03*
X291719000Y-187705000D03*
X291719000Y-184405000D03*
X225044000Y-206882000D03*
X225044000Y-203582000D03*
X391922000Y-245108000D03*
X391922000Y-241808000D03*
X320294000Y-206882000D03*
X320294000Y-203582000D03*
X153543000Y-263015000D03*
X153543000Y-259715000D03*
X134493000Y-187958000D03*
X134493000Y-184658000D03*
X434594000Y-206882000D03*
X434594000Y-203582000D03*
X382143000Y-225932000D03*
X382143000Y-222632000D03*
X258318000Y-245108000D03*
X258318000Y-241808000D03*
D27*
X145237200Y-172163100D03*
X145237200Y-173988100D03*
D36*
X183809565Y-172298435D03*
X185100035Y-171007965D03*
D21*
X234578320Y-188064500D03*
X234578320Y-184764500D03*
X444119000Y-187705000D03*
X444119000Y-184405000D03*
X320344800Y-175053800D03*
X320344800Y-171753800D03*
X277418800Y-175054800D03*
X277418800Y-171754800D03*
X463169000Y-168909000D03*
X463169000Y-165609000D03*
X222631000Y-225932000D03*
X222631000Y-222632000D03*
X339344000Y-206882000D03*
X339344000Y-203582000D03*
D37*
X192469500Y-159877500D03*
X190269500Y-159877500D03*
X190269500Y-158177500D03*
X192469500Y-158177500D03*
D24*
X165318365Y-170093565D03*
X166608835Y-171384035D03*
X180456765Y-159605265D03*
X181747235Y-160895735D03*
D23*
X145135600Y-164541200D03*
X146960600Y-164541200D03*
D21*
X191643000Y-187959000D03*
X191643000Y-184659000D03*
X363220000Y-225932000D03*
X363220000Y-222632000D03*
X420370000Y-168909000D03*
X420370000Y-165609000D03*
X406019000Y-264032000D03*
X406019000Y-260732000D03*
X377444000Y-168909000D03*
X377444000Y-165609000D03*
D38*
X141439200Y-162525200D03*
D39*
X143139200Y-162525200D03*
X143139200Y-164525200D03*
X141239200Y-164525200D03*
D21*
X267970000Y-225932000D03*
X267970000Y-222632000D03*
X377444000Y-206882000D03*
X377444000Y-203582000D03*
D35*
X173990000Y-206884000D03*
X173990000Y-210184000D03*
D21*
X444119000Y-264032000D03*
X444119000Y-260732000D03*
X401320000Y-168909000D03*
X401320000Y-165609000D03*
X296418000Y-245109000D03*
X296418000Y-241809000D03*
X334518000Y-245109000D03*
X334518000Y-241809000D03*
X296468800Y-175053800D03*
X296468800Y-171753800D03*
X153543000Y-245109000D03*
X153543000Y-241809000D03*
D40*
X150491800Y-158394400D03*
X153466800Y-158394400D03*
D21*
X458470000Y-168909000D03*
X458470000Y-165609000D03*
X443992000Y-245109000D03*
X443992000Y-241809000D03*
X263144000Y-206881000D03*
X263144000Y-203581000D03*
X215569800Y-175054800D03*
X215569800Y-171754800D03*
D41*
X142621000Y-170290000D03*
X136421000Y-170290000D03*
X142621000Y-173990000D03*
X136421000Y-173990000D03*
D21*
X318008000Y-264032000D03*
X318008000Y-260732000D03*
X344043000Y-225932000D03*
X344043000Y-222632000D03*
D27*
X147726400Y-157939100D03*
X147726400Y-159764100D03*
D21*
X134493000Y-245108000D03*
X134493000Y-241808000D03*
D27*
X194671501Y-158115000D03*
X194671501Y-159940000D03*
D21*
X329819000Y-187706000D03*
X329819000Y-184406000D03*
X265430000Y-264032000D03*
X265430000Y-260732000D03*
X134493000Y-231393000D03*
X134493000Y-228093000D03*
X420243000Y-225932000D03*
X420243000Y-222632000D03*
X153543000Y-231393000D03*
X153543000Y-228093000D03*
X248793000Y-225932000D03*
X248793000Y-222632000D03*
X425069000Y-264032000D03*
X425069000Y-260732000D03*
X439420000Y-168909000D03*
X439420000Y-165609000D03*
X401193000Y-225932000D03*
X401193000Y-222632000D03*
X282194000Y-206882000D03*
X282194000Y-203582000D03*
D42*
X188044001Y-159940000D03*
X188044001Y-158115000D03*
D21*
X303530000Y-264032000D03*
X303530000Y-260732000D03*
X353441000Y-245109000D03*
X353441000Y-241809000D03*
X341757000Y-264032000D03*
X341757000Y-260732000D03*
X463169000Y-245109000D03*
X463169000Y-241809000D03*
X386969000Y-187705000D03*
X386969000Y-184405000D03*
X254000000Y-187706000D03*
X254000000Y-184406000D03*
X301244000Y-206882000D03*
X301244000Y-203582000D03*
X324993000Y-225932000D03*
X324993000Y-222632000D03*
X153543000Y-206882000D03*
X153543000Y-203582000D03*
X171196000Y-206882000D03*
X171196000Y-203582000D03*
X144034910Y-263009410D03*
X144034910Y-259709410D03*
X244094000Y-206882000D03*
X244094000Y-203582000D03*
X417957000Y-245109000D03*
X417957000Y-241809000D03*
X172593000Y-187959000D03*
X172593000Y-184659000D03*
X425069000Y-187705000D03*
X425069000Y-184405000D03*
X458470000Y-206882000D03*
X458470000Y-203582000D03*
X406146000Y-187705000D03*
X406146000Y-184405000D03*
M02*
