M48
; DRILL file {KiCad 8.0.0} date 2024-11-20T19:59:13-0800
; FORMAT={-:-/ absolute / inch / decimal}
; #@! TF.CreationDate,2024-11-20T19:59:13-08:00
; #@! TF.GenerationSoftware,Kicad,Pcbnew,8.0.0
; #@! TF.FileFunction,Plated,1,2,PTH
FMAT,2
INCH
; #@! TA.AperFunction,Plated,PTH,ViaDrill
T1C0.0118
; #@! TA.AperFunction,Plated,PTH,ViaDrill
T2C0.0157
; #@! TA.AperFunction,Plated,PTH,ComponentDrill
T3C0.0236
; #@! TA.AperFunction,Plated,PTH,ComponentDrill
T4C0.0394
; #@! TA.AperFunction,Plated,PTH,ComponentDrill
T5C0.0591
; #@! TA.AperFunction,Plated,PTH,ComponentDrill
T6C0.0600
%
G90
G05
T1
X6.375Y-5.325
X6.52Y-5.135
X6.52Y-6.63
X6.595Y-5.575
X6.6241Y-5.7673
X6.685Y-5.165
X6.695Y-7.795
X6.79Y-7.795
X6.795Y-5.225
X6.835Y-6.27
X6.91Y-5.44
X6.925Y-6.77
X6.965Y-5.227
X7.01Y-7.925
X7.12Y-5.88
X7.16Y-6.055
X7.23Y-5.92
X7.37Y-5.93
X7.375Y-6.195
X7.44Y-7.795
X7.485Y-7.08
X7.54Y-7.795
X7.57Y-6.235
X7.575Y-5.265
X7.59Y-5.72
X7.6864Y-7.6479
X8.49Y-7.6464
X10.22Y-8.55
X12.96Y-7.945
X18.61Y-8.545
X18.915Y-6.44
T2
X6.7983Y-6.0002
X6.862Y-6.1416
X7.0211Y-5.9047
X7.0952Y-6.025
X7.1596Y-6.22
X7.1731Y-5.9153
X7.2403Y-6.2511
T4
X6.4446Y-7.3566
X6.4446Y-7.455
X6.4446Y-7.5534
X6.4446Y-8.1066
X6.4446Y-8.205
X6.4446Y-8.3034
X7.0154Y-7.3566
X7.0154Y-7.5534
X7.0154Y-8.1066
X7.0154Y-8.3034
X7.1946Y-7.3566
X7.1946Y-7.455
X7.1946Y-7.5534
X7.1946Y-8.1066
X7.1946Y-8.205
X7.1946Y-8.3034
X7.7654Y-7.3566
X7.7654Y-7.5534
X7.7654Y-8.1066
X7.7654Y-8.3034
T6
X8.05Y-5.2
X8.1436Y-8.2001
X8.2375Y-5.95
X8.3Y-5.1
X8.331Y-6.7
X8.3936Y-8.1001
X8.4875Y-5.85
X8.5183Y-7.4501
X8.581Y-6.6
X8.7683Y-7.3501
X8.8Y-5.2
X9.05Y-5.1
X9.081Y-8.2001
X9.1745Y-5.95
X9.331Y-8.1001
X9.3619Y-6.7001
X9.4245Y-5.85
X9.55Y-5.2
X9.6119Y-6.6001
X9.7371Y-7.4501
X9.8Y-5.1
X9.9245Y-5.95
X9.9871Y-7.3501
X10.0187Y-8.2001
X10.1119Y-6.7001
X10.1745Y-5.85
X10.2687Y-8.1001
X10.3Y-5.2
X10.3619Y-6.6001
X10.4871Y-7.4501
X10.55Y-5.1
X10.6745Y-5.95
X10.7371Y-7.3501
X10.8619Y-6.7001
X10.9245Y-5.85
X11.05Y-5.2
X11.1119Y-6.6001
X11.2371Y-7.4501
X11.3Y-5.1
X11.331Y-8.2001
X11.4245Y-5.95
X11.4871Y-7.3501
X11.581Y-8.1001
X11.6119Y-6.7001
X11.6745Y-5.85
X11.8Y-5.2
X11.8619Y-6.6001
X11.9871Y-7.4501
X12.05Y-5.1
X12.1745Y-5.95
X12.2371Y-7.3501
X12.3619Y-6.7001
X12.4245Y-5.85
X12.55Y-5.2
X12.6119Y-6.6001
X12.7371Y-7.4501
X12.8Y-5.1
X12.831Y-8.2001
X12.9245Y-5.95
X12.9871Y-7.3501
X13.081Y-8.1001
X13.1119Y-6.7001
X13.1745Y-5.85
X13.3Y-5.2
X13.3619Y-6.6001
X13.4871Y-7.4501
X13.55Y-5.1
X13.6745Y-5.95
X13.7371Y-7.3501
X13.8619Y-6.7001
X13.9245Y-5.85
X14.05Y-5.2
X14.1119Y-6.6001
X14.2371Y-7.4501
X14.3Y-5.1
X14.331Y-8.2001
X14.4245Y-5.95
X14.4871Y-7.3501
X14.581Y-8.1001
X14.6119Y-6.7001
X14.6745Y-5.85
X14.8Y-5.2
X14.8619Y-6.6001
X14.9871Y-7.4501
X15.05Y-5.1
X15.1745Y-5.95
X15.2371Y-7.3501
X15.3619Y-6.7001
X15.4245Y-5.85
X15.55Y-5.2
X15.55Y-8.2002
X15.6119Y-6.6001
X15.7371Y-7.4501
X15.8Y-5.1
X15.8Y-8.1002
X15.9245Y-5.95
X15.9871Y-7.3501
X16.1119Y-6.7001
X16.1745Y-5.85
X16.3Y-5.2
X16.3Y-8.2002
X16.3619Y-6.6001
X16.55Y-5.1
X16.55Y-8.1002
X16.6745Y-5.95
X16.7681Y-7.4502
X16.8619Y-6.7001
X16.9245Y-5.85
X17.0181Y-7.3502
X17.05Y-5.2
X17.05Y-8.2002
X17.1119Y-6.6001
X17.3Y-5.1
X17.3Y-8.1002
X17.4245Y-5.95
X17.6745Y-5.85
X17.8Y-7.45
X17.8Y-8.2002
X18.05Y-7.35
X18.05Y-8.1002
X18.0809Y-6.7001
X18.175Y-5.2
X18.3309Y-6.6001
X18.3625Y-5.9502
X18.425Y-5.1
X18.55Y-7.45
X18.55Y-8.2002
X18.6125Y-5.8502
X18.8Y-7.35
X18.8Y-8.1002
T3
G00X6.9049Y-4.8955
M15
G01X6.9049Y-4.8719
M16
G05
G00X6.9049Y-5.0699
M15
G01X6.9049Y-5.0266
M16
G05
G00X7.2451Y-4.8955
M15
G01X7.2451Y-4.8719
M16
G05
G00X7.2451Y-5.0699
M15
G01X7.2451Y-5.0266
M16
G05
T5
G00X6.7143Y-7.2345
M15
G01X6.7654Y-7.2345
M16
G05
G00X6.7143Y-7.6755
M15
G01X6.7654Y-7.6755
M16
G05
G00X6.7143Y-7.9845
M15
G01X6.7654Y-7.9845
M16
G05
G00X6.7143Y-8.4255
M15
G01X6.7654Y-8.4255
M16
G05
G00X7.4643Y-7.2345
M15
G01X7.5154Y-7.2345
M16
G05
G00X7.4643Y-7.6755
M15
G01X7.5154Y-7.6755
M16
G05
G00X7.4643Y-7.9845
M15
G01X7.5154Y-7.9845
M16
G05
G00X7.4643Y-8.4255
M15
G01X7.5154Y-8.4255
M16
G05
M30
