%TF.GenerationSoftware,KiCad,Pcbnew,8.0.0*%
%TF.CreationDate,2024-11-20T19:58:16-08:00*%
%TF.ProjectId,Hampter1.3,48616d70-7465-4723-912e-332e6b696361,rev?*%
%TF.SameCoordinates,Original*%
%TF.FileFunction,Soldermask,Bot*%
%TF.FilePolarity,Negative*%
%FSLAX46Y46*%
G04 Gerber Fmt 4.6, Leading zero omitted, Abs format (unit mm)*
G04 Created by KiCad (PCBNEW 8.0.0) date 2024-11-20 19:58:16*
%MOMM*%
%LPD*%
G01*
G04 APERTURE LIST*
%ADD10C,1.750000*%
%ADD11C,3.987800*%
%ADD12C,2.300000*%
%ADD13C,3.048000*%
%ADD14R,2.000000X2.000000*%
%ADD15C,2.000000*%
%ADD16R,3.200000X2.000000*%
%ADD17C,0.650000*%
%ADD18O,1.000000X2.100000*%
%ADD19O,1.000000X1.600000*%
G04 APERTURE END LIST*
D10*
%TO.C,SW3_7*%
X360351244Y-191773449D03*
D11*
X365431244Y-191773449D03*
D10*
X370511244Y-191773449D03*
D12*
X361621244Y-189233449D03*
X367971244Y-186693449D03*
%TD*%
D13*
%TO.C,S1*%
X208268744Y-184788449D03*
D11*
X208268744Y-200028449D03*
D13*
X232081244Y-184788449D03*
D11*
X232081244Y-200028449D03*
%TD*%
D10*
%TO.C,SW2_1*%
X236523086Y-172722587D03*
D11*
X241603086Y-172722587D03*
D10*
X246683086Y-172722587D03*
D12*
X237793086Y-170182587D03*
X244143086Y-167642587D03*
%TD*%
D10*
%TO.C,SW0_10*%
X393700000Y-134620000D03*
D11*
X398780000Y-134620000D03*
D10*
X403860000Y-134620000D03*
D12*
X394970000Y-132080000D03*
X401320000Y-129540000D03*
%TD*%
D10*
%TO.C,SW3_3*%
X284151244Y-191773449D03*
D11*
X289231244Y-191773449D03*
D10*
X294311244Y-191773449D03*
D12*
X285421244Y-189233449D03*
X291771244Y-186693449D03*
%TD*%
D10*
%TO.C,SW2_0*%
X210337400Y-172720000D03*
D11*
X215417400Y-172720000D03*
D10*
X220497400Y-172720000D03*
D12*
X211607400Y-170180000D03*
X217957400Y-167640000D03*
%TD*%
D10*
%TO.C,SW0_0*%
X203200000Y-134620000D03*
D11*
X208280000Y-134620000D03*
D10*
X213360000Y-134620000D03*
D12*
X204470000Y-132080000D03*
X210820000Y-129540000D03*
%TD*%
D10*
%TO.C,SW1_3*%
X269862471Y-153670000D03*
D11*
X274942471Y-153670000D03*
D10*
X280022471Y-153670000D03*
D12*
X271132471Y-151130000D03*
X277482471Y-148590000D03*
%TD*%
D14*
%TO.C,SW2*%
X163692000Y-186857000D03*
D15*
X163692000Y-191857000D03*
X163692000Y-189357000D03*
D16*
X171192000Y-183757000D03*
X171192000Y-194957000D03*
D15*
X178192000Y-191857000D03*
X178192000Y-186857000D03*
%TD*%
D10*
%TO.C,SW2_5*%
X312723086Y-172722587D03*
D11*
X317803086Y-172722587D03*
D10*
X322883086Y-172722587D03*
D12*
X313993086Y-170182587D03*
X320343086Y-167642587D03*
%TD*%
D10*
%TO.C,SW2_6*%
X331773086Y-172722587D03*
D11*
X336853086Y-172722587D03*
D10*
X341933086Y-172722587D03*
D12*
X333043086Y-170182587D03*
X339393086Y-167642587D03*
%TD*%
D10*
%TO.C,SW0_9*%
X374650000Y-134620000D03*
D11*
X379730000Y-134620000D03*
D10*
X384810000Y-134620000D03*
D12*
X375920000Y-132080000D03*
X382270000Y-129540000D03*
%TD*%
D10*
%TO.C,SW2_9*%
X388923086Y-172722587D03*
D11*
X394003086Y-172722587D03*
D10*
X399083086Y-172722587D03*
D12*
X390193086Y-170182587D03*
X396543086Y-167642587D03*
%TD*%
D10*
%TO.C,SW1_4*%
X288912471Y-153670000D03*
D11*
X293992471Y-153670000D03*
D10*
X299072471Y-153670000D03*
D12*
X290182471Y-151130000D03*
X296532471Y-148590000D03*
%TD*%
D10*
%TO.C,SW1_9*%
X384162471Y-153670000D03*
D11*
X389242471Y-153670000D03*
D10*
X394322471Y-153670000D03*
D12*
X385432471Y-151130000D03*
X391782471Y-148590000D03*
%TD*%
D10*
%TO.C,SW3_2*%
X265101244Y-191773449D03*
D11*
X270181244Y-191773449D03*
D10*
X275261244Y-191773449D03*
D12*
X266371244Y-189233449D03*
X272721244Y-186693449D03*
%TD*%
D10*
%TO.C,SW0_4*%
X279400000Y-134620000D03*
D11*
X284480000Y-134620000D03*
D10*
X289560000Y-134620000D03*
D12*
X280670000Y-132080000D03*
X287020000Y-129540000D03*
%TD*%
D10*
%TO.C,SW4_7*%
X412750000Y-210825898D03*
D11*
X417830000Y-210825898D03*
D10*
X422910000Y-210825898D03*
D12*
X414020000Y-208285898D03*
X420370000Y-205745898D03*
%TD*%
D14*
%TO.C,SW5*%
X182742000Y-205907000D03*
D15*
X182742000Y-210907000D03*
X182742000Y-208407000D03*
D16*
X190242000Y-202807000D03*
X190242000Y-214007000D03*
D15*
X197242000Y-210907000D03*
X197242000Y-205907000D03*
%TD*%
D14*
%TO.C,SW3*%
X182742000Y-186857000D03*
D15*
X182742000Y-191857000D03*
X182742000Y-189357000D03*
D16*
X190242000Y-183757000D03*
X190242000Y-194957000D03*
D15*
X197242000Y-191857000D03*
X197242000Y-186857000D03*
%TD*%
D10*
%TO.C,SW2_2*%
X255573086Y-172722587D03*
D11*
X260653086Y-172722587D03*
D10*
X265733086Y-172722587D03*
D12*
X256843086Y-170182587D03*
X263193086Y-167642587D03*
%TD*%
D10*
%TO.C,SW1_8*%
X365112471Y-153670000D03*
D11*
X370192471Y-153670000D03*
D10*
X375272471Y-153670000D03*
D12*
X366382471Y-151130000D03*
X372732471Y-148590000D03*
%TD*%
D10*
%TO.C,SW0_1*%
X222250000Y-134620000D03*
D11*
X227330000Y-134620000D03*
D10*
X232410000Y-134620000D03*
D12*
X223520000Y-132080000D03*
X229870000Y-129540000D03*
%TD*%
D10*
%TO.C,SW4_3*%
X286538311Y-210822449D03*
D11*
X291618311Y-210822449D03*
D10*
X296698311Y-210822449D03*
D12*
X287808311Y-208282449D03*
X294158311Y-205742449D03*
%TD*%
D17*
%TO.C,J1*%
X182595000Y-127695000D03*
X176815000Y-127695000D03*
D18*
X184025000Y-128225000D03*
D19*
X184025000Y-124045000D03*
D18*
X175385000Y-128225000D03*
D19*
X175385000Y-124045000D03*
%TD*%
D10*
%TO.C,SW1_5*%
X307962471Y-153670000D03*
D11*
X313042471Y-153670000D03*
D10*
X318122471Y-153670000D03*
D12*
X309232471Y-151130000D03*
X315582471Y-148590000D03*
%TD*%
D10*
%TO.C,SW2_8*%
X369873086Y-172722587D03*
D11*
X374953086Y-172722587D03*
D10*
X380033086Y-172722587D03*
D12*
X371143086Y-170182587D03*
X377493086Y-167642587D03*
%TD*%
D10*
%TO.C,SW2_11*%
X427023086Y-172722587D03*
D11*
X432103086Y-172722587D03*
D10*
X437183086Y-172722587D03*
D12*
X428293086Y-170182587D03*
X434643086Y-167642587D03*
%TD*%
D10*
%TO.C,SW0_6*%
X317500000Y-134620000D03*
D11*
X322580000Y-134620000D03*
D10*
X327660000Y-134620000D03*
D12*
X318770000Y-132080000D03*
X325120000Y-129540000D03*
%TD*%
D13*
%TO.C,S2*%
X451159436Y-165737587D03*
D11*
X451159436Y-180977587D03*
D13*
X474971936Y-165737587D03*
D11*
X474971936Y-180977587D03*
%TD*%
D10*
%TO.C,SW2_7*%
X350823086Y-172722587D03*
D11*
X355903086Y-172722587D03*
D10*
X360983086Y-172722587D03*
D12*
X352093086Y-170182587D03*
X358443086Y-167642587D03*
%TD*%
D10*
%TO.C,SW3_5*%
X322251244Y-191773449D03*
D11*
X327331244Y-191773449D03*
D10*
X332411244Y-191773449D03*
D12*
X323521244Y-189233449D03*
X329871244Y-186693449D03*
%TD*%
D10*
%TO.C,SW3_6*%
X341301244Y-191773449D03*
D11*
X346381244Y-191773449D03*
D10*
X351461244Y-191773449D03*
D12*
X342571244Y-189233449D03*
X348921244Y-186693449D03*
%TD*%
D10*
%TO.C,SW0_12*%
X431800000Y-134620000D03*
D11*
X436880000Y-134620000D03*
D10*
X441960000Y-134620000D03*
D12*
X433070000Y-132080000D03*
X439420000Y-129540000D03*
%TD*%
D10*
%TO.C,SW3_4*%
X303201244Y-191773449D03*
D11*
X308281244Y-191773449D03*
D10*
X313361244Y-191773449D03*
D12*
X304471244Y-189233449D03*
X310821244Y-186693449D03*
%TD*%
D10*
%TO.C,SW4_10*%
X469900000Y-210825898D03*
D11*
X474980000Y-210825898D03*
D10*
X480060000Y-210825898D03*
D12*
X471170000Y-208285898D03*
X477520000Y-205745898D03*
%TD*%
D10*
%TO.C,SW2_3*%
X274623086Y-172722587D03*
D11*
X279703086Y-172722587D03*
D10*
X284783086Y-172722587D03*
D12*
X275893086Y-170182587D03*
X282243086Y-167642587D03*
%TD*%
D10*
%TO.C,SW1_10*%
X403212471Y-153670000D03*
D11*
X408292471Y-153670000D03*
D10*
X413372471Y-153670000D03*
D12*
X404482471Y-151130000D03*
X410832471Y-148590000D03*
%TD*%
D10*
%TO.C,SW1_11*%
X422262471Y-153670000D03*
D11*
X427342471Y-153670000D03*
D10*
X432422471Y-153670000D03*
D12*
X423532471Y-151130000D03*
X429882471Y-148590000D03*
%TD*%
D10*
%TO.C,SW3_11*%
X450850000Y-191770000D03*
D11*
X455930000Y-191770000D03*
D10*
X461010000Y-191770000D03*
D12*
X452120000Y-189230000D03*
X458470000Y-186690000D03*
%TD*%
D11*
%TO.C,S4*%
X379724562Y-202567449D03*
D13*
X379724561Y-217807449D03*
X355912061Y-217807449D03*
D11*
X355912060Y-202567449D03*
%TD*%
D10*
%TO.C,SW4_5*%
X362738311Y-210822449D03*
D11*
X367818311Y-210822449D03*
D10*
X372898311Y-210822449D03*
D12*
X364008311Y-208282449D03*
X370358311Y-205742449D03*
%TD*%
D10*
%TO.C,SW0_7*%
X336550000Y-134620000D03*
D11*
X341630000Y-134620000D03*
D10*
X346710000Y-134620000D03*
D12*
X337820000Y-132080000D03*
X344170000Y-129540000D03*
%TD*%
D10*
%TO.C,SW4_9*%
X450850000Y-210825898D03*
D11*
X455930000Y-210825898D03*
D10*
X461010000Y-210825898D03*
D12*
X452120000Y-208285898D03*
X458470000Y-205745898D03*
%TD*%
D10*
%TO.C,SW3_10*%
X424640055Y-191775173D03*
D11*
X429720055Y-191775173D03*
D10*
X434800055Y-191775173D03*
D12*
X425910055Y-189235173D03*
X432260055Y-186695173D03*
%TD*%
D10*
%TO.C,SW3_1*%
X246051244Y-191773449D03*
D11*
X251131244Y-191773449D03*
D10*
X256211244Y-191773449D03*
D12*
X247321244Y-189233449D03*
X253671244Y-186693449D03*
%TD*%
D14*
%TO.C,SW4*%
X163692000Y-205907000D03*
D15*
X163692000Y-210907000D03*
X163692000Y-208407000D03*
D16*
X171192000Y-202807000D03*
X171192000Y-214007000D03*
D15*
X178192000Y-210907000D03*
X178192000Y-205907000D03*
%TD*%
D10*
%TO.C,SW3_8*%
X379401244Y-191773449D03*
D11*
X384481244Y-191773449D03*
D10*
X389561244Y-191773449D03*
D12*
X380671244Y-189233449D03*
X387021244Y-186693449D03*
%TD*%
D10*
%TO.C,SW0_11*%
X412750000Y-134620000D03*
D11*
X417830000Y-134620000D03*
D10*
X422910000Y-134620000D03*
D12*
X414020000Y-132080000D03*
X420370000Y-129540000D03*
%TD*%
D10*
%TO.C,SW1_1*%
X231762471Y-153670000D03*
D11*
X236842471Y-153670000D03*
D10*
X241922471Y-153670000D03*
D12*
X233032471Y-151130000D03*
X239382471Y-148590000D03*
%TD*%
D10*
%TO.C,SW0_2*%
X241300000Y-134620000D03*
D11*
X246380000Y-134620000D03*
D10*
X251460000Y-134620000D03*
D12*
X242570000Y-132080000D03*
X248920000Y-129540000D03*
%TD*%
D10*
%TO.C,SW2_4*%
X293673086Y-172722587D03*
D11*
X298753086Y-172722587D03*
D10*
X303833086Y-172722587D03*
D12*
X294943086Y-170182587D03*
X301293086Y-167642587D03*
%TD*%
D10*
%TO.C,SW4_0*%
X205576730Y-210822449D03*
D11*
X210656730Y-210822449D03*
D10*
X215736730Y-210822449D03*
D12*
X206846730Y-208282449D03*
X213196730Y-205742449D03*
%TD*%
D10*
%TO.C,SW4_1*%
X229388311Y-210822449D03*
D11*
X234468311Y-210822449D03*
D10*
X239548311Y-210822449D03*
D12*
X230658311Y-208282449D03*
X237008311Y-205742449D03*
%TD*%
D10*
%TO.C,SW4_2*%
X253205290Y-210822449D03*
D11*
X258285290Y-210822449D03*
D10*
X263365290Y-210822449D03*
D12*
X254475290Y-208282449D03*
X260825290Y-205742449D03*
%TD*%
D10*
%TO.C,SW3_9*%
X398451244Y-191773449D03*
D11*
X403531244Y-191773449D03*
D10*
X408611244Y-191773449D03*
D12*
X399721244Y-189233449D03*
X406071244Y-186693449D03*
%TD*%
D10*
%TO.C,SW1_0*%
X207962671Y-153670000D03*
D11*
X213042671Y-153670000D03*
D10*
X218122671Y-153670000D03*
D12*
X209232671Y-151130000D03*
X215582671Y-148590000D03*
%TD*%
D10*
%TO.C,SW2_12*%
X457985686Y-172722587D03*
D11*
X463065686Y-172722587D03*
D10*
X468145686Y-172722587D03*
D12*
X459255686Y-170182587D03*
X465605686Y-167642587D03*
%TD*%
D10*
%TO.C,SW4_8*%
X431800000Y-210825898D03*
D11*
X436880000Y-210825898D03*
D10*
X441960000Y-210825898D03*
D12*
X433070000Y-208285898D03*
X439420000Y-205745898D03*
%TD*%
D10*
%TO.C,SW1_7*%
X346062471Y-153670000D03*
D11*
X351142471Y-153670000D03*
D10*
X356222471Y-153670000D03*
D12*
X347332471Y-151130000D03*
X353682471Y-148590000D03*
%TD*%
D10*
%TO.C,SW4_6*%
X393700000Y-210825898D03*
D11*
X398780000Y-210825898D03*
D10*
X403860000Y-210825898D03*
D12*
X394970000Y-208285898D03*
X401320000Y-205745898D03*
%TD*%
D13*
%TO.C,S5*%
X453548750Y-127635000D03*
D11*
X453548750Y-142875000D03*
D13*
X477361250Y-127635000D03*
D11*
X477361250Y-142875000D03*
%TD*%
D10*
%TO.C,SW3_0*%
X215094994Y-191773449D03*
D11*
X220174994Y-191773449D03*
D10*
X225254994Y-191773449D03*
D12*
X216364994Y-189233449D03*
X222714994Y-186693449D03*
%TD*%
D10*
%TO.C,SW3_12*%
X469900000Y-191770000D03*
D11*
X474980000Y-191770000D03*
D10*
X480060000Y-191770000D03*
D12*
X471170000Y-189230000D03*
X477520000Y-186690000D03*
%TD*%
D10*
%TO.C,SW0_3*%
X260350000Y-134620000D03*
D11*
X265430000Y-134620000D03*
D10*
X270510000Y-134620000D03*
D12*
X261620000Y-132080000D03*
X267970000Y-129540000D03*
%TD*%
D10*
%TO.C,SW0_13*%
X460375000Y-134620000D03*
D11*
X465455000Y-134620000D03*
D10*
X470535000Y-134620000D03*
D12*
X461645000Y-132080000D03*
X467995000Y-129540000D03*
%TD*%
D10*
%TO.C,SW4_4*%
X324638311Y-210822449D03*
D11*
X329718311Y-210822449D03*
D10*
X334798311Y-210822449D03*
D12*
X325908311Y-208282449D03*
X332258311Y-205742449D03*
%TD*%
D10*
%TO.C,SW1_6*%
X327012471Y-153670000D03*
D11*
X332092471Y-153670000D03*
D10*
X337172471Y-153670000D03*
D12*
X328282471Y-151130000D03*
X334632471Y-148590000D03*
%TD*%
D10*
%TO.C,SW1_12*%
X441312471Y-153670000D03*
D11*
X446392471Y-153670000D03*
D10*
X451472471Y-153670000D03*
D12*
X442582471Y-151130000D03*
X448932471Y-148590000D03*
%TD*%
D10*
%TO.C,SW1_2*%
X250812471Y-153670000D03*
D11*
X255892471Y-153670000D03*
D10*
X260972471Y-153670000D03*
D12*
X252082471Y-151130000D03*
X258432471Y-148590000D03*
%TD*%
D11*
%TO.C,S3*%
X303524562Y-202567449D03*
D13*
X303524561Y-217807449D03*
X279712061Y-217807449D03*
D11*
X279712060Y-202567449D03*
%TD*%
D10*
%TO.C,SW2_10*%
X407973086Y-172722587D03*
D11*
X413053086Y-172722587D03*
D10*
X418133086Y-172722587D03*
D12*
X409243086Y-170182587D03*
X415593086Y-167642587D03*
%TD*%
D10*
%TO.C,SW1_13*%
X465138149Y-153676070D03*
D11*
X470218149Y-153676070D03*
D10*
X475298149Y-153676070D03*
D12*
X466408149Y-151136070D03*
X472758149Y-148596070D03*
%TD*%
D10*
%TO.C,SW0_5*%
X298450000Y-134620000D03*
D11*
X303530000Y-134620000D03*
D10*
X308610000Y-134620000D03*
D12*
X299720000Y-132080000D03*
X306070000Y-129540000D03*
%TD*%
D10*
%TO.C,SW0_8*%
X355600000Y-134620000D03*
D11*
X360680000Y-134620000D03*
D10*
X365760000Y-134620000D03*
D12*
X356870000Y-132080000D03*
X363220000Y-129540000D03*
%TD*%
M02*
