%TF.GenerationSoftware,KiCad,Pcbnew,8.0.0*%
%TF.CreationDate,2024-11-20T19:58:16-08:00*%
%TF.ProjectId,Hampter1.3,48616d70-7465-4723-912e-332e6b696361,rev?*%
%TF.SameCoordinates,Original*%
%TF.FileFunction,Legend,Top*%
%TF.FilePolarity,Positive*%
%FSLAX46Y46*%
G04 Gerber Fmt 4.6, Leading zero omitted, Abs format (unit mm)*
G04 Created by KiCad (PCBNEW 8.0.0) date 2024-11-20 19:58:16*
%MOMM*%
%LPD*%
G01*
G04 APERTURE LIST*
%ADD10C,0.150000*%
%ADD11C,0.120000*%
G04 APERTURE END LIST*
D10*
X185072214Y-219624820D02*
X185072214Y-218624820D01*
X185072214Y-218624820D02*
X185310309Y-218624820D01*
X185310309Y-218624820D02*
X185453166Y-218672439D01*
X185453166Y-218672439D02*
X185548404Y-218767677D01*
X185548404Y-218767677D02*
X185596023Y-218862915D01*
X185596023Y-218862915D02*
X185643642Y-219053391D01*
X185643642Y-219053391D02*
X185643642Y-219196248D01*
X185643642Y-219196248D02*
X185596023Y-219386724D01*
X185596023Y-219386724D02*
X185548404Y-219481962D01*
X185548404Y-219481962D02*
X185453166Y-219577201D01*
X185453166Y-219577201D02*
X185310309Y-219624820D01*
X185310309Y-219624820D02*
X185072214Y-219624820D01*
X185976976Y-218624820D02*
X186643642Y-218624820D01*
X186643642Y-218624820D02*
X186215071Y-219624820D01*
X186976976Y-218720058D02*
X187024595Y-218672439D01*
X187024595Y-218672439D02*
X187119833Y-218624820D01*
X187119833Y-218624820D02*
X187357928Y-218624820D01*
X187357928Y-218624820D02*
X187453166Y-218672439D01*
X187453166Y-218672439D02*
X187500785Y-218720058D01*
X187500785Y-218720058D02*
X187548404Y-218815296D01*
X187548404Y-218815296D02*
X187548404Y-218910534D01*
X187548404Y-218910534D02*
X187500785Y-219053391D01*
X187500785Y-219053391D02*
X186929357Y-219624820D01*
X186929357Y-219624820D02*
X187548404Y-219624820D01*
X164442377Y-157039477D02*
X164394758Y-157087097D01*
X164394758Y-157087097D02*
X164251901Y-157134716D01*
X164251901Y-157134716D02*
X164156663Y-157134716D01*
X164156663Y-157134716D02*
X164013806Y-157087097D01*
X164013806Y-157087097D02*
X163918568Y-156991858D01*
X163918568Y-156991858D02*
X163870949Y-156896620D01*
X163870949Y-156896620D02*
X163823330Y-156706144D01*
X163823330Y-156706144D02*
X163823330Y-156563287D01*
X163823330Y-156563287D02*
X163870949Y-156372811D01*
X163870949Y-156372811D02*
X163918568Y-156277573D01*
X163918568Y-156277573D02*
X164013806Y-156182335D01*
X164013806Y-156182335D02*
X164156663Y-156134716D01*
X164156663Y-156134716D02*
X164251901Y-156134716D01*
X164251901Y-156134716D02*
X164394758Y-156182335D01*
X164394758Y-156182335D02*
X164442377Y-156229954D01*
X165394758Y-157134716D02*
X164823330Y-157134716D01*
X165109044Y-157134716D02*
X165109044Y-156134716D01*
X165109044Y-156134716D02*
X165013806Y-156277573D01*
X165013806Y-156277573D02*
X164918568Y-156372811D01*
X164918568Y-156372811D02*
X164823330Y-156420430D01*
X300714818Y-154884285D02*
X299714818Y-154884285D01*
X299714818Y-154884285D02*
X299714818Y-154646190D01*
X299714818Y-154646190D02*
X299762437Y-154503333D01*
X299762437Y-154503333D02*
X299857675Y-154408095D01*
X299857675Y-154408095D02*
X299952913Y-154360476D01*
X299952913Y-154360476D02*
X300143389Y-154312857D01*
X300143389Y-154312857D02*
X300286246Y-154312857D01*
X300286246Y-154312857D02*
X300476722Y-154360476D01*
X300476722Y-154360476D02*
X300571960Y-154408095D01*
X300571960Y-154408095D02*
X300667199Y-154503333D01*
X300667199Y-154503333D02*
X300714818Y-154646190D01*
X300714818Y-154646190D02*
X300714818Y-154884285D01*
X300714818Y-153360476D02*
X300714818Y-153931904D01*
X300714818Y-153646190D02*
X299714818Y-153646190D01*
X299714818Y-153646190D02*
X299857675Y-153741428D01*
X299857675Y-153741428D02*
X299952913Y-153836666D01*
X299952913Y-153836666D02*
X300000532Y-153931904D01*
X300143389Y-152789047D02*
X300095770Y-152884285D01*
X300095770Y-152884285D02*
X300048151Y-152931904D01*
X300048151Y-152931904D02*
X299952913Y-152979523D01*
X299952913Y-152979523D02*
X299905294Y-152979523D01*
X299905294Y-152979523D02*
X299810056Y-152931904D01*
X299810056Y-152931904D02*
X299762437Y-152884285D01*
X299762437Y-152884285D02*
X299714818Y-152789047D01*
X299714818Y-152789047D02*
X299714818Y-152598571D01*
X299714818Y-152598571D02*
X299762437Y-152503333D01*
X299762437Y-152503333D02*
X299810056Y-152455714D01*
X299810056Y-152455714D02*
X299905294Y-152408095D01*
X299905294Y-152408095D02*
X299952913Y-152408095D01*
X299952913Y-152408095D02*
X300048151Y-152455714D01*
X300048151Y-152455714D02*
X300095770Y-152503333D01*
X300095770Y-152503333D02*
X300143389Y-152598571D01*
X300143389Y-152598571D02*
X300143389Y-152789047D01*
X300143389Y-152789047D02*
X300191008Y-152884285D01*
X300191008Y-152884285D02*
X300238627Y-152931904D01*
X300238627Y-152931904D02*
X300333865Y-152979523D01*
X300333865Y-152979523D02*
X300524341Y-152979523D01*
X300524341Y-152979523D02*
X300619579Y-152931904D01*
X300619579Y-152931904D02*
X300667199Y-152884285D01*
X300667199Y-152884285D02*
X300714818Y-152789047D01*
X300714818Y-152789047D02*
X300714818Y-152598571D01*
X300714818Y-152598571D02*
X300667199Y-152503333D01*
X300667199Y-152503333D02*
X300619579Y-152455714D01*
X300619579Y-152455714D02*
X300524341Y-152408095D01*
X300524341Y-152408095D02*
X300333865Y-152408095D01*
X300333865Y-152408095D02*
X300238627Y-152455714D01*
X300238627Y-152455714D02*
X300191008Y-152503333D01*
X300191008Y-152503333D02*
X300143389Y-152598571D01*
X374628818Y-212034285D02*
X373628818Y-212034285D01*
X373628818Y-212034285D02*
X373628818Y-211796190D01*
X373628818Y-211796190D02*
X373676437Y-211653333D01*
X373676437Y-211653333D02*
X373771675Y-211558095D01*
X373771675Y-211558095D02*
X373866913Y-211510476D01*
X373866913Y-211510476D02*
X374057389Y-211462857D01*
X374057389Y-211462857D02*
X374200246Y-211462857D01*
X374200246Y-211462857D02*
X374390722Y-211510476D01*
X374390722Y-211510476D02*
X374485960Y-211558095D01*
X374485960Y-211558095D02*
X374581199Y-211653333D01*
X374581199Y-211653333D02*
X374628818Y-211796190D01*
X374628818Y-211796190D02*
X374628818Y-212034285D01*
X373628818Y-210605714D02*
X373628818Y-210796190D01*
X373628818Y-210796190D02*
X373676437Y-210891428D01*
X373676437Y-210891428D02*
X373724056Y-210939047D01*
X373724056Y-210939047D02*
X373866913Y-211034285D01*
X373866913Y-211034285D02*
X374057389Y-211081904D01*
X374057389Y-211081904D02*
X374438341Y-211081904D01*
X374438341Y-211081904D02*
X374533579Y-211034285D01*
X374533579Y-211034285D02*
X374581199Y-210986666D01*
X374581199Y-210986666D02*
X374628818Y-210891428D01*
X374628818Y-210891428D02*
X374628818Y-210700952D01*
X374628818Y-210700952D02*
X374581199Y-210605714D01*
X374581199Y-210605714D02*
X374533579Y-210558095D01*
X374533579Y-210558095D02*
X374438341Y-210510476D01*
X374438341Y-210510476D02*
X374200246Y-210510476D01*
X374200246Y-210510476D02*
X374105008Y-210558095D01*
X374105008Y-210558095D02*
X374057389Y-210605714D01*
X374057389Y-210605714D02*
X374009770Y-210700952D01*
X374009770Y-210700952D02*
X374009770Y-210891428D01*
X374009770Y-210891428D02*
X374057389Y-210986666D01*
X374057389Y-210986666D02*
X374105008Y-211034285D01*
X374105008Y-211034285D02*
X374200246Y-211081904D01*
X373628818Y-209891428D02*
X373628818Y-209796190D01*
X373628818Y-209796190D02*
X373676437Y-209700952D01*
X373676437Y-209700952D02*
X373724056Y-209653333D01*
X373724056Y-209653333D02*
X373819294Y-209605714D01*
X373819294Y-209605714D02*
X374009770Y-209558095D01*
X374009770Y-209558095D02*
X374247865Y-209558095D01*
X374247865Y-209558095D02*
X374438341Y-209605714D01*
X374438341Y-209605714D02*
X374533579Y-209653333D01*
X374533579Y-209653333D02*
X374581199Y-209700952D01*
X374581199Y-209700952D02*
X374628818Y-209796190D01*
X374628818Y-209796190D02*
X374628818Y-209891428D01*
X374628818Y-209891428D02*
X374581199Y-209986666D01*
X374581199Y-209986666D02*
X374533579Y-210034285D01*
X374533579Y-210034285D02*
X374438341Y-210081904D01*
X374438341Y-210081904D02*
X374247865Y-210129523D01*
X374247865Y-210129523D02*
X374009770Y-210129523D01*
X374009770Y-210129523D02*
X373819294Y-210081904D01*
X373819294Y-210081904D02*
X373724056Y-210034285D01*
X373724056Y-210034285D02*
X373676437Y-209986666D01*
X373676437Y-209986666D02*
X373628818Y-209891428D01*
X185073214Y-200438500D02*
X185073214Y-199438500D01*
X185073214Y-199438500D02*
X185311309Y-199438500D01*
X185311309Y-199438500D02*
X185454166Y-199486119D01*
X185454166Y-199486119D02*
X185549404Y-199581357D01*
X185549404Y-199581357D02*
X185597023Y-199676595D01*
X185597023Y-199676595D02*
X185644642Y-199867071D01*
X185644642Y-199867071D02*
X185644642Y-200009928D01*
X185644642Y-200009928D02*
X185597023Y-200200404D01*
X185597023Y-200200404D02*
X185549404Y-200295642D01*
X185549404Y-200295642D02*
X185454166Y-200390881D01*
X185454166Y-200390881D02*
X185311309Y-200438500D01*
X185311309Y-200438500D02*
X185073214Y-200438500D01*
X186501785Y-199438500D02*
X186311309Y-199438500D01*
X186311309Y-199438500D02*
X186216071Y-199486119D01*
X186216071Y-199486119D02*
X186168452Y-199533738D01*
X186168452Y-199533738D02*
X186073214Y-199676595D01*
X186073214Y-199676595D02*
X186025595Y-199867071D01*
X186025595Y-199867071D02*
X186025595Y-200248023D01*
X186025595Y-200248023D02*
X186073214Y-200343261D01*
X186073214Y-200343261D02*
X186120833Y-200390881D01*
X186120833Y-200390881D02*
X186216071Y-200438500D01*
X186216071Y-200438500D02*
X186406547Y-200438500D01*
X186406547Y-200438500D02*
X186501785Y-200390881D01*
X186501785Y-200390881D02*
X186549404Y-200343261D01*
X186549404Y-200343261D02*
X186597023Y-200248023D01*
X186597023Y-200248023D02*
X186597023Y-200009928D01*
X186597023Y-200009928D02*
X186549404Y-199914690D01*
X186549404Y-199914690D02*
X186501785Y-199867071D01*
X186501785Y-199867071D02*
X186406547Y-199819452D01*
X186406547Y-199819452D02*
X186216071Y-199819452D01*
X186216071Y-199819452D02*
X186120833Y-199867071D01*
X186120833Y-199867071D02*
X186073214Y-199914690D01*
X186073214Y-199914690D02*
X186025595Y-200009928D01*
X187168452Y-199867071D02*
X187073214Y-199819452D01*
X187073214Y-199819452D02*
X187025595Y-199771833D01*
X187025595Y-199771833D02*
X186977976Y-199676595D01*
X186977976Y-199676595D02*
X186977976Y-199628976D01*
X186977976Y-199628976D02*
X187025595Y-199533738D01*
X187025595Y-199533738D02*
X187073214Y-199486119D01*
X187073214Y-199486119D02*
X187168452Y-199438500D01*
X187168452Y-199438500D02*
X187358928Y-199438500D01*
X187358928Y-199438500D02*
X187454166Y-199486119D01*
X187454166Y-199486119D02*
X187501785Y-199533738D01*
X187501785Y-199533738D02*
X187549404Y-199628976D01*
X187549404Y-199628976D02*
X187549404Y-199676595D01*
X187549404Y-199676595D02*
X187501785Y-199771833D01*
X187501785Y-199771833D02*
X187454166Y-199819452D01*
X187454166Y-199819452D02*
X187358928Y-199867071D01*
X187358928Y-199867071D02*
X187168452Y-199867071D01*
X187168452Y-199867071D02*
X187073214Y-199914690D01*
X187073214Y-199914690D02*
X187025595Y-199962309D01*
X187025595Y-199962309D02*
X186977976Y-200057547D01*
X186977976Y-200057547D02*
X186977976Y-200248023D01*
X186977976Y-200248023D02*
X187025595Y-200343261D01*
X187025595Y-200343261D02*
X187073214Y-200390881D01*
X187073214Y-200390881D02*
X187168452Y-200438500D01*
X187168452Y-200438500D02*
X187358928Y-200438500D01*
X187358928Y-200438500D02*
X187454166Y-200390881D01*
X187454166Y-200390881D02*
X187501785Y-200343261D01*
X187501785Y-200343261D02*
X187549404Y-200248023D01*
X187549404Y-200248023D02*
X187549404Y-200057547D01*
X187549404Y-200057547D02*
X187501785Y-199962309D01*
X187501785Y-199962309D02*
X187454166Y-199914690D01*
X187454166Y-199914690D02*
X187358928Y-199867071D01*
X165158667Y-182564200D02*
X165301524Y-182611819D01*
X165301524Y-182611819D02*
X165539619Y-182611819D01*
X165539619Y-182611819D02*
X165634857Y-182564200D01*
X165634857Y-182564200D02*
X165682476Y-182516580D01*
X165682476Y-182516580D02*
X165730095Y-182421342D01*
X165730095Y-182421342D02*
X165730095Y-182326104D01*
X165730095Y-182326104D02*
X165682476Y-182230866D01*
X165682476Y-182230866D02*
X165634857Y-182183247D01*
X165634857Y-182183247D02*
X165539619Y-182135628D01*
X165539619Y-182135628D02*
X165349143Y-182088009D01*
X165349143Y-182088009D02*
X165253905Y-182040390D01*
X165253905Y-182040390D02*
X165206286Y-181992771D01*
X165206286Y-181992771D02*
X165158667Y-181897533D01*
X165158667Y-181897533D02*
X165158667Y-181802295D01*
X165158667Y-181802295D02*
X165206286Y-181707057D01*
X165206286Y-181707057D02*
X165253905Y-181659438D01*
X165253905Y-181659438D02*
X165349143Y-181611819D01*
X165349143Y-181611819D02*
X165587238Y-181611819D01*
X165587238Y-181611819D02*
X165730095Y-181659438D01*
X166063429Y-181611819D02*
X166301524Y-182611819D01*
X166301524Y-182611819D02*
X166492000Y-181897533D01*
X166492000Y-181897533D02*
X166682476Y-182611819D01*
X166682476Y-182611819D02*
X166920572Y-181611819D01*
X167253905Y-181707057D02*
X167301524Y-181659438D01*
X167301524Y-181659438D02*
X167396762Y-181611819D01*
X167396762Y-181611819D02*
X167634857Y-181611819D01*
X167634857Y-181611819D02*
X167730095Y-181659438D01*
X167730095Y-181659438D02*
X167777714Y-181707057D01*
X167777714Y-181707057D02*
X167825333Y-181802295D01*
X167825333Y-181802295D02*
X167825333Y-181897533D01*
X167825333Y-181897533D02*
X167777714Y-182040390D01*
X167777714Y-182040390D02*
X167206286Y-182611819D01*
X167206286Y-182611819D02*
X167825333Y-182611819D01*
X386566818Y-135834285D02*
X385566818Y-135834285D01*
X385566818Y-135834285D02*
X385566818Y-135596190D01*
X385566818Y-135596190D02*
X385614437Y-135453333D01*
X385614437Y-135453333D02*
X385709675Y-135358095D01*
X385709675Y-135358095D02*
X385804913Y-135310476D01*
X385804913Y-135310476D02*
X385995389Y-135262857D01*
X385995389Y-135262857D02*
X386138246Y-135262857D01*
X386138246Y-135262857D02*
X386328722Y-135310476D01*
X386328722Y-135310476D02*
X386423960Y-135358095D01*
X386423960Y-135358095D02*
X386519199Y-135453333D01*
X386519199Y-135453333D02*
X386566818Y-135596190D01*
X386566818Y-135596190D02*
X386566818Y-135834285D01*
X386566818Y-134310476D02*
X386566818Y-134881904D01*
X386566818Y-134596190D02*
X385566818Y-134596190D01*
X385566818Y-134596190D02*
X385709675Y-134691428D01*
X385709675Y-134691428D02*
X385804913Y-134786666D01*
X385804913Y-134786666D02*
X385852532Y-134881904D01*
X385566818Y-133691428D02*
X385566818Y-133596190D01*
X385566818Y-133596190D02*
X385614437Y-133500952D01*
X385614437Y-133500952D02*
X385662056Y-133453333D01*
X385662056Y-133453333D02*
X385757294Y-133405714D01*
X385757294Y-133405714D02*
X385947770Y-133358095D01*
X385947770Y-133358095D02*
X386185865Y-133358095D01*
X386185865Y-133358095D02*
X386376341Y-133405714D01*
X386376341Y-133405714D02*
X386471579Y-133453333D01*
X386471579Y-133453333D02*
X386519199Y-133500952D01*
X386519199Y-133500952D02*
X386566818Y-133596190D01*
X386566818Y-133596190D02*
X386566818Y-133691428D01*
X386566818Y-133691428D02*
X386519199Y-133786666D01*
X386519199Y-133786666D02*
X386471579Y-133834285D01*
X386471579Y-133834285D02*
X386376341Y-133881904D01*
X386376341Y-133881904D02*
X386185865Y-133929523D01*
X386185865Y-133929523D02*
X385947770Y-133929523D01*
X385947770Y-133929523D02*
X385757294Y-133881904D01*
X385757294Y-133881904D02*
X385662056Y-133834285D01*
X385662056Y-133834285D02*
X385614437Y-133786666D01*
X385614437Y-133786666D02*
X385566818Y-133691428D01*
X357864818Y-154884285D02*
X356864818Y-154884285D01*
X356864818Y-154884285D02*
X356864818Y-154646190D01*
X356864818Y-154646190D02*
X356912437Y-154503333D01*
X356912437Y-154503333D02*
X357007675Y-154408095D01*
X357007675Y-154408095D02*
X357102913Y-154360476D01*
X357102913Y-154360476D02*
X357293389Y-154312857D01*
X357293389Y-154312857D02*
X357436246Y-154312857D01*
X357436246Y-154312857D02*
X357626722Y-154360476D01*
X357626722Y-154360476D02*
X357721960Y-154408095D01*
X357721960Y-154408095D02*
X357817199Y-154503333D01*
X357817199Y-154503333D02*
X357864818Y-154646190D01*
X357864818Y-154646190D02*
X357864818Y-154884285D01*
X356960056Y-153931904D02*
X356912437Y-153884285D01*
X356912437Y-153884285D02*
X356864818Y-153789047D01*
X356864818Y-153789047D02*
X356864818Y-153550952D01*
X356864818Y-153550952D02*
X356912437Y-153455714D01*
X356912437Y-153455714D02*
X356960056Y-153408095D01*
X356960056Y-153408095D02*
X357055294Y-153360476D01*
X357055294Y-153360476D02*
X357150532Y-153360476D01*
X357150532Y-153360476D02*
X357293389Y-153408095D01*
X357293389Y-153408095D02*
X357864818Y-153979523D01*
X357864818Y-153979523D02*
X357864818Y-153360476D01*
X357864818Y-152408095D02*
X357864818Y-152979523D01*
X357864818Y-152693809D02*
X356864818Y-152693809D01*
X356864818Y-152693809D02*
X357007675Y-152789047D01*
X357007675Y-152789047D02*
X357102913Y-152884285D01*
X357102913Y-152884285D02*
X357150532Y-152979523D01*
X362690818Y-173934285D02*
X361690818Y-173934285D01*
X361690818Y-173934285D02*
X361690818Y-173696190D01*
X361690818Y-173696190D02*
X361738437Y-173553333D01*
X361738437Y-173553333D02*
X361833675Y-173458095D01*
X361833675Y-173458095D02*
X361928913Y-173410476D01*
X361928913Y-173410476D02*
X362119389Y-173362857D01*
X362119389Y-173362857D02*
X362262246Y-173362857D01*
X362262246Y-173362857D02*
X362452722Y-173410476D01*
X362452722Y-173410476D02*
X362547960Y-173458095D01*
X362547960Y-173458095D02*
X362643199Y-173553333D01*
X362643199Y-173553333D02*
X362690818Y-173696190D01*
X362690818Y-173696190D02*
X362690818Y-173934285D01*
X361690818Y-173029523D02*
X361690818Y-172410476D01*
X361690818Y-172410476D02*
X362071770Y-172743809D01*
X362071770Y-172743809D02*
X362071770Y-172600952D01*
X362071770Y-172600952D02*
X362119389Y-172505714D01*
X362119389Y-172505714D02*
X362167008Y-172458095D01*
X362167008Y-172458095D02*
X362262246Y-172410476D01*
X362262246Y-172410476D02*
X362500341Y-172410476D01*
X362500341Y-172410476D02*
X362595579Y-172458095D01*
X362595579Y-172458095D02*
X362643199Y-172505714D01*
X362643199Y-172505714D02*
X362690818Y-172600952D01*
X362690818Y-172600952D02*
X362690818Y-172886666D01*
X362690818Y-172886666D02*
X362643199Y-172981904D01*
X362643199Y-172981904D02*
X362595579Y-173029523D01*
X361690818Y-171553333D02*
X361690818Y-171743809D01*
X361690818Y-171743809D02*
X361738437Y-171839047D01*
X361738437Y-171839047D02*
X361786056Y-171886666D01*
X361786056Y-171886666D02*
X361928913Y-171981904D01*
X361928913Y-171981904D02*
X362119389Y-172029523D01*
X362119389Y-172029523D02*
X362500341Y-172029523D01*
X362500341Y-172029523D02*
X362595579Y-171981904D01*
X362595579Y-171981904D02*
X362643199Y-171934285D01*
X362643199Y-171934285D02*
X362690818Y-171839047D01*
X362690818Y-171839047D02*
X362690818Y-171648571D01*
X362690818Y-171648571D02*
X362643199Y-171553333D01*
X362643199Y-171553333D02*
X362595579Y-171505714D01*
X362595579Y-171505714D02*
X362500341Y-171458095D01*
X362500341Y-171458095D02*
X362262246Y-171458095D01*
X362262246Y-171458095D02*
X362167008Y-171505714D01*
X362167008Y-171505714D02*
X362119389Y-171553333D01*
X362119389Y-171553333D02*
X362071770Y-171648571D01*
X362071770Y-171648571D02*
X362071770Y-171839047D01*
X362071770Y-171839047D02*
X362119389Y-171934285D01*
X362119389Y-171934285D02*
X362167008Y-171981904D01*
X362167008Y-171981904D02*
X362262246Y-172029523D01*
X324590818Y-173934285D02*
X323590818Y-173934285D01*
X323590818Y-173934285D02*
X323590818Y-173696190D01*
X323590818Y-173696190D02*
X323638437Y-173553333D01*
X323638437Y-173553333D02*
X323733675Y-173458095D01*
X323733675Y-173458095D02*
X323828913Y-173410476D01*
X323828913Y-173410476D02*
X324019389Y-173362857D01*
X324019389Y-173362857D02*
X324162246Y-173362857D01*
X324162246Y-173362857D02*
X324352722Y-173410476D01*
X324352722Y-173410476D02*
X324447960Y-173458095D01*
X324447960Y-173458095D02*
X324543199Y-173553333D01*
X324543199Y-173553333D02*
X324590818Y-173696190D01*
X324590818Y-173696190D02*
X324590818Y-173934285D01*
X323590818Y-173029523D02*
X323590818Y-172410476D01*
X323590818Y-172410476D02*
X323971770Y-172743809D01*
X323971770Y-172743809D02*
X323971770Y-172600952D01*
X323971770Y-172600952D02*
X324019389Y-172505714D01*
X324019389Y-172505714D02*
X324067008Y-172458095D01*
X324067008Y-172458095D02*
X324162246Y-172410476D01*
X324162246Y-172410476D02*
X324400341Y-172410476D01*
X324400341Y-172410476D02*
X324495579Y-172458095D01*
X324495579Y-172458095D02*
X324543199Y-172505714D01*
X324543199Y-172505714D02*
X324590818Y-172600952D01*
X324590818Y-172600952D02*
X324590818Y-172886666D01*
X324590818Y-172886666D02*
X324543199Y-172981904D01*
X324543199Y-172981904D02*
X324495579Y-173029523D01*
X323924151Y-171553333D02*
X324590818Y-171553333D01*
X323543199Y-171791428D02*
X324257484Y-172029523D01*
X324257484Y-172029523D02*
X324257484Y-171410476D01*
X226800818Y-192984285D02*
X225800818Y-192984285D01*
X225800818Y-192984285D02*
X225800818Y-192746190D01*
X225800818Y-192746190D02*
X225848437Y-192603333D01*
X225848437Y-192603333D02*
X225943675Y-192508095D01*
X225943675Y-192508095D02*
X226038913Y-192460476D01*
X226038913Y-192460476D02*
X226229389Y-192412857D01*
X226229389Y-192412857D02*
X226372246Y-192412857D01*
X226372246Y-192412857D02*
X226562722Y-192460476D01*
X226562722Y-192460476D02*
X226657960Y-192508095D01*
X226657960Y-192508095D02*
X226753199Y-192603333D01*
X226753199Y-192603333D02*
X226800818Y-192746190D01*
X226800818Y-192746190D02*
X226800818Y-192984285D01*
X226134151Y-191555714D02*
X226800818Y-191555714D01*
X225753199Y-191793809D02*
X226467484Y-192031904D01*
X226467484Y-192031904D02*
X226467484Y-191412857D01*
X225896056Y-191079523D02*
X225848437Y-191031904D01*
X225848437Y-191031904D02*
X225800818Y-190936666D01*
X225800818Y-190936666D02*
X225800818Y-190698571D01*
X225800818Y-190698571D02*
X225848437Y-190603333D01*
X225848437Y-190603333D02*
X225896056Y-190555714D01*
X225896056Y-190555714D02*
X225991294Y-190508095D01*
X225991294Y-190508095D02*
X226086532Y-190508095D01*
X226086532Y-190508095D02*
X226229389Y-190555714D01*
X226229389Y-190555714D02*
X226800818Y-191127142D01*
X226800818Y-191127142D02*
X226800818Y-190508095D01*
X186881067Y-155949904D02*
X187690590Y-155949904D01*
X187690590Y-155949904D02*
X187785828Y-155902285D01*
X187785828Y-155902285D02*
X187833448Y-155854666D01*
X187833448Y-155854666D02*
X187881067Y-155759428D01*
X187881067Y-155759428D02*
X187881067Y-155568952D01*
X187881067Y-155568952D02*
X187833448Y-155473714D01*
X187833448Y-155473714D02*
X187785828Y-155426095D01*
X187785828Y-155426095D02*
X187690590Y-155378476D01*
X187690590Y-155378476D02*
X186881067Y-155378476D01*
X187881067Y-154378476D02*
X187881067Y-154949904D01*
X187881067Y-154664190D02*
X186881067Y-154664190D01*
X186881067Y-154664190D02*
X187023924Y-154759428D01*
X187023924Y-154759428D02*
X187119162Y-154854666D01*
X187119162Y-154854666D02*
X187166781Y-154949904D01*
X177925033Y-143382996D02*
X177972653Y-143430615D01*
X177972653Y-143430615D02*
X178020272Y-143573472D01*
X178020272Y-143573472D02*
X178020272Y-143668710D01*
X178020272Y-143668710D02*
X177972653Y-143811567D01*
X177972653Y-143811567D02*
X177877414Y-143906805D01*
X177877414Y-143906805D02*
X177782176Y-143954424D01*
X177782176Y-143954424D02*
X177591700Y-144002043D01*
X177591700Y-144002043D02*
X177448843Y-144002043D01*
X177448843Y-144002043D02*
X177258367Y-143954424D01*
X177258367Y-143954424D02*
X177163129Y-143906805D01*
X177163129Y-143906805D02*
X177067891Y-143811567D01*
X177067891Y-143811567D02*
X177020272Y-143668710D01*
X177020272Y-143668710D02*
X177020272Y-143573472D01*
X177020272Y-143573472D02*
X177067891Y-143430615D01*
X177067891Y-143430615D02*
X177115510Y-143382996D01*
X177020272Y-143049662D02*
X177020272Y-142430615D01*
X177020272Y-142430615D02*
X177401224Y-142763948D01*
X177401224Y-142763948D02*
X177401224Y-142621091D01*
X177401224Y-142621091D02*
X177448843Y-142525853D01*
X177448843Y-142525853D02*
X177496462Y-142478234D01*
X177496462Y-142478234D02*
X177591700Y-142430615D01*
X177591700Y-142430615D02*
X177829795Y-142430615D01*
X177829795Y-142430615D02*
X177925033Y-142478234D01*
X177925033Y-142478234D02*
X177972653Y-142525853D01*
X177972653Y-142525853D02*
X178020272Y-142621091D01*
X178020272Y-142621091D02*
X178020272Y-142906805D01*
X178020272Y-142906805D02*
X177972653Y-143002043D01*
X177972653Y-143002043D02*
X177925033Y-143049662D01*
X343640818Y-173934285D02*
X342640818Y-173934285D01*
X342640818Y-173934285D02*
X342640818Y-173696190D01*
X342640818Y-173696190D02*
X342688437Y-173553333D01*
X342688437Y-173553333D02*
X342783675Y-173458095D01*
X342783675Y-173458095D02*
X342878913Y-173410476D01*
X342878913Y-173410476D02*
X343069389Y-173362857D01*
X343069389Y-173362857D02*
X343212246Y-173362857D01*
X343212246Y-173362857D02*
X343402722Y-173410476D01*
X343402722Y-173410476D02*
X343497960Y-173458095D01*
X343497960Y-173458095D02*
X343593199Y-173553333D01*
X343593199Y-173553333D02*
X343640818Y-173696190D01*
X343640818Y-173696190D02*
X343640818Y-173934285D01*
X342640818Y-173029523D02*
X342640818Y-172410476D01*
X342640818Y-172410476D02*
X343021770Y-172743809D01*
X343021770Y-172743809D02*
X343021770Y-172600952D01*
X343021770Y-172600952D02*
X343069389Y-172505714D01*
X343069389Y-172505714D02*
X343117008Y-172458095D01*
X343117008Y-172458095D02*
X343212246Y-172410476D01*
X343212246Y-172410476D02*
X343450341Y-172410476D01*
X343450341Y-172410476D02*
X343545579Y-172458095D01*
X343545579Y-172458095D02*
X343593199Y-172505714D01*
X343593199Y-172505714D02*
X343640818Y-172600952D01*
X343640818Y-172600952D02*
X343640818Y-172886666D01*
X343640818Y-172886666D02*
X343593199Y-172981904D01*
X343593199Y-172981904D02*
X343545579Y-173029523D01*
X342640818Y-171505714D02*
X342640818Y-171981904D01*
X342640818Y-171981904D02*
X343117008Y-172029523D01*
X343117008Y-172029523D02*
X343069389Y-171981904D01*
X343069389Y-171981904D02*
X343021770Y-171886666D01*
X343021770Y-171886666D02*
X343021770Y-171648571D01*
X343021770Y-171648571D02*
X343069389Y-171553333D01*
X343069389Y-171553333D02*
X343117008Y-171505714D01*
X343117008Y-171505714D02*
X343212246Y-171458095D01*
X343212246Y-171458095D02*
X343450341Y-171458095D01*
X343450341Y-171458095D02*
X343545579Y-171505714D01*
X343545579Y-171505714D02*
X343593199Y-171553333D01*
X343593199Y-171553333D02*
X343640818Y-171648571D01*
X343640818Y-171648571D02*
X343640818Y-171886666D01*
X343640818Y-171886666D02*
X343593199Y-171981904D01*
X343593199Y-171981904D02*
X343545579Y-172029523D01*
X184208667Y-201614200D02*
X184351524Y-201661819D01*
X184351524Y-201661819D02*
X184589619Y-201661819D01*
X184589619Y-201661819D02*
X184684857Y-201614200D01*
X184684857Y-201614200D02*
X184732476Y-201566580D01*
X184732476Y-201566580D02*
X184780095Y-201471342D01*
X184780095Y-201471342D02*
X184780095Y-201376104D01*
X184780095Y-201376104D02*
X184732476Y-201280866D01*
X184732476Y-201280866D02*
X184684857Y-201233247D01*
X184684857Y-201233247D02*
X184589619Y-201185628D01*
X184589619Y-201185628D02*
X184399143Y-201138009D01*
X184399143Y-201138009D02*
X184303905Y-201090390D01*
X184303905Y-201090390D02*
X184256286Y-201042771D01*
X184256286Y-201042771D02*
X184208667Y-200947533D01*
X184208667Y-200947533D02*
X184208667Y-200852295D01*
X184208667Y-200852295D02*
X184256286Y-200757057D01*
X184256286Y-200757057D02*
X184303905Y-200709438D01*
X184303905Y-200709438D02*
X184399143Y-200661819D01*
X184399143Y-200661819D02*
X184637238Y-200661819D01*
X184637238Y-200661819D02*
X184780095Y-200709438D01*
X185113429Y-200661819D02*
X185351524Y-201661819D01*
X185351524Y-201661819D02*
X185542000Y-200947533D01*
X185542000Y-200947533D02*
X185732476Y-201661819D01*
X185732476Y-201661819D02*
X185970572Y-200661819D01*
X186827714Y-200661819D02*
X186351524Y-200661819D01*
X186351524Y-200661819D02*
X186303905Y-201138009D01*
X186303905Y-201138009D02*
X186351524Y-201090390D01*
X186351524Y-201090390D02*
X186446762Y-201042771D01*
X186446762Y-201042771D02*
X186684857Y-201042771D01*
X186684857Y-201042771D02*
X186780095Y-201090390D01*
X186780095Y-201090390D02*
X186827714Y-201138009D01*
X186827714Y-201138009D02*
X186875333Y-201233247D01*
X186875333Y-201233247D02*
X186875333Y-201471342D01*
X186875333Y-201471342D02*
X186827714Y-201566580D01*
X186827714Y-201566580D02*
X186780095Y-201614200D01*
X186780095Y-201614200D02*
X186684857Y-201661819D01*
X186684857Y-201661819D02*
X186446762Y-201661819D01*
X186446762Y-201661819D02*
X186351524Y-201614200D01*
X186351524Y-201614200D02*
X186303905Y-201566580D01*
X184208667Y-182564200D02*
X184351524Y-182611819D01*
X184351524Y-182611819D02*
X184589619Y-182611819D01*
X184589619Y-182611819D02*
X184684857Y-182564200D01*
X184684857Y-182564200D02*
X184732476Y-182516580D01*
X184732476Y-182516580D02*
X184780095Y-182421342D01*
X184780095Y-182421342D02*
X184780095Y-182326104D01*
X184780095Y-182326104D02*
X184732476Y-182230866D01*
X184732476Y-182230866D02*
X184684857Y-182183247D01*
X184684857Y-182183247D02*
X184589619Y-182135628D01*
X184589619Y-182135628D02*
X184399143Y-182088009D01*
X184399143Y-182088009D02*
X184303905Y-182040390D01*
X184303905Y-182040390D02*
X184256286Y-181992771D01*
X184256286Y-181992771D02*
X184208667Y-181897533D01*
X184208667Y-181897533D02*
X184208667Y-181802295D01*
X184208667Y-181802295D02*
X184256286Y-181707057D01*
X184256286Y-181707057D02*
X184303905Y-181659438D01*
X184303905Y-181659438D02*
X184399143Y-181611819D01*
X184399143Y-181611819D02*
X184637238Y-181611819D01*
X184637238Y-181611819D02*
X184780095Y-181659438D01*
X185113429Y-181611819D02*
X185351524Y-182611819D01*
X185351524Y-182611819D02*
X185542000Y-181897533D01*
X185542000Y-181897533D02*
X185732476Y-182611819D01*
X185732476Y-182611819D02*
X185970572Y-181611819D01*
X186256286Y-181611819D02*
X186875333Y-181611819D01*
X186875333Y-181611819D02*
X186542000Y-181992771D01*
X186542000Y-181992771D02*
X186684857Y-181992771D01*
X186684857Y-181992771D02*
X186780095Y-182040390D01*
X186780095Y-182040390D02*
X186827714Y-182088009D01*
X186827714Y-182088009D02*
X186875333Y-182183247D01*
X186875333Y-182183247D02*
X186875333Y-182421342D01*
X186875333Y-182421342D02*
X186827714Y-182516580D01*
X186827714Y-182516580D02*
X186780095Y-182564200D01*
X186780095Y-182564200D02*
X186684857Y-182611819D01*
X186684857Y-182611819D02*
X186399143Y-182611819D01*
X186399143Y-182611819D02*
X186303905Y-182564200D01*
X186303905Y-182564200D02*
X186256286Y-182516580D01*
X314938818Y-192984285D02*
X313938818Y-192984285D01*
X313938818Y-192984285D02*
X313938818Y-192746190D01*
X313938818Y-192746190D02*
X313986437Y-192603333D01*
X313986437Y-192603333D02*
X314081675Y-192508095D01*
X314081675Y-192508095D02*
X314176913Y-192460476D01*
X314176913Y-192460476D02*
X314367389Y-192412857D01*
X314367389Y-192412857D02*
X314510246Y-192412857D01*
X314510246Y-192412857D02*
X314700722Y-192460476D01*
X314700722Y-192460476D02*
X314795960Y-192508095D01*
X314795960Y-192508095D02*
X314891199Y-192603333D01*
X314891199Y-192603333D02*
X314938818Y-192746190D01*
X314938818Y-192746190D02*
X314938818Y-192984285D01*
X314272151Y-191555714D02*
X314938818Y-191555714D01*
X313891199Y-191793809D02*
X314605484Y-192031904D01*
X314605484Y-192031904D02*
X314605484Y-191412857D01*
X313938818Y-190603333D02*
X313938818Y-190793809D01*
X313938818Y-190793809D02*
X313986437Y-190889047D01*
X313986437Y-190889047D02*
X314034056Y-190936666D01*
X314034056Y-190936666D02*
X314176913Y-191031904D01*
X314176913Y-191031904D02*
X314367389Y-191079523D01*
X314367389Y-191079523D02*
X314748341Y-191079523D01*
X314748341Y-191079523D02*
X314843579Y-191031904D01*
X314843579Y-191031904D02*
X314891199Y-190984285D01*
X314891199Y-190984285D02*
X314938818Y-190889047D01*
X314938818Y-190889047D02*
X314938818Y-190698571D01*
X314938818Y-190698571D02*
X314891199Y-190603333D01*
X314891199Y-190603333D02*
X314843579Y-190555714D01*
X314843579Y-190555714D02*
X314748341Y-190508095D01*
X314748341Y-190508095D02*
X314510246Y-190508095D01*
X314510246Y-190508095D02*
X314415008Y-190555714D01*
X314415008Y-190555714D02*
X314367389Y-190603333D01*
X314367389Y-190603333D02*
X314319770Y-190698571D01*
X314319770Y-190698571D02*
X314319770Y-190889047D01*
X314319770Y-190889047D02*
X314367389Y-190984285D01*
X314367389Y-190984285D02*
X314415008Y-191031904D01*
X314415008Y-191031904D02*
X314510246Y-191079523D01*
X170779821Y-128667666D02*
X170303630Y-129000999D01*
X170779821Y-129239094D02*
X169779821Y-129239094D01*
X169779821Y-129239094D02*
X169779821Y-128858142D01*
X169779821Y-128858142D02*
X169827440Y-128762904D01*
X169827440Y-128762904D02*
X169875059Y-128715285D01*
X169875059Y-128715285D02*
X169970297Y-128667666D01*
X169970297Y-128667666D02*
X170113154Y-128667666D01*
X170113154Y-128667666D02*
X170208392Y-128715285D01*
X170208392Y-128715285D02*
X170256011Y-128762904D01*
X170256011Y-128762904D02*
X170303630Y-128858142D01*
X170303630Y-128858142D02*
X170303630Y-129239094D01*
X169779821Y-128334332D02*
X169779821Y-127715285D01*
X169779821Y-127715285D02*
X170160773Y-128048618D01*
X170160773Y-128048618D02*
X170160773Y-127905761D01*
X170160773Y-127905761D02*
X170208392Y-127810523D01*
X170208392Y-127810523D02*
X170256011Y-127762904D01*
X170256011Y-127762904D02*
X170351249Y-127715285D01*
X170351249Y-127715285D02*
X170589344Y-127715285D01*
X170589344Y-127715285D02*
X170684582Y-127762904D01*
X170684582Y-127762904D02*
X170732202Y-127810523D01*
X170732202Y-127810523D02*
X170779821Y-127905761D01*
X170779821Y-127905761D02*
X170779821Y-128191475D01*
X170779821Y-128191475D02*
X170732202Y-128286713D01*
X170732202Y-128286713D02*
X170684582Y-128334332D01*
X310366818Y-135358094D02*
X309366818Y-135358094D01*
X309366818Y-135358094D02*
X309366818Y-135119999D01*
X309366818Y-135119999D02*
X309414437Y-134977142D01*
X309414437Y-134977142D02*
X309509675Y-134881904D01*
X309509675Y-134881904D02*
X309604913Y-134834285D01*
X309604913Y-134834285D02*
X309795389Y-134786666D01*
X309795389Y-134786666D02*
X309938246Y-134786666D01*
X309938246Y-134786666D02*
X310128722Y-134834285D01*
X310128722Y-134834285D02*
X310223960Y-134881904D01*
X310223960Y-134881904D02*
X310319199Y-134977142D01*
X310319199Y-134977142D02*
X310366818Y-135119999D01*
X310366818Y-135119999D02*
X310366818Y-135358094D01*
X309366818Y-133929523D02*
X309366818Y-134119999D01*
X309366818Y-134119999D02*
X309414437Y-134215237D01*
X309414437Y-134215237D02*
X309462056Y-134262856D01*
X309462056Y-134262856D02*
X309604913Y-134358094D01*
X309604913Y-134358094D02*
X309795389Y-134405713D01*
X309795389Y-134405713D02*
X310176341Y-134405713D01*
X310176341Y-134405713D02*
X310271579Y-134358094D01*
X310271579Y-134358094D02*
X310319199Y-134310475D01*
X310319199Y-134310475D02*
X310366818Y-134215237D01*
X310366818Y-134215237D02*
X310366818Y-134024761D01*
X310366818Y-134024761D02*
X310319199Y-133929523D01*
X310319199Y-133929523D02*
X310271579Y-133881904D01*
X310271579Y-133881904D02*
X310176341Y-133834285D01*
X310176341Y-133834285D02*
X309938246Y-133834285D01*
X309938246Y-133834285D02*
X309843008Y-133881904D01*
X309843008Y-133881904D02*
X309795389Y-133929523D01*
X309795389Y-133929523D02*
X309747770Y-134024761D01*
X309747770Y-134024761D02*
X309747770Y-134215237D01*
X309747770Y-134215237D02*
X309795389Y-134310475D01*
X309795389Y-134310475D02*
X309843008Y-134358094D01*
X309843008Y-134358094D02*
X309938246Y-134405713D01*
X179371666Y-130194819D02*
X179371666Y-130909104D01*
X179371666Y-130909104D02*
X179324047Y-131051961D01*
X179324047Y-131051961D02*
X179228809Y-131147200D01*
X179228809Y-131147200D02*
X179085952Y-131194819D01*
X179085952Y-131194819D02*
X178990714Y-131194819D01*
X180371666Y-131194819D02*
X179800238Y-131194819D01*
X180085952Y-131194819D02*
X180085952Y-130194819D01*
X180085952Y-130194819D02*
X179990714Y-130337676D01*
X179990714Y-130337676D02*
X179895476Y-130432914D01*
X179895476Y-130432914D02*
X179800238Y-130480533D01*
X367516818Y-135358094D02*
X366516818Y-135358094D01*
X366516818Y-135358094D02*
X366516818Y-135119999D01*
X366516818Y-135119999D02*
X366564437Y-134977142D01*
X366564437Y-134977142D02*
X366659675Y-134881904D01*
X366659675Y-134881904D02*
X366754913Y-134834285D01*
X366754913Y-134834285D02*
X366945389Y-134786666D01*
X366945389Y-134786666D02*
X367088246Y-134786666D01*
X367088246Y-134786666D02*
X367278722Y-134834285D01*
X367278722Y-134834285D02*
X367373960Y-134881904D01*
X367373960Y-134881904D02*
X367469199Y-134977142D01*
X367469199Y-134977142D02*
X367516818Y-135119999D01*
X367516818Y-135119999D02*
X367516818Y-135358094D01*
X367516818Y-134310475D02*
X367516818Y-134119999D01*
X367516818Y-134119999D02*
X367469199Y-134024761D01*
X367469199Y-134024761D02*
X367421579Y-133977142D01*
X367421579Y-133977142D02*
X367278722Y-133881904D01*
X367278722Y-133881904D02*
X367088246Y-133834285D01*
X367088246Y-133834285D02*
X366707294Y-133834285D01*
X366707294Y-133834285D02*
X366612056Y-133881904D01*
X366612056Y-133881904D02*
X366564437Y-133929523D01*
X366564437Y-133929523D02*
X366516818Y-134024761D01*
X366516818Y-134024761D02*
X366516818Y-134215237D01*
X366516818Y-134215237D02*
X366564437Y-134310475D01*
X366564437Y-134310475D02*
X366612056Y-134358094D01*
X366612056Y-134358094D02*
X366707294Y-134405713D01*
X366707294Y-134405713D02*
X366945389Y-134405713D01*
X366945389Y-134405713D02*
X367040627Y-134358094D01*
X367040627Y-134358094D02*
X367088246Y-134310475D01*
X367088246Y-134310475D02*
X367135865Y-134215237D01*
X367135865Y-134215237D02*
X367135865Y-134024761D01*
X367135865Y-134024761D02*
X367088246Y-133929523D01*
X367088246Y-133929523D02*
X367040627Y-133881904D01*
X367040627Y-133881904D02*
X366945389Y-133834285D01*
X436350818Y-192984285D02*
X435350818Y-192984285D01*
X435350818Y-192984285D02*
X435350818Y-192746190D01*
X435350818Y-192746190D02*
X435398437Y-192603333D01*
X435398437Y-192603333D02*
X435493675Y-192508095D01*
X435493675Y-192508095D02*
X435588913Y-192460476D01*
X435588913Y-192460476D02*
X435779389Y-192412857D01*
X435779389Y-192412857D02*
X435922246Y-192412857D01*
X435922246Y-192412857D02*
X436112722Y-192460476D01*
X436112722Y-192460476D02*
X436207960Y-192508095D01*
X436207960Y-192508095D02*
X436303199Y-192603333D01*
X436303199Y-192603333D02*
X436350818Y-192746190D01*
X436350818Y-192746190D02*
X436350818Y-192984285D01*
X435350818Y-191508095D02*
X435350818Y-191984285D01*
X435350818Y-191984285D02*
X435827008Y-192031904D01*
X435827008Y-192031904D02*
X435779389Y-191984285D01*
X435779389Y-191984285D02*
X435731770Y-191889047D01*
X435731770Y-191889047D02*
X435731770Y-191650952D01*
X435731770Y-191650952D02*
X435779389Y-191555714D01*
X435779389Y-191555714D02*
X435827008Y-191508095D01*
X435827008Y-191508095D02*
X435922246Y-191460476D01*
X435922246Y-191460476D02*
X436160341Y-191460476D01*
X436160341Y-191460476D02*
X436255579Y-191508095D01*
X436255579Y-191508095D02*
X436303199Y-191555714D01*
X436303199Y-191555714D02*
X436350818Y-191650952D01*
X436350818Y-191650952D02*
X436350818Y-191889047D01*
X436350818Y-191889047D02*
X436303199Y-191984285D01*
X436303199Y-191984285D02*
X436255579Y-192031904D01*
X435446056Y-191079523D02*
X435398437Y-191031904D01*
X435398437Y-191031904D02*
X435350818Y-190936666D01*
X435350818Y-190936666D02*
X435350818Y-190698571D01*
X435350818Y-190698571D02*
X435398437Y-190603333D01*
X435398437Y-190603333D02*
X435446056Y-190555714D01*
X435446056Y-190555714D02*
X435541294Y-190508095D01*
X435541294Y-190508095D02*
X435636532Y-190508095D01*
X435636532Y-190508095D02*
X435779389Y-190555714D01*
X435779389Y-190555714D02*
X436350818Y-191127142D01*
X436350818Y-191127142D02*
X436350818Y-190508095D01*
X298428818Y-212034285D02*
X297428818Y-212034285D01*
X297428818Y-212034285D02*
X297428818Y-211796190D01*
X297428818Y-211796190D02*
X297476437Y-211653333D01*
X297476437Y-211653333D02*
X297571675Y-211558095D01*
X297571675Y-211558095D02*
X297666913Y-211510476D01*
X297666913Y-211510476D02*
X297857389Y-211462857D01*
X297857389Y-211462857D02*
X298000246Y-211462857D01*
X298000246Y-211462857D02*
X298190722Y-211510476D01*
X298190722Y-211510476D02*
X298285960Y-211558095D01*
X298285960Y-211558095D02*
X298381199Y-211653333D01*
X298381199Y-211653333D02*
X298428818Y-211796190D01*
X298428818Y-211796190D02*
X298428818Y-212034285D01*
X297428818Y-210558095D02*
X297428818Y-211034285D01*
X297428818Y-211034285D02*
X297905008Y-211081904D01*
X297905008Y-211081904D02*
X297857389Y-211034285D01*
X297857389Y-211034285D02*
X297809770Y-210939047D01*
X297809770Y-210939047D02*
X297809770Y-210700952D01*
X297809770Y-210700952D02*
X297857389Y-210605714D01*
X297857389Y-210605714D02*
X297905008Y-210558095D01*
X297905008Y-210558095D02*
X298000246Y-210510476D01*
X298000246Y-210510476D02*
X298238341Y-210510476D01*
X298238341Y-210510476D02*
X298333579Y-210558095D01*
X298333579Y-210558095D02*
X298381199Y-210605714D01*
X298381199Y-210605714D02*
X298428818Y-210700952D01*
X298428818Y-210700952D02*
X298428818Y-210939047D01*
X298428818Y-210939047D02*
X298381199Y-211034285D01*
X298381199Y-211034285D02*
X298333579Y-211081904D01*
X297857389Y-209939047D02*
X297809770Y-210034285D01*
X297809770Y-210034285D02*
X297762151Y-210081904D01*
X297762151Y-210081904D02*
X297666913Y-210129523D01*
X297666913Y-210129523D02*
X297619294Y-210129523D01*
X297619294Y-210129523D02*
X297524056Y-210081904D01*
X297524056Y-210081904D02*
X297476437Y-210034285D01*
X297476437Y-210034285D02*
X297428818Y-209939047D01*
X297428818Y-209939047D02*
X297428818Y-209748571D01*
X297428818Y-209748571D02*
X297476437Y-209653333D01*
X297476437Y-209653333D02*
X297524056Y-209605714D01*
X297524056Y-209605714D02*
X297619294Y-209558095D01*
X297619294Y-209558095D02*
X297666913Y-209558095D01*
X297666913Y-209558095D02*
X297762151Y-209605714D01*
X297762151Y-209605714D02*
X297809770Y-209653333D01*
X297809770Y-209653333D02*
X297857389Y-209748571D01*
X297857389Y-209748571D02*
X297857389Y-209939047D01*
X297857389Y-209939047D02*
X297905008Y-210034285D01*
X297905008Y-210034285D02*
X297952627Y-210081904D01*
X297952627Y-210081904D02*
X298047865Y-210129523D01*
X298047865Y-210129523D02*
X298238341Y-210129523D01*
X298238341Y-210129523D02*
X298333579Y-210081904D01*
X298333579Y-210081904D02*
X298381199Y-210034285D01*
X298381199Y-210034285D02*
X298428818Y-209939047D01*
X298428818Y-209939047D02*
X298428818Y-209748571D01*
X298428818Y-209748571D02*
X298381199Y-209653333D01*
X298381199Y-209653333D02*
X298333579Y-209605714D01*
X298333579Y-209605714D02*
X298238341Y-209558095D01*
X298238341Y-209558095D02*
X298047865Y-209558095D01*
X298047865Y-209558095D02*
X297952627Y-209605714D01*
X297952627Y-209605714D02*
X297905008Y-209653333D01*
X297905008Y-209653333D02*
X297857389Y-209748571D01*
X215116818Y-135358094D02*
X214116818Y-135358094D01*
X214116818Y-135358094D02*
X214116818Y-135119999D01*
X214116818Y-135119999D02*
X214164437Y-134977142D01*
X214164437Y-134977142D02*
X214259675Y-134881904D01*
X214259675Y-134881904D02*
X214354913Y-134834285D01*
X214354913Y-134834285D02*
X214545389Y-134786666D01*
X214545389Y-134786666D02*
X214688246Y-134786666D01*
X214688246Y-134786666D02*
X214878722Y-134834285D01*
X214878722Y-134834285D02*
X214973960Y-134881904D01*
X214973960Y-134881904D02*
X215069199Y-134977142D01*
X215069199Y-134977142D02*
X215116818Y-135119999D01*
X215116818Y-135119999D02*
X215116818Y-135358094D01*
X215116818Y-133834285D02*
X215116818Y-134405713D01*
X215116818Y-134119999D02*
X214116818Y-134119999D01*
X214116818Y-134119999D02*
X214259675Y-134215237D01*
X214259675Y-134215237D02*
X214354913Y-134310475D01*
X214354913Y-134310475D02*
X214402532Y-134405713D01*
X415014818Y-154884285D02*
X414014818Y-154884285D01*
X414014818Y-154884285D02*
X414014818Y-154646190D01*
X414014818Y-154646190D02*
X414062437Y-154503333D01*
X414062437Y-154503333D02*
X414157675Y-154408095D01*
X414157675Y-154408095D02*
X414252913Y-154360476D01*
X414252913Y-154360476D02*
X414443389Y-154312857D01*
X414443389Y-154312857D02*
X414586246Y-154312857D01*
X414586246Y-154312857D02*
X414776722Y-154360476D01*
X414776722Y-154360476D02*
X414871960Y-154408095D01*
X414871960Y-154408095D02*
X414967199Y-154503333D01*
X414967199Y-154503333D02*
X415014818Y-154646190D01*
X415014818Y-154646190D02*
X415014818Y-154884285D01*
X414110056Y-153931904D02*
X414062437Y-153884285D01*
X414062437Y-153884285D02*
X414014818Y-153789047D01*
X414014818Y-153789047D02*
X414014818Y-153550952D01*
X414014818Y-153550952D02*
X414062437Y-153455714D01*
X414062437Y-153455714D02*
X414110056Y-153408095D01*
X414110056Y-153408095D02*
X414205294Y-153360476D01*
X414205294Y-153360476D02*
X414300532Y-153360476D01*
X414300532Y-153360476D02*
X414443389Y-153408095D01*
X414443389Y-153408095D02*
X415014818Y-153979523D01*
X415014818Y-153979523D02*
X415014818Y-153360476D01*
X414348151Y-152503333D02*
X415014818Y-152503333D01*
X413967199Y-152741428D02*
X414681484Y-152979523D01*
X414681484Y-152979523D02*
X414681484Y-152360476D01*
X319764818Y-154884285D02*
X318764818Y-154884285D01*
X318764818Y-154884285D02*
X318764818Y-154646190D01*
X318764818Y-154646190D02*
X318812437Y-154503333D01*
X318812437Y-154503333D02*
X318907675Y-154408095D01*
X318907675Y-154408095D02*
X319002913Y-154360476D01*
X319002913Y-154360476D02*
X319193389Y-154312857D01*
X319193389Y-154312857D02*
X319336246Y-154312857D01*
X319336246Y-154312857D02*
X319526722Y-154360476D01*
X319526722Y-154360476D02*
X319621960Y-154408095D01*
X319621960Y-154408095D02*
X319717199Y-154503333D01*
X319717199Y-154503333D02*
X319764818Y-154646190D01*
X319764818Y-154646190D02*
X319764818Y-154884285D01*
X319764818Y-153360476D02*
X319764818Y-153931904D01*
X319764818Y-153646190D02*
X318764818Y-153646190D01*
X318764818Y-153646190D02*
X318907675Y-153741428D01*
X318907675Y-153741428D02*
X319002913Y-153836666D01*
X319002913Y-153836666D02*
X319050532Y-153931904D01*
X319764818Y-152884285D02*
X319764818Y-152693809D01*
X319764818Y-152693809D02*
X319717199Y-152598571D01*
X319717199Y-152598571D02*
X319669579Y-152550952D01*
X319669579Y-152550952D02*
X319526722Y-152455714D01*
X319526722Y-152455714D02*
X319336246Y-152408095D01*
X319336246Y-152408095D02*
X318955294Y-152408095D01*
X318955294Y-152408095D02*
X318860056Y-152455714D01*
X318860056Y-152455714D02*
X318812437Y-152503333D01*
X318812437Y-152503333D02*
X318764818Y-152598571D01*
X318764818Y-152598571D02*
X318764818Y-152789047D01*
X318764818Y-152789047D02*
X318812437Y-152884285D01*
X318812437Y-152884285D02*
X318860056Y-152931904D01*
X318860056Y-152931904D02*
X318955294Y-152979523D01*
X318955294Y-152979523D02*
X319193389Y-152979523D01*
X319193389Y-152979523D02*
X319288627Y-152931904D01*
X319288627Y-152931904D02*
X319336246Y-152884285D01*
X319336246Y-152884285D02*
X319383865Y-152789047D01*
X319383865Y-152789047D02*
X319383865Y-152598571D01*
X319383865Y-152598571D02*
X319336246Y-152503333D01*
X319336246Y-152503333D02*
X319288627Y-152455714D01*
X319288627Y-152455714D02*
X319193389Y-152408095D01*
X405616818Y-135834285D02*
X404616818Y-135834285D01*
X404616818Y-135834285D02*
X404616818Y-135596190D01*
X404616818Y-135596190D02*
X404664437Y-135453333D01*
X404664437Y-135453333D02*
X404759675Y-135358095D01*
X404759675Y-135358095D02*
X404854913Y-135310476D01*
X404854913Y-135310476D02*
X405045389Y-135262857D01*
X405045389Y-135262857D02*
X405188246Y-135262857D01*
X405188246Y-135262857D02*
X405378722Y-135310476D01*
X405378722Y-135310476D02*
X405473960Y-135358095D01*
X405473960Y-135358095D02*
X405569199Y-135453333D01*
X405569199Y-135453333D02*
X405616818Y-135596190D01*
X405616818Y-135596190D02*
X405616818Y-135834285D01*
X405616818Y-134310476D02*
X405616818Y-134881904D01*
X405616818Y-134596190D02*
X404616818Y-134596190D01*
X404616818Y-134596190D02*
X404759675Y-134691428D01*
X404759675Y-134691428D02*
X404854913Y-134786666D01*
X404854913Y-134786666D02*
X404902532Y-134881904D01*
X405616818Y-133358095D02*
X405616818Y-133929523D01*
X405616818Y-133643809D02*
X404616818Y-133643809D01*
X404616818Y-133643809D02*
X404759675Y-133739047D01*
X404759675Y-133739047D02*
X404854913Y-133834285D01*
X404854913Y-133834285D02*
X404902532Y-133929523D01*
X166023214Y-219624820D02*
X166023214Y-218624820D01*
X166023214Y-218624820D02*
X166261309Y-218624820D01*
X166261309Y-218624820D02*
X166404166Y-218672439D01*
X166404166Y-218672439D02*
X166499404Y-218767677D01*
X166499404Y-218767677D02*
X166547023Y-218862915D01*
X166547023Y-218862915D02*
X166594642Y-219053391D01*
X166594642Y-219053391D02*
X166594642Y-219196248D01*
X166594642Y-219196248D02*
X166547023Y-219386724D01*
X166547023Y-219386724D02*
X166499404Y-219481962D01*
X166499404Y-219481962D02*
X166404166Y-219577201D01*
X166404166Y-219577201D02*
X166261309Y-219624820D01*
X166261309Y-219624820D02*
X166023214Y-219624820D01*
X166927976Y-218624820D02*
X167594642Y-218624820D01*
X167594642Y-218624820D02*
X167166071Y-219624820D01*
X168166071Y-218624820D02*
X168261309Y-218624820D01*
X168261309Y-218624820D02*
X168356547Y-218672439D01*
X168356547Y-218672439D02*
X168404166Y-218720058D01*
X168404166Y-218720058D02*
X168451785Y-218815296D01*
X168451785Y-218815296D02*
X168499404Y-219005772D01*
X168499404Y-219005772D02*
X168499404Y-219243867D01*
X168499404Y-219243867D02*
X168451785Y-219434343D01*
X168451785Y-219434343D02*
X168404166Y-219529581D01*
X168404166Y-219529581D02*
X168356547Y-219577201D01*
X168356547Y-219577201D02*
X168261309Y-219624820D01*
X168261309Y-219624820D02*
X168166071Y-219624820D01*
X168166071Y-219624820D02*
X168070833Y-219577201D01*
X168070833Y-219577201D02*
X168023214Y-219529581D01*
X168023214Y-219529581D02*
X167975595Y-219434343D01*
X167975595Y-219434343D02*
X167927976Y-219243867D01*
X167927976Y-219243867D02*
X167927976Y-219005772D01*
X167927976Y-219005772D02*
X167975595Y-218815296D01*
X167975595Y-218815296D02*
X168023214Y-218720058D01*
X168023214Y-218720058D02*
X168070833Y-218672439D01*
X168070833Y-218672439D02*
X168166071Y-218624820D01*
X272266818Y-135358094D02*
X271266818Y-135358094D01*
X271266818Y-135358094D02*
X271266818Y-135119999D01*
X271266818Y-135119999D02*
X271314437Y-134977142D01*
X271314437Y-134977142D02*
X271409675Y-134881904D01*
X271409675Y-134881904D02*
X271504913Y-134834285D01*
X271504913Y-134834285D02*
X271695389Y-134786666D01*
X271695389Y-134786666D02*
X271838246Y-134786666D01*
X271838246Y-134786666D02*
X272028722Y-134834285D01*
X272028722Y-134834285D02*
X272123960Y-134881904D01*
X272123960Y-134881904D02*
X272219199Y-134977142D01*
X272219199Y-134977142D02*
X272266818Y-135119999D01*
X272266818Y-135119999D02*
X272266818Y-135358094D01*
X271600151Y-133929523D02*
X272266818Y-133929523D01*
X271219199Y-134167618D02*
X271933484Y-134405713D01*
X271933484Y-134405713D02*
X271933484Y-133786666D01*
X462766818Y-192984285D02*
X461766818Y-192984285D01*
X461766818Y-192984285D02*
X461766818Y-192746190D01*
X461766818Y-192746190D02*
X461814437Y-192603333D01*
X461814437Y-192603333D02*
X461909675Y-192508095D01*
X461909675Y-192508095D02*
X462004913Y-192460476D01*
X462004913Y-192460476D02*
X462195389Y-192412857D01*
X462195389Y-192412857D02*
X462338246Y-192412857D01*
X462338246Y-192412857D02*
X462528722Y-192460476D01*
X462528722Y-192460476D02*
X462623960Y-192508095D01*
X462623960Y-192508095D02*
X462719199Y-192603333D01*
X462719199Y-192603333D02*
X462766818Y-192746190D01*
X462766818Y-192746190D02*
X462766818Y-192984285D01*
X461766818Y-191508095D02*
X461766818Y-191984285D01*
X461766818Y-191984285D02*
X462243008Y-192031904D01*
X462243008Y-192031904D02*
X462195389Y-191984285D01*
X462195389Y-191984285D02*
X462147770Y-191889047D01*
X462147770Y-191889047D02*
X462147770Y-191650952D01*
X462147770Y-191650952D02*
X462195389Y-191555714D01*
X462195389Y-191555714D02*
X462243008Y-191508095D01*
X462243008Y-191508095D02*
X462338246Y-191460476D01*
X462338246Y-191460476D02*
X462576341Y-191460476D01*
X462576341Y-191460476D02*
X462671579Y-191508095D01*
X462671579Y-191508095D02*
X462719199Y-191555714D01*
X462719199Y-191555714D02*
X462766818Y-191650952D01*
X462766818Y-191650952D02*
X462766818Y-191889047D01*
X462766818Y-191889047D02*
X462719199Y-191984285D01*
X462719199Y-191984285D02*
X462671579Y-192031904D01*
X461766818Y-191127142D02*
X461766818Y-190508095D01*
X461766818Y-190508095D02*
X462147770Y-190841428D01*
X462147770Y-190841428D02*
X462147770Y-190698571D01*
X462147770Y-190698571D02*
X462195389Y-190603333D01*
X462195389Y-190603333D02*
X462243008Y-190555714D01*
X462243008Y-190555714D02*
X462338246Y-190508095D01*
X462338246Y-190508095D02*
X462576341Y-190508095D01*
X462576341Y-190508095D02*
X462671579Y-190555714D01*
X462671579Y-190555714D02*
X462719199Y-190603333D01*
X462719199Y-190603333D02*
X462766818Y-190698571D01*
X462766818Y-190698571D02*
X462766818Y-190984285D01*
X462766818Y-190984285D02*
X462719199Y-191079523D01*
X462719199Y-191079523D02*
X462671579Y-191127142D01*
X257788818Y-192984285D02*
X256788818Y-192984285D01*
X256788818Y-192984285D02*
X256788818Y-192746190D01*
X256788818Y-192746190D02*
X256836437Y-192603333D01*
X256836437Y-192603333D02*
X256931675Y-192508095D01*
X256931675Y-192508095D02*
X257026913Y-192460476D01*
X257026913Y-192460476D02*
X257217389Y-192412857D01*
X257217389Y-192412857D02*
X257360246Y-192412857D01*
X257360246Y-192412857D02*
X257550722Y-192460476D01*
X257550722Y-192460476D02*
X257645960Y-192508095D01*
X257645960Y-192508095D02*
X257741199Y-192603333D01*
X257741199Y-192603333D02*
X257788818Y-192746190D01*
X257788818Y-192746190D02*
X257788818Y-192984285D01*
X257122151Y-191555714D02*
X257788818Y-191555714D01*
X256741199Y-191793809D02*
X257455484Y-192031904D01*
X257455484Y-192031904D02*
X257455484Y-191412857D01*
X256788818Y-191127142D02*
X256788818Y-190508095D01*
X256788818Y-190508095D02*
X257169770Y-190841428D01*
X257169770Y-190841428D02*
X257169770Y-190698571D01*
X257169770Y-190698571D02*
X257217389Y-190603333D01*
X257217389Y-190603333D02*
X257265008Y-190555714D01*
X257265008Y-190555714D02*
X257360246Y-190508095D01*
X257360246Y-190508095D02*
X257598341Y-190508095D01*
X257598341Y-190508095D02*
X257693579Y-190555714D01*
X257693579Y-190555714D02*
X257741199Y-190603333D01*
X257741199Y-190603333D02*
X257788818Y-190698571D01*
X257788818Y-190698571D02*
X257788818Y-190984285D01*
X257788818Y-190984285D02*
X257741199Y-191079523D01*
X257741199Y-191079523D02*
X257693579Y-191127142D01*
X424666818Y-212034285D02*
X423666818Y-212034285D01*
X423666818Y-212034285D02*
X423666818Y-211796190D01*
X423666818Y-211796190D02*
X423714437Y-211653333D01*
X423714437Y-211653333D02*
X423809675Y-211558095D01*
X423809675Y-211558095D02*
X423904913Y-211510476D01*
X423904913Y-211510476D02*
X424095389Y-211462857D01*
X424095389Y-211462857D02*
X424238246Y-211462857D01*
X424238246Y-211462857D02*
X424428722Y-211510476D01*
X424428722Y-211510476D02*
X424523960Y-211558095D01*
X424523960Y-211558095D02*
X424619199Y-211653333D01*
X424619199Y-211653333D02*
X424666818Y-211796190D01*
X424666818Y-211796190D02*
X424666818Y-212034285D01*
X423666818Y-210605714D02*
X423666818Y-210796190D01*
X423666818Y-210796190D02*
X423714437Y-210891428D01*
X423714437Y-210891428D02*
X423762056Y-210939047D01*
X423762056Y-210939047D02*
X423904913Y-211034285D01*
X423904913Y-211034285D02*
X424095389Y-211081904D01*
X424095389Y-211081904D02*
X424476341Y-211081904D01*
X424476341Y-211081904D02*
X424571579Y-211034285D01*
X424571579Y-211034285D02*
X424619199Y-210986666D01*
X424619199Y-210986666D02*
X424666818Y-210891428D01*
X424666818Y-210891428D02*
X424666818Y-210700952D01*
X424666818Y-210700952D02*
X424619199Y-210605714D01*
X424619199Y-210605714D02*
X424571579Y-210558095D01*
X424571579Y-210558095D02*
X424476341Y-210510476D01*
X424476341Y-210510476D02*
X424238246Y-210510476D01*
X424238246Y-210510476D02*
X424143008Y-210558095D01*
X424143008Y-210558095D02*
X424095389Y-210605714D01*
X424095389Y-210605714D02*
X424047770Y-210700952D01*
X424047770Y-210700952D02*
X424047770Y-210891428D01*
X424047770Y-210891428D02*
X424095389Y-210986666D01*
X424095389Y-210986666D02*
X424143008Y-211034285D01*
X424143008Y-211034285D02*
X424238246Y-211081904D01*
X423762056Y-210129523D02*
X423714437Y-210081904D01*
X423714437Y-210081904D02*
X423666818Y-209986666D01*
X423666818Y-209986666D02*
X423666818Y-209748571D01*
X423666818Y-209748571D02*
X423714437Y-209653333D01*
X423714437Y-209653333D02*
X423762056Y-209605714D01*
X423762056Y-209605714D02*
X423857294Y-209558095D01*
X423857294Y-209558095D02*
X423952532Y-209558095D01*
X423952532Y-209558095D02*
X424095389Y-209605714D01*
X424095389Y-209605714D02*
X424666818Y-210177142D01*
X424666818Y-210177142D02*
X424666818Y-209558095D01*
X476990818Y-154884285D02*
X475990818Y-154884285D01*
X475990818Y-154884285D02*
X475990818Y-154646190D01*
X475990818Y-154646190D02*
X476038437Y-154503333D01*
X476038437Y-154503333D02*
X476133675Y-154408095D01*
X476133675Y-154408095D02*
X476228913Y-154360476D01*
X476228913Y-154360476D02*
X476419389Y-154312857D01*
X476419389Y-154312857D02*
X476562246Y-154312857D01*
X476562246Y-154312857D02*
X476752722Y-154360476D01*
X476752722Y-154360476D02*
X476847960Y-154408095D01*
X476847960Y-154408095D02*
X476943199Y-154503333D01*
X476943199Y-154503333D02*
X476990818Y-154646190D01*
X476990818Y-154646190D02*
X476990818Y-154884285D01*
X476086056Y-153931904D02*
X476038437Y-153884285D01*
X476038437Y-153884285D02*
X475990818Y-153789047D01*
X475990818Y-153789047D02*
X475990818Y-153550952D01*
X475990818Y-153550952D02*
X476038437Y-153455714D01*
X476038437Y-153455714D02*
X476086056Y-153408095D01*
X476086056Y-153408095D02*
X476181294Y-153360476D01*
X476181294Y-153360476D02*
X476276532Y-153360476D01*
X476276532Y-153360476D02*
X476419389Y-153408095D01*
X476419389Y-153408095D02*
X476990818Y-153979523D01*
X476990818Y-153979523D02*
X476990818Y-153360476D01*
X475990818Y-153027142D02*
X475990818Y-152360476D01*
X475990818Y-152360476D02*
X476990818Y-152789047D01*
X174045714Y-215624819D02*
X174045714Y-214624819D01*
X174045714Y-214624819D02*
X174283809Y-214624819D01*
X174283809Y-214624819D02*
X174426666Y-214672438D01*
X174426666Y-214672438D02*
X174521904Y-214767676D01*
X174521904Y-214767676D02*
X174569523Y-214862914D01*
X174569523Y-214862914D02*
X174617142Y-215053390D01*
X174617142Y-215053390D02*
X174617142Y-215196247D01*
X174617142Y-215196247D02*
X174569523Y-215386723D01*
X174569523Y-215386723D02*
X174521904Y-215481961D01*
X174521904Y-215481961D02*
X174426666Y-215577200D01*
X174426666Y-215577200D02*
X174283809Y-215624819D01*
X174283809Y-215624819D02*
X174045714Y-215624819D01*
X174950476Y-214624819D02*
X175617142Y-214624819D01*
X175617142Y-214624819D02*
X175188571Y-215624819D01*
X176521904Y-215624819D02*
X175950476Y-215624819D01*
X176236190Y-215624819D02*
X176236190Y-214624819D01*
X176236190Y-214624819D02*
X176140952Y-214767676D01*
X176140952Y-214767676D02*
X176045714Y-214862914D01*
X176045714Y-214862914D02*
X175950476Y-214910533D01*
X376914818Y-154884285D02*
X375914818Y-154884285D01*
X375914818Y-154884285D02*
X375914818Y-154646190D01*
X375914818Y-154646190D02*
X375962437Y-154503333D01*
X375962437Y-154503333D02*
X376057675Y-154408095D01*
X376057675Y-154408095D02*
X376152913Y-154360476D01*
X376152913Y-154360476D02*
X376343389Y-154312857D01*
X376343389Y-154312857D02*
X376486246Y-154312857D01*
X376486246Y-154312857D02*
X376676722Y-154360476D01*
X376676722Y-154360476D02*
X376771960Y-154408095D01*
X376771960Y-154408095D02*
X376867199Y-154503333D01*
X376867199Y-154503333D02*
X376914818Y-154646190D01*
X376914818Y-154646190D02*
X376914818Y-154884285D01*
X376010056Y-153931904D02*
X375962437Y-153884285D01*
X375962437Y-153884285D02*
X375914818Y-153789047D01*
X375914818Y-153789047D02*
X375914818Y-153550952D01*
X375914818Y-153550952D02*
X375962437Y-153455714D01*
X375962437Y-153455714D02*
X376010056Y-153408095D01*
X376010056Y-153408095D02*
X376105294Y-153360476D01*
X376105294Y-153360476D02*
X376200532Y-153360476D01*
X376200532Y-153360476D02*
X376343389Y-153408095D01*
X376343389Y-153408095D02*
X376914818Y-153979523D01*
X376914818Y-153979523D02*
X376914818Y-153360476D01*
X376010056Y-152979523D02*
X375962437Y-152931904D01*
X375962437Y-152931904D02*
X375914818Y-152836666D01*
X375914818Y-152836666D02*
X375914818Y-152598571D01*
X375914818Y-152598571D02*
X375962437Y-152503333D01*
X375962437Y-152503333D02*
X376010056Y-152455714D01*
X376010056Y-152455714D02*
X376105294Y-152408095D01*
X376105294Y-152408095D02*
X376200532Y-152408095D01*
X376200532Y-152408095D02*
X376343389Y-152455714D01*
X376343389Y-152455714D02*
X376914818Y-153027142D01*
X376914818Y-153027142D02*
X376914818Y-152408095D01*
X182952819Y-134330666D02*
X182476628Y-134663999D01*
X182952819Y-134902094D02*
X181952819Y-134902094D01*
X181952819Y-134902094D02*
X181952819Y-134521142D01*
X181952819Y-134521142D02*
X182000438Y-134425904D01*
X182000438Y-134425904D02*
X182048057Y-134378285D01*
X182048057Y-134378285D02*
X182143295Y-134330666D01*
X182143295Y-134330666D02*
X182286152Y-134330666D01*
X182286152Y-134330666D02*
X182381390Y-134378285D01*
X182381390Y-134378285D02*
X182429009Y-134425904D01*
X182429009Y-134425904D02*
X182476628Y-134521142D01*
X182476628Y-134521142D02*
X182476628Y-134902094D01*
X181952819Y-133425904D02*
X181952819Y-133902094D01*
X181952819Y-133902094D02*
X182429009Y-133949713D01*
X182429009Y-133949713D02*
X182381390Y-133902094D01*
X182381390Y-133902094D02*
X182333771Y-133806856D01*
X182333771Y-133806856D02*
X182333771Y-133568761D01*
X182333771Y-133568761D02*
X182381390Y-133473523D01*
X182381390Y-133473523D02*
X182429009Y-133425904D01*
X182429009Y-133425904D02*
X182524247Y-133378285D01*
X182524247Y-133378285D02*
X182762342Y-133378285D01*
X182762342Y-133378285D02*
X182857580Y-133425904D01*
X182857580Y-133425904D02*
X182905200Y-133473523D01*
X182905200Y-133473523D02*
X182952819Y-133568761D01*
X182952819Y-133568761D02*
X182952819Y-133806856D01*
X182952819Y-133806856D02*
X182905200Y-133902094D01*
X182905200Y-133902094D02*
X182857580Y-133949713D01*
X264900818Y-212034285D02*
X263900818Y-212034285D01*
X263900818Y-212034285D02*
X263900818Y-211796190D01*
X263900818Y-211796190D02*
X263948437Y-211653333D01*
X263948437Y-211653333D02*
X264043675Y-211558095D01*
X264043675Y-211558095D02*
X264138913Y-211510476D01*
X264138913Y-211510476D02*
X264329389Y-211462857D01*
X264329389Y-211462857D02*
X264472246Y-211462857D01*
X264472246Y-211462857D02*
X264662722Y-211510476D01*
X264662722Y-211510476D02*
X264757960Y-211558095D01*
X264757960Y-211558095D02*
X264853199Y-211653333D01*
X264853199Y-211653333D02*
X264900818Y-211796190D01*
X264900818Y-211796190D02*
X264900818Y-212034285D01*
X263900818Y-210558095D02*
X263900818Y-211034285D01*
X263900818Y-211034285D02*
X264377008Y-211081904D01*
X264377008Y-211081904D02*
X264329389Y-211034285D01*
X264329389Y-211034285D02*
X264281770Y-210939047D01*
X264281770Y-210939047D02*
X264281770Y-210700952D01*
X264281770Y-210700952D02*
X264329389Y-210605714D01*
X264329389Y-210605714D02*
X264377008Y-210558095D01*
X264377008Y-210558095D02*
X264472246Y-210510476D01*
X264472246Y-210510476D02*
X264710341Y-210510476D01*
X264710341Y-210510476D02*
X264805579Y-210558095D01*
X264805579Y-210558095D02*
X264853199Y-210605714D01*
X264853199Y-210605714D02*
X264900818Y-210700952D01*
X264900818Y-210700952D02*
X264900818Y-210939047D01*
X264900818Y-210939047D02*
X264853199Y-211034285D01*
X264853199Y-211034285D02*
X264805579Y-211081904D01*
X263900818Y-210177142D02*
X263900818Y-209510476D01*
X263900818Y-209510476D02*
X264900818Y-209939047D01*
X164575834Y-138658819D02*
X164242501Y-138182628D01*
X164004406Y-138658819D02*
X164004406Y-137658819D01*
X164004406Y-137658819D02*
X164385358Y-137658819D01*
X164385358Y-137658819D02*
X164480596Y-137706438D01*
X164480596Y-137706438D02*
X164528215Y-137754057D01*
X164528215Y-137754057D02*
X164575834Y-137849295D01*
X164575834Y-137849295D02*
X164575834Y-137992152D01*
X164575834Y-137992152D02*
X164528215Y-138087390D01*
X164528215Y-138087390D02*
X164480596Y-138135009D01*
X164480596Y-138135009D02*
X164385358Y-138182628D01*
X164385358Y-138182628D02*
X164004406Y-138182628D01*
X165528215Y-138658819D02*
X164956787Y-138658819D01*
X165242501Y-138658819D02*
X165242501Y-137658819D01*
X165242501Y-137658819D02*
X165147263Y-137801676D01*
X165147263Y-137801676D02*
X165052025Y-137896914D01*
X165052025Y-137896914D02*
X164956787Y-137944533D01*
X234166818Y-135358094D02*
X233166818Y-135358094D01*
X233166818Y-135358094D02*
X233166818Y-135119999D01*
X233166818Y-135119999D02*
X233214437Y-134977142D01*
X233214437Y-134977142D02*
X233309675Y-134881904D01*
X233309675Y-134881904D02*
X233404913Y-134834285D01*
X233404913Y-134834285D02*
X233595389Y-134786666D01*
X233595389Y-134786666D02*
X233738246Y-134786666D01*
X233738246Y-134786666D02*
X233928722Y-134834285D01*
X233928722Y-134834285D02*
X234023960Y-134881904D01*
X234023960Y-134881904D02*
X234119199Y-134977142D01*
X234119199Y-134977142D02*
X234166818Y-135119999D01*
X234166818Y-135119999D02*
X234166818Y-135358094D01*
X233262056Y-134405713D02*
X233214437Y-134358094D01*
X233214437Y-134358094D02*
X233166818Y-134262856D01*
X233166818Y-134262856D02*
X233166818Y-134024761D01*
X233166818Y-134024761D02*
X233214437Y-133929523D01*
X233214437Y-133929523D02*
X233262056Y-133881904D01*
X233262056Y-133881904D02*
X233357294Y-133834285D01*
X233357294Y-133834285D02*
X233452532Y-133834285D01*
X233452532Y-133834285D02*
X233595389Y-133881904D01*
X233595389Y-133881904D02*
X234166818Y-134453332D01*
X234166818Y-134453332D02*
X234166818Y-133834285D01*
X472164818Y-135834285D02*
X471164818Y-135834285D01*
X471164818Y-135834285D02*
X471164818Y-135596190D01*
X471164818Y-135596190D02*
X471212437Y-135453333D01*
X471212437Y-135453333D02*
X471307675Y-135358095D01*
X471307675Y-135358095D02*
X471402913Y-135310476D01*
X471402913Y-135310476D02*
X471593389Y-135262857D01*
X471593389Y-135262857D02*
X471736246Y-135262857D01*
X471736246Y-135262857D02*
X471926722Y-135310476D01*
X471926722Y-135310476D02*
X472021960Y-135358095D01*
X472021960Y-135358095D02*
X472117199Y-135453333D01*
X472117199Y-135453333D02*
X472164818Y-135596190D01*
X472164818Y-135596190D02*
X472164818Y-135834285D01*
X471260056Y-134881904D02*
X471212437Y-134834285D01*
X471212437Y-134834285D02*
X471164818Y-134739047D01*
X471164818Y-134739047D02*
X471164818Y-134500952D01*
X471164818Y-134500952D02*
X471212437Y-134405714D01*
X471212437Y-134405714D02*
X471260056Y-134358095D01*
X471260056Y-134358095D02*
X471355294Y-134310476D01*
X471355294Y-134310476D02*
X471450532Y-134310476D01*
X471450532Y-134310476D02*
X471593389Y-134358095D01*
X471593389Y-134358095D02*
X472164818Y-134929523D01*
X472164818Y-134929523D02*
X472164818Y-134310476D01*
X471593389Y-133739047D02*
X471545770Y-133834285D01*
X471545770Y-133834285D02*
X471498151Y-133881904D01*
X471498151Y-133881904D02*
X471402913Y-133929523D01*
X471402913Y-133929523D02*
X471355294Y-133929523D01*
X471355294Y-133929523D02*
X471260056Y-133881904D01*
X471260056Y-133881904D02*
X471212437Y-133834285D01*
X471212437Y-133834285D02*
X471164818Y-133739047D01*
X471164818Y-133739047D02*
X471164818Y-133548571D01*
X471164818Y-133548571D02*
X471212437Y-133453333D01*
X471212437Y-133453333D02*
X471260056Y-133405714D01*
X471260056Y-133405714D02*
X471355294Y-133358095D01*
X471355294Y-133358095D02*
X471402913Y-133358095D01*
X471402913Y-133358095D02*
X471498151Y-133405714D01*
X471498151Y-133405714D02*
X471545770Y-133453333D01*
X471545770Y-133453333D02*
X471593389Y-133548571D01*
X471593389Y-133548571D02*
X471593389Y-133739047D01*
X471593389Y-133739047D02*
X471641008Y-133834285D01*
X471641008Y-133834285D02*
X471688627Y-133881904D01*
X471688627Y-133881904D02*
X471783865Y-133929523D01*
X471783865Y-133929523D02*
X471974341Y-133929523D01*
X471974341Y-133929523D02*
X472069579Y-133881904D01*
X472069579Y-133881904D02*
X472117199Y-133834285D01*
X472117199Y-133834285D02*
X472164818Y-133739047D01*
X472164818Y-133739047D02*
X472164818Y-133548571D01*
X472164818Y-133548571D02*
X472117199Y-133453333D01*
X472117199Y-133453333D02*
X472069579Y-133405714D01*
X472069579Y-133405714D02*
X471974341Y-133358095D01*
X471974341Y-133358095D02*
X471783865Y-133358095D01*
X471783865Y-133358095D02*
X471688627Y-133405714D01*
X471688627Y-133405714D02*
X471641008Y-133453333D01*
X471641008Y-133453333D02*
X471593389Y-133548571D01*
X478083714Y-204384820D02*
X478083714Y-203384820D01*
X478083714Y-203384820D02*
X478321809Y-203384820D01*
X478321809Y-203384820D02*
X478464666Y-203432439D01*
X478464666Y-203432439D02*
X478559904Y-203527677D01*
X478559904Y-203527677D02*
X478607523Y-203622915D01*
X478607523Y-203622915D02*
X478655142Y-203813391D01*
X478655142Y-203813391D02*
X478655142Y-203956248D01*
X478655142Y-203956248D02*
X478607523Y-204146724D01*
X478607523Y-204146724D02*
X478559904Y-204241962D01*
X478559904Y-204241962D02*
X478464666Y-204337201D01*
X478464666Y-204337201D02*
X478321809Y-204384820D01*
X478321809Y-204384820D02*
X478083714Y-204384820D01*
X479512285Y-203384820D02*
X479321809Y-203384820D01*
X479321809Y-203384820D02*
X479226571Y-203432439D01*
X479226571Y-203432439D02*
X479178952Y-203480058D01*
X479178952Y-203480058D02*
X479083714Y-203622915D01*
X479083714Y-203622915D02*
X479036095Y-203813391D01*
X479036095Y-203813391D02*
X479036095Y-204194343D01*
X479036095Y-204194343D02*
X479083714Y-204289581D01*
X479083714Y-204289581D02*
X479131333Y-204337201D01*
X479131333Y-204337201D02*
X479226571Y-204384820D01*
X479226571Y-204384820D02*
X479417047Y-204384820D01*
X479417047Y-204384820D02*
X479512285Y-204337201D01*
X479512285Y-204337201D02*
X479559904Y-204289581D01*
X479559904Y-204289581D02*
X479607523Y-204194343D01*
X479607523Y-204194343D02*
X479607523Y-203956248D01*
X479607523Y-203956248D02*
X479559904Y-203861010D01*
X479559904Y-203861010D02*
X479512285Y-203813391D01*
X479512285Y-203813391D02*
X479417047Y-203765772D01*
X479417047Y-203765772D02*
X479226571Y-203765772D01*
X479226571Y-203765772D02*
X479131333Y-203813391D01*
X479131333Y-203813391D02*
X479083714Y-203861010D01*
X479083714Y-203861010D02*
X479036095Y-203956248D01*
X480512285Y-203384820D02*
X480036095Y-203384820D01*
X480036095Y-203384820D02*
X479988476Y-203861010D01*
X479988476Y-203861010D02*
X480036095Y-203813391D01*
X480036095Y-203813391D02*
X480131333Y-203765772D01*
X480131333Y-203765772D02*
X480369428Y-203765772D01*
X480369428Y-203765772D02*
X480464666Y-203813391D01*
X480464666Y-203813391D02*
X480512285Y-203861010D01*
X480512285Y-203861010D02*
X480559904Y-203956248D01*
X480559904Y-203956248D02*
X480559904Y-204194343D01*
X480559904Y-204194343D02*
X480512285Y-204289581D01*
X480512285Y-204289581D02*
X480464666Y-204337201D01*
X480464666Y-204337201D02*
X480369428Y-204384820D01*
X480369428Y-204384820D02*
X480131333Y-204384820D01*
X480131333Y-204384820D02*
X480036095Y-204337201D01*
X480036095Y-204337201D02*
X479988476Y-204289581D01*
X162137671Y-154912087D02*
X162613862Y-154912087D01*
X161613862Y-155245420D02*
X162137671Y-154912087D01*
X162137671Y-154912087D02*
X161613862Y-154578754D01*
X162613862Y-153721611D02*
X162613862Y-154293039D01*
X162613862Y-154007325D02*
X161613862Y-154007325D01*
X161613862Y-154007325D02*
X161756719Y-154102563D01*
X161756719Y-154102563D02*
X161851957Y-154197801D01*
X161851957Y-154197801D02*
X161899576Y-154293039D01*
X400790818Y-173934285D02*
X399790818Y-173934285D01*
X399790818Y-173934285D02*
X399790818Y-173696190D01*
X399790818Y-173696190D02*
X399838437Y-173553333D01*
X399838437Y-173553333D02*
X399933675Y-173458095D01*
X399933675Y-173458095D02*
X400028913Y-173410476D01*
X400028913Y-173410476D02*
X400219389Y-173362857D01*
X400219389Y-173362857D02*
X400362246Y-173362857D01*
X400362246Y-173362857D02*
X400552722Y-173410476D01*
X400552722Y-173410476D02*
X400647960Y-173458095D01*
X400647960Y-173458095D02*
X400743199Y-173553333D01*
X400743199Y-173553333D02*
X400790818Y-173696190D01*
X400790818Y-173696190D02*
X400790818Y-173934285D01*
X399790818Y-173029523D02*
X399790818Y-172410476D01*
X399790818Y-172410476D02*
X400171770Y-172743809D01*
X400171770Y-172743809D02*
X400171770Y-172600952D01*
X400171770Y-172600952D02*
X400219389Y-172505714D01*
X400219389Y-172505714D02*
X400267008Y-172458095D01*
X400267008Y-172458095D02*
X400362246Y-172410476D01*
X400362246Y-172410476D02*
X400600341Y-172410476D01*
X400600341Y-172410476D02*
X400695579Y-172458095D01*
X400695579Y-172458095D02*
X400743199Y-172505714D01*
X400743199Y-172505714D02*
X400790818Y-172600952D01*
X400790818Y-172600952D02*
X400790818Y-172886666D01*
X400790818Y-172886666D02*
X400743199Y-172981904D01*
X400743199Y-172981904D02*
X400695579Y-173029523D01*
X400219389Y-171839047D02*
X400171770Y-171934285D01*
X400171770Y-171934285D02*
X400124151Y-171981904D01*
X400124151Y-171981904D02*
X400028913Y-172029523D01*
X400028913Y-172029523D02*
X399981294Y-172029523D01*
X399981294Y-172029523D02*
X399886056Y-171981904D01*
X399886056Y-171981904D02*
X399838437Y-171934285D01*
X399838437Y-171934285D02*
X399790818Y-171839047D01*
X399790818Y-171839047D02*
X399790818Y-171648571D01*
X399790818Y-171648571D02*
X399838437Y-171553333D01*
X399838437Y-171553333D02*
X399886056Y-171505714D01*
X399886056Y-171505714D02*
X399981294Y-171458095D01*
X399981294Y-171458095D02*
X400028913Y-171458095D01*
X400028913Y-171458095D02*
X400124151Y-171505714D01*
X400124151Y-171505714D02*
X400171770Y-171553333D01*
X400171770Y-171553333D02*
X400219389Y-171648571D01*
X400219389Y-171648571D02*
X400219389Y-171839047D01*
X400219389Y-171839047D02*
X400267008Y-171934285D01*
X400267008Y-171934285D02*
X400314627Y-171981904D01*
X400314627Y-171981904D02*
X400409865Y-172029523D01*
X400409865Y-172029523D02*
X400600341Y-172029523D01*
X400600341Y-172029523D02*
X400695579Y-171981904D01*
X400695579Y-171981904D02*
X400743199Y-171934285D01*
X400743199Y-171934285D02*
X400790818Y-171839047D01*
X400790818Y-171839047D02*
X400790818Y-171648571D01*
X400790818Y-171648571D02*
X400743199Y-171553333D01*
X400743199Y-171553333D02*
X400695579Y-171505714D01*
X400695579Y-171505714D02*
X400600341Y-171458095D01*
X400600341Y-171458095D02*
X400409865Y-171458095D01*
X400409865Y-171458095D02*
X400314627Y-171505714D01*
X400314627Y-171505714D02*
X400267008Y-171553333D01*
X400267008Y-171553333D02*
X400219389Y-171648571D01*
X372088818Y-192984285D02*
X371088818Y-192984285D01*
X371088818Y-192984285D02*
X371088818Y-192746190D01*
X371088818Y-192746190D02*
X371136437Y-192603333D01*
X371136437Y-192603333D02*
X371231675Y-192508095D01*
X371231675Y-192508095D02*
X371326913Y-192460476D01*
X371326913Y-192460476D02*
X371517389Y-192412857D01*
X371517389Y-192412857D02*
X371660246Y-192412857D01*
X371660246Y-192412857D02*
X371850722Y-192460476D01*
X371850722Y-192460476D02*
X371945960Y-192508095D01*
X371945960Y-192508095D02*
X372041199Y-192603333D01*
X372041199Y-192603333D02*
X372088818Y-192746190D01*
X372088818Y-192746190D02*
X372088818Y-192984285D01*
X371422151Y-191555714D02*
X372088818Y-191555714D01*
X371041199Y-191793809D02*
X371755484Y-192031904D01*
X371755484Y-192031904D02*
X371755484Y-191412857D01*
X372088818Y-190984285D02*
X372088818Y-190793809D01*
X372088818Y-190793809D02*
X372041199Y-190698571D01*
X372041199Y-190698571D02*
X371993579Y-190650952D01*
X371993579Y-190650952D02*
X371850722Y-190555714D01*
X371850722Y-190555714D02*
X371660246Y-190508095D01*
X371660246Y-190508095D02*
X371279294Y-190508095D01*
X371279294Y-190508095D02*
X371184056Y-190555714D01*
X371184056Y-190555714D02*
X371136437Y-190603333D01*
X371136437Y-190603333D02*
X371088818Y-190698571D01*
X371088818Y-190698571D02*
X371088818Y-190889047D01*
X371088818Y-190889047D02*
X371136437Y-190984285D01*
X371136437Y-190984285D02*
X371184056Y-191031904D01*
X371184056Y-191031904D02*
X371279294Y-191079523D01*
X371279294Y-191079523D02*
X371517389Y-191079523D01*
X371517389Y-191079523D02*
X371612627Y-191031904D01*
X371612627Y-191031904D02*
X371660246Y-190984285D01*
X371660246Y-190984285D02*
X371707865Y-190889047D01*
X371707865Y-190889047D02*
X371707865Y-190698571D01*
X371707865Y-190698571D02*
X371660246Y-190603333D01*
X371660246Y-190603333D02*
X371612627Y-190555714D01*
X371612627Y-190555714D02*
X371517389Y-190508095D01*
X338814818Y-154884285D02*
X337814818Y-154884285D01*
X337814818Y-154884285D02*
X337814818Y-154646190D01*
X337814818Y-154646190D02*
X337862437Y-154503333D01*
X337862437Y-154503333D02*
X337957675Y-154408095D01*
X337957675Y-154408095D02*
X338052913Y-154360476D01*
X338052913Y-154360476D02*
X338243389Y-154312857D01*
X338243389Y-154312857D02*
X338386246Y-154312857D01*
X338386246Y-154312857D02*
X338576722Y-154360476D01*
X338576722Y-154360476D02*
X338671960Y-154408095D01*
X338671960Y-154408095D02*
X338767199Y-154503333D01*
X338767199Y-154503333D02*
X338814818Y-154646190D01*
X338814818Y-154646190D02*
X338814818Y-154884285D01*
X337910056Y-153931904D02*
X337862437Y-153884285D01*
X337862437Y-153884285D02*
X337814818Y-153789047D01*
X337814818Y-153789047D02*
X337814818Y-153550952D01*
X337814818Y-153550952D02*
X337862437Y-153455714D01*
X337862437Y-153455714D02*
X337910056Y-153408095D01*
X337910056Y-153408095D02*
X338005294Y-153360476D01*
X338005294Y-153360476D02*
X338100532Y-153360476D01*
X338100532Y-153360476D02*
X338243389Y-153408095D01*
X338243389Y-153408095D02*
X338814818Y-153979523D01*
X338814818Y-153979523D02*
X338814818Y-153360476D01*
X337814818Y-152741428D02*
X337814818Y-152646190D01*
X337814818Y-152646190D02*
X337862437Y-152550952D01*
X337862437Y-152550952D02*
X337910056Y-152503333D01*
X337910056Y-152503333D02*
X338005294Y-152455714D01*
X338005294Y-152455714D02*
X338195770Y-152408095D01*
X338195770Y-152408095D02*
X338433865Y-152408095D01*
X338433865Y-152408095D02*
X338624341Y-152455714D01*
X338624341Y-152455714D02*
X338719579Y-152503333D01*
X338719579Y-152503333D02*
X338767199Y-152550952D01*
X338767199Y-152550952D02*
X338814818Y-152646190D01*
X338814818Y-152646190D02*
X338814818Y-152741428D01*
X338814818Y-152741428D02*
X338767199Y-152836666D01*
X338767199Y-152836666D02*
X338719579Y-152884285D01*
X338719579Y-152884285D02*
X338624341Y-152931904D01*
X338624341Y-152931904D02*
X338433865Y-152979523D01*
X338433865Y-152979523D02*
X338195770Y-152979523D01*
X338195770Y-152979523D02*
X338005294Y-152931904D01*
X338005294Y-152931904D02*
X337910056Y-152884285D01*
X337910056Y-152884285D02*
X337862437Y-152836666D01*
X337862437Y-152836666D02*
X337814818Y-152741428D01*
X184029833Y-131981819D02*
X183696500Y-131505628D01*
X183458405Y-131981819D02*
X183458405Y-130981819D01*
X183458405Y-130981819D02*
X183839357Y-130981819D01*
X183839357Y-130981819D02*
X183934595Y-131029438D01*
X183934595Y-131029438D02*
X183982214Y-131077057D01*
X183982214Y-131077057D02*
X184029833Y-131172295D01*
X184029833Y-131172295D02*
X184029833Y-131315152D01*
X184029833Y-131315152D02*
X183982214Y-131410390D01*
X183982214Y-131410390D02*
X183934595Y-131458009D01*
X183934595Y-131458009D02*
X183839357Y-131505628D01*
X183839357Y-131505628D02*
X183458405Y-131505628D01*
X184410786Y-131077057D02*
X184458405Y-131029438D01*
X184458405Y-131029438D02*
X184553643Y-130981819D01*
X184553643Y-130981819D02*
X184791738Y-130981819D01*
X184791738Y-130981819D02*
X184886976Y-131029438D01*
X184886976Y-131029438D02*
X184934595Y-131077057D01*
X184934595Y-131077057D02*
X184982214Y-131172295D01*
X184982214Y-131172295D02*
X184982214Y-131267533D01*
X184982214Y-131267533D02*
X184934595Y-131410390D01*
X184934595Y-131410390D02*
X184363167Y-131981819D01*
X184363167Y-131981819D02*
X184982214Y-131981819D01*
X295888818Y-192984285D02*
X294888818Y-192984285D01*
X294888818Y-192984285D02*
X294888818Y-192746190D01*
X294888818Y-192746190D02*
X294936437Y-192603333D01*
X294936437Y-192603333D02*
X295031675Y-192508095D01*
X295031675Y-192508095D02*
X295126913Y-192460476D01*
X295126913Y-192460476D02*
X295317389Y-192412857D01*
X295317389Y-192412857D02*
X295460246Y-192412857D01*
X295460246Y-192412857D02*
X295650722Y-192460476D01*
X295650722Y-192460476D02*
X295745960Y-192508095D01*
X295745960Y-192508095D02*
X295841199Y-192603333D01*
X295841199Y-192603333D02*
X295888818Y-192746190D01*
X295888818Y-192746190D02*
X295888818Y-192984285D01*
X295222151Y-191555714D02*
X295888818Y-191555714D01*
X294841199Y-191793809D02*
X295555484Y-192031904D01*
X295555484Y-192031904D02*
X295555484Y-191412857D01*
X294888818Y-190555714D02*
X294888818Y-191031904D01*
X294888818Y-191031904D02*
X295365008Y-191079523D01*
X295365008Y-191079523D02*
X295317389Y-191031904D01*
X295317389Y-191031904D02*
X295269770Y-190936666D01*
X295269770Y-190936666D02*
X295269770Y-190698571D01*
X295269770Y-190698571D02*
X295317389Y-190603333D01*
X295317389Y-190603333D02*
X295365008Y-190555714D01*
X295365008Y-190555714D02*
X295460246Y-190508095D01*
X295460246Y-190508095D02*
X295698341Y-190508095D01*
X295698341Y-190508095D02*
X295793579Y-190555714D01*
X295793579Y-190555714D02*
X295841199Y-190603333D01*
X295841199Y-190603333D02*
X295888818Y-190698571D01*
X295888818Y-190698571D02*
X295888818Y-190936666D01*
X295888818Y-190936666D02*
X295841199Y-191031904D01*
X295841199Y-191031904D02*
X295793579Y-191079523D01*
X222228818Y-173934285D02*
X221228818Y-173934285D01*
X221228818Y-173934285D02*
X221228818Y-173696190D01*
X221228818Y-173696190D02*
X221276437Y-173553333D01*
X221276437Y-173553333D02*
X221371675Y-173458095D01*
X221371675Y-173458095D02*
X221466913Y-173410476D01*
X221466913Y-173410476D02*
X221657389Y-173362857D01*
X221657389Y-173362857D02*
X221800246Y-173362857D01*
X221800246Y-173362857D02*
X221990722Y-173410476D01*
X221990722Y-173410476D02*
X222085960Y-173458095D01*
X222085960Y-173458095D02*
X222181199Y-173553333D01*
X222181199Y-173553333D02*
X222228818Y-173696190D01*
X222228818Y-173696190D02*
X222228818Y-173934285D01*
X221324056Y-172981904D02*
X221276437Y-172934285D01*
X221276437Y-172934285D02*
X221228818Y-172839047D01*
X221228818Y-172839047D02*
X221228818Y-172600952D01*
X221228818Y-172600952D02*
X221276437Y-172505714D01*
X221276437Y-172505714D02*
X221324056Y-172458095D01*
X221324056Y-172458095D02*
X221419294Y-172410476D01*
X221419294Y-172410476D02*
X221514532Y-172410476D01*
X221514532Y-172410476D02*
X221657389Y-172458095D01*
X221657389Y-172458095D02*
X222228818Y-173029523D01*
X222228818Y-173029523D02*
X222228818Y-172410476D01*
X222228818Y-171934285D02*
X222228818Y-171743809D01*
X222228818Y-171743809D02*
X222181199Y-171648571D01*
X222181199Y-171648571D02*
X222133579Y-171600952D01*
X222133579Y-171600952D02*
X221990722Y-171505714D01*
X221990722Y-171505714D02*
X221800246Y-171458095D01*
X221800246Y-171458095D02*
X221419294Y-171458095D01*
X221419294Y-171458095D02*
X221324056Y-171505714D01*
X221324056Y-171505714D02*
X221276437Y-171553333D01*
X221276437Y-171553333D02*
X221228818Y-171648571D01*
X221228818Y-171648571D02*
X221228818Y-171839047D01*
X221228818Y-171839047D02*
X221276437Y-171934285D01*
X221276437Y-171934285D02*
X221324056Y-171981904D01*
X221324056Y-171981904D02*
X221419294Y-172029523D01*
X221419294Y-172029523D02*
X221657389Y-172029523D01*
X221657389Y-172029523D02*
X221752627Y-171981904D01*
X221752627Y-171981904D02*
X221800246Y-171934285D01*
X221800246Y-171934285D02*
X221847865Y-171839047D01*
X221847865Y-171839047D02*
X221847865Y-171648571D01*
X221847865Y-171648571D02*
X221800246Y-171553333D01*
X221800246Y-171553333D02*
X221752627Y-171505714D01*
X221752627Y-171505714D02*
X221657389Y-171458095D01*
X410188818Y-192984285D02*
X409188818Y-192984285D01*
X409188818Y-192984285D02*
X409188818Y-192746190D01*
X409188818Y-192746190D02*
X409236437Y-192603333D01*
X409236437Y-192603333D02*
X409331675Y-192508095D01*
X409331675Y-192508095D02*
X409426913Y-192460476D01*
X409426913Y-192460476D02*
X409617389Y-192412857D01*
X409617389Y-192412857D02*
X409760246Y-192412857D01*
X409760246Y-192412857D02*
X409950722Y-192460476D01*
X409950722Y-192460476D02*
X410045960Y-192508095D01*
X410045960Y-192508095D02*
X410141199Y-192603333D01*
X410141199Y-192603333D02*
X410188818Y-192746190D01*
X410188818Y-192746190D02*
X410188818Y-192984285D01*
X409188818Y-191508095D02*
X409188818Y-191984285D01*
X409188818Y-191984285D02*
X409665008Y-192031904D01*
X409665008Y-192031904D02*
X409617389Y-191984285D01*
X409617389Y-191984285D02*
X409569770Y-191889047D01*
X409569770Y-191889047D02*
X409569770Y-191650952D01*
X409569770Y-191650952D02*
X409617389Y-191555714D01*
X409617389Y-191555714D02*
X409665008Y-191508095D01*
X409665008Y-191508095D02*
X409760246Y-191460476D01*
X409760246Y-191460476D02*
X409998341Y-191460476D01*
X409998341Y-191460476D02*
X410093579Y-191508095D01*
X410093579Y-191508095D02*
X410141199Y-191555714D01*
X410141199Y-191555714D02*
X410188818Y-191650952D01*
X410188818Y-191650952D02*
X410188818Y-191889047D01*
X410188818Y-191889047D02*
X410141199Y-191984285D01*
X410141199Y-191984285D02*
X410093579Y-192031904D01*
X410188818Y-190508095D02*
X410188818Y-191079523D01*
X410188818Y-190793809D02*
X409188818Y-190793809D01*
X409188818Y-190793809D02*
X409331675Y-190889047D01*
X409331675Y-190889047D02*
X409426913Y-190984285D01*
X409426913Y-190984285D02*
X409474532Y-191079523D01*
X165158667Y-201614200D02*
X165301524Y-201661819D01*
X165301524Y-201661819D02*
X165539619Y-201661819D01*
X165539619Y-201661819D02*
X165634857Y-201614200D01*
X165634857Y-201614200D02*
X165682476Y-201566580D01*
X165682476Y-201566580D02*
X165730095Y-201471342D01*
X165730095Y-201471342D02*
X165730095Y-201376104D01*
X165730095Y-201376104D02*
X165682476Y-201280866D01*
X165682476Y-201280866D02*
X165634857Y-201233247D01*
X165634857Y-201233247D02*
X165539619Y-201185628D01*
X165539619Y-201185628D02*
X165349143Y-201138009D01*
X165349143Y-201138009D02*
X165253905Y-201090390D01*
X165253905Y-201090390D02*
X165206286Y-201042771D01*
X165206286Y-201042771D02*
X165158667Y-200947533D01*
X165158667Y-200947533D02*
X165158667Y-200852295D01*
X165158667Y-200852295D02*
X165206286Y-200757057D01*
X165206286Y-200757057D02*
X165253905Y-200709438D01*
X165253905Y-200709438D02*
X165349143Y-200661819D01*
X165349143Y-200661819D02*
X165587238Y-200661819D01*
X165587238Y-200661819D02*
X165730095Y-200709438D01*
X166063429Y-200661819D02*
X166301524Y-201661819D01*
X166301524Y-201661819D02*
X166492000Y-200947533D01*
X166492000Y-200947533D02*
X166682476Y-201661819D01*
X166682476Y-201661819D02*
X166920572Y-200661819D01*
X167730095Y-200995152D02*
X167730095Y-201661819D01*
X167492000Y-200614200D02*
X167253905Y-201328485D01*
X167253905Y-201328485D02*
X167872952Y-201328485D01*
X438890818Y-173934285D02*
X437890818Y-173934285D01*
X437890818Y-173934285D02*
X437890818Y-173696190D01*
X437890818Y-173696190D02*
X437938437Y-173553333D01*
X437938437Y-173553333D02*
X438033675Y-173458095D01*
X438033675Y-173458095D02*
X438128913Y-173410476D01*
X438128913Y-173410476D02*
X438319389Y-173362857D01*
X438319389Y-173362857D02*
X438462246Y-173362857D01*
X438462246Y-173362857D02*
X438652722Y-173410476D01*
X438652722Y-173410476D02*
X438747960Y-173458095D01*
X438747960Y-173458095D02*
X438843199Y-173553333D01*
X438843199Y-173553333D02*
X438890818Y-173696190D01*
X438890818Y-173696190D02*
X438890818Y-173934285D01*
X438224151Y-172505714D02*
X438890818Y-172505714D01*
X437843199Y-172743809D02*
X438557484Y-172981904D01*
X438557484Y-172981904D02*
X438557484Y-172362857D01*
X437890818Y-171791428D02*
X437890818Y-171696190D01*
X437890818Y-171696190D02*
X437938437Y-171600952D01*
X437938437Y-171600952D02*
X437986056Y-171553333D01*
X437986056Y-171553333D02*
X438081294Y-171505714D01*
X438081294Y-171505714D02*
X438271770Y-171458095D01*
X438271770Y-171458095D02*
X438509865Y-171458095D01*
X438509865Y-171458095D02*
X438700341Y-171505714D01*
X438700341Y-171505714D02*
X438795579Y-171553333D01*
X438795579Y-171553333D02*
X438843199Y-171600952D01*
X438843199Y-171600952D02*
X438890818Y-171696190D01*
X438890818Y-171696190D02*
X438890818Y-171791428D01*
X438890818Y-171791428D02*
X438843199Y-171886666D01*
X438843199Y-171886666D02*
X438795579Y-171934285D01*
X438795579Y-171934285D02*
X438700341Y-171981904D01*
X438700341Y-171981904D02*
X438509865Y-172029523D01*
X438509865Y-172029523D02*
X438271770Y-172029523D01*
X438271770Y-172029523D02*
X438081294Y-171981904D01*
X438081294Y-171981904D02*
X437986056Y-171934285D01*
X437986056Y-171934285D02*
X437938437Y-171886666D01*
X437938437Y-171886666D02*
X437890818Y-171791428D01*
X217402818Y-212034285D02*
X216402818Y-212034285D01*
X216402818Y-212034285D02*
X216402818Y-211796190D01*
X216402818Y-211796190D02*
X216450437Y-211653333D01*
X216450437Y-211653333D02*
X216545675Y-211558095D01*
X216545675Y-211558095D02*
X216640913Y-211510476D01*
X216640913Y-211510476D02*
X216831389Y-211462857D01*
X216831389Y-211462857D02*
X216974246Y-211462857D01*
X216974246Y-211462857D02*
X217164722Y-211510476D01*
X217164722Y-211510476D02*
X217259960Y-211558095D01*
X217259960Y-211558095D02*
X217355199Y-211653333D01*
X217355199Y-211653333D02*
X217402818Y-211796190D01*
X217402818Y-211796190D02*
X217402818Y-212034285D01*
X216402818Y-210558095D02*
X216402818Y-211034285D01*
X216402818Y-211034285D02*
X216879008Y-211081904D01*
X216879008Y-211081904D02*
X216831389Y-211034285D01*
X216831389Y-211034285D02*
X216783770Y-210939047D01*
X216783770Y-210939047D02*
X216783770Y-210700952D01*
X216783770Y-210700952D02*
X216831389Y-210605714D01*
X216831389Y-210605714D02*
X216879008Y-210558095D01*
X216879008Y-210558095D02*
X216974246Y-210510476D01*
X216974246Y-210510476D02*
X217212341Y-210510476D01*
X217212341Y-210510476D02*
X217307579Y-210558095D01*
X217307579Y-210558095D02*
X217355199Y-210605714D01*
X217355199Y-210605714D02*
X217402818Y-210700952D01*
X217402818Y-210700952D02*
X217402818Y-210939047D01*
X217402818Y-210939047D02*
X217355199Y-211034285D01*
X217355199Y-211034285D02*
X217307579Y-211081904D01*
X216402818Y-209605714D02*
X216402818Y-210081904D01*
X216402818Y-210081904D02*
X216879008Y-210129523D01*
X216879008Y-210129523D02*
X216831389Y-210081904D01*
X216831389Y-210081904D02*
X216783770Y-209986666D01*
X216783770Y-209986666D02*
X216783770Y-209748571D01*
X216783770Y-209748571D02*
X216831389Y-209653333D01*
X216831389Y-209653333D02*
X216879008Y-209605714D01*
X216879008Y-209605714D02*
X216974246Y-209558095D01*
X216974246Y-209558095D02*
X217212341Y-209558095D01*
X217212341Y-209558095D02*
X217307579Y-209605714D01*
X217307579Y-209605714D02*
X217355199Y-209653333D01*
X217355199Y-209653333D02*
X217402818Y-209748571D01*
X217402818Y-209748571D02*
X217402818Y-209986666D01*
X217402818Y-209986666D02*
X217355199Y-210081904D01*
X217355199Y-210081904D02*
X217307579Y-210129523D01*
X419840818Y-173934285D02*
X418840818Y-173934285D01*
X418840818Y-173934285D02*
X418840818Y-173696190D01*
X418840818Y-173696190D02*
X418888437Y-173553333D01*
X418888437Y-173553333D02*
X418983675Y-173458095D01*
X418983675Y-173458095D02*
X419078913Y-173410476D01*
X419078913Y-173410476D02*
X419269389Y-173362857D01*
X419269389Y-173362857D02*
X419412246Y-173362857D01*
X419412246Y-173362857D02*
X419602722Y-173410476D01*
X419602722Y-173410476D02*
X419697960Y-173458095D01*
X419697960Y-173458095D02*
X419793199Y-173553333D01*
X419793199Y-173553333D02*
X419840818Y-173696190D01*
X419840818Y-173696190D02*
X419840818Y-173934285D01*
X418840818Y-173029523D02*
X418840818Y-172410476D01*
X418840818Y-172410476D02*
X419221770Y-172743809D01*
X419221770Y-172743809D02*
X419221770Y-172600952D01*
X419221770Y-172600952D02*
X419269389Y-172505714D01*
X419269389Y-172505714D02*
X419317008Y-172458095D01*
X419317008Y-172458095D02*
X419412246Y-172410476D01*
X419412246Y-172410476D02*
X419650341Y-172410476D01*
X419650341Y-172410476D02*
X419745579Y-172458095D01*
X419745579Y-172458095D02*
X419793199Y-172505714D01*
X419793199Y-172505714D02*
X419840818Y-172600952D01*
X419840818Y-172600952D02*
X419840818Y-172886666D01*
X419840818Y-172886666D02*
X419793199Y-172981904D01*
X419793199Y-172981904D02*
X419745579Y-173029523D01*
X419840818Y-171934285D02*
X419840818Y-171743809D01*
X419840818Y-171743809D02*
X419793199Y-171648571D01*
X419793199Y-171648571D02*
X419745579Y-171600952D01*
X419745579Y-171600952D02*
X419602722Y-171505714D01*
X419602722Y-171505714D02*
X419412246Y-171458095D01*
X419412246Y-171458095D02*
X419031294Y-171458095D01*
X419031294Y-171458095D02*
X418936056Y-171505714D01*
X418936056Y-171505714D02*
X418888437Y-171553333D01*
X418888437Y-171553333D02*
X418840818Y-171648571D01*
X418840818Y-171648571D02*
X418840818Y-171839047D01*
X418840818Y-171839047D02*
X418888437Y-171934285D01*
X418888437Y-171934285D02*
X418936056Y-171981904D01*
X418936056Y-171981904D02*
X419031294Y-172029523D01*
X419031294Y-172029523D02*
X419269389Y-172029523D01*
X419269389Y-172029523D02*
X419364627Y-171981904D01*
X419364627Y-171981904D02*
X419412246Y-171934285D01*
X419412246Y-171934285D02*
X419459865Y-171839047D01*
X419459865Y-171839047D02*
X419459865Y-171648571D01*
X419459865Y-171648571D02*
X419412246Y-171553333D01*
X419412246Y-171553333D02*
X419364627Y-171505714D01*
X419364627Y-171505714D02*
X419269389Y-171458095D01*
X276838818Y-192984285D02*
X275838818Y-192984285D01*
X275838818Y-192984285D02*
X275838818Y-192746190D01*
X275838818Y-192746190D02*
X275886437Y-192603333D01*
X275886437Y-192603333D02*
X275981675Y-192508095D01*
X275981675Y-192508095D02*
X276076913Y-192460476D01*
X276076913Y-192460476D02*
X276267389Y-192412857D01*
X276267389Y-192412857D02*
X276410246Y-192412857D01*
X276410246Y-192412857D02*
X276600722Y-192460476D01*
X276600722Y-192460476D02*
X276695960Y-192508095D01*
X276695960Y-192508095D02*
X276791199Y-192603333D01*
X276791199Y-192603333D02*
X276838818Y-192746190D01*
X276838818Y-192746190D02*
X276838818Y-192984285D01*
X276172151Y-191555714D02*
X276838818Y-191555714D01*
X275791199Y-191793809D02*
X276505484Y-192031904D01*
X276505484Y-192031904D02*
X276505484Y-191412857D01*
X276172151Y-190603333D02*
X276838818Y-190603333D01*
X275791199Y-190841428D02*
X276505484Y-191079523D01*
X276505484Y-191079523D02*
X276505484Y-190460476D01*
X219942818Y-154884285D02*
X218942818Y-154884285D01*
X218942818Y-154884285D02*
X218942818Y-154646190D01*
X218942818Y-154646190D02*
X218990437Y-154503333D01*
X218990437Y-154503333D02*
X219085675Y-154408095D01*
X219085675Y-154408095D02*
X219180913Y-154360476D01*
X219180913Y-154360476D02*
X219371389Y-154312857D01*
X219371389Y-154312857D02*
X219514246Y-154312857D01*
X219514246Y-154312857D02*
X219704722Y-154360476D01*
X219704722Y-154360476D02*
X219799960Y-154408095D01*
X219799960Y-154408095D02*
X219895199Y-154503333D01*
X219895199Y-154503333D02*
X219942818Y-154646190D01*
X219942818Y-154646190D02*
X219942818Y-154884285D01*
X219942818Y-153360476D02*
X219942818Y-153931904D01*
X219942818Y-153646190D02*
X218942818Y-153646190D01*
X218942818Y-153646190D02*
X219085675Y-153741428D01*
X219085675Y-153741428D02*
X219180913Y-153836666D01*
X219180913Y-153836666D02*
X219228532Y-153931904D01*
X219276151Y-152503333D02*
X219942818Y-152503333D01*
X218895199Y-152741428D02*
X219609484Y-152979523D01*
X219609484Y-152979523D02*
X219609484Y-152360476D01*
X333988818Y-192984285D02*
X332988818Y-192984285D01*
X332988818Y-192984285D02*
X332988818Y-192746190D01*
X332988818Y-192746190D02*
X333036437Y-192603333D01*
X333036437Y-192603333D02*
X333131675Y-192508095D01*
X333131675Y-192508095D02*
X333226913Y-192460476D01*
X333226913Y-192460476D02*
X333417389Y-192412857D01*
X333417389Y-192412857D02*
X333560246Y-192412857D01*
X333560246Y-192412857D02*
X333750722Y-192460476D01*
X333750722Y-192460476D02*
X333845960Y-192508095D01*
X333845960Y-192508095D02*
X333941199Y-192603333D01*
X333941199Y-192603333D02*
X333988818Y-192746190D01*
X333988818Y-192746190D02*
X333988818Y-192984285D01*
X333322151Y-191555714D02*
X333988818Y-191555714D01*
X332941199Y-191793809D02*
X333655484Y-192031904D01*
X333655484Y-192031904D02*
X333655484Y-191412857D01*
X332988818Y-191127142D02*
X332988818Y-190460476D01*
X332988818Y-190460476D02*
X333988818Y-190889047D01*
X262614818Y-154884285D02*
X261614818Y-154884285D01*
X261614818Y-154884285D02*
X261614818Y-154646190D01*
X261614818Y-154646190D02*
X261662437Y-154503333D01*
X261662437Y-154503333D02*
X261757675Y-154408095D01*
X261757675Y-154408095D02*
X261852913Y-154360476D01*
X261852913Y-154360476D02*
X262043389Y-154312857D01*
X262043389Y-154312857D02*
X262186246Y-154312857D01*
X262186246Y-154312857D02*
X262376722Y-154360476D01*
X262376722Y-154360476D02*
X262471960Y-154408095D01*
X262471960Y-154408095D02*
X262567199Y-154503333D01*
X262567199Y-154503333D02*
X262614818Y-154646190D01*
X262614818Y-154646190D02*
X262614818Y-154884285D01*
X262614818Y-153360476D02*
X262614818Y-153931904D01*
X262614818Y-153646190D02*
X261614818Y-153646190D01*
X261614818Y-153646190D02*
X261757675Y-153741428D01*
X261757675Y-153741428D02*
X261852913Y-153836666D01*
X261852913Y-153836666D02*
X261900532Y-153931904D01*
X261614818Y-152503333D02*
X261614818Y-152693809D01*
X261614818Y-152693809D02*
X261662437Y-152789047D01*
X261662437Y-152789047D02*
X261710056Y-152836666D01*
X261710056Y-152836666D02*
X261852913Y-152931904D01*
X261852913Y-152931904D02*
X262043389Y-152979523D01*
X262043389Y-152979523D02*
X262424341Y-152979523D01*
X262424341Y-152979523D02*
X262519579Y-152931904D01*
X262519579Y-152931904D02*
X262567199Y-152884285D01*
X262567199Y-152884285D02*
X262614818Y-152789047D01*
X262614818Y-152789047D02*
X262614818Y-152598571D01*
X262614818Y-152598571D02*
X262567199Y-152503333D01*
X262567199Y-152503333D02*
X262519579Y-152455714D01*
X262519579Y-152455714D02*
X262424341Y-152408095D01*
X262424341Y-152408095D02*
X262186246Y-152408095D01*
X262186246Y-152408095D02*
X262091008Y-152455714D01*
X262091008Y-152455714D02*
X262043389Y-152503333D01*
X262043389Y-152503333D02*
X261995770Y-152598571D01*
X261995770Y-152598571D02*
X261995770Y-152789047D01*
X261995770Y-152789047D02*
X262043389Y-152884285D01*
X262043389Y-152884285D02*
X262091008Y-152931904D01*
X262091008Y-152931904D02*
X262186246Y-152979523D01*
X305540818Y-173934285D02*
X304540818Y-173934285D01*
X304540818Y-173934285D02*
X304540818Y-173696190D01*
X304540818Y-173696190D02*
X304588437Y-173553333D01*
X304588437Y-173553333D02*
X304683675Y-173458095D01*
X304683675Y-173458095D02*
X304778913Y-173410476D01*
X304778913Y-173410476D02*
X304969389Y-173362857D01*
X304969389Y-173362857D02*
X305112246Y-173362857D01*
X305112246Y-173362857D02*
X305302722Y-173410476D01*
X305302722Y-173410476D02*
X305397960Y-173458095D01*
X305397960Y-173458095D02*
X305493199Y-173553333D01*
X305493199Y-173553333D02*
X305540818Y-173696190D01*
X305540818Y-173696190D02*
X305540818Y-173934285D01*
X304540818Y-173029523D02*
X304540818Y-172410476D01*
X304540818Y-172410476D02*
X304921770Y-172743809D01*
X304921770Y-172743809D02*
X304921770Y-172600952D01*
X304921770Y-172600952D02*
X304969389Y-172505714D01*
X304969389Y-172505714D02*
X305017008Y-172458095D01*
X305017008Y-172458095D02*
X305112246Y-172410476D01*
X305112246Y-172410476D02*
X305350341Y-172410476D01*
X305350341Y-172410476D02*
X305445579Y-172458095D01*
X305445579Y-172458095D02*
X305493199Y-172505714D01*
X305493199Y-172505714D02*
X305540818Y-172600952D01*
X305540818Y-172600952D02*
X305540818Y-172886666D01*
X305540818Y-172886666D02*
X305493199Y-172981904D01*
X305493199Y-172981904D02*
X305445579Y-173029523D01*
X304540818Y-172077142D02*
X304540818Y-171458095D01*
X304540818Y-171458095D02*
X304921770Y-171791428D01*
X304921770Y-171791428D02*
X304921770Y-171648571D01*
X304921770Y-171648571D02*
X304969389Y-171553333D01*
X304969389Y-171553333D02*
X305017008Y-171505714D01*
X305017008Y-171505714D02*
X305112246Y-171458095D01*
X305112246Y-171458095D02*
X305350341Y-171458095D01*
X305350341Y-171458095D02*
X305445579Y-171505714D01*
X305445579Y-171505714D02*
X305493199Y-171553333D01*
X305493199Y-171553333D02*
X305540818Y-171648571D01*
X305540818Y-171648571D02*
X305540818Y-171934285D01*
X305540818Y-171934285D02*
X305493199Y-172029523D01*
X305493199Y-172029523D02*
X305445579Y-172077142D01*
X479972804Y-185461820D02*
X479972804Y-184461820D01*
X479972804Y-184461820D02*
X480210899Y-184461820D01*
X480210899Y-184461820D02*
X480353756Y-184509439D01*
X480353756Y-184509439D02*
X480448994Y-184604677D01*
X480448994Y-184604677D02*
X480496613Y-184699915D01*
X480496613Y-184699915D02*
X480544232Y-184890391D01*
X480544232Y-184890391D02*
X480544232Y-185033248D01*
X480544232Y-185033248D02*
X480496613Y-185223724D01*
X480496613Y-185223724D02*
X480448994Y-185318962D01*
X480448994Y-185318962D02*
X480353756Y-185414201D01*
X480353756Y-185414201D02*
X480210899Y-185461820D01*
X480210899Y-185461820D02*
X479972804Y-185461820D01*
X481448994Y-184461820D02*
X480972804Y-184461820D01*
X480972804Y-184461820D02*
X480925185Y-184938010D01*
X480925185Y-184938010D02*
X480972804Y-184890391D01*
X480972804Y-184890391D02*
X481068042Y-184842772D01*
X481068042Y-184842772D02*
X481306137Y-184842772D01*
X481306137Y-184842772D02*
X481401375Y-184890391D01*
X481401375Y-184890391D02*
X481448994Y-184938010D01*
X481448994Y-184938010D02*
X481496613Y-185033248D01*
X481496613Y-185033248D02*
X481496613Y-185271343D01*
X481496613Y-185271343D02*
X481448994Y-185366581D01*
X481448994Y-185366581D02*
X481401375Y-185414201D01*
X481401375Y-185414201D02*
X481306137Y-185461820D01*
X481306137Y-185461820D02*
X481068042Y-185461820D01*
X481068042Y-185461820D02*
X480972804Y-185414201D01*
X480972804Y-185414201D02*
X480925185Y-185366581D01*
X482353756Y-184795153D02*
X482353756Y-185461820D01*
X482115661Y-184414201D02*
X481877566Y-185128486D01*
X481877566Y-185128486D02*
X482496613Y-185128486D01*
X281664818Y-154884285D02*
X280664818Y-154884285D01*
X280664818Y-154884285D02*
X280664818Y-154646190D01*
X280664818Y-154646190D02*
X280712437Y-154503333D01*
X280712437Y-154503333D02*
X280807675Y-154408095D01*
X280807675Y-154408095D02*
X280902913Y-154360476D01*
X280902913Y-154360476D02*
X281093389Y-154312857D01*
X281093389Y-154312857D02*
X281236246Y-154312857D01*
X281236246Y-154312857D02*
X281426722Y-154360476D01*
X281426722Y-154360476D02*
X281521960Y-154408095D01*
X281521960Y-154408095D02*
X281617199Y-154503333D01*
X281617199Y-154503333D02*
X281664818Y-154646190D01*
X281664818Y-154646190D02*
X281664818Y-154884285D01*
X281664818Y-153360476D02*
X281664818Y-153931904D01*
X281664818Y-153646190D02*
X280664818Y-153646190D01*
X280664818Y-153646190D02*
X280807675Y-153741428D01*
X280807675Y-153741428D02*
X280902913Y-153836666D01*
X280902913Y-153836666D02*
X280950532Y-153931904D01*
X280664818Y-153027142D02*
X280664818Y-152360476D01*
X280664818Y-152360476D02*
X281664818Y-152789047D01*
X462766818Y-212034285D02*
X461766818Y-212034285D01*
X461766818Y-212034285D02*
X461766818Y-211796190D01*
X461766818Y-211796190D02*
X461814437Y-211653333D01*
X461814437Y-211653333D02*
X461909675Y-211558095D01*
X461909675Y-211558095D02*
X462004913Y-211510476D01*
X462004913Y-211510476D02*
X462195389Y-211462857D01*
X462195389Y-211462857D02*
X462338246Y-211462857D01*
X462338246Y-211462857D02*
X462528722Y-211510476D01*
X462528722Y-211510476D02*
X462623960Y-211558095D01*
X462623960Y-211558095D02*
X462719199Y-211653333D01*
X462719199Y-211653333D02*
X462766818Y-211796190D01*
X462766818Y-211796190D02*
X462766818Y-212034285D01*
X461766818Y-210605714D02*
X461766818Y-210796190D01*
X461766818Y-210796190D02*
X461814437Y-210891428D01*
X461814437Y-210891428D02*
X461862056Y-210939047D01*
X461862056Y-210939047D02*
X462004913Y-211034285D01*
X462004913Y-211034285D02*
X462195389Y-211081904D01*
X462195389Y-211081904D02*
X462576341Y-211081904D01*
X462576341Y-211081904D02*
X462671579Y-211034285D01*
X462671579Y-211034285D02*
X462719199Y-210986666D01*
X462719199Y-210986666D02*
X462766818Y-210891428D01*
X462766818Y-210891428D02*
X462766818Y-210700952D01*
X462766818Y-210700952D02*
X462719199Y-210605714D01*
X462719199Y-210605714D02*
X462671579Y-210558095D01*
X462671579Y-210558095D02*
X462576341Y-210510476D01*
X462576341Y-210510476D02*
X462338246Y-210510476D01*
X462338246Y-210510476D02*
X462243008Y-210558095D01*
X462243008Y-210558095D02*
X462195389Y-210605714D01*
X462195389Y-210605714D02*
X462147770Y-210700952D01*
X462147770Y-210700952D02*
X462147770Y-210891428D01*
X462147770Y-210891428D02*
X462195389Y-210986666D01*
X462195389Y-210986666D02*
X462243008Y-211034285D01*
X462243008Y-211034285D02*
X462338246Y-211081904D01*
X462100151Y-209653333D02*
X462766818Y-209653333D01*
X461719199Y-209891428D02*
X462433484Y-210129523D01*
X462433484Y-210129523D02*
X462433484Y-209510476D01*
X169981269Y-145355044D02*
X169408850Y-145254029D01*
X169577208Y-145759105D02*
X168870102Y-145051998D01*
X168870102Y-145051998D02*
X169139476Y-144782624D01*
X169139476Y-144782624D02*
X169240491Y-144748952D01*
X169240491Y-144748952D02*
X169307834Y-144748952D01*
X169307834Y-144748952D02*
X169408850Y-144782624D01*
X169408850Y-144782624D02*
X169509865Y-144883639D01*
X169509865Y-144883639D02*
X169543537Y-144984655D01*
X169543537Y-144984655D02*
X169543537Y-145051998D01*
X169543537Y-145051998D02*
X169509865Y-145153013D01*
X169509865Y-145153013D02*
X169240491Y-145422387D01*
X169880254Y-144041846D02*
X169745567Y-144176533D01*
X169745567Y-144176533D02*
X169711895Y-144277548D01*
X169711895Y-144277548D02*
X169711895Y-144344891D01*
X169711895Y-144344891D02*
X169745567Y-144513250D01*
X169745567Y-144513250D02*
X169846582Y-144681609D01*
X169846582Y-144681609D02*
X170115956Y-144950983D01*
X170115956Y-144950983D02*
X170216972Y-144984655D01*
X170216972Y-144984655D02*
X170284315Y-144984655D01*
X170284315Y-144984655D02*
X170385330Y-144950983D01*
X170385330Y-144950983D02*
X170520017Y-144816296D01*
X170520017Y-144816296D02*
X170553689Y-144715281D01*
X170553689Y-144715281D02*
X170553689Y-144647937D01*
X170553689Y-144647937D02*
X170520017Y-144546922D01*
X170520017Y-144546922D02*
X170351659Y-144378563D01*
X170351659Y-144378563D02*
X170250643Y-144344891D01*
X170250643Y-144344891D02*
X170183300Y-144344891D01*
X170183300Y-144344891D02*
X170082285Y-144378563D01*
X170082285Y-144378563D02*
X169947598Y-144513250D01*
X169947598Y-144513250D02*
X169913926Y-144614265D01*
X169913926Y-144614265D02*
X169913926Y-144681609D01*
X169913926Y-144681609D02*
X169947598Y-144782624D01*
X391138818Y-192984285D02*
X390138818Y-192984285D01*
X390138818Y-192984285D02*
X390138818Y-192746190D01*
X390138818Y-192746190D02*
X390186437Y-192603333D01*
X390186437Y-192603333D02*
X390281675Y-192508095D01*
X390281675Y-192508095D02*
X390376913Y-192460476D01*
X390376913Y-192460476D02*
X390567389Y-192412857D01*
X390567389Y-192412857D02*
X390710246Y-192412857D01*
X390710246Y-192412857D02*
X390900722Y-192460476D01*
X390900722Y-192460476D02*
X390995960Y-192508095D01*
X390995960Y-192508095D02*
X391091199Y-192603333D01*
X391091199Y-192603333D02*
X391138818Y-192746190D01*
X391138818Y-192746190D02*
X391138818Y-192984285D01*
X390138818Y-191508095D02*
X390138818Y-191984285D01*
X390138818Y-191984285D02*
X390615008Y-192031904D01*
X390615008Y-192031904D02*
X390567389Y-191984285D01*
X390567389Y-191984285D02*
X390519770Y-191889047D01*
X390519770Y-191889047D02*
X390519770Y-191650952D01*
X390519770Y-191650952D02*
X390567389Y-191555714D01*
X390567389Y-191555714D02*
X390615008Y-191508095D01*
X390615008Y-191508095D02*
X390710246Y-191460476D01*
X390710246Y-191460476D02*
X390948341Y-191460476D01*
X390948341Y-191460476D02*
X391043579Y-191508095D01*
X391043579Y-191508095D02*
X391091199Y-191555714D01*
X391091199Y-191555714D02*
X391138818Y-191650952D01*
X391138818Y-191650952D02*
X391138818Y-191889047D01*
X391138818Y-191889047D02*
X391091199Y-191984285D01*
X391091199Y-191984285D02*
X391043579Y-192031904D01*
X390138818Y-190841428D02*
X390138818Y-190746190D01*
X390138818Y-190746190D02*
X390186437Y-190650952D01*
X390186437Y-190650952D02*
X390234056Y-190603333D01*
X390234056Y-190603333D02*
X390329294Y-190555714D01*
X390329294Y-190555714D02*
X390519770Y-190508095D01*
X390519770Y-190508095D02*
X390757865Y-190508095D01*
X390757865Y-190508095D02*
X390948341Y-190555714D01*
X390948341Y-190555714D02*
X391043579Y-190603333D01*
X391043579Y-190603333D02*
X391091199Y-190650952D01*
X391091199Y-190650952D02*
X391138818Y-190746190D01*
X391138818Y-190746190D02*
X391138818Y-190841428D01*
X391138818Y-190841428D02*
X391091199Y-190936666D01*
X391091199Y-190936666D02*
X391043579Y-190984285D01*
X391043579Y-190984285D02*
X390948341Y-191031904D01*
X390948341Y-191031904D02*
X390757865Y-191079523D01*
X390757865Y-191079523D02*
X390519770Y-191079523D01*
X390519770Y-191079523D02*
X390329294Y-191031904D01*
X390329294Y-191031904D02*
X390234056Y-190984285D01*
X390234056Y-190984285D02*
X390186437Y-190936666D01*
X390186437Y-190936666D02*
X390138818Y-190841428D01*
X192969714Y-215624819D02*
X192969714Y-214624819D01*
X192969714Y-214624819D02*
X193207809Y-214624819D01*
X193207809Y-214624819D02*
X193350666Y-214672438D01*
X193350666Y-214672438D02*
X193445904Y-214767676D01*
X193445904Y-214767676D02*
X193493523Y-214862914D01*
X193493523Y-214862914D02*
X193541142Y-215053390D01*
X193541142Y-215053390D02*
X193541142Y-215196247D01*
X193541142Y-215196247D02*
X193493523Y-215386723D01*
X193493523Y-215386723D02*
X193445904Y-215481961D01*
X193445904Y-215481961D02*
X193350666Y-215577200D01*
X193350666Y-215577200D02*
X193207809Y-215624819D01*
X193207809Y-215624819D02*
X192969714Y-215624819D01*
X193874476Y-214624819D02*
X194541142Y-214624819D01*
X194541142Y-214624819D02*
X194112571Y-215624819D01*
X194826857Y-214624819D02*
X195445904Y-214624819D01*
X195445904Y-214624819D02*
X195112571Y-215005771D01*
X195112571Y-215005771D02*
X195255428Y-215005771D01*
X195255428Y-215005771D02*
X195350666Y-215053390D01*
X195350666Y-215053390D02*
X195398285Y-215101009D01*
X195398285Y-215101009D02*
X195445904Y-215196247D01*
X195445904Y-215196247D02*
X195445904Y-215434342D01*
X195445904Y-215434342D02*
X195398285Y-215529580D01*
X195398285Y-215529580D02*
X195350666Y-215577200D01*
X195350666Y-215577200D02*
X195255428Y-215624819D01*
X195255428Y-215624819D02*
X194969714Y-215624819D01*
X194969714Y-215624819D02*
X194874476Y-215577200D01*
X194874476Y-215577200D02*
X194826857Y-215529580D01*
X190825945Y-149738220D02*
X190873565Y-149785839D01*
X190873565Y-149785839D02*
X190921184Y-149928696D01*
X190921184Y-149928696D02*
X190921184Y-150023934D01*
X190921184Y-150023934D02*
X190873565Y-150166791D01*
X190873565Y-150166791D02*
X190778326Y-150262029D01*
X190778326Y-150262029D02*
X190683088Y-150309648D01*
X190683088Y-150309648D02*
X190492612Y-150357267D01*
X190492612Y-150357267D02*
X190349755Y-150357267D01*
X190349755Y-150357267D02*
X190159279Y-150309648D01*
X190159279Y-150309648D02*
X190064041Y-150262029D01*
X190064041Y-150262029D02*
X189968803Y-150166791D01*
X189968803Y-150166791D02*
X189921184Y-150023934D01*
X189921184Y-150023934D02*
X189921184Y-149928696D01*
X189921184Y-149928696D02*
X189968803Y-149785839D01*
X189968803Y-149785839D02*
X190016422Y-149738220D01*
X189921184Y-148881077D02*
X189921184Y-149071553D01*
X189921184Y-149071553D02*
X189968803Y-149166791D01*
X189968803Y-149166791D02*
X190016422Y-149214410D01*
X190016422Y-149214410D02*
X190159279Y-149309648D01*
X190159279Y-149309648D02*
X190349755Y-149357267D01*
X190349755Y-149357267D02*
X190730707Y-149357267D01*
X190730707Y-149357267D02*
X190825945Y-149309648D01*
X190825945Y-149309648D02*
X190873565Y-149262029D01*
X190873565Y-149262029D02*
X190921184Y-149166791D01*
X190921184Y-149166791D02*
X190921184Y-148976315D01*
X190921184Y-148976315D02*
X190873565Y-148881077D01*
X190873565Y-148881077D02*
X190825945Y-148833458D01*
X190825945Y-148833458D02*
X190730707Y-148785839D01*
X190730707Y-148785839D02*
X190492612Y-148785839D01*
X190492612Y-148785839D02*
X190397374Y-148833458D01*
X190397374Y-148833458D02*
X190349755Y-148881077D01*
X190349755Y-148881077D02*
X190302136Y-148976315D01*
X190302136Y-148976315D02*
X190302136Y-149166791D01*
X190302136Y-149166791D02*
X190349755Y-149262029D01*
X190349755Y-149262029D02*
X190397374Y-149309648D01*
X190397374Y-149309648D02*
X190492612Y-149357267D01*
X248390818Y-173934285D02*
X247390818Y-173934285D01*
X247390818Y-173934285D02*
X247390818Y-173696190D01*
X247390818Y-173696190D02*
X247438437Y-173553333D01*
X247438437Y-173553333D02*
X247533675Y-173458095D01*
X247533675Y-173458095D02*
X247628913Y-173410476D01*
X247628913Y-173410476D02*
X247819389Y-173362857D01*
X247819389Y-173362857D02*
X247962246Y-173362857D01*
X247962246Y-173362857D02*
X248152722Y-173410476D01*
X248152722Y-173410476D02*
X248247960Y-173458095D01*
X248247960Y-173458095D02*
X248343199Y-173553333D01*
X248343199Y-173553333D02*
X248390818Y-173696190D01*
X248390818Y-173696190D02*
X248390818Y-173934285D01*
X247390818Y-173029523D02*
X247390818Y-172410476D01*
X247390818Y-172410476D02*
X247771770Y-172743809D01*
X247771770Y-172743809D02*
X247771770Y-172600952D01*
X247771770Y-172600952D02*
X247819389Y-172505714D01*
X247819389Y-172505714D02*
X247867008Y-172458095D01*
X247867008Y-172458095D02*
X247962246Y-172410476D01*
X247962246Y-172410476D02*
X248200341Y-172410476D01*
X248200341Y-172410476D02*
X248295579Y-172458095D01*
X248295579Y-172458095D02*
X248343199Y-172505714D01*
X248343199Y-172505714D02*
X248390818Y-172600952D01*
X248390818Y-172600952D02*
X248390818Y-172886666D01*
X248390818Y-172886666D02*
X248343199Y-172981904D01*
X248343199Y-172981904D02*
X248295579Y-173029523D01*
X247390818Y-171791428D02*
X247390818Y-171696190D01*
X247390818Y-171696190D02*
X247438437Y-171600952D01*
X247438437Y-171600952D02*
X247486056Y-171553333D01*
X247486056Y-171553333D02*
X247581294Y-171505714D01*
X247581294Y-171505714D02*
X247771770Y-171458095D01*
X247771770Y-171458095D02*
X248009865Y-171458095D01*
X248009865Y-171458095D02*
X248200341Y-171505714D01*
X248200341Y-171505714D02*
X248295579Y-171553333D01*
X248295579Y-171553333D02*
X248343199Y-171600952D01*
X248343199Y-171600952D02*
X248390818Y-171696190D01*
X248390818Y-171696190D02*
X248390818Y-171791428D01*
X248390818Y-171791428D02*
X248343199Y-171886666D01*
X248343199Y-171886666D02*
X248295579Y-171934285D01*
X248295579Y-171934285D02*
X248200341Y-171981904D01*
X248200341Y-171981904D02*
X248009865Y-172029523D01*
X248009865Y-172029523D02*
X247771770Y-172029523D01*
X247771770Y-172029523D02*
X247581294Y-171981904D01*
X247581294Y-171981904D02*
X247486056Y-171934285D01*
X247486056Y-171934285D02*
X247438437Y-171886666D01*
X247438437Y-171886666D02*
X247390818Y-171791428D01*
X381740818Y-173934285D02*
X380740818Y-173934285D01*
X380740818Y-173934285D02*
X380740818Y-173696190D01*
X380740818Y-173696190D02*
X380788437Y-173553333D01*
X380788437Y-173553333D02*
X380883675Y-173458095D01*
X380883675Y-173458095D02*
X380978913Y-173410476D01*
X380978913Y-173410476D02*
X381169389Y-173362857D01*
X381169389Y-173362857D02*
X381312246Y-173362857D01*
X381312246Y-173362857D02*
X381502722Y-173410476D01*
X381502722Y-173410476D02*
X381597960Y-173458095D01*
X381597960Y-173458095D02*
X381693199Y-173553333D01*
X381693199Y-173553333D02*
X381740818Y-173696190D01*
X381740818Y-173696190D02*
X381740818Y-173934285D01*
X380740818Y-173029523D02*
X380740818Y-172410476D01*
X380740818Y-172410476D02*
X381121770Y-172743809D01*
X381121770Y-172743809D02*
X381121770Y-172600952D01*
X381121770Y-172600952D02*
X381169389Y-172505714D01*
X381169389Y-172505714D02*
X381217008Y-172458095D01*
X381217008Y-172458095D02*
X381312246Y-172410476D01*
X381312246Y-172410476D02*
X381550341Y-172410476D01*
X381550341Y-172410476D02*
X381645579Y-172458095D01*
X381645579Y-172458095D02*
X381693199Y-172505714D01*
X381693199Y-172505714D02*
X381740818Y-172600952D01*
X381740818Y-172600952D02*
X381740818Y-172886666D01*
X381740818Y-172886666D02*
X381693199Y-172981904D01*
X381693199Y-172981904D02*
X381645579Y-173029523D01*
X380740818Y-172077142D02*
X380740818Y-171410476D01*
X380740818Y-171410476D02*
X381740818Y-171839047D01*
X395964818Y-154884285D02*
X394964818Y-154884285D01*
X394964818Y-154884285D02*
X394964818Y-154646190D01*
X394964818Y-154646190D02*
X395012437Y-154503333D01*
X395012437Y-154503333D02*
X395107675Y-154408095D01*
X395107675Y-154408095D02*
X395202913Y-154360476D01*
X395202913Y-154360476D02*
X395393389Y-154312857D01*
X395393389Y-154312857D02*
X395536246Y-154312857D01*
X395536246Y-154312857D02*
X395726722Y-154360476D01*
X395726722Y-154360476D02*
X395821960Y-154408095D01*
X395821960Y-154408095D02*
X395917199Y-154503333D01*
X395917199Y-154503333D02*
X395964818Y-154646190D01*
X395964818Y-154646190D02*
X395964818Y-154884285D01*
X395060056Y-153931904D02*
X395012437Y-153884285D01*
X395012437Y-153884285D02*
X394964818Y-153789047D01*
X394964818Y-153789047D02*
X394964818Y-153550952D01*
X394964818Y-153550952D02*
X395012437Y-153455714D01*
X395012437Y-153455714D02*
X395060056Y-153408095D01*
X395060056Y-153408095D02*
X395155294Y-153360476D01*
X395155294Y-153360476D02*
X395250532Y-153360476D01*
X395250532Y-153360476D02*
X395393389Y-153408095D01*
X395393389Y-153408095D02*
X395964818Y-153979523D01*
X395964818Y-153979523D02*
X395964818Y-153360476D01*
X394964818Y-153027142D02*
X394964818Y-152408095D01*
X394964818Y-152408095D02*
X395345770Y-152741428D01*
X395345770Y-152741428D02*
X395345770Y-152598571D01*
X395345770Y-152598571D02*
X395393389Y-152503333D01*
X395393389Y-152503333D02*
X395441008Y-152455714D01*
X395441008Y-152455714D02*
X395536246Y-152408095D01*
X395536246Y-152408095D02*
X395774341Y-152408095D01*
X395774341Y-152408095D02*
X395869579Y-152455714D01*
X395869579Y-152455714D02*
X395917199Y-152503333D01*
X395917199Y-152503333D02*
X395964818Y-152598571D01*
X395964818Y-152598571D02*
X395964818Y-152884285D01*
X395964818Y-152884285D02*
X395917199Y-152979523D01*
X395917199Y-152979523D02*
X395869579Y-153027142D01*
X180666819Y-134330666D02*
X180190628Y-134663999D01*
X180666819Y-134902094D02*
X179666819Y-134902094D01*
X179666819Y-134902094D02*
X179666819Y-134521142D01*
X179666819Y-134521142D02*
X179714438Y-134425904D01*
X179714438Y-134425904D02*
X179762057Y-134378285D01*
X179762057Y-134378285D02*
X179857295Y-134330666D01*
X179857295Y-134330666D02*
X180000152Y-134330666D01*
X180000152Y-134330666D02*
X180095390Y-134378285D01*
X180095390Y-134378285D02*
X180143009Y-134425904D01*
X180143009Y-134425904D02*
X180190628Y-134521142D01*
X180190628Y-134521142D02*
X180190628Y-134902094D01*
X180000152Y-133473523D02*
X180666819Y-133473523D01*
X179619200Y-133711618D02*
X180333485Y-133949713D01*
X180333485Y-133949713D02*
X180333485Y-133330666D01*
X286490818Y-173934285D02*
X285490818Y-173934285D01*
X285490818Y-173934285D02*
X285490818Y-173696190D01*
X285490818Y-173696190D02*
X285538437Y-173553333D01*
X285538437Y-173553333D02*
X285633675Y-173458095D01*
X285633675Y-173458095D02*
X285728913Y-173410476D01*
X285728913Y-173410476D02*
X285919389Y-173362857D01*
X285919389Y-173362857D02*
X286062246Y-173362857D01*
X286062246Y-173362857D02*
X286252722Y-173410476D01*
X286252722Y-173410476D02*
X286347960Y-173458095D01*
X286347960Y-173458095D02*
X286443199Y-173553333D01*
X286443199Y-173553333D02*
X286490818Y-173696190D01*
X286490818Y-173696190D02*
X286490818Y-173934285D01*
X285490818Y-173029523D02*
X285490818Y-172410476D01*
X285490818Y-172410476D02*
X285871770Y-172743809D01*
X285871770Y-172743809D02*
X285871770Y-172600952D01*
X285871770Y-172600952D02*
X285919389Y-172505714D01*
X285919389Y-172505714D02*
X285967008Y-172458095D01*
X285967008Y-172458095D02*
X286062246Y-172410476D01*
X286062246Y-172410476D02*
X286300341Y-172410476D01*
X286300341Y-172410476D02*
X286395579Y-172458095D01*
X286395579Y-172458095D02*
X286443199Y-172505714D01*
X286443199Y-172505714D02*
X286490818Y-172600952D01*
X286490818Y-172600952D02*
X286490818Y-172886666D01*
X286490818Y-172886666D02*
X286443199Y-172981904D01*
X286443199Y-172981904D02*
X286395579Y-173029523D01*
X285586056Y-172029523D02*
X285538437Y-171981904D01*
X285538437Y-171981904D02*
X285490818Y-171886666D01*
X285490818Y-171886666D02*
X285490818Y-171648571D01*
X285490818Y-171648571D02*
X285538437Y-171553333D01*
X285538437Y-171553333D02*
X285586056Y-171505714D01*
X285586056Y-171505714D02*
X285681294Y-171458095D01*
X285681294Y-171458095D02*
X285776532Y-171458095D01*
X285776532Y-171458095D02*
X285919389Y-171505714D01*
X285919389Y-171505714D02*
X286490818Y-172077142D01*
X286490818Y-172077142D02*
X286490818Y-171458095D01*
X164442377Y-152465477D02*
X164394758Y-152513097D01*
X164394758Y-152513097D02*
X164251901Y-152560716D01*
X164251901Y-152560716D02*
X164156663Y-152560716D01*
X164156663Y-152560716D02*
X164013806Y-152513097D01*
X164013806Y-152513097D02*
X163918568Y-152417858D01*
X163918568Y-152417858D02*
X163870949Y-152322620D01*
X163870949Y-152322620D02*
X163823330Y-152132144D01*
X163823330Y-152132144D02*
X163823330Y-151989287D01*
X163823330Y-151989287D02*
X163870949Y-151798811D01*
X163870949Y-151798811D02*
X163918568Y-151703573D01*
X163918568Y-151703573D02*
X164013806Y-151608335D01*
X164013806Y-151608335D02*
X164156663Y-151560716D01*
X164156663Y-151560716D02*
X164251901Y-151560716D01*
X164251901Y-151560716D02*
X164394758Y-151608335D01*
X164394758Y-151608335D02*
X164442377Y-151655954D01*
X164823330Y-151655954D02*
X164870949Y-151608335D01*
X164870949Y-151608335D02*
X164966187Y-151560716D01*
X164966187Y-151560716D02*
X165204282Y-151560716D01*
X165204282Y-151560716D02*
X165299520Y-151608335D01*
X165299520Y-151608335D02*
X165347139Y-151655954D01*
X165347139Y-151655954D02*
X165394758Y-151751192D01*
X165394758Y-151751192D02*
X165394758Y-151846430D01*
X165394758Y-151846430D02*
X165347139Y-151989287D01*
X165347139Y-151989287D02*
X164775711Y-152560716D01*
X164775711Y-152560716D02*
X165394758Y-152560716D01*
X348466818Y-135358094D02*
X347466818Y-135358094D01*
X347466818Y-135358094D02*
X347466818Y-135119999D01*
X347466818Y-135119999D02*
X347514437Y-134977142D01*
X347514437Y-134977142D02*
X347609675Y-134881904D01*
X347609675Y-134881904D02*
X347704913Y-134834285D01*
X347704913Y-134834285D02*
X347895389Y-134786666D01*
X347895389Y-134786666D02*
X348038246Y-134786666D01*
X348038246Y-134786666D02*
X348228722Y-134834285D01*
X348228722Y-134834285D02*
X348323960Y-134881904D01*
X348323960Y-134881904D02*
X348419199Y-134977142D01*
X348419199Y-134977142D02*
X348466818Y-135119999D01*
X348466818Y-135119999D02*
X348466818Y-135358094D01*
X347895389Y-134215237D02*
X347847770Y-134310475D01*
X347847770Y-134310475D02*
X347800151Y-134358094D01*
X347800151Y-134358094D02*
X347704913Y-134405713D01*
X347704913Y-134405713D02*
X347657294Y-134405713D01*
X347657294Y-134405713D02*
X347562056Y-134358094D01*
X347562056Y-134358094D02*
X347514437Y-134310475D01*
X347514437Y-134310475D02*
X347466818Y-134215237D01*
X347466818Y-134215237D02*
X347466818Y-134024761D01*
X347466818Y-134024761D02*
X347514437Y-133929523D01*
X347514437Y-133929523D02*
X347562056Y-133881904D01*
X347562056Y-133881904D02*
X347657294Y-133834285D01*
X347657294Y-133834285D02*
X347704913Y-133834285D01*
X347704913Y-133834285D02*
X347800151Y-133881904D01*
X347800151Y-133881904D02*
X347847770Y-133929523D01*
X347847770Y-133929523D02*
X347895389Y-134024761D01*
X347895389Y-134024761D02*
X347895389Y-134215237D01*
X347895389Y-134215237D02*
X347943008Y-134310475D01*
X347943008Y-134310475D02*
X347990627Y-134358094D01*
X347990627Y-134358094D02*
X348085865Y-134405713D01*
X348085865Y-134405713D02*
X348276341Y-134405713D01*
X348276341Y-134405713D02*
X348371579Y-134358094D01*
X348371579Y-134358094D02*
X348419199Y-134310475D01*
X348419199Y-134310475D02*
X348466818Y-134215237D01*
X348466818Y-134215237D02*
X348466818Y-134024761D01*
X348466818Y-134024761D02*
X348419199Y-133929523D01*
X348419199Y-133929523D02*
X348371579Y-133881904D01*
X348371579Y-133881904D02*
X348276341Y-133834285D01*
X348276341Y-133834285D02*
X348085865Y-133834285D01*
X348085865Y-133834285D02*
X347990627Y-133881904D01*
X347990627Y-133881904D02*
X347943008Y-133929523D01*
X347943008Y-133929523D02*
X347895389Y-134024761D01*
X253216818Y-135612094D02*
X252216818Y-135612094D01*
X252216818Y-135612094D02*
X252216818Y-135373999D01*
X252216818Y-135373999D02*
X252264437Y-135231142D01*
X252264437Y-135231142D02*
X252359675Y-135135904D01*
X252359675Y-135135904D02*
X252454913Y-135088285D01*
X252454913Y-135088285D02*
X252645389Y-135040666D01*
X252645389Y-135040666D02*
X252788246Y-135040666D01*
X252788246Y-135040666D02*
X252978722Y-135088285D01*
X252978722Y-135088285D02*
X253073960Y-135135904D01*
X253073960Y-135135904D02*
X253169199Y-135231142D01*
X253169199Y-135231142D02*
X253216818Y-135373999D01*
X253216818Y-135373999D02*
X253216818Y-135612094D01*
X252216818Y-134707332D02*
X252216818Y-134088285D01*
X252216818Y-134088285D02*
X252597770Y-134421618D01*
X252597770Y-134421618D02*
X252597770Y-134278761D01*
X252597770Y-134278761D02*
X252645389Y-134183523D01*
X252645389Y-134183523D02*
X252693008Y-134135904D01*
X252693008Y-134135904D02*
X252788246Y-134088285D01*
X252788246Y-134088285D02*
X253026341Y-134088285D01*
X253026341Y-134088285D02*
X253121579Y-134135904D01*
X253121579Y-134135904D02*
X253169199Y-134183523D01*
X253169199Y-134183523D02*
X253216818Y-134278761D01*
X253216818Y-134278761D02*
X253216818Y-134564475D01*
X253216818Y-134564475D02*
X253169199Y-134659713D01*
X253169199Y-134659713D02*
X253121579Y-134707332D01*
X241278818Y-212034285D02*
X240278818Y-212034285D01*
X240278818Y-212034285D02*
X240278818Y-211796190D01*
X240278818Y-211796190D02*
X240326437Y-211653333D01*
X240326437Y-211653333D02*
X240421675Y-211558095D01*
X240421675Y-211558095D02*
X240516913Y-211510476D01*
X240516913Y-211510476D02*
X240707389Y-211462857D01*
X240707389Y-211462857D02*
X240850246Y-211462857D01*
X240850246Y-211462857D02*
X241040722Y-211510476D01*
X241040722Y-211510476D02*
X241135960Y-211558095D01*
X241135960Y-211558095D02*
X241231199Y-211653333D01*
X241231199Y-211653333D02*
X241278818Y-211796190D01*
X241278818Y-211796190D02*
X241278818Y-212034285D01*
X240278818Y-210558095D02*
X240278818Y-211034285D01*
X240278818Y-211034285D02*
X240755008Y-211081904D01*
X240755008Y-211081904D02*
X240707389Y-211034285D01*
X240707389Y-211034285D02*
X240659770Y-210939047D01*
X240659770Y-210939047D02*
X240659770Y-210700952D01*
X240659770Y-210700952D02*
X240707389Y-210605714D01*
X240707389Y-210605714D02*
X240755008Y-210558095D01*
X240755008Y-210558095D02*
X240850246Y-210510476D01*
X240850246Y-210510476D02*
X241088341Y-210510476D01*
X241088341Y-210510476D02*
X241183579Y-210558095D01*
X241183579Y-210558095D02*
X241231199Y-210605714D01*
X241231199Y-210605714D02*
X241278818Y-210700952D01*
X241278818Y-210700952D02*
X241278818Y-210939047D01*
X241278818Y-210939047D02*
X241231199Y-211034285D01*
X241231199Y-211034285D02*
X241183579Y-211081904D01*
X240278818Y-209653333D02*
X240278818Y-209843809D01*
X240278818Y-209843809D02*
X240326437Y-209939047D01*
X240326437Y-209939047D02*
X240374056Y-209986666D01*
X240374056Y-209986666D02*
X240516913Y-210081904D01*
X240516913Y-210081904D02*
X240707389Y-210129523D01*
X240707389Y-210129523D02*
X241088341Y-210129523D01*
X241088341Y-210129523D02*
X241183579Y-210081904D01*
X241183579Y-210081904D02*
X241231199Y-210034285D01*
X241231199Y-210034285D02*
X241278818Y-209939047D01*
X241278818Y-209939047D02*
X241278818Y-209748571D01*
X241278818Y-209748571D02*
X241231199Y-209653333D01*
X241231199Y-209653333D02*
X241183579Y-209605714D01*
X241183579Y-209605714D02*
X241088341Y-209558095D01*
X241088341Y-209558095D02*
X240850246Y-209558095D01*
X240850246Y-209558095D02*
X240755008Y-209605714D01*
X240755008Y-209605714D02*
X240707389Y-209653333D01*
X240707389Y-209653333D02*
X240659770Y-209748571D01*
X240659770Y-209748571D02*
X240659770Y-209939047D01*
X240659770Y-209939047D02*
X240707389Y-210034285D01*
X240707389Y-210034285D02*
X240755008Y-210081904D01*
X240755008Y-210081904D02*
X240850246Y-210129523D01*
X353038818Y-192984285D02*
X352038818Y-192984285D01*
X352038818Y-192984285D02*
X352038818Y-192746190D01*
X352038818Y-192746190D02*
X352086437Y-192603333D01*
X352086437Y-192603333D02*
X352181675Y-192508095D01*
X352181675Y-192508095D02*
X352276913Y-192460476D01*
X352276913Y-192460476D02*
X352467389Y-192412857D01*
X352467389Y-192412857D02*
X352610246Y-192412857D01*
X352610246Y-192412857D02*
X352800722Y-192460476D01*
X352800722Y-192460476D02*
X352895960Y-192508095D01*
X352895960Y-192508095D02*
X352991199Y-192603333D01*
X352991199Y-192603333D02*
X353038818Y-192746190D01*
X353038818Y-192746190D02*
X353038818Y-192984285D01*
X352372151Y-191555714D02*
X353038818Y-191555714D01*
X351991199Y-191793809D02*
X352705484Y-192031904D01*
X352705484Y-192031904D02*
X352705484Y-191412857D01*
X352467389Y-190889047D02*
X352419770Y-190984285D01*
X352419770Y-190984285D02*
X352372151Y-191031904D01*
X352372151Y-191031904D02*
X352276913Y-191079523D01*
X352276913Y-191079523D02*
X352229294Y-191079523D01*
X352229294Y-191079523D02*
X352134056Y-191031904D01*
X352134056Y-191031904D02*
X352086437Y-190984285D01*
X352086437Y-190984285D02*
X352038818Y-190889047D01*
X352038818Y-190889047D02*
X352038818Y-190698571D01*
X352038818Y-190698571D02*
X352086437Y-190603333D01*
X352086437Y-190603333D02*
X352134056Y-190555714D01*
X352134056Y-190555714D02*
X352229294Y-190508095D01*
X352229294Y-190508095D02*
X352276913Y-190508095D01*
X352276913Y-190508095D02*
X352372151Y-190555714D01*
X352372151Y-190555714D02*
X352419770Y-190603333D01*
X352419770Y-190603333D02*
X352467389Y-190698571D01*
X352467389Y-190698571D02*
X352467389Y-190889047D01*
X352467389Y-190889047D02*
X352515008Y-190984285D01*
X352515008Y-190984285D02*
X352562627Y-191031904D01*
X352562627Y-191031904D02*
X352657865Y-191079523D01*
X352657865Y-191079523D02*
X352848341Y-191079523D01*
X352848341Y-191079523D02*
X352943579Y-191031904D01*
X352943579Y-191031904D02*
X352991199Y-190984285D01*
X352991199Y-190984285D02*
X353038818Y-190889047D01*
X353038818Y-190889047D02*
X353038818Y-190698571D01*
X353038818Y-190698571D02*
X352991199Y-190603333D01*
X352991199Y-190603333D02*
X352943579Y-190555714D01*
X352943579Y-190555714D02*
X352848341Y-190508095D01*
X352848341Y-190508095D02*
X352657865Y-190508095D01*
X352657865Y-190508095D02*
X352562627Y-190555714D01*
X352562627Y-190555714D02*
X352515008Y-190603333D01*
X352515008Y-190603333D02*
X352467389Y-190698571D01*
X329416818Y-135358094D02*
X328416818Y-135358094D01*
X328416818Y-135358094D02*
X328416818Y-135119999D01*
X328416818Y-135119999D02*
X328464437Y-134977142D01*
X328464437Y-134977142D02*
X328559675Y-134881904D01*
X328559675Y-134881904D02*
X328654913Y-134834285D01*
X328654913Y-134834285D02*
X328845389Y-134786666D01*
X328845389Y-134786666D02*
X328988246Y-134786666D01*
X328988246Y-134786666D02*
X329178722Y-134834285D01*
X329178722Y-134834285D02*
X329273960Y-134881904D01*
X329273960Y-134881904D02*
X329369199Y-134977142D01*
X329369199Y-134977142D02*
X329416818Y-135119999D01*
X329416818Y-135119999D02*
X329416818Y-135358094D01*
X328416818Y-134453332D02*
X328416818Y-133786666D01*
X328416818Y-133786666D02*
X329416818Y-134215237D01*
X434064818Y-154884285D02*
X433064818Y-154884285D01*
X433064818Y-154884285D02*
X433064818Y-154646190D01*
X433064818Y-154646190D02*
X433112437Y-154503333D01*
X433112437Y-154503333D02*
X433207675Y-154408095D01*
X433207675Y-154408095D02*
X433302913Y-154360476D01*
X433302913Y-154360476D02*
X433493389Y-154312857D01*
X433493389Y-154312857D02*
X433636246Y-154312857D01*
X433636246Y-154312857D02*
X433826722Y-154360476D01*
X433826722Y-154360476D02*
X433921960Y-154408095D01*
X433921960Y-154408095D02*
X434017199Y-154503333D01*
X434017199Y-154503333D02*
X434064818Y-154646190D01*
X434064818Y-154646190D02*
X434064818Y-154884285D01*
X433160056Y-153931904D02*
X433112437Y-153884285D01*
X433112437Y-153884285D02*
X433064818Y-153789047D01*
X433064818Y-153789047D02*
X433064818Y-153550952D01*
X433064818Y-153550952D02*
X433112437Y-153455714D01*
X433112437Y-153455714D02*
X433160056Y-153408095D01*
X433160056Y-153408095D02*
X433255294Y-153360476D01*
X433255294Y-153360476D02*
X433350532Y-153360476D01*
X433350532Y-153360476D02*
X433493389Y-153408095D01*
X433493389Y-153408095D02*
X434064818Y-153979523D01*
X434064818Y-153979523D02*
X434064818Y-153360476D01*
X433064818Y-152455714D02*
X433064818Y-152931904D01*
X433064818Y-152931904D02*
X433541008Y-152979523D01*
X433541008Y-152979523D02*
X433493389Y-152931904D01*
X433493389Y-152931904D02*
X433445770Y-152836666D01*
X433445770Y-152836666D02*
X433445770Y-152598571D01*
X433445770Y-152598571D02*
X433493389Y-152503333D01*
X433493389Y-152503333D02*
X433541008Y-152455714D01*
X433541008Y-152455714D02*
X433636246Y-152408095D01*
X433636246Y-152408095D02*
X433874341Y-152408095D01*
X433874341Y-152408095D02*
X433969579Y-152455714D01*
X433969579Y-152455714D02*
X434017199Y-152503333D01*
X434017199Y-152503333D02*
X434064818Y-152598571D01*
X434064818Y-152598571D02*
X434064818Y-152836666D01*
X434064818Y-152836666D02*
X434017199Y-152931904D01*
X434017199Y-152931904D02*
X433969579Y-152979523D01*
X167262134Y-147976352D02*
X167262134Y-148043696D01*
X167262134Y-148043696D02*
X167194790Y-148178383D01*
X167194790Y-148178383D02*
X167127447Y-148245726D01*
X167127447Y-148245726D02*
X166992760Y-148313070D01*
X166992760Y-148313070D02*
X166858073Y-148313070D01*
X166858073Y-148313070D02*
X166757058Y-148279398D01*
X166757058Y-148279398D02*
X166588699Y-148178383D01*
X166588699Y-148178383D02*
X166487684Y-148077368D01*
X166487684Y-148077368D02*
X166386668Y-147909009D01*
X166386668Y-147909009D02*
X166352997Y-147807994D01*
X166352997Y-147807994D02*
X166352997Y-147673307D01*
X166352997Y-147673307D02*
X166420340Y-147538620D01*
X166420340Y-147538620D02*
X166487684Y-147471276D01*
X166487684Y-147471276D02*
X166622371Y-147403933D01*
X166622371Y-147403933D02*
X166689714Y-147403933D01*
X167464164Y-146966200D02*
X167935569Y-147437604D01*
X167026432Y-146865185D02*
X167363149Y-147538620D01*
X167363149Y-147538620D02*
X167800882Y-147100887D01*
X291316818Y-135358094D02*
X290316818Y-135358094D01*
X290316818Y-135358094D02*
X290316818Y-135119999D01*
X290316818Y-135119999D02*
X290364437Y-134977142D01*
X290364437Y-134977142D02*
X290459675Y-134881904D01*
X290459675Y-134881904D02*
X290554913Y-134834285D01*
X290554913Y-134834285D02*
X290745389Y-134786666D01*
X290745389Y-134786666D02*
X290888246Y-134786666D01*
X290888246Y-134786666D02*
X291078722Y-134834285D01*
X291078722Y-134834285D02*
X291173960Y-134881904D01*
X291173960Y-134881904D02*
X291269199Y-134977142D01*
X291269199Y-134977142D02*
X291316818Y-135119999D01*
X291316818Y-135119999D02*
X291316818Y-135358094D01*
X290316818Y-133881904D02*
X290316818Y-134358094D01*
X290316818Y-134358094D02*
X290793008Y-134405713D01*
X290793008Y-134405713D02*
X290745389Y-134358094D01*
X290745389Y-134358094D02*
X290697770Y-134262856D01*
X290697770Y-134262856D02*
X290697770Y-134024761D01*
X290697770Y-134024761D02*
X290745389Y-133929523D01*
X290745389Y-133929523D02*
X290793008Y-133881904D01*
X290793008Y-133881904D02*
X290888246Y-133834285D01*
X290888246Y-133834285D02*
X291126341Y-133834285D01*
X291126341Y-133834285D02*
X291221579Y-133881904D01*
X291221579Y-133881904D02*
X291269199Y-133929523D01*
X291269199Y-133929523D02*
X291316818Y-134024761D01*
X291316818Y-134024761D02*
X291316818Y-134262856D01*
X291316818Y-134262856D02*
X291269199Y-134358094D01*
X291269199Y-134358094D02*
X291221579Y-134405713D01*
X453114818Y-154884285D02*
X452114818Y-154884285D01*
X452114818Y-154884285D02*
X452114818Y-154646190D01*
X452114818Y-154646190D02*
X452162437Y-154503333D01*
X452162437Y-154503333D02*
X452257675Y-154408095D01*
X452257675Y-154408095D02*
X452352913Y-154360476D01*
X452352913Y-154360476D02*
X452543389Y-154312857D01*
X452543389Y-154312857D02*
X452686246Y-154312857D01*
X452686246Y-154312857D02*
X452876722Y-154360476D01*
X452876722Y-154360476D02*
X452971960Y-154408095D01*
X452971960Y-154408095D02*
X453067199Y-154503333D01*
X453067199Y-154503333D02*
X453114818Y-154646190D01*
X453114818Y-154646190D02*
X453114818Y-154884285D01*
X452210056Y-153931904D02*
X452162437Y-153884285D01*
X452162437Y-153884285D02*
X452114818Y-153789047D01*
X452114818Y-153789047D02*
X452114818Y-153550952D01*
X452114818Y-153550952D02*
X452162437Y-153455714D01*
X452162437Y-153455714D02*
X452210056Y-153408095D01*
X452210056Y-153408095D02*
X452305294Y-153360476D01*
X452305294Y-153360476D02*
X452400532Y-153360476D01*
X452400532Y-153360476D02*
X452543389Y-153408095D01*
X452543389Y-153408095D02*
X453114818Y-153979523D01*
X453114818Y-153979523D02*
X453114818Y-153360476D01*
X452114818Y-152503333D02*
X452114818Y-152693809D01*
X452114818Y-152693809D02*
X452162437Y-152789047D01*
X452162437Y-152789047D02*
X452210056Y-152836666D01*
X452210056Y-152836666D02*
X452352913Y-152931904D01*
X452352913Y-152931904D02*
X452543389Y-152979523D01*
X452543389Y-152979523D02*
X452924341Y-152979523D01*
X452924341Y-152979523D02*
X453019579Y-152931904D01*
X453019579Y-152931904D02*
X453067199Y-152884285D01*
X453067199Y-152884285D02*
X453114818Y-152789047D01*
X453114818Y-152789047D02*
X453114818Y-152598571D01*
X453114818Y-152598571D02*
X453067199Y-152503333D01*
X453067199Y-152503333D02*
X453019579Y-152455714D01*
X453019579Y-152455714D02*
X452924341Y-152408095D01*
X452924341Y-152408095D02*
X452686246Y-152408095D01*
X452686246Y-152408095D02*
X452591008Y-152455714D01*
X452591008Y-152455714D02*
X452543389Y-152503333D01*
X452543389Y-152503333D02*
X452495770Y-152598571D01*
X452495770Y-152598571D02*
X452495770Y-152789047D01*
X452495770Y-152789047D02*
X452543389Y-152884285D01*
X452543389Y-152884285D02*
X452591008Y-152931904D01*
X452591008Y-152931904D02*
X452686246Y-152979523D01*
X174045714Y-196447819D02*
X174045714Y-195447819D01*
X174045714Y-195447819D02*
X174283809Y-195447819D01*
X174283809Y-195447819D02*
X174426666Y-195495438D01*
X174426666Y-195495438D02*
X174521904Y-195590676D01*
X174521904Y-195590676D02*
X174569523Y-195685914D01*
X174569523Y-195685914D02*
X174617142Y-195876390D01*
X174617142Y-195876390D02*
X174617142Y-196019247D01*
X174617142Y-196019247D02*
X174569523Y-196209723D01*
X174569523Y-196209723D02*
X174521904Y-196304961D01*
X174521904Y-196304961D02*
X174426666Y-196400200D01*
X174426666Y-196400200D02*
X174283809Y-196447819D01*
X174283809Y-196447819D02*
X174045714Y-196447819D01*
X175474285Y-195447819D02*
X175283809Y-195447819D01*
X175283809Y-195447819D02*
X175188571Y-195495438D01*
X175188571Y-195495438D02*
X175140952Y-195543057D01*
X175140952Y-195543057D02*
X175045714Y-195685914D01*
X175045714Y-195685914D02*
X174998095Y-195876390D01*
X174998095Y-195876390D02*
X174998095Y-196257342D01*
X174998095Y-196257342D02*
X175045714Y-196352580D01*
X175045714Y-196352580D02*
X175093333Y-196400200D01*
X175093333Y-196400200D02*
X175188571Y-196447819D01*
X175188571Y-196447819D02*
X175379047Y-196447819D01*
X175379047Y-196447819D02*
X175474285Y-196400200D01*
X175474285Y-196400200D02*
X175521904Y-196352580D01*
X175521904Y-196352580D02*
X175569523Y-196257342D01*
X175569523Y-196257342D02*
X175569523Y-196019247D01*
X175569523Y-196019247D02*
X175521904Y-195924009D01*
X175521904Y-195924009D02*
X175474285Y-195876390D01*
X175474285Y-195876390D02*
X175379047Y-195828771D01*
X175379047Y-195828771D02*
X175188571Y-195828771D01*
X175188571Y-195828771D02*
X175093333Y-195876390D01*
X175093333Y-195876390D02*
X175045714Y-195924009D01*
X175045714Y-195924009D02*
X174998095Y-196019247D01*
X175902857Y-195447819D02*
X176569523Y-195447819D01*
X176569523Y-195447819D02*
X176140952Y-196447819D01*
X243564818Y-154884285D02*
X242564818Y-154884285D01*
X242564818Y-154884285D02*
X242564818Y-154646190D01*
X242564818Y-154646190D02*
X242612437Y-154503333D01*
X242612437Y-154503333D02*
X242707675Y-154408095D01*
X242707675Y-154408095D02*
X242802913Y-154360476D01*
X242802913Y-154360476D02*
X242993389Y-154312857D01*
X242993389Y-154312857D02*
X243136246Y-154312857D01*
X243136246Y-154312857D02*
X243326722Y-154360476D01*
X243326722Y-154360476D02*
X243421960Y-154408095D01*
X243421960Y-154408095D02*
X243517199Y-154503333D01*
X243517199Y-154503333D02*
X243564818Y-154646190D01*
X243564818Y-154646190D02*
X243564818Y-154884285D01*
X243564818Y-153360476D02*
X243564818Y-153931904D01*
X243564818Y-153646190D02*
X242564818Y-153646190D01*
X242564818Y-153646190D02*
X242707675Y-153741428D01*
X242707675Y-153741428D02*
X242802913Y-153836666D01*
X242802913Y-153836666D02*
X242850532Y-153931904D01*
X242564818Y-152455714D02*
X242564818Y-152931904D01*
X242564818Y-152931904D02*
X243041008Y-152979523D01*
X243041008Y-152979523D02*
X242993389Y-152931904D01*
X242993389Y-152931904D02*
X242945770Y-152836666D01*
X242945770Y-152836666D02*
X242945770Y-152598571D01*
X242945770Y-152598571D02*
X242993389Y-152503333D01*
X242993389Y-152503333D02*
X243041008Y-152455714D01*
X243041008Y-152455714D02*
X243136246Y-152408095D01*
X243136246Y-152408095D02*
X243374341Y-152408095D01*
X243374341Y-152408095D02*
X243469579Y-152455714D01*
X243469579Y-152455714D02*
X243517199Y-152503333D01*
X243517199Y-152503333D02*
X243564818Y-152598571D01*
X243564818Y-152598571D02*
X243564818Y-152836666D01*
X243564818Y-152836666D02*
X243517199Y-152931904D01*
X243517199Y-152931904D02*
X243469579Y-152979523D01*
X424666818Y-135834285D02*
X423666818Y-135834285D01*
X423666818Y-135834285D02*
X423666818Y-135596190D01*
X423666818Y-135596190D02*
X423714437Y-135453333D01*
X423714437Y-135453333D02*
X423809675Y-135358095D01*
X423809675Y-135358095D02*
X423904913Y-135310476D01*
X423904913Y-135310476D02*
X424095389Y-135262857D01*
X424095389Y-135262857D02*
X424238246Y-135262857D01*
X424238246Y-135262857D02*
X424428722Y-135310476D01*
X424428722Y-135310476D02*
X424523960Y-135358095D01*
X424523960Y-135358095D02*
X424619199Y-135453333D01*
X424619199Y-135453333D02*
X424666818Y-135596190D01*
X424666818Y-135596190D02*
X424666818Y-135834285D01*
X424666818Y-134310476D02*
X424666818Y-134881904D01*
X424666818Y-134596190D02*
X423666818Y-134596190D01*
X423666818Y-134596190D02*
X423809675Y-134691428D01*
X423809675Y-134691428D02*
X423904913Y-134786666D01*
X423904913Y-134786666D02*
X423952532Y-134881904D01*
X423762056Y-133929523D02*
X423714437Y-133881904D01*
X423714437Y-133881904D02*
X423666818Y-133786666D01*
X423666818Y-133786666D02*
X423666818Y-133548571D01*
X423666818Y-133548571D02*
X423714437Y-133453333D01*
X423714437Y-133453333D02*
X423762056Y-133405714D01*
X423762056Y-133405714D02*
X423857294Y-133358095D01*
X423857294Y-133358095D02*
X423952532Y-133358095D01*
X423952532Y-133358095D02*
X424095389Y-133405714D01*
X424095389Y-133405714D02*
X424666818Y-133977142D01*
X424666818Y-133977142D02*
X424666818Y-133358095D01*
X192969714Y-196447819D02*
X192969714Y-195447819D01*
X192969714Y-195447819D02*
X193207809Y-195447819D01*
X193207809Y-195447819D02*
X193350666Y-195495438D01*
X193350666Y-195495438D02*
X193445904Y-195590676D01*
X193445904Y-195590676D02*
X193493523Y-195685914D01*
X193493523Y-195685914D02*
X193541142Y-195876390D01*
X193541142Y-195876390D02*
X193541142Y-196019247D01*
X193541142Y-196019247D02*
X193493523Y-196209723D01*
X193493523Y-196209723D02*
X193445904Y-196304961D01*
X193445904Y-196304961D02*
X193350666Y-196400200D01*
X193350666Y-196400200D02*
X193207809Y-196447819D01*
X193207809Y-196447819D02*
X192969714Y-196447819D01*
X194398285Y-195447819D02*
X194207809Y-195447819D01*
X194207809Y-195447819D02*
X194112571Y-195495438D01*
X194112571Y-195495438D02*
X194064952Y-195543057D01*
X194064952Y-195543057D02*
X193969714Y-195685914D01*
X193969714Y-195685914D02*
X193922095Y-195876390D01*
X193922095Y-195876390D02*
X193922095Y-196257342D01*
X193922095Y-196257342D02*
X193969714Y-196352580D01*
X193969714Y-196352580D02*
X194017333Y-196400200D01*
X194017333Y-196400200D02*
X194112571Y-196447819D01*
X194112571Y-196447819D02*
X194303047Y-196447819D01*
X194303047Y-196447819D02*
X194398285Y-196400200D01*
X194398285Y-196400200D02*
X194445904Y-196352580D01*
X194445904Y-196352580D02*
X194493523Y-196257342D01*
X194493523Y-196257342D02*
X194493523Y-196019247D01*
X194493523Y-196019247D02*
X194445904Y-195924009D01*
X194445904Y-195924009D02*
X194398285Y-195876390D01*
X194398285Y-195876390D02*
X194303047Y-195828771D01*
X194303047Y-195828771D02*
X194112571Y-195828771D01*
X194112571Y-195828771D02*
X194017333Y-195876390D01*
X194017333Y-195876390D02*
X193969714Y-195924009D01*
X193969714Y-195924009D02*
X193922095Y-196019247D01*
X194969714Y-196447819D02*
X195160190Y-196447819D01*
X195160190Y-196447819D02*
X195255428Y-196400200D01*
X195255428Y-196400200D02*
X195303047Y-196352580D01*
X195303047Y-196352580D02*
X195398285Y-196209723D01*
X195398285Y-196209723D02*
X195445904Y-196019247D01*
X195445904Y-196019247D02*
X195445904Y-195638295D01*
X195445904Y-195638295D02*
X195398285Y-195543057D01*
X195398285Y-195543057D02*
X195350666Y-195495438D01*
X195350666Y-195495438D02*
X195255428Y-195447819D01*
X195255428Y-195447819D02*
X195064952Y-195447819D01*
X195064952Y-195447819D02*
X194969714Y-195495438D01*
X194969714Y-195495438D02*
X194922095Y-195543057D01*
X194922095Y-195543057D02*
X194874476Y-195638295D01*
X194874476Y-195638295D02*
X194874476Y-195876390D01*
X194874476Y-195876390D02*
X194922095Y-195971628D01*
X194922095Y-195971628D02*
X194969714Y-196019247D01*
X194969714Y-196019247D02*
X195064952Y-196066866D01*
X195064952Y-196066866D02*
X195255428Y-196066866D01*
X195255428Y-196066866D02*
X195350666Y-196019247D01*
X195350666Y-196019247D02*
X195398285Y-195971628D01*
X195398285Y-195971628D02*
X195445904Y-195876390D01*
X443716818Y-135834285D02*
X442716818Y-135834285D01*
X442716818Y-135834285D02*
X442716818Y-135596190D01*
X442716818Y-135596190D02*
X442764437Y-135453333D01*
X442764437Y-135453333D02*
X442859675Y-135358095D01*
X442859675Y-135358095D02*
X442954913Y-135310476D01*
X442954913Y-135310476D02*
X443145389Y-135262857D01*
X443145389Y-135262857D02*
X443288246Y-135262857D01*
X443288246Y-135262857D02*
X443478722Y-135310476D01*
X443478722Y-135310476D02*
X443573960Y-135358095D01*
X443573960Y-135358095D02*
X443669199Y-135453333D01*
X443669199Y-135453333D02*
X443716818Y-135596190D01*
X443716818Y-135596190D02*
X443716818Y-135834285D01*
X443716818Y-134310476D02*
X443716818Y-134881904D01*
X443716818Y-134596190D02*
X442716818Y-134596190D01*
X442716818Y-134596190D02*
X442859675Y-134691428D01*
X442859675Y-134691428D02*
X442954913Y-134786666D01*
X442954913Y-134786666D02*
X443002532Y-134881904D01*
X442716818Y-133977142D02*
X442716818Y-133358095D01*
X442716818Y-133358095D02*
X443097770Y-133691428D01*
X443097770Y-133691428D02*
X443097770Y-133548571D01*
X443097770Y-133548571D02*
X443145389Y-133453333D01*
X443145389Y-133453333D02*
X443193008Y-133405714D01*
X443193008Y-133405714D02*
X443288246Y-133358095D01*
X443288246Y-133358095D02*
X443526341Y-133358095D01*
X443526341Y-133358095D02*
X443621579Y-133405714D01*
X443621579Y-133405714D02*
X443669199Y-133453333D01*
X443669199Y-133453333D02*
X443716818Y-133548571D01*
X443716818Y-133548571D02*
X443716818Y-133834285D01*
X443716818Y-133834285D02*
X443669199Y-133929523D01*
X443669199Y-133929523D02*
X443621579Y-133977142D01*
X175761810Y-143362238D02*
X175809430Y-143409857D01*
X175809430Y-143409857D02*
X175857049Y-143552714D01*
X175857049Y-143552714D02*
X175857049Y-143647952D01*
X175857049Y-143647952D02*
X175809430Y-143790809D01*
X175809430Y-143790809D02*
X175714191Y-143886047D01*
X175714191Y-143886047D02*
X175618953Y-143933666D01*
X175618953Y-143933666D02*
X175428477Y-143981285D01*
X175428477Y-143981285D02*
X175285620Y-143981285D01*
X175285620Y-143981285D02*
X175095144Y-143933666D01*
X175095144Y-143933666D02*
X174999906Y-143886047D01*
X174999906Y-143886047D02*
X174904668Y-143790809D01*
X174904668Y-143790809D02*
X174857049Y-143647952D01*
X174857049Y-143647952D02*
X174857049Y-143552714D01*
X174857049Y-143552714D02*
X174904668Y-143409857D01*
X174904668Y-143409857D02*
X174952287Y-143362238D01*
X174857049Y-142457476D02*
X174857049Y-142933666D01*
X174857049Y-142933666D02*
X175333239Y-142981285D01*
X175333239Y-142981285D02*
X175285620Y-142933666D01*
X175285620Y-142933666D02*
X175238001Y-142838428D01*
X175238001Y-142838428D02*
X175238001Y-142600333D01*
X175238001Y-142600333D02*
X175285620Y-142505095D01*
X175285620Y-142505095D02*
X175333239Y-142457476D01*
X175333239Y-142457476D02*
X175428477Y-142409857D01*
X175428477Y-142409857D02*
X175666572Y-142409857D01*
X175666572Y-142409857D02*
X175761810Y-142457476D01*
X175761810Y-142457476D02*
X175809430Y-142505095D01*
X175809430Y-142505095D02*
X175857049Y-142600333D01*
X175857049Y-142600333D02*
X175857049Y-142838428D01*
X175857049Y-142838428D02*
X175809430Y-142933666D01*
X175809430Y-142933666D02*
X175761810Y-142981285D01*
X336528818Y-212034285D02*
X335528818Y-212034285D01*
X335528818Y-212034285D02*
X335528818Y-211796190D01*
X335528818Y-211796190D02*
X335576437Y-211653333D01*
X335576437Y-211653333D02*
X335671675Y-211558095D01*
X335671675Y-211558095D02*
X335766913Y-211510476D01*
X335766913Y-211510476D02*
X335957389Y-211462857D01*
X335957389Y-211462857D02*
X336100246Y-211462857D01*
X336100246Y-211462857D02*
X336290722Y-211510476D01*
X336290722Y-211510476D02*
X336385960Y-211558095D01*
X336385960Y-211558095D02*
X336481199Y-211653333D01*
X336481199Y-211653333D02*
X336528818Y-211796190D01*
X336528818Y-211796190D02*
X336528818Y-212034285D01*
X335528818Y-210558095D02*
X335528818Y-211034285D01*
X335528818Y-211034285D02*
X336005008Y-211081904D01*
X336005008Y-211081904D02*
X335957389Y-211034285D01*
X335957389Y-211034285D02*
X335909770Y-210939047D01*
X335909770Y-210939047D02*
X335909770Y-210700952D01*
X335909770Y-210700952D02*
X335957389Y-210605714D01*
X335957389Y-210605714D02*
X336005008Y-210558095D01*
X336005008Y-210558095D02*
X336100246Y-210510476D01*
X336100246Y-210510476D02*
X336338341Y-210510476D01*
X336338341Y-210510476D02*
X336433579Y-210558095D01*
X336433579Y-210558095D02*
X336481199Y-210605714D01*
X336481199Y-210605714D02*
X336528818Y-210700952D01*
X336528818Y-210700952D02*
X336528818Y-210939047D01*
X336528818Y-210939047D02*
X336481199Y-211034285D01*
X336481199Y-211034285D02*
X336433579Y-211081904D01*
X336528818Y-210034285D02*
X336528818Y-209843809D01*
X336528818Y-209843809D02*
X336481199Y-209748571D01*
X336481199Y-209748571D02*
X336433579Y-209700952D01*
X336433579Y-209700952D02*
X336290722Y-209605714D01*
X336290722Y-209605714D02*
X336100246Y-209558095D01*
X336100246Y-209558095D02*
X335719294Y-209558095D01*
X335719294Y-209558095D02*
X335624056Y-209605714D01*
X335624056Y-209605714D02*
X335576437Y-209653333D01*
X335576437Y-209653333D02*
X335528818Y-209748571D01*
X335528818Y-209748571D02*
X335528818Y-209939047D01*
X335528818Y-209939047D02*
X335576437Y-210034285D01*
X335576437Y-210034285D02*
X335624056Y-210081904D01*
X335624056Y-210081904D02*
X335719294Y-210129523D01*
X335719294Y-210129523D02*
X335957389Y-210129523D01*
X335957389Y-210129523D02*
X336052627Y-210081904D01*
X336052627Y-210081904D02*
X336100246Y-210034285D01*
X336100246Y-210034285D02*
X336147865Y-209939047D01*
X336147865Y-209939047D02*
X336147865Y-209748571D01*
X336147865Y-209748571D02*
X336100246Y-209653333D01*
X336100246Y-209653333D02*
X336052627Y-209605714D01*
X336052627Y-209605714D02*
X335957389Y-209558095D01*
X169687200Y-131739332D02*
X169734819Y-131596475D01*
X169734819Y-131596475D02*
X169734819Y-131358380D01*
X169734819Y-131358380D02*
X169687200Y-131263142D01*
X169687200Y-131263142D02*
X169639580Y-131215523D01*
X169639580Y-131215523D02*
X169544342Y-131167904D01*
X169544342Y-131167904D02*
X169449104Y-131167904D01*
X169449104Y-131167904D02*
X169353866Y-131215523D01*
X169353866Y-131215523D02*
X169306247Y-131263142D01*
X169306247Y-131263142D02*
X169258628Y-131358380D01*
X169258628Y-131358380D02*
X169211009Y-131548856D01*
X169211009Y-131548856D02*
X169163390Y-131644094D01*
X169163390Y-131644094D02*
X169115771Y-131691713D01*
X169115771Y-131691713D02*
X169020533Y-131739332D01*
X169020533Y-131739332D02*
X168925295Y-131739332D01*
X168925295Y-131739332D02*
X168830057Y-131691713D01*
X168830057Y-131691713D02*
X168782438Y-131644094D01*
X168782438Y-131644094D02*
X168734819Y-131548856D01*
X168734819Y-131548856D02*
X168734819Y-131310761D01*
X168734819Y-131310761D02*
X168782438Y-131167904D01*
X168734819Y-130834570D02*
X169734819Y-130596475D01*
X169734819Y-130596475D02*
X169020533Y-130405999D01*
X169020533Y-130405999D02*
X169734819Y-130215523D01*
X169734819Y-130215523D02*
X168734819Y-129977428D01*
X169734819Y-129072666D02*
X169734819Y-129644094D01*
X169734819Y-129358380D02*
X168734819Y-129358380D01*
X168734819Y-129358380D02*
X168877676Y-129453618D01*
X168877676Y-129453618D02*
X168972914Y-129548856D01*
X168972914Y-129548856D02*
X169020533Y-129644094D01*
X187705551Y-158538871D02*
X187753171Y-158586490D01*
X187753171Y-158586490D02*
X187800790Y-158729347D01*
X187800790Y-158729347D02*
X187800790Y-158824585D01*
X187800790Y-158824585D02*
X187753171Y-158967442D01*
X187753171Y-158967442D02*
X187657932Y-159062680D01*
X187657932Y-159062680D02*
X187562694Y-159110299D01*
X187562694Y-159110299D02*
X187372218Y-159157918D01*
X187372218Y-159157918D02*
X187229361Y-159157918D01*
X187229361Y-159157918D02*
X187038885Y-159110299D01*
X187038885Y-159110299D02*
X186943647Y-159062680D01*
X186943647Y-159062680D02*
X186848409Y-158967442D01*
X186848409Y-158967442D02*
X186800790Y-158824585D01*
X186800790Y-158824585D02*
X186800790Y-158729347D01*
X186800790Y-158729347D02*
X186848409Y-158586490D01*
X186848409Y-158586490D02*
X186896028Y-158538871D01*
X186800790Y-158205537D02*
X186800790Y-157538871D01*
X186800790Y-157538871D02*
X187800790Y-157967442D01*
X166044714Y-200447820D02*
X166044714Y-199447820D01*
X166044714Y-199447820D02*
X166282809Y-199447820D01*
X166282809Y-199447820D02*
X166425666Y-199495439D01*
X166425666Y-199495439D02*
X166520904Y-199590677D01*
X166520904Y-199590677D02*
X166568523Y-199685915D01*
X166568523Y-199685915D02*
X166616142Y-199876391D01*
X166616142Y-199876391D02*
X166616142Y-200019248D01*
X166616142Y-200019248D02*
X166568523Y-200209724D01*
X166568523Y-200209724D02*
X166520904Y-200304962D01*
X166520904Y-200304962D02*
X166425666Y-200400201D01*
X166425666Y-200400201D02*
X166282809Y-200447820D01*
X166282809Y-200447820D02*
X166044714Y-200447820D01*
X167473285Y-199447820D02*
X167282809Y-199447820D01*
X167282809Y-199447820D02*
X167187571Y-199495439D01*
X167187571Y-199495439D02*
X167139952Y-199543058D01*
X167139952Y-199543058D02*
X167044714Y-199685915D01*
X167044714Y-199685915D02*
X166997095Y-199876391D01*
X166997095Y-199876391D02*
X166997095Y-200257343D01*
X166997095Y-200257343D02*
X167044714Y-200352581D01*
X167044714Y-200352581D02*
X167092333Y-200400201D01*
X167092333Y-200400201D02*
X167187571Y-200447820D01*
X167187571Y-200447820D02*
X167378047Y-200447820D01*
X167378047Y-200447820D02*
X167473285Y-200400201D01*
X167473285Y-200400201D02*
X167520904Y-200352581D01*
X167520904Y-200352581D02*
X167568523Y-200257343D01*
X167568523Y-200257343D02*
X167568523Y-200019248D01*
X167568523Y-200019248D02*
X167520904Y-199924010D01*
X167520904Y-199924010D02*
X167473285Y-199876391D01*
X167473285Y-199876391D02*
X167378047Y-199828772D01*
X167378047Y-199828772D02*
X167187571Y-199828772D01*
X167187571Y-199828772D02*
X167092333Y-199876391D01*
X167092333Y-199876391D02*
X167044714Y-199924010D01*
X167044714Y-199924010D02*
X166997095Y-200019248D01*
X168425666Y-199447820D02*
X168235190Y-199447820D01*
X168235190Y-199447820D02*
X168139952Y-199495439D01*
X168139952Y-199495439D02*
X168092333Y-199543058D01*
X168092333Y-199543058D02*
X167997095Y-199685915D01*
X167997095Y-199685915D02*
X167949476Y-199876391D01*
X167949476Y-199876391D02*
X167949476Y-200257343D01*
X167949476Y-200257343D02*
X167997095Y-200352581D01*
X167997095Y-200352581D02*
X168044714Y-200400201D01*
X168044714Y-200400201D02*
X168139952Y-200447820D01*
X168139952Y-200447820D02*
X168330428Y-200447820D01*
X168330428Y-200447820D02*
X168425666Y-200400201D01*
X168425666Y-200400201D02*
X168473285Y-200352581D01*
X168473285Y-200352581D02*
X168520904Y-200257343D01*
X168520904Y-200257343D02*
X168520904Y-200019248D01*
X168520904Y-200019248D02*
X168473285Y-199924010D01*
X168473285Y-199924010D02*
X168425666Y-199876391D01*
X168425666Y-199876391D02*
X168330428Y-199828772D01*
X168330428Y-199828772D02*
X168139952Y-199828772D01*
X168139952Y-199828772D02*
X168044714Y-199876391D01*
X168044714Y-199876391D02*
X167997095Y-199924010D01*
X167997095Y-199924010D02*
X167949476Y-200019248D01*
X267440818Y-173934285D02*
X266440818Y-173934285D01*
X266440818Y-173934285D02*
X266440818Y-173696190D01*
X266440818Y-173696190D02*
X266488437Y-173553333D01*
X266488437Y-173553333D02*
X266583675Y-173458095D01*
X266583675Y-173458095D02*
X266678913Y-173410476D01*
X266678913Y-173410476D02*
X266869389Y-173362857D01*
X266869389Y-173362857D02*
X267012246Y-173362857D01*
X267012246Y-173362857D02*
X267202722Y-173410476D01*
X267202722Y-173410476D02*
X267297960Y-173458095D01*
X267297960Y-173458095D02*
X267393199Y-173553333D01*
X267393199Y-173553333D02*
X267440818Y-173696190D01*
X267440818Y-173696190D02*
X267440818Y-173934285D01*
X266440818Y-173029523D02*
X266440818Y-172410476D01*
X266440818Y-172410476D02*
X266821770Y-172743809D01*
X266821770Y-172743809D02*
X266821770Y-172600952D01*
X266821770Y-172600952D02*
X266869389Y-172505714D01*
X266869389Y-172505714D02*
X266917008Y-172458095D01*
X266917008Y-172458095D02*
X267012246Y-172410476D01*
X267012246Y-172410476D02*
X267250341Y-172410476D01*
X267250341Y-172410476D02*
X267345579Y-172458095D01*
X267345579Y-172458095D02*
X267393199Y-172505714D01*
X267393199Y-172505714D02*
X267440818Y-172600952D01*
X267440818Y-172600952D02*
X267440818Y-172886666D01*
X267440818Y-172886666D02*
X267393199Y-172981904D01*
X267393199Y-172981904D02*
X267345579Y-173029523D01*
X267440818Y-171458095D02*
X267440818Y-172029523D01*
X267440818Y-171743809D02*
X266440818Y-171743809D01*
X266440818Y-171743809D02*
X266583675Y-171839047D01*
X266583675Y-171839047D02*
X266678913Y-171934285D01*
X266678913Y-171934285D02*
X266726532Y-172029523D01*
X443716818Y-212034285D02*
X442716818Y-212034285D01*
X442716818Y-212034285D02*
X442716818Y-211796190D01*
X442716818Y-211796190D02*
X442764437Y-211653333D01*
X442764437Y-211653333D02*
X442859675Y-211558095D01*
X442859675Y-211558095D02*
X442954913Y-211510476D01*
X442954913Y-211510476D02*
X443145389Y-211462857D01*
X443145389Y-211462857D02*
X443288246Y-211462857D01*
X443288246Y-211462857D02*
X443478722Y-211510476D01*
X443478722Y-211510476D02*
X443573960Y-211558095D01*
X443573960Y-211558095D02*
X443669199Y-211653333D01*
X443669199Y-211653333D02*
X443716818Y-211796190D01*
X443716818Y-211796190D02*
X443716818Y-212034285D01*
X442716818Y-210605714D02*
X442716818Y-210796190D01*
X442716818Y-210796190D02*
X442764437Y-210891428D01*
X442764437Y-210891428D02*
X442812056Y-210939047D01*
X442812056Y-210939047D02*
X442954913Y-211034285D01*
X442954913Y-211034285D02*
X443145389Y-211081904D01*
X443145389Y-211081904D02*
X443526341Y-211081904D01*
X443526341Y-211081904D02*
X443621579Y-211034285D01*
X443621579Y-211034285D02*
X443669199Y-210986666D01*
X443669199Y-210986666D02*
X443716818Y-210891428D01*
X443716818Y-210891428D02*
X443716818Y-210700952D01*
X443716818Y-210700952D02*
X443669199Y-210605714D01*
X443669199Y-210605714D02*
X443621579Y-210558095D01*
X443621579Y-210558095D02*
X443526341Y-210510476D01*
X443526341Y-210510476D02*
X443288246Y-210510476D01*
X443288246Y-210510476D02*
X443193008Y-210558095D01*
X443193008Y-210558095D02*
X443145389Y-210605714D01*
X443145389Y-210605714D02*
X443097770Y-210700952D01*
X443097770Y-210700952D02*
X443097770Y-210891428D01*
X443097770Y-210891428D02*
X443145389Y-210986666D01*
X443145389Y-210986666D02*
X443193008Y-211034285D01*
X443193008Y-211034285D02*
X443288246Y-211081904D01*
X442716818Y-210177142D02*
X442716818Y-209558095D01*
X442716818Y-209558095D02*
X443097770Y-209891428D01*
X443097770Y-209891428D02*
X443097770Y-209748571D01*
X443097770Y-209748571D02*
X443145389Y-209653333D01*
X443145389Y-209653333D02*
X443193008Y-209605714D01*
X443193008Y-209605714D02*
X443288246Y-209558095D01*
X443288246Y-209558095D02*
X443526341Y-209558095D01*
X443526341Y-209558095D02*
X443621579Y-209605714D01*
X443621579Y-209605714D02*
X443669199Y-209653333D01*
X443669199Y-209653333D02*
X443716818Y-209748571D01*
X443716818Y-209748571D02*
X443716818Y-210034285D01*
X443716818Y-210034285D02*
X443669199Y-210129523D01*
X443669199Y-210129523D02*
X443621579Y-210177142D01*
X469878818Y-173934285D02*
X468878818Y-173934285D01*
X468878818Y-173934285D02*
X468878818Y-173696190D01*
X468878818Y-173696190D02*
X468926437Y-173553333D01*
X468926437Y-173553333D02*
X469021675Y-173458095D01*
X469021675Y-173458095D02*
X469116913Y-173410476D01*
X469116913Y-173410476D02*
X469307389Y-173362857D01*
X469307389Y-173362857D02*
X469450246Y-173362857D01*
X469450246Y-173362857D02*
X469640722Y-173410476D01*
X469640722Y-173410476D02*
X469735960Y-173458095D01*
X469735960Y-173458095D02*
X469831199Y-173553333D01*
X469831199Y-173553333D02*
X469878818Y-173696190D01*
X469878818Y-173696190D02*
X469878818Y-173934285D01*
X469212151Y-172505714D02*
X469878818Y-172505714D01*
X468831199Y-172743809D02*
X469545484Y-172981904D01*
X469545484Y-172981904D02*
X469545484Y-172362857D01*
X469878818Y-171458095D02*
X469878818Y-172029523D01*
X469878818Y-171743809D02*
X468878818Y-171743809D01*
X468878818Y-171743809D02*
X469021675Y-171839047D01*
X469021675Y-171839047D02*
X469116913Y-171934285D01*
X469116913Y-171934285D02*
X469164532Y-172029523D01*
X405616818Y-212034285D02*
X404616818Y-212034285D01*
X404616818Y-212034285D02*
X404616818Y-211796190D01*
X404616818Y-211796190D02*
X404664437Y-211653333D01*
X404664437Y-211653333D02*
X404759675Y-211558095D01*
X404759675Y-211558095D02*
X404854913Y-211510476D01*
X404854913Y-211510476D02*
X405045389Y-211462857D01*
X405045389Y-211462857D02*
X405188246Y-211462857D01*
X405188246Y-211462857D02*
X405378722Y-211510476D01*
X405378722Y-211510476D02*
X405473960Y-211558095D01*
X405473960Y-211558095D02*
X405569199Y-211653333D01*
X405569199Y-211653333D02*
X405616818Y-211796190D01*
X405616818Y-211796190D02*
X405616818Y-212034285D01*
X404616818Y-210605714D02*
X404616818Y-210796190D01*
X404616818Y-210796190D02*
X404664437Y-210891428D01*
X404664437Y-210891428D02*
X404712056Y-210939047D01*
X404712056Y-210939047D02*
X404854913Y-211034285D01*
X404854913Y-211034285D02*
X405045389Y-211081904D01*
X405045389Y-211081904D02*
X405426341Y-211081904D01*
X405426341Y-211081904D02*
X405521579Y-211034285D01*
X405521579Y-211034285D02*
X405569199Y-210986666D01*
X405569199Y-210986666D02*
X405616818Y-210891428D01*
X405616818Y-210891428D02*
X405616818Y-210700952D01*
X405616818Y-210700952D02*
X405569199Y-210605714D01*
X405569199Y-210605714D02*
X405521579Y-210558095D01*
X405521579Y-210558095D02*
X405426341Y-210510476D01*
X405426341Y-210510476D02*
X405188246Y-210510476D01*
X405188246Y-210510476D02*
X405093008Y-210558095D01*
X405093008Y-210558095D02*
X405045389Y-210605714D01*
X405045389Y-210605714D02*
X404997770Y-210700952D01*
X404997770Y-210700952D02*
X404997770Y-210891428D01*
X404997770Y-210891428D02*
X405045389Y-210986666D01*
X405045389Y-210986666D02*
X405093008Y-211034285D01*
X405093008Y-211034285D02*
X405188246Y-211081904D01*
X405616818Y-209558095D02*
X405616818Y-210129523D01*
X405616818Y-209843809D02*
X404616818Y-209843809D01*
X404616818Y-209843809D02*
X404759675Y-209939047D01*
X404759675Y-209939047D02*
X404854913Y-210034285D01*
X404854913Y-210034285D02*
X404902532Y-210129523D01*
D11*
%TO.C,D72*%
X188646500Y-216170000D02*
X184636500Y-216170000D01*
X188646500Y-218170000D02*
X184636500Y-218170000D01*
X188646500Y-218170000D02*
X188646500Y-216170000D01*
%TO.C,C1*%
X164381980Y-157594897D02*
X164836108Y-157594897D01*
X164381980Y-159064897D02*
X164836108Y-159064897D01*
%TO.C,D18*%
X301260000Y-156030000D02*
X301260000Y-152020000D01*
X301260000Y-156030000D02*
X303260000Y-156030000D01*
X303260000Y-156030000D02*
X303260000Y-152020000D01*
%TO.C,D60*%
X375174000Y-213180000D02*
X375174000Y-209170000D01*
X375174000Y-213180000D02*
X377174000Y-213180000D01*
X377174000Y-213180000D02*
X377174000Y-209170000D01*
%TO.C,D68*%
X188647500Y-196983680D02*
X184637500Y-196983680D01*
X188647500Y-198983680D02*
X184637500Y-198983680D01*
X188647500Y-198983680D02*
X188647500Y-196983680D01*
%TO.C,SW2*%
X163392000Y-185257000D02*
X163992000Y-185257000D01*
X163692000Y-185557000D02*
X163392000Y-185257000D01*
X163992000Y-185257000D02*
X163692000Y-185557000D01*
X165092000Y-183457000D02*
X165092000Y-195257000D01*
X169192000Y-183457000D02*
X165092000Y-183457000D01*
X169192000Y-195257000D02*
X165092000Y-195257000D01*
X170692000Y-189357000D02*
X171692000Y-189357000D01*
X171192000Y-188857000D02*
X171192000Y-189857000D01*
X173192000Y-183457000D02*
X177292000Y-183457000D01*
X177292000Y-183457000D02*
X177292000Y-185857000D01*
X177292000Y-188057000D02*
X177292000Y-190657000D01*
X177292000Y-192857000D02*
X177292000Y-195257000D01*
X177292000Y-195257000D02*
X173192000Y-195257000D01*
X174192000Y-189357000D02*
G75*
G02*
X168192000Y-189357000I-3000000J0D01*
G01*
X168192000Y-189357000D02*
G75*
G02*
X174192000Y-189357000I3000000J0D01*
G01*
%TO.C,D10*%
X387112000Y-136980000D02*
X387112000Y-132970000D01*
X387112000Y-136980000D02*
X389112000Y-136980000D01*
X389112000Y-136980000D02*
X389112000Y-132970000D01*
%TO.C,D21*%
X358410000Y-156030000D02*
X358410000Y-152020000D01*
X358410000Y-156030000D02*
X360410000Y-156030000D01*
X360410000Y-156030000D02*
X360410000Y-152020000D01*
%TO.C,D36*%
X363236000Y-175080000D02*
X363236000Y-171070000D01*
X363236000Y-175080000D02*
X365236000Y-175080000D01*
X365236000Y-175080000D02*
X365236000Y-171070000D01*
%TO.C,D34*%
X325136000Y-175080000D02*
X325136000Y-171070000D01*
X325136000Y-175080000D02*
X327136000Y-175080000D01*
X327136000Y-175080000D02*
X327136000Y-171070000D01*
%TO.C,D42*%
X227346000Y-194130000D02*
X227346000Y-190120000D01*
X227346000Y-194130000D02*
X229346000Y-194130000D01*
X229346000Y-194130000D02*
X229346000Y-190120000D01*
D10*
%TO.C,U1*%
X170801248Y-148013000D02*
X170801248Y-148688000D01*
X170801248Y-148013000D02*
X171476248Y-148013000D01*
X170801248Y-162363000D02*
X170801248Y-161688000D01*
X170801248Y-162363000D02*
X171476248Y-162363000D01*
X185151248Y-148013000D02*
X184536248Y-148013000D01*
X185151248Y-148013000D02*
X185151248Y-148688000D01*
X185151248Y-162363000D02*
X184476248Y-162363000D01*
X185151248Y-162363000D02*
X185151248Y-161688000D01*
D11*
X184987362Y-147593364D02*
X184517362Y-147253364D01*
X184987362Y-146913364D01*
X184987362Y-147593364D01*
G36*
X184987362Y-147593364D02*
G01*
X184517362Y-147253364D01*
X184987362Y-146913364D01*
X184987362Y-147593364D01*
G37*
%TO.C,C3*%
X178480453Y-143443394D02*
X178480453Y-142989266D01*
X179950453Y-143443394D02*
X179950453Y-142989266D01*
%TO.C,D35*%
X344186000Y-175080000D02*
X344186000Y-171070000D01*
X344186000Y-175080000D02*
X346186000Y-175080000D01*
X346186000Y-175080000D02*
X346186000Y-171070000D01*
%TO.C,SW5*%
X182442000Y-204307000D02*
X183042000Y-204307000D01*
X182742000Y-204607000D02*
X182442000Y-204307000D01*
X183042000Y-204307000D02*
X182742000Y-204607000D01*
X184142000Y-202507000D02*
X184142000Y-214307000D01*
X188242000Y-202507000D02*
X184142000Y-202507000D01*
X188242000Y-214307000D02*
X184142000Y-214307000D01*
X189742000Y-208407000D02*
X190742000Y-208407000D01*
X190242000Y-207907000D02*
X190242000Y-208907000D01*
X192242000Y-202507000D02*
X196342000Y-202507000D01*
X196342000Y-202507000D02*
X196342000Y-204907000D01*
X196342000Y-207107000D02*
X196342000Y-209707000D01*
X196342000Y-211907000D02*
X196342000Y-214307000D01*
X196342000Y-214307000D02*
X192242000Y-214307000D01*
X193242000Y-208407000D02*
G75*
G02*
X187242000Y-208407000I-3000000J0D01*
G01*
X187242000Y-208407000D02*
G75*
G02*
X193242000Y-208407000I3000000J0D01*
G01*
%TO.C,SW3*%
X182442000Y-185257000D02*
X183042000Y-185257000D01*
X182742000Y-185557000D02*
X182442000Y-185257000D01*
X183042000Y-185257000D02*
X182742000Y-185557000D01*
X184142000Y-183457000D02*
X184142000Y-195257000D01*
X188242000Y-183457000D02*
X184142000Y-183457000D01*
X188242000Y-195257000D02*
X184142000Y-195257000D01*
X189742000Y-189357000D02*
X190742000Y-189357000D01*
X190242000Y-188857000D02*
X190242000Y-189857000D01*
X192242000Y-183457000D02*
X196342000Y-183457000D01*
X196342000Y-183457000D02*
X196342000Y-185857000D01*
X196342000Y-188057000D02*
X196342000Y-190657000D01*
X196342000Y-192857000D02*
X196342000Y-195257000D01*
X196342000Y-195257000D02*
X192242000Y-195257000D01*
X193242000Y-189357000D02*
G75*
G02*
X187242000Y-189357000I-3000000J0D01*
G01*
X187242000Y-189357000D02*
G75*
G02*
X193242000Y-189357000I3000000J0D01*
G01*
%TO.C,D46*%
X315484000Y-194130000D02*
X315484000Y-190120000D01*
X315484000Y-194130000D02*
X317484000Y-194130000D01*
X317484000Y-194130000D02*
X317484000Y-190120000D01*
%TO.C,R3*%
X170715000Y-127735064D02*
X170715000Y-127280936D01*
X172185000Y-127735064D02*
X172185000Y-127280936D01*
%TO.C,D6*%
X310912000Y-136980000D02*
X310912000Y-132970000D01*
X310912000Y-136980000D02*
X312912000Y-136980000D01*
X312912000Y-136980000D02*
X312912000Y-132970000D01*
%TO.C,J1*%
X175005000Y-123095000D02*
X175005000Y-121195000D01*
X175005000Y-126995000D02*
X175005000Y-124995000D01*
X184405000Y-121195000D02*
X175005000Y-121195000D01*
X184405000Y-123095000D02*
X184405000Y-121195000D01*
X184405000Y-126995000D02*
X184405000Y-124995000D01*
%TO.C,D9*%
X368062000Y-136980000D02*
X368062000Y-132970000D01*
X368062000Y-136980000D02*
X370062000Y-136980000D01*
X370062000Y-136980000D02*
X370062000Y-132970000D01*
%TO.C,D52*%
X436896000Y-194130000D02*
X436896000Y-190120000D01*
X436896000Y-194130000D02*
X438896000Y-194130000D01*
X438896000Y-194130000D02*
X438896000Y-190120000D01*
%TO.C,D58*%
X298974000Y-213180000D02*
X298974000Y-209170000D01*
X298974000Y-213180000D02*
X300974000Y-213180000D01*
X300974000Y-213180000D02*
X300974000Y-209170000D01*
%TO.C,D1*%
X215662000Y-136980000D02*
X215662000Y-132970000D01*
X215662000Y-136980000D02*
X217662000Y-136980000D01*
X217662000Y-136980000D02*
X217662000Y-132970000D01*
%TO.C,D24*%
X415560000Y-156030000D02*
X415560000Y-152020000D01*
X415560000Y-156030000D02*
X417560000Y-156030000D01*
X417560000Y-156030000D02*
X417560000Y-152020000D01*
%TO.C,D19*%
X320310000Y-156030000D02*
X320310000Y-152020000D01*
X320310000Y-156030000D02*
X322310000Y-156030000D01*
X322310000Y-156030000D02*
X322310000Y-152020000D01*
%TO.C,D11*%
X406162000Y-136980000D02*
X406162000Y-132970000D01*
X406162000Y-136980000D02*
X408162000Y-136980000D01*
X408162000Y-136980000D02*
X408162000Y-132970000D01*
%TO.C,D70*%
X169597500Y-216170000D02*
X165587500Y-216170000D01*
X169597500Y-218170000D02*
X165587500Y-218170000D01*
X169597500Y-218170000D02*
X169597500Y-216170000D01*
%TO.C,D4*%
X272812000Y-136980000D02*
X272812000Y-132970000D01*
X272812000Y-136980000D02*
X274812000Y-136980000D01*
X274812000Y-136980000D02*
X274812000Y-132970000D01*
%TO.C,D53*%
X463312000Y-194130000D02*
X463312000Y-190120000D01*
X463312000Y-194130000D02*
X465312000Y-194130000D01*
X465312000Y-194130000D02*
X465312000Y-190120000D01*
%TO.C,D43*%
X258334000Y-194130000D02*
X258334000Y-190120000D01*
X258334000Y-194130000D02*
X260334000Y-194130000D01*
X260334000Y-194130000D02*
X260334000Y-190120000D01*
%TO.C,D62*%
X425212000Y-213180000D02*
X425212000Y-209170000D01*
X425212000Y-213180000D02*
X427212000Y-213180000D01*
X427212000Y-213180000D02*
X427212000Y-209170000D01*
%TO.C,D27*%
X477536000Y-156030000D02*
X477536000Y-152020000D01*
X477536000Y-156030000D02*
X479536000Y-156030000D01*
X479536000Y-156030000D02*
X479536000Y-152020000D01*
%TO.C,D71*%
X172900000Y-216170000D02*
X172900000Y-218170000D01*
X172900000Y-216170000D02*
X176910000Y-216170000D01*
X172900000Y-218170000D02*
X176910000Y-218170000D01*
%TO.C,D22*%
X377460000Y-156030000D02*
X377460000Y-152020000D01*
X377460000Y-156030000D02*
X379460000Y-156030000D01*
X379460000Y-156030000D02*
X379460000Y-152020000D01*
%TO.C,R5*%
X180113000Y-133936936D02*
X180113000Y-134391064D01*
X181583000Y-133936936D02*
X181583000Y-134391064D01*
%TO.C,D57*%
X265446000Y-213180000D02*
X265446000Y-209170000D01*
X265446000Y-213180000D02*
X267446000Y-213180000D01*
X267446000Y-213180000D02*
X267446000Y-209170000D01*
%TO.C,R1*%
X164969565Y-135819000D02*
X164515437Y-135819000D01*
X164969565Y-137289000D02*
X164515437Y-137289000D01*
%TO.C,D2*%
X234712000Y-136980000D02*
X234712000Y-132970000D01*
X234712000Y-136980000D02*
X236712000Y-136980000D01*
X236712000Y-136980000D02*
X236712000Y-132970000D01*
%TO.C,D28*%
X472710000Y-136980000D02*
X472710000Y-132970000D01*
X472710000Y-136980000D02*
X474710000Y-136980000D01*
X474710000Y-136980000D02*
X474710000Y-132970000D01*
%TO.C,D65*%
X481658000Y-200930000D02*
X477648000Y-200930000D01*
X481658000Y-202930000D02*
X477648000Y-202930000D01*
X481658000Y-202930000D02*
X481658000Y-200930000D01*
%TO.C,Y1*%
X162959044Y-156435897D02*
X166259044Y-156435897D01*
X166259044Y-156435897D02*
X166259044Y-152435897D01*
%TO.C,D38*%
X401336000Y-175080000D02*
X401336000Y-171070000D01*
X401336000Y-175080000D02*
X403336000Y-175080000D01*
X403336000Y-175080000D02*
X403336000Y-171070000D01*
%TO.C,D49*%
X372634000Y-194130000D02*
X372634000Y-190120000D01*
X372634000Y-194130000D02*
X374634000Y-194130000D01*
X374634000Y-194130000D02*
X374634000Y-190120000D01*
%TO.C,D20*%
X339360000Y-156030000D02*
X339360000Y-152020000D01*
X339360000Y-156030000D02*
X341360000Y-156030000D01*
X341360000Y-156030000D02*
X341360000Y-152020000D01*
%TO.C,R2*%
X183969436Y-132442000D02*
X184423564Y-132442000D01*
X183969436Y-133912000D02*
X184423564Y-133912000D01*
%TO.C,D45*%
X296434000Y-194130000D02*
X296434000Y-190120000D01*
X296434000Y-194130000D02*
X298434000Y-194130000D01*
X298434000Y-194130000D02*
X298434000Y-190120000D01*
%TO.C,D29*%
X222774000Y-175080000D02*
X222774000Y-171070000D01*
X222774000Y-175080000D02*
X224774000Y-175080000D01*
X224774000Y-175080000D02*
X224774000Y-171070000D01*
%TO.C,D51*%
X410734000Y-194130000D02*
X410734000Y-190120000D01*
X410734000Y-194130000D02*
X412734000Y-194130000D01*
X412734000Y-194130000D02*
X412734000Y-190120000D01*
%TO.C,SW4*%
X163392000Y-204307000D02*
X163992000Y-204307000D01*
X163692000Y-204607000D02*
X163392000Y-204307000D01*
X163992000Y-204307000D02*
X163692000Y-204607000D01*
X165092000Y-202507000D02*
X165092000Y-214307000D01*
X169192000Y-202507000D02*
X165092000Y-202507000D01*
X169192000Y-214307000D02*
X165092000Y-214307000D01*
X170692000Y-208407000D02*
X171692000Y-208407000D01*
X171192000Y-207907000D02*
X171192000Y-208907000D01*
X173192000Y-202507000D02*
X177292000Y-202507000D01*
X177292000Y-202507000D02*
X177292000Y-204907000D01*
X177292000Y-207107000D02*
X177292000Y-209707000D01*
X177292000Y-211907000D02*
X177292000Y-214307000D01*
X177292000Y-214307000D02*
X173192000Y-214307000D01*
X174192000Y-208407000D02*
G75*
G02*
X168192000Y-208407000I-3000000J0D01*
G01*
X168192000Y-208407000D02*
G75*
G02*
X174192000Y-208407000I3000000J0D01*
G01*
%TO.C,D40*%
X439436000Y-175080000D02*
X439436000Y-171070000D01*
X439436000Y-175080000D02*
X441436000Y-175080000D01*
X441436000Y-175080000D02*
X441436000Y-171070000D01*
%TO.C,D55*%
X217948000Y-213180000D02*
X217948000Y-209170000D01*
X217948000Y-213180000D02*
X219948000Y-213180000D01*
X219948000Y-213180000D02*
X219948000Y-209170000D01*
%TO.C,D39*%
X420386000Y-175080000D02*
X420386000Y-171070000D01*
X420386000Y-175080000D02*
X422386000Y-175080000D01*
X422386000Y-175080000D02*
X422386000Y-171070000D01*
%TO.C,D44*%
X277384000Y-194130000D02*
X277384000Y-190120000D01*
X277384000Y-194130000D02*
X279384000Y-194130000D01*
X279384000Y-194130000D02*
X279384000Y-190120000D01*
%TO.C,D14*%
X220488000Y-156030000D02*
X220488000Y-152020000D01*
X220488000Y-156030000D02*
X222488000Y-156030000D01*
X222488000Y-156030000D02*
X222488000Y-152020000D01*
%TO.C,D47*%
X334534000Y-194130000D02*
X334534000Y-190120000D01*
X334534000Y-194130000D02*
X336534000Y-194130000D01*
X336534000Y-194130000D02*
X336534000Y-190120000D01*
%TO.C,D16*%
X263160000Y-156030000D02*
X263160000Y-152020000D01*
X263160000Y-156030000D02*
X265160000Y-156030000D01*
X265160000Y-156030000D02*
X265160000Y-152020000D01*
%TO.C,D33*%
X306086000Y-175080000D02*
X306086000Y-171070000D01*
X306086000Y-175080000D02*
X308086000Y-175080000D01*
X308086000Y-175080000D02*
X308086000Y-171070000D01*
%TO.C,D54*%
X483547090Y-182007000D02*
X479537090Y-182007000D01*
X483547090Y-184007000D02*
X479537090Y-184007000D01*
X483547090Y-184007000D02*
X483547090Y-182007000D01*
%TO.C,D17*%
X282210000Y-156030000D02*
X282210000Y-152020000D01*
X282210000Y-156030000D02*
X284210000Y-156030000D01*
X284210000Y-156030000D02*
X284210000Y-152020000D01*
%TO.C,D64*%
X463312000Y-213180000D02*
X463312000Y-209170000D01*
X463312000Y-213180000D02*
X465312000Y-213180000D01*
X465312000Y-213180000D02*
X465312000Y-209170000D01*
%TO.C,R6*%
X168251624Y-143068580D02*
X167930507Y-143389697D01*
X169291071Y-144108027D02*
X168969954Y-144429144D01*
%TO.C,D50*%
X391684000Y-194130000D02*
X391684000Y-190120000D01*
X391684000Y-194130000D02*
X393684000Y-194130000D01*
X393684000Y-194130000D02*
X393684000Y-190120000D01*
%TO.C,D73*%
X191824000Y-216170000D02*
X191824000Y-218170000D01*
X191824000Y-216170000D02*
X195834000Y-216170000D01*
X191824000Y-218170000D02*
X195834000Y-218170000D01*
%TO.C,C6*%
X188081365Y-149344490D02*
X188081365Y-149798618D01*
X189551365Y-149344490D02*
X189551365Y-149798618D01*
%TO.C,D30*%
X248936000Y-175080000D02*
X248936000Y-171070000D01*
X248936000Y-175080000D02*
X250936000Y-175080000D01*
X250936000Y-175080000D02*
X250936000Y-171070000D01*
%TO.C,D37*%
X382286000Y-175080000D02*
X382286000Y-171070000D01*
X382286000Y-175080000D02*
X384286000Y-175080000D01*
X384286000Y-175080000D02*
X384286000Y-171070000D01*
%TO.C,D23*%
X396510000Y-156030000D02*
X396510000Y-152020000D01*
X396510000Y-156030000D02*
X398510000Y-156030000D01*
X398510000Y-156030000D02*
X398510000Y-152020000D01*
%TO.C,R4*%
X177827000Y-133936936D02*
X177827000Y-134391064D01*
X179297000Y-133936936D02*
X179297000Y-134391064D01*
%TO.C,D32*%
X287036000Y-175080000D02*
X287036000Y-171070000D01*
X287036000Y-175080000D02*
X289036000Y-175080000D01*
X289036000Y-175080000D02*
X289036000Y-171070000D01*
%TO.C,C2*%
X164836108Y-149720897D02*
X164381980Y-149720897D01*
X164836108Y-151190897D02*
X164381980Y-151190897D01*
%TO.C,D8*%
X349012000Y-136980000D02*
X349012000Y-132970000D01*
X349012000Y-136980000D02*
X351012000Y-136980000D01*
X351012000Y-136980000D02*
X351012000Y-132970000D01*
%TO.C,D3*%
X253762000Y-137234000D02*
X253762000Y-133224000D01*
X253762000Y-137234000D02*
X255762000Y-137234000D01*
X255762000Y-137234000D02*
X255762000Y-133224000D01*
%TO.C,D56*%
X241824000Y-213180000D02*
X241824000Y-209170000D01*
X241824000Y-213180000D02*
X243824000Y-213180000D01*
X243824000Y-213180000D02*
X243824000Y-209170000D01*
%TO.C,D48*%
X353584000Y-194130000D02*
X353584000Y-190120000D01*
X353584000Y-194130000D02*
X355584000Y-194130000D01*
X355584000Y-194130000D02*
X355584000Y-190120000D01*
%TO.C,D7*%
X329962000Y-136980000D02*
X329962000Y-132970000D01*
X329962000Y-136980000D02*
X331962000Y-136980000D01*
X331962000Y-136980000D02*
X331962000Y-132970000D01*
%TO.C,D25*%
X434610000Y-156030000D02*
X434610000Y-152020000D01*
X434610000Y-156030000D02*
X436610000Y-156030000D01*
X436610000Y-156030000D02*
X436610000Y-152020000D01*
%TO.C,C4*%
X165599832Y-145757232D02*
X165278715Y-146078349D01*
X166639279Y-146796679D02*
X166318162Y-147117796D01*
%TO.C,D5*%
X291862000Y-136980000D02*
X291862000Y-132970000D01*
X291862000Y-136980000D02*
X293862000Y-136980000D01*
X293862000Y-136980000D02*
X293862000Y-132970000D01*
%TO.C,D26*%
X453660000Y-156030000D02*
X453660000Y-152020000D01*
X453660000Y-156030000D02*
X455660000Y-156030000D01*
X455660000Y-156030000D02*
X455660000Y-152020000D01*
%TO.C,D67*%
X172900000Y-196993000D02*
X172900000Y-198993000D01*
X172900000Y-196993000D02*
X176910000Y-196993000D01*
X172900000Y-198993000D02*
X176910000Y-198993000D01*
%TO.C,D15*%
X244110000Y-156030000D02*
X244110000Y-152020000D01*
X244110000Y-156030000D02*
X246110000Y-156030000D01*
X246110000Y-156030000D02*
X246110000Y-152020000D01*
%TO.C,D12*%
X425212000Y-136980000D02*
X425212000Y-132970000D01*
X425212000Y-136980000D02*
X427212000Y-136980000D01*
X427212000Y-136980000D02*
X427212000Y-132970000D01*
%TO.C,D69*%
X191824000Y-196993000D02*
X191824000Y-198993000D01*
X191824000Y-196993000D02*
X195834000Y-196993000D01*
X191824000Y-198993000D02*
X195834000Y-198993000D01*
%TO.C,D13*%
X444262000Y-136980000D02*
X444262000Y-132970000D01*
X444262000Y-136980000D02*
X446262000Y-136980000D01*
X446262000Y-136980000D02*
X446262000Y-132970000D01*
%TO.C,C5*%
X176317230Y-143422636D02*
X176317230Y-142968508D01*
X177787230Y-143422636D02*
X177787230Y-142968508D01*
%TO.C,D59*%
X337074000Y-213180000D02*
X337074000Y-209170000D01*
X337074000Y-213180000D02*
X339074000Y-213180000D01*
X339074000Y-213180000D02*
X339074000Y-209170000D01*
%TO.C,SW1*%
X162960001Y-128956000D02*
X162960001Y-131856000D01*
X162960001Y-128956000D02*
X163450001Y-128466000D01*
X162960001Y-131856000D02*
X163450001Y-132346000D01*
X164640001Y-127686001D02*
X166720001Y-127686001D01*
X164640001Y-133125999D02*
X166720001Y-133125999D01*
X168400001Y-128956000D02*
X167910001Y-128466000D01*
X168400001Y-128956000D02*
X168400001Y-131856000D01*
X168400001Y-131856000D02*
X167910001Y-132346000D01*
%TO.C,C7*%
X188260971Y-158599269D02*
X188260971Y-158145141D01*
X189730971Y-158599269D02*
X189730971Y-158145141D01*
%TO.C,D66*%
X169619000Y-196993000D02*
X165609000Y-196993000D01*
X169619000Y-198993000D02*
X165609000Y-198993000D01*
X169619000Y-198993000D02*
X169619000Y-196993000D01*
%TO.C,D31*%
X267986000Y-175080000D02*
X267986000Y-171070000D01*
X267986000Y-175080000D02*
X269986000Y-175080000D01*
X269986000Y-175080000D02*
X269986000Y-171070000D01*
%TO.C,D63*%
X444262000Y-213180000D02*
X444262000Y-209170000D01*
X444262000Y-213180000D02*
X446262000Y-213180000D01*
X446262000Y-213180000D02*
X446262000Y-209170000D01*
%TO.C,D41*%
X470424000Y-175080000D02*
X470424000Y-171070000D01*
X470424000Y-175080000D02*
X472424000Y-175080000D01*
X472424000Y-175080000D02*
X472424000Y-171070000D01*
%TO.C,D61*%
X406162000Y-213180000D02*
X406162000Y-209170000D01*
X406162000Y-213180000D02*
X408162000Y-213180000D01*
X408162000Y-213180000D02*
X408162000Y-209170000D01*
%TD*%
M02*
