%TF.GenerationSoftware,KiCad,Pcbnew,8.0.0*%
%TF.CreationDate,2024-11-20T19:59:16-08:00*%
%TF.ProjectId,Hampter1.3,48616d70-7465-4723-912e-332e6b696361,rev?*%
%TF.SameCoordinates,Original*%
%TF.FileFunction,Drillmap*%
%TF.FilePolarity,Positive*%
%FSLAX45Y45*%
G04 Gerber Fmt 4.5, Leading zero omitted, Abs format (unit mm)*
G04 Created by KiCad (PCBNEW 8.0.0) date 2024-11-20 19:59:16*
%MOMM*%
%LPD*%
G01*
G04 APERTURE LIST*
%ADD10C,0.050000*%
%ADD11C,0.200000*%
%ADD12C,0.100000*%
%ADD13C,0.150000*%
%ADD14C,0.152400*%
G04 APERTURE END LIST*
D10*
X18503900Y-12217400D02*
X18503900Y-12280900D01*
X18694400Y-12509500D02*
G75*
G02*
X18503900Y-12319000I0J190500D01*
G01*
X17246600Y-12509500D02*
X16256000Y-12509500D01*
X18694400Y-12509500D02*
X48260000Y-12509500D01*
X17437100Y-12217400D02*
G75*
G02*
X17627600Y-12026900I190500J0D01*
G01*
X16065500Y-12700000D02*
G75*
G02*
X16256000Y-12509500I190500J0D01*
G01*
X17437100Y-12280900D02*
X17437100Y-12319000D01*
X17437100Y-12217400D02*
X17437100Y-12280900D01*
X48450500Y-21844000D02*
G75*
G02*
X48260000Y-22034500I-190500J0D01*
G01*
X18503900Y-12280900D02*
X18503900Y-12319000D01*
X16065500Y-12700000D02*
X16065500Y-21844000D01*
X48260000Y-12509500D02*
G75*
G02*
X48450500Y-12700000I0J-190500D01*
G01*
X16256000Y-22034500D02*
G75*
G02*
X16065500Y-21844000I0J190500D01*
G01*
X48450500Y-12700000D02*
X48450500Y-21844000D01*
X17437100Y-12319000D02*
G75*
G02*
X17246600Y-12509500I-190500J0D01*
G01*
X18313400Y-12026900D02*
G75*
G02*
X18503900Y-12217400I0J-190500D01*
G01*
X16256000Y-22034500D02*
X48260000Y-22034500D01*
X17627600Y-12026900D02*
X18313400Y-12026900D01*
D11*
D12*
X16177500Y-13510500D02*
X16207500Y-13540500D01*
X16207500Y-13510500D02*
X16177500Y-13540500D01*
X16545800Y-13027900D02*
X16575800Y-13057900D01*
X16575800Y-13027900D02*
X16545800Y-13057900D01*
X16545800Y-16825200D02*
X16575800Y-16855200D01*
X16575800Y-16825200D02*
X16545800Y-16855200D01*
X16736300Y-14145500D02*
X16766300Y-14175500D01*
X16766300Y-14145500D02*
X16736300Y-14175500D01*
X16810158Y-14633952D02*
X16840158Y-14663952D01*
X16840158Y-14633952D02*
X16810158Y-14663952D01*
X16964900Y-13104100D02*
X16994900Y-13134100D01*
X16994900Y-13104100D02*
X16964900Y-13134100D01*
X16990300Y-19784300D02*
X17020300Y-19814300D01*
X17020300Y-19784300D02*
X16990300Y-19814300D01*
X17231600Y-19784300D02*
X17261600Y-19814300D01*
X17261600Y-19784300D02*
X17231600Y-19814300D01*
X17244300Y-13256500D02*
X17274300Y-13286500D01*
X17274300Y-13256500D02*
X17244300Y-13286500D01*
X17345900Y-15910800D02*
X17375900Y-15940800D01*
X17375900Y-15910800D02*
X17345900Y-15940800D01*
X17536400Y-13802600D02*
X17566400Y-13832600D01*
X17566400Y-13802600D02*
X17536400Y-13832600D01*
X17574500Y-17180800D02*
X17604500Y-17210800D01*
X17604500Y-17180800D02*
X17574500Y-17210800D01*
X17676100Y-13261700D02*
X17706100Y-13291700D01*
X17706100Y-13261700D02*
X17676100Y-13291700D01*
X17790400Y-20114500D02*
X17820400Y-20144500D01*
X17820400Y-20114500D02*
X17790400Y-20144500D01*
X18069800Y-14920200D02*
X18099800Y-14950200D01*
X18099800Y-14920200D02*
X18069800Y-14950200D01*
X18171400Y-15364700D02*
X18201400Y-15394700D01*
X18201400Y-15364700D02*
X18171400Y-15394700D01*
X18349200Y-15021800D02*
X18379200Y-15051800D01*
X18379200Y-15021800D02*
X18349200Y-15051800D01*
X18704800Y-15047200D02*
X18734800Y-15077200D01*
X18734800Y-15047200D02*
X18704800Y-15077200D01*
X18717500Y-15720300D02*
X18747500Y-15750300D01*
X18747500Y-15720300D02*
X18717500Y-15750300D01*
X18882600Y-19784300D02*
X18912600Y-19814300D01*
X18912600Y-19784300D02*
X18882600Y-19814300D01*
X18996900Y-17968200D02*
X19026900Y-17998200D01*
X19026900Y-17968200D02*
X18996900Y-17998200D01*
X19136600Y-19784300D02*
X19166600Y-19814300D01*
X19166600Y-19784300D02*
X19136600Y-19814300D01*
X19212800Y-15821900D02*
X19242800Y-15851900D01*
X19242800Y-15821900D02*
X19212800Y-15851900D01*
X19225500Y-13358100D02*
X19255500Y-13388100D01*
X19255500Y-13358100D02*
X19225500Y-13388100D01*
X19263600Y-14513800D02*
X19293600Y-14543800D01*
X19293600Y-14513800D02*
X19263600Y-14543800D01*
X19508342Y-19410700D02*
X19538342Y-19440700D01*
X19538342Y-19410700D02*
X19508342Y-19440700D01*
X21549600Y-19406800D02*
X21579600Y-19436800D01*
X21579600Y-19406800D02*
X21549600Y-19436800D01*
X25943800Y-21702000D02*
X25973800Y-21732000D01*
X25973800Y-21702000D02*
X25943800Y-21732000D01*
X32903400Y-20165300D02*
X32933400Y-20195300D01*
X32933400Y-20165300D02*
X32903400Y-20195300D01*
X47254400Y-21689300D02*
X47284400Y-21719300D01*
X47284400Y-21689300D02*
X47254400Y-21719300D01*
X48029100Y-16342600D02*
X48059100Y-16372600D01*
X48059100Y-16342600D02*
X48029100Y-16372600D01*
X17287790Y-15240412D02*
G75*
G02*
X17247790Y-15240412I-20000J0D01*
G01*
X17247790Y-15240412D02*
G75*
G02*
X17287790Y-15240412I20000J0D01*
G01*
X17449434Y-15599622D02*
G75*
G02*
X17409434Y-15599622I-20000J0D01*
G01*
X17409434Y-15599622D02*
G75*
G02*
X17449434Y-15599622I20000J0D01*
G01*
X17853546Y-14997945D02*
G75*
G02*
X17813546Y-14997945I-20000J0D01*
G01*
X17813546Y-14997945D02*
G75*
G02*
X17853546Y-14997945I20000J0D01*
G01*
X18041842Y-15303413D02*
G75*
G02*
X18001842Y-15303413I-20000J0D01*
G01*
X18001842Y-15303413D02*
G75*
G02*
X18041842Y-15303413I20000J0D01*
G01*
X18205388Y-15798800D02*
G75*
G02*
X18165388Y-15798800I-20000J0D01*
G01*
X18165388Y-15798800D02*
G75*
G02*
X18205388Y-15798800I20000J0D01*
G01*
X18239697Y-15024886D02*
G75*
G02*
X18199697Y-15024886I-20000J0D01*
G01*
X18199697Y-15024886D02*
G75*
G02*
X18239697Y-15024886I20000J0D01*
G01*
X18410322Y-15877800D02*
G75*
G02*
X18370322Y-15877800I-20000J0D01*
G01*
X18370322Y-15877800D02*
G75*
G02*
X18410322Y-15877800I20000J0D01*
G01*
X17538500Y-12374500D02*
X17538500Y-12434500D01*
X17508500Y-12404500D02*
X17568500Y-12404500D01*
X17568500Y-12434500D02*
X17568500Y-12374500D01*
X17508500Y-12374500D02*
G75*
G02*
X17568500Y-12374500I30000J0D01*
G01*
X17508500Y-12374500D02*
X17508500Y-12434500D01*
X17508500Y-12434500D02*
G75*
G03*
X17568500Y-12434500I30000J0D01*
G01*
X17538500Y-12792500D02*
X17538500Y-12852500D01*
X17508500Y-12822500D02*
X17568500Y-12822500D01*
X17568500Y-12877500D02*
X17568500Y-12767500D01*
X17508500Y-12767500D02*
G75*
G02*
X17568500Y-12767500I30000J0D01*
G01*
X17508500Y-12767500D02*
X17508500Y-12877500D01*
X17508500Y-12877500D02*
G75*
G03*
X17568500Y-12877500I30000J0D01*
G01*
X18402500Y-12374500D02*
X18402500Y-12434500D01*
X18372500Y-12404500D02*
X18432500Y-12404500D01*
X18432500Y-12434500D02*
X18432500Y-12374500D01*
X18372500Y-12374500D02*
G75*
G02*
X18432500Y-12374500I30000J0D01*
G01*
X18372500Y-12374500D02*
X18372500Y-12434500D01*
X18372500Y-12434500D02*
G75*
G03*
X18432500Y-12434500I30000J0D01*
G01*
X18402500Y-12792500D02*
X18402500Y-12852500D01*
X18372500Y-12822500D02*
X18432500Y-12822500D01*
X18432500Y-12877500D02*
X18432500Y-12767500D01*
X18372500Y-12767500D02*
G75*
G02*
X18432500Y-12767500I30000J0D01*
G01*
X18372500Y-12767500D02*
X18372500Y-12877500D01*
X18372500Y-12877500D02*
G75*
G03*
X18432500Y-12877500I30000J0D01*
G01*
X16404556Y-18721056D02*
X16404556Y-18650344D01*
X16333844Y-18650344D01*
X16333844Y-18721056D01*
X16404556Y-18721056D01*
X16404556Y-18971056D02*
X16404556Y-18900344D01*
X16333844Y-18900344D01*
X16333844Y-18971056D01*
X16404556Y-18971056D01*
X16404556Y-19221056D02*
X16404556Y-19150344D01*
X16333844Y-19150344D01*
X16333844Y-19221056D01*
X16404556Y-19221056D01*
X16404556Y-20626056D02*
X16404556Y-20555344D01*
X16333844Y-20555344D01*
X16333844Y-20626056D01*
X16404556Y-20626056D01*
X16404556Y-20876056D02*
X16404556Y-20805344D01*
X16333844Y-20805344D01*
X16333844Y-20876056D01*
X16404556Y-20876056D01*
X16404556Y-21126056D02*
X16404556Y-21055344D01*
X16333844Y-21055344D01*
X16333844Y-21126056D01*
X16404556Y-21126056D01*
X17854556Y-18721056D02*
X17854556Y-18650344D01*
X17783844Y-18650344D01*
X17783844Y-18721056D01*
X17854556Y-18721056D01*
X17854556Y-19221056D02*
X17854556Y-19150344D01*
X17783844Y-19150344D01*
X17783844Y-19221056D01*
X17854556Y-19221056D01*
X17854556Y-20626056D02*
X17854556Y-20555344D01*
X17783844Y-20555344D01*
X17783844Y-20626056D01*
X17854556Y-20626056D01*
X17854556Y-21126056D02*
X17854556Y-21055344D01*
X17783844Y-21055344D01*
X17783844Y-21126056D01*
X17854556Y-21126056D01*
X18309556Y-18721056D02*
X18309556Y-18650344D01*
X18238844Y-18650344D01*
X18238844Y-18721056D01*
X18309556Y-18721056D01*
X18309556Y-18971056D02*
X18309556Y-18900344D01*
X18238844Y-18900344D01*
X18238844Y-18971056D01*
X18309556Y-18971056D01*
X18309556Y-19221056D02*
X18309556Y-19150344D01*
X18238844Y-19150344D01*
X18238844Y-19221056D01*
X18309556Y-19221056D01*
X18309556Y-20626056D02*
X18309556Y-20555344D01*
X18238844Y-20555344D01*
X18238844Y-20626056D01*
X18309556Y-20626056D01*
X18309556Y-20876056D02*
X18309556Y-20805344D01*
X18238844Y-20805344D01*
X18238844Y-20876056D01*
X18309556Y-20876056D01*
X18309556Y-21126056D02*
X18309556Y-21055344D01*
X18238844Y-21055344D01*
X18238844Y-21126056D01*
X18309556Y-21126056D01*
X19759556Y-18721056D02*
X19759556Y-18650344D01*
X19688844Y-18650344D01*
X19688844Y-18721056D01*
X19759556Y-18721056D01*
X19759556Y-19221056D02*
X19759556Y-19150344D01*
X19688844Y-19150344D01*
X19688844Y-19221056D01*
X19759556Y-19221056D01*
X19759556Y-20626056D02*
X19759556Y-20555344D01*
X19688844Y-20555344D01*
X19688844Y-20626056D01*
X19759556Y-20626056D01*
X19759556Y-21126056D02*
X19759556Y-21055344D01*
X19688844Y-21055344D01*
X19688844Y-21126056D01*
X19759556Y-21126056D01*
D13*
X17119200Y-18450700D02*
X17194200Y-18375700D01*
X17119200Y-18300700D01*
X17044200Y-18375700D01*
X17119200Y-18450700D01*
D12*
X17054200Y-18450700D02*
X17184200Y-18450700D01*
X17184200Y-18300700D02*
G75*
G02*
X17184200Y-18450700I0J-75000D01*
G01*
X17184200Y-18300700D02*
X17054200Y-18300700D01*
X17054200Y-18300700D02*
G75*
G03*
X17054200Y-18450700I0J-75000D01*
G01*
D13*
X17119200Y-19570700D02*
X17194200Y-19495700D01*
X17119200Y-19420700D01*
X17044200Y-19495700D01*
X17119200Y-19570700D01*
D12*
X17054200Y-19570700D02*
X17184200Y-19570700D01*
X17184200Y-19420700D02*
G75*
G02*
X17184200Y-19570700I0J-75000D01*
G01*
X17184200Y-19420700D02*
X17054200Y-19420700D01*
X17054200Y-19420700D02*
G75*
G03*
X17054200Y-19570700I0J-75000D01*
G01*
D13*
X17119200Y-20355700D02*
X17194200Y-20280700D01*
X17119200Y-20205700D01*
X17044200Y-20280700D01*
X17119200Y-20355700D01*
D12*
X17054200Y-20355700D02*
X17184200Y-20355700D01*
X17184200Y-20205700D02*
G75*
G02*
X17184200Y-20355700I0J-75000D01*
G01*
X17184200Y-20205700D02*
X17054200Y-20205700D01*
X17054200Y-20205700D02*
G75*
G03*
X17054200Y-20355700I0J-75000D01*
G01*
D13*
X17119200Y-21475700D02*
X17194200Y-21400700D01*
X17119200Y-21325700D01*
X17044200Y-21400700D01*
X17119200Y-21475700D01*
D12*
X17054200Y-21475700D02*
X17184200Y-21475700D01*
X17184200Y-21325700D02*
G75*
G02*
X17184200Y-21475700I0J-75000D01*
G01*
X17184200Y-21325700D02*
X17054200Y-21325700D01*
X17054200Y-21325700D02*
G75*
G03*
X17054200Y-21475700I0J-75000D01*
G01*
D13*
X19024200Y-18450700D02*
X19099200Y-18375700D01*
X19024200Y-18300700D01*
X18949200Y-18375700D01*
X19024200Y-18450700D01*
D12*
X18959200Y-18450700D02*
X19089200Y-18450700D01*
X19089200Y-18300700D02*
G75*
G02*
X19089200Y-18450700I0J-75000D01*
G01*
X19089200Y-18300700D02*
X18959200Y-18300700D01*
X18959200Y-18300700D02*
G75*
G03*
X18959200Y-18450700I0J-75000D01*
G01*
D13*
X19024200Y-19570700D02*
X19099200Y-19495700D01*
X19024200Y-19420700D01*
X18949200Y-19495700D01*
X19024200Y-19570700D01*
D12*
X18959200Y-19570700D02*
X19089200Y-19570700D01*
X19089200Y-19420700D02*
G75*
G02*
X19089200Y-19570700I0J-75000D01*
G01*
X19089200Y-19420700D02*
X18959200Y-19420700D01*
X18959200Y-19420700D02*
G75*
G03*
X18959200Y-19570700I0J-75000D01*
G01*
D13*
X19024200Y-20355700D02*
X19099200Y-20280700D01*
X19024200Y-20205700D01*
X18949200Y-20280700D01*
X19024200Y-20355700D01*
D12*
X18959200Y-20355700D02*
X19089200Y-20355700D01*
X19089200Y-20205700D02*
G75*
G02*
X19089200Y-20355700I0J-75000D01*
G01*
X19089200Y-20205700D02*
X18959200Y-20205700D01*
X18959200Y-20205700D02*
G75*
G03*
X18959200Y-20355700I0J-75000D01*
G01*
D13*
X19024200Y-21475700D02*
X19099200Y-21400700D01*
X19024200Y-21325700D01*
X18949200Y-21400700D01*
X19024200Y-21475700D01*
D12*
X18959200Y-21475700D02*
X19089200Y-21475700D01*
X19089200Y-21325700D02*
G75*
G02*
X19089200Y-21475700I0J-75000D01*
G01*
X19089200Y-21325700D02*
X18959200Y-21325700D01*
X18959200Y-21325700D02*
G75*
G03*
X18959200Y-21475700I0J-75000D01*
G01*
D14*
X20370800Y-13131800D02*
X20523200Y-13284200D01*
X20523200Y-13131800D02*
X20370800Y-13284200D01*
X20523200Y-13208000D02*
G75*
G02*
X20370800Y-13208000I-76200J0D01*
G01*
X20370800Y-13208000D02*
G75*
G02*
X20523200Y-13208000I76200J0D01*
G01*
X20608473Y-20752045D02*
X20760873Y-20904445D01*
X20760873Y-20752045D02*
X20608473Y-20904445D01*
X20760873Y-20828245D02*
G75*
G02*
X20608473Y-20828245I-76200J0D01*
G01*
X20608473Y-20828245D02*
G75*
G02*
X20760873Y-20828245I76200J0D01*
G01*
X20847067Y-15036800D02*
X20999467Y-15189200D01*
X20999467Y-15036800D02*
X20847067Y-15189200D01*
X20999467Y-15113000D02*
G75*
G02*
X20847067Y-15113000I-76200J0D01*
G01*
X20847067Y-15113000D02*
G75*
G02*
X20999467Y-15113000I76200J0D01*
G01*
X21005800Y-12877800D02*
X21158200Y-13030200D01*
X21158200Y-12877800D02*
X21005800Y-13030200D01*
X21158200Y-12954000D02*
G75*
G02*
X21005800Y-12954000I-76200J0D01*
G01*
X21005800Y-12954000D02*
G75*
G02*
X21158200Y-12954000I76200J0D01*
G01*
X21084540Y-16941800D02*
X21236940Y-17094200D01*
X21236940Y-16941800D02*
X21084540Y-17094200D01*
X21236940Y-17018000D02*
G75*
G02*
X21084540Y-17018000I-76200J0D01*
G01*
X21084540Y-17018000D02*
G75*
G02*
X21236940Y-17018000I76200J0D01*
G01*
X21243473Y-20498045D02*
X21395873Y-20650445D01*
X21395873Y-20498045D02*
X21243473Y-20650445D01*
X21395873Y-20574245D02*
G75*
G02*
X21243473Y-20574245I-76200J0D01*
G01*
X21243473Y-20574245D02*
G75*
G02*
X21395873Y-20574245I76200J0D01*
G01*
X21482067Y-14782800D02*
X21634467Y-14935200D01*
X21634467Y-14782800D02*
X21482067Y-14935200D01*
X21634467Y-14859000D02*
G75*
G02*
X21482067Y-14859000I-76200J0D01*
G01*
X21482067Y-14859000D02*
G75*
G02*
X21634467Y-14859000I76200J0D01*
G01*
X21560299Y-18847145D02*
X21712699Y-18999545D01*
X21712699Y-18847145D02*
X21560299Y-18999545D01*
X21712699Y-18923345D02*
G75*
G02*
X21560299Y-18923345I-76200J0D01*
G01*
X21560299Y-18923345D02*
G75*
G02*
X21712699Y-18923345I76200J0D01*
G01*
X21719540Y-16687800D02*
X21871940Y-16840200D01*
X21871940Y-16687800D02*
X21719540Y-16840200D01*
X21871940Y-16764000D02*
G75*
G02*
X21719540Y-16764000I-76200J0D01*
G01*
X21719540Y-16764000D02*
G75*
G02*
X21871940Y-16764000I76200J0D01*
G01*
X22195299Y-18593145D02*
X22347699Y-18745545D01*
X22347699Y-18593145D02*
X22195299Y-18745545D01*
X22347699Y-18669345D02*
G75*
G02*
X22195299Y-18669345I-76200J0D01*
G01*
X22195299Y-18669345D02*
G75*
G02*
X22347699Y-18669345I76200J0D01*
G01*
X22275800Y-13131800D02*
X22428200Y-13284200D01*
X22428200Y-13131800D02*
X22275800Y-13284200D01*
X22428200Y-13208000D02*
G75*
G02*
X22275800Y-13208000I-76200J0D01*
G01*
X22275800Y-13208000D02*
G75*
G02*
X22428200Y-13208000I76200J0D01*
G01*
X22910800Y-12877800D02*
X23063200Y-13030200D01*
X23063200Y-12877800D02*
X22910800Y-13030200D01*
X23063200Y-12954000D02*
G75*
G02*
X22910800Y-12954000I-76200J0D01*
G01*
X22910800Y-12954000D02*
G75*
G02*
X23063200Y-12954000I76200J0D01*
G01*
X22989631Y-20752045D02*
X23142031Y-20904445D01*
X23142031Y-20752045D02*
X22989631Y-20904445D01*
X23142031Y-20828245D02*
G75*
G02*
X22989631Y-20828245I-76200J0D01*
G01*
X22989631Y-20828245D02*
G75*
G02*
X23142031Y-20828245I76200J0D01*
G01*
X23227047Y-15036800D02*
X23379447Y-15189200D01*
X23379447Y-15036800D02*
X23227047Y-15189200D01*
X23379447Y-15113000D02*
G75*
G02*
X23227047Y-15113000I-76200J0D01*
G01*
X23227047Y-15113000D02*
G75*
G02*
X23379447Y-15113000I76200J0D01*
G01*
X23624631Y-20498045D02*
X23777031Y-20650445D01*
X23777031Y-20498045D02*
X23624631Y-20650445D01*
X23777031Y-20574245D02*
G75*
G02*
X23624631Y-20574245I-76200J0D01*
G01*
X23624631Y-20574245D02*
G75*
G02*
X23777031Y-20574245I76200J0D01*
G01*
X23703109Y-16942059D02*
X23855509Y-17094459D01*
X23855509Y-16942059D02*
X23703109Y-17094459D01*
X23855509Y-17018259D02*
G75*
G02*
X23703109Y-17018259I-76200J0D01*
G01*
X23703109Y-17018259D02*
G75*
G02*
X23855509Y-17018259I76200J0D01*
G01*
X23862047Y-14782800D02*
X24014447Y-14935200D01*
X24014447Y-14782800D02*
X23862047Y-14935200D01*
X24014447Y-14859000D02*
G75*
G02*
X23862047Y-14859000I-76200J0D01*
G01*
X23862047Y-14859000D02*
G75*
G02*
X24014447Y-14859000I76200J0D01*
G01*
X24180800Y-13131800D02*
X24333200Y-13284200D01*
X24333200Y-13131800D02*
X24180800Y-13284200D01*
X24333200Y-13208000D02*
G75*
G02*
X24180800Y-13208000I-76200J0D01*
G01*
X24180800Y-13208000D02*
G75*
G02*
X24333200Y-13208000I76200J0D01*
G01*
X24338109Y-16688059D02*
X24490509Y-16840459D01*
X24490509Y-16688059D02*
X24338109Y-16840459D01*
X24490509Y-16764259D02*
G75*
G02*
X24338109Y-16764259I-76200J0D01*
G01*
X24338109Y-16764259D02*
G75*
G02*
X24490509Y-16764259I76200J0D01*
G01*
X24655924Y-18847145D02*
X24808324Y-18999545D01*
X24808324Y-18847145D02*
X24655924Y-18999545D01*
X24808324Y-18923345D02*
G75*
G02*
X24655924Y-18923345I-76200J0D01*
G01*
X24655924Y-18923345D02*
G75*
G02*
X24808324Y-18923345I76200J0D01*
G01*
X24815800Y-12877800D02*
X24968200Y-13030200D01*
X24968200Y-12877800D02*
X24815800Y-13030200D01*
X24968200Y-12954000D02*
G75*
G02*
X24815800Y-12954000I-76200J0D01*
G01*
X24815800Y-12954000D02*
G75*
G02*
X24968200Y-12954000I76200J0D01*
G01*
X25132047Y-15036800D02*
X25284447Y-15189200D01*
X25284447Y-15036800D02*
X25132047Y-15189200D01*
X25284447Y-15113000D02*
G75*
G02*
X25132047Y-15113000I-76200J0D01*
G01*
X25132047Y-15113000D02*
G75*
G02*
X25284447Y-15113000I76200J0D01*
G01*
X25290924Y-18593145D02*
X25443324Y-18745545D01*
X25443324Y-18593145D02*
X25290924Y-18745545D01*
X25443324Y-18669345D02*
G75*
G02*
X25290924Y-18669345I-76200J0D01*
G01*
X25290924Y-18669345D02*
G75*
G02*
X25443324Y-18669345I76200J0D01*
G01*
X25371329Y-20752045D02*
X25523729Y-20904445D01*
X25523729Y-20752045D02*
X25371329Y-20904445D01*
X25523729Y-20828245D02*
G75*
G02*
X25371329Y-20828245I-76200J0D01*
G01*
X25371329Y-20828245D02*
G75*
G02*
X25523729Y-20828245I76200J0D01*
G01*
X25608109Y-16942059D02*
X25760509Y-17094459D01*
X25760509Y-16942059D02*
X25608109Y-17094459D01*
X25760509Y-17018259D02*
G75*
G02*
X25608109Y-17018259I-76200J0D01*
G01*
X25608109Y-17018259D02*
G75*
G02*
X25760509Y-17018259I76200J0D01*
G01*
X25767047Y-14782800D02*
X25919447Y-14935200D01*
X25919447Y-14782800D02*
X25767047Y-14935200D01*
X25919447Y-14859000D02*
G75*
G02*
X25767047Y-14859000I-76200J0D01*
G01*
X25767047Y-14859000D02*
G75*
G02*
X25919447Y-14859000I76200J0D01*
G01*
X26006329Y-20498045D02*
X26158729Y-20650445D01*
X26158729Y-20498045D02*
X26006329Y-20650445D01*
X26158729Y-20574245D02*
G75*
G02*
X26006329Y-20574245I-76200J0D01*
G01*
X26006329Y-20574245D02*
G75*
G02*
X26158729Y-20574245I76200J0D01*
G01*
X26085800Y-13131800D02*
X26238200Y-13284200D01*
X26238200Y-13131800D02*
X26085800Y-13284200D01*
X26238200Y-13208000D02*
G75*
G02*
X26085800Y-13208000I-76200J0D01*
G01*
X26085800Y-13208000D02*
G75*
G02*
X26238200Y-13208000I76200J0D01*
G01*
X26243109Y-16688059D02*
X26395509Y-16840459D01*
X26395509Y-16688059D02*
X26243109Y-16840459D01*
X26395509Y-16764259D02*
G75*
G02*
X26243109Y-16764259I-76200J0D01*
G01*
X26243109Y-16764259D02*
G75*
G02*
X26395509Y-16764259I76200J0D01*
G01*
X26560924Y-18847145D02*
X26713324Y-18999545D01*
X26713324Y-18847145D02*
X26560924Y-18999545D01*
X26713324Y-18923345D02*
G75*
G02*
X26560924Y-18923345I-76200J0D01*
G01*
X26560924Y-18923345D02*
G75*
G02*
X26713324Y-18923345I76200J0D01*
G01*
X26720800Y-12877800D02*
X26873200Y-13030200D01*
X26873200Y-12877800D02*
X26720800Y-13030200D01*
X26873200Y-12954000D02*
G75*
G02*
X26720800Y-12954000I-76200J0D01*
G01*
X26720800Y-12954000D02*
G75*
G02*
X26873200Y-12954000I76200J0D01*
G01*
X27037047Y-15036800D02*
X27189447Y-15189200D01*
X27189447Y-15036800D02*
X27037047Y-15189200D01*
X27189447Y-15113000D02*
G75*
G02*
X27037047Y-15113000I-76200J0D01*
G01*
X27037047Y-15113000D02*
G75*
G02*
X27189447Y-15113000I76200J0D01*
G01*
X27195924Y-18593145D02*
X27348324Y-18745545D01*
X27348324Y-18593145D02*
X27195924Y-18745545D01*
X27348324Y-18669345D02*
G75*
G02*
X27195924Y-18669345I-76200J0D01*
G01*
X27195924Y-18669345D02*
G75*
G02*
X27348324Y-18669345I76200J0D01*
G01*
X27513109Y-16942059D02*
X27665509Y-17094459D01*
X27665509Y-16942059D02*
X27513109Y-17094459D01*
X27665509Y-17018259D02*
G75*
G02*
X27513109Y-17018259I-76200J0D01*
G01*
X27513109Y-17018259D02*
G75*
G02*
X27665509Y-17018259I76200J0D01*
G01*
X27672047Y-14782800D02*
X27824447Y-14935200D01*
X27824447Y-14782800D02*
X27672047Y-14935200D01*
X27824447Y-14859000D02*
G75*
G02*
X27672047Y-14859000I-76200J0D01*
G01*
X27672047Y-14859000D02*
G75*
G02*
X27824447Y-14859000I76200J0D01*
G01*
X27990800Y-13131800D02*
X28143200Y-13284200D01*
X28143200Y-13131800D02*
X27990800Y-13284200D01*
X28143200Y-13208000D02*
G75*
G02*
X27990800Y-13208000I-76200J0D01*
G01*
X27990800Y-13208000D02*
G75*
G02*
X28143200Y-13208000I76200J0D01*
G01*
X28148109Y-16688059D02*
X28300509Y-16840459D01*
X28300509Y-16688059D02*
X28148109Y-16840459D01*
X28300509Y-16764259D02*
G75*
G02*
X28148109Y-16764259I-76200J0D01*
G01*
X28148109Y-16764259D02*
G75*
G02*
X28300509Y-16764259I76200J0D01*
G01*
X28465924Y-18847145D02*
X28618324Y-18999545D01*
X28618324Y-18847145D02*
X28465924Y-18999545D01*
X28618324Y-18923345D02*
G75*
G02*
X28465924Y-18923345I-76200J0D01*
G01*
X28465924Y-18923345D02*
G75*
G02*
X28618324Y-18923345I76200J0D01*
G01*
X28625800Y-12877800D02*
X28778200Y-13030200D01*
X28778200Y-12877800D02*
X28625800Y-13030200D01*
X28778200Y-12954000D02*
G75*
G02*
X28625800Y-12954000I-76200J0D01*
G01*
X28625800Y-12954000D02*
G75*
G02*
X28778200Y-12954000I76200J0D01*
G01*
X28704631Y-20752045D02*
X28857031Y-20904445D01*
X28857031Y-20752045D02*
X28704631Y-20904445D01*
X28857031Y-20828245D02*
G75*
G02*
X28704631Y-20828245I-76200J0D01*
G01*
X28704631Y-20828245D02*
G75*
G02*
X28857031Y-20828245I76200J0D01*
G01*
X28942047Y-15036800D02*
X29094447Y-15189200D01*
X29094447Y-15036800D02*
X28942047Y-15189200D01*
X29094447Y-15113000D02*
G75*
G02*
X28942047Y-15113000I-76200J0D01*
G01*
X28942047Y-15113000D02*
G75*
G02*
X29094447Y-15113000I76200J0D01*
G01*
X29100924Y-18593145D02*
X29253324Y-18745545D01*
X29253324Y-18593145D02*
X29100924Y-18745545D01*
X29253324Y-18669345D02*
G75*
G02*
X29100924Y-18669345I-76200J0D01*
G01*
X29100924Y-18669345D02*
G75*
G02*
X29253324Y-18669345I76200J0D01*
G01*
X29339631Y-20498045D02*
X29492031Y-20650445D01*
X29492031Y-20498045D02*
X29339631Y-20650445D01*
X29492031Y-20574245D02*
G75*
G02*
X29339631Y-20574245I-76200J0D01*
G01*
X29339631Y-20574245D02*
G75*
G02*
X29492031Y-20574245I76200J0D01*
G01*
X29418109Y-16942059D02*
X29570509Y-17094459D01*
X29570509Y-16942059D02*
X29418109Y-17094459D01*
X29570509Y-17018259D02*
G75*
G02*
X29418109Y-17018259I-76200J0D01*
G01*
X29418109Y-17018259D02*
G75*
G02*
X29570509Y-17018259I76200J0D01*
G01*
X29577047Y-14782800D02*
X29729447Y-14935200D01*
X29729447Y-14782800D02*
X29577047Y-14935200D01*
X29729447Y-14859000D02*
G75*
G02*
X29577047Y-14859000I-76200J0D01*
G01*
X29577047Y-14859000D02*
G75*
G02*
X29729447Y-14859000I76200J0D01*
G01*
X29895800Y-13131800D02*
X30048200Y-13284200D01*
X30048200Y-13131800D02*
X29895800Y-13284200D01*
X30048200Y-13208000D02*
G75*
G02*
X29895800Y-13208000I-76200J0D01*
G01*
X29895800Y-13208000D02*
G75*
G02*
X30048200Y-13208000I76200J0D01*
G01*
X30053109Y-16688059D02*
X30205509Y-16840459D01*
X30205509Y-16688059D02*
X30053109Y-16840459D01*
X30205509Y-16764259D02*
G75*
G02*
X30053109Y-16764259I-76200J0D01*
G01*
X30053109Y-16764259D02*
G75*
G02*
X30205509Y-16764259I76200J0D01*
G01*
X30370924Y-18847145D02*
X30523324Y-18999545D01*
X30523324Y-18847145D02*
X30370924Y-18999545D01*
X30523324Y-18923345D02*
G75*
G02*
X30370924Y-18923345I-76200J0D01*
G01*
X30370924Y-18923345D02*
G75*
G02*
X30523324Y-18923345I76200J0D01*
G01*
X30530800Y-12877800D02*
X30683200Y-13030200D01*
X30683200Y-12877800D02*
X30530800Y-13030200D01*
X30683200Y-12954000D02*
G75*
G02*
X30530800Y-12954000I-76200J0D01*
G01*
X30530800Y-12954000D02*
G75*
G02*
X30683200Y-12954000I76200J0D01*
G01*
X30847047Y-15036800D02*
X30999447Y-15189200D01*
X30999447Y-15036800D02*
X30847047Y-15189200D01*
X30999447Y-15113000D02*
G75*
G02*
X30847047Y-15113000I-76200J0D01*
G01*
X30847047Y-15113000D02*
G75*
G02*
X30999447Y-15113000I76200J0D01*
G01*
X31005924Y-18593145D02*
X31158324Y-18745545D01*
X31158324Y-18593145D02*
X31005924Y-18745545D01*
X31158324Y-18669345D02*
G75*
G02*
X31005924Y-18669345I-76200J0D01*
G01*
X31005924Y-18669345D02*
G75*
G02*
X31158324Y-18669345I76200J0D01*
G01*
X31323109Y-16942059D02*
X31475509Y-17094459D01*
X31475509Y-16942059D02*
X31323109Y-17094459D01*
X31475509Y-17018259D02*
G75*
G02*
X31323109Y-17018259I-76200J0D01*
G01*
X31323109Y-17018259D02*
G75*
G02*
X31475509Y-17018259I76200J0D01*
G01*
X31482047Y-14782800D02*
X31634447Y-14935200D01*
X31634447Y-14782800D02*
X31482047Y-14935200D01*
X31634447Y-14859000D02*
G75*
G02*
X31482047Y-14859000I-76200J0D01*
G01*
X31482047Y-14859000D02*
G75*
G02*
X31634447Y-14859000I76200J0D01*
G01*
X31800800Y-13131800D02*
X31953200Y-13284200D01*
X31953200Y-13131800D02*
X31800800Y-13284200D01*
X31953200Y-13208000D02*
G75*
G02*
X31800800Y-13208000I-76200J0D01*
G01*
X31800800Y-13208000D02*
G75*
G02*
X31953200Y-13208000I76200J0D01*
G01*
X31958109Y-16688059D02*
X32110509Y-16840459D01*
X32110509Y-16688059D02*
X31958109Y-16840459D01*
X32110509Y-16764259D02*
G75*
G02*
X31958109Y-16764259I-76200J0D01*
G01*
X31958109Y-16764259D02*
G75*
G02*
X32110509Y-16764259I76200J0D01*
G01*
X32275924Y-18847145D02*
X32428324Y-18999545D01*
X32428324Y-18847145D02*
X32275924Y-18999545D01*
X32428324Y-18923345D02*
G75*
G02*
X32275924Y-18923345I-76200J0D01*
G01*
X32275924Y-18923345D02*
G75*
G02*
X32428324Y-18923345I76200J0D01*
G01*
X32435800Y-12877800D02*
X32588200Y-13030200D01*
X32588200Y-12877800D02*
X32435800Y-13030200D01*
X32588200Y-12954000D02*
G75*
G02*
X32435800Y-12954000I-76200J0D01*
G01*
X32435800Y-12954000D02*
G75*
G02*
X32588200Y-12954000I76200J0D01*
G01*
X32514631Y-20752045D02*
X32667031Y-20904445D01*
X32667031Y-20752045D02*
X32514631Y-20904445D01*
X32667031Y-20828245D02*
G75*
G02*
X32514631Y-20828245I-76200J0D01*
G01*
X32514631Y-20828245D02*
G75*
G02*
X32667031Y-20828245I76200J0D01*
G01*
X32752047Y-15036800D02*
X32904447Y-15189200D01*
X32904447Y-15036800D02*
X32752047Y-15189200D01*
X32904447Y-15113000D02*
G75*
G02*
X32752047Y-15113000I-76200J0D01*
G01*
X32752047Y-15113000D02*
G75*
G02*
X32904447Y-15113000I76200J0D01*
G01*
X32910924Y-18593145D02*
X33063324Y-18745545D01*
X33063324Y-18593145D02*
X32910924Y-18745545D01*
X33063324Y-18669345D02*
G75*
G02*
X32910924Y-18669345I-76200J0D01*
G01*
X32910924Y-18669345D02*
G75*
G02*
X33063324Y-18669345I76200J0D01*
G01*
X33149631Y-20498045D02*
X33302031Y-20650445D01*
X33302031Y-20498045D02*
X33149631Y-20650445D01*
X33302031Y-20574245D02*
G75*
G02*
X33149631Y-20574245I-76200J0D01*
G01*
X33149631Y-20574245D02*
G75*
G02*
X33302031Y-20574245I76200J0D01*
G01*
X33228109Y-16942059D02*
X33380509Y-17094459D01*
X33380509Y-16942059D02*
X33228109Y-17094459D01*
X33380509Y-17018259D02*
G75*
G02*
X33228109Y-17018259I-76200J0D01*
G01*
X33228109Y-17018259D02*
G75*
G02*
X33380509Y-17018259I76200J0D01*
G01*
X33387047Y-14782800D02*
X33539447Y-14935200D01*
X33539447Y-14782800D02*
X33387047Y-14935200D01*
X33539447Y-14859000D02*
G75*
G02*
X33387047Y-14859000I-76200J0D01*
G01*
X33387047Y-14859000D02*
G75*
G02*
X33539447Y-14859000I76200J0D01*
G01*
X33705800Y-13131800D02*
X33858200Y-13284200D01*
X33858200Y-13131800D02*
X33705800Y-13284200D01*
X33858200Y-13208000D02*
G75*
G02*
X33705800Y-13208000I-76200J0D01*
G01*
X33705800Y-13208000D02*
G75*
G02*
X33858200Y-13208000I76200J0D01*
G01*
X33863109Y-16688059D02*
X34015509Y-16840459D01*
X34015509Y-16688059D02*
X33863109Y-16840459D01*
X34015509Y-16764259D02*
G75*
G02*
X33863109Y-16764259I-76200J0D01*
G01*
X33863109Y-16764259D02*
G75*
G02*
X34015509Y-16764259I76200J0D01*
G01*
X34180924Y-18847145D02*
X34333324Y-18999545D01*
X34333324Y-18847145D02*
X34180924Y-18999545D01*
X34333324Y-18923345D02*
G75*
G02*
X34180924Y-18923345I-76200J0D01*
G01*
X34180924Y-18923345D02*
G75*
G02*
X34333324Y-18923345I76200J0D01*
G01*
X34340800Y-12877800D02*
X34493200Y-13030200D01*
X34493200Y-12877800D02*
X34340800Y-13030200D01*
X34493200Y-12954000D02*
G75*
G02*
X34340800Y-12954000I-76200J0D01*
G01*
X34340800Y-12954000D02*
G75*
G02*
X34493200Y-12954000I76200J0D01*
G01*
X34657047Y-15036800D02*
X34809447Y-15189200D01*
X34809447Y-15036800D02*
X34657047Y-15189200D01*
X34809447Y-15113000D02*
G75*
G02*
X34657047Y-15113000I-76200J0D01*
G01*
X34657047Y-15113000D02*
G75*
G02*
X34809447Y-15113000I76200J0D01*
G01*
X34815924Y-18593145D02*
X34968324Y-18745545D01*
X34968324Y-18593145D02*
X34815924Y-18745545D01*
X34968324Y-18669345D02*
G75*
G02*
X34815924Y-18669345I-76200J0D01*
G01*
X34815924Y-18669345D02*
G75*
G02*
X34968324Y-18669345I76200J0D01*
G01*
X35133109Y-16942059D02*
X35285509Y-17094459D01*
X35285509Y-16942059D02*
X35133109Y-17094459D01*
X35285509Y-17018259D02*
G75*
G02*
X35133109Y-17018259I-76200J0D01*
G01*
X35133109Y-17018259D02*
G75*
G02*
X35285509Y-17018259I76200J0D01*
G01*
X35292047Y-14782800D02*
X35444447Y-14935200D01*
X35444447Y-14782800D02*
X35292047Y-14935200D01*
X35444447Y-14859000D02*
G75*
G02*
X35292047Y-14859000I-76200J0D01*
G01*
X35292047Y-14859000D02*
G75*
G02*
X35444447Y-14859000I76200J0D01*
G01*
X35610800Y-13131800D02*
X35763200Y-13284200D01*
X35763200Y-13131800D02*
X35610800Y-13284200D01*
X35763200Y-13208000D02*
G75*
G02*
X35610800Y-13208000I-76200J0D01*
G01*
X35610800Y-13208000D02*
G75*
G02*
X35763200Y-13208000I76200J0D01*
G01*
X35768109Y-16688059D02*
X35920509Y-16840459D01*
X35920509Y-16688059D02*
X35768109Y-16840459D01*
X35920509Y-16764259D02*
G75*
G02*
X35768109Y-16764259I-76200J0D01*
G01*
X35768109Y-16764259D02*
G75*
G02*
X35920509Y-16764259I76200J0D01*
G01*
X36085924Y-18847145D02*
X36238324Y-18999545D01*
X36238324Y-18847145D02*
X36085924Y-18999545D01*
X36238324Y-18923345D02*
G75*
G02*
X36085924Y-18923345I-76200J0D01*
G01*
X36085924Y-18923345D02*
G75*
G02*
X36238324Y-18923345I76200J0D01*
G01*
X36245800Y-12877800D02*
X36398200Y-13030200D01*
X36398200Y-12877800D02*
X36245800Y-13030200D01*
X36398200Y-12954000D02*
G75*
G02*
X36245800Y-12954000I-76200J0D01*
G01*
X36245800Y-12954000D02*
G75*
G02*
X36398200Y-12954000I76200J0D01*
G01*
X36324631Y-20752045D02*
X36477031Y-20904445D01*
X36477031Y-20752045D02*
X36324631Y-20904445D01*
X36477031Y-20828245D02*
G75*
G02*
X36324631Y-20828245I-76200J0D01*
G01*
X36324631Y-20828245D02*
G75*
G02*
X36477031Y-20828245I76200J0D01*
G01*
X36562047Y-15036800D02*
X36714447Y-15189200D01*
X36714447Y-15036800D02*
X36562047Y-15189200D01*
X36714447Y-15113000D02*
G75*
G02*
X36562047Y-15113000I-76200J0D01*
G01*
X36562047Y-15113000D02*
G75*
G02*
X36714447Y-15113000I76200J0D01*
G01*
X36720924Y-18593145D02*
X36873324Y-18745545D01*
X36873324Y-18593145D02*
X36720924Y-18745545D01*
X36873324Y-18669345D02*
G75*
G02*
X36720924Y-18669345I-76200J0D01*
G01*
X36720924Y-18669345D02*
G75*
G02*
X36873324Y-18669345I76200J0D01*
G01*
X36959631Y-20498045D02*
X37112031Y-20650445D01*
X37112031Y-20498045D02*
X36959631Y-20650445D01*
X37112031Y-20574245D02*
G75*
G02*
X36959631Y-20574245I-76200J0D01*
G01*
X36959631Y-20574245D02*
G75*
G02*
X37112031Y-20574245I76200J0D01*
G01*
X37038109Y-16942059D02*
X37190509Y-17094459D01*
X37190509Y-16942059D02*
X37038109Y-17094459D01*
X37190509Y-17018259D02*
G75*
G02*
X37038109Y-17018259I-76200J0D01*
G01*
X37038109Y-17018259D02*
G75*
G02*
X37190509Y-17018259I76200J0D01*
G01*
X37197047Y-14782800D02*
X37349447Y-14935200D01*
X37349447Y-14782800D02*
X37197047Y-14935200D01*
X37349447Y-14859000D02*
G75*
G02*
X37197047Y-14859000I-76200J0D01*
G01*
X37197047Y-14859000D02*
G75*
G02*
X37349447Y-14859000I76200J0D01*
G01*
X37515800Y-13131800D02*
X37668200Y-13284200D01*
X37668200Y-13131800D02*
X37515800Y-13284200D01*
X37668200Y-13208000D02*
G75*
G02*
X37515800Y-13208000I-76200J0D01*
G01*
X37515800Y-13208000D02*
G75*
G02*
X37668200Y-13208000I76200J0D01*
G01*
X37673109Y-16688059D02*
X37825509Y-16840459D01*
X37825509Y-16688059D02*
X37673109Y-16840459D01*
X37825509Y-16764259D02*
G75*
G02*
X37673109Y-16764259I-76200J0D01*
G01*
X37673109Y-16764259D02*
G75*
G02*
X37825509Y-16764259I76200J0D01*
G01*
X37990924Y-18847145D02*
X38143324Y-18999545D01*
X38143324Y-18847145D02*
X37990924Y-18999545D01*
X38143324Y-18923345D02*
G75*
G02*
X37990924Y-18923345I-76200J0D01*
G01*
X37990924Y-18923345D02*
G75*
G02*
X38143324Y-18923345I76200J0D01*
G01*
X38150800Y-12877800D02*
X38303200Y-13030200D01*
X38303200Y-12877800D02*
X38150800Y-13030200D01*
X38303200Y-12954000D02*
G75*
G02*
X38150800Y-12954000I-76200J0D01*
G01*
X38150800Y-12954000D02*
G75*
G02*
X38303200Y-12954000I76200J0D01*
G01*
X38467047Y-15036800D02*
X38619447Y-15189200D01*
X38619447Y-15036800D02*
X38467047Y-15189200D01*
X38619447Y-15113000D02*
G75*
G02*
X38467047Y-15113000I-76200J0D01*
G01*
X38467047Y-15113000D02*
G75*
G02*
X38619447Y-15113000I76200J0D01*
G01*
X38625924Y-18593145D02*
X38778324Y-18745545D01*
X38778324Y-18593145D02*
X38625924Y-18745545D01*
X38778324Y-18669345D02*
G75*
G02*
X38625924Y-18669345I-76200J0D01*
G01*
X38625924Y-18669345D02*
G75*
G02*
X38778324Y-18669345I76200J0D01*
G01*
X38943109Y-16942059D02*
X39095509Y-17094459D01*
X39095509Y-16942059D02*
X38943109Y-17094459D01*
X39095509Y-17018259D02*
G75*
G02*
X38943109Y-17018259I-76200J0D01*
G01*
X38943109Y-17018259D02*
G75*
G02*
X39095509Y-17018259I76200J0D01*
G01*
X39102047Y-14782800D02*
X39254447Y-14935200D01*
X39254447Y-14782800D02*
X39102047Y-14935200D01*
X39254447Y-14859000D02*
G75*
G02*
X39102047Y-14859000I-76200J0D01*
G01*
X39102047Y-14859000D02*
G75*
G02*
X39254447Y-14859000I76200J0D01*
G01*
X39420800Y-13131800D02*
X39573200Y-13284200D01*
X39573200Y-13131800D02*
X39420800Y-13284200D01*
X39573200Y-13208000D02*
G75*
G02*
X39420800Y-13208000I-76200J0D01*
G01*
X39420800Y-13208000D02*
G75*
G02*
X39573200Y-13208000I76200J0D01*
G01*
X39420800Y-20752390D02*
X39573200Y-20904790D01*
X39573200Y-20752390D02*
X39420800Y-20904790D01*
X39573200Y-20828590D02*
G75*
G02*
X39420800Y-20828590I-76200J0D01*
G01*
X39420800Y-20828590D02*
G75*
G02*
X39573200Y-20828590I76200J0D01*
G01*
X39578109Y-16688059D02*
X39730509Y-16840459D01*
X39730509Y-16688059D02*
X39578109Y-16840459D01*
X39730509Y-16764259D02*
G75*
G02*
X39578109Y-16764259I-76200J0D01*
G01*
X39578109Y-16764259D02*
G75*
G02*
X39730509Y-16764259I76200J0D01*
G01*
X39895924Y-18847145D02*
X40048324Y-18999545D01*
X40048324Y-18847145D02*
X39895924Y-18999545D01*
X40048324Y-18923345D02*
G75*
G02*
X39895924Y-18923345I-76200J0D01*
G01*
X39895924Y-18923345D02*
G75*
G02*
X40048324Y-18923345I76200J0D01*
G01*
X40055800Y-12877800D02*
X40208200Y-13030200D01*
X40208200Y-12877800D02*
X40055800Y-13030200D01*
X40208200Y-12954000D02*
G75*
G02*
X40055800Y-12954000I-76200J0D01*
G01*
X40055800Y-12954000D02*
G75*
G02*
X40208200Y-12954000I76200J0D01*
G01*
X40055800Y-20498390D02*
X40208200Y-20650790D01*
X40208200Y-20498390D02*
X40055800Y-20650790D01*
X40208200Y-20574590D02*
G75*
G02*
X40055800Y-20574590I-76200J0D01*
G01*
X40055800Y-20574590D02*
G75*
G02*
X40208200Y-20574590I76200J0D01*
G01*
X40372047Y-15036800D02*
X40524447Y-15189200D01*
X40524447Y-15036800D02*
X40372047Y-15189200D01*
X40524447Y-15113000D02*
G75*
G02*
X40372047Y-15113000I-76200J0D01*
G01*
X40372047Y-15113000D02*
G75*
G02*
X40524447Y-15113000I76200J0D01*
G01*
X40530924Y-18593145D02*
X40683324Y-18745545D01*
X40683324Y-18593145D02*
X40530924Y-18745545D01*
X40683324Y-18669345D02*
G75*
G02*
X40530924Y-18669345I-76200J0D01*
G01*
X40530924Y-18669345D02*
G75*
G02*
X40683324Y-18669345I76200J0D01*
G01*
X40848109Y-16942059D02*
X41000509Y-17094459D01*
X41000509Y-16942059D02*
X40848109Y-17094459D01*
X41000509Y-17018259D02*
G75*
G02*
X40848109Y-17018259I-76200J0D01*
G01*
X40848109Y-17018259D02*
G75*
G02*
X41000509Y-17018259I76200J0D01*
G01*
X41007047Y-14782800D02*
X41159447Y-14935200D01*
X41159447Y-14782800D02*
X41007047Y-14935200D01*
X41159447Y-14859000D02*
G75*
G02*
X41007047Y-14859000I-76200J0D01*
G01*
X41007047Y-14859000D02*
G75*
G02*
X41159447Y-14859000I76200J0D01*
G01*
X41325800Y-13131800D02*
X41478200Y-13284200D01*
X41478200Y-13131800D02*
X41325800Y-13284200D01*
X41478200Y-13208000D02*
G75*
G02*
X41325800Y-13208000I-76200J0D01*
G01*
X41325800Y-13208000D02*
G75*
G02*
X41478200Y-13208000I76200J0D01*
G01*
X41325800Y-20752390D02*
X41478200Y-20904790D01*
X41478200Y-20752390D02*
X41325800Y-20904790D01*
X41478200Y-20828590D02*
G75*
G02*
X41325800Y-20828590I-76200J0D01*
G01*
X41325800Y-20828590D02*
G75*
G02*
X41478200Y-20828590I76200J0D01*
G01*
X41483109Y-16688059D02*
X41635509Y-16840459D01*
X41635509Y-16688059D02*
X41483109Y-16840459D01*
X41635509Y-16764259D02*
G75*
G02*
X41483109Y-16764259I-76200J0D01*
G01*
X41483109Y-16764259D02*
G75*
G02*
X41635509Y-16764259I76200J0D01*
G01*
X41960800Y-12877800D02*
X42113200Y-13030200D01*
X42113200Y-12877800D02*
X41960800Y-13030200D01*
X42113200Y-12954000D02*
G75*
G02*
X41960800Y-12954000I-76200J0D01*
G01*
X41960800Y-12954000D02*
G75*
G02*
X42113200Y-12954000I76200J0D01*
G01*
X41960800Y-20498390D02*
X42113200Y-20650790D01*
X42113200Y-20498390D02*
X41960800Y-20650790D01*
X42113200Y-20574590D02*
G75*
G02*
X41960800Y-20574590I-76200J0D01*
G01*
X41960800Y-20574590D02*
G75*
G02*
X42113200Y-20574590I76200J0D01*
G01*
X42277047Y-15036800D02*
X42429447Y-15189200D01*
X42429447Y-15036800D02*
X42277047Y-15189200D01*
X42429447Y-15113000D02*
G75*
G02*
X42277047Y-15113000I-76200J0D01*
G01*
X42277047Y-15113000D02*
G75*
G02*
X42429447Y-15113000I76200J0D01*
G01*
X42514806Y-18847317D02*
X42667206Y-18999717D01*
X42667206Y-18847317D02*
X42514806Y-18999717D01*
X42667206Y-18923517D02*
G75*
G02*
X42514806Y-18923517I-76200J0D01*
G01*
X42514806Y-18923517D02*
G75*
G02*
X42667206Y-18923517I76200J0D01*
G01*
X42753109Y-16942059D02*
X42905509Y-17094459D01*
X42905509Y-16942059D02*
X42753109Y-17094459D01*
X42905509Y-17018259D02*
G75*
G02*
X42753109Y-17018259I-76200J0D01*
G01*
X42753109Y-17018259D02*
G75*
G02*
X42905509Y-17018259I76200J0D01*
G01*
X42912047Y-14782800D02*
X43064447Y-14935200D01*
X43064447Y-14782800D02*
X42912047Y-14935200D01*
X43064447Y-14859000D02*
G75*
G02*
X42912047Y-14859000I-76200J0D01*
G01*
X42912047Y-14859000D02*
G75*
G02*
X43064447Y-14859000I76200J0D01*
G01*
X43149806Y-18593317D02*
X43302206Y-18745717D01*
X43302206Y-18593317D02*
X43149806Y-18745717D01*
X43302206Y-18669517D02*
G75*
G02*
X43149806Y-18669517I-76200J0D01*
G01*
X43149806Y-18669517D02*
G75*
G02*
X43302206Y-18669517I76200J0D01*
G01*
X43230800Y-13131800D02*
X43383200Y-13284200D01*
X43383200Y-13131800D02*
X43230800Y-13284200D01*
X43383200Y-13208000D02*
G75*
G02*
X43230800Y-13208000I-76200J0D01*
G01*
X43230800Y-13208000D02*
G75*
G02*
X43383200Y-13208000I76200J0D01*
G01*
X43230800Y-20752390D02*
X43383200Y-20904790D01*
X43383200Y-20752390D02*
X43230800Y-20904790D01*
X43383200Y-20828590D02*
G75*
G02*
X43230800Y-20828590I-76200J0D01*
G01*
X43230800Y-20828590D02*
G75*
G02*
X43383200Y-20828590I76200J0D01*
G01*
X43388109Y-16688059D02*
X43540509Y-16840459D01*
X43540509Y-16688059D02*
X43388109Y-16840459D01*
X43540509Y-16764259D02*
G75*
G02*
X43388109Y-16764259I-76200J0D01*
G01*
X43388109Y-16764259D02*
G75*
G02*
X43540509Y-16764259I76200J0D01*
G01*
X43865800Y-12877800D02*
X44018200Y-13030200D01*
X44018200Y-12877800D02*
X43865800Y-13030200D01*
X44018200Y-12954000D02*
G75*
G02*
X43865800Y-12954000I-76200J0D01*
G01*
X43865800Y-12954000D02*
G75*
G02*
X44018200Y-12954000I76200J0D01*
G01*
X43865800Y-20498390D02*
X44018200Y-20650790D01*
X44018200Y-20498390D02*
X43865800Y-20650790D01*
X44018200Y-20574590D02*
G75*
G02*
X43865800Y-20574590I-76200J0D01*
G01*
X43865800Y-20574590D02*
G75*
G02*
X44018200Y-20574590I76200J0D01*
G01*
X44182047Y-15036800D02*
X44334447Y-15189200D01*
X44334447Y-15036800D02*
X44182047Y-15189200D01*
X44334447Y-15113000D02*
G75*
G02*
X44182047Y-15113000I-76200J0D01*
G01*
X44182047Y-15113000D02*
G75*
G02*
X44334447Y-15113000I76200J0D01*
G01*
X44817047Y-14782800D02*
X44969447Y-14935200D01*
X44969447Y-14782800D02*
X44817047Y-14935200D01*
X44969447Y-14859000D02*
G75*
G02*
X44817047Y-14859000I-76200J0D01*
G01*
X44817047Y-14859000D02*
G75*
G02*
X44969447Y-14859000I76200J0D01*
G01*
X45135800Y-18846800D02*
X45288200Y-18999200D01*
X45288200Y-18846800D02*
X45135800Y-18999200D01*
X45288200Y-18923000D02*
G75*
G02*
X45135800Y-18923000I-76200J0D01*
G01*
X45135800Y-18923000D02*
G75*
G02*
X45288200Y-18923000I76200J0D01*
G01*
X45135800Y-20752390D02*
X45288200Y-20904790D01*
X45288200Y-20752390D02*
X45135800Y-20904790D01*
X45288200Y-20828590D02*
G75*
G02*
X45135800Y-20828590I-76200J0D01*
G01*
X45135800Y-20828590D02*
G75*
G02*
X45288200Y-20828590I76200J0D01*
G01*
X45770800Y-18592800D02*
X45923200Y-18745200D01*
X45923200Y-18592800D02*
X45770800Y-18745200D01*
X45923200Y-18669000D02*
G75*
G02*
X45770800Y-18669000I-76200J0D01*
G01*
X45770800Y-18669000D02*
G75*
G02*
X45923200Y-18669000I76200J0D01*
G01*
X45770800Y-20498390D02*
X45923200Y-20650790D01*
X45923200Y-20498390D02*
X45770800Y-20650790D01*
X45923200Y-20574590D02*
G75*
G02*
X45770800Y-20574590I-76200J0D01*
G01*
X45770800Y-20574590D02*
G75*
G02*
X45923200Y-20574590I76200J0D01*
G01*
X45849369Y-16942059D02*
X46001769Y-17094459D01*
X46001769Y-16942059D02*
X45849369Y-17094459D01*
X46001769Y-17018259D02*
G75*
G02*
X45849369Y-17018259I-76200J0D01*
G01*
X45849369Y-17018259D02*
G75*
G02*
X46001769Y-17018259I76200J0D01*
G01*
X46088300Y-13131800D02*
X46240700Y-13284200D01*
X46240700Y-13131800D02*
X46088300Y-13284200D01*
X46240700Y-13208000D02*
G75*
G02*
X46088300Y-13208000I-76200J0D01*
G01*
X46088300Y-13208000D02*
G75*
G02*
X46240700Y-13208000I76200J0D01*
G01*
X46484369Y-16688059D02*
X46636769Y-16840459D01*
X46636769Y-16688059D02*
X46484369Y-16840459D01*
X46636769Y-16764259D02*
G75*
G02*
X46484369Y-16764259I-76200J0D01*
G01*
X46484369Y-16764259D02*
G75*
G02*
X46636769Y-16764259I76200J0D01*
G01*
X46564615Y-15037407D02*
X46717015Y-15189807D01*
X46717015Y-15037407D02*
X46564615Y-15189807D01*
X46717015Y-15113607D02*
G75*
G02*
X46564615Y-15113607I-76200J0D01*
G01*
X46564615Y-15113607D02*
G75*
G02*
X46717015Y-15113607I76200J0D01*
G01*
X46723300Y-12877800D02*
X46875700Y-13030200D01*
X46875700Y-12877800D02*
X46723300Y-13030200D01*
X46875700Y-12954000D02*
G75*
G02*
X46723300Y-12954000I-76200J0D01*
G01*
X46723300Y-12954000D02*
G75*
G02*
X46875700Y-12954000I76200J0D01*
G01*
X47040800Y-18846800D02*
X47193200Y-18999200D01*
X47193200Y-18846800D02*
X47040800Y-18999200D01*
X47193200Y-18923000D02*
G75*
G02*
X47040800Y-18923000I-76200J0D01*
G01*
X47040800Y-18923000D02*
G75*
G02*
X47193200Y-18923000I76200J0D01*
G01*
X47040800Y-20752390D02*
X47193200Y-20904790D01*
X47193200Y-20752390D02*
X47040800Y-20904790D01*
X47193200Y-20828590D02*
G75*
G02*
X47040800Y-20828590I-76200J0D01*
G01*
X47040800Y-20828590D02*
G75*
G02*
X47193200Y-20828590I76200J0D01*
G01*
X47199615Y-14783407D02*
X47352015Y-14935807D01*
X47352015Y-14783407D02*
X47199615Y-14935807D01*
X47352015Y-14859607D02*
G75*
G02*
X47199615Y-14859607I-76200J0D01*
G01*
X47199615Y-14859607D02*
G75*
G02*
X47352015Y-14859607I76200J0D01*
G01*
X47675800Y-18592800D02*
X47828200Y-18745200D01*
X47828200Y-18592800D02*
X47675800Y-18745200D01*
X47828200Y-18669000D02*
G75*
G02*
X47675800Y-18669000I-76200J0D01*
G01*
X47675800Y-18669000D02*
G75*
G02*
X47828200Y-18669000I76200J0D01*
G01*
X47675800Y-20498390D02*
X47828200Y-20650790D01*
X47828200Y-20498390D02*
X47675800Y-20650790D01*
X47828200Y-20574590D02*
G75*
G02*
X47675800Y-20574590I-76200J0D01*
G01*
X47675800Y-20574590D02*
G75*
G02*
X47828200Y-20574590I76200J0D01*
G01*
D11*
X16323777Y-22348484D02*
X16323777Y-22148484D01*
X16323777Y-22148484D02*
X16371396Y-22148484D01*
X16371396Y-22148484D02*
X16399967Y-22158008D01*
X16399967Y-22158008D02*
X16419015Y-22177055D01*
X16419015Y-22177055D02*
X16428539Y-22196103D01*
X16428539Y-22196103D02*
X16438062Y-22234198D01*
X16438062Y-22234198D02*
X16438062Y-22262770D01*
X16438062Y-22262770D02*
X16428539Y-22300865D01*
X16428539Y-22300865D02*
X16419015Y-22319913D01*
X16419015Y-22319913D02*
X16399967Y-22338960D01*
X16399967Y-22338960D02*
X16371396Y-22348484D01*
X16371396Y-22348484D02*
X16323777Y-22348484D01*
X16523777Y-22348484D02*
X16523777Y-22215151D01*
X16523777Y-22253246D02*
X16533300Y-22234198D01*
X16533300Y-22234198D02*
X16542824Y-22224674D01*
X16542824Y-22224674D02*
X16561872Y-22215151D01*
X16561872Y-22215151D02*
X16580920Y-22215151D01*
X16647586Y-22348484D02*
X16647586Y-22215151D01*
X16647586Y-22148484D02*
X16638062Y-22158008D01*
X16638062Y-22158008D02*
X16647586Y-22167532D01*
X16647586Y-22167532D02*
X16657110Y-22158008D01*
X16657110Y-22158008D02*
X16647586Y-22148484D01*
X16647586Y-22148484D02*
X16647586Y-22167532D01*
X16771396Y-22348484D02*
X16752348Y-22338960D01*
X16752348Y-22338960D02*
X16742824Y-22319913D01*
X16742824Y-22319913D02*
X16742824Y-22148484D01*
X16876158Y-22348484D02*
X16857110Y-22338960D01*
X16857110Y-22338960D02*
X16847586Y-22319913D01*
X16847586Y-22319913D02*
X16847586Y-22148484D01*
X17104729Y-22348484D02*
X17104729Y-22148484D01*
X17104729Y-22148484D02*
X17171396Y-22291341D01*
X17171396Y-22291341D02*
X17238062Y-22148484D01*
X17238062Y-22148484D02*
X17238062Y-22348484D01*
X17419015Y-22348484D02*
X17419015Y-22243722D01*
X17419015Y-22243722D02*
X17409491Y-22224674D01*
X17409491Y-22224674D02*
X17390443Y-22215151D01*
X17390443Y-22215151D02*
X17352348Y-22215151D01*
X17352348Y-22215151D02*
X17333301Y-22224674D01*
X17419015Y-22338960D02*
X17399967Y-22348484D01*
X17399967Y-22348484D02*
X17352348Y-22348484D01*
X17352348Y-22348484D02*
X17333301Y-22338960D01*
X17333301Y-22338960D02*
X17323777Y-22319913D01*
X17323777Y-22319913D02*
X17323777Y-22300865D01*
X17323777Y-22300865D02*
X17333301Y-22281817D01*
X17333301Y-22281817D02*
X17352348Y-22272294D01*
X17352348Y-22272294D02*
X17399967Y-22272294D01*
X17399967Y-22272294D02*
X17419015Y-22262770D01*
X17514253Y-22215151D02*
X17514253Y-22415151D01*
X17514253Y-22224674D02*
X17533301Y-22215151D01*
X17533301Y-22215151D02*
X17571396Y-22215151D01*
X17571396Y-22215151D02*
X17590443Y-22224674D01*
X17590443Y-22224674D02*
X17599967Y-22234198D01*
X17599967Y-22234198D02*
X17609491Y-22253246D01*
X17609491Y-22253246D02*
X17609491Y-22310389D01*
X17609491Y-22310389D02*
X17599967Y-22329436D01*
X17599967Y-22329436D02*
X17590443Y-22338960D01*
X17590443Y-22338960D02*
X17571396Y-22348484D01*
X17571396Y-22348484D02*
X17533301Y-22348484D01*
X17533301Y-22348484D02*
X17514253Y-22338960D01*
X17695205Y-22329436D02*
X17704729Y-22338960D01*
X17704729Y-22338960D02*
X17695205Y-22348484D01*
X17695205Y-22348484D02*
X17685682Y-22338960D01*
X17685682Y-22338960D02*
X17695205Y-22329436D01*
X17695205Y-22329436D02*
X17695205Y-22348484D01*
X17695205Y-22224674D02*
X17704729Y-22234198D01*
X17704729Y-22234198D02*
X17695205Y-22243722D01*
X17695205Y-22243722D02*
X17685682Y-22234198D01*
X17685682Y-22234198D02*
X17695205Y-22224674D01*
X17695205Y-22224674D02*
X17695205Y-22243722D01*
D12*
X16033000Y-22662000D02*
X16063000Y-22692000D01*
X16063000Y-22662000D02*
X16033000Y-22692000D01*
D11*
X16361872Y-22568484D02*
X16380920Y-22568484D01*
X16380920Y-22568484D02*
X16399967Y-22578008D01*
X16399967Y-22578008D02*
X16409491Y-22587532D01*
X16409491Y-22587532D02*
X16419015Y-22606579D01*
X16419015Y-22606579D02*
X16428539Y-22644674D01*
X16428539Y-22644674D02*
X16428539Y-22692293D01*
X16428539Y-22692293D02*
X16419015Y-22730389D01*
X16419015Y-22730389D02*
X16409491Y-22749436D01*
X16409491Y-22749436D02*
X16399967Y-22758960D01*
X16399967Y-22758960D02*
X16380920Y-22768484D01*
X16380920Y-22768484D02*
X16361872Y-22768484D01*
X16361872Y-22768484D02*
X16342824Y-22758960D01*
X16342824Y-22758960D02*
X16333300Y-22749436D01*
X16333300Y-22749436D02*
X16323777Y-22730389D01*
X16323777Y-22730389D02*
X16314253Y-22692293D01*
X16314253Y-22692293D02*
X16314253Y-22644674D01*
X16314253Y-22644674D02*
X16323777Y-22606579D01*
X16323777Y-22606579D02*
X16333300Y-22587532D01*
X16333300Y-22587532D02*
X16342824Y-22578008D01*
X16342824Y-22578008D02*
X16361872Y-22568484D01*
X16514253Y-22749436D02*
X16523777Y-22758960D01*
X16523777Y-22758960D02*
X16514253Y-22768484D01*
X16514253Y-22768484D02*
X16504729Y-22758960D01*
X16504729Y-22758960D02*
X16514253Y-22749436D01*
X16514253Y-22749436D02*
X16514253Y-22768484D01*
X16590443Y-22568484D02*
X16714253Y-22568484D01*
X16714253Y-22568484D02*
X16647586Y-22644674D01*
X16647586Y-22644674D02*
X16676158Y-22644674D01*
X16676158Y-22644674D02*
X16695205Y-22654198D01*
X16695205Y-22654198D02*
X16704729Y-22663722D01*
X16704729Y-22663722D02*
X16714253Y-22682770D01*
X16714253Y-22682770D02*
X16714253Y-22730389D01*
X16714253Y-22730389D02*
X16704729Y-22749436D01*
X16704729Y-22749436D02*
X16695205Y-22758960D01*
X16695205Y-22758960D02*
X16676158Y-22768484D01*
X16676158Y-22768484D02*
X16619015Y-22768484D01*
X16619015Y-22768484D02*
X16599967Y-22758960D01*
X16599967Y-22758960D02*
X16590443Y-22749436D01*
X16838062Y-22568484D02*
X16857110Y-22568484D01*
X16857110Y-22568484D02*
X16876158Y-22578008D01*
X16876158Y-22578008D02*
X16885682Y-22587532D01*
X16885682Y-22587532D02*
X16895205Y-22606579D01*
X16895205Y-22606579D02*
X16904729Y-22644674D01*
X16904729Y-22644674D02*
X16904729Y-22692293D01*
X16904729Y-22692293D02*
X16895205Y-22730389D01*
X16895205Y-22730389D02*
X16885682Y-22749436D01*
X16885682Y-22749436D02*
X16876158Y-22758960D01*
X16876158Y-22758960D02*
X16857110Y-22768484D01*
X16857110Y-22768484D02*
X16838062Y-22768484D01*
X16838062Y-22768484D02*
X16819015Y-22758960D01*
X16819015Y-22758960D02*
X16809491Y-22749436D01*
X16809491Y-22749436D02*
X16799967Y-22730389D01*
X16799967Y-22730389D02*
X16790443Y-22692293D01*
X16790443Y-22692293D02*
X16790443Y-22644674D01*
X16790443Y-22644674D02*
X16799967Y-22606579D01*
X16799967Y-22606579D02*
X16809491Y-22587532D01*
X16809491Y-22587532D02*
X16819015Y-22578008D01*
X16819015Y-22578008D02*
X16838062Y-22568484D01*
X17028539Y-22568484D02*
X17047586Y-22568484D01*
X17047586Y-22568484D02*
X17066634Y-22578008D01*
X17066634Y-22578008D02*
X17076158Y-22587532D01*
X17076158Y-22587532D02*
X17085682Y-22606579D01*
X17085682Y-22606579D02*
X17095205Y-22644674D01*
X17095205Y-22644674D02*
X17095205Y-22692293D01*
X17095205Y-22692293D02*
X17085682Y-22730389D01*
X17085682Y-22730389D02*
X17076158Y-22749436D01*
X17076158Y-22749436D02*
X17066634Y-22758960D01*
X17066634Y-22758960D02*
X17047586Y-22768484D01*
X17047586Y-22768484D02*
X17028539Y-22768484D01*
X17028539Y-22768484D02*
X17009491Y-22758960D01*
X17009491Y-22758960D02*
X16999967Y-22749436D01*
X16999967Y-22749436D02*
X16990443Y-22730389D01*
X16990443Y-22730389D02*
X16980920Y-22692293D01*
X16980920Y-22692293D02*
X16980920Y-22644674D01*
X16980920Y-22644674D02*
X16990443Y-22606579D01*
X16990443Y-22606579D02*
X16999967Y-22587532D01*
X16999967Y-22587532D02*
X17009491Y-22578008D01*
X17009491Y-22578008D02*
X17028539Y-22568484D01*
X17180920Y-22768484D02*
X17180920Y-22635151D01*
X17180920Y-22654198D02*
X17190443Y-22644674D01*
X17190443Y-22644674D02*
X17209491Y-22635151D01*
X17209491Y-22635151D02*
X17238063Y-22635151D01*
X17238063Y-22635151D02*
X17257110Y-22644674D01*
X17257110Y-22644674D02*
X17266634Y-22663722D01*
X17266634Y-22663722D02*
X17266634Y-22768484D01*
X17266634Y-22663722D02*
X17276158Y-22644674D01*
X17276158Y-22644674D02*
X17295205Y-22635151D01*
X17295205Y-22635151D02*
X17323777Y-22635151D01*
X17323777Y-22635151D02*
X17342824Y-22644674D01*
X17342824Y-22644674D02*
X17352348Y-22663722D01*
X17352348Y-22663722D02*
X17352348Y-22768484D01*
X17447586Y-22768484D02*
X17447586Y-22635151D01*
X17447586Y-22654198D02*
X17457110Y-22644674D01*
X17457110Y-22644674D02*
X17476158Y-22635151D01*
X17476158Y-22635151D02*
X17504729Y-22635151D01*
X17504729Y-22635151D02*
X17523777Y-22644674D01*
X17523777Y-22644674D02*
X17533301Y-22663722D01*
X17533301Y-22663722D02*
X17533301Y-22768484D01*
X17533301Y-22663722D02*
X17542824Y-22644674D01*
X17542824Y-22644674D02*
X17561872Y-22635151D01*
X17561872Y-22635151D02*
X17590443Y-22635151D01*
X17590443Y-22635151D02*
X17609491Y-22644674D01*
X17609491Y-22644674D02*
X17619015Y-22663722D01*
X17619015Y-22663722D02*
X17619015Y-22768484D01*
X18009491Y-22558960D02*
X17838063Y-22816103D01*
X18266634Y-22568484D02*
X18285682Y-22568484D01*
X18285682Y-22568484D02*
X18304729Y-22578008D01*
X18304729Y-22578008D02*
X18314253Y-22587532D01*
X18314253Y-22587532D02*
X18323777Y-22606579D01*
X18323777Y-22606579D02*
X18333301Y-22644674D01*
X18333301Y-22644674D02*
X18333301Y-22692293D01*
X18333301Y-22692293D02*
X18323777Y-22730389D01*
X18323777Y-22730389D02*
X18314253Y-22749436D01*
X18314253Y-22749436D02*
X18304729Y-22758960D01*
X18304729Y-22758960D02*
X18285682Y-22768484D01*
X18285682Y-22768484D02*
X18266634Y-22768484D01*
X18266634Y-22768484D02*
X18247586Y-22758960D01*
X18247586Y-22758960D02*
X18238063Y-22749436D01*
X18238063Y-22749436D02*
X18228539Y-22730389D01*
X18228539Y-22730389D02*
X18219015Y-22692293D01*
X18219015Y-22692293D02*
X18219015Y-22644674D01*
X18219015Y-22644674D02*
X18228539Y-22606579D01*
X18228539Y-22606579D02*
X18238063Y-22587532D01*
X18238063Y-22587532D02*
X18247586Y-22578008D01*
X18247586Y-22578008D02*
X18266634Y-22568484D01*
X18419015Y-22749436D02*
X18428539Y-22758960D01*
X18428539Y-22758960D02*
X18419015Y-22768484D01*
X18419015Y-22768484D02*
X18409491Y-22758960D01*
X18409491Y-22758960D02*
X18419015Y-22749436D01*
X18419015Y-22749436D02*
X18419015Y-22768484D01*
X18552348Y-22568484D02*
X18571396Y-22568484D01*
X18571396Y-22568484D02*
X18590444Y-22578008D01*
X18590444Y-22578008D02*
X18599967Y-22587532D01*
X18599967Y-22587532D02*
X18609491Y-22606579D01*
X18609491Y-22606579D02*
X18619015Y-22644674D01*
X18619015Y-22644674D02*
X18619015Y-22692293D01*
X18619015Y-22692293D02*
X18609491Y-22730389D01*
X18609491Y-22730389D02*
X18599967Y-22749436D01*
X18599967Y-22749436D02*
X18590444Y-22758960D01*
X18590444Y-22758960D02*
X18571396Y-22768484D01*
X18571396Y-22768484D02*
X18552348Y-22768484D01*
X18552348Y-22768484D02*
X18533301Y-22758960D01*
X18533301Y-22758960D02*
X18523777Y-22749436D01*
X18523777Y-22749436D02*
X18514253Y-22730389D01*
X18514253Y-22730389D02*
X18504729Y-22692293D01*
X18504729Y-22692293D02*
X18504729Y-22644674D01*
X18504729Y-22644674D02*
X18514253Y-22606579D01*
X18514253Y-22606579D02*
X18523777Y-22587532D01*
X18523777Y-22587532D02*
X18533301Y-22578008D01*
X18533301Y-22578008D02*
X18552348Y-22568484D01*
X18809491Y-22768484D02*
X18695206Y-22768484D01*
X18752348Y-22768484D02*
X18752348Y-22568484D01*
X18752348Y-22568484D02*
X18733301Y-22597055D01*
X18733301Y-22597055D02*
X18714253Y-22616103D01*
X18714253Y-22616103D02*
X18695206Y-22625627D01*
X18999967Y-22768484D02*
X18885682Y-22768484D01*
X18942825Y-22768484D02*
X18942825Y-22568484D01*
X18942825Y-22568484D02*
X18923777Y-22597055D01*
X18923777Y-22597055D02*
X18904729Y-22616103D01*
X18904729Y-22616103D02*
X18885682Y-22625627D01*
X19114253Y-22654198D02*
X19095206Y-22644674D01*
X19095206Y-22644674D02*
X19085682Y-22635151D01*
X19085682Y-22635151D02*
X19076158Y-22616103D01*
X19076158Y-22616103D02*
X19076158Y-22606579D01*
X19076158Y-22606579D02*
X19085682Y-22587532D01*
X19085682Y-22587532D02*
X19095206Y-22578008D01*
X19095206Y-22578008D02*
X19114253Y-22568484D01*
X19114253Y-22568484D02*
X19152348Y-22568484D01*
X19152348Y-22568484D02*
X19171396Y-22578008D01*
X19171396Y-22578008D02*
X19180920Y-22587532D01*
X19180920Y-22587532D02*
X19190444Y-22606579D01*
X19190444Y-22606579D02*
X19190444Y-22616103D01*
X19190444Y-22616103D02*
X19180920Y-22635151D01*
X19180920Y-22635151D02*
X19171396Y-22644674D01*
X19171396Y-22644674D02*
X19152348Y-22654198D01*
X19152348Y-22654198D02*
X19114253Y-22654198D01*
X19114253Y-22654198D02*
X19095206Y-22663722D01*
X19095206Y-22663722D02*
X19085682Y-22673246D01*
X19085682Y-22673246D02*
X19076158Y-22692293D01*
X19076158Y-22692293D02*
X19076158Y-22730389D01*
X19076158Y-22730389D02*
X19085682Y-22749436D01*
X19085682Y-22749436D02*
X19095206Y-22758960D01*
X19095206Y-22758960D02*
X19114253Y-22768484D01*
X19114253Y-22768484D02*
X19152348Y-22768484D01*
X19152348Y-22768484D02*
X19171396Y-22758960D01*
X19171396Y-22758960D02*
X19180920Y-22749436D01*
X19180920Y-22749436D02*
X19190444Y-22730389D01*
X19190444Y-22730389D02*
X19190444Y-22692293D01*
X19190444Y-22692293D02*
X19180920Y-22673246D01*
X19180920Y-22673246D02*
X19171396Y-22663722D01*
X19171396Y-22663722D02*
X19152348Y-22654198D01*
X19266634Y-22568484D02*
X19266634Y-22606579D01*
X19342825Y-22568484D02*
X19342825Y-22606579D01*
X19638063Y-22844674D02*
X19628539Y-22835151D01*
X19628539Y-22835151D02*
X19609491Y-22806579D01*
X19609491Y-22806579D02*
X19599968Y-22787532D01*
X19599968Y-22787532D02*
X19590444Y-22758960D01*
X19590444Y-22758960D02*
X19580920Y-22711341D01*
X19580920Y-22711341D02*
X19580920Y-22673246D01*
X19580920Y-22673246D02*
X19590444Y-22625627D01*
X19590444Y-22625627D02*
X19599968Y-22597055D01*
X19599968Y-22597055D02*
X19609491Y-22578008D01*
X19609491Y-22578008D02*
X19628539Y-22549436D01*
X19628539Y-22549436D02*
X19638063Y-22539912D01*
X19695206Y-22568484D02*
X19819015Y-22568484D01*
X19819015Y-22568484D02*
X19752348Y-22644674D01*
X19752348Y-22644674D02*
X19780920Y-22644674D01*
X19780920Y-22644674D02*
X19799968Y-22654198D01*
X19799968Y-22654198D02*
X19809491Y-22663722D01*
X19809491Y-22663722D02*
X19819015Y-22682770D01*
X19819015Y-22682770D02*
X19819015Y-22730389D01*
X19819015Y-22730389D02*
X19809491Y-22749436D01*
X19809491Y-22749436D02*
X19799968Y-22758960D01*
X19799968Y-22758960D02*
X19780920Y-22768484D01*
X19780920Y-22768484D02*
X19723777Y-22768484D01*
X19723777Y-22768484D02*
X19704729Y-22758960D01*
X19704729Y-22758960D02*
X19695206Y-22749436D01*
X20009491Y-22768484D02*
X19895206Y-22768484D01*
X19952348Y-22768484D02*
X19952348Y-22568484D01*
X19952348Y-22568484D02*
X19933301Y-22597055D01*
X19933301Y-22597055D02*
X19914253Y-22616103D01*
X19914253Y-22616103D02*
X19895206Y-22625627D01*
X20247587Y-22768484D02*
X20247587Y-22568484D01*
X20333301Y-22768484D02*
X20333301Y-22663722D01*
X20333301Y-22663722D02*
X20323777Y-22644674D01*
X20323777Y-22644674D02*
X20304730Y-22635151D01*
X20304730Y-22635151D02*
X20276158Y-22635151D01*
X20276158Y-22635151D02*
X20257110Y-22644674D01*
X20257110Y-22644674D02*
X20247587Y-22654198D01*
X20457110Y-22768484D02*
X20438063Y-22758960D01*
X20438063Y-22758960D02*
X20428539Y-22749436D01*
X20428539Y-22749436D02*
X20419015Y-22730389D01*
X20419015Y-22730389D02*
X20419015Y-22673246D01*
X20419015Y-22673246D02*
X20428539Y-22654198D01*
X20428539Y-22654198D02*
X20438063Y-22644674D01*
X20438063Y-22644674D02*
X20457110Y-22635151D01*
X20457110Y-22635151D02*
X20485682Y-22635151D01*
X20485682Y-22635151D02*
X20504730Y-22644674D01*
X20504730Y-22644674D02*
X20514253Y-22654198D01*
X20514253Y-22654198D02*
X20523777Y-22673246D01*
X20523777Y-22673246D02*
X20523777Y-22730389D01*
X20523777Y-22730389D02*
X20514253Y-22749436D01*
X20514253Y-22749436D02*
X20504730Y-22758960D01*
X20504730Y-22758960D02*
X20485682Y-22768484D01*
X20485682Y-22768484D02*
X20457110Y-22768484D01*
X20638063Y-22768484D02*
X20619015Y-22758960D01*
X20619015Y-22758960D02*
X20609491Y-22739912D01*
X20609491Y-22739912D02*
X20609491Y-22568484D01*
X20790444Y-22758960D02*
X20771396Y-22768484D01*
X20771396Y-22768484D02*
X20733301Y-22768484D01*
X20733301Y-22768484D02*
X20714253Y-22758960D01*
X20714253Y-22758960D02*
X20704730Y-22739912D01*
X20704730Y-22739912D02*
X20704730Y-22663722D01*
X20704730Y-22663722D02*
X20714253Y-22644674D01*
X20714253Y-22644674D02*
X20733301Y-22635151D01*
X20733301Y-22635151D02*
X20771396Y-22635151D01*
X20771396Y-22635151D02*
X20790444Y-22644674D01*
X20790444Y-22644674D02*
X20799968Y-22663722D01*
X20799968Y-22663722D02*
X20799968Y-22682770D01*
X20799968Y-22682770D02*
X20704730Y-22701817D01*
X20876158Y-22758960D02*
X20895206Y-22768484D01*
X20895206Y-22768484D02*
X20933301Y-22768484D01*
X20933301Y-22768484D02*
X20952349Y-22758960D01*
X20952349Y-22758960D02*
X20961872Y-22739912D01*
X20961872Y-22739912D02*
X20961872Y-22730389D01*
X20961872Y-22730389D02*
X20952349Y-22711341D01*
X20952349Y-22711341D02*
X20933301Y-22701817D01*
X20933301Y-22701817D02*
X20904730Y-22701817D01*
X20904730Y-22701817D02*
X20885682Y-22692293D01*
X20885682Y-22692293D02*
X20876158Y-22673246D01*
X20876158Y-22673246D02*
X20876158Y-22663722D01*
X20876158Y-22663722D02*
X20885682Y-22644674D01*
X20885682Y-22644674D02*
X20904730Y-22635151D01*
X20904730Y-22635151D02*
X20933301Y-22635151D01*
X20933301Y-22635151D02*
X20952349Y-22644674D01*
X21028539Y-22844674D02*
X21038063Y-22835151D01*
X21038063Y-22835151D02*
X21057111Y-22806579D01*
X21057111Y-22806579D02*
X21066634Y-22787532D01*
X21066634Y-22787532D02*
X21076158Y-22758960D01*
X21076158Y-22758960D02*
X21085682Y-22711341D01*
X21085682Y-22711341D02*
X21085682Y-22673246D01*
X21085682Y-22673246D02*
X21076158Y-22625627D01*
X21076158Y-22625627D02*
X21066634Y-22597055D01*
X21066634Y-22597055D02*
X21057111Y-22578008D01*
X21057111Y-22578008D02*
X21038063Y-22549436D01*
X21038063Y-22549436D02*
X21028539Y-22539912D01*
D12*
X16063000Y-22941000D02*
G75*
G02*
X16023000Y-22941000I-20000J0D01*
G01*
X16023000Y-22941000D02*
G75*
G02*
X16063000Y-22941000I20000J0D01*
G01*
D11*
X16361872Y-22832484D02*
X16380920Y-22832484D01*
X16380920Y-22832484D02*
X16399967Y-22842008D01*
X16399967Y-22842008D02*
X16409491Y-22851532D01*
X16409491Y-22851532D02*
X16419015Y-22870579D01*
X16419015Y-22870579D02*
X16428539Y-22908674D01*
X16428539Y-22908674D02*
X16428539Y-22956293D01*
X16428539Y-22956293D02*
X16419015Y-22994389D01*
X16419015Y-22994389D02*
X16409491Y-23013436D01*
X16409491Y-23013436D02*
X16399967Y-23022960D01*
X16399967Y-23022960D02*
X16380920Y-23032484D01*
X16380920Y-23032484D02*
X16361872Y-23032484D01*
X16361872Y-23032484D02*
X16342824Y-23022960D01*
X16342824Y-23022960D02*
X16333300Y-23013436D01*
X16333300Y-23013436D02*
X16323777Y-22994389D01*
X16323777Y-22994389D02*
X16314253Y-22956293D01*
X16314253Y-22956293D02*
X16314253Y-22908674D01*
X16314253Y-22908674D02*
X16323777Y-22870579D01*
X16323777Y-22870579D02*
X16333300Y-22851532D01*
X16333300Y-22851532D02*
X16342824Y-22842008D01*
X16342824Y-22842008D02*
X16361872Y-22832484D01*
X16514253Y-23013436D02*
X16523777Y-23022960D01*
X16523777Y-23022960D02*
X16514253Y-23032484D01*
X16514253Y-23032484D02*
X16504729Y-23022960D01*
X16504729Y-23022960D02*
X16514253Y-23013436D01*
X16514253Y-23013436D02*
X16514253Y-23032484D01*
X16695205Y-22899151D02*
X16695205Y-23032484D01*
X16647586Y-22822960D02*
X16599967Y-22965817D01*
X16599967Y-22965817D02*
X16723777Y-22965817D01*
X16838062Y-22832484D02*
X16857110Y-22832484D01*
X16857110Y-22832484D02*
X16876158Y-22842008D01*
X16876158Y-22842008D02*
X16885682Y-22851532D01*
X16885682Y-22851532D02*
X16895205Y-22870579D01*
X16895205Y-22870579D02*
X16904729Y-22908674D01*
X16904729Y-22908674D02*
X16904729Y-22956293D01*
X16904729Y-22956293D02*
X16895205Y-22994389D01*
X16895205Y-22994389D02*
X16885682Y-23013436D01*
X16885682Y-23013436D02*
X16876158Y-23022960D01*
X16876158Y-23022960D02*
X16857110Y-23032484D01*
X16857110Y-23032484D02*
X16838062Y-23032484D01*
X16838062Y-23032484D02*
X16819015Y-23022960D01*
X16819015Y-23022960D02*
X16809491Y-23013436D01*
X16809491Y-23013436D02*
X16799967Y-22994389D01*
X16799967Y-22994389D02*
X16790443Y-22956293D01*
X16790443Y-22956293D02*
X16790443Y-22908674D01*
X16790443Y-22908674D02*
X16799967Y-22870579D01*
X16799967Y-22870579D02*
X16809491Y-22851532D01*
X16809491Y-22851532D02*
X16819015Y-22842008D01*
X16819015Y-22842008D02*
X16838062Y-22832484D01*
X17028539Y-22832484D02*
X17047586Y-22832484D01*
X17047586Y-22832484D02*
X17066634Y-22842008D01*
X17066634Y-22842008D02*
X17076158Y-22851532D01*
X17076158Y-22851532D02*
X17085682Y-22870579D01*
X17085682Y-22870579D02*
X17095205Y-22908674D01*
X17095205Y-22908674D02*
X17095205Y-22956293D01*
X17095205Y-22956293D02*
X17085682Y-22994389D01*
X17085682Y-22994389D02*
X17076158Y-23013436D01*
X17076158Y-23013436D02*
X17066634Y-23022960D01*
X17066634Y-23022960D02*
X17047586Y-23032484D01*
X17047586Y-23032484D02*
X17028539Y-23032484D01*
X17028539Y-23032484D02*
X17009491Y-23022960D01*
X17009491Y-23022960D02*
X16999967Y-23013436D01*
X16999967Y-23013436D02*
X16990443Y-22994389D01*
X16990443Y-22994389D02*
X16980920Y-22956293D01*
X16980920Y-22956293D02*
X16980920Y-22908674D01*
X16980920Y-22908674D02*
X16990443Y-22870579D01*
X16990443Y-22870579D02*
X16999967Y-22851532D01*
X16999967Y-22851532D02*
X17009491Y-22842008D01*
X17009491Y-22842008D02*
X17028539Y-22832484D01*
X17180920Y-23032484D02*
X17180920Y-22899151D01*
X17180920Y-22918198D02*
X17190443Y-22908674D01*
X17190443Y-22908674D02*
X17209491Y-22899151D01*
X17209491Y-22899151D02*
X17238063Y-22899151D01*
X17238063Y-22899151D02*
X17257110Y-22908674D01*
X17257110Y-22908674D02*
X17266634Y-22927722D01*
X17266634Y-22927722D02*
X17266634Y-23032484D01*
X17266634Y-22927722D02*
X17276158Y-22908674D01*
X17276158Y-22908674D02*
X17295205Y-22899151D01*
X17295205Y-22899151D02*
X17323777Y-22899151D01*
X17323777Y-22899151D02*
X17342824Y-22908674D01*
X17342824Y-22908674D02*
X17352348Y-22927722D01*
X17352348Y-22927722D02*
X17352348Y-23032484D01*
X17447586Y-23032484D02*
X17447586Y-22899151D01*
X17447586Y-22918198D02*
X17457110Y-22908674D01*
X17457110Y-22908674D02*
X17476158Y-22899151D01*
X17476158Y-22899151D02*
X17504729Y-22899151D01*
X17504729Y-22899151D02*
X17523777Y-22908674D01*
X17523777Y-22908674D02*
X17533301Y-22927722D01*
X17533301Y-22927722D02*
X17533301Y-23032484D01*
X17533301Y-22927722D02*
X17542824Y-22908674D01*
X17542824Y-22908674D02*
X17561872Y-22899151D01*
X17561872Y-22899151D02*
X17590443Y-22899151D01*
X17590443Y-22899151D02*
X17609491Y-22908674D01*
X17609491Y-22908674D02*
X17619015Y-22927722D01*
X17619015Y-22927722D02*
X17619015Y-23032484D01*
X18009491Y-22822960D02*
X17838063Y-23080103D01*
X18266634Y-22832484D02*
X18285682Y-22832484D01*
X18285682Y-22832484D02*
X18304729Y-22842008D01*
X18304729Y-22842008D02*
X18314253Y-22851532D01*
X18314253Y-22851532D02*
X18323777Y-22870579D01*
X18323777Y-22870579D02*
X18333301Y-22908674D01*
X18333301Y-22908674D02*
X18333301Y-22956293D01*
X18333301Y-22956293D02*
X18323777Y-22994389D01*
X18323777Y-22994389D02*
X18314253Y-23013436D01*
X18314253Y-23013436D02*
X18304729Y-23022960D01*
X18304729Y-23022960D02*
X18285682Y-23032484D01*
X18285682Y-23032484D02*
X18266634Y-23032484D01*
X18266634Y-23032484D02*
X18247586Y-23022960D01*
X18247586Y-23022960D02*
X18238063Y-23013436D01*
X18238063Y-23013436D02*
X18228539Y-22994389D01*
X18228539Y-22994389D02*
X18219015Y-22956293D01*
X18219015Y-22956293D02*
X18219015Y-22908674D01*
X18219015Y-22908674D02*
X18228539Y-22870579D01*
X18228539Y-22870579D02*
X18238063Y-22851532D01*
X18238063Y-22851532D02*
X18247586Y-22842008D01*
X18247586Y-22842008D02*
X18266634Y-22832484D01*
X18419015Y-23013436D02*
X18428539Y-23022960D01*
X18428539Y-23022960D02*
X18419015Y-23032484D01*
X18419015Y-23032484D02*
X18409491Y-23022960D01*
X18409491Y-23022960D02*
X18419015Y-23013436D01*
X18419015Y-23013436D02*
X18419015Y-23032484D01*
X18552348Y-22832484D02*
X18571396Y-22832484D01*
X18571396Y-22832484D02*
X18590444Y-22842008D01*
X18590444Y-22842008D02*
X18599967Y-22851532D01*
X18599967Y-22851532D02*
X18609491Y-22870579D01*
X18609491Y-22870579D02*
X18619015Y-22908674D01*
X18619015Y-22908674D02*
X18619015Y-22956293D01*
X18619015Y-22956293D02*
X18609491Y-22994389D01*
X18609491Y-22994389D02*
X18599967Y-23013436D01*
X18599967Y-23013436D02*
X18590444Y-23022960D01*
X18590444Y-23022960D02*
X18571396Y-23032484D01*
X18571396Y-23032484D02*
X18552348Y-23032484D01*
X18552348Y-23032484D02*
X18533301Y-23022960D01*
X18533301Y-23022960D02*
X18523777Y-23013436D01*
X18523777Y-23013436D02*
X18514253Y-22994389D01*
X18514253Y-22994389D02*
X18504729Y-22956293D01*
X18504729Y-22956293D02*
X18504729Y-22908674D01*
X18504729Y-22908674D02*
X18514253Y-22870579D01*
X18514253Y-22870579D02*
X18523777Y-22851532D01*
X18523777Y-22851532D02*
X18533301Y-22842008D01*
X18533301Y-22842008D02*
X18552348Y-22832484D01*
X18809491Y-23032484D02*
X18695206Y-23032484D01*
X18752348Y-23032484D02*
X18752348Y-22832484D01*
X18752348Y-22832484D02*
X18733301Y-22861055D01*
X18733301Y-22861055D02*
X18714253Y-22880103D01*
X18714253Y-22880103D02*
X18695206Y-22889627D01*
X18990444Y-22832484D02*
X18895206Y-22832484D01*
X18895206Y-22832484D02*
X18885682Y-22927722D01*
X18885682Y-22927722D02*
X18895206Y-22918198D01*
X18895206Y-22918198D02*
X18914253Y-22908674D01*
X18914253Y-22908674D02*
X18961872Y-22908674D01*
X18961872Y-22908674D02*
X18980920Y-22918198D01*
X18980920Y-22918198D02*
X18990444Y-22927722D01*
X18990444Y-22927722D02*
X18999967Y-22946770D01*
X18999967Y-22946770D02*
X18999967Y-22994389D01*
X18999967Y-22994389D02*
X18990444Y-23013436D01*
X18990444Y-23013436D02*
X18980920Y-23022960D01*
X18980920Y-23022960D02*
X18961872Y-23032484D01*
X18961872Y-23032484D02*
X18914253Y-23032484D01*
X18914253Y-23032484D02*
X18895206Y-23022960D01*
X18895206Y-23022960D02*
X18885682Y-23013436D01*
X19066634Y-22832484D02*
X19199967Y-22832484D01*
X19199967Y-22832484D02*
X19114253Y-23032484D01*
X19266634Y-22832484D02*
X19266634Y-22870579D01*
X19342825Y-22832484D02*
X19342825Y-22870579D01*
X19638063Y-23108674D02*
X19628539Y-23099151D01*
X19628539Y-23099151D02*
X19609491Y-23070579D01*
X19609491Y-23070579D02*
X19599968Y-23051532D01*
X19599968Y-23051532D02*
X19590444Y-23022960D01*
X19590444Y-23022960D02*
X19580920Y-22975341D01*
X19580920Y-22975341D02*
X19580920Y-22937246D01*
X19580920Y-22937246D02*
X19590444Y-22889627D01*
X19590444Y-22889627D02*
X19599968Y-22861055D01*
X19599968Y-22861055D02*
X19609491Y-22842008D01*
X19609491Y-22842008D02*
X19628539Y-22813436D01*
X19628539Y-22813436D02*
X19638063Y-22803912D01*
X19695206Y-22832484D02*
X19828539Y-22832484D01*
X19828539Y-22832484D02*
X19742825Y-23032484D01*
X20057110Y-23032484D02*
X20057110Y-22832484D01*
X20142825Y-23032484D02*
X20142825Y-22927722D01*
X20142825Y-22927722D02*
X20133301Y-22908674D01*
X20133301Y-22908674D02*
X20114253Y-22899151D01*
X20114253Y-22899151D02*
X20085682Y-22899151D01*
X20085682Y-22899151D02*
X20066634Y-22908674D01*
X20066634Y-22908674D02*
X20057110Y-22918198D01*
X20266634Y-23032484D02*
X20247587Y-23022960D01*
X20247587Y-23022960D02*
X20238063Y-23013436D01*
X20238063Y-23013436D02*
X20228539Y-22994389D01*
X20228539Y-22994389D02*
X20228539Y-22937246D01*
X20228539Y-22937246D02*
X20238063Y-22918198D01*
X20238063Y-22918198D02*
X20247587Y-22908674D01*
X20247587Y-22908674D02*
X20266634Y-22899151D01*
X20266634Y-22899151D02*
X20295206Y-22899151D01*
X20295206Y-22899151D02*
X20314253Y-22908674D01*
X20314253Y-22908674D02*
X20323777Y-22918198D01*
X20323777Y-22918198D02*
X20333301Y-22937246D01*
X20333301Y-22937246D02*
X20333301Y-22994389D01*
X20333301Y-22994389D02*
X20323777Y-23013436D01*
X20323777Y-23013436D02*
X20314253Y-23022960D01*
X20314253Y-23022960D02*
X20295206Y-23032484D01*
X20295206Y-23032484D02*
X20266634Y-23032484D01*
X20447587Y-23032484D02*
X20428539Y-23022960D01*
X20428539Y-23022960D02*
X20419015Y-23003912D01*
X20419015Y-23003912D02*
X20419015Y-22832484D01*
X20599968Y-23022960D02*
X20580920Y-23032484D01*
X20580920Y-23032484D02*
X20542825Y-23032484D01*
X20542825Y-23032484D02*
X20523777Y-23022960D01*
X20523777Y-23022960D02*
X20514253Y-23003912D01*
X20514253Y-23003912D02*
X20514253Y-22927722D01*
X20514253Y-22927722D02*
X20523777Y-22908674D01*
X20523777Y-22908674D02*
X20542825Y-22899151D01*
X20542825Y-22899151D02*
X20580920Y-22899151D01*
X20580920Y-22899151D02*
X20599968Y-22908674D01*
X20599968Y-22908674D02*
X20609491Y-22927722D01*
X20609491Y-22927722D02*
X20609491Y-22946770D01*
X20609491Y-22946770D02*
X20514253Y-22965817D01*
X20685682Y-23022960D02*
X20704730Y-23032484D01*
X20704730Y-23032484D02*
X20742825Y-23032484D01*
X20742825Y-23032484D02*
X20761872Y-23022960D01*
X20761872Y-23022960D02*
X20771396Y-23003912D01*
X20771396Y-23003912D02*
X20771396Y-22994389D01*
X20771396Y-22994389D02*
X20761872Y-22975341D01*
X20761872Y-22975341D02*
X20742825Y-22965817D01*
X20742825Y-22965817D02*
X20714253Y-22965817D01*
X20714253Y-22965817D02*
X20695206Y-22956293D01*
X20695206Y-22956293D02*
X20685682Y-22937246D01*
X20685682Y-22937246D02*
X20685682Y-22927722D01*
X20685682Y-22927722D02*
X20695206Y-22908674D01*
X20695206Y-22908674D02*
X20714253Y-22899151D01*
X20714253Y-22899151D02*
X20742825Y-22899151D01*
X20742825Y-22899151D02*
X20761872Y-22908674D01*
X20838063Y-23108674D02*
X20847587Y-23099151D01*
X20847587Y-23099151D02*
X20866634Y-23070579D01*
X20866634Y-23070579D02*
X20876158Y-23051532D01*
X20876158Y-23051532D02*
X20885682Y-23022960D01*
X20885682Y-23022960D02*
X20895206Y-22975341D01*
X20895206Y-22975341D02*
X20895206Y-22937246D01*
X20895206Y-22937246D02*
X20885682Y-22889627D01*
X20885682Y-22889627D02*
X20876158Y-22861055D01*
X20876158Y-22861055D02*
X20866634Y-22842008D01*
X20866634Y-22842008D02*
X20847587Y-22813436D01*
X20847587Y-22813436D02*
X20838063Y-22803912D01*
D12*
X16033000Y-23175000D02*
X16033000Y-23235000D01*
X16003000Y-23205000D02*
X16063000Y-23205000D01*
D11*
X16361872Y-23096484D02*
X16380920Y-23096484D01*
X16380920Y-23096484D02*
X16399967Y-23106008D01*
X16399967Y-23106008D02*
X16409491Y-23115532D01*
X16409491Y-23115532D02*
X16419015Y-23134579D01*
X16419015Y-23134579D02*
X16428539Y-23172674D01*
X16428539Y-23172674D02*
X16428539Y-23220293D01*
X16428539Y-23220293D02*
X16419015Y-23258389D01*
X16419015Y-23258389D02*
X16409491Y-23277436D01*
X16409491Y-23277436D02*
X16399967Y-23286960D01*
X16399967Y-23286960D02*
X16380920Y-23296484D01*
X16380920Y-23296484D02*
X16361872Y-23296484D01*
X16361872Y-23296484D02*
X16342824Y-23286960D01*
X16342824Y-23286960D02*
X16333300Y-23277436D01*
X16333300Y-23277436D02*
X16323777Y-23258389D01*
X16323777Y-23258389D02*
X16314253Y-23220293D01*
X16314253Y-23220293D02*
X16314253Y-23172674D01*
X16314253Y-23172674D02*
X16323777Y-23134579D01*
X16323777Y-23134579D02*
X16333300Y-23115532D01*
X16333300Y-23115532D02*
X16342824Y-23106008D01*
X16342824Y-23106008D02*
X16361872Y-23096484D01*
X16514253Y-23277436D02*
X16523777Y-23286960D01*
X16523777Y-23286960D02*
X16514253Y-23296484D01*
X16514253Y-23296484D02*
X16504729Y-23286960D01*
X16504729Y-23286960D02*
X16514253Y-23277436D01*
X16514253Y-23277436D02*
X16514253Y-23296484D01*
X16695205Y-23096484D02*
X16657110Y-23096484D01*
X16657110Y-23096484D02*
X16638062Y-23106008D01*
X16638062Y-23106008D02*
X16628539Y-23115532D01*
X16628539Y-23115532D02*
X16609491Y-23144103D01*
X16609491Y-23144103D02*
X16599967Y-23182198D01*
X16599967Y-23182198D02*
X16599967Y-23258389D01*
X16599967Y-23258389D02*
X16609491Y-23277436D01*
X16609491Y-23277436D02*
X16619015Y-23286960D01*
X16619015Y-23286960D02*
X16638062Y-23296484D01*
X16638062Y-23296484D02*
X16676158Y-23296484D01*
X16676158Y-23296484D02*
X16695205Y-23286960D01*
X16695205Y-23286960D02*
X16704729Y-23277436D01*
X16704729Y-23277436D02*
X16714253Y-23258389D01*
X16714253Y-23258389D02*
X16714253Y-23210770D01*
X16714253Y-23210770D02*
X16704729Y-23191722D01*
X16704729Y-23191722D02*
X16695205Y-23182198D01*
X16695205Y-23182198D02*
X16676158Y-23172674D01*
X16676158Y-23172674D02*
X16638062Y-23172674D01*
X16638062Y-23172674D02*
X16619015Y-23182198D01*
X16619015Y-23182198D02*
X16609491Y-23191722D01*
X16609491Y-23191722D02*
X16599967Y-23210770D01*
X16838062Y-23096484D02*
X16857110Y-23096484D01*
X16857110Y-23096484D02*
X16876158Y-23106008D01*
X16876158Y-23106008D02*
X16885682Y-23115532D01*
X16885682Y-23115532D02*
X16895205Y-23134579D01*
X16895205Y-23134579D02*
X16904729Y-23172674D01*
X16904729Y-23172674D02*
X16904729Y-23220293D01*
X16904729Y-23220293D02*
X16895205Y-23258389D01*
X16895205Y-23258389D02*
X16885682Y-23277436D01*
X16885682Y-23277436D02*
X16876158Y-23286960D01*
X16876158Y-23286960D02*
X16857110Y-23296484D01*
X16857110Y-23296484D02*
X16838062Y-23296484D01*
X16838062Y-23296484D02*
X16819015Y-23286960D01*
X16819015Y-23286960D02*
X16809491Y-23277436D01*
X16809491Y-23277436D02*
X16799967Y-23258389D01*
X16799967Y-23258389D02*
X16790443Y-23220293D01*
X16790443Y-23220293D02*
X16790443Y-23172674D01*
X16790443Y-23172674D02*
X16799967Y-23134579D01*
X16799967Y-23134579D02*
X16809491Y-23115532D01*
X16809491Y-23115532D02*
X16819015Y-23106008D01*
X16819015Y-23106008D02*
X16838062Y-23096484D01*
X17028539Y-23096484D02*
X17047586Y-23096484D01*
X17047586Y-23096484D02*
X17066634Y-23106008D01*
X17066634Y-23106008D02*
X17076158Y-23115532D01*
X17076158Y-23115532D02*
X17085682Y-23134579D01*
X17085682Y-23134579D02*
X17095205Y-23172674D01*
X17095205Y-23172674D02*
X17095205Y-23220293D01*
X17095205Y-23220293D02*
X17085682Y-23258389D01*
X17085682Y-23258389D02*
X17076158Y-23277436D01*
X17076158Y-23277436D02*
X17066634Y-23286960D01*
X17066634Y-23286960D02*
X17047586Y-23296484D01*
X17047586Y-23296484D02*
X17028539Y-23296484D01*
X17028539Y-23296484D02*
X17009491Y-23286960D01*
X17009491Y-23286960D02*
X16999967Y-23277436D01*
X16999967Y-23277436D02*
X16990443Y-23258389D01*
X16990443Y-23258389D02*
X16980920Y-23220293D01*
X16980920Y-23220293D02*
X16980920Y-23172674D01*
X16980920Y-23172674D02*
X16990443Y-23134579D01*
X16990443Y-23134579D02*
X16999967Y-23115532D01*
X16999967Y-23115532D02*
X17009491Y-23106008D01*
X17009491Y-23106008D02*
X17028539Y-23096484D01*
X17180920Y-23296484D02*
X17180920Y-23163151D01*
X17180920Y-23182198D02*
X17190443Y-23172674D01*
X17190443Y-23172674D02*
X17209491Y-23163151D01*
X17209491Y-23163151D02*
X17238063Y-23163151D01*
X17238063Y-23163151D02*
X17257110Y-23172674D01*
X17257110Y-23172674D02*
X17266634Y-23191722D01*
X17266634Y-23191722D02*
X17266634Y-23296484D01*
X17266634Y-23191722D02*
X17276158Y-23172674D01*
X17276158Y-23172674D02*
X17295205Y-23163151D01*
X17295205Y-23163151D02*
X17323777Y-23163151D01*
X17323777Y-23163151D02*
X17342824Y-23172674D01*
X17342824Y-23172674D02*
X17352348Y-23191722D01*
X17352348Y-23191722D02*
X17352348Y-23296484D01*
X17447586Y-23296484D02*
X17447586Y-23163151D01*
X17447586Y-23182198D02*
X17457110Y-23172674D01*
X17457110Y-23172674D02*
X17476158Y-23163151D01*
X17476158Y-23163151D02*
X17504729Y-23163151D01*
X17504729Y-23163151D02*
X17523777Y-23172674D01*
X17523777Y-23172674D02*
X17533301Y-23191722D01*
X17533301Y-23191722D02*
X17533301Y-23296484D01*
X17533301Y-23191722D02*
X17542824Y-23172674D01*
X17542824Y-23172674D02*
X17561872Y-23163151D01*
X17561872Y-23163151D02*
X17590443Y-23163151D01*
X17590443Y-23163151D02*
X17609491Y-23172674D01*
X17609491Y-23172674D02*
X17619015Y-23191722D01*
X17619015Y-23191722D02*
X17619015Y-23296484D01*
X18009491Y-23086960D02*
X17838063Y-23344103D01*
X18266634Y-23096484D02*
X18285682Y-23096484D01*
X18285682Y-23096484D02*
X18304729Y-23106008D01*
X18304729Y-23106008D02*
X18314253Y-23115532D01*
X18314253Y-23115532D02*
X18323777Y-23134579D01*
X18323777Y-23134579D02*
X18333301Y-23172674D01*
X18333301Y-23172674D02*
X18333301Y-23220293D01*
X18333301Y-23220293D02*
X18323777Y-23258389D01*
X18323777Y-23258389D02*
X18314253Y-23277436D01*
X18314253Y-23277436D02*
X18304729Y-23286960D01*
X18304729Y-23286960D02*
X18285682Y-23296484D01*
X18285682Y-23296484D02*
X18266634Y-23296484D01*
X18266634Y-23296484D02*
X18247586Y-23286960D01*
X18247586Y-23286960D02*
X18238063Y-23277436D01*
X18238063Y-23277436D02*
X18228539Y-23258389D01*
X18228539Y-23258389D02*
X18219015Y-23220293D01*
X18219015Y-23220293D02*
X18219015Y-23172674D01*
X18219015Y-23172674D02*
X18228539Y-23134579D01*
X18228539Y-23134579D02*
X18238063Y-23115532D01*
X18238063Y-23115532D02*
X18247586Y-23106008D01*
X18247586Y-23106008D02*
X18266634Y-23096484D01*
X18419015Y-23277436D02*
X18428539Y-23286960D01*
X18428539Y-23286960D02*
X18419015Y-23296484D01*
X18419015Y-23296484D02*
X18409491Y-23286960D01*
X18409491Y-23286960D02*
X18419015Y-23277436D01*
X18419015Y-23277436D02*
X18419015Y-23296484D01*
X18552348Y-23096484D02*
X18571396Y-23096484D01*
X18571396Y-23096484D02*
X18590444Y-23106008D01*
X18590444Y-23106008D02*
X18599967Y-23115532D01*
X18599967Y-23115532D02*
X18609491Y-23134579D01*
X18609491Y-23134579D02*
X18619015Y-23172674D01*
X18619015Y-23172674D02*
X18619015Y-23220293D01*
X18619015Y-23220293D02*
X18609491Y-23258389D01*
X18609491Y-23258389D02*
X18599967Y-23277436D01*
X18599967Y-23277436D02*
X18590444Y-23286960D01*
X18590444Y-23286960D02*
X18571396Y-23296484D01*
X18571396Y-23296484D02*
X18552348Y-23296484D01*
X18552348Y-23296484D02*
X18533301Y-23286960D01*
X18533301Y-23286960D02*
X18523777Y-23277436D01*
X18523777Y-23277436D02*
X18514253Y-23258389D01*
X18514253Y-23258389D02*
X18504729Y-23220293D01*
X18504729Y-23220293D02*
X18504729Y-23172674D01*
X18504729Y-23172674D02*
X18514253Y-23134579D01*
X18514253Y-23134579D02*
X18523777Y-23115532D01*
X18523777Y-23115532D02*
X18533301Y-23106008D01*
X18533301Y-23106008D02*
X18552348Y-23096484D01*
X18695206Y-23115532D02*
X18704729Y-23106008D01*
X18704729Y-23106008D02*
X18723777Y-23096484D01*
X18723777Y-23096484D02*
X18771396Y-23096484D01*
X18771396Y-23096484D02*
X18790444Y-23106008D01*
X18790444Y-23106008D02*
X18799967Y-23115532D01*
X18799967Y-23115532D02*
X18809491Y-23134579D01*
X18809491Y-23134579D02*
X18809491Y-23153627D01*
X18809491Y-23153627D02*
X18799967Y-23182198D01*
X18799967Y-23182198D02*
X18685682Y-23296484D01*
X18685682Y-23296484D02*
X18809491Y-23296484D01*
X18876158Y-23096484D02*
X18999967Y-23096484D01*
X18999967Y-23096484D02*
X18933301Y-23172674D01*
X18933301Y-23172674D02*
X18961872Y-23172674D01*
X18961872Y-23172674D02*
X18980920Y-23182198D01*
X18980920Y-23182198D02*
X18990444Y-23191722D01*
X18990444Y-23191722D02*
X18999967Y-23210770D01*
X18999967Y-23210770D02*
X18999967Y-23258389D01*
X18999967Y-23258389D02*
X18990444Y-23277436D01*
X18990444Y-23277436D02*
X18980920Y-23286960D01*
X18980920Y-23286960D02*
X18961872Y-23296484D01*
X18961872Y-23296484D02*
X18904729Y-23296484D01*
X18904729Y-23296484D02*
X18885682Y-23286960D01*
X18885682Y-23286960D02*
X18876158Y-23277436D01*
X19171396Y-23096484D02*
X19133301Y-23096484D01*
X19133301Y-23096484D02*
X19114253Y-23106008D01*
X19114253Y-23106008D02*
X19104729Y-23115532D01*
X19104729Y-23115532D02*
X19085682Y-23144103D01*
X19085682Y-23144103D02*
X19076158Y-23182198D01*
X19076158Y-23182198D02*
X19076158Y-23258389D01*
X19076158Y-23258389D02*
X19085682Y-23277436D01*
X19085682Y-23277436D02*
X19095206Y-23286960D01*
X19095206Y-23286960D02*
X19114253Y-23296484D01*
X19114253Y-23296484D02*
X19152348Y-23296484D01*
X19152348Y-23296484D02*
X19171396Y-23286960D01*
X19171396Y-23286960D02*
X19180920Y-23277436D01*
X19180920Y-23277436D02*
X19190444Y-23258389D01*
X19190444Y-23258389D02*
X19190444Y-23210770D01*
X19190444Y-23210770D02*
X19180920Y-23191722D01*
X19180920Y-23191722D02*
X19171396Y-23182198D01*
X19171396Y-23182198D02*
X19152348Y-23172674D01*
X19152348Y-23172674D02*
X19114253Y-23172674D01*
X19114253Y-23172674D02*
X19095206Y-23182198D01*
X19095206Y-23182198D02*
X19085682Y-23191722D01*
X19085682Y-23191722D02*
X19076158Y-23210770D01*
X19266634Y-23096484D02*
X19266634Y-23134579D01*
X19342825Y-23096484D02*
X19342825Y-23134579D01*
X19638063Y-23372674D02*
X19628539Y-23363151D01*
X19628539Y-23363151D02*
X19609491Y-23334579D01*
X19609491Y-23334579D02*
X19599968Y-23315532D01*
X19599968Y-23315532D02*
X19590444Y-23286960D01*
X19590444Y-23286960D02*
X19580920Y-23239341D01*
X19580920Y-23239341D02*
X19580920Y-23201246D01*
X19580920Y-23201246D02*
X19590444Y-23153627D01*
X19590444Y-23153627D02*
X19599968Y-23125055D01*
X19599968Y-23125055D02*
X19609491Y-23106008D01*
X19609491Y-23106008D02*
X19628539Y-23077436D01*
X19628539Y-23077436D02*
X19638063Y-23067912D01*
X19752348Y-23096484D02*
X19771396Y-23096484D01*
X19771396Y-23096484D02*
X19790444Y-23106008D01*
X19790444Y-23106008D02*
X19799968Y-23115532D01*
X19799968Y-23115532D02*
X19809491Y-23134579D01*
X19809491Y-23134579D02*
X19819015Y-23172674D01*
X19819015Y-23172674D02*
X19819015Y-23220293D01*
X19819015Y-23220293D02*
X19809491Y-23258389D01*
X19809491Y-23258389D02*
X19799968Y-23277436D01*
X19799968Y-23277436D02*
X19790444Y-23286960D01*
X19790444Y-23286960D02*
X19771396Y-23296484D01*
X19771396Y-23296484D02*
X19752348Y-23296484D01*
X19752348Y-23296484D02*
X19733301Y-23286960D01*
X19733301Y-23286960D02*
X19723777Y-23277436D01*
X19723777Y-23277436D02*
X19714253Y-23258389D01*
X19714253Y-23258389D02*
X19704729Y-23220293D01*
X19704729Y-23220293D02*
X19704729Y-23172674D01*
X19704729Y-23172674D02*
X19714253Y-23134579D01*
X19714253Y-23134579D02*
X19723777Y-23115532D01*
X19723777Y-23115532D02*
X19733301Y-23106008D01*
X19733301Y-23106008D02*
X19752348Y-23096484D01*
X20057110Y-23296484D02*
X20057110Y-23096484D01*
X20142825Y-23296484D02*
X20142825Y-23191722D01*
X20142825Y-23191722D02*
X20133301Y-23172674D01*
X20133301Y-23172674D02*
X20114253Y-23163151D01*
X20114253Y-23163151D02*
X20085682Y-23163151D01*
X20085682Y-23163151D02*
X20066634Y-23172674D01*
X20066634Y-23172674D02*
X20057110Y-23182198D01*
X20266634Y-23296484D02*
X20247587Y-23286960D01*
X20247587Y-23286960D02*
X20238063Y-23277436D01*
X20238063Y-23277436D02*
X20228539Y-23258389D01*
X20228539Y-23258389D02*
X20228539Y-23201246D01*
X20228539Y-23201246D02*
X20238063Y-23182198D01*
X20238063Y-23182198D02*
X20247587Y-23172674D01*
X20247587Y-23172674D02*
X20266634Y-23163151D01*
X20266634Y-23163151D02*
X20295206Y-23163151D01*
X20295206Y-23163151D02*
X20314253Y-23172674D01*
X20314253Y-23172674D02*
X20323777Y-23182198D01*
X20323777Y-23182198D02*
X20333301Y-23201246D01*
X20333301Y-23201246D02*
X20333301Y-23258389D01*
X20333301Y-23258389D02*
X20323777Y-23277436D01*
X20323777Y-23277436D02*
X20314253Y-23286960D01*
X20314253Y-23286960D02*
X20295206Y-23296484D01*
X20295206Y-23296484D02*
X20266634Y-23296484D01*
X20447587Y-23296484D02*
X20428539Y-23286960D01*
X20428539Y-23286960D02*
X20419015Y-23267912D01*
X20419015Y-23267912D02*
X20419015Y-23096484D01*
X20599968Y-23286960D02*
X20580920Y-23296484D01*
X20580920Y-23296484D02*
X20542825Y-23296484D01*
X20542825Y-23296484D02*
X20523777Y-23286960D01*
X20523777Y-23286960D02*
X20514253Y-23267912D01*
X20514253Y-23267912D02*
X20514253Y-23191722D01*
X20514253Y-23191722D02*
X20523777Y-23172674D01*
X20523777Y-23172674D02*
X20542825Y-23163151D01*
X20542825Y-23163151D02*
X20580920Y-23163151D01*
X20580920Y-23163151D02*
X20599968Y-23172674D01*
X20599968Y-23172674D02*
X20609491Y-23191722D01*
X20609491Y-23191722D02*
X20609491Y-23210770D01*
X20609491Y-23210770D02*
X20514253Y-23229817D01*
X20685682Y-23286960D02*
X20704730Y-23296484D01*
X20704730Y-23296484D02*
X20742825Y-23296484D01*
X20742825Y-23296484D02*
X20761872Y-23286960D01*
X20761872Y-23286960D02*
X20771396Y-23267912D01*
X20771396Y-23267912D02*
X20771396Y-23258389D01*
X20771396Y-23258389D02*
X20761872Y-23239341D01*
X20761872Y-23239341D02*
X20742825Y-23229817D01*
X20742825Y-23229817D02*
X20714253Y-23229817D01*
X20714253Y-23229817D02*
X20695206Y-23220293D01*
X20695206Y-23220293D02*
X20685682Y-23201246D01*
X20685682Y-23201246D02*
X20685682Y-23191722D01*
X20685682Y-23191722D02*
X20695206Y-23172674D01*
X20695206Y-23172674D02*
X20714253Y-23163151D01*
X20714253Y-23163151D02*
X20742825Y-23163151D01*
X20742825Y-23163151D02*
X20761872Y-23172674D01*
X21009492Y-23220293D02*
X21161873Y-23220293D01*
X21085682Y-23296484D02*
X21085682Y-23144103D01*
X21495206Y-23163151D02*
X21495206Y-23296484D01*
X21447587Y-23086960D02*
X21399968Y-23229817D01*
X21399968Y-23229817D02*
X21523777Y-23229817D01*
X21742825Y-23286960D02*
X21761873Y-23296484D01*
X21761873Y-23296484D02*
X21799968Y-23296484D01*
X21799968Y-23296484D02*
X21819015Y-23286960D01*
X21819015Y-23286960D02*
X21828539Y-23267912D01*
X21828539Y-23267912D02*
X21828539Y-23258389D01*
X21828539Y-23258389D02*
X21819015Y-23239341D01*
X21819015Y-23239341D02*
X21799968Y-23229817D01*
X21799968Y-23229817D02*
X21771396Y-23229817D01*
X21771396Y-23229817D02*
X21752349Y-23220293D01*
X21752349Y-23220293D02*
X21742825Y-23201246D01*
X21742825Y-23201246D02*
X21742825Y-23191722D01*
X21742825Y-23191722D02*
X21752349Y-23172674D01*
X21752349Y-23172674D02*
X21771396Y-23163151D01*
X21771396Y-23163151D02*
X21799968Y-23163151D01*
X21799968Y-23163151D02*
X21819015Y-23172674D01*
X21942825Y-23296484D02*
X21923777Y-23286960D01*
X21923777Y-23286960D02*
X21914254Y-23267912D01*
X21914254Y-23267912D02*
X21914254Y-23096484D01*
X22047587Y-23296484D02*
X22028539Y-23286960D01*
X22028539Y-23286960D02*
X22019015Y-23277436D01*
X22019015Y-23277436D02*
X22009492Y-23258389D01*
X22009492Y-23258389D02*
X22009492Y-23201246D01*
X22009492Y-23201246D02*
X22019015Y-23182198D01*
X22019015Y-23182198D02*
X22028539Y-23172674D01*
X22028539Y-23172674D02*
X22047587Y-23163151D01*
X22047587Y-23163151D02*
X22076158Y-23163151D01*
X22076158Y-23163151D02*
X22095206Y-23172674D01*
X22095206Y-23172674D02*
X22104730Y-23182198D01*
X22104730Y-23182198D02*
X22114254Y-23201246D01*
X22114254Y-23201246D02*
X22114254Y-23258389D01*
X22114254Y-23258389D02*
X22104730Y-23277436D01*
X22104730Y-23277436D02*
X22095206Y-23286960D01*
X22095206Y-23286960D02*
X22076158Y-23296484D01*
X22076158Y-23296484D02*
X22047587Y-23296484D01*
X22171396Y-23163151D02*
X22247587Y-23163151D01*
X22199968Y-23096484D02*
X22199968Y-23267912D01*
X22199968Y-23267912D02*
X22209492Y-23286960D01*
X22209492Y-23286960D02*
X22228539Y-23296484D01*
X22228539Y-23296484D02*
X22247587Y-23296484D01*
X22304730Y-23286960D02*
X22323777Y-23296484D01*
X22323777Y-23296484D02*
X22361873Y-23296484D01*
X22361873Y-23296484D02*
X22380920Y-23286960D01*
X22380920Y-23286960D02*
X22390444Y-23267912D01*
X22390444Y-23267912D02*
X22390444Y-23258389D01*
X22390444Y-23258389D02*
X22380920Y-23239341D01*
X22380920Y-23239341D02*
X22361873Y-23229817D01*
X22361873Y-23229817D02*
X22333301Y-23229817D01*
X22333301Y-23229817D02*
X22314254Y-23220293D01*
X22314254Y-23220293D02*
X22304730Y-23201246D01*
X22304730Y-23201246D02*
X22304730Y-23191722D01*
X22304730Y-23191722D02*
X22314254Y-23172674D01*
X22314254Y-23172674D02*
X22333301Y-23163151D01*
X22333301Y-23163151D02*
X22361873Y-23163151D01*
X22361873Y-23163151D02*
X22380920Y-23172674D01*
X22457111Y-23372674D02*
X22466634Y-23363151D01*
X22466634Y-23363151D02*
X22485682Y-23334579D01*
X22485682Y-23334579D02*
X22495206Y-23315532D01*
X22495206Y-23315532D02*
X22504730Y-23286960D01*
X22504730Y-23286960D02*
X22514253Y-23239341D01*
X22514253Y-23239341D02*
X22514253Y-23201246D01*
X22514253Y-23201246D02*
X22504730Y-23153627D01*
X22504730Y-23153627D02*
X22495206Y-23125055D01*
X22495206Y-23125055D02*
X22485682Y-23106008D01*
X22485682Y-23106008D02*
X22466634Y-23077436D01*
X22466634Y-23077436D02*
X22457111Y-23067912D01*
D12*
X16048356Y-23504356D02*
X16048356Y-23433644D01*
X15977644Y-23433644D01*
X15977644Y-23504356D01*
X16048356Y-23504356D01*
D11*
X16428539Y-23560484D02*
X16314253Y-23560484D01*
X16371396Y-23560484D02*
X16371396Y-23360484D01*
X16371396Y-23360484D02*
X16352348Y-23389055D01*
X16352348Y-23389055D02*
X16333300Y-23408103D01*
X16333300Y-23408103D02*
X16314253Y-23417627D01*
X16514253Y-23541436D02*
X16523777Y-23550960D01*
X16523777Y-23550960D02*
X16514253Y-23560484D01*
X16514253Y-23560484D02*
X16504729Y-23550960D01*
X16504729Y-23550960D02*
X16514253Y-23541436D01*
X16514253Y-23541436D02*
X16514253Y-23560484D01*
X16647586Y-23360484D02*
X16666634Y-23360484D01*
X16666634Y-23360484D02*
X16685681Y-23370008D01*
X16685681Y-23370008D02*
X16695205Y-23379532D01*
X16695205Y-23379532D02*
X16704729Y-23398579D01*
X16704729Y-23398579D02*
X16714253Y-23436674D01*
X16714253Y-23436674D02*
X16714253Y-23484293D01*
X16714253Y-23484293D02*
X16704729Y-23522389D01*
X16704729Y-23522389D02*
X16695205Y-23541436D01*
X16695205Y-23541436D02*
X16685681Y-23550960D01*
X16685681Y-23550960D02*
X16666634Y-23560484D01*
X16666634Y-23560484D02*
X16647586Y-23560484D01*
X16647586Y-23560484D02*
X16628539Y-23550960D01*
X16628539Y-23550960D02*
X16619015Y-23541436D01*
X16619015Y-23541436D02*
X16609491Y-23522389D01*
X16609491Y-23522389D02*
X16599967Y-23484293D01*
X16599967Y-23484293D02*
X16599967Y-23436674D01*
X16599967Y-23436674D02*
X16609491Y-23398579D01*
X16609491Y-23398579D02*
X16619015Y-23379532D01*
X16619015Y-23379532D02*
X16628539Y-23370008D01*
X16628539Y-23370008D02*
X16647586Y-23360484D01*
X16838062Y-23360484D02*
X16857110Y-23360484D01*
X16857110Y-23360484D02*
X16876158Y-23370008D01*
X16876158Y-23370008D02*
X16885682Y-23379532D01*
X16885682Y-23379532D02*
X16895205Y-23398579D01*
X16895205Y-23398579D02*
X16904729Y-23436674D01*
X16904729Y-23436674D02*
X16904729Y-23484293D01*
X16904729Y-23484293D02*
X16895205Y-23522389D01*
X16895205Y-23522389D02*
X16885682Y-23541436D01*
X16885682Y-23541436D02*
X16876158Y-23550960D01*
X16876158Y-23550960D02*
X16857110Y-23560484D01*
X16857110Y-23560484D02*
X16838062Y-23560484D01*
X16838062Y-23560484D02*
X16819015Y-23550960D01*
X16819015Y-23550960D02*
X16809491Y-23541436D01*
X16809491Y-23541436D02*
X16799967Y-23522389D01*
X16799967Y-23522389D02*
X16790443Y-23484293D01*
X16790443Y-23484293D02*
X16790443Y-23436674D01*
X16790443Y-23436674D02*
X16799967Y-23398579D01*
X16799967Y-23398579D02*
X16809491Y-23379532D01*
X16809491Y-23379532D02*
X16819015Y-23370008D01*
X16819015Y-23370008D02*
X16838062Y-23360484D01*
X17028539Y-23360484D02*
X17047586Y-23360484D01*
X17047586Y-23360484D02*
X17066634Y-23370008D01*
X17066634Y-23370008D02*
X17076158Y-23379532D01*
X17076158Y-23379532D02*
X17085682Y-23398579D01*
X17085682Y-23398579D02*
X17095205Y-23436674D01*
X17095205Y-23436674D02*
X17095205Y-23484293D01*
X17095205Y-23484293D02*
X17085682Y-23522389D01*
X17085682Y-23522389D02*
X17076158Y-23541436D01*
X17076158Y-23541436D02*
X17066634Y-23550960D01*
X17066634Y-23550960D02*
X17047586Y-23560484D01*
X17047586Y-23560484D02*
X17028539Y-23560484D01*
X17028539Y-23560484D02*
X17009491Y-23550960D01*
X17009491Y-23550960D02*
X16999967Y-23541436D01*
X16999967Y-23541436D02*
X16990443Y-23522389D01*
X16990443Y-23522389D02*
X16980920Y-23484293D01*
X16980920Y-23484293D02*
X16980920Y-23436674D01*
X16980920Y-23436674D02*
X16990443Y-23398579D01*
X16990443Y-23398579D02*
X16999967Y-23379532D01*
X16999967Y-23379532D02*
X17009491Y-23370008D01*
X17009491Y-23370008D02*
X17028539Y-23360484D01*
X17180920Y-23560484D02*
X17180920Y-23427151D01*
X17180920Y-23446198D02*
X17190443Y-23436674D01*
X17190443Y-23436674D02*
X17209491Y-23427151D01*
X17209491Y-23427151D02*
X17238063Y-23427151D01*
X17238063Y-23427151D02*
X17257110Y-23436674D01*
X17257110Y-23436674D02*
X17266634Y-23455722D01*
X17266634Y-23455722D02*
X17266634Y-23560484D01*
X17266634Y-23455722D02*
X17276158Y-23436674D01*
X17276158Y-23436674D02*
X17295205Y-23427151D01*
X17295205Y-23427151D02*
X17323777Y-23427151D01*
X17323777Y-23427151D02*
X17342824Y-23436674D01*
X17342824Y-23436674D02*
X17352348Y-23455722D01*
X17352348Y-23455722D02*
X17352348Y-23560484D01*
X17447586Y-23560484D02*
X17447586Y-23427151D01*
X17447586Y-23446198D02*
X17457110Y-23436674D01*
X17457110Y-23436674D02*
X17476158Y-23427151D01*
X17476158Y-23427151D02*
X17504729Y-23427151D01*
X17504729Y-23427151D02*
X17523777Y-23436674D01*
X17523777Y-23436674D02*
X17533301Y-23455722D01*
X17533301Y-23455722D02*
X17533301Y-23560484D01*
X17533301Y-23455722D02*
X17542824Y-23436674D01*
X17542824Y-23436674D02*
X17561872Y-23427151D01*
X17561872Y-23427151D02*
X17590443Y-23427151D01*
X17590443Y-23427151D02*
X17609491Y-23436674D01*
X17609491Y-23436674D02*
X17619015Y-23455722D01*
X17619015Y-23455722D02*
X17619015Y-23560484D01*
X18009491Y-23350960D02*
X17838063Y-23608103D01*
X18266634Y-23360484D02*
X18285682Y-23360484D01*
X18285682Y-23360484D02*
X18304729Y-23370008D01*
X18304729Y-23370008D02*
X18314253Y-23379532D01*
X18314253Y-23379532D02*
X18323777Y-23398579D01*
X18323777Y-23398579D02*
X18333301Y-23436674D01*
X18333301Y-23436674D02*
X18333301Y-23484293D01*
X18333301Y-23484293D02*
X18323777Y-23522389D01*
X18323777Y-23522389D02*
X18314253Y-23541436D01*
X18314253Y-23541436D02*
X18304729Y-23550960D01*
X18304729Y-23550960D02*
X18285682Y-23560484D01*
X18285682Y-23560484D02*
X18266634Y-23560484D01*
X18266634Y-23560484D02*
X18247586Y-23550960D01*
X18247586Y-23550960D02*
X18238063Y-23541436D01*
X18238063Y-23541436D02*
X18228539Y-23522389D01*
X18228539Y-23522389D02*
X18219015Y-23484293D01*
X18219015Y-23484293D02*
X18219015Y-23436674D01*
X18219015Y-23436674D02*
X18228539Y-23398579D01*
X18228539Y-23398579D02*
X18238063Y-23379532D01*
X18238063Y-23379532D02*
X18247586Y-23370008D01*
X18247586Y-23370008D02*
X18266634Y-23360484D01*
X18419015Y-23541436D02*
X18428539Y-23550960D01*
X18428539Y-23550960D02*
X18419015Y-23560484D01*
X18419015Y-23560484D02*
X18409491Y-23550960D01*
X18409491Y-23550960D02*
X18419015Y-23541436D01*
X18419015Y-23541436D02*
X18419015Y-23560484D01*
X18552348Y-23360484D02*
X18571396Y-23360484D01*
X18571396Y-23360484D02*
X18590444Y-23370008D01*
X18590444Y-23370008D02*
X18599967Y-23379532D01*
X18599967Y-23379532D02*
X18609491Y-23398579D01*
X18609491Y-23398579D02*
X18619015Y-23436674D01*
X18619015Y-23436674D02*
X18619015Y-23484293D01*
X18619015Y-23484293D02*
X18609491Y-23522389D01*
X18609491Y-23522389D02*
X18599967Y-23541436D01*
X18599967Y-23541436D02*
X18590444Y-23550960D01*
X18590444Y-23550960D02*
X18571396Y-23560484D01*
X18571396Y-23560484D02*
X18552348Y-23560484D01*
X18552348Y-23560484D02*
X18533301Y-23550960D01*
X18533301Y-23550960D02*
X18523777Y-23541436D01*
X18523777Y-23541436D02*
X18514253Y-23522389D01*
X18514253Y-23522389D02*
X18504729Y-23484293D01*
X18504729Y-23484293D02*
X18504729Y-23436674D01*
X18504729Y-23436674D02*
X18514253Y-23398579D01*
X18514253Y-23398579D02*
X18523777Y-23379532D01*
X18523777Y-23379532D02*
X18533301Y-23370008D01*
X18533301Y-23370008D02*
X18552348Y-23360484D01*
X18685682Y-23360484D02*
X18809491Y-23360484D01*
X18809491Y-23360484D02*
X18742825Y-23436674D01*
X18742825Y-23436674D02*
X18771396Y-23436674D01*
X18771396Y-23436674D02*
X18790444Y-23446198D01*
X18790444Y-23446198D02*
X18799967Y-23455722D01*
X18799967Y-23455722D02*
X18809491Y-23474770D01*
X18809491Y-23474770D02*
X18809491Y-23522389D01*
X18809491Y-23522389D02*
X18799967Y-23541436D01*
X18799967Y-23541436D02*
X18790444Y-23550960D01*
X18790444Y-23550960D02*
X18771396Y-23560484D01*
X18771396Y-23560484D02*
X18714253Y-23560484D01*
X18714253Y-23560484D02*
X18695206Y-23550960D01*
X18695206Y-23550960D02*
X18685682Y-23541436D01*
X18904729Y-23560484D02*
X18942825Y-23560484D01*
X18942825Y-23560484D02*
X18961872Y-23550960D01*
X18961872Y-23550960D02*
X18971396Y-23541436D01*
X18971396Y-23541436D02*
X18990444Y-23512865D01*
X18990444Y-23512865D02*
X18999967Y-23474770D01*
X18999967Y-23474770D02*
X18999967Y-23398579D01*
X18999967Y-23398579D02*
X18990444Y-23379532D01*
X18990444Y-23379532D02*
X18980920Y-23370008D01*
X18980920Y-23370008D02*
X18961872Y-23360484D01*
X18961872Y-23360484D02*
X18923777Y-23360484D01*
X18923777Y-23360484D02*
X18904729Y-23370008D01*
X18904729Y-23370008D02*
X18895206Y-23379532D01*
X18895206Y-23379532D02*
X18885682Y-23398579D01*
X18885682Y-23398579D02*
X18885682Y-23446198D01*
X18885682Y-23446198D02*
X18895206Y-23465246D01*
X18895206Y-23465246D02*
X18904729Y-23474770D01*
X18904729Y-23474770D02*
X18923777Y-23484293D01*
X18923777Y-23484293D02*
X18961872Y-23484293D01*
X18961872Y-23484293D02*
X18980920Y-23474770D01*
X18980920Y-23474770D02*
X18990444Y-23465246D01*
X18990444Y-23465246D02*
X18999967Y-23446198D01*
X19171396Y-23427151D02*
X19171396Y-23560484D01*
X19123777Y-23350960D02*
X19076158Y-23493817D01*
X19076158Y-23493817D02*
X19199967Y-23493817D01*
X19266634Y-23360484D02*
X19266634Y-23398579D01*
X19342825Y-23360484D02*
X19342825Y-23398579D01*
X19638063Y-23636674D02*
X19628539Y-23627151D01*
X19628539Y-23627151D02*
X19609491Y-23598579D01*
X19609491Y-23598579D02*
X19599968Y-23579532D01*
X19599968Y-23579532D02*
X19590444Y-23550960D01*
X19590444Y-23550960D02*
X19580920Y-23503341D01*
X19580920Y-23503341D02*
X19580920Y-23465246D01*
X19580920Y-23465246D02*
X19590444Y-23417627D01*
X19590444Y-23417627D02*
X19599968Y-23389055D01*
X19599968Y-23389055D02*
X19609491Y-23370008D01*
X19609491Y-23370008D02*
X19628539Y-23341436D01*
X19628539Y-23341436D02*
X19638063Y-23331912D01*
X19704729Y-23379532D02*
X19714253Y-23370008D01*
X19714253Y-23370008D02*
X19733301Y-23360484D01*
X19733301Y-23360484D02*
X19780920Y-23360484D01*
X19780920Y-23360484D02*
X19799968Y-23370008D01*
X19799968Y-23370008D02*
X19809491Y-23379532D01*
X19809491Y-23379532D02*
X19819015Y-23398579D01*
X19819015Y-23398579D02*
X19819015Y-23417627D01*
X19819015Y-23417627D02*
X19809491Y-23446198D01*
X19809491Y-23446198D02*
X19695206Y-23560484D01*
X19695206Y-23560484D02*
X19819015Y-23560484D01*
X19942825Y-23360484D02*
X19961872Y-23360484D01*
X19961872Y-23360484D02*
X19980920Y-23370008D01*
X19980920Y-23370008D02*
X19990444Y-23379532D01*
X19990444Y-23379532D02*
X19999968Y-23398579D01*
X19999968Y-23398579D02*
X20009491Y-23436674D01*
X20009491Y-23436674D02*
X20009491Y-23484293D01*
X20009491Y-23484293D02*
X19999968Y-23522389D01*
X19999968Y-23522389D02*
X19990444Y-23541436D01*
X19990444Y-23541436D02*
X19980920Y-23550960D01*
X19980920Y-23550960D02*
X19961872Y-23560484D01*
X19961872Y-23560484D02*
X19942825Y-23560484D01*
X19942825Y-23560484D02*
X19923777Y-23550960D01*
X19923777Y-23550960D02*
X19914253Y-23541436D01*
X19914253Y-23541436D02*
X19904729Y-23522389D01*
X19904729Y-23522389D02*
X19895206Y-23484293D01*
X19895206Y-23484293D02*
X19895206Y-23436674D01*
X19895206Y-23436674D02*
X19904729Y-23398579D01*
X19904729Y-23398579D02*
X19914253Y-23379532D01*
X19914253Y-23379532D02*
X19923777Y-23370008D01*
X19923777Y-23370008D02*
X19942825Y-23360484D01*
X20247587Y-23560484D02*
X20247587Y-23360484D01*
X20333301Y-23560484D02*
X20333301Y-23455722D01*
X20333301Y-23455722D02*
X20323777Y-23436674D01*
X20323777Y-23436674D02*
X20304730Y-23427151D01*
X20304730Y-23427151D02*
X20276158Y-23427151D01*
X20276158Y-23427151D02*
X20257110Y-23436674D01*
X20257110Y-23436674D02*
X20247587Y-23446198D01*
X20457110Y-23560484D02*
X20438063Y-23550960D01*
X20438063Y-23550960D02*
X20428539Y-23541436D01*
X20428539Y-23541436D02*
X20419015Y-23522389D01*
X20419015Y-23522389D02*
X20419015Y-23465246D01*
X20419015Y-23465246D02*
X20428539Y-23446198D01*
X20428539Y-23446198D02*
X20438063Y-23436674D01*
X20438063Y-23436674D02*
X20457110Y-23427151D01*
X20457110Y-23427151D02*
X20485682Y-23427151D01*
X20485682Y-23427151D02*
X20504730Y-23436674D01*
X20504730Y-23436674D02*
X20514253Y-23446198D01*
X20514253Y-23446198D02*
X20523777Y-23465246D01*
X20523777Y-23465246D02*
X20523777Y-23522389D01*
X20523777Y-23522389D02*
X20514253Y-23541436D01*
X20514253Y-23541436D02*
X20504730Y-23550960D01*
X20504730Y-23550960D02*
X20485682Y-23560484D01*
X20485682Y-23560484D02*
X20457110Y-23560484D01*
X20638063Y-23560484D02*
X20619015Y-23550960D01*
X20619015Y-23550960D02*
X20609491Y-23531912D01*
X20609491Y-23531912D02*
X20609491Y-23360484D01*
X20790444Y-23550960D02*
X20771396Y-23560484D01*
X20771396Y-23560484D02*
X20733301Y-23560484D01*
X20733301Y-23560484D02*
X20714253Y-23550960D01*
X20714253Y-23550960D02*
X20704730Y-23531912D01*
X20704730Y-23531912D02*
X20704730Y-23455722D01*
X20704730Y-23455722D02*
X20714253Y-23436674D01*
X20714253Y-23436674D02*
X20733301Y-23427151D01*
X20733301Y-23427151D02*
X20771396Y-23427151D01*
X20771396Y-23427151D02*
X20790444Y-23436674D01*
X20790444Y-23436674D02*
X20799968Y-23455722D01*
X20799968Y-23455722D02*
X20799968Y-23474770D01*
X20799968Y-23474770D02*
X20704730Y-23493817D01*
X20876158Y-23550960D02*
X20895206Y-23560484D01*
X20895206Y-23560484D02*
X20933301Y-23560484D01*
X20933301Y-23560484D02*
X20952349Y-23550960D01*
X20952349Y-23550960D02*
X20961872Y-23531912D01*
X20961872Y-23531912D02*
X20961872Y-23522389D01*
X20961872Y-23522389D02*
X20952349Y-23503341D01*
X20952349Y-23503341D02*
X20933301Y-23493817D01*
X20933301Y-23493817D02*
X20904730Y-23493817D01*
X20904730Y-23493817D02*
X20885682Y-23484293D01*
X20885682Y-23484293D02*
X20876158Y-23465246D01*
X20876158Y-23465246D02*
X20876158Y-23455722D01*
X20876158Y-23455722D02*
X20885682Y-23436674D01*
X20885682Y-23436674D02*
X20904730Y-23427151D01*
X20904730Y-23427151D02*
X20933301Y-23427151D01*
X20933301Y-23427151D02*
X20952349Y-23436674D01*
X21028539Y-23636674D02*
X21038063Y-23627151D01*
X21038063Y-23627151D02*
X21057111Y-23598579D01*
X21057111Y-23598579D02*
X21066634Y-23579532D01*
X21066634Y-23579532D02*
X21076158Y-23550960D01*
X21076158Y-23550960D02*
X21085682Y-23503341D01*
X21085682Y-23503341D02*
X21085682Y-23465246D01*
X21085682Y-23465246D02*
X21076158Y-23417627D01*
X21076158Y-23417627D02*
X21066634Y-23389055D01*
X21066634Y-23389055D02*
X21057111Y-23370008D01*
X21057111Y-23370008D02*
X21038063Y-23341436D01*
X21038063Y-23341436D02*
X21028539Y-23331912D01*
D13*
X15988000Y-23808000D02*
X16063000Y-23733000D01*
X15988000Y-23658000D01*
X15913000Y-23733000D01*
X15988000Y-23808000D01*
D11*
X16428539Y-23824484D02*
X16314253Y-23824484D01*
X16371396Y-23824484D02*
X16371396Y-23624484D01*
X16371396Y-23624484D02*
X16352348Y-23653055D01*
X16352348Y-23653055D02*
X16333300Y-23672103D01*
X16333300Y-23672103D02*
X16314253Y-23681627D01*
X16514253Y-23805436D02*
X16523777Y-23814960D01*
X16523777Y-23814960D02*
X16514253Y-23824484D01*
X16514253Y-23824484D02*
X16504729Y-23814960D01*
X16504729Y-23814960D02*
X16514253Y-23805436D01*
X16514253Y-23805436D02*
X16514253Y-23824484D01*
X16704729Y-23624484D02*
X16609491Y-23624484D01*
X16609491Y-23624484D02*
X16599967Y-23719722D01*
X16599967Y-23719722D02*
X16609491Y-23710198D01*
X16609491Y-23710198D02*
X16628539Y-23700674D01*
X16628539Y-23700674D02*
X16676158Y-23700674D01*
X16676158Y-23700674D02*
X16695205Y-23710198D01*
X16695205Y-23710198D02*
X16704729Y-23719722D01*
X16704729Y-23719722D02*
X16714253Y-23738770D01*
X16714253Y-23738770D02*
X16714253Y-23786389D01*
X16714253Y-23786389D02*
X16704729Y-23805436D01*
X16704729Y-23805436D02*
X16695205Y-23814960D01*
X16695205Y-23814960D02*
X16676158Y-23824484D01*
X16676158Y-23824484D02*
X16628539Y-23824484D01*
X16628539Y-23824484D02*
X16609491Y-23814960D01*
X16609491Y-23814960D02*
X16599967Y-23805436D01*
X16838062Y-23624484D02*
X16857110Y-23624484D01*
X16857110Y-23624484D02*
X16876158Y-23634008D01*
X16876158Y-23634008D02*
X16885682Y-23643532D01*
X16885682Y-23643532D02*
X16895205Y-23662579D01*
X16895205Y-23662579D02*
X16904729Y-23700674D01*
X16904729Y-23700674D02*
X16904729Y-23748293D01*
X16904729Y-23748293D02*
X16895205Y-23786389D01*
X16895205Y-23786389D02*
X16885682Y-23805436D01*
X16885682Y-23805436D02*
X16876158Y-23814960D01*
X16876158Y-23814960D02*
X16857110Y-23824484D01*
X16857110Y-23824484D02*
X16838062Y-23824484D01*
X16838062Y-23824484D02*
X16819015Y-23814960D01*
X16819015Y-23814960D02*
X16809491Y-23805436D01*
X16809491Y-23805436D02*
X16799967Y-23786389D01*
X16799967Y-23786389D02*
X16790443Y-23748293D01*
X16790443Y-23748293D02*
X16790443Y-23700674D01*
X16790443Y-23700674D02*
X16799967Y-23662579D01*
X16799967Y-23662579D02*
X16809491Y-23643532D01*
X16809491Y-23643532D02*
X16819015Y-23634008D01*
X16819015Y-23634008D02*
X16838062Y-23624484D01*
X17028539Y-23624484D02*
X17047586Y-23624484D01*
X17047586Y-23624484D02*
X17066634Y-23634008D01*
X17066634Y-23634008D02*
X17076158Y-23643532D01*
X17076158Y-23643532D02*
X17085682Y-23662579D01*
X17085682Y-23662579D02*
X17095205Y-23700674D01*
X17095205Y-23700674D02*
X17095205Y-23748293D01*
X17095205Y-23748293D02*
X17085682Y-23786389D01*
X17085682Y-23786389D02*
X17076158Y-23805436D01*
X17076158Y-23805436D02*
X17066634Y-23814960D01*
X17066634Y-23814960D02*
X17047586Y-23824484D01*
X17047586Y-23824484D02*
X17028539Y-23824484D01*
X17028539Y-23824484D02*
X17009491Y-23814960D01*
X17009491Y-23814960D02*
X16999967Y-23805436D01*
X16999967Y-23805436D02*
X16990443Y-23786389D01*
X16990443Y-23786389D02*
X16980920Y-23748293D01*
X16980920Y-23748293D02*
X16980920Y-23700674D01*
X16980920Y-23700674D02*
X16990443Y-23662579D01*
X16990443Y-23662579D02*
X16999967Y-23643532D01*
X16999967Y-23643532D02*
X17009491Y-23634008D01*
X17009491Y-23634008D02*
X17028539Y-23624484D01*
X17180920Y-23824484D02*
X17180920Y-23691151D01*
X17180920Y-23710198D02*
X17190443Y-23700674D01*
X17190443Y-23700674D02*
X17209491Y-23691151D01*
X17209491Y-23691151D02*
X17238063Y-23691151D01*
X17238063Y-23691151D02*
X17257110Y-23700674D01*
X17257110Y-23700674D02*
X17266634Y-23719722D01*
X17266634Y-23719722D02*
X17266634Y-23824484D01*
X17266634Y-23719722D02*
X17276158Y-23700674D01*
X17276158Y-23700674D02*
X17295205Y-23691151D01*
X17295205Y-23691151D02*
X17323777Y-23691151D01*
X17323777Y-23691151D02*
X17342824Y-23700674D01*
X17342824Y-23700674D02*
X17352348Y-23719722D01*
X17352348Y-23719722D02*
X17352348Y-23824484D01*
X17447586Y-23824484D02*
X17447586Y-23691151D01*
X17447586Y-23710198D02*
X17457110Y-23700674D01*
X17457110Y-23700674D02*
X17476158Y-23691151D01*
X17476158Y-23691151D02*
X17504729Y-23691151D01*
X17504729Y-23691151D02*
X17523777Y-23700674D01*
X17523777Y-23700674D02*
X17533301Y-23719722D01*
X17533301Y-23719722D02*
X17533301Y-23824484D01*
X17533301Y-23719722D02*
X17542824Y-23700674D01*
X17542824Y-23700674D02*
X17561872Y-23691151D01*
X17561872Y-23691151D02*
X17590443Y-23691151D01*
X17590443Y-23691151D02*
X17609491Y-23700674D01*
X17609491Y-23700674D02*
X17619015Y-23719722D01*
X17619015Y-23719722D02*
X17619015Y-23824484D01*
X18009491Y-23614960D02*
X17838063Y-23872103D01*
X18266634Y-23624484D02*
X18285682Y-23624484D01*
X18285682Y-23624484D02*
X18304729Y-23634008D01*
X18304729Y-23634008D02*
X18314253Y-23643532D01*
X18314253Y-23643532D02*
X18323777Y-23662579D01*
X18323777Y-23662579D02*
X18333301Y-23700674D01*
X18333301Y-23700674D02*
X18333301Y-23748293D01*
X18333301Y-23748293D02*
X18323777Y-23786389D01*
X18323777Y-23786389D02*
X18314253Y-23805436D01*
X18314253Y-23805436D02*
X18304729Y-23814960D01*
X18304729Y-23814960D02*
X18285682Y-23824484D01*
X18285682Y-23824484D02*
X18266634Y-23824484D01*
X18266634Y-23824484D02*
X18247586Y-23814960D01*
X18247586Y-23814960D02*
X18238063Y-23805436D01*
X18238063Y-23805436D02*
X18228539Y-23786389D01*
X18228539Y-23786389D02*
X18219015Y-23748293D01*
X18219015Y-23748293D02*
X18219015Y-23700674D01*
X18219015Y-23700674D02*
X18228539Y-23662579D01*
X18228539Y-23662579D02*
X18238063Y-23643532D01*
X18238063Y-23643532D02*
X18247586Y-23634008D01*
X18247586Y-23634008D02*
X18266634Y-23624484D01*
X18419015Y-23805436D02*
X18428539Y-23814960D01*
X18428539Y-23814960D02*
X18419015Y-23824484D01*
X18419015Y-23824484D02*
X18409491Y-23814960D01*
X18409491Y-23814960D02*
X18419015Y-23805436D01*
X18419015Y-23805436D02*
X18419015Y-23824484D01*
X18552348Y-23624484D02*
X18571396Y-23624484D01*
X18571396Y-23624484D02*
X18590444Y-23634008D01*
X18590444Y-23634008D02*
X18599967Y-23643532D01*
X18599967Y-23643532D02*
X18609491Y-23662579D01*
X18609491Y-23662579D02*
X18619015Y-23700674D01*
X18619015Y-23700674D02*
X18619015Y-23748293D01*
X18619015Y-23748293D02*
X18609491Y-23786389D01*
X18609491Y-23786389D02*
X18599967Y-23805436D01*
X18599967Y-23805436D02*
X18590444Y-23814960D01*
X18590444Y-23814960D02*
X18571396Y-23824484D01*
X18571396Y-23824484D02*
X18552348Y-23824484D01*
X18552348Y-23824484D02*
X18533301Y-23814960D01*
X18533301Y-23814960D02*
X18523777Y-23805436D01*
X18523777Y-23805436D02*
X18514253Y-23786389D01*
X18514253Y-23786389D02*
X18504729Y-23748293D01*
X18504729Y-23748293D02*
X18504729Y-23700674D01*
X18504729Y-23700674D02*
X18514253Y-23662579D01*
X18514253Y-23662579D02*
X18523777Y-23643532D01*
X18523777Y-23643532D02*
X18533301Y-23634008D01*
X18533301Y-23634008D02*
X18552348Y-23624484D01*
X18799967Y-23624484D02*
X18704729Y-23624484D01*
X18704729Y-23624484D02*
X18695206Y-23719722D01*
X18695206Y-23719722D02*
X18704729Y-23710198D01*
X18704729Y-23710198D02*
X18723777Y-23700674D01*
X18723777Y-23700674D02*
X18771396Y-23700674D01*
X18771396Y-23700674D02*
X18790444Y-23710198D01*
X18790444Y-23710198D02*
X18799967Y-23719722D01*
X18799967Y-23719722D02*
X18809491Y-23738770D01*
X18809491Y-23738770D02*
X18809491Y-23786389D01*
X18809491Y-23786389D02*
X18799967Y-23805436D01*
X18799967Y-23805436D02*
X18790444Y-23814960D01*
X18790444Y-23814960D02*
X18771396Y-23824484D01*
X18771396Y-23824484D02*
X18723777Y-23824484D01*
X18723777Y-23824484D02*
X18704729Y-23814960D01*
X18704729Y-23814960D02*
X18695206Y-23805436D01*
X18904729Y-23824484D02*
X18942825Y-23824484D01*
X18942825Y-23824484D02*
X18961872Y-23814960D01*
X18961872Y-23814960D02*
X18971396Y-23805436D01*
X18971396Y-23805436D02*
X18990444Y-23776865D01*
X18990444Y-23776865D02*
X18999967Y-23738770D01*
X18999967Y-23738770D02*
X18999967Y-23662579D01*
X18999967Y-23662579D02*
X18990444Y-23643532D01*
X18990444Y-23643532D02*
X18980920Y-23634008D01*
X18980920Y-23634008D02*
X18961872Y-23624484D01*
X18961872Y-23624484D02*
X18923777Y-23624484D01*
X18923777Y-23624484D02*
X18904729Y-23634008D01*
X18904729Y-23634008D02*
X18895206Y-23643532D01*
X18895206Y-23643532D02*
X18885682Y-23662579D01*
X18885682Y-23662579D02*
X18885682Y-23710198D01*
X18885682Y-23710198D02*
X18895206Y-23729246D01*
X18895206Y-23729246D02*
X18904729Y-23738770D01*
X18904729Y-23738770D02*
X18923777Y-23748293D01*
X18923777Y-23748293D02*
X18961872Y-23748293D01*
X18961872Y-23748293D02*
X18980920Y-23738770D01*
X18980920Y-23738770D02*
X18990444Y-23729246D01*
X18990444Y-23729246D02*
X18999967Y-23710198D01*
X19190444Y-23824484D02*
X19076158Y-23824484D01*
X19133301Y-23824484D02*
X19133301Y-23624484D01*
X19133301Y-23624484D02*
X19114253Y-23653055D01*
X19114253Y-23653055D02*
X19095206Y-23672103D01*
X19095206Y-23672103D02*
X19076158Y-23681627D01*
X19266634Y-23624484D02*
X19266634Y-23662579D01*
X19342825Y-23624484D02*
X19342825Y-23662579D01*
X19638063Y-23900674D02*
X19628539Y-23891151D01*
X19628539Y-23891151D02*
X19609491Y-23862579D01*
X19609491Y-23862579D02*
X19599968Y-23843532D01*
X19599968Y-23843532D02*
X19590444Y-23814960D01*
X19590444Y-23814960D02*
X19580920Y-23767341D01*
X19580920Y-23767341D02*
X19580920Y-23729246D01*
X19580920Y-23729246D02*
X19590444Y-23681627D01*
X19590444Y-23681627D02*
X19599968Y-23653055D01*
X19599968Y-23653055D02*
X19609491Y-23634008D01*
X19609491Y-23634008D02*
X19628539Y-23605436D01*
X19628539Y-23605436D02*
X19638063Y-23595912D01*
X19752348Y-23624484D02*
X19771396Y-23624484D01*
X19771396Y-23624484D02*
X19790444Y-23634008D01*
X19790444Y-23634008D02*
X19799968Y-23643532D01*
X19799968Y-23643532D02*
X19809491Y-23662579D01*
X19809491Y-23662579D02*
X19819015Y-23700674D01*
X19819015Y-23700674D02*
X19819015Y-23748293D01*
X19819015Y-23748293D02*
X19809491Y-23786389D01*
X19809491Y-23786389D02*
X19799968Y-23805436D01*
X19799968Y-23805436D02*
X19790444Y-23814960D01*
X19790444Y-23814960D02*
X19771396Y-23824484D01*
X19771396Y-23824484D02*
X19752348Y-23824484D01*
X19752348Y-23824484D02*
X19733301Y-23814960D01*
X19733301Y-23814960D02*
X19723777Y-23805436D01*
X19723777Y-23805436D02*
X19714253Y-23786389D01*
X19714253Y-23786389D02*
X19704729Y-23748293D01*
X19704729Y-23748293D02*
X19704729Y-23700674D01*
X19704729Y-23700674D02*
X19714253Y-23662579D01*
X19714253Y-23662579D02*
X19723777Y-23643532D01*
X19723777Y-23643532D02*
X19733301Y-23634008D01*
X19733301Y-23634008D02*
X19752348Y-23624484D01*
X20057110Y-23824484D02*
X20057110Y-23624484D01*
X20142825Y-23824484D02*
X20142825Y-23719722D01*
X20142825Y-23719722D02*
X20133301Y-23700674D01*
X20133301Y-23700674D02*
X20114253Y-23691151D01*
X20114253Y-23691151D02*
X20085682Y-23691151D01*
X20085682Y-23691151D02*
X20066634Y-23700674D01*
X20066634Y-23700674D02*
X20057110Y-23710198D01*
X20266634Y-23824484D02*
X20247587Y-23814960D01*
X20247587Y-23814960D02*
X20238063Y-23805436D01*
X20238063Y-23805436D02*
X20228539Y-23786389D01*
X20228539Y-23786389D02*
X20228539Y-23729246D01*
X20228539Y-23729246D02*
X20238063Y-23710198D01*
X20238063Y-23710198D02*
X20247587Y-23700674D01*
X20247587Y-23700674D02*
X20266634Y-23691151D01*
X20266634Y-23691151D02*
X20295206Y-23691151D01*
X20295206Y-23691151D02*
X20314253Y-23700674D01*
X20314253Y-23700674D02*
X20323777Y-23710198D01*
X20323777Y-23710198D02*
X20333301Y-23729246D01*
X20333301Y-23729246D02*
X20333301Y-23786389D01*
X20333301Y-23786389D02*
X20323777Y-23805436D01*
X20323777Y-23805436D02*
X20314253Y-23814960D01*
X20314253Y-23814960D02*
X20295206Y-23824484D01*
X20295206Y-23824484D02*
X20266634Y-23824484D01*
X20447587Y-23824484D02*
X20428539Y-23814960D01*
X20428539Y-23814960D02*
X20419015Y-23795912D01*
X20419015Y-23795912D02*
X20419015Y-23624484D01*
X20599968Y-23814960D02*
X20580920Y-23824484D01*
X20580920Y-23824484D02*
X20542825Y-23824484D01*
X20542825Y-23824484D02*
X20523777Y-23814960D01*
X20523777Y-23814960D02*
X20514253Y-23795912D01*
X20514253Y-23795912D02*
X20514253Y-23719722D01*
X20514253Y-23719722D02*
X20523777Y-23700674D01*
X20523777Y-23700674D02*
X20542825Y-23691151D01*
X20542825Y-23691151D02*
X20580920Y-23691151D01*
X20580920Y-23691151D02*
X20599968Y-23700674D01*
X20599968Y-23700674D02*
X20609491Y-23719722D01*
X20609491Y-23719722D02*
X20609491Y-23738770D01*
X20609491Y-23738770D02*
X20514253Y-23757817D01*
X20685682Y-23814960D02*
X20704730Y-23824484D01*
X20704730Y-23824484D02*
X20742825Y-23824484D01*
X20742825Y-23824484D02*
X20761872Y-23814960D01*
X20761872Y-23814960D02*
X20771396Y-23795912D01*
X20771396Y-23795912D02*
X20771396Y-23786389D01*
X20771396Y-23786389D02*
X20761872Y-23767341D01*
X20761872Y-23767341D02*
X20742825Y-23757817D01*
X20742825Y-23757817D02*
X20714253Y-23757817D01*
X20714253Y-23757817D02*
X20695206Y-23748293D01*
X20695206Y-23748293D02*
X20685682Y-23729246D01*
X20685682Y-23729246D02*
X20685682Y-23719722D01*
X20685682Y-23719722D02*
X20695206Y-23700674D01*
X20695206Y-23700674D02*
X20714253Y-23691151D01*
X20714253Y-23691151D02*
X20742825Y-23691151D01*
X20742825Y-23691151D02*
X20761872Y-23700674D01*
X21009492Y-23748293D02*
X21161873Y-23748293D01*
X21085682Y-23824484D02*
X21085682Y-23672103D01*
X21438063Y-23710198D02*
X21419015Y-23700674D01*
X21419015Y-23700674D02*
X21409492Y-23691151D01*
X21409492Y-23691151D02*
X21399968Y-23672103D01*
X21399968Y-23672103D02*
X21399968Y-23662579D01*
X21399968Y-23662579D02*
X21409492Y-23643532D01*
X21409492Y-23643532D02*
X21419015Y-23634008D01*
X21419015Y-23634008D02*
X21438063Y-23624484D01*
X21438063Y-23624484D02*
X21476158Y-23624484D01*
X21476158Y-23624484D02*
X21495206Y-23634008D01*
X21495206Y-23634008D02*
X21504730Y-23643532D01*
X21504730Y-23643532D02*
X21514253Y-23662579D01*
X21514253Y-23662579D02*
X21514253Y-23672103D01*
X21514253Y-23672103D02*
X21504730Y-23691151D01*
X21504730Y-23691151D02*
X21495206Y-23700674D01*
X21495206Y-23700674D02*
X21476158Y-23710198D01*
X21476158Y-23710198D02*
X21438063Y-23710198D01*
X21438063Y-23710198D02*
X21419015Y-23719722D01*
X21419015Y-23719722D02*
X21409492Y-23729246D01*
X21409492Y-23729246D02*
X21399968Y-23748293D01*
X21399968Y-23748293D02*
X21399968Y-23786389D01*
X21399968Y-23786389D02*
X21409492Y-23805436D01*
X21409492Y-23805436D02*
X21419015Y-23814960D01*
X21419015Y-23814960D02*
X21438063Y-23824484D01*
X21438063Y-23824484D02*
X21476158Y-23824484D01*
X21476158Y-23824484D02*
X21495206Y-23814960D01*
X21495206Y-23814960D02*
X21504730Y-23805436D01*
X21504730Y-23805436D02*
X21514253Y-23786389D01*
X21514253Y-23786389D02*
X21514253Y-23748293D01*
X21514253Y-23748293D02*
X21504730Y-23729246D01*
X21504730Y-23729246D02*
X21495206Y-23719722D01*
X21495206Y-23719722D02*
X21476158Y-23710198D01*
X21742825Y-23814960D02*
X21761873Y-23824484D01*
X21761873Y-23824484D02*
X21799968Y-23824484D01*
X21799968Y-23824484D02*
X21819015Y-23814960D01*
X21819015Y-23814960D02*
X21828539Y-23795912D01*
X21828539Y-23795912D02*
X21828539Y-23786389D01*
X21828539Y-23786389D02*
X21819015Y-23767341D01*
X21819015Y-23767341D02*
X21799968Y-23757817D01*
X21799968Y-23757817D02*
X21771396Y-23757817D01*
X21771396Y-23757817D02*
X21752349Y-23748293D01*
X21752349Y-23748293D02*
X21742825Y-23729246D01*
X21742825Y-23729246D02*
X21742825Y-23719722D01*
X21742825Y-23719722D02*
X21752349Y-23700674D01*
X21752349Y-23700674D02*
X21771396Y-23691151D01*
X21771396Y-23691151D02*
X21799968Y-23691151D01*
X21799968Y-23691151D02*
X21819015Y-23700674D01*
X21942825Y-23824484D02*
X21923777Y-23814960D01*
X21923777Y-23814960D02*
X21914254Y-23795912D01*
X21914254Y-23795912D02*
X21914254Y-23624484D01*
X22047587Y-23824484D02*
X22028539Y-23814960D01*
X22028539Y-23814960D02*
X22019015Y-23805436D01*
X22019015Y-23805436D02*
X22009492Y-23786389D01*
X22009492Y-23786389D02*
X22009492Y-23729246D01*
X22009492Y-23729246D02*
X22019015Y-23710198D01*
X22019015Y-23710198D02*
X22028539Y-23700674D01*
X22028539Y-23700674D02*
X22047587Y-23691151D01*
X22047587Y-23691151D02*
X22076158Y-23691151D01*
X22076158Y-23691151D02*
X22095206Y-23700674D01*
X22095206Y-23700674D02*
X22104730Y-23710198D01*
X22104730Y-23710198D02*
X22114254Y-23729246D01*
X22114254Y-23729246D02*
X22114254Y-23786389D01*
X22114254Y-23786389D02*
X22104730Y-23805436D01*
X22104730Y-23805436D02*
X22095206Y-23814960D01*
X22095206Y-23814960D02*
X22076158Y-23824484D01*
X22076158Y-23824484D02*
X22047587Y-23824484D01*
X22171396Y-23691151D02*
X22247587Y-23691151D01*
X22199968Y-23624484D02*
X22199968Y-23795912D01*
X22199968Y-23795912D02*
X22209492Y-23814960D01*
X22209492Y-23814960D02*
X22228539Y-23824484D01*
X22228539Y-23824484D02*
X22247587Y-23824484D01*
X22304730Y-23814960D02*
X22323777Y-23824484D01*
X22323777Y-23824484D02*
X22361873Y-23824484D01*
X22361873Y-23824484D02*
X22380920Y-23814960D01*
X22380920Y-23814960D02*
X22390444Y-23795912D01*
X22390444Y-23795912D02*
X22390444Y-23786389D01*
X22390444Y-23786389D02*
X22380920Y-23767341D01*
X22380920Y-23767341D02*
X22361873Y-23757817D01*
X22361873Y-23757817D02*
X22333301Y-23757817D01*
X22333301Y-23757817D02*
X22314254Y-23748293D01*
X22314254Y-23748293D02*
X22304730Y-23729246D01*
X22304730Y-23729246D02*
X22304730Y-23719722D01*
X22304730Y-23719722D02*
X22314254Y-23700674D01*
X22314254Y-23700674D02*
X22333301Y-23691151D01*
X22333301Y-23691151D02*
X22361873Y-23691151D01*
X22361873Y-23691151D02*
X22380920Y-23700674D01*
X22457111Y-23900674D02*
X22466634Y-23891151D01*
X22466634Y-23891151D02*
X22485682Y-23862579D01*
X22485682Y-23862579D02*
X22495206Y-23843532D01*
X22495206Y-23843532D02*
X22504730Y-23814960D01*
X22504730Y-23814960D02*
X22514253Y-23767341D01*
X22514253Y-23767341D02*
X22514253Y-23729246D01*
X22514253Y-23729246D02*
X22504730Y-23681627D01*
X22504730Y-23681627D02*
X22495206Y-23653055D01*
X22495206Y-23653055D02*
X22485682Y-23634008D01*
X22485682Y-23634008D02*
X22466634Y-23605436D01*
X22466634Y-23605436D02*
X22457111Y-23595912D01*
D14*
X15910600Y-23926800D02*
X16063000Y-24079200D01*
X16063000Y-23926800D02*
X15910600Y-24079200D01*
X16063000Y-24003000D02*
G75*
G02*
X15910600Y-24003000I-76200J0D01*
G01*
X15910600Y-24003000D02*
G75*
G02*
X16063000Y-24003000I76200J0D01*
G01*
D11*
X16428539Y-24094484D02*
X16314253Y-24094484D01*
X16371396Y-24094484D02*
X16371396Y-23894484D01*
X16371396Y-23894484D02*
X16352348Y-23923055D01*
X16352348Y-23923055D02*
X16333300Y-23942103D01*
X16333300Y-23942103D02*
X16314253Y-23951627D01*
X16514253Y-24075436D02*
X16523777Y-24084960D01*
X16523777Y-24084960D02*
X16514253Y-24094484D01*
X16514253Y-24094484D02*
X16504729Y-24084960D01*
X16504729Y-24084960D02*
X16514253Y-24075436D01*
X16514253Y-24075436D02*
X16514253Y-24094484D01*
X16704729Y-23894484D02*
X16609491Y-23894484D01*
X16609491Y-23894484D02*
X16599967Y-23989722D01*
X16599967Y-23989722D02*
X16609491Y-23980198D01*
X16609491Y-23980198D02*
X16628539Y-23970674D01*
X16628539Y-23970674D02*
X16676158Y-23970674D01*
X16676158Y-23970674D02*
X16695205Y-23980198D01*
X16695205Y-23980198D02*
X16704729Y-23989722D01*
X16704729Y-23989722D02*
X16714253Y-24008770D01*
X16714253Y-24008770D02*
X16714253Y-24056389D01*
X16714253Y-24056389D02*
X16704729Y-24075436D01*
X16704729Y-24075436D02*
X16695205Y-24084960D01*
X16695205Y-24084960D02*
X16676158Y-24094484D01*
X16676158Y-24094484D02*
X16628539Y-24094484D01*
X16628539Y-24094484D02*
X16609491Y-24084960D01*
X16609491Y-24084960D02*
X16599967Y-24075436D01*
X16790443Y-23913532D02*
X16799967Y-23904008D01*
X16799967Y-23904008D02*
X16819015Y-23894484D01*
X16819015Y-23894484D02*
X16866634Y-23894484D01*
X16866634Y-23894484D02*
X16885682Y-23904008D01*
X16885682Y-23904008D02*
X16895205Y-23913532D01*
X16895205Y-23913532D02*
X16904729Y-23932579D01*
X16904729Y-23932579D02*
X16904729Y-23951627D01*
X16904729Y-23951627D02*
X16895205Y-23980198D01*
X16895205Y-23980198D02*
X16780920Y-24094484D01*
X16780920Y-24094484D02*
X16904729Y-24094484D01*
X17076158Y-23961151D02*
X17076158Y-24094484D01*
X17028539Y-23884960D02*
X16980920Y-24027817D01*
X16980920Y-24027817D02*
X17104729Y-24027817D01*
X17180920Y-24094484D02*
X17180920Y-23961151D01*
X17180920Y-23980198D02*
X17190443Y-23970674D01*
X17190443Y-23970674D02*
X17209491Y-23961151D01*
X17209491Y-23961151D02*
X17238063Y-23961151D01*
X17238063Y-23961151D02*
X17257110Y-23970674D01*
X17257110Y-23970674D02*
X17266634Y-23989722D01*
X17266634Y-23989722D02*
X17266634Y-24094484D01*
X17266634Y-23989722D02*
X17276158Y-23970674D01*
X17276158Y-23970674D02*
X17295205Y-23961151D01*
X17295205Y-23961151D02*
X17323777Y-23961151D01*
X17323777Y-23961151D02*
X17342824Y-23970674D01*
X17342824Y-23970674D02*
X17352348Y-23989722D01*
X17352348Y-23989722D02*
X17352348Y-24094484D01*
X17447586Y-24094484D02*
X17447586Y-23961151D01*
X17447586Y-23980198D02*
X17457110Y-23970674D01*
X17457110Y-23970674D02*
X17476158Y-23961151D01*
X17476158Y-23961151D02*
X17504729Y-23961151D01*
X17504729Y-23961151D02*
X17523777Y-23970674D01*
X17523777Y-23970674D02*
X17533301Y-23989722D01*
X17533301Y-23989722D02*
X17533301Y-24094484D01*
X17533301Y-23989722D02*
X17542824Y-23970674D01*
X17542824Y-23970674D02*
X17561872Y-23961151D01*
X17561872Y-23961151D02*
X17590443Y-23961151D01*
X17590443Y-23961151D02*
X17609491Y-23970674D01*
X17609491Y-23970674D02*
X17619015Y-23989722D01*
X17619015Y-23989722D02*
X17619015Y-24094484D01*
X18009491Y-23884960D02*
X17838063Y-24142103D01*
X18266634Y-23894484D02*
X18285682Y-23894484D01*
X18285682Y-23894484D02*
X18304729Y-23904008D01*
X18304729Y-23904008D02*
X18314253Y-23913532D01*
X18314253Y-23913532D02*
X18323777Y-23932579D01*
X18323777Y-23932579D02*
X18333301Y-23970674D01*
X18333301Y-23970674D02*
X18333301Y-24018293D01*
X18333301Y-24018293D02*
X18323777Y-24056389D01*
X18323777Y-24056389D02*
X18314253Y-24075436D01*
X18314253Y-24075436D02*
X18304729Y-24084960D01*
X18304729Y-24084960D02*
X18285682Y-24094484D01*
X18285682Y-24094484D02*
X18266634Y-24094484D01*
X18266634Y-24094484D02*
X18247586Y-24084960D01*
X18247586Y-24084960D02*
X18238063Y-24075436D01*
X18238063Y-24075436D02*
X18228539Y-24056389D01*
X18228539Y-24056389D02*
X18219015Y-24018293D01*
X18219015Y-24018293D02*
X18219015Y-23970674D01*
X18219015Y-23970674D02*
X18228539Y-23932579D01*
X18228539Y-23932579D02*
X18238063Y-23913532D01*
X18238063Y-23913532D02*
X18247586Y-23904008D01*
X18247586Y-23904008D02*
X18266634Y-23894484D01*
X18419015Y-24075436D02*
X18428539Y-24084960D01*
X18428539Y-24084960D02*
X18419015Y-24094484D01*
X18419015Y-24094484D02*
X18409491Y-24084960D01*
X18409491Y-24084960D02*
X18419015Y-24075436D01*
X18419015Y-24075436D02*
X18419015Y-24094484D01*
X18552348Y-23894484D02*
X18571396Y-23894484D01*
X18571396Y-23894484D02*
X18590444Y-23904008D01*
X18590444Y-23904008D02*
X18599967Y-23913532D01*
X18599967Y-23913532D02*
X18609491Y-23932579D01*
X18609491Y-23932579D02*
X18619015Y-23970674D01*
X18619015Y-23970674D02*
X18619015Y-24018293D01*
X18619015Y-24018293D02*
X18609491Y-24056389D01*
X18609491Y-24056389D02*
X18599967Y-24075436D01*
X18599967Y-24075436D02*
X18590444Y-24084960D01*
X18590444Y-24084960D02*
X18571396Y-24094484D01*
X18571396Y-24094484D02*
X18552348Y-24094484D01*
X18552348Y-24094484D02*
X18533301Y-24084960D01*
X18533301Y-24084960D02*
X18523777Y-24075436D01*
X18523777Y-24075436D02*
X18514253Y-24056389D01*
X18514253Y-24056389D02*
X18504729Y-24018293D01*
X18504729Y-24018293D02*
X18504729Y-23970674D01*
X18504729Y-23970674D02*
X18514253Y-23932579D01*
X18514253Y-23932579D02*
X18523777Y-23913532D01*
X18523777Y-23913532D02*
X18533301Y-23904008D01*
X18533301Y-23904008D02*
X18552348Y-23894484D01*
X18790444Y-23894484D02*
X18752348Y-23894484D01*
X18752348Y-23894484D02*
X18733301Y-23904008D01*
X18733301Y-23904008D02*
X18723777Y-23913532D01*
X18723777Y-23913532D02*
X18704729Y-23942103D01*
X18704729Y-23942103D02*
X18695206Y-23980198D01*
X18695206Y-23980198D02*
X18695206Y-24056389D01*
X18695206Y-24056389D02*
X18704729Y-24075436D01*
X18704729Y-24075436D02*
X18714253Y-24084960D01*
X18714253Y-24084960D02*
X18733301Y-24094484D01*
X18733301Y-24094484D02*
X18771396Y-24094484D01*
X18771396Y-24094484D02*
X18790444Y-24084960D01*
X18790444Y-24084960D02*
X18799967Y-24075436D01*
X18799967Y-24075436D02*
X18809491Y-24056389D01*
X18809491Y-24056389D02*
X18809491Y-24008770D01*
X18809491Y-24008770D02*
X18799967Y-23989722D01*
X18799967Y-23989722D02*
X18790444Y-23980198D01*
X18790444Y-23980198D02*
X18771396Y-23970674D01*
X18771396Y-23970674D02*
X18733301Y-23970674D01*
X18733301Y-23970674D02*
X18714253Y-23980198D01*
X18714253Y-23980198D02*
X18704729Y-23989722D01*
X18704729Y-23989722D02*
X18695206Y-24008770D01*
X18933301Y-23894484D02*
X18952348Y-23894484D01*
X18952348Y-23894484D02*
X18971396Y-23904008D01*
X18971396Y-23904008D02*
X18980920Y-23913532D01*
X18980920Y-23913532D02*
X18990444Y-23932579D01*
X18990444Y-23932579D02*
X18999967Y-23970674D01*
X18999967Y-23970674D02*
X18999967Y-24018293D01*
X18999967Y-24018293D02*
X18990444Y-24056389D01*
X18990444Y-24056389D02*
X18980920Y-24075436D01*
X18980920Y-24075436D02*
X18971396Y-24084960D01*
X18971396Y-24084960D02*
X18952348Y-24094484D01*
X18952348Y-24094484D02*
X18933301Y-24094484D01*
X18933301Y-24094484D02*
X18914253Y-24084960D01*
X18914253Y-24084960D02*
X18904729Y-24075436D01*
X18904729Y-24075436D02*
X18895206Y-24056389D01*
X18895206Y-24056389D02*
X18885682Y-24018293D01*
X18885682Y-24018293D02*
X18885682Y-23970674D01*
X18885682Y-23970674D02*
X18895206Y-23932579D01*
X18895206Y-23932579D02*
X18904729Y-23913532D01*
X18904729Y-23913532D02*
X18914253Y-23904008D01*
X18914253Y-23904008D02*
X18933301Y-23894484D01*
X19123777Y-23894484D02*
X19142825Y-23894484D01*
X19142825Y-23894484D02*
X19161872Y-23904008D01*
X19161872Y-23904008D02*
X19171396Y-23913532D01*
X19171396Y-23913532D02*
X19180920Y-23932579D01*
X19180920Y-23932579D02*
X19190444Y-23970674D01*
X19190444Y-23970674D02*
X19190444Y-24018293D01*
X19190444Y-24018293D02*
X19180920Y-24056389D01*
X19180920Y-24056389D02*
X19171396Y-24075436D01*
X19171396Y-24075436D02*
X19161872Y-24084960D01*
X19161872Y-24084960D02*
X19142825Y-24094484D01*
X19142825Y-24094484D02*
X19123777Y-24094484D01*
X19123777Y-24094484D02*
X19104729Y-24084960D01*
X19104729Y-24084960D02*
X19095206Y-24075436D01*
X19095206Y-24075436D02*
X19085682Y-24056389D01*
X19085682Y-24056389D02*
X19076158Y-24018293D01*
X19076158Y-24018293D02*
X19076158Y-23970674D01*
X19076158Y-23970674D02*
X19085682Y-23932579D01*
X19085682Y-23932579D02*
X19095206Y-23913532D01*
X19095206Y-23913532D02*
X19104729Y-23904008D01*
X19104729Y-23904008D02*
X19123777Y-23894484D01*
X19266634Y-23894484D02*
X19266634Y-23932579D01*
X19342825Y-23894484D02*
X19342825Y-23932579D01*
X19638063Y-24170674D02*
X19628539Y-24161151D01*
X19628539Y-24161151D02*
X19609491Y-24132579D01*
X19609491Y-24132579D02*
X19599968Y-24113532D01*
X19599968Y-24113532D02*
X19590444Y-24084960D01*
X19590444Y-24084960D02*
X19580920Y-24037341D01*
X19580920Y-24037341D02*
X19580920Y-23999246D01*
X19580920Y-23999246D02*
X19590444Y-23951627D01*
X19590444Y-23951627D02*
X19599968Y-23923055D01*
X19599968Y-23923055D02*
X19609491Y-23904008D01*
X19609491Y-23904008D02*
X19628539Y-23875436D01*
X19628539Y-23875436D02*
X19638063Y-23865912D01*
X19819015Y-24094484D02*
X19704729Y-24094484D01*
X19761872Y-24094484D02*
X19761872Y-23894484D01*
X19761872Y-23894484D02*
X19742825Y-23923055D01*
X19742825Y-23923055D02*
X19723777Y-23942103D01*
X19723777Y-23942103D02*
X19704729Y-23951627D01*
X19885682Y-23894484D02*
X20009491Y-23894484D01*
X20009491Y-23894484D02*
X19942825Y-23970674D01*
X19942825Y-23970674D02*
X19971396Y-23970674D01*
X19971396Y-23970674D02*
X19990444Y-23980198D01*
X19990444Y-23980198D02*
X19999968Y-23989722D01*
X19999968Y-23989722D02*
X20009491Y-24008770D01*
X20009491Y-24008770D02*
X20009491Y-24056389D01*
X20009491Y-24056389D02*
X19999968Y-24075436D01*
X19999968Y-24075436D02*
X19990444Y-24084960D01*
X19990444Y-24084960D02*
X19971396Y-24094484D01*
X19971396Y-24094484D02*
X19914253Y-24094484D01*
X19914253Y-24094484D02*
X19895206Y-24084960D01*
X19895206Y-24084960D02*
X19885682Y-24075436D01*
X20133301Y-23894484D02*
X20152349Y-23894484D01*
X20152349Y-23894484D02*
X20171396Y-23904008D01*
X20171396Y-23904008D02*
X20180920Y-23913532D01*
X20180920Y-23913532D02*
X20190444Y-23932579D01*
X20190444Y-23932579D02*
X20199968Y-23970674D01*
X20199968Y-23970674D02*
X20199968Y-24018293D01*
X20199968Y-24018293D02*
X20190444Y-24056389D01*
X20190444Y-24056389D02*
X20180920Y-24075436D01*
X20180920Y-24075436D02*
X20171396Y-24084960D01*
X20171396Y-24084960D02*
X20152349Y-24094484D01*
X20152349Y-24094484D02*
X20133301Y-24094484D01*
X20133301Y-24094484D02*
X20114253Y-24084960D01*
X20114253Y-24084960D02*
X20104729Y-24075436D01*
X20104729Y-24075436D02*
X20095206Y-24056389D01*
X20095206Y-24056389D02*
X20085682Y-24018293D01*
X20085682Y-24018293D02*
X20085682Y-23970674D01*
X20085682Y-23970674D02*
X20095206Y-23932579D01*
X20095206Y-23932579D02*
X20104729Y-23913532D01*
X20104729Y-23913532D02*
X20114253Y-23904008D01*
X20114253Y-23904008D02*
X20133301Y-23894484D01*
X20438063Y-24094484D02*
X20438063Y-23894484D01*
X20523777Y-24094484D02*
X20523777Y-23989722D01*
X20523777Y-23989722D02*
X20514253Y-23970674D01*
X20514253Y-23970674D02*
X20495206Y-23961151D01*
X20495206Y-23961151D02*
X20466634Y-23961151D01*
X20466634Y-23961151D02*
X20447587Y-23970674D01*
X20447587Y-23970674D02*
X20438063Y-23980198D01*
X20647587Y-24094484D02*
X20628539Y-24084960D01*
X20628539Y-24084960D02*
X20619015Y-24075436D01*
X20619015Y-24075436D02*
X20609491Y-24056389D01*
X20609491Y-24056389D02*
X20609491Y-23999246D01*
X20609491Y-23999246D02*
X20619015Y-23980198D01*
X20619015Y-23980198D02*
X20628539Y-23970674D01*
X20628539Y-23970674D02*
X20647587Y-23961151D01*
X20647587Y-23961151D02*
X20676158Y-23961151D01*
X20676158Y-23961151D02*
X20695206Y-23970674D01*
X20695206Y-23970674D02*
X20704730Y-23980198D01*
X20704730Y-23980198D02*
X20714253Y-23999246D01*
X20714253Y-23999246D02*
X20714253Y-24056389D01*
X20714253Y-24056389D02*
X20704730Y-24075436D01*
X20704730Y-24075436D02*
X20695206Y-24084960D01*
X20695206Y-24084960D02*
X20676158Y-24094484D01*
X20676158Y-24094484D02*
X20647587Y-24094484D01*
X20828539Y-24094484D02*
X20809491Y-24084960D01*
X20809491Y-24084960D02*
X20799968Y-24065912D01*
X20799968Y-24065912D02*
X20799968Y-23894484D01*
X20980920Y-24084960D02*
X20961872Y-24094484D01*
X20961872Y-24094484D02*
X20923777Y-24094484D01*
X20923777Y-24094484D02*
X20904730Y-24084960D01*
X20904730Y-24084960D02*
X20895206Y-24065912D01*
X20895206Y-24065912D02*
X20895206Y-23989722D01*
X20895206Y-23989722D02*
X20904730Y-23970674D01*
X20904730Y-23970674D02*
X20923777Y-23961151D01*
X20923777Y-23961151D02*
X20961872Y-23961151D01*
X20961872Y-23961151D02*
X20980920Y-23970674D01*
X20980920Y-23970674D02*
X20990444Y-23989722D01*
X20990444Y-23989722D02*
X20990444Y-24008770D01*
X20990444Y-24008770D02*
X20895206Y-24027817D01*
X21066634Y-24084960D02*
X21085682Y-24094484D01*
X21085682Y-24094484D02*
X21123777Y-24094484D01*
X21123777Y-24094484D02*
X21142825Y-24084960D01*
X21142825Y-24084960D02*
X21152349Y-24065912D01*
X21152349Y-24065912D02*
X21152349Y-24056389D01*
X21152349Y-24056389D02*
X21142825Y-24037341D01*
X21142825Y-24037341D02*
X21123777Y-24027817D01*
X21123777Y-24027817D02*
X21095206Y-24027817D01*
X21095206Y-24027817D02*
X21076158Y-24018293D01*
X21076158Y-24018293D02*
X21066634Y-23999246D01*
X21066634Y-23999246D02*
X21066634Y-23989722D01*
X21066634Y-23989722D02*
X21076158Y-23970674D01*
X21076158Y-23970674D02*
X21095206Y-23961151D01*
X21095206Y-23961151D02*
X21123777Y-23961151D01*
X21123777Y-23961151D02*
X21142825Y-23970674D01*
X21219015Y-24170674D02*
X21228539Y-24161151D01*
X21228539Y-24161151D02*
X21247587Y-24132579D01*
X21247587Y-24132579D02*
X21257111Y-24113532D01*
X21257111Y-24113532D02*
X21266634Y-24084960D01*
X21266634Y-24084960D02*
X21276158Y-24037341D01*
X21276158Y-24037341D02*
X21276158Y-23999246D01*
X21276158Y-23999246D02*
X21266634Y-23951627D01*
X21266634Y-23951627D02*
X21257111Y-23923055D01*
X21257111Y-23923055D02*
X21247587Y-23904008D01*
X21247587Y-23904008D02*
X21228539Y-23875436D01*
X21228539Y-23875436D02*
X21219015Y-23865912D01*
M02*
